<svg width="254" height="252" viewBox="0 0 254 252" fill="none" xmlns="http://www.w3.org/2000/svg">
<path d="M0.0529007 123.227C2.06799 53.1917 60.5226 -1.94317 130.627 0.0525119C200.732 2.04819 256.122 54.2065 253.938 130.465C252.634 175.757 227.724 214.808 191.334 236.219C171.454 247.906 148.137 252.641 123.363 251.931C99.4528 251.254 77.2529 245.69 58.4906 233.665C22.2528 210.444 -1.26792 169.347 0.0529007 123.227Z" fill="#F8F8F8"/>
<g clip-path="url(#clip0)">
<path d="M130.955 134.609V41.0585C130.955 32.5242 137.755 25.6084 146.156 25.6084H238.243C246.645 25.6084 253.444 32.5242 253.444 41.0585V228.275C253.444 236.809 246.645 243.725 238.243 243.725H146.156C137.755 243.725 130.955 236.809 130.955 228.275V182.824V134.609Z" fill="white"/>
<path d="M246.645 51.457H137.739V215.621H246.645V51.457Z" fill="white"/>
<path d="M246.645 52.0289H137.739C137.428 52.0289 137.167 51.7674 137.167 51.4568C137.167 51.1463 137.428 50.8848 137.739 50.8848H246.645C246.955 50.8848 247.217 51.1463 247.217 51.4568C247.217 51.7837 246.955 52.0289 246.645 52.0289Z" fill="#5D7183"/>
<path d="M246.645 216.192H137.739C137.428 216.192 137.167 215.93 137.167 215.62C137.167 215.309 137.428 215.048 137.739 215.048H246.645C246.955 215.048 247.217 215.309 247.217 215.62C247.217 215.93 246.955 216.192 246.645 216.192Z" fill="#5D7183"/>
<path d="M203.51 40.1588H182.72C182.409 40.1588 182.147 39.8973 182.147 39.5867C182.147 39.2762 182.409 39.0146 182.72 39.0146H203.51C203.821 39.0146 204.082 39.2762 204.082 39.5867C204.082 39.9136 203.821 40.1588 203.51 40.1588Z" fill="#5D7183"/>
<path d="M169.513 41.8103H170.036C171.131 41.8103 172.03 40.9111 172.03 39.8157V39.2925C172.03 38.1971 171.131 37.2979 170.036 37.2979H169.513C168.418 37.2979 167.519 38.1971 167.519 39.2925V39.8157C167.519 40.9274 168.418 41.8103 169.513 41.8103Z" fill="#5D7183"/>
<path d="M186.626 234.782H197.773C200.16 234.782 202.105 232.853 202.105 230.45V229.305C202.105 226.918 200.176 224.973 197.773 224.973H186.626C184.24 224.973 182.295 226.902 182.295 229.305V230.45C182.295 232.853 184.223 234.782 186.626 234.782Z" fill="white"/>
<path d="M197.757 235.354H186.61C183.913 235.354 181.707 233.164 181.707 230.45V229.305C181.707 226.608 183.897 224.4 186.61 224.4H197.757C200.454 224.4 202.661 226.591 202.661 229.305V230.45C202.661 233.164 200.454 235.354 197.757 235.354ZM186.626 225.561C184.551 225.561 182.867 227.245 182.867 229.322V230.466C182.867 232.542 184.551 234.226 186.626 234.226H197.774C199.849 234.226 201.533 232.542 201.533 230.466V229.322C201.533 227.245 199.849 225.561 197.774 225.561H186.626Z" fill="#5D7183"/>
<path d="M238.227 244.297H146.156C137.461 244.297 130.383 237.103 130.383 228.275V68.0839C130.383 67.7733 130.645 67.5117 130.955 67.5117C131.266 67.5117 131.527 67.7733 131.527 68.0839V228.275C131.527 236.482 138.082 243.153 146.156 243.153H238.243C246.301 243.153 252.872 236.482 252.872 228.275V41.0585C252.872 32.8511 246.318 26.1806 238.243 26.1806H146.156C138.098 26.1806 131.527 32.8511 131.527 41.0585V49.2822C131.527 49.5928 131.266 49.8544 130.955 49.8544C130.645 49.8544 130.383 49.5928 130.383 49.2822V41.0585C130.383 32.2135 137.461 25.0361 146.156 25.0361H238.243C246.939 25.0361 254.016 32.2298 254.016 41.0585V228.275C254 237.103 246.923 244.297 238.227 244.297Z" fill="#5D7183"/>
<path d="M128.324 22.224C128.144 22.224 127.964 22.1422 127.85 21.9787L118.811 9.2753C118.631 9.01371 118.68 8.65402 118.942 8.47418C119.203 8.29434 119.563 8.34338 119.742 8.60497L128.798 21.3084C128.977 21.57 128.928 21.9297 128.667 22.1095C128.552 22.1913 128.438 22.224 128.324 22.224Z" fill="#5D7183"/>
<path d="M134.421 20.1313C134.143 20.1313 133.898 19.9187 133.848 19.6408L132.328 8.65402C132.279 8.34339 132.508 8.0491 132.819 8.0164C133.129 7.96735 133.424 8.19624 133.456 8.50688L134.976 19.4936C135.025 19.8043 134.796 20.0986 134.486 20.1313C134.47 20.1313 134.453 20.1313 134.421 20.1313Z" fill="#5D7183"/>
<path d="M0.620963 240.668C0.898827 239.033 2.38621 237.169 3.80822 235.943C14.8247 226.444 23.0462 214.116 27.7535 200.726C33.0166 185.75 28.9957 165.608 34.4223 150.632C35.9587 146.397 39.6363 145.776 43.7879 143.684C47.253 141.934 51.2739 141.64 55.164 141.378C60.9337 140.986 67.1938 140.724 71.9175 143.863C75.4317 146.201 77.4911 150.109 78.4718 154.082C88.1317 193.075 39.5872 234.7 5.96575 243.316C4.46202 243.692 2.71311 244.003 1.50359 243.088C0.686343 242.434 0.457514 241.583 0.620963 240.668Z" fill="#EEEEEE"/>
<path d="M3.56295 244.249C2.69667 244.249 1.86308 244.052 1.1766 243.529C0.244935 242.81 -0.147343 241.796 0.0651411 240.586C0.375694 238.739 2.01019 236.761 3.44854 235.518C14.2362 226.215 22.4577 214.117 27.2304 200.547C29.8129 193.206 30.1398 184.41 30.4667 175.908C30.5811 173.031 30.6955 170.039 30.8917 167.161C30.908 166.851 31.1859 166.606 31.4964 166.622C31.807 166.638 32.0521 166.916 32.0358 167.227C31.8397 170.104 31.7252 173.063 31.6108 175.941C31.2839 184.524 30.957 193.418 28.3092 200.923C23.4711 214.689 15.1352 226.951 4.2004 236.385C2.97454 237.447 1.45446 239.229 1.19294 240.783C1.06218 241.567 1.29101 242.172 1.87943 242.63C2.86012 243.382 4.44558 243.12 5.85124 242.761C17.3744 239.802 30.859 232.82 42.8234 223.583C55.7359 213.626 66.2457 201.577 72.4404 189.674C72.5875 189.396 72.9308 189.282 73.2086 189.429C73.4865 189.576 73.6009 189.92 73.4538 190.198C67.1937 202.247 56.5695 214.411 43.5263 224.482C31.4474 233.801 17.8157 240.864 6.14545 243.856C5.29551 244.069 4.41289 244.249 3.56295 244.249Z" fill="#5D7183"/>
<path d="M81.136 243.921C77.3931 240.651 80.7928 232.346 82.6234 228.896C87.6086 219.528 92.4467 216.258 84.9117 207.266C76.5595 197.309 60.9991 191.113 49.9009 184.491C48.3972 183.592 52.7613 179.455 52.32 177.755C51.8296 175.891 52.9737 174.044 54.0689 172.442C58.6618 165.738 63.2547 159.051 67.8476 152.348C70.5118 148.457 73.4703 144.337 77.8997 142.735C81.2995 141.509 85.2713 142.015 88.2461 144.059C93.5418 147.721 98.8703 159.395 101.436 165.346C106.225 176.513 113.597 188.431 114.414 200.628C115.313 213.953 108.04 222.863 98.8049 231.659C96.1243 234.258 84.7646 247.109 81.136 243.921Z" fill="#EEEEEE"/>
<path d="M82.5578 245C81.8713 245 81.2502 244.788 80.7435 244.347C78.9455 242.777 78.4389 240.079 79.2234 236.352C79.9589 232.837 81.6261 229.55 82.1165 228.618C83.0318 226.902 83.9471 225.365 84.7643 224.008C86.5786 221 88.0006 218.613 88.2131 216.177C88.4256 213.61 87.2814 210.978 84.4701 207.626C80.2858 202.623 72.097 197.914 64.8889 193.745C60.7373 191.342 56.7982 189.086 53.8071 186.895C53.5455 186.715 53.4965 186.355 53.6763 186.094C53.8561 185.832 54.2157 185.783 54.4772 185.963C57.4193 188.105 61.3257 190.361 65.4446 192.748C72.7508 196.966 81.0213 201.74 85.3364 206.89C91.76 214.558 89.488 218.335 85.7287 224.597C84.9278 225.937 84.0125 227.458 83.1135 229.158C80.9887 233.147 78.2591 240.652 81.4953 243.48C82.5741 244.428 84.9605 243.513 88.3929 240.815C91.4657 238.395 94.6367 235.125 96.7452 232.967C97.4643 232.232 98.0201 231.659 98.4287 231.267C102.417 227.458 106.895 222.863 109.919 217.566C112.976 212.236 114.251 206.71 113.858 200.677C113.254 191.62 108.987 182.693 104.852 174.077C104.182 172.687 103.496 171.249 102.842 169.843C102.711 169.548 102.825 169.221 103.12 169.074C103.398 168.943 103.741 169.058 103.888 169.352C104.542 170.742 105.228 172.181 105.898 173.57C110.083 182.301 114.398 191.326 115.019 200.596C115.444 206.857 114.103 212.596 110.933 218.122C107.827 223.534 103.283 228.226 99.2459 232.085C98.87 232.444 98.2979 233.016 97.5951 233.752C91.7926 239.703 86.0883 245 82.5578 245Z" fill="#5D7183"/>
<path d="M111.243 102.827C111.946 100.816 112.813 98.8378 113.891 96.925C116.31 92.6414 118.484 88.2925 120.773 83.9109C121.083 83.3059 121.966 81.5893 122.146 81.2459C129.844 66.4007 127.67 52.6346 118.778 48.0241C109.887 43.4136 97.6445 49.6917 89.946 64.5369C86.7751 70.6352 84.0782 76.9624 81.0544 83.1261L79.0603 86.6903C74.1078 90.7776 66.867 96.7942 63.1077 100.326C49.8029 112.784 39.8979 126.468 34.2752 143.848C33.2292 147.101 29.4208 164.677 30.6467 164.938C68.2073 172.933 102.254 168.944 103.921 167.521C104.231 153.396 102.564 133.907 105.768 120.108C106.7 116.07 107.844 112.081 109.184 108.157L111.243 102.827Z" fill="white"/>
<path d="M108.628 40.1432C107.68 40.9607 106.895 41.9743 106.389 43.1188C104.068 41.7618 102.417 40.3557 99.6218 41.0751C97.3172 41.6637 95.3558 43.3477 94.277 45.4404C93.0838 47.7783 93.7376 49.5277 94.7674 51.8003C93.0675 50.7376 89.2918 52.9774 87.8698 54.0238C84.1595 56.7868 83.0154 62.2475 85.5325 66.155C86.5949 67.8063 88.3275 69.0488 90.2725 69.2614C93.9338 69.6865 95.7644 66.5474 97.023 63.6535C96.7288 64.3402 100.733 66.4493 101.24 66.6618C103.022 67.4139 104.133 67.3975 105.898 66.9725C110.295 65.9425 112.616 64.2912 114.855 60.2529C114.169 61.4954 117.732 64.3402 118.467 65.0105C121.818 68.0188 126.803 68.4929 130.743 66.3348C134.012 64.5364 135.679 61.381 135.532 57.686C135.401 54.1873 132.688 49.6749 128.503 51.6041C129.893 48.7103 129.517 44.0507 126.591 42.1542C124.94 41.0751 122.652 41.0915 121.001 42.1705C121.933 41.5492 118.075 39.0805 117.552 38.8353C114.659 37.5437 111.047 38.0832 108.628 40.1432Z" fill="#FFBF3A"/>
<path d="M110.671 87.5889C110.23 87.5889 109.805 87.4908 109.413 87.311C108.17 86.7224 107.468 85.2673 107.745 83.9267C107.811 83.616 108.121 83.4198 108.432 83.4852C108.742 83.5506 108.939 83.8613 108.873 84.1719C108.693 84.9894 109.151 85.9213 109.903 86.281C110.655 86.6406 111.668 86.4118 112.191 85.7578C112.387 85.5125 112.747 85.4635 112.992 85.6597C113.237 85.8559 113.286 86.2156 113.09 86.4608C112.502 87.1802 111.586 87.5889 110.671 87.5889Z" fill="#5D7183"/>
<path d="M77.7687 170.365C65.9677 170.365 49.0017 169.45 30.5156 165.51C30.3194 165.461 30.1396 165.33 30.0252 165.134C29.8454 164.823 29.3551 163.989 31.1367 154.866C32.0193 150.387 33.1634 145.367 33.7192 143.667C38.9659 127.399 48.1844 113.486 62.6987 99.8998C66.2619 96.5646 72.7181 91.1693 78.6023 86.3135L80.531 82.8638C81.7569 80.3624 82.9501 77.7792 84.1105 75.2941C85.7941 71.6645 87.543 67.9042 89.4226 64.2746C93.1329 57.1136 98.1835 51.5058 103.626 48.4812C109.004 45.4892 114.479 45.1459 119.04 47.5166C123.6 49.8872 126.526 54.5795 127.245 60.7268C127.98 66.9886 126.346 74.3622 122.652 81.5068L121.279 84.1718C120.805 85.071 120.347 85.9702 119.89 86.8694C118.141 90.2701 116.326 93.7852 114.398 97.2022C113.384 99.0006 112.518 100.946 111.799 103.006V103.023L109.739 108.352C108.448 112.129 107.304 116.118 106.34 120.238C104.051 130.048 104.264 142.997 104.444 154.425C104.525 159.101 104.591 163.499 104.493 167.537C104.493 167.701 104.411 167.848 104.297 167.962C103.12 168.959 93.1656 170.186 80.7598 170.349C79.7955 170.349 78.7984 170.365 77.7687 170.365ZM30.9896 164.431C50.7833 168.616 68.828 169.335 80.482 169.188C93.8031 169.025 101.845 167.75 103.349 167.161C103.43 163.254 103.365 158.954 103.283 154.425C103.103 142.931 102.891 129.901 105.195 119.96C106.16 115.808 107.32 111.769 108.628 107.96V107.944L110.687 102.614C111.423 100.505 112.322 98.4938 113.368 96.63C115.28 93.2293 117.095 89.7306 118.827 86.3462C119.285 85.447 119.759 84.5478 120.216 83.6486L121.589 80.9837C125.185 74.0352 126.771 66.9069 126.068 60.874C125.398 55.119 122.685 50.7374 118.468 48.5466C114.267 46.3721 109.184 46.6991 104.149 49.4948C98.9027 52.405 94.0156 57.8493 90.4033 64.8142C88.54 68.411 86.7911 72.155 85.1076 75.7846C83.9471 78.286 82.7376 80.8692 81.5117 83.387C81.5117 83.4034 81.4954 83.4034 81.4954 83.4197L79.5503 86.9675C79.5176 87.0329 79.4686 87.082 79.4196 87.131C73.5354 91.9868 67.0301 97.4147 63.4833 100.734C49.1161 114.189 40.012 127.955 34.8143 144.027C34.3566 145.449 33.2615 150.027 32.2972 154.932C30.8915 162.06 30.9242 163.957 30.9896 164.431Z" fill="#5D7183"/>
<path d="M101.453 106.914C100.897 106.914 100.325 106.898 99.7364 106.849C96.5982 106.587 93.3129 105.655 90.4689 104.184C84.8135 101.274 80.6619 95.9601 79.0764 89.5676C78.9947 89.2569 79.1909 88.9463 79.5014 88.8809C79.812 88.7991 80.1225 88.9953 80.1879 89.306C81.6916 95.3716 85.6308 100.424 90.9919 103.17C96.0098 105.753 103.43 107.012 108.71 104.037C108.988 103.873 109.331 103.971 109.494 104.249C109.658 104.527 109.56 104.871 109.282 105.034C107.075 106.277 104.395 106.914 101.453 106.914Z" fill="#5D7183"/>
<path d="M113.711 134.397C110.115 134.397 106.405 133.955 102.646 133.089C92.1849 130.653 80.6617 122.773 79.6974 107.944C79.681 107.633 79.9098 107.355 80.2367 107.339C80.5473 107.322 80.8252 107.551 80.8415 107.878C81.2501 114.238 83.7019 119.682 88.0986 124.048C91.956 127.873 97.072 130.62 102.923 131.977C109.739 133.563 116.49 133.678 122.423 132.304C129.288 130.718 134.649 127.269 138.359 122.053C139.945 119.813 141.203 117.361 142.102 114.761C142.2 114.467 142.527 114.304 142.821 114.402C143.116 114.5 143.279 114.827 143.181 115.121C142.249 117.835 140.942 120.385 139.291 122.707C135.417 128.151 129.827 131.748 122.684 133.416C119.84 134.07 116.817 134.397 113.711 134.397Z" fill="#5D7183"/>
<path d="M122.21 122.854C115.591 122.854 109.903 119.863 106.748 114.631C106.585 114.353 106.666 114.01 106.944 113.846C107.222 113.683 107.565 113.764 107.729 114.042C110.965 119.437 117.111 122.266 124.172 121.612C131.151 120.974 136.104 117.05 141.399 111.361C144.685 107.829 147.856 106.096 151.059 106.08C151.37 106.08 151.631 106.342 151.631 106.652C151.631 106.963 151.37 107.225 151.059 107.225C148.183 107.241 145.29 108.843 142.217 112.129C136.741 118.015 131.609 122.07 124.254 122.74C123.583 122.838 122.881 122.854 122.21 122.854Z" fill="#5D7183"/>
<path d="M167.329 77.3779H152.343V89.8701M219.101 77.3779H234.087V89.8701M167.329 145.517H152.343V133.025M219.101 145.517H234.087V133.025" stroke="#FFBF3A" stroke-width="8" stroke-linecap="round" stroke-linejoin="round"/>
<rect x="169.435" y="94.1025" width="2.9725" height="34.4412" rx="1" fill="#9EA9B9"/>
<rect x="163.49" y="94.1025" width="2.97253" height="34.4412" rx="1" fill="#9EA9B9"/>
<rect x="211.05" y="94.1025" width="2.9725" height="34.4412" rx="1" fill="#9EA9B9"/>
<rect x="178.352" y="94.1025" width="2.97252" height="34.4412" rx="1" fill="#9EA9B9"/>
<rect x="219.968" y="94.1025" width="2.9725" height="34.4412" rx="1" fill="#9EA9B9"/>
<rect x="190.242" y="94.1025" width="2.97255" height="34.4412" rx="1" fill="#9EA9B9"/>
<rect x="196.188" y="94.1025" width="2.97253" height="34.4412" rx="1" fill="#9EA9B9"/>
<rect x="202.132" y="94.1025" width="2.97255" height="34.4412" rx="1" fill="#9EA9B9"/>
</g>
<defs>
<clipPath id="clip0">
<rect width="254" height="237" fill="white" transform="translate(0 8)"/>
</clipPath>
</defs>
</svg>
