<svg width="174" height="40" viewBox="0 0 174 40" fill="none" xmlns="http://www.w3.org/2000/svg">
<rect width="174" height="40" rx="20" fill="#FFB74F"/>
<path d="M37.28 25L41.004 15.662H42.012L45.722 25H44.644L43.524 22.088H39.492L38.372 25H37.28ZM39.87 21.122H43.146L41.508 16.852L39.87 21.122ZM50.0141 25.21C49.6781 25.21 49.3234 25.1587 48.9501 25.056C48.5768 24.9627 48.2221 24.7853 47.8861 24.524C47.5594 24.2533 47.2888 23.8707 47.0741 23.376C46.8688 22.872 46.7661 22.2187 46.7661 21.416C46.7661 20.3333 47.0274 19.4793 47.5501 18.854C48.0821 18.2193 48.8848 17.902 49.9581 17.902C50.2101 17.902 50.5134 17.944 50.8681 18.028C51.2228 18.1027 51.5448 18.196 51.8341 18.308V15.06H52.8421V23.796C52.8421 24.0573 52.7488 24.2813 52.5621 24.468C52.3848 24.6453 52.1514 24.79 51.8621 24.902C51.5728 25.0047 51.2648 25.0793 50.9381 25.126C50.6114 25.182 50.3034 25.21 50.0141 25.21ZM50.0281 24.286C50.5134 24.286 50.9334 24.23 51.2881 24.118C51.6521 24.006 51.8341 23.866 51.8341 23.698V19.316C51.5448 19.148 51.2321 19.0267 50.8961 18.952C50.5694 18.868 50.2568 18.826 49.9581 18.826C49.1928 18.826 48.6468 19.0687 48.3201 19.554C47.9934 20.03 47.8301 20.6507 47.8301 21.416C47.8301 21.92 47.8861 22.3913 47.9981 22.83C48.1101 23.2593 48.3248 23.6093 48.6421 23.88C48.9594 24.1507 49.4214 24.286 50.0281 24.286ZM57.9848 25.21C57.6488 25.21 57.2941 25.1587 56.9208 25.056C56.5475 24.9627 56.1928 24.7853 55.8568 24.524C55.5301 24.2533 55.2595 23.8707 55.0448 23.376C54.8395 22.872 54.7368 22.2187 54.7368 21.416C54.7368 20.3333 54.9981 19.4793 55.5208 18.854C56.0528 18.2193 56.8555 17.902 57.9288 17.902C58.1808 17.902 58.4841 17.944 58.8388 18.028C59.1935 18.1027 59.5155 18.196 59.8048 18.308V15.06H60.8128V23.796C60.8128 24.0573 60.7195 24.2813 60.5328 24.468C60.3555 24.6453 60.1221 24.79 59.8328 24.902C59.5435 25.0047 59.2355 25.0793 58.9088 25.126C58.5821 25.182 58.2741 25.21 57.9848 25.21ZM57.9988 24.286C58.4841 24.286 58.9041 24.23 59.2588 24.118C59.6228 24.006 59.8048 23.866 59.8048 23.698V19.316C59.5155 19.148 59.2028 19.0267 58.8668 18.952C58.5401 18.868 58.2275 18.826 57.9288 18.826C57.1635 18.826 56.6175 19.0687 56.2908 19.554C55.9641 20.03 55.8008 20.6507 55.8008 21.416C55.8008 21.92 55.8568 22.3913 55.9688 22.83C56.0808 23.2593 56.2955 23.6093 56.6128 23.88C56.9301 24.1507 57.3921 24.286 57.9988 24.286ZM67.188 25V15.662H68.28L71.444 20.52L74.706 15.662H75.798V25H74.79V17.3L71.388 22.074L68.196 17.328V25H67.188ZM80.9802 25.21C79.8882 25.21 79.0762 24.888 78.5442 24.244C78.0216 23.5907 77.7602 22.6853 77.7602 21.528C77.7602 20.3147 78.0356 19.4047 78.5862 18.798C79.1462 18.1913 79.9349 17.888 80.9522 17.888C81.7082 17.888 82.3242 18.042 82.8002 18.35C83.2762 18.6487 83.6262 19.0733 83.8502 19.624C84.0742 20.1653 84.1862 20.8 84.1862 21.528C84.1862 22.676 83.9062 23.5767 83.3462 24.23C82.7956 24.8833 82.0069 25.21 80.9802 25.21ZM80.9662 24.286C81.5356 24.286 81.9789 24.1647 82.2962 23.922C82.6136 23.67 82.8376 23.3387 82.9682 22.928C83.1082 22.508 83.1782 22.0413 83.1782 21.528C83.1782 20.6973 83.0149 20.0393 82.6882 19.554C82.3616 19.0593 81.7876 18.812 80.9662 18.812C80.4062 18.812 79.9676 18.9333 79.6502 19.176C79.3329 19.4187 79.1042 19.7453 78.9642 20.156C78.8336 20.5573 78.7682 21.0147 78.7682 21.528C78.7682 22.3493 78.9316 23.0167 79.2582 23.53C79.5849 24.034 80.1542 24.286 80.9662 24.286ZM86.0809 25V18.574C86.1929 18.5273 86.4076 18.448 86.7249 18.336C87.0516 18.224 87.4389 18.1213 87.8869 18.028C88.3443 17.9347 88.8156 17.888 89.3009 17.888C89.3756 17.888 89.4503 17.8973 89.5249 17.916C89.5996 17.9347 89.6743 17.9533 89.7489 17.972V18.868C89.2636 18.812 88.8063 18.812 88.3769 18.868C87.9476 18.924 87.5183 18.9893 87.0889 19.064V25H86.0809ZM93.7501 25.21C92.7514 25.21 91.9628 24.902 91.3841 24.286C90.8054 23.6607 90.5161 22.732 90.5161 21.5C90.5161 20.296 90.7868 19.3953 91.3281 18.798C91.8788 18.1913 92.6301 17.888 93.5821 17.888C94.3288 17.888 94.9261 18.056 95.3741 18.392C95.8314 18.728 96.1581 19.1807 96.3541 19.75C96.5501 20.3193 96.6434 20.9633 96.6341 21.682H91.5381C91.5381 22.5313 91.7341 23.18 92.1261 23.628C92.5274 24.0667 93.0874 24.286 93.8061 24.286C94.3194 24.286 94.7721 24.23 95.1641 24.118C95.5654 24.006 95.9108 23.8613 96.2001 23.684V24.72C95.5188 25.0467 94.7021 25.21 93.7501 25.21ZM93.5821 18.812C92.9941 18.812 92.5368 18.952 92.2101 19.232C91.8834 19.5027 91.6734 20.0113 91.5801 20.758H95.5701C95.5328 20.1047 95.3508 19.6193 95.0241 19.302C94.6974 18.9753 94.2168 18.812 93.5821 18.812ZM103.661 21.43V25H102.653V15.662H105.971C107.016 15.662 107.814 15.9093 108.365 16.404C108.925 16.8987 109.205 17.6127 109.205 18.546C109.205 19.4793 108.925 20.1933 108.365 20.688C107.814 21.1827 107.016 21.43 105.971 21.43H103.661ZM103.661 20.464H105.845C106.368 20.464 106.783 20.408 107.091 20.296C107.408 20.184 107.646 20.0347 107.805 19.848C107.964 19.652 108.066 19.442 108.113 19.218C108.169 18.994 108.197 18.77 108.197 18.546C108.197 18.322 108.169 18.098 108.113 17.874C108.066 17.65 107.964 17.4447 107.805 17.258C107.646 17.062 107.408 16.908 107.091 16.796C106.783 16.684 106.368 16.628 105.845 16.628H103.661V20.464ZM111.169 25V18.574C111.281 18.5273 111.495 18.448 111.813 18.336C112.139 18.224 112.527 18.1213 112.975 18.028C113.432 17.9347 113.903 17.888 114.389 17.888C114.463 17.888 114.538 17.8973 114.613 17.916C114.687 17.9347 114.762 17.9533 114.837 17.972V18.868C114.351 18.812 113.894 18.812 113.465 18.868C113.035 18.924 112.606 18.9893 112.177 19.064V25H111.169ZM118.824 25.21C117.732 25.21 116.92 24.888 116.388 24.244C115.865 23.5907 115.604 22.6853 115.604 21.528C115.604 20.3147 115.879 19.4047 116.43 18.798C116.99 18.1913 117.779 17.888 118.796 17.888C119.552 17.888 120.168 18.042 120.644 18.35C121.12 18.6487 121.47 19.0733 121.694 19.624C121.918 20.1653 122.03 20.8 122.03 21.528C122.03 22.676 121.75 23.5767 121.19 24.23C120.639 24.8833 119.851 25.21 118.824 25.21ZM118.81 24.286C119.379 24.286 119.823 24.1647 120.14 23.922C120.457 23.67 120.681 23.3387 120.812 22.928C120.952 22.508 121.022 22.0413 121.022 21.528C121.022 20.6973 120.859 20.0393 120.532 19.554C120.205 19.0593 119.631 18.812 118.81 18.812C118.25 18.812 117.811 18.9333 117.494 19.176C117.177 19.4187 116.948 19.7453 116.808 20.156C116.677 20.5573 116.612 21.0147 116.612 21.528C116.612 22.3493 116.775 23.0167 117.102 23.53C117.429 24.034 117.998 24.286 118.81 24.286ZM126.823 25.21C126.487 25.21 126.132 25.1587 125.759 25.056C125.385 24.9627 125.031 24.7853 124.695 24.524C124.368 24.2533 124.097 23.8707 123.883 23.376C123.677 22.872 123.575 22.2187 123.575 21.416C123.575 20.3333 123.836 19.4793 124.359 18.854C124.891 18.2193 125.693 17.902 126.767 17.902C127.019 17.902 127.322 17.944 127.677 18.028C128.031 18.1027 128.353 18.196 128.643 18.308V15.06H129.651V23.796C129.651 24.0573 129.557 24.2813 129.371 24.468C129.193 24.6453 128.96 24.79 128.671 24.902C128.381 25.0047 128.073 25.0793 127.747 25.126C127.42 25.182 127.112 25.21 126.823 25.21ZM126.837 24.286C127.322 24.286 127.742 24.23 128.097 24.118C128.461 24.006 128.643 23.866 128.643 23.698V19.316C128.353 19.148 128.041 19.0267 127.705 18.952C127.378 18.868 127.065 18.826 126.767 18.826C126.001 18.826 125.455 19.0687 125.129 19.554C124.802 20.03 124.639 20.6507 124.639 21.416C124.639 21.92 124.695 22.3913 124.807 22.83C124.919 23.2593 125.133 23.6093 125.451 23.88C125.768 24.1507 126.23 24.286 126.837 24.286ZM134.821 25.21C133.888 25.21 133.165 24.972 132.651 24.496C132.147 24.0107 131.895 23.3247 131.895 22.438V18.014H132.903V22.214C132.903 22.9233 133.057 23.446 133.365 23.782C133.683 24.1087 134.168 24.272 134.821 24.272C135.475 24.272 135.955 24.1087 136.263 23.782C136.581 23.446 136.739 22.9233 136.739 22.214V18.014H137.747V22.438C137.747 23.3247 137.491 24.0107 136.977 24.496C136.473 24.972 135.755 25.21 134.821 25.21ZM142.915 25.112C142.542 25.112 142.159 25.0653 141.767 24.972C141.384 24.8693 141.03 24.692 140.703 24.44C140.386 24.1787 140.129 23.81 139.933 23.334C139.737 22.858 139.639 22.2467 139.639 21.5C139.639 20.7533 139.737 20.1467 139.933 19.68C140.129 19.204 140.386 18.8353 140.703 18.574C141.03 18.3127 141.384 18.1353 141.767 18.042C142.159 17.9393 142.542 17.888 142.915 17.888C143.27 17.888 143.62 17.9207 143.965 17.986C144.32 18.0513 144.66 18.1493 144.987 18.28V19.246C144.679 19.1153 144.362 19.0173 144.035 18.952C143.708 18.8867 143.372 18.854 143.027 18.854C142.196 18.854 141.59 19.064 141.207 19.484C140.834 19.904 140.647 20.576 140.647 21.5C140.647 22.4333 140.834 23.11 141.207 23.53C141.59 23.9407 142.196 24.146 143.027 24.146C143.727 24.146 144.38 24.0153 144.987 23.754V24.734C144.334 24.986 143.643 25.112 142.915 25.112ZM149.078 25.112C148.583 25.112 148.168 24.9627 147.832 24.664C147.496 24.356 147.328 23.9033 147.328 23.306V18.938H146.11V18.014H147.328V16.04H148.336V18.014H150.142V18.938H148.336V22.984C148.336 23.376 148.396 23.67 148.518 23.866C148.639 24.062 148.886 24.16 149.26 24.16C149.605 24.16 149.899 24.104 150.142 23.992V24.944C150.011 24.9907 149.843 25.028 149.638 25.056C149.442 25.0933 149.255 25.112 149.078 25.112ZM153.94 25.21C153.436 25.21 153.011 25.1587 152.666 25.056C152.33 24.9533 151.98 24.8087 151.616 24.622V23.558C152.045 23.8007 152.414 23.9827 152.722 24.104C153.039 24.2253 153.422 24.286 153.87 24.286C154.336 24.286 154.714 24.1833 155.004 23.978C155.302 23.7727 155.452 23.5067 155.452 23.18C155.452 22.9187 155.377 22.718 155.228 22.578C155.088 22.438 154.906 22.3213 154.682 22.228C154.458 22.1347 154.224 22.0367 153.982 21.934C153.711 21.8593 153.436 21.78 153.156 21.696C152.885 21.6027 152.633 21.486 152.4 21.346C152.176 21.1967 151.994 21.01 151.854 20.786C151.714 20.5527 151.644 20.254 151.644 19.89C151.644 19.414 151.765 19.0313 152.008 18.742C152.25 18.4433 152.558 18.2287 152.932 18.098C153.314 17.958 153.697 17.888 154.08 17.888C154.5 17.888 154.859 17.944 155.158 18.056C155.456 18.168 155.764 18.294 156.082 18.434V19.442C155.727 19.2553 155.41 19.106 155.13 18.994C154.85 18.8727 154.518 18.812 154.136 18.812C153.753 18.812 153.408 18.8913 153.1 19.05C152.801 19.1993 152.652 19.4327 152.652 19.75C152.652 20.0113 152.726 20.2213 152.876 20.38C153.034 20.5293 153.24 20.6507 153.492 20.744C153.744 20.828 154.014 20.912 154.304 20.996C154.537 21.0707 154.78 21.1547 155.032 21.248C155.284 21.332 155.517 21.4487 155.732 21.598C155.946 21.738 156.119 21.9247 156.25 22.158C156.39 22.3913 156.46 22.69 156.46 23.054C156.46 23.5487 156.334 23.9593 156.082 24.286C155.83 24.6033 155.508 24.8367 155.116 24.986C154.733 25.1353 154.341 25.21 153.94 25.21Z" fill="black"/>
<path d="M27 19.6667H15V20.3334H27V19.6667Z" fill="black" stroke="black" stroke-width="0.5" stroke-linecap="round" stroke-linejoin="round"/>
<path d="M21.3337 14H20.6671V26H21.3337V14Z" fill="black" stroke="black" stroke-width="0.5" stroke-linecap="round" stroke-linejoin="round"/>
</svg>
