<svg width="78" height="20" viewBox="0 0 78 20" fill="none" xmlns="http://www.w3.org/2000/svg">
<rect width="78" height="20" rx="2" fill="#6FCF97"/>
<path d="M10 13.8723L12.9974 6.12772H14.3462L17.2629 13.8723H15.9256L15.1647 11.7707H12.029L11.2681 13.8723H10ZM12.3979 10.7257H14.7958L13.5969 7.41655L12.3979 10.7257Z" fill="white"/>
<path d="M19.6384 11.0972V13.8723H18.3703V6.12772H21.4138C22.29 6.12772 22.9663 6.33285 23.4428 6.74311C23.927 7.15336 24.1691 7.76488 24.1691 8.57765C24.1691 9.38268 23.927 10.0058 23.4428 10.447C22.9663 10.8805 22.29 11.0972 21.4138 11.0972H19.6384ZM19.6384 10.0058H21.2524C21.6982 10.0058 22.0325 9.94001 22.2554 9.80842C22.486 9.67683 22.6397 9.50653 22.7165 9.29753C22.8011 9.08079 22.8433 8.85631 22.8433 8.62409C22.8433 8.38413 22.8011 8.15578 22.7165 7.93904C22.6397 7.7223 22.486 7.54814 22.2554 7.41655C22.0325 7.27721 21.6982 7.20755 21.2524 7.20755H19.6384V10.0058Z" fill="white"/>
<path d="M26.9563 11.0972V13.8723H25.6881V6.12772H28.7316C29.6078 6.12772 30.2841 6.33285 30.7606 6.74311C31.2448 7.15336 31.4869 7.76488 31.4869 8.57765C31.4869 9.38268 31.2448 10.0058 30.7606 10.447C30.2841 10.8805 29.6078 11.0972 28.7316 11.0972H26.9563ZM26.9563 10.0058H28.5702C29.016 10.0058 29.3503 9.94001 29.5732 9.80842C29.8038 9.67683 29.9575 9.50653 30.0343 9.29753C30.1189 9.08079 30.1612 8.85631 30.1612 8.62409C30.1612 8.38413 30.1189 8.15578 30.0343 7.93904C29.9575 7.7223 29.8038 7.54814 29.5732 7.41655C29.3503 7.27721 29.016 7.20755 28.5702 7.20755H26.9563V10.0058Z" fill="white"/>
<path d="M33.006 13.8723V6.12772H36.4184C37.2177 6.12772 37.8325 6.32511 38.2629 6.71988C38.6933 7.10692 38.9085 7.69134 38.9085 8.47315C38.9085 9.015 38.7586 9.49879 38.4589 9.92453C38.1668 10.3425 37.7557 10.6096 37.2254 10.7257L39.2774 13.8723H37.698L35.8996 10.9463H34.2741V13.8723H33.006ZM34.2741 9.90131H36.061C37.0678 9.90131 37.5712 9.44848 37.5712 8.54282C37.5712 8.12482 37.4713 7.79971 37.2715 7.56749C37.0716 7.32753 36.7373 7.20755 36.2685 7.20755H34.2741V9.90131Z" fill="white"/>
<path d="M43.6429 14C42.4977 14 41.6139 13.671 40.9913 13.0131C40.3765 12.3474 40.0691 11.3449 40.0691 10.0058C40.0691 8.68215 40.3727 7.6836 40.9798 7.01016C41.5947 6.33672 42.4824 6 43.6429 6C44.788 6 45.6719 6.33285 46.2944 6.99855C46.9169 7.65651 47.2282 8.65893 47.2282 10.0058C47.2282 11.3217 46.9208 12.3164 46.3059 12.9898C45.6988 13.6633 44.8111 14 43.6429 14ZM43.6429 12.897C44.4114 12.897 44.9802 12.6725 45.3491 12.2235C45.7257 11.7668 45.914 11.0237 45.914 9.99419C45.914 8.98016 45.7257 8.24867 45.3491 7.79971C44.9802 7.34301 44.4114 7.11466 43.6429 7.11466C42.8743 7.11466 42.3017 7.34301 41.9251 7.79971C41.5562 8.24867 41.3718 8.98403 41.3718 10.0058C41.3718 11.0276 41.5562 11.7668 41.9251 12.2235C42.3017 12.6725 42.8743 12.897 43.6429 12.897Z" fill="white"/>
<path d="M50.6541 13.8723L47.7374 6.12772H49.167L51.4035 12.3628L53.6169 6.13933L54.9542 6.12772L51.9799 13.8723H50.6541Z" fill="white"/>
<path d="M54.6725 13.8723L57.6699 6.12772H59.0187L61.9354 13.8723H60.5981L59.8372 11.7707H56.7015L55.9406 13.8723H54.6725ZM57.0704 10.7257H59.4683L58.2693 7.41655L57.0704 10.7257Z" fill="white"/>
<path d="M63.0428 13.8723V6.12772H64.3224V12.7808H68V13.8723H63.0428Z" fill="white"/>
</svg>
