<svg width="188" height="200" viewBox="0 0 188 200" fill="none" xmlns="http://www.w3.org/2000/svg">
<path d="M162.711 39.2261C172.396 30.723 183.611 31.4464 188 31.5352C186.367 27.5756 183.279 18.641 183.279 18.641C173.097 18.0319 162.545 26.3699 152.721 30.3676C152.784 30.5834 161.295 35.3807 162.711 39.2261Z" fill="#96E296"/>
<path d="M161.487 36.4326C171.375 30.3916 180.626 29.3128 184.824 29.7697C183.65 26.965 181.876 21.1651 181.8 21.0763C171.886 20.429 164.281 27.5868 155.949 30.9119C156 31.0642 160.492 33.704 161.487 36.4326Z" fill="white"/>
<path d="M165.763 30.0984C165.189 28.7659 166.759 26.7353 169.068 25.8342C171.378 24.9331 174.006 25.3139 174.618 26.6465C176.137 29.9335 167.18 33.4235 165.763 30.0984Z" fill="#96E296"/>
<path d="M178.062 26.8779C179.465 27.3094 180.843 25.8753 180.027 24.9743C179.325 24.2001 178.126 24.492 177.539 25.4185C177.194 25.9896 177.424 26.6876 178.062 26.8779Z" fill="#96E296"/>
<path d="M161.273 34.1104C162.676 34.5419 164.054 33.1078 163.238 32.2067C162.536 31.4325 161.336 31.7244 160.749 32.6509C160.392 33.222 160.635 33.92 161.273 34.1104Z" fill="#96E296"/>
<path d="M159.189 35.0003C159.189 32.5129 159.47 30.0762 159.764 27.6141C160.108 24.7205 160.555 21.8269 161.167 18.9968C162.379 13.2985 164.204 7.73976 166.513 2.33334C161.269 1.54649 156.025 0.721564 150.768 0.0108605C150.551 -0.0145218 150.258 0.0108605 150.041 0.0235516C150.245 10.7095 150.003 21.3827 148.701 31.9925C152.363 32.4621 155.872 33.287 159.189 35.0003Z" fill="#96E296"/>
<path d="M158.157 31.6376C158.209 29.5563 158.413 27.513 158.655 25.4571C158.923 23.033 159.255 20.609 159.689 18.2358C160.569 13.4766 161.87 8.7809 163.555 4.18671C159.982 3.6283 156.409 3.06989 152.837 2.54955C152.696 2.52417 152.492 2.56224 152.352 2.57494C152.071 11.5856 151.663 20.5963 150.91 29.5817C153.398 30.0005 155.861 30.5843 158.157 31.6376Z" fill="white"/>
<path d="M155.48 21.4223C153.566 20.8385 152.584 17.8941 152.647 16.0539C152.711 14.2137 154.204 11.6882 156.335 12.0435C160.597 12.7415 159.18 22.5518 155.48 21.4223Z" fill="#96E296"/>
<path d="M157.928 8.92078C158.821 8.08316 158.477 6.07796 157.061 6.19218C156.014 6.28102 155.695 7.52475 156.308 8.54005C156.678 9.14922 157.469 9.35228 157.928 8.92078Z" fill="#96E296"/>
<path d="M155.516 27.0938C156.307 26.2054 155.835 24.2129 154.878 24.3398C154.048 24.454 153.806 25.6089 154.291 26.6369C154.572 27.2714 155.146 27.4999 155.516 27.0938Z" fill="#96E296"/>
<path d="M162.877 38.8209C168.313 22.3731 177.78 17.2078 182.22 13.502C177.844 10.2023 175.585 8.50173 171.209 5.20204C171.043 5.07512 170.762 4.9609 170.571 4.85938C160.261 12.1695 155.056 19.9111 150.207 30.9143C150.424 31.1173 156.778 34.1251 162.877 38.8209Z" fill="#96E296"/>
<path d="M161.806 35.1803C167.114 21.6389 174.77 16.867 178.444 13.6054C175.293 11.2575 173.672 10.0519 170.521 7.71672C170.393 7.62788 170.202 7.55174 170.049 7.48828C161.602 14.0369 157.06 20.5855 152.568 29.7232C152.734 29.8628 157.43 31.8299 161.806 35.1803Z" fill="white"/>
<path d="M161.04 24.7735C159.19 23.3901 158.884 20.3062 160.402 18.2883C161.921 16.2704 164.996 15.6739 166.871 17.0192C171.541 20.395 165.647 28.2255 161.04 24.7735Z" fill="#96E296"/>
<path d="M170.213 15.3401C171.846 15.1244 172.127 13.0049 170.71 12.4592C169.498 12.0023 168.567 12.8526 168.681 14.0837C168.745 14.8325 169.46 15.4416 170.213 15.3401Z" fill="#96E296"/>
<path d="M159.076 30.176C160.709 29.9603 160.99 27.8409 159.573 27.2952C158.361 26.8383 157.43 27.6886 157.545 28.9196C157.609 29.6684 158.323 30.2776 159.076 30.176Z" fill="#96E296"/>
<path d="M2.53967 144.995C2.25897 144.995 2.0293 145.163 2.0293 145.369C2.0293 145.575 2.24621 145.744 2.53967 145.744L32.0649 146.006C32.3456 146.006 32.5752 145.837 32.5752 145.631C32.5752 145.425 32.3583 145.257 32.0649 145.257L2.53967 144.995Z" fill="#5D7183"/>
<path d="M42.1725 199.111C41.8918 199.111 41.6621 199.27 41.6621 199.476C41.6621 199.682 41.879 199.85 42.1597 199.86L50.9637 200H50.9764C51.2572 200 51.4868 199.841 51.4868 199.635C51.4868 199.429 51.2699 199.26 50.9892 199.251L42.1725 199.111Z" fill="#5D7183"/>
<path d="M26.6691 134.93C26.3884 134.93 26.1715 135.089 26.1587 135.295C26.146 135.501 26.3756 135.669 26.6563 135.679C33.2402 135.8 39.9516 135.838 46.5737 135.791C46.8544 135.791 47.0841 135.623 47.0841 135.417C47.0841 135.211 46.8544 135.042 46.5737 135.042C39.9516 135.089 33.2657 135.042 26.6818 134.93C26.6691 134.93 26.6691 134.93 26.6691 134.93Z" fill="#5D7183"/>
<path d="M0.51091 174.665C0.242963 174.665 0.0132946 174.824 0.00053525 175.021C-0.0122241 175.227 0.204685 175.405 0.485391 175.414C5.43603 175.602 10.476 175.639 15.4521 175.527C15.7328 175.517 15.9497 175.349 15.9497 175.143C15.937 174.937 15.7073 174.778 15.4266 174.778C10.476 174.89 5.46155 174.853 0.536429 174.665C0.523669 174.665 0.523669 174.665 0.51091 174.665Z" fill="#5D7183"/>
<path d="M120.857 66.1449C112.474 66.1449 106.171 62.3629 102.471 55.0402C102.343 54.7863 102.445 54.4818 102.701 54.3548C102.956 54.2279 103.262 54.3295 103.39 54.5833C105.674 59.1013 108.965 62.2107 113.176 63.8224C116.812 65.2058 121.125 65.4977 126.025 64.6854C134.101 63.3402 141.451 59.7613 146.72 54.596C152.743 48.6946 155.831 40.953 155.652 32.1961C155.652 31.9169 155.869 31.6885 156.15 31.6758C156.43 31.6758 156.66 31.8915 156.673 32.1707C156.864 41.2195 153.661 49.2149 147.435 55.3194C142.012 60.6243 134.471 64.3047 126.191 65.688C124.328 65.9799 122.541 66.1449 120.857 66.1449Z" fill="#5D7183"/>
<path d="M123.028 100.881C134.881 112.557 151.405 124.283 155.82 143.054C158.167 153.054 151.711 165.2 145.689 173.284C143.736 175.911 134.167 191.902 130.594 189.719C126.218 187.041 129.127 178.259 130.326 174.464C132.649 167.116 134.562 161.468 130.186 154.26C124.355 144.665 99.6401 136.835 99.6401 136.835C99.6401 136.835 97.0627 144.602 93.2859 152.166C91.0275 156.697 88.3225 161.151 84.8264 164.819C71.8374 178.449 53.6553 187.46 35.0904 188.919C33.7507 189.021 32.194 189.034 31.3264 188.056C30.7267 187.384 30.6629 186.622 30.9436 185.861C31.4412 184.49 33.0106 183.119 34.4269 182.282C41.8656 177.853 51.9328 169.375 56.003 155.986C58.5038 147.737 52.7239 133.459 53.9615 114.562L123.028 100.881Z" fill="#DFE2EA"/>
<path d="M131.334 190.44C130.977 190.44 130.645 190.351 130.339 190.161C125.72 187.331 128.451 178.726 129.765 174.589L129.969 173.954C131.118 170.35 132.1 167.24 132.279 164.131C132.483 160.755 131.679 157.697 129.752 154.537C124.534 145.945 103.417 138.635 99.9719 137.48C99.3467 139.295 96.9735 145.957 93.7581 152.405C91.0276 157.862 88.3226 161.923 85.2093 165.184C78.7531 171.962 70.8295 177.736 62.2807 181.911C53.5151 186.188 44.3794 188.727 35.1288 189.45C33.6232 189.564 31.9517 189.539 30.9437 188.422C30.2675 187.66 30.1016 186.734 30.4589 185.719C31.0203 184.183 32.7428 182.724 34.1591 181.873C40.2964 178.218 51.2184 169.982 55.5055 155.869C56.7049 151.91 55.9521 146.516 54.9824 139.675C54.3061 134.903 53.5533 129.484 53.3237 123.494C53.3109 123.215 53.5278 122.974 53.8085 122.974C53.8085 122.974 53.8213 122.974 53.834 122.974C54.102 122.974 54.3317 123.19 54.3444 123.469C54.5613 129.408 55.3269 134.802 55.9904 139.548C56.9728 146.503 57.7384 152.011 56.4752 156.174C52.1115 170.604 40.9598 179.005 34.7078 182.736C33.4956 183.46 31.9135 184.767 31.4414 186.049C31.1989 186.709 31.301 187.254 31.7221 187.724C32.4366 188.511 33.8146 188.523 35.065 188.422C44.188 187.699 53.1961 185.198 61.8469 180.985C70.2809 176.873 78.1151 171.162 84.482 164.474C87.5188 161.288 90.1727 157.303 92.8522 151.935C96.5652 144.485 99.1426 136.744 99.1681 136.668C99.2574 136.401 99.5381 136.261 99.806 136.338C99.8698 136.363 106.096 138.343 112.948 141.477C122.211 145.716 128.157 149.917 130.633 153.991C135.06 161.276 133.248 166.999 130.952 174.246L130.748 174.893C129.612 178.485 126.945 186.886 130.875 189.298C131.449 189.653 132.98 189.551 136.783 184.983C139.335 181.911 141.95 177.964 143.685 175.363C144.4 174.297 144.949 173.446 145.293 172.99C149.185 167.748 157.963 154.359 155.335 143.178C153.753 136.464 150.448 130.055 145.229 123.583C140.598 117.847 135.137 112.834 129.854 107.986C129.65 107.795 129.637 107.478 129.829 107.262C130.02 107.059 130.339 107.046 130.556 107.237C140.942 116.768 152.732 127.581 156.343 142.95C159.073 154.549 150.116 168.256 146.135 173.599C145.816 174.03 145.255 174.868 144.553 175.921C139.807 183.028 134.601 190.44 131.334 190.44Z" fill="#5D7183"/>
<path d="M127.664 105.284C120.48 91.4502 115.083 81.5511 107.848 66.0679C102.681 55.0266 98.4448 43.5792 93.1879 32.576C88.7987 23.4511 82.1511 7.51103 69.7745 7.72678C64.8622 7.81562 60.1029 10.76 57.8573 15.1257C55.8158 19.098 55.8668 23.8191 56.6579 28.1976C57.4617 32.5887 60.6261 42.3863 61.3406 46.7901C63.2672 58.5167 44.9448 82.7441 53.0598 120.932C53.0725 120.932 101.507 128.369 127.664 105.284Z" fill="white"/>
<path d="M56.0003 43.022C58.8584 43.9357 62.1375 43.0093 64.4214 41.169C67.0243 39.075 68.1217 35.6611 68.2365 32.4375C68.2492 32.133 68.3258 29.4297 68.0579 29.3663C70.8266 30.0262 73.9527 28.6683 75.3562 26.1935C76.747 23.7187 76.3004 20.3556 74.2972 18.3504C77.2063 19.9875 80.9958 18.6042 83.4201 16.3325C84.8619 14.9745 86.0485 13.2612 86.3931 11.3195C86.7376 9.37775 86.1379 7.19488 84.5685 5.97653C82.9991 4.75818 80.4727 4.80894 79.184 6.3065C78.0867 3.38754 75.05 1.30619 71.9112 1.34426C68.7851 1.38234 65.7867 3.52714 64.7659 6.47148C59.3049 4.94855 52.9635 7.63907 50.2968 12.614C49.5313 14.0354 49.0464 15.6852 49.4419 17.2463C49.8375 18.8073 51.3303 20.1525 52.938 19.9622C50.3479 21.1424 48.2043 24.3406 48.6253 27.2723C48.8295 28.6556 50.7179 32.0187 54.6605 31.5238C52.7849 34.3539 50.8838 38.377 53.4994 41.3975C54.1757 42.1843 55.0433 42.7174 56.0003 43.022Z" fill="#96E296"/>
<path d="M71.1868 122.581C60.5965 122.581 53.0813 121.452 52.9919 121.439C52.7878 121.401 52.6092 121.249 52.5709 121.046C50.2104 109.928 49.8404 99.052 51.4481 87.8077C52.8261 78.2132 55.429 69.9639 57.5215 63.3265C59.7289 56.321 61.4769 50.8003 60.839 46.8661C60.4689 44.5944 59.4227 40.8124 58.4019 37.1447C57.445 33.68 56.539 30.4057 56.1435 28.2862C55.161 22.9052 55.5821 18.3999 57.3812 14.8844C59.7034 10.3917 64.6795 7.3078 69.7577 7.21896C81.6622 7.01591 88.3226 21.1284 92.7374 30.4691C93.0436 31.1291 93.3498 31.7636 93.6305 32.3601C96.4121 38.16 98.9384 44.1882 101.388 50.0135C103.583 55.2422 105.854 60.636 108.291 65.852C114.084 78.2513 118.69 87.0335 124.011 97.1991C125.325 99.712 126.677 102.301 128.106 105.042C128.208 105.245 128.17 105.499 127.991 105.651C121.969 110.969 114.275 115.094 105.114 117.936C97.8028 120.208 89.5475 121.655 80.5777 122.251C77.2858 122.493 74.1215 122.581 71.1868 122.581ZM53.4896 120.475C55.5821 120.767 66.8231 122.175 80.5394 121.249C89.4199 120.652 97.5987 119.218 104.82 116.972C113.688 114.218 121.152 110.246 127.009 105.156C125.644 102.542 124.355 100.067 123.092 97.6687C117.771 87.4904 113.165 78.6954 107.36 66.2835C104.91 61.0421 102.639 55.6356 100.431 50.4069C97.9815 44.5944 95.4551 38.5788 92.6863 32.8043C92.3929 32.1951 92.0994 31.5606 91.7804 30.9006C87.5316 21.8645 81.1008 8.23425 70.0129 8.23425C69.9364 8.23425 69.8598 8.23425 69.7833 8.23425C65.0623 8.3104 60.4562 11.1786 58.3126 15.354C56.6156 18.6664 56.2328 22.956 57.1643 28.1086C57.547 30.1772 58.4402 33.4389 59.3971 36.8781C60.4179 40.5713 61.4769 44.3786 61.8597 46.7011C62.5487 50.8765 60.7624 56.4986 58.5168 63.6311C56.437 70.2178 53.8468 78.4289 52.4816 87.9473C50.8866 98.9505 51.2184 109.598 53.4896 120.475Z" fill="#5D7183"/>
<path d="M90.9662 60.8759C90.762 60.8759 90.5706 60.749 90.4941 60.546C90.392 60.2795 90.5196 59.9876 90.7875 59.886C94.5388 58.4519 97.7796 56.3198 100.191 53.7055C100.383 53.5024 100.702 53.4897 100.918 53.6801C101.123 53.8705 101.135 54.1878 100.944 54.4035C98.4304 57.1321 95.0491 59.3657 91.1575 60.8506C91.0937 60.8633 91.03 60.8759 90.9662 60.8759Z" fill="#5D7183"/>
<path d="M80.3753 62.8195C73.549 62.8195 66.7738 60.5478 61.938 56.5754C61.7211 56.3978 61.6955 56.0805 61.8742 55.8647C62.0528 55.649 62.3718 55.6236 62.5887 55.8013C67.6797 59.9894 75.0291 62.2103 82.2509 61.7534C84.4455 61.6138 86.6401 61.2204 88.771 60.5858C89.0389 60.5097 89.3196 60.662 89.4089 60.9285C89.4855 61.195 89.3324 61.4742 89.0644 61.5631C86.8698 62.223 84.5986 62.6291 82.3147 62.7687C81.664 62.8068 81.0132 62.8195 80.3753 62.8195Z" fill="#5D7183"/>
<path d="M95.7653 78.8736C95.5229 78.8736 95.3187 78.7086 95.2677 78.4675C93.8259 71.2336 90.4319 64.9641 88.7987 61.9436C88.6711 61.7152 88.5562 61.4995 88.4541 61.3091C88.3266 61.0553 88.4159 60.7507 88.6711 60.6238C88.9262 60.4968 89.2325 60.5857 89.3601 60.8395C89.4621 61.0299 89.577 61.2456 89.7046 61.4741C91.3633 64.5326 94.8083 70.8909 96.2757 78.2771C96.3267 78.5564 96.1481 78.8229 95.8801 78.8736C95.8419 78.8609 95.8036 78.8736 95.7653 78.8736Z" fill="#5D7183"/>
<path d="M87.4442 67.9355C87.2273 67.9355 87.0104 67.8466 86.8317 67.6816C86.6021 67.4659 86.5128 67.1613 86.5893 66.8694C86.6531 66.5775 86.8828 66.3618 87.1762 66.2602C87.4697 66.1714 87.7887 66.2348 88.0056 66.4252C88.2097 66.6156 88.2353 66.9329 88.0439 67.1359C88.0184 67.1613 88.0056 67.174 87.9801 67.1994C87.9928 67.2247 88.0056 67.2501 88.0056 67.2755C88.0821 67.542 87.9163 67.8212 87.6356 67.8974C87.5845 67.9228 87.508 67.9355 87.4442 67.9355Z" fill="#5D7183"/>
<path d="M89.8787 75.2442C89.7894 75.2442 89.7001 75.2315 89.6108 75.2061C89.3173 75.13 89.0749 74.9142 88.96 74.6477C88.8452 74.3812 88.8707 74.0639 89.0238 73.7974C89.1769 73.5309 89.4449 73.3532 89.7256 73.3151C90.0063 73.2771 90.2615 73.4801 90.2998 73.7466C90.3253 73.8989 90.2743 74.0385 90.185 74.1401C90.3253 74.1528 90.4529 74.2162 90.5422 74.3431C90.7081 74.5716 90.6698 74.8888 90.4401 75.0538C90.287 75.1807 90.0829 75.2442 89.8787 75.2442Z" fill="#5D7183"/>
<path d="M84.0232 39.0498C82.8621 39.0498 81.701 38.5041 81.0503 37.5268C80.8971 37.2984 80.9609 36.9811 81.1906 36.8288C81.4203 36.6765 81.7393 36.74 81.8924 36.9684C82.5686 37.9837 84.0997 38.3518 85.1715 37.7553C86.2433 37.1588 86.7154 35.6612 86.1923 34.5571C86.0774 34.3033 86.1795 33.9987 86.4347 33.8845C86.6899 33.7703 86.9961 33.8718 87.111 34.1256C87.8638 35.712 87.213 37.7807 85.6691 38.6437C85.1715 38.9102 84.5974 39.0498 84.0232 39.0498Z" fill="#5D7183"/>
<path d="M61.2332 124.583C61.2332 124.583 51.53 120.515 47.912 118.398C47.3745 104.868 48.2078 100.107 48.0274 86.0566C53.6871 88.4318 61.4316 92.0484 61.4316 92.0484C61.3126 105.783 61.3595 110.852 61.2332 124.583Z" fill="white"/>
<path d="M59.3193 123.948C59.3878 123.948 59.4564 123.909 59.4852 123.841C59.5249 123.751 59.4816 123.643 59.3914 123.604C56.2785 122.266 50.7054 119.808 48.0902 118.294C47.7944 110.777 47.9242 105.905 48.0613 100.745C48.1731 96.562 48.2886 92.2386 48.2092 86.0567C48.2092 85.9598 48.1262 85.8809 48.0289 85.8809C48.0289 85.8809 48.0288 85.8809 48.0252 85.8809C47.9242 85.8809 47.8449 85.9634 47.8485 86.0638C47.9279 92.2386 47.8124 96.562 47.7006 100.742C47.5635 105.926 47.4301 110.824 47.7331 118.412C47.7367 118.473 47.7691 118.527 47.8232 118.559C50.4204 120.077 56.0981 122.581 59.2508 123.937C59.2724 123.945 59.2977 123.948 59.3193 123.948Z" fill="#5D7183"/>
<path d="M99.2168 92.0756C93.8926 89.9624 88.572 87.8491 83.2515 85.7323C83.403 85.682 57.8173 86.1556 48.0311 86.0588C51.8222 87.8276 57.3195 90.4144 61.4353 92.0505L99.2168 92.0756Z" fill="white"/>
<path d="M61.2229 124.383C73.6712 124.519 86.5741 124.254 99.0188 124.39C99.3759 110.695 99.3903 106.013 99.2136 92.0779C86.6462 91.9272 73.9995 92.2034 61.4321 92.0527C61.3131 105.784 61.3491 110.649 61.2229 124.383Z" fill="white"/>
<path d="M83.8395 101.067C83.9188 97.8915 83.6736 95.2472 83.7385 92.0755C80.694 89.7649 76.3005 87.7162 72.9891 85.7896C70.9619 85.6855 66.7956 85.7465 64.974 85.8649C68.0582 87.6266 75.2725 92.1509 75.2725 92.1509C75.5502 93.3636 75.6007 99.323 75.5358 101.006C75.5394 100.92 83.8395 101.067 83.8395 101.067Z" fill="#96E296"/>
<path d="M61.4366 92.2322C61.5087 92.2322 61.5773 92.1892 61.6025 92.121C61.6386 92.0277 61.5953 91.9237 61.5015 91.8878C57.6563 90.3558 52.581 87.9878 48.8548 86.2476C52.1445 86.2692 57.1404 86.2405 64.077 86.1615C64.178 86.1615 64.2574 86.079 64.2538 85.9785C64.2538 85.8817 64.1708 85.8027 64.0734 85.8027C64.0734 85.8027 64.0734 85.8027 64.0698 85.8027C56.5272 85.8888 51.2824 85.914 48.0287 85.8817C47.9422 85.8781 47.87 85.9391 47.852 86.0216C47.8339 86.1041 47.8736 86.1866 47.953 86.2225L48.6347 86.5418C52.3718 88.2855 57.4867 90.6751 61.3644 92.2179C61.3897 92.2286 61.4149 92.2322 61.4366 92.2322Z" fill="#5D7183"/>
<path d="M99.2159 92.2565C99.2881 92.2565 99.3566 92.2135 99.3819 92.1453C99.4179 92.052 99.3747 91.948 99.2809 91.9121L83.3191 85.5687C83.2686 85.5508 83.2037 85.5508 83.1388 85.5508C83.063 85.5508 82.9512 85.5508 82.8069 85.5508C82.5328 85.5544 82.1215 85.558 81.5588 85.5651C80.4839 85.5795 78.9184 85.601 77.1076 85.6261C76.2202 85.6405 75.2607 85.6512 74.2471 85.6656C74.1461 85.6656 74.0667 85.7481 74.0703 85.8486C74.0703 85.9454 74.1533 86.0244 74.2507 86.0244C74.2507 86.0244 74.2507 86.0244 74.2543 86.0244C75.2679 86.01 76.2274 85.9957 77.1148 85.9849C80.4659 85.9383 82.9187 85.9024 83.2109 85.9096L99.1474 92.2458C99.169 92.2529 99.1907 92.2565 99.2159 92.2565Z" fill="#5D7183"/>
<path d="M71.1083 124.766C71.1119 124.766 71.1119 124.766 71.1083 124.766C74.1059 124.745 77.1683 124.702 80.1262 124.666C86.3558 124.583 92.7946 124.501 99.017 124.569C99.118 124.569 99.1973 124.494 99.2009 124.393C99.5508 110.993 99.5761 106.461 99.3957 92.0737C99.3957 91.9768 99.3164 91.8979 99.219 91.8979C94.1437 91.8369 89.1622 91.8477 84.5306 91.8656C84.4296 91.8656 84.3502 91.9481 84.3502 92.045C84.3502 92.1454 84.4296 92.2244 84.5306 92.2244C89.1045 92.2064 94.0246 92.1957 99.035 92.2531C99.2154 106.432 99.1865 111.003 98.8438 124.207C92.6719 124.142 86.2945 124.225 80.1226 124.307C77.1647 124.347 74.1059 124.386 71.1083 124.408C71.0073 124.408 70.9279 124.49 70.9279 124.587C70.9315 124.687 71.0109 124.766 71.1083 124.766Z" fill="#5D7183"/>
<path d="M61.342 123.24C61.443 123.24 61.5224 123.161 61.5224 123.061C61.5404 119.006 61.5585 98.3652 61.6162 92.2335C65.2125 92.2765 69.0866 92.2873 74.1439 92.2693C74.2449 92.2693 74.3242 92.1868 74.3242 92.09C74.3242 91.9895 74.2449 91.9106 74.1439 91.9106C69.0036 91.9285 65.0863 91.9141 61.4394 91.8711C61.3925 91.8711 61.3456 91.889 61.3096 91.9213C61.2771 91.9536 61.2555 92.0003 61.2555 92.0469C61.2013 98.2719 61.1797 118.963 61.1617 123.057C61.1617 123.157 61.241 123.236 61.342 123.24Z" fill="#5D7183"/>
<path d="M90.3138 110.54C91.3599 110.54 92.406 110.489 93.4304 110.393C93.5278 110.382 93.6035 110.296 93.5927 110.195C93.5819 110.098 93.4953 110.023 93.3943 110.034C91.1434 110.249 88.7843 110.224 86.5731 109.962C86.4757 109.951 86.3856 110.019 86.3711 110.12C86.3567 110.22 86.4289 110.307 86.5299 110.321C87.7599 110.468 89.0368 110.54 90.3138 110.54Z" fill="#5D7183"/>
<path d="M90.7269 113.01C91.4051 113.01 92.0868 113.003 92.7686 112.985C92.8696 112.981 92.9453 112.899 92.9453 112.802C92.9417 112.701 92.8587 112.626 92.7613 112.626C91.0227 112.665 89.284 112.655 87.6031 112.59C87.5021 112.586 87.4191 112.662 87.4155 112.762C87.4119 112.863 87.4877 112.945 87.5887 112.949C88.6167 112.988 89.6664 113.01 90.7269 113.01Z" fill="#5D7183"/>
<path d="M99.2454 89.3717C99.3211 89.3717 99.3897 89.3251 99.4149 89.2533L100.609 85.9058C100.641 85.8126 100.594 85.7085 100.501 85.6762C100.407 85.6439 100.302 85.6906 100.27 85.7839L99.0758 89.1278C99.0434 89.221 99.0903 89.3251 99.1841 89.3574C99.2021 89.3681 99.2237 89.3717 99.2454 89.3717Z" fill="#5D7183"/>
<path d="M102.155 93.3379C102.166 93.3379 102.177 93.3379 102.188 93.3343L105.478 92.7316C105.575 92.7136 105.64 92.6203 105.622 92.5235C105.604 92.4266 105.51 92.362 105.413 92.3799L102.123 92.9863C102.026 93.0042 101.961 93.0975 101.979 93.1944C101.993 93.2769 102.069 93.3379 102.155 93.3379Z" fill="#5D7183"/>
<path d="M101.347 90.9654C101.391 90.9654 101.434 90.9511 101.466 90.9188L104.049 88.6154C104.125 88.5508 104.129 88.436 104.064 88.3606C103.999 88.2853 103.883 88.2817 103.808 88.3463L101.225 90.6497C101.149 90.7143 101.145 90.8291 101.21 90.9045C101.246 90.9439 101.297 90.9654 101.347 90.9654Z" fill="#5D7183"/>
<path d="M42.194 72.9412C41.1789 74.8276 40.4838 76.8192 40.1418 78.8848C39.5051 82.7153 40.0133 86.4876 41.6689 90.1053C43.124 93.2742 45.448 96.3193 48.5978 99.1689C53.6243 103.734 60.8604 107.815 68.4546 110.408C69.3696 110.716 70.2982 110.999 71.1955 111.248C74.8277 112.319 78.2682 113.32 80.4305 116.605C80.5974 116.873 80.9701 116.941 81.2268 116.768C81.4963 116.602 81.5648 116.231 81.391 115.976C78.9932 112.338 75.1878 111.224 71.5105 110.146C70.6201 109.883 69.6974 109.62 68.8146 109.313C65.2828 108.117 56.3312 104.638 49.3583 98.3034C42.8324 92.386 40.1135 85.9057 41.2609 79.057C41.9112 75.2012 43.8469 71.5736 46.8764 68.5609C49.7927 65.6671 53.5197 63.5794 57.368 62.6965C57.6866 62.6218 57.8696 62.3121 57.8004 62.0147C57.7253 61.6978 57.4139 61.5157 57.1149 61.5846C53.0457 62.5127 49.1283 64.7107 46.0657 67.7547C44.5033 69.3496 43.1886 71.0928 42.194 72.9412Z" fill="#5D7183"/>
</svg>
