<svg width="250" height="76" viewBox="0 0 250 76" fill="none" xmlns="http://www.w3.org/2000/svg">
<path d="M100.358 66.4022L100.373 66.5285C100.416 66.9162 100.449 67.1975 100.631 67.3426C100.733 67.4039 100.853 67.4339 100.989 67.4339C101.049 67.4339 101.114 67.4301 101.173 67.4176C101.403 67.3638 101.586 67.245 101.715 67.0675C102.03 66.6348 101.571 63.9663 101.421 63.0872C101.383 62.8608 101.249 62.6858 101.075 62.6308C100.991 62.6032 100.913 62.5895 100.836 62.5895C100.73 62.5895 100.625 62.6157 100.479 62.6708C100.208 62.7783 100.044 62.9321 99.9952 63.1309C99.9452 63.3248 100.033 63.945 100.1 64.4415L100.17 64.9817L96.754 65.2968L96.634 65.3055C99.4214 61.988 101.315 59.4158 102.006 57.9202C102.038 57.8527 102.059 57.6813 102.023 57.565C101.971 57.4087 101.853 57.2962 101.66 57.2199C101.573 57.1849 101.484 57.1674 101.396 57.1674C101.293 57.1674 101.188 57.1924 101.078 57.2412C100.861 57.3337 100.678 57.5075 100.534 57.7614C99.8677 58.9031 99.1277 60.0172 98.3302 61.0776L98.159 61.289C97.799 60.8463 97.3127 60.2486 97.1015 60.0172L97.0415 59.9522L97.094 59.8809C99.3002 56.8448 99.629 55.9632 99.629 55.7081C99.629 55.5443 99.549 55.4442 99.3202 55.3267C99.2127 55.2716 99.0939 55.2441 98.9677 55.2441C98.8864 55.2441 98.8014 55.2566 98.719 55.2792C98.5277 55.3317 98.3252 55.5192 98.1777 55.7831C97.5327 56.926 96.8777 57.989 96.229 58.9406L96.1815 59.0093L96.1015 58.9831C96.0402 58.9593 95.999 58.9368 95.9965 58.9256C95.8552 58.8268 95.7002 58.778 95.524 58.778C95.4702 58.778 95.4152 58.7818 95.3677 58.7893C95.139 58.8468 94.9765 58.9206 94.824 59.1369C94.689 59.3282 94.6227 59.5258 94.6265 59.7196C94.6365 59.9172 94.7352 60.0748 94.939 60.2073C95.5102 60.6925 96.389 61.6004 97.1215 62.5707C96.7602 62.9709 96.384 63.4398 96.0202 63.8937C95.614 64.3989 95.0565 65.0579 94.684 65.4543L94.4177 65.4756H94.049C93.7902 65.4894 93.5702 65.5856 93.3765 65.7657C93.2227 65.9358 93.1315 66.1284 93.104 66.3259C93.0977 66.5535 93.1552 66.7173 93.2815 66.8286C93.3965 66.9312 93.5502 66.9812 93.754 66.9812C93.7977 66.9812 93.8427 66.9787 93.889 66.9749L96.2915 66.7373L96.6952 66.6948L95.0177 75.1519C94.979 75.3494 94.964 75.6208 95.1115 75.7996C95.2177 75.9272 95.3865 76.0009 95.5752 76.0009L95.614 75.9997C95.8577 75.9872 96.0627 75.9097 96.2402 75.7633C96.4477 75.592 96.579 75.3719 96.6302 75.1106L98.334 66.526L100.351 66.3422L100.358 66.4022Z" fill="#28883A"/>
<path d="M94.391 67.8184C94.1972 67.8184 94.0135 67.8909 93.841 68.0322C93.6847 68.161 93.571 68.3611 93.5072 68.6274C92.981 70.6269 92.4872 72.1688 91.8985 73.6269C91.7972 73.8732 91.781 74.0795 91.8435 74.2271C91.936 74.3909 92.0647 74.4897 92.2297 74.5222C92.286 74.5322 92.3372 74.5385 92.3885 74.5385C92.5285 74.5385 92.6522 74.4984 92.791 74.4072C93.1385 74.1808 93.851 72.2451 94.9059 68.6662L94.9234 68.5787C94.9784 68.3023 94.9535 68.1235 94.841 68.0009C94.7297 67.8796 94.5797 67.8184 94.391 67.8184Z" fill="#28883A"/>
<path d="M99.9676 67.9531C99.9214 67.9531 99.8726 67.9581 99.8201 67.9656C99.6264 67.9956 99.4751 68.0832 99.3126 68.257C99.1989 68.3795 99.1301 68.5696 99.1064 68.8172L99.0239 71.2869C99.0176 71.5145 99.0751 71.6783 99.1901 71.7796C99.2901 71.8446 99.4076 71.8746 99.5751 71.8746C99.6064 71.8746 99.6389 71.8734 99.6739 71.8709C99.8301 71.8609 100.046 71.8121 100.2 71.6383C100.305 71.5058 100.403 71.3419 100.416 71.0418L100.5 68.5709C100.506 68.3395 100.449 68.177 100.325 68.0719C100.229 67.9931 100.113 67.9531 99.9676 67.9531Z" fill="#28883A"/>
<path d="M105.078 70.9486C105.31 70.7161 105.43 70.4872 105.441 70.2721C105.447 70.0708 105.38 69.9032 105.243 69.7694C105.1 69.6631 104.952 69.6094 104.793 69.6094C104.757 69.6094 104.717 69.6119 104.678 69.6181C104.457 69.6506 104.23 69.7794 104.005 69.9983C102.492 71.6302 101.077 72.4855 99.2797 73.3383C98.6772 73.5697 98.4472 73.9411 98.5972 74.445C98.6509 74.6276 98.7772 74.7576 98.9584 74.8189C99.0084 74.8377 99.0647 74.8452 99.1334 74.8452C99.6647 74.8452 100.696 74.3212 102.381 73.1958C103.312 72.5568 103.956 72.0553 105.078 70.9486Z" fill="#28883A"/>
<path d="M114.139 63.2106H111.194L113.876 57.207C113.971 56.9694 113.938 56.6706 113.796 56.408C113.648 56.1391 113.434 56.0078 113.103 56.0078C113.102 56.0078 106.414 56.0078 106.414 56.0078C106.079 56.0078 105.851 56.0353 105.594 56.1841C105.322 56.3329 105.128 56.5668 104.968 56.9432L103.482 60.2194C103.382 60.4658 103.398 60.7046 103.529 60.9447C103.691 61.1911 103.901 61.3174 104.167 61.3299H110.498L109.653 63.2094H103.179C102.926 63.2094 102.726 63.2794 102.569 63.4182C102.404 63.577 102.293 63.7633 102.238 63.9684C102.194 64.1997 102.224 64.3748 102.334 64.5086C102.432 64.6274 102.604 64.6937 102.841 64.7087H107.398L105.706 73.2557C105.647 73.5571 105.527 73.7772 105.354 73.906C105.213 74.0235 105.062 74.0836 104.903 74.0836C104.731 74.0836 104.419 74.021 103.799 73.8972L103.627 73.8635C103.511 73.8397 103.408 73.831 103.316 73.831C103.172 73.831 103.037 73.8547 102.907 73.9022C102.689 73.981 102.524 74.1348 102.428 74.3462C102.329 74.56 102.302 74.7951 102.354 74.9752C102.421 75.199 102.867 75.5879 105.118 75.6892L105.199 75.6917C105.512 75.6917 105.827 75.6117 106.044 75.4791C106.642 75.1415 107.018 74.5663 107.228 73.6709L108.196 68.7828L108.407 68.7765C109.011 71.1499 109.917 73.0719 111.097 74.4912C111.278 74.7063 111.449 74.7988 111.671 74.7988C111.881 74.7988 112.108 74.7101 112.339 74.5412C112.552 74.3649 112.683 74.1711 112.738 73.9585C112.773 73.7134 112.708 73.4996 112.532 73.302C111.359 71.8102 110.493 70.2708 109.957 68.7302C109.566 67.6223 109.346 66.2718 109.296 64.7074H113.798C114.036 64.7074 114.229 64.6312 114.391 64.4761C114.561 64.3135 114.669 64.1322 114.723 63.9259C114.768 63.697 114.737 63.5207 114.629 63.3857C114.531 63.2719 114.367 63.2106 114.139 63.2106ZM105.697 59.9193C105.521 59.9193 105.411 59.7668 105.411 59.6255C105.411 59.5342 105.442 59.4504 105.479 59.3541L105.528 59.2241L106.009 58.1386C106.092 57.9411 106.166 57.771 106.302 57.6447C106.447 57.5109 106.696 57.4196 106.922 57.4196H111.621C111.751 57.4334 111.923 57.5009 112.014 57.7622C112.052 57.9123 111.988 58.0624 111.926 58.2087L111.137 59.9181H105.697V59.9193Z" fill="#28883A"/>
<path d="M103.889 68.3859C103.987 68.606 104.124 68.7373 104.289 68.786C104.33 68.791 104.37 68.7948 104.412 68.7948C104.564 68.7948 104.722 68.7523 104.879 68.671C105.083 68.5534 105.267 68.3396 105.345 68.1358C105.447 67.8119 105.139 67.1804 104.212 65.8024C104.072 65.5923 103.933 65.5098 103.723 65.5098C103.529 65.5098 103.359 65.5473 103.147 65.7223C102.973 65.8649 102.86 66.0512 102.813 66.2813C102.76 66.4901 102.802 66.684 102.944 66.879C103.098 67.1291 103.23 67.318 103.349 67.4905C103.543 67.7669 103.708 68.0045 103.889 68.3859Z" fill="#28883A"/>
<path d="M114.001 65.6908C113.881 65.617 113.765 65.582 113.639 65.582C113.57 65.582 113.497 65.5933 113.419 65.617C113.214 65.6696 113.016 65.8221 112.829 66.0772C112.43 66.6012 111.999 67.0401 111.292 67.7129C111.074 67.9267 110.94 68.1493 110.896 68.3644C110.872 68.5532 110.926 68.7157 111.062 68.8646C111.186 68.9996 111.384 69.0896 111.554 69.0896C111.584 69.0896 111.614 69.0871 111.639 69.0821C112.324 68.9408 112.789 68.4356 114.035 66.7712C114.215 66.5349 114.294 66.3136 114.27 66.106C114.255 65.9259 114.167 65.7896 114.001 65.6908Z" fill="#28883A"/>
<path d="M157.498 61.986C157.53 61.9897 157.564 61.991 157.597 61.991C157.779 61.991 157.968 61.9272 158.144 61.8084C158.378 61.6496 158.529 61.4645 158.594 61.2632C158.654 61.0269 158.627 60.803 158.513 60.5842C158.147 59.939 157.669 59.2349 157.089 58.4871C156.507 57.7018 156.082 57.1554 155.833 56.8653C155.673 56.6852 155.492 56.5977 155.237 56.5977C155.234 56.5977 155.233 56.5977 155.232 56.5977C155.019 56.6102 154.805 56.7115 154.599 56.8915C154.398 57.0903 154.282 57.2954 154.255 57.503C154.223 57.7293 154.297 57.9257 154.485 58.1095C155.404 59.1111 156.238 60.2878 156.958 61.6008C157.099 61.8284 157.284 61.9585 157.498 61.986Z" fill="#28883A"/>
<path d="M153.235 61.8926C153.214 61.8926 153.194 61.8938 153.173 61.8963C152.974 61.9176 152.77 62.0214 152.557 62.209C152.337 62.4403 152.255 62.5941 152.227 62.8429C152.203 63.0468 152.287 63.2343 152.482 63.4282C153.479 64.4886 154.303 65.5465 154.935 66.5744C155.084 66.812 155.273 66.9395 155.493 66.9583C155.519 66.9595 155.544 66.9608 155.572 66.9608C155.777 66.9608 155.96 66.892 156.147 66.742C156.399 66.5394 156.512 66.3843 156.564 66.1717C156.608 65.9867 156.472 65.504 155.572 64.2673C154.689 63.1868 154.092 62.4716 153.802 62.1489C153.628 61.9839 153.427 61.8926 153.235 61.8926Z" fill="#28883A"/>
<path d="M161.901 55.25C161.647 55.25 161.413 55.33 161.219 55.4801C161.054 55.6389 160.936 55.854 160.871 56.1178L158.376 68.729L149.789 69.9332C149.478 69.9882 149.218 70.1108 149.027 70.2908C148.874 70.4584 148.791 70.6847 148.776 70.9598C148.769 71.1887 148.847 71.365 149.008 71.5001C149.111 71.5826 149.259 71.6251 149.451 71.6251C149.519 71.6251 149.591 71.6201 149.668 71.6088L158.039 70.4359L157.123 75.0602C157.067 75.3465 157.098 75.5741 157.211 75.7267C157.346 75.878 157.526 75.9518 157.758 75.9518C158.018 75.938 158.238 75.8542 158.431 75.6954C158.639 75.5216 158.769 75.3003 158.824 75.0189L159.781 70.1858L161.263 69.957C161.574 69.9032 161.833 69.7806 162.026 69.5993C162.178 69.4292 162.259 69.2254 162.268 68.9728C162.277 68.734 162.208 68.5564 162.053 68.4289C161.941 68.3276 161.764 68.275 161.531 68.275C161.482 68.275 161.431 68.2763 161.386 68.2801L160.118 68.4789L162.573 56.0728C162.621 55.8315 162.574 55.6352 162.426 55.4688C162.302 55.3225 162.132 55.25 161.901 55.25Z" fill="#28883A"/>
<path d="M149.622 69.0026C149.672 69.0126 149.723 69.0176 149.773 69.0176C149.928 69.0176 150.092 68.9726 150.258 68.885C150.497 68.7537 150.658 68.5824 150.738 68.3811C150.83 68.1072 150.83 67.8809 150.743 67.7083C150.064 66.5016 149.21 65.0548 148.207 63.4092L148.183 63.3742L148.253 63.0278H150.894C151.149 63.0278 151.367 62.9452 151.562 62.7727C151.754 62.6014 151.877 62.395 151.923 62.1599C151.972 61.9148 151.937 61.7148 151.828 61.5647C151.699 61.4384 151.51 61.3684 151.269 61.3559H148.584L149.312 57.677L149.385 57.6644C150.213 57.5206 151.038 57.3381 151.835 57.123C152.154 57.0292 152.388 56.8816 152.538 56.6816C152.694 56.4865 152.757 56.2714 152.727 56.0126C152.722 55.78 152.634 55.6274 152.46 55.5436C152.348 55.4911 152.219 55.4648 152.074 55.4648C151.967 55.4648 151.849 55.4786 151.728 55.5061C150.099 55.9413 147.919 56.2627 145.242 56.4665C144.944 56.479 144.685 56.5728 144.479 56.7428C144.284 56.9167 144.17 57.1217 144.135 57.3718C144.102 57.6132 144.155 57.8045 144.307 57.9571C144.419 58.0821 144.593 58.1434 144.834 58.1434C144.875 58.1434 144.92 58.1421 144.968 58.1371C145.815 58.0796 146.634 58.0146 147.425 57.9421L147.569 57.9283L146.892 61.3534H143.787C143.532 61.3534 143.305 61.4309 143.104 61.5872C142.907 61.7598 142.788 61.9611 142.742 62.2C142.693 62.4451 142.727 62.6451 142.845 62.8052C142.967 62.954 143.152 63.0253 143.414 63.0253H146.424L146.324 63.1903C145.085 65.2299 143.457 67.2544 141.489 69.2077C141.27 69.4215 141.14 69.6641 141.102 69.9129C141.1 70.118 141.173 70.2906 141.318 70.4381C141.459 70.5607 141.605 70.6207 141.768 70.6207C141.808 70.6207 141.85 70.617 141.903 70.607C142.229 70.5795 143.107 69.9092 145.429 66.878C145.497 66.773 145.569 66.6729 145.649 66.5829L145.917 66.274L144.179 75.0599C144.122 75.3463 144.153 75.5726 144.267 75.7252C144.402 75.8765 144.58 75.9503 144.814 75.9503C145.072 75.9365 145.293 75.8527 145.484 75.6939C145.695 75.5201 145.824 75.2988 145.88 75.0174L147.725 65.6913L147.869 65.9477C148.389 66.8705 148.827 67.7446 149.17 68.5474C149.269 68.8188 149.418 68.9663 149.622 69.0026Z" fill="#28883A"/>
<path d="M187.387 57.6177H182.058L182.364 56.0759C182.414 55.8195 182.372 55.6344 182.222 55.4769C182.088 55.3381 181.923 55.2681 181.683 55.2505L181.618 55.248C181.387 55.248 181.154 55.3368 181.012 55.4794C180.918 55.5744 180.712 55.9671 180.383 57.5327L180.364 57.619H175.763C175.507 57.619 175.28 57.6977 175.078 57.8528C174.882 58.0266 174.763 58.2267 174.715 58.4668C174.668 58.7119 174.703 58.912 174.82 59.072C174.94 59.2196 175.127 59.2921 175.388 59.2921H180.034L179.419 62.3996H175.522C175.267 62.3996 175.035 62.4733 174.839 62.6134C174.648 62.7722 174.527 62.9785 174.475 63.2461C174.429 63.4775 174.465 63.6688 174.587 63.8326C174.705 63.9939 174.888 64.0702 175.148 64.0702H183.115C183.445 64.0702 183.639 64.1502 183.714 64.3203C183.748 64.4304 183.81 64.6354 182.35 66.5487C181.503 67.6366 180.389 68.7545 179.039 69.8687L178.96 69.935L178.89 69.8587C177.872 68.7533 176.933 67.2815 176.103 65.4908C175.973 65.2469 175.775 65.0906 175.578 65.0694C175.552 65.0669 175.528 65.0656 175.5 65.0656C175.309 65.0656 175.092 65.1331 174.902 65.2482C174.677 65.387 174.527 65.5733 174.453 65.8009C174.367 66.0335 174.385 66.2598 174.51 66.4924C175.485 68.1868 176.503 69.6449 177.533 70.8203L177.619 70.9179L176.033 71.8557C174.785 72.5235 173.012 73.2188 170.76 73.929C170.418 74.0316 170.224 74.1516 170.115 74.3354C169.978 74.5705 169.918 74.8056 169.932 75.0607C169.939 75.2833 170.034 75.4446 170.228 75.5572C170.335 75.6259 170.458 75.6585 170.6 75.6585C170.698 75.6585 170.805 75.6422 170.918 75.6097C172.975 74.992 174.828 74.2504 176.418 73.4038C177.177 72.9699 177.917 72.5122 178.619 72.0396L178.693 71.9908L178.755 72.0496C180.523 73.6852 182.219 74.8619 183.785 75.5459C183.943 75.5984 184.095 75.6247 184.243 75.6247C184.368 75.6247 184.483 75.6047 184.592 75.5672C184.814 75.4884 185.022 75.3171 185.217 75.052C185.36 74.7969 185.408 74.5668 185.358 74.3404C185.315 74.1041 185.154 73.9315 184.86 73.814C183.02 73.0174 181.442 72.0746 180.167 71.0167L180.072 70.9379L180.164 70.8541C182.347 68.8496 184.148 66.7588 185.517 64.6404C185.995 63.9014 186.198 63.4962 186.198 63.2887C186.197 63.0473 186.113 62.8372 185.947 62.6684C185.785 62.4996 185.535 62.4096 185.207 62.3958H181.112L181.725 59.2884H187.01C187.265 59.2884 187.482 59.2046 187.677 59.0333C187.872 58.8607 187.992 58.6606 188.039 58.4205C188.09 58.1617 188.057 57.9578 187.937 57.8178C187.832 57.6927 187.664 57.6327 187.387 57.6177Z" fill="#28883A"/>
<path d="M170.719 67.5131C172.842 66.5415 173.381 66.0313 173.458 65.7812C173.513 65.5724 173.501 65.3511 173.434 65.1447C173.318 64.9397 173.175 64.8221 173.009 64.7871L172.944 64.7846C172.727 64.7846 172.503 64.8471 172.289 64.9647C172.015 65.141 171.662 65.3398 171.238 65.5574L171.038 65.6599L171.903 61.2895H173.489C173.743 61.2895 173.961 61.2057 174.155 61.0344C174.349 60.8631 174.471 60.6567 174.519 60.4216C174.566 60.1753 174.532 59.9752 174.422 59.8239C174.294 59.6989 174.104 59.6288 173.864 59.6163H172.233L172.935 56.075C172.993 55.7874 172.955 55.5585 172.829 55.3872C172.694 55.2359 172.513 55.1621 172.284 55.1621C172.028 55.1746 171.802 55.2622 171.614 55.4172C171.419 55.5885 171.292 55.8236 171.232 56.1175L170.54 59.6163H168.492C168.234 59.6163 168.009 59.6939 167.808 59.8502C167.61 60.024 167.492 60.2253 167.445 60.4629C167.395 60.7093 167.429 60.9081 167.549 61.0681C167.67 61.2157 167.857 61.2882 168.118 61.2882H170.208L169.17 66.5378L169.115 66.5615C168.239 66.9067 167.369 67.2155 166.53 67.4731C166.234 67.5744 166.024 67.7157 165.927 67.882C165.797 68.1059 165.749 68.336 165.79 68.5673C165.825 68.7749 165.953 68.9475 166.129 69.0312C166.222 69.075 166.323 69.0975 166.43 69.0975C166.543 69.0975 166.665 69.0738 166.793 69.0287C167.412 68.7961 168.028 68.5723 168.644 68.3535L168.825 68.2897L167.875 73.0828C167.818 73.3817 167.697 73.613 167.512 73.7793C167.405 73.8594 167.238 73.8994 167.003 73.8994C166.788 73.8994 166.508 73.8669 166.16 73.7968C166.042 73.7631 165.923 73.7431 165.81 73.7431C165.417 73.7431 165.088 73.9669 164.889 74.3708C164.78 74.5896 164.76 74.8235 164.838 74.996C164.972 75.3037 165.468 75.5087 166.307 75.6038C166.48 75.615 166.645 75.6213 166.802 75.6213C167.377 75.6213 167.829 75.54 168.142 75.3787C168.857 74.9623 169.307 74.3445 169.479 73.5392L170.668 67.5307L170.719 67.5131Z" fill="#28883A"/>
<path d="M137.717 56.0977H122.284C121.922 56.0977 121.67 56.1927 121.387 56.4378C121.117 56.6829 120.945 56.963 120.869 57.2694L119.455 64.4371C119.372 64.7823 119.426 65.1324 119.604 65.4188C119.752 65.6589 120.024 65.8014 120.329 65.8014H125.006C122.764 67.8247 120.096 69.3741 117.416 70.2494C117.142 70.3432 116.936 70.4957 116.802 70.7058C116.667 70.9146 116.621 71.1485 116.664 71.4111C116.706 71.6524 116.802 71.8125 116.944 71.89C117.022 71.9175 117.12 71.9313 117.232 71.9313C118.115 71.9313 119.939 71.1097 122.646 69.4929L123.709 68.7301C123.256 70.8384 121.976 72.4615 119.904 73.5494C119.687 73.6745 119.466 73.7808 119.207 73.8821C118.866 74.0146 118.651 74.1909 118.527 74.436C118.447 74.5998 118.365 74.8474 118.434 75.0988C118.499 75.3439 118.621 75.4814 118.829 75.5439C118.899 75.5652 118.977 75.5765 119.064 75.5765C119.62 75.5765 120.504 75.1475 121.689 74.301C123.617 72.8754 124.89 70.9234 125.47 68.5012L125.736 67.1532C126.367 66.5992 126.902 66.099 127.205 65.7989H129.052C129.121 65.894 129.195 65.9927 129.197 65.9977C129.649 66.6505 130.164 67.2782 130.726 67.8672L129.302 75.0613C129.241 75.3576 129.275 75.5827 129.392 75.7328C129.514 75.8816 129.672 75.9541 129.88 75.9541L129.934 75.9516C130.199 75.9378 130.412 75.8578 130.609 75.6953C130.817 75.5214 130.947 75.3001 131.002 75.0187L132.154 69.2077L132.464 69.4954C133.554 70.3707 134.759 71.126 136.046 71.7425C136.204 71.82 136.36 71.8588 136.511 71.8588C136.617 71.8588 136.724 71.84 136.83 71.8025C137.062 71.7225 137.28 71.5524 137.474 71.3061C137.616 71.0672 137.677 70.8259 137.659 70.5983C137.616 70.3594 137.462 70.1794 137.186 70.0506C134.952 69.0702 132.926 67.5909 131.355 65.8014H135.756C136.097 65.7877 136.449 65.6426 136.792 65.3688C137.152 65.0824 137.371 64.7523 137.444 64.3909L138.857 57.2306C138.904 56.9342 138.836 56.6704 138.656 56.4465C138.465 56.2089 138.169 56.0977 137.717 56.0977ZM127.687 64.2158H122.05C121.781 64.2158 121.58 64.137 121.454 63.9807C121.35 63.8544 121.317 63.6556 121.357 63.3705L121.68 61.7423H128.174L127.687 64.2158ZM128.487 60.1555H121.994L122.317 58.5148C122.351 58.2585 122.46 58.0459 122.639 57.8858C122.767 57.7658 122.98 57.6983 123.292 57.682H123.295H128.975L128.487 60.1555ZM135.945 63.4105C135.895 63.6856 135.804 63.8669 135.652 63.9945C135.477 64.142 135.249 64.2158 134.97 64.2158H129.38L129.867 61.7411H136.275L135.945 63.4105ZM136.905 58.5511L136.589 60.1555H130.18L130.667 57.682H136.217C136.485 57.682 136.692 57.7683 136.831 57.9396C136.937 58.0697 136.961 58.2698 136.905 58.5511Z" fill="#28883A"/>
<path d="M41.1421 45.1874H22.7359L24.9171 37.0242H41.5058C42.1908 32.2111 43.4296 27.7781 45.1371 23.7678H28.4571L30.4109 16.45H49.2183C53.2895 10.2913 58.657 5.5445 64.8095 2.41703C65.3132 2.16194 65.1232 1.40039 64.5595 1.40039H34.4308H24.4034H17.8859C15.7709 1.40039 13.9209 2.82219 13.3759 4.86548L0.160964 54.3434C-0.631533 57.3083 1.60221 60.2182 4.66845 60.2182H11.9459L11.9372 60.2357H48.4758C48.9245 60.2357 49.1045 59.6655 48.7458 59.3991C43.9908 55.8653 41.5008 50.7933 41.1421 45.1874Z" fill="#004990"/>
<path d="M248.683 8.39648H219.28C218.36 8.39648 217.526 8.93669 217.15 9.77702L216.242 11.8003H249.19L249.885 10.2522C250.273 9.37937 249.637 8.39648 248.683 8.39648Z" fill="#F08200"/>
<path d="M104.053 37.2352H86.3596C86.3596 37.2352 83.7583 46.4813 75.4333 46.8927C68.6734 47.2266 67.4809 43.24 67.3821 38.9859C67.2484 33.2111 71.1121 13.7411 84.2708 14.5426C89.9008 14.8853 89.7508 20.8138 89.507 22.9809H107.581C107.727 21.7854 107.942 19.292 107.749 15.9482C107.443 10.6536 102.688 0.423413 88.2483 0.015755C67.5909 -0.566971 49.4634 15.0491 48.1447 41.2192C47.5822 52.3761 55.6359 61.9923 73.4009 61.4433C89.4845 60.9469 100.215 51.3644 104.053 37.2352Z" fill="#004990"/>
<path d="M129.39 9.98378C130.32 9.74619 131.537 9.58863 133.906 9.58863C139.986 9.58863 142.612 12.511 141.32 17.4092C140.722 19.6738 139.522 21.557 137.856 22.9813H150.943C151.976 21.1506 152.788 19.1448 153.35 17.0153C154.726 11.802 153.681 7.37652 150.913 4.69173C148.111 1.84688 143.193 0.423828 135.771 0.423828C128.425 0.423828 123.088 0.897762 119.208 1.53051L113.416 22.9813H125.962L129.39 9.98378Z" fill="#28883A"/>
<path d="M205.176 22.9824L204.016 11.2266H190.701L192.967 22.9824H205.176Z" fill="#28883A"/>
<path d="M169.652 18.5711C175.755 18.5161 176.42 20.9395 176.079 22.9803H187.221C188 15.7338 184.89 10.2754 173.972 10.2754C167.565 10.2754 162.171 11.916 158.934 13.3428L156.451 22.784C157.384 21.6961 160.197 20.3956 163.157 19.5627C165.496 18.905 167.912 18.5861 169.652 18.5711Z" fill="#28883A"/>
<path d="M209.817 26.1485H112.607L112.191 27.7154L112.061 28.2118L106.336 49.9202H118.746L122.695 34.9482C123.437 35.0832 125.505 35.2533 126.233 35.2646C133.34 35.3809 139.902 33.4464 145.01 29.6549C145.605 29.2222 146.397 28.7595 146.397 28.7595H155.156C150.531 30.9904 147.302 33.8965 146.071 38.8647C144.632 44.6745 147.982 49.7927 156.341 49.9327C161.288 50.0153 166.831 48.3409 169.672 46.08L170.078 45.7649L169.338 49.969H181.573C181.668 47.8807 181.676 45.1546 182.837 40.8467C183.902 36.8952 185.887 30.7891 186.499 28.7595H193.861L198.343 50.3367C198.489 51.2833 198.422 51.8372 198.297 52.3112C198.171 52.7839 197.657 53.7617 197.151 54.4395C195.817 56.2214 194.902 57.5382 191.539 59.7778L189.113 73.817C191.478 72.9917 194.156 71.6949 196.921 69.7104C202.287 65.8377 207.602 59.7553 217.194 44.3481L225.013 31.6869L227.141 28.7595H240.317C241.237 28.7595 242.07 28.2193 242.447 27.379L247.925 14.6328H214.979L209.817 26.1485ZM173.123 34.6831C172.854 35.5072 172.669 36.1274 172.186 37.0853C170.607 40.2265 167.709 41.7671 163.094 42.0597C158.895 42.3273 157.546 39.9364 158.113 37.8893C159.322 33.5214 165.421 32.1096 173.636 32.1096C173.636 32.1096 173.391 33.859 173.123 34.6831ZM210.291 37.8706C209.133 40.1615 208.999 40.5491 207.963 42.6812H207.646L205.969 28.7608H214.764L210.291 37.8706Z" fill="#F08200"/>
<path fill-rule="evenodd" clip-rule="evenodd" d="M111.915 28.7598H240.366C240.349 28.7601 240.332 28.7603 240.315 28.7603H227.139L225.011 31.6877L217.192 44.3489C207.6 59.7561 202.285 65.8385 196.919 69.7112C194.154 71.6957 191.476 72.9925 189.111 73.8178L191.537 59.7786C194.769 57.6263 195.74 56.3263 196.994 54.6466C197.045 54.5785 197.097 54.5097 197.149 54.4403C197.655 53.7625 198.169 52.7846 198.295 52.312C198.42 51.838 198.487 51.2841 198.341 50.3374L193.859 28.7603H186.497C186.33 29.3164 186.059 30.1784 185.732 31.2182C184.866 33.9739 183.608 37.9786 182.835 40.8475C181.783 44.7499 181.678 47.3542 181.597 49.3623C181.588 49.571 181.58 49.7732 181.571 49.9698H169.336L170.076 45.7657L169.67 46.0808C166.829 48.3417 161.286 50.0161 156.339 49.9335C147.98 49.7935 144.63 44.6752 146.069 38.8655C147.3 33.8973 150.529 30.9912 155.154 28.7603H146.396C146.396 28.7603 145.603 29.223 145.008 29.6557C139.9 33.4471 133.338 35.3816 126.231 35.2654C125.503 35.2541 123.435 35.084 122.693 34.949L118.744 49.921H106.334L111.915 28.7598ZM173.054 34.8906C173.076 34.823 173.098 34.7542 173.121 34.6839C173.389 33.8598 173.634 32.1104 173.634 32.1104C165.419 32.1104 159.32 33.5222 158.111 37.8901C157.544 39.9372 158.893 42.3281 163.093 42.0605C167.708 41.7679 170.605 40.2273 172.184 37.0861C172.626 36.2099 172.819 35.6162 173.054 34.8906ZM208.872 40.7762C209.255 39.9632 209.58 39.2741 210.289 37.8714L214.762 28.7616H205.967L207.644 42.682H207.961C208.363 41.8554 208.629 41.291 208.872 40.7762Z" fill="#28883A"/>
</svg>
