<svg width="354" height="288" viewBox="0 0 354 288" fill="none" xmlns="http://www.w3.org/2000/svg">
<path d="M28.6092 212.689H27.4075C27.0948 212.46 26.782 212.23 26.4693 211.984C26.2718 211.836 26.2388 211.541 26.387 211.344C26.5351 211.147 26.8314 211.114 27.0289 211.262C27.4898 211.623 27.9507 211.967 28.4281 212.296C28.5433 212.394 28.6092 212.542 28.6092 212.689Z" fill="#DFF2F5"/>
<path d="M24.3287 209.063C23.4562 208.308 22.5838 207.521 21.7608 206.717C21.5797 206.537 21.2835 206.553 21.1188 206.734C20.9378 206.914 20.9542 207.209 21.1353 207.373C21.9913 208.193 22.8637 208.997 23.7525 209.768C23.8348 209.85 23.9501 209.883 24.0488 209.883C24.1805 209.883 24.2957 209.833 24.3945 209.719C24.5262 209.505 24.5097 209.227 24.3287 209.063ZM336.206 205.471C336.009 205.323 335.712 205.356 335.564 205.553C334.856 206.488 334.132 207.406 333.408 208.308C333.243 208.505 333.276 208.784 333.474 208.948C333.556 209.013 333.655 209.046 333.754 209.046C333.885 209.046 334.017 208.997 334.116 208.882C334.856 207.98 335.581 207.045 336.288 206.11C336.437 205.897 336.404 205.618 336.206 205.471ZM19.3082 204.224C18.5181 203.371 17.7444 202.502 17.0037 201.616C16.8391 201.419 16.5593 201.403 16.3618 201.551C16.1642 201.715 16.1478 201.994 16.2959 202.19C17.0531 203.092 17.8432 203.978 18.6333 204.847C18.7156 204.946 18.8473 204.995 18.9625 204.995C19.0777 204.995 19.193 204.962 19.2753 204.88C19.4563 204.683 19.4728 204.405 19.3082 204.224ZM340.239 199.714C340.025 199.583 339.745 199.632 339.613 199.845C338.971 200.813 338.313 201.78 337.638 202.732C337.49 202.928 337.539 203.224 337.753 203.371C337.836 203.42 337.935 203.453 338.017 203.453C338.165 203.453 338.297 203.388 338.395 203.256C339.07 202.305 339.745 201.321 340.387 200.353C340.502 200.14 340.453 199.861 340.239 199.714ZM14.8309 198.877C14.1396 197.959 13.4647 196.991 12.8063 196.04C12.6581 195.827 12.3783 195.777 12.1808 195.909C11.9668 196.056 11.9174 196.335 12.0491 196.532C12.7075 197.5 13.3989 198.484 14.0902 199.419C14.1725 199.533 14.3207 199.599 14.4523 199.599C14.5511 199.599 14.6499 199.566 14.7322 199.501C14.9462 199.353 14.9791 199.074 14.8309 198.877ZM343.893 193.727C343.679 193.596 343.399 193.678 343.268 193.908C342.708 194.908 342.099 195.925 341.49 196.909C341.358 197.122 341.424 197.401 341.638 197.532C341.72 197.582 341.786 197.598 341.869 197.598C342.017 197.598 342.165 197.516 342.264 197.385C342.889 196.384 343.482 195.351 344.058 194.351C344.189 194.121 344.107 193.842 343.893 193.727ZM10.9462 193.088C10.3537 192.104 9.77755 191.07 9.23435 190.053C9.11913 189.824 8.8393 189.742 8.62531 189.857C8.39487 189.971 8.31256 190.25 8.42779 190.463C8.97098 191.497 9.56356 192.53 10.1561 193.547C10.2384 193.694 10.3866 193.776 10.5512 193.776C10.6335 193.776 10.7158 193.76 10.7816 193.711C11.0121 193.58 11.0779 193.301 10.9462 193.088ZM347.087 187.478C346.856 187.38 346.593 187.478 346.478 187.692C345.984 188.725 345.473 189.791 344.93 190.824C344.815 191.054 344.897 191.316 345.128 191.431C345.194 191.464 345.259 191.48 345.342 191.48C345.506 191.48 345.671 191.398 345.753 191.234C346.296 190.185 346.823 189.118 347.317 188.069C347.416 187.856 347.317 187.593 347.087 187.478ZM7.68706 186.921C7.20971 185.871 6.73235 184.805 6.30438 183.722C6.20562 183.493 5.94225 183.378 5.7118 183.476C5.48135 183.575 5.36613 183.837 5.46489 184.067C5.90933 185.149 6.37022 186.248 6.86404 187.298C6.94634 187.462 7.11095 187.56 7.27555 187.56C7.34139 187.56 7.40724 187.544 7.47308 187.511C7.70352 187.429 7.80229 187.15 7.68706 186.921ZM349.753 180.983C349.523 180.901 349.259 181.016 349.161 181.262C348.98 181.754 348.798 182.246 348.601 182.722C348.37 183.312 348.124 183.903 347.877 184.493C347.778 184.723 347.893 184.985 348.124 185.084C348.173 185.117 348.239 185.117 348.305 185.117C348.486 185.117 348.65 185.018 348.733 184.838C348.98 184.247 349.226 183.64 349.457 183.034C349.654 182.542 349.835 182.033 350.017 181.557C350.099 181.344 349.984 181.082 349.753 180.983ZM5.0863 180.459C4.70771 179.376 4.34558 178.261 4.03283 177.146C3.96699 176.899 3.70362 176.768 3.47317 176.834C3.22626 176.899 3.09458 177.162 3.16042 177.392C3.48963 178.523 3.85176 179.655 4.23035 180.754C4.2962 180.934 4.47726 181.065 4.65833 181.065C4.70771 181.065 4.75709 181.049 4.80647 181.033C5.03692 180.967 5.1686 180.705 5.0863 180.459ZM351.778 174.292C351.531 174.226 351.284 174.374 351.218 174.62C350.938 175.735 350.609 176.85 350.263 177.966C350.181 178.212 350.329 178.458 350.56 178.54C350.609 178.556 350.642 178.556 350.691 178.556C350.889 178.556 351.07 178.425 351.119 178.228C351.465 177.096 351.794 175.948 352.074 174.833C352.173 174.587 352.025 174.341 351.778 174.292ZM3.1275 173.783C2.86413 172.668 2.60076 171.52 2.38678 170.372C2.33739 170.126 2.10695 169.962 1.86004 170.011C1.61313 170.06 1.44853 170.29 1.49791 170.536C1.72835 171.684 1.97526 172.848 2.25509 173.98C2.30447 174.193 2.48554 174.324 2.69953 174.324C2.73245 174.324 2.76537 174.324 2.81475 174.308C3.02874 174.259 3.17688 174.029 3.1275 173.783ZM353.078 167.403C352.831 167.37 352.601 167.551 352.568 167.797C352.42 168.928 352.222 170.077 351.992 171.225C351.942 171.471 352.107 171.717 352.354 171.749C352.387 171.749 352.42 171.766 352.436 171.766C352.65 171.766 352.848 171.618 352.881 171.405C353.111 170.241 353.309 169.076 353.457 167.928C353.506 167.666 353.325 167.436 353.078 167.403ZM1.7942 166.944C1.62959 165.812 1.48145 164.648 1.36622 163.483C1.3333 163.237 1.11932 163.057 0.872408 163.073C0.6255 163.106 0.444434 163.319 0.460895 163.565C0.576118 164.73 0.724263 165.911 0.905329 167.059C0.93825 167.288 1.13578 167.452 1.34976 167.452C1.36622 167.452 1.39914 167.452 1.4156 167.452C1.66251 167.419 1.84358 167.19 1.7942 166.944ZM353.539 160.4C353.292 160.4 353.078 160.597 353.078 160.843C353.062 161.318 353.062 161.794 353.045 162.286C353.029 162.958 352.979 163.647 352.93 164.336C352.914 164.582 353.095 164.812 353.358 164.828C353.374 164.828 353.374 164.828 353.391 164.828C353.621 164.828 353.835 164.648 353.852 164.402C353.901 163.713 353.934 163.008 353.967 162.319C353.983 161.827 354 161.351 354 160.875C354 160.613 353.786 160.416 353.539 160.4ZM0.921789 156.513C0.921789 156.267 0.707802 156.07 0.460895 156.07C0.213987 156.07 0.0164605 156.283 0.0164605 156.529C0.0493816 157.71 0.0987631 158.891 0.164605 160.055C0.181066 160.301 0.378592 160.482 0.6255 160.482H0.658421C0.905329 160.465 1.10285 160.252 1.08639 160.006C1.00409 158.858 0.95471 157.677 0.921789 156.513ZM353.885 153.823C353.868 153.577 353.654 153.38 353.407 153.396C353.16 153.413 352.963 153.626 352.979 153.872C353.045 155.004 353.078 156.185 353.095 157.365C353.095 157.611 353.309 157.808 353.556 157.808C353.802 157.808 354.016 157.595 354 157.349C353.984 156.152 353.951 154.971 353.885 153.823ZM0.543197 149.066C0.296289 149.066 0.0823026 149.263 0.0658421 149.509C0.032921 150.657 0 151.838 0 153.019C0 153.265 0.197526 153.478 0.444434 153.478C0.691342 153.478 0.905329 153.282 0.905329 153.036C0.921789 151.855 0.93825 150.69 0.971171 149.542C0.987631 149.28 0.790105 149.066 0.543197 149.066ZM353.21 146.803C353.177 146.557 352.947 146.377 352.7 146.426C352.453 146.459 352.272 146.688 352.321 146.934C352.486 148.049 352.634 149.214 352.733 150.395C352.749 150.625 352.947 150.805 353.193 150.805C353.21 150.805 353.226 150.805 353.243 150.805C353.49 150.772 353.671 150.559 353.654 150.313C353.506 149.116 353.374 147.951 353.21 146.803ZM0.95471 142.063C0.707802 142.047 0.477355 142.227 0.460895 142.473C0.362131 143.621 0.279829 144.802 0.213987 145.983C0.197526 146.229 0.395053 146.442 0.64196 146.459C0.658421 146.459 0.658421 146.459 0.674881 146.459C0.921789 146.459 1.11932 146.278 1.13578 146.032C1.20162 144.851 1.28392 143.687 1.36622 142.555C1.38268 142.309 1.20162 142.079 0.95471 142.063ZM352.601 143.326C352.37 142.161 352.091 140.997 351.794 139.882C351.728 139.636 351.482 139.488 351.235 139.554C350.988 139.619 350.84 139.865 350.905 140.111C351.202 141.21 351.465 142.342 351.696 143.506C351.745 143.72 351.926 143.867 352.14 143.867C352.173 143.867 352.206 143.867 352.239 143.851C352.486 143.818 352.65 143.572 352.601 143.326ZM1.76128 135.092C1.51437 135.06 1.28392 135.224 1.251 135.47C1.08639 136.601 0.93825 137.782 0.806566 138.963C0.773645 139.209 0.95471 139.439 1.20162 139.472C1.21808 139.472 1.23454 139.472 1.251 139.472C1.48145 139.472 1.67897 139.291 1.69543 139.062C1.82712 137.897 1.97526 136.733 2.13987 135.601C2.17279 135.371 2.00818 135.125 1.76128 135.092ZM350.774 136.503C350.395 135.371 349.967 134.272 349.523 133.19C349.424 132.96 349.161 132.845 348.93 132.944C348.7 133.042 348.584 133.305 348.683 133.534C349.128 134.584 349.539 135.683 349.918 136.782C349.984 136.979 350.165 137.093 350.346 137.093C350.395 137.093 350.445 137.093 350.494 137.061C350.724 136.995 350.856 136.749 350.774 136.503ZM3.0452 128.204C2.79829 128.155 2.55138 128.302 2.502 128.548C2.25509 129.664 2.00818 130.828 1.7942 132.009C1.74482 132.255 1.90942 132.501 2.15633 132.534C2.18925 132.534 2.20571 132.534 2.23863 132.534C2.45262 132.534 2.65014 132.386 2.68306 132.157C2.89705 130.992 3.1275 129.844 3.37441 128.745C3.45671 128.499 3.2921 128.253 3.0452 128.204ZM348.025 129.992C347.498 128.958 346.922 127.909 346.296 126.892C346.165 126.679 345.885 126.613 345.671 126.744C345.457 126.875 345.391 127.154 345.523 127.367C346.132 128.368 346.691 129.385 347.218 130.402C347.301 130.566 347.465 130.648 347.63 130.648C347.696 130.648 347.761 130.631 347.827 130.598C348.041 130.484 348.14 130.205 348.025 129.992ZM4.93816 121.447C4.69125 121.364 4.44434 121.496 4.36204 121.742C3.99991 122.841 3.6707 123.972 3.35795 125.12C3.2921 125.366 3.44025 125.612 3.68716 125.678C3.72008 125.694 3.76946 125.694 3.80238 125.694C3.99991 125.694 4.18097 125.563 4.24681 125.366C4.55956 124.235 4.88877 123.103 5.23445 122.021C5.30029 121.791 5.1686 121.529 4.93816 121.447ZM344.371 123.923C343.729 122.988 343.037 122.053 342.28 121.069C342.132 120.872 341.836 120.84 341.638 120.987C341.441 121.135 341.408 121.43 341.556 121.627C342.313 122.595 342.988 123.513 343.613 124.432C343.696 124.563 343.844 124.628 343.992 124.628C344.074 124.628 344.173 124.596 344.255 124.546C344.469 124.415 344.519 124.136 344.371 123.923ZM340.074 118.33C339.482 117.609 338.889 116.92 338.33 116.247L337.819 115.64C337.655 115.444 337.375 115.427 337.177 115.591C336.98 115.755 336.963 116.034 337.128 116.231L337.638 116.838C338.198 117.51 338.79 118.199 339.383 118.921C339.465 119.035 339.597 119.085 339.729 119.085C339.827 119.085 339.926 119.052 340.025 118.986C340.206 118.806 340.239 118.527 340.074 118.33ZM7.52246 114.935C7.29201 114.837 7.02864 114.935 6.91342 115.165C6.43606 116.214 5.97517 117.313 5.5472 118.429C5.44843 118.658 5.58012 118.921 5.81056 119.019C5.85995 119.035 5.92579 119.052 5.97517 119.052C6.15623 119.052 6.3373 118.937 6.40314 118.757C6.83112 117.658 7.27555 116.575 7.75291 115.542C7.85167 115.312 7.75291 115.034 7.52246 114.935ZM335.581 112.934C334.774 111.917 334.083 111.015 333.474 110.162C333.326 109.949 333.046 109.9 332.832 110.048C332.618 110.195 332.568 110.474 332.717 110.687C333.326 111.556 334.033 112.475 334.856 113.508C334.939 113.623 335.087 113.672 335.219 113.672C335.317 113.672 335.416 113.639 335.498 113.574C335.712 113.426 335.745 113.131 335.581 112.934ZM10.9133 108.801C10.6993 108.67 10.4195 108.735 10.2878 108.949C9.66233 109.933 9.05329 110.95 8.49363 111.999C8.37841 112.213 8.46071 112.491 8.6747 112.623C8.74054 112.655 8.82284 112.672 8.88868 112.672C9.05329 112.672 9.20143 112.59 9.28373 112.426C9.84339 111.392 10.436 110.392 11.045 109.424C11.1767 109.211 11.1273 108.932 10.9133 108.801ZM331.63 107.243C331.054 106.21 330.56 105.193 330.132 104.143C330.033 103.913 329.77 103.799 329.54 103.897C329.309 103.995 329.194 104.258 329.293 104.487C329.737 105.586 330.231 106.636 330.84 107.702C330.922 107.85 331.087 107.932 331.235 107.932C331.317 107.932 331.383 107.915 331.449 107.866C331.663 107.735 331.745 107.473 331.63 107.243ZM15.1437 103.208C14.9462 103.044 14.6663 103.061 14.5017 103.257C13.7281 104.143 12.9874 105.078 12.2795 106.029C12.1314 106.226 12.1808 106.521 12.3783 106.669C12.4606 106.734 12.5594 106.751 12.6581 106.751C12.7898 106.751 12.938 106.685 13.0203 106.57C13.7116 105.636 14.4359 104.734 15.1931 103.864C15.3577 103.667 15.3412 103.372 15.1437 103.208ZM20.1641 98.3042C19.9995 98.1074 19.7032 98.091 19.5222 98.255C18.6168 99.0423 17.7444 99.8459 16.9214 100.666C16.7404 100.846 16.7404 101.125 16.9214 101.306C17.0037 101.388 17.1189 101.437 17.2506 101.437C17.3659 101.437 17.4811 101.388 17.5798 101.306C18.3864 100.502 19.2423 99.6983 20.1312 98.9274C20.2958 98.7798 20.3287 98.4846 20.1641 98.3042ZM329.293 97.4677C329.309 97.2217 329.112 97.0085 328.865 96.9921C328.618 96.9757 328.404 97.1725 328.387 97.4185C328.338 98.3698 328.305 99.1571 328.305 99.8131C328.305 100.24 328.322 100.633 328.338 100.978C328.354 101.224 328.552 101.404 328.799 101.404C328.815 101.404 328.815 101.404 328.832 101.404C329.079 101.388 329.276 101.174 329.26 100.928C329.243 100.6 329.227 100.24 329.227 99.8295C329.21 99.1735 329.243 98.4026 329.293 97.4677ZM25.7607 94.0562C25.6126 93.843 25.3327 93.7938 25.1188 93.9414C24.0982 94.6467 23.16 95.3355 22.2546 96.0244C22.0571 96.172 22.0242 96.4672 22.1723 96.664C22.2546 96.7789 22.4028 96.8445 22.5345 96.8445C22.6332 96.8445 22.732 96.8117 22.8143 96.7461C23.7032 96.0736 24.6249 95.4011 25.6455 94.6959C25.843 94.5483 25.8924 94.2531 25.7607 94.0562ZM329.326 89.9887C329.079 89.9723 328.865 90.1691 328.848 90.4151C328.782 91.678 328.7 92.8753 328.618 93.9086C328.601 94.1546 328.782 94.3843 329.046 94.4007C329.062 94.4007 329.062 94.4007 329.079 94.4007C329.309 94.4007 329.523 94.2203 329.54 93.9742C329.622 92.9409 329.704 91.7272 329.77 90.4643C329.77 90.2183 329.573 90.0051 329.326 89.9887ZM31.67 90.2347C31.5384 90.0215 31.2585 89.9559 31.0445 90.0871C30.1392 90.6612 29.1022 91.3008 28.0652 91.9733C27.8512 92.1045 27.7854 92.3997 27.9335 92.5965C28.0158 92.7277 28.164 92.8097 28.3121 92.8097C28.3944 92.8097 28.4767 92.7769 28.559 92.7277C29.5796 92.0717 30.6166 91.4156 31.5219 90.858C31.7359 90.7268 31.8017 90.4479 31.67 90.2347ZM37.53 86.364C37.3818 86.1672 37.102 86.118 36.888 86.2656C36.065 86.856 35.1432 87.4793 33.991 88.2174C33.777 88.3486 33.7111 88.6438 33.8593 88.8406C33.9416 88.9718 34.0897 89.0538 34.2379 89.0538C34.3202 89.0538 34.4025 89.0374 34.4848 88.9882C35.637 88.2338 36.5753 87.6105 37.4148 87.0037C37.6288 86.856 37.6781 86.5772 37.53 86.364ZM329.852 83.4118C329.836 83.1657 329.638 82.9689 329.375 82.9689C329.128 82.9853 328.931 83.1821 328.931 83.4446C328.964 84.1826 328.964 84.9535 328.964 85.7243C328.964 86.118 328.964 86.528 328.947 86.9216C328.947 87.1677 329.145 87.3809 329.391 87.3809C329.638 87.3809 329.836 87.1841 329.852 86.938C329.852 86.528 329.869 86.118 329.869 85.7243C329.885 84.9371 329.885 84.1662 329.852 83.4118ZM42.6657 81.6076C42.4681 81.4436 42.1883 81.46 42.0237 81.6568C41.7603 81.9684 41.4805 82.2801 41.2007 82.5753C40.7233 83.0837 40.1801 83.6086 39.604 84.117C39.423 84.281 39.4065 84.5763 39.5711 84.7567C39.6534 84.8551 39.7851 84.9043 39.9168 84.9043C40.032 84.9043 40.1308 84.8715 40.2131 84.7895C40.8056 84.2646 41.3653 83.7234 41.8591 83.1821C42.1389 82.8705 42.4352 82.5589 42.7151 82.2309C42.8797 82.0504 42.8632 81.7716 42.6657 81.6076ZM329.622 79.8855C329.507 78.6882 329.342 77.5073 329.145 76.3756C329.095 76.1296 328.865 75.9655 328.618 75.9983C328.371 76.0475 328.206 76.2772 328.239 76.5232C328.437 77.6221 328.601 78.7866 328.717 79.9675C328.75 80.1971 328.947 80.3775 329.178 80.3775C329.194 80.3775 329.21 80.3775 329.227 80.3775C329.457 80.3611 329.638 80.1315 329.622 79.8855ZM46.682 75.8507C46.4681 75.7195 46.1882 75.7851 46.0565 75.9983C45.3981 77.0808 44.7726 78.0321 44.1471 78.9178C43.999 79.1146 44.0484 79.4098 44.2623 79.5574C44.3446 79.6066 44.4269 79.6394 44.5257 79.6394C44.6739 79.6394 44.8055 79.5738 44.9043 79.4426C45.5463 78.5406 46.1718 77.5729 46.8466 76.474C46.9619 76.2608 46.896 75.9819 46.682 75.8507ZM50.1223 69.7494C49.9083 69.6346 49.6285 69.7166 49.4968 69.9298L49.2663 70.3563C48.789 71.2255 48.2952 72.1276 47.8014 72.9969C47.6697 73.2101 47.752 73.4889 47.9824 73.6201C48.0483 73.6529 48.1306 73.6858 48.2129 73.6858C48.3775 73.6858 48.5256 73.6037 48.6079 73.4561C49.1017 72.5869 49.5956 71.6848 50.0729 70.7991L50.3034 70.3727C50.435 70.1431 50.3527 69.8642 50.1223 69.7494ZM328.371 72.9149C328.289 72.6361 328.223 72.3736 328.141 72.0948C327.894 71.2255 327.597 70.3727 327.285 69.5198C327.202 69.2902 326.939 69.159 326.692 69.2574C326.462 69.3394 326.33 69.6018 326.429 69.8478C326.741 70.6679 327.021 71.5044 327.268 72.3572C327.35 72.6197 327.416 72.8821 327.499 73.1609C327.548 73.3577 327.729 73.5053 327.943 73.5053C327.976 73.5053 328.025 73.5053 328.058 73.4889C328.289 73.4069 328.437 73.1609 328.371 72.9149ZM53.6448 63.6645C53.4309 63.5333 53.151 63.5989 53.0193 63.8121C52.4432 64.7306 51.8671 65.7311 51.2251 66.8464C51.0935 67.0596 51.1758 67.3384 51.4062 67.4696C51.472 67.5024 51.5544 67.5352 51.6367 67.5352C51.8013 67.5352 51.9494 67.4532 52.0317 67.3056C52.6572 66.1903 53.2498 65.2063 53.8094 64.3042C53.9247 64.0746 53.8588 63.7957 53.6448 63.6645ZM325.869 66.2723C325.342 65.2063 324.75 64.173 324.124 63.1725C323.992 62.9593 323.713 62.8937 323.499 63.0249C323.285 63.1561 323.219 63.4349 323.35 63.6481C323.96 64.6158 324.536 65.6327 325.046 66.666C325.128 66.83 325.293 66.912 325.457 66.912C325.523 66.912 325.589 66.8956 325.655 66.8628C325.902 66.7808 325.984 66.502 325.869 66.2723ZM57.6941 57.9405C57.4966 57.7764 57.2168 57.8092 57.0522 58.0225C56.3444 58.9245 55.6366 59.8758 54.9452 60.8599C54.7971 61.0731 54.8629 61.3519 55.0604 61.4995C55.1427 61.5487 55.2251 61.5816 55.3238 61.5816C55.472 61.5816 55.6036 61.5159 55.7024 61.3847C56.3773 60.4171 57.0686 59.4658 57.7764 58.5965C57.9246 58.3833 57.8917 58.1045 57.6941 57.9405ZM322.083 60.2694C321.968 60.1218 321.853 59.9906 321.754 59.843C321.128 59.0721 320.453 58.3177 319.746 57.5796C319.565 57.3992 319.285 57.3992 319.104 57.5632C318.923 57.7436 318.923 58.0225 319.087 58.2029C319.779 58.9081 320.437 59.6462 321.046 60.4007C321.161 60.5319 321.26 60.6795 321.375 60.8107C321.474 60.9255 321.606 60.9911 321.737 60.9911C321.836 60.9911 321.935 60.9583 322.017 60.8927C322.198 60.7615 322.231 60.4663 322.083 60.2694ZM62.5006 52.8396C62.336 52.6592 62.0397 52.6428 61.8586 52.8232C61.0027 53.6269 60.1632 54.4634 59.3566 55.3326C59.192 55.5131 59.192 55.8083 59.3896 55.9723C59.4719 56.0543 59.5871 56.0871 59.7023 56.0871C59.834 56.0871 59.9492 56.0379 60.0315 55.9395C60.8216 55.0866 61.6447 54.2665 62.4841 53.4793C62.6652 53.2989 62.6817 53.02 62.5006 52.8396ZM317.145 55.1686C316.256 54.4142 315.318 53.6761 314.347 52.9708C314.149 52.8232 313.853 52.8724 313.705 53.0693C313.556 53.2661 313.606 53.5613 313.803 53.7089C314.758 54.3978 315.68 55.1194 316.536 55.8575C316.618 55.9395 316.733 55.9723 316.832 55.9723C316.964 55.9723 317.095 55.9231 317.178 55.8083C317.359 55.6115 317.342 55.3326 317.145 55.1686ZM311.384 51.0191C310.495 50.4778 309.557 49.953 308.602 49.461C308.503 49.4117 308.388 49.3461 308.289 49.2969C308.059 49.1821 307.795 49.2641 307.68 49.4938C307.565 49.7234 307.647 49.9858 307.878 50.1006C307.976 50.1498 308.092 50.2154 308.19 50.2646C309.129 50.7567 310.034 51.2651 310.923 51.8063C311.005 51.8555 311.071 51.872 311.153 51.872C311.301 51.872 311.45 51.7899 311.548 51.6587C311.68 51.4291 311.598 51.1503 311.384 51.0191ZM68.0643 48.5425C67.9161 48.3293 67.6363 48.2801 67.4388 48.4113C66.4511 49.0673 65.4799 49.7726 64.5746 50.4942C64.3771 50.6582 64.3442 50.9371 64.4923 51.1339C64.5746 51.2487 64.7228 51.3143 64.8545 51.3143C64.9532 51.3143 65.052 51.2815 65.1343 51.2159C66.0396 50.5106 66.9779 49.8218 67.949 49.1657C68.1466 49.0345 68.1959 48.7557 68.0643 48.5425ZM305.112 47.7388C304.026 47.2468 302.939 46.7711 301.87 46.3283C301.639 46.2299 301.376 46.3447 301.277 46.5743C301.178 46.8039 301.293 47.0664 301.524 47.1648C302.577 47.5912 303.664 48.0668 304.734 48.5589C304.799 48.5917 304.865 48.6081 304.931 48.6081C305.096 48.6081 305.26 48.5097 305.343 48.3457C305.441 48.116 305.343 47.8372 305.112 47.7388ZM74.1876 45.1146C74.0723 44.885 73.809 44.803 73.5785 44.9014C72.5086 45.4262 71.4551 45.9839 70.451 46.5579C70.237 46.6891 70.1547 46.9515 70.2864 47.1812C70.3687 47.3288 70.5169 47.4108 70.6815 47.4108C70.7638 47.4108 70.8296 47.3944 70.9119 47.3452C71.8996 46.7875 72.9366 46.2299 73.99 45.7214C74.204 45.6066 74.3028 45.3278 74.1876 45.1146ZM298.561 45.0818C297.442 44.6882 296.306 44.3273 295.187 44.0157C294.94 43.9501 294.693 44.0813 294.627 44.3273C294.561 44.5733 294.693 44.8194 294.94 44.885C296.042 45.1966 297.162 45.5574 298.265 45.9347C298.314 45.9511 298.363 45.9675 298.413 45.9675C298.594 45.9675 298.775 45.8527 298.841 45.6558C298.923 45.4098 298.808 45.1638 298.561 45.0818ZM80.7224 42.5068C80.6401 42.2608 80.3932 42.146 80.1463 42.2116C79.027 42.5724 77.9077 42.9824 76.8213 43.4417C76.5908 43.5401 76.4756 43.8025 76.5743 44.0321C76.6402 44.2125 76.8213 44.3109 77.0023 44.3109C77.0682 44.3109 77.1175 44.2945 77.1834 44.2781C78.2533 43.8353 79.3562 43.4417 80.459 43.0808C80.6566 43.0152 80.7882 42.7528 80.7224 42.5068ZM291.763 43.1136C290.627 42.8512 289.458 42.6216 288.29 42.4248C288.043 42.3756 287.812 42.556 287.763 42.802C287.713 43.048 287.895 43.2776 288.141 43.3268C289.294 43.5237 290.446 43.7533 291.565 44.0157C291.598 44.0157 291.631 44.0321 291.664 44.0321C291.878 44.0321 292.059 43.8845 292.108 43.6713C292.158 43.4253 292.01 43.1792 291.763 43.1136ZM284.783 41.9163C283.648 41.7851 282.495 41.6703 281.261 41.5719C281.014 41.5555 280.784 41.7359 280.767 41.9983C280.751 42.2444 280.932 42.474 281.195 42.4904C282.43 42.5888 283.565 42.6872 284.685 42.8184C284.701 42.8184 284.718 42.8184 284.734 42.8184C284.965 42.8184 285.162 42.6544 285.179 42.4248C285.211 42.1788 285.03 41.9491 284.783 41.9163ZM277.738 41.3751C276.998 41.3423 276.273 41.3095 275.566 41.2767H275.516C275.072 41.2603 274.644 41.2439 274.232 41.2275C273.985 41.2111 273.771 41.4079 273.755 41.6539C273.738 41.8999 273.936 42.1131 274.183 42.1295C274.611 42.146 275.039 42.1623 275.483 42.1788H275.533C276.24 42.2116 276.965 42.2444 277.705 42.2772H277.722C277.969 42.2772 278.166 42.0803 278.183 41.8507C278.183 41.6047 277.985 41.3751 277.738 41.3751ZM87.5535 40.8502C87.5041 40.6042 87.2737 40.4402 87.0268 40.4894C85.8416 40.7026 84.6729 40.965 83.5701 41.2439C83.3232 41.3095 83.175 41.5555 83.2409 41.8015C83.2902 42.0147 83.4713 42.1459 83.6853 42.1459C83.7182 42.1459 83.7676 42.146 83.8005 42.1295C84.8869 41.8507 86.0391 41.6047 87.2078 41.3915C87.4218 41.3423 87.5864 41.0963 87.5535 40.8502ZM270.726 41.0143C269.409 40.9158 268.29 40.7682 267.286 40.5878C267.039 40.5386 266.792 40.7026 266.759 40.9487C266.71 41.1947 266.874 41.4243 267.121 41.4735C268.158 41.6539 269.311 41.8015 270.66 41.9163C270.677 41.9163 270.693 41.9163 270.693 41.9163C270.924 41.9163 271.121 41.7359 271.154 41.5063C271.154 41.2439 270.973 41.0307 270.726 41.0143ZM94.0225 39.5217C92.7386 39.6529 91.6028 39.7842 90.5164 39.9318C90.2695 39.9646 90.0884 40.1942 90.1214 40.4402C90.1543 40.6698 90.3518 40.8338 90.5658 40.8338C90.5823 40.8338 90.6152 40.8338 90.6316 40.8338C91.7016 40.6862 92.8538 40.555 94.1048 40.4402C94.3517 40.4074 94.5328 40.1942 94.5163 39.9482C94.4999 39.6857 94.2694 39.5053 94.0225 39.5217ZM263.961 39.6857C263.467 39.4889 262.973 39.2757 262.496 39.0461C261.936 38.7673 261.393 38.472 260.85 38.1768C260.636 38.062 260.356 38.1276 260.224 38.3572C260.109 38.5705 260.175 38.8493 260.405 38.9805C260.949 39.2757 261.508 39.5709 262.068 39.8662C262.562 40.1122 263.089 40.3418 263.615 40.555C263.665 40.5714 263.73 40.5878 263.78 40.5878C263.961 40.5878 264.142 40.473 264.208 40.2926C264.323 40.0302 264.208 39.7677 263.961 39.6857ZM101.051 38.9313C100.343 38.9969 99.652 39.0461 98.9442 39.0953H98.9277C98.4668 39.1281 98.0059 39.1773 97.545 39.2101C97.2981 39.2265 97.1006 39.4561 97.1335 39.7021C97.15 39.9482 97.3475 40.1286 97.5944 40.1286C97.6109 40.1286 97.6109 40.1286 97.6273 40.1286C98.0882 40.0958 98.5491 40.0466 99.01 40.0138H99.0265C99.7343 39.9646 100.442 39.899 101.133 39.8498C101.38 39.8334 101.578 39.6037 101.545 39.3577C101.512 39.0953 101.298 38.9149 101.051 38.9313ZM108.524 38.5705C108.491 38.3244 108.261 38.144 108.014 38.1932C106.944 38.3572 105.808 38.4884 104.541 38.6197C104.294 38.6525 104.113 38.8657 104.129 39.1117C104.162 39.3413 104.36 39.5217 104.574 39.5217C104.59 39.5217 104.607 39.5217 104.623 39.5217C105.891 39.3905 107.043 39.2429 108.129 39.0789C108.393 39.0461 108.557 38.8165 108.524 38.5705ZM115.405 37.0615C115.339 36.8155 115.076 36.6843 114.845 36.7499C113.759 37.0615 112.623 37.3404 111.454 37.57C111.207 37.6192 111.043 37.8652 111.092 38.1112C111.141 38.3244 111.323 38.472 111.536 38.472C111.569 38.472 111.602 38.472 111.635 38.4556C112.82 38.2096 113.973 37.9308 115.076 37.6192C115.322 37.5536 115.471 37.3075 115.405 37.0615ZM257.887 36.3891C256.916 35.7494 255.961 35.077 255.056 34.3717C254.858 34.2241 254.578 34.2569 254.414 34.4537C254.266 34.6505 254.299 34.9293 254.496 35.0934C255.434 35.815 256.406 36.5039 257.393 37.1435C257.475 37.1927 257.558 37.2255 257.64 37.2255C257.788 37.2255 257.936 37.1435 258.019 37.0123C258.15 36.7991 258.101 36.5203 257.887 36.3891ZM121.972 34.5849C121.874 34.3553 121.594 34.2569 121.363 34.3553C120.31 34.8309 119.224 35.2902 118.154 35.6838C117.923 35.7658 117.791 36.0282 117.89 36.2743C117.956 36.4547 118.137 36.5695 118.318 36.5695C118.368 36.5695 118.417 36.5531 118.483 36.5367C119.586 36.1267 120.689 35.6838 121.758 35.1754C121.972 35.077 122.071 34.8145 121.972 34.5849ZM128.129 31.1898C127.997 30.9766 127.717 30.911 127.503 31.0258C126.697 31.5015 125.841 31.9935 124.985 32.4855C124.82 32.584 124.639 32.6824 124.474 32.7808C124.26 32.8956 124.178 33.1744 124.293 33.404C124.376 33.5516 124.54 33.6336 124.688 33.6336C124.771 33.6336 124.837 33.6172 124.902 33.5844C125.084 33.486 125.248 33.3876 125.429 33.2892C126.302 32.7972 127.141 32.3051 127.964 31.8131C128.178 31.6819 128.26 31.4031 128.129 31.1898ZM252.373 32.1575C251.55 31.4195 250.727 30.6322 249.854 29.7629C249.673 29.5825 249.393 29.5825 249.212 29.7629C249.031 29.9433 249.031 30.2222 249.212 30.4026C250.101 31.2883 250.941 32.0919 251.78 32.8464C251.862 32.9284 251.978 32.9612 252.076 32.9612C252.208 32.9612 252.323 32.912 252.422 32.8136C252.57 32.6004 252.554 32.3215 252.373 32.1575ZM134.038 27.3847C133.89 27.1715 133.61 27.1223 133.413 27.2699C132.441 27.9424 131.487 28.5656 130.499 29.1889C130.285 29.3201 130.219 29.5989 130.367 29.8121C130.45 29.9433 130.598 30.0253 130.746 30.0253C130.828 30.0253 130.911 30.0089 130.993 29.9597C131.98 29.3201 132.952 28.6804 133.939 28.008C134.12 27.8768 134.17 27.5979 134.038 27.3847ZM247.435 27.2207C246.924 26.6631 246.398 26.089 245.887 25.5478C245.607 25.2526 245.344 24.9409 245.064 24.6457C244.9 24.4653 244.603 24.4489 244.422 24.6129C244.241 24.7769 244.225 25.0721 244.389 25.2526C244.669 25.5478 244.949 25.8594 245.212 26.1546C245.723 26.7123 246.249 27.2863 246.76 27.844C246.842 27.9424 246.974 27.9916 247.089 27.9916C247.204 27.9916 247.303 27.9588 247.402 27.8768C247.599 27.6964 247.599 27.4011 247.435 27.2207ZM139.733 23.2844C139.585 23.0876 139.289 23.0384 139.091 23.186C138.219 23.842 137.264 24.5309 136.26 25.269C136.063 25.4166 136.013 25.6954 136.161 25.9086C136.244 26.0398 136.392 26.089 136.54 26.089C136.639 26.089 136.721 26.0562 136.803 26.007C137.807 25.2854 138.762 24.5801 139.635 23.924C139.832 23.76 139.882 23.4812 139.733 23.2844ZM242.645 22.0707C241.756 21.1522 240.949 20.3321 240.143 19.5777C239.961 19.3973 239.665 19.4137 239.501 19.5941C239.32 19.7745 239.336 20.0697 239.517 20.2337C240.307 20.9882 241.114 21.7919 241.986 22.6939C242.068 22.7923 242.2 22.8416 242.315 22.8416C242.431 22.8416 242.546 22.7923 242.628 22.7103C242.826 22.5299 242.826 22.2511 242.645 22.0707ZM145.396 19.1348C145.248 18.938 144.968 18.8888 144.754 19.02C143.881 19.6433 142.976 20.2993 141.906 21.0866C141.709 21.2342 141.659 21.513 141.807 21.7263C141.89 21.8411 142.038 21.9067 142.17 21.9067C142.268 21.9067 142.367 21.8739 142.449 21.8247C143.519 21.0374 144.425 20.3813 145.281 19.7745C145.495 19.6269 145.544 19.3317 145.396 19.1348ZM237.509 17.2159C236.604 16.4614 235.649 15.7234 234.711 15.0345C234.513 14.8869 234.217 14.9361 234.069 15.1329C233.92 15.3297 233.97 15.625 234.167 15.7726C235.089 16.445 236.027 17.1667 236.916 17.9047C236.999 17.9704 237.114 18.0032 237.213 18.0032C237.344 18.0032 237.476 17.9539 237.558 17.8391C237.723 17.6751 237.69 17.3799 237.509 17.2159ZM151.272 15.2641C151.141 15.0509 150.861 14.9853 150.647 15.1165C149.643 15.7398 148.671 16.363 147.684 17.0191C147.47 17.1667 147.42 17.4455 147.552 17.6423C147.634 17.7735 147.783 17.8391 147.931 17.8391C148.013 17.8391 148.112 17.8063 148.178 17.7571C149.149 17.1011 150.12 16.4778 151.124 15.8546C151.338 15.7562 151.404 15.4773 151.272 15.2641ZM157.363 11.7542C157.247 11.5246 156.968 11.4426 156.737 11.5738C156.589 11.6558 156.424 11.7378 156.276 11.8198C155.387 12.3119 154.515 12.8039 153.659 13.296C153.445 13.4272 153.363 13.706 153.494 13.9192C153.577 14.0668 153.725 14.1488 153.889 14.1488C153.972 14.1488 154.054 14.1324 154.12 14.0832C154.959 13.5912 155.832 13.0991 156.721 12.6071C156.869 12.5251 157.017 12.4431 157.165 12.3611C157.396 12.2463 157.478 11.9675 157.363 11.7542ZM231.764 13.0663C230.777 12.4595 229.74 11.8526 228.702 11.295C228.472 11.1802 228.209 11.2622 228.077 11.4754C227.962 11.705 228.044 11.9675 228.258 12.0987C229.295 12.6563 230.299 13.2304 231.27 13.8372C231.353 13.8864 231.435 13.9028 231.517 13.9028C231.665 13.9028 231.814 13.8208 231.912 13.6896C232.044 13.4928 231.978 13.1976 231.764 13.0663ZM163.832 9.01521C163.749 8.78559 163.486 8.65438 163.255 8.73639C162.103 9.14642 161 9.58926 159.947 10.0321C159.716 10.1305 159.618 10.3929 159.716 10.6225C159.799 10.803 159.963 10.9014 160.128 10.9014C160.194 10.9014 160.243 10.885 160.309 10.8686C161.33 10.4257 162.416 9.99929 163.552 9.58926C163.799 9.50725 163.914 9.24483 163.832 9.01521ZM225.526 9.72047C224.489 9.24483 223.386 8.76919 222.266 8.32635C222.036 8.22795 221.773 8.34276 221.674 8.57237C221.575 8.80199 221.69 9.06441 221.921 9.16282C223.024 9.60566 224.094 10.0649 225.131 10.5405C225.196 10.5733 225.262 10.5897 225.328 10.5897C225.509 10.5897 225.674 10.4913 225.74 10.3273C225.855 10.0977 225.756 9.83528 225.526 9.72047ZM170.58 7.03065C170.515 6.78463 170.268 6.63701 170.021 6.70262C168.852 6.99784 167.7 7.30947 166.613 7.6375C166.366 7.7031 166.235 7.96552 166.301 8.19514C166.366 8.39196 166.548 8.52317 166.745 8.52317C166.794 8.52317 166.827 8.52317 166.877 8.50677C167.963 8.17874 169.099 7.86712 170.251 7.58829C170.498 7.52269 170.646 7.27667 170.58 7.03065ZM218.958 7.09625C218.513 6.94864 218.053 6.78463 217.592 6.63701C216.95 6.4238 216.275 6.22698 215.567 6.03016C215.32 5.96456 215.073 6.11217 215.007 6.34179C214.941 6.58781 215.09 6.83383 215.32 6.89944C215.995 7.07985 216.67 7.29307 217.295 7.48988C217.756 7.6375 218.201 7.78511 218.645 7.94912C218.695 7.96552 218.744 7.98193 218.793 7.98193C218.974 7.98193 219.155 7.86712 219.221 7.6703C219.32 7.42428 219.205 7.17826 218.958 7.09625ZM177.477 5.62013C177.428 5.37411 177.198 5.2101 176.951 5.2429C175.782 5.43972 174.613 5.66933 173.477 5.89895C173.231 5.94816 173.066 6.19418 173.132 6.4402C173.181 6.65342 173.362 6.80103 173.576 6.80103C173.609 6.80103 173.642 6.80103 173.675 6.78463C174.794 6.55501 175.963 6.32539 177.115 6.12857C177.346 6.11217 177.51 5.86615 177.477 5.62013ZM212.127 5.1937C211.007 4.96408 209.839 4.76726 208.637 4.58685C208.39 4.55404 208.16 4.71806 208.11 4.96408C208.077 5.2101 208.242 5.43972 208.489 5.48892C209.674 5.66933 210.826 5.86615 211.929 6.09577C211.962 6.09577 211.995 6.11217 212.028 6.11217C212.242 6.11217 212.423 5.96456 212.472 5.75134C212.538 5.48892 212.374 5.2429 212.127 5.1937ZM184.457 4.70165C184.424 4.45563 184.21 4.27522 183.963 4.29162C182.794 4.40643 181.609 4.55404 180.457 4.71806C180.21 4.75086 180.029 4.98048 180.062 5.2265C180.095 5.45612 180.292 5.62013 180.506 5.62013C180.523 5.62013 180.555 5.62013 180.572 5.62013C181.724 5.47252 182.893 5.32491 184.045 5.2101C184.292 5.17729 184.473 4.94767 184.457 4.70165ZM205.115 4.16041C203.979 4.0456 202.777 3.94719 201.592 3.88159C201.345 3.86519 201.131 4.062 201.115 4.30802C201.098 4.55404 201.296 4.76726 201.543 4.78366C202.728 4.84927 203.896 4.94767 205.032 5.06248C205.049 5.06248 205.065 5.06248 205.082 5.06248C205.312 5.06248 205.51 4.88207 205.543 4.65245C205.559 4.40643 205.378 4.17681 205.115 4.16041ZM190.991 3.79958C189.823 3.84878 188.638 3.91439 187.469 3.9964C187.222 4.0128 187.024 4.22602 187.041 4.48844C187.057 4.73446 187.255 4.91487 187.502 4.91487H187.535C188.687 4.83287 189.872 4.76726 191.041 4.71806C191.288 4.70165 191.485 4.48844 191.485 4.24242C191.469 3.97999 191.255 3.78318 190.991 3.79958ZM198.069 3.73397C197.246 3.71757 196.39 3.70117 195.551 3.70117C195.222 3.70117 194.876 3.70117 194.53 3.70117C194.284 3.70117 194.07 3.91439 194.086 4.16041C194.086 4.40643 194.3 4.61965 194.547 4.60325C194.876 4.60325 195.205 4.60325 195.535 4.60325C196.374 4.60325 197.214 4.61965 198.053 4.63605H198.069C198.316 4.63605 198.514 4.43923 198.53 4.19321C198.514 3.94719 198.316 3.73397 198.069 3.73397Z" fill="#DFF2F5"/>
<path d="M331.777 211.654C331.481 211.998 331.168 212.343 330.872 212.687H329.818C329.818 212.572 329.851 212.458 329.934 212.359C330.312 211.933 330.707 211.506 331.086 211.063C331.25 210.867 331.53 210.85 331.728 211.014C331.925 211.178 331.942 211.473 331.777 211.654Z" fill="#DFF2F5"/>
<path d="M34.5672 212.687C34.5672 212.687 3.88477 197.27 3.88477 154.478C3.88477 98.3037 31.736 98.4185 44.0484 85.2155C54.7807 73.7017 55.3733 56.9723 77.4304 47.3939C94.2695 40.0789 108.607 46.2458 126.894 35.8638C140.935 27.8927 144.03 23.0215 158.153 15.198C172.276 7.3746 201.016 5.25882 216.357 10.294C242.348 18.8391 240.933 32.4687 260.735 42.4735C271.516 47.9352 284.389 41.145 306.791 52.8556C334.692 67.4364 323.169 95.1219 325.704 103.29C331.317 121.43 351.35 123.742 350.05 162.154C349.111 189.594 325.523 212.654 325.523 212.654H34.5672V212.687Z" fill="#EAF8FF"/>
<path d="M338.017 194.498C338.181 188.954 332.848 183.87 327.284 184.28C328.206 181.049 326.577 173.504 317.589 168.485C308.914 163.647 297.195 165.894 289.524 172.192C284.882 169.355 278.495 169.683 274.183 172.979C275.187 171.471 274.841 169.24 273.426 168.092C272.026 166.944 269.755 167.059 268.471 168.338C267.45 162.483 264.059 157.087 259.253 153.593C254.43 150.1 248.224 148.574 242.332 149.427C238.151 150.034 234.035 151.887 231.336 155.118C228.636 158.366 227.599 163.106 229.328 166.944C223.204 165.189 209.888 170.142 209.032 189.971C208.291 206.815 220.505 212.162 220.505 212.162H345.737C352.469 208.275 347.202 194.564 338.017 194.498Z" fill="#9ABED9"/>
<path d="M119.218 68.1166C119.192 68.187 53.3605 68.6943 47.3118 68.7648C41.4978 68.8211 35.7359 69.0325 29.9218 68.793C28.8137 68.7507 27.471 68.5534 27.0799 67.7079C26.9626 67.4543 26.9626 67.1724 26.9496 66.9047C26.8844 63.7623 26.8844 60.634 26.8453 57.4916C26.8323 56.8152 26.728 49.2058 26.7801 49.2058C29.0223 49.1917 31.2775 49.1636 33.5067 49.1495C36.0748 49.1213 38.6429 49.079 41.211 49.0508C47.8463 48.9663 54.4816 48.8676 61.117 48.769C71.4545 48.6281 81.8182 48.3744 92.1557 48.5013C97.6569 48.5717 103.158 48.6563 108.659 48.7549C110.849 48.7972 118.436 48.2899 119.31 49.854C119.466 50.1359 119.531 50.46 119.557 50.77C119.792 52.9401 119.701 55.1242 119.688 57.2943C119.675 59.4362 119.662 61.5781 119.649 63.72C119.636 64.7205 119.505 67.1443 119.218 68.1166Z" fill="white"/>
<path d="M35.8706 69.4521C33.8891 69.4521 31.8816 69.4239 29.9001 69.3394C28.7399 69.2971 27.1365 69.0998 26.615 67.9302C26.4455 67.5639 26.4455 67.1975 26.4325 66.9016C26.3934 64.9992 26.3804 63.0687 26.3673 61.2086C26.3543 59.9827 26.3543 58.7285 26.3282 57.4885V57.418C26.3152 56.9107 26.2891 54.8675 26.2761 52.951C26.263 51.8519 26.263 50.9782 26.25 50.3582C26.25 48.9772 26.25 48.9772 26.4064 48.794C26.4977 48.6813 26.6411 48.6249 26.7714 48.6249C28.9745 48.6109 31.2037 48.5968 33.3546 48.5686H33.498C36.0661 48.5404 38.6342 48.4981 41.2023 48.4699C44.4483 48.4277 47.6942 48.3854 50.9402 48.329C54.3296 48.2868 57.7189 48.2304 61.1083 48.1881C63.5069 48.1599 65.8925 48.1177 68.2911 48.0754C76.1127 47.9486 84.2081 47.8217 92.147 47.9063C97.6613 47.9767 103.241 48.0613 108.651 48.1599C109.042 48.1599 109.628 48.1599 110.293 48.1458C115.86 48.0331 119.001 48.2304 119.731 49.5409C119.953 49.9355 120.018 50.3582 120.057 50.6823C120.253 52.4719 120.227 54.2897 120.201 56.037C120.201 56.4598 120.187 56.8684 120.187 57.2912L120.148 63.7169C120.148 64.7456 120.018 67.2397 119.705 68.2825C119.588 68.6771 119.327 68.6771 118.819 68.6912C118.558 68.6912 118.18 68.7053 117.685 68.7053C116.694 68.7194 115.273 68.7334 113.487 68.7475C110.215 68.7757 105.457 68.8321 99.3168 68.8744C88.0407 68.973 73.8184 69.0857 63.4287 69.1703C55.3464 69.2407 48.9718 69.283 47.2901 69.3112C45.791 69.3253 44.2788 69.3535 42.8188 69.3816C40.5505 69.4239 38.2171 69.4521 35.8706 69.4521ZM27.2929 49.7523C27.2929 50.8373 27.319 53.5992 27.3711 57.4039V57.4744C27.3841 58.7144 27.3972 59.9827 27.4102 61.1945C27.4232 63.0546 27.4363 64.9851 27.4754 66.8734C27.4754 67.0847 27.4884 67.2961 27.5536 67.437C27.697 67.747 28.2315 68.1416 29.9522 68.2121C34.2541 68.3812 38.6212 68.3107 42.8318 68.2402C44.3049 68.2121 45.8171 68.1839 47.3162 68.1698C48.9978 68.1557 55.3725 68.0993 63.4548 68.0289C82.9827 67.8739 115.025 67.6061 118.832 67.5357C119.027 66.4929 119.145 64.5765 119.145 63.6887V63.6464L119.184 57.263C119.184 56.8403 119.197 56.4175 119.197 56.0089C119.223 54.2897 119.249 52.5283 119.066 50.8091C119.04 50.5837 119.001 50.3159 118.884 50.1186C118.832 50.02 118.428 49.5268 115.69 49.3295C113.943 49.2027 111.871 49.245 110.358 49.2732C109.68 49.2872 109.081 49.3013 108.677 49.2872C103.28 49.2027 97.6873 49.1041 92.1861 49.0336C84.2472 48.935 76.1649 49.0759 68.3563 49.2027C65.9577 49.245 63.5591 49.2872 61.1735 49.3154C57.7841 49.3577 54.3948 49.4141 51.0054 49.4563C47.7594 49.4986 44.5135 49.555 41.2675 49.5973C38.6994 49.6395 36.1313 49.6677 33.5632 49.6959H33.4198C31.3862 49.7241 29.3265 49.7382 27.2929 49.7523Z" fill="#5D7183"/>
<path d="M26.7822 41.7059C26.352 41.7059 26 41.3255 26 40.8604C26 40.3954 26.352 40.015 26.7822 40.015C28.9852 40.0009 53.5972 39.6768 61.119 39.5781C61.5492 39.5781 61.9012 39.9445 61.9142 40.4095C61.9142 40.8745 61.5753 41.255 61.1451 41.2691C55.6309 41.3396 29.1156 41.6918 26.7822 41.7059Z" fill="#96E296"/>
<path d="M119.218 105.486C119.192 105.556 53.3605 106.063 47.3118 106.134C41.4978 106.19 35.7359 106.402 29.9218 106.162C28.8137 106.12 27.471 105.923 27.0799 105.077C26.9626 104.823 26.9626 104.542 26.9496 104.274C26.8844 101.131 26.8844 98.0031 26.8453 94.8608C26.8323 94.1844 26.728 86.575 26.7801 86.575C29.0223 86.5609 31.2775 86.5327 33.5067 86.5186C36.0748 86.4904 38.6429 86.4482 41.211 86.42C47.8463 86.3354 54.4816 86.2368 61.117 86.1381C71.4545 85.9972 81.8182 85.7436 92.1557 85.8704C97.6569 85.9409 103.158 86.0254 108.659 86.1241C110.849 86.1663 118.436 85.659 119.31 87.2232C119.466 87.505 119.531 87.8291 119.557 88.1391C119.792 90.3092 119.701 92.4934 119.688 94.6635C119.675 96.8054 119.662 98.9473 119.649 101.089C119.636 102.09 119.505 104.513 119.218 105.486Z" fill="white"/>
<path d="M35.8706 106.823C33.8891 106.823 31.8816 106.795 29.9001 106.71C28.7399 106.668 27.1365 106.471 26.615 105.301C26.4455 104.935 26.4455 104.569 26.4325 104.273C26.3934 102.37 26.3804 100.44 26.3673 98.5797C26.3543 97.3537 26.3543 96.0996 26.3282 94.8596V94.7891C26.3152 94.2818 26.2891 92.2386 26.2761 90.3221C26.263 89.223 26.263 88.3493 26.25 87.7293C26.25 86.3483 26.25 86.3483 26.4064 86.1651C26.4977 86.0524 26.6411 85.996 26.7714 85.996C28.9745 85.9819 31.2167 85.9679 33.3807 85.9397H33.485C36.0531 85.9115 38.6212 85.8692 41.1893 85.841C44.4352 85.7988 47.6812 85.7565 50.9272 85.7001C54.3165 85.6578 57.7059 85.6015 61.0953 85.5592C63.4939 85.531 65.8795 85.4887 68.2781 85.4465C76.0997 85.3196 84.182 85.1928 92.134 85.2774C97.6352 85.3478 103.228 85.4324 108.625 85.531C109.029 85.531 109.602 85.531 110.28 85.5169C115.847 85.4042 118.988 85.6015 119.718 86.912C119.94 87.3065 120.005 87.7293 120.044 88.0534C120.24 89.843 120.214 91.6608 120.188 93.4081C120.188 93.8309 120.174 94.2395 120.174 94.6623L120.135 101.088C120.135 102.117 120.005 104.611 119.692 105.654C119.575 106.048 119.314 106.048 118.806 106.062C118.545 106.062 118.167 106.076 117.672 106.076C116.681 106.09 115.247 106.105 113.461 106.119C110.189 106.147 105.405 106.203 99.2517 106.245C87.9494 106.344 73.7141 106.457 63.3114 106.541C55.2812 106.612 48.9457 106.654 47.2771 106.668C45.791 106.682 44.2658 106.71 42.8057 106.739C40.5505 106.795 38.2171 106.823 35.8706 106.823ZM27.2929 87.1234C27.2929 88.2084 27.319 90.9703 27.3711 94.775V94.8455C27.3841 96.0855 27.3972 97.3537 27.4102 98.5656C27.4232 100.426 27.4363 102.356 27.4754 104.244C27.4754 104.456 27.4884 104.667 27.5536 104.808C27.697 105.118 28.2315 105.513 29.9522 105.583C34.2541 105.752 38.6212 105.682 42.8449 105.611C44.3049 105.583 45.8301 105.555 47.3162 105.541C48.9848 105.527 55.3333 105.47 63.3505 105.414C82.9175 105.259 115.012 104.991 118.819 104.921C119.014 103.878 119.132 101.962 119.132 101.074V101.032L119.171 94.6482C119.171 94.2254 119.184 93.8027 119.184 93.3941C119.21 91.6749 119.236 89.9135 119.053 88.1943C119.027 87.9688 118.988 87.7011 118.871 87.5038C118.819 87.4052 118.415 86.912 115.677 86.7147C113.93 86.5879 111.857 86.6302 110.345 86.6583C109.667 86.6724 109.068 86.6865 108.664 86.6724C103.254 86.5879 97.6613 86.4892 92.1731 86.4188C84.2342 86.3201 76.1519 86.4611 68.3433 86.5879C65.9447 86.6302 63.546 86.6724 61.1604 86.7006C57.7711 86.7429 54.3817 86.7993 50.9924 86.8415C47.7464 86.8838 44.5004 86.9402 41.2545 86.9824C38.6864 87.0106 36.1183 87.0529 33.5502 87.0811H33.4459C31.3992 87.0952 29.3395 87.1093 27.2929 87.1234Z" fill="#5D7183"/>
<path d="M26.7822 79.077C26.352 79.077 26 78.6966 26 78.2315C26 77.7665 26.352 77.3861 26.7822 77.3861C28.9852 77.372 53.5972 77.0479 61.119 76.9492H61.132C61.5622 76.9492 61.9142 77.3156 61.9142 77.7806C61.9142 78.2456 61.5753 78.6261 61.1451 78.6402C55.6309 78.7106 29.1156 79.0629 26.7822 79.077Z" fill="#96E296"/>
<path d="M118.907 184.864C118.881 185.126 53.3271 186.732 47.2976 186.956C41.5122 187.143 35.7655 187.816 29.9802 187.068C28.8745 186.919 27.5375 186.321 27.1518 183.519C27.0361 182.698 27.0232 181.801 27.0232 180.942C26.9589 170.781 26.9589 160.619 26.9204 150.458C26.9075 148.254 26.8047 123.598 26.8561 123.598C29.0931 123.561 31.3301 123.486 33.5542 123.412C36.1126 123.3 38.671 123.187 41.2294 123.075C47.8375 122.776 54.4456 122.478 61.0537 122.179C71.3516 121.731 81.6623 120.909 91.9602 121.282C97.437 121.506 102.914 121.805 108.391 122.104C110.576 122.216 118.136 120.61 118.984 125.69C119.138 126.624 119.203 127.67 119.228 128.679C119.46 135.739 119.37 142.763 119.357 149.823C119.344 156.772 119.331 163.72 119.318 170.669C119.331 173.881 119.19 181.726 118.907 184.864Z" fill="#96E296"/>
<path d="M30.0961 59.2761C29.8415 59.5862 29.7708 60.009 30.0536 60.5022C30.8456 61.841 33.745 60.5586 32.7833 59.2198C32.5994 58.9661 32.3165 58.797 31.9912 58.7124C31.3548 58.5574 30.4921 58.7829 30.0961 59.2761Z" fill="#5D7183"/>
<path d="M41.3656 59.2761C41.111 59.5862 41.0403 60.009 41.3232 60.5022C42.1152 61.841 45.0145 60.5586 44.0528 59.2198C43.8689 58.9661 43.5861 58.797 43.2608 58.7124C42.6385 58.5574 41.7757 58.7829 41.3656 59.2761Z" fill="#5D7183"/>
<path d="M52.6546 59.2761C52.4001 59.5862 52.3294 60.009 52.6122 60.5022C53.4042 61.841 56.3036 60.5586 55.3419 59.2198C55.158 58.9661 54.8751 58.797 54.5498 58.7124C53.9134 58.5574 53.0507 58.7829 52.6546 59.2761Z" fill="#5D7183"/>
<path d="M66.8963 163.608C65.4776 160.579 62.1608 153.603 60.0135 149.979C59.8745 149.742 59.5629 149.589 59.2226 149.585C55.9825 149.558 52.8334 149.582 49.6028 149.561C48.9989 149.558 48.5723 150.003 48.7592 150.435C52.2295 158.428 56.3276 166.261 61.0344 173.878C61.7006 174.957 62.2087 175.939 63.7856 176.193C65.7268 176.503 67.7687 176.579 69.7387 176.409C70.1844 176.37 71.8189 176.384 72.1256 175.974C77.8965 168.294 99.1012 133.871 99.1012 133.871C99.3792 133.429 98.9574 132.917 98.3104 132.917L88.983 132.91C88.6379 132.91 88.3263 133.063 88.1825 133.3C84.5637 139.351 72.3317 157.899 68.5068 163.681C68.1665 164.207 67.16 164.162 66.8963 163.608Z" fill="white"/>
<path d="M121.362 215.215C106.048 215.192 92.7029 215.192 80.2799 215.169C65.643 215.146 52.2975 215.123 38.46 215.123C37.107 215.123 36 214.711 36 214.207C36 213.703 37.107 213.291 38.46 213.291C52.2975 213.314 65.643 213.314 80.2799 213.337C92.7029 213.36 106.048 213.36 121.362 213.383C122.715 213.383 123.822 213.795 123.822 214.299C123.822 214.803 122.715 215.215 121.362 215.215Z" fill="#5D7183"/>
<path d="M214.216 213.046C218.188 216.742 221.175 221.632 223.275 226.734C227.017 235.86 228.609 246.277 227.263 256.073C227.148 256.907 227.017 257.742 226.837 258.576C225.95 262.991 224.359 266.785 222.34 270.694C220.338 274.57 218.385 278.593 218.762 283.205C218.812 283.859 218.926 284.513 219.255 285.053C219.911 286.099 221.208 286.394 222.373 286.345C230.463 286.099 237.734 275.731 242.263 269.386C247.416 262.157 251.765 253.833 254.309 244.953C257.722 233.08 258.92 219.539 255.015 207.535C241.328 165.423 191.996 162.398 156.761 176.838C142.073 182.856 124.415 194.697 124.398 212.261C124.398 217.576 128.304 223.136 131.587 226.718C138.857 234.666 148.293 239.605 157.894 243.252C162.111 244.855 196.689 257.905 196.443 248.518C196.345 244.609 193.588 241.535 190.896 239C187.417 235.729 183.675 232.54 179.77 229.694C176.389 227.225 171.958 225.083 170.382 220.929C169.283 218.018 170.579 214.927 172.664 212.817C176.208 209.268 181.197 207.666 186.055 206.897C191.208 206.079 196.492 205.867 201.662 206.717C206.602 207.518 210.77 209.841 214.216 213.046Z" fill="#DFE2EA"/>
<path d="M222.177 287.001C220.569 287.001 219.338 286.429 218.698 285.382C218.271 284.695 218.156 283.878 218.107 283.24C217.73 278.628 219.535 274.687 221.767 270.369C224.097 265.856 225.427 262.29 226.198 258.431C226.362 257.646 226.493 256.812 226.608 255.978C227.888 246.591 226.493 236.304 222.67 226.982C220.421 221.504 217.336 216.843 213.775 213.523C210.181 210.17 206.062 208.093 201.548 207.357C196.855 206.589 191.817 206.638 186.155 207.537C180.312 208.453 176.062 210.334 173.141 213.277C171.418 215.011 169.941 217.873 171.007 220.702C172.189 223.809 175.127 225.772 177.966 227.669C178.704 228.16 179.459 228.667 180.165 229.174C183.857 231.856 187.615 235.012 191.357 238.528C192.555 239.656 194.065 241.161 195.214 242.895C196.445 244.759 197.068 246.607 197.117 248.504C197.15 249.731 196.658 250.745 195.69 251.415C192.998 253.312 186.237 252.772 175.586 249.812C168.332 247.801 161.243 245.217 157.665 243.859C145.866 239.378 137.43 234.063 131.112 227.146C128.371 224.137 123.76 218.2 123.76 212.247C123.76 198.395 134.476 188.665 143.453 182.924C143.765 182.728 144.159 182.826 144.356 183.121C144.553 183.431 144.454 183.824 144.159 184.02C135.444 189.58 125.073 198.984 125.073 212.231C125.073 214.602 125.975 219.574 132.08 226.246C138.251 233 146.538 238.201 158.125 242.617C161.686 243.974 168.71 246.525 175.931 248.537C188.699 252.086 193.31 251.464 194.918 250.319C195.526 249.894 195.805 249.305 195.788 248.504C195.69 244.873 193.162 242.011 190.438 239.444C186.746 235.96 183.02 232.853 179.377 230.204C178.704 229.713 177.982 229.239 177.227 228.732C174.208 226.72 171.089 224.643 169.76 221.144C168.48 217.742 170.17 214.357 172.189 212.345C175.323 209.205 179.82 207.194 185.941 206.229C191.751 205.313 196.921 205.248 201.762 206.049C206.537 206.834 210.886 209.025 214.661 212.558C218.37 216.009 221.554 220.833 223.868 226.475C227.79 236.01 229.218 246.542 227.905 256.141C227.79 257.008 227.642 257.858 227.478 258.676C226.674 262.667 225.312 266.346 222.932 270.958C220.799 275.079 219.076 278.841 219.42 283.109C219.469 283.632 219.551 284.221 219.814 284.679C220.372 285.595 221.636 285.693 222.341 285.66C229.989 285.431 237.193 275.308 241.493 269.274L241.706 268.979C247.171 261.309 251.307 252.92 253.654 244.743C256.378 235.241 258.725 221.095 254.359 207.701C251.75 199.687 247.729 192.769 242.379 187.16C242.133 186.898 242.133 186.49 242.396 186.228C242.658 185.983 243.069 185.983 243.331 186.244C248.812 192.001 252.948 199.082 255.623 207.292C260.087 220.997 257.707 235.421 254.917 245.086C252.521 253.41 248.337 261.931 242.773 269.715L242.56 270.01C237.833 276.649 230.678 286.691 222.374 286.952C222.325 287.001 222.243 287.001 222.177 287.001Z" fill="#5D7183"/>
<path d="M176.028 104.637C176.553 108.104 172.746 112.929 171.154 115.709C167.264 122.447 163.227 129.103 159.699 136.053C152.675 149.905 147.079 164.787 146.291 180.422C145.93 187.699 151.263 187.552 156.843 187.994C164.819 188.615 172.778 189.188 180.787 189.449C196.771 189.956 212.772 190.218 228.707 188.877C232.367 188.566 239.014 186.8 242.099 184.625C242.099 184.625 241.705 177.625 241.262 173.717C240.228 164.853 238.078 156.169 235.305 147.681C230.07 131.621 220.814 118.816 218.762 114.924C213.281 97.6542 217.4 69.3126 199.02 60.2035C190.847 56.164 180.245 58.1265 175.831 67.5464C171.022 77.784 174.419 93.9909 176.028 104.637Z" fill="white"/>
<path d="M188.387 51.7467C186.221 52.7279 184.186 54.347 182.939 55.9987C176.44 53.611 168.858 57.6341 167.479 64.4047C166.905 67.2339 168.103 70.6519 170.844 71.5678C167.578 72.3527 164.886 75.1656 164.246 78.4528C163.606 81.74 165.018 85.3542 167.742 87.3167C169.958 88.9194 174.389 89.9006 176.801 88.069C178.885 86.4826 179.624 82.9011 179.837 80.4807C182.61 81.6582 184.842 82.3941 187.649 81.282C188.88 80.7914 193.573 78.1911 193.343 76.3268C193.721 79.3196 195.805 82.0507 198.464 83.0483C201.368 84.144 204.06 83.0483 206.226 81.1021C206.111 85.5995 207.523 89.917 210.723 93.2205C212.331 94.8722 214.481 96.246 216.778 96.0824C218.518 95.9516 220.11 94.9377 221.177 93.5639C222.243 92.1902 222.801 90.473 223.047 88.7558C223.917 82.7048 220.619 76.2941 215.187 73.4648C217.353 68.9184 216.532 63.1127 213.184 59.3349C209.837 55.5572 204.175 54.0199 199.366 55.6062C198.759 55.6062 197.2 52.6789 196.527 52.1555C195.313 51.2233 193.475 50.7 191.965 50.7818C190.816 50.8472 189.585 51.207 188.387 51.7467Z" fill="#96E296"/>
<path d="M241.936 183.774C241.575 183.774 241.296 183.496 241.28 183.136C240.984 171.966 238.884 160.764 234.683 147.877C230.613 135.366 223.983 124.703 220.421 118.963C219.42 117.344 218.632 116.084 218.173 115.218C218.157 115.185 218.14 115.152 218.124 115.103C216.433 109.755 215.662 103.508 214.842 96.9011C213.053 82.1824 211.165 66.9405 198.726 60.7914C194.41 58.649 189.486 58.2892 185.203 59.7774C181.297 61.1348 178.261 63.9313 176.423 67.84C172.238 76.7692 174.47 90.7192 176.095 100.908C176.308 102.2 176.489 103.41 176.669 104.571C177.03 107.008 174.076 112.045 169.596 119.666C164.804 127.81 158.24 138.98 153.923 150.706C153.792 151.049 153.415 151.213 153.087 151.098C152.742 150.967 152.578 150.591 152.693 150.264C157.042 138.44 163.639 127.205 168.464 118.995C172.337 112.421 175.668 106.73 175.373 104.751C175.192 103.59 175.012 102.38 174.798 101.104C173.141 90.7519 170.876 76.5894 175.225 67.2839C177.227 63.0319 180.509 60.0064 184.776 58.5345C189.388 56.9318 194.689 57.3243 199.317 59.6139C205.192 62.5249 209.344 67.5946 212.002 75.1502C214.333 81.7409 215.268 89.3782 216.171 96.7539C216.975 103.279 217.73 109.461 219.387 114.678C219.831 115.496 220.602 116.738 221.554 118.292C225.148 124.065 231.811 134.826 235.946 147.484C240.18 160.502 242.297 171.819 242.609 183.103C242.626 183.463 242.33 183.757 241.969 183.774C241.953 183.774 241.936 183.774 241.936 183.774Z" fill="#5D7183"/>
<path d="M227.363 189.235C226.313 189.235 225.279 189.169 224.295 189.039C223.934 188.989 223.687 188.662 223.737 188.303C223.786 187.943 224.114 187.698 224.475 187.747C227.757 188.172 231.598 187.828 235.29 186.798C239.327 185.653 242.938 183.756 245.744 181.319C249.962 177.623 252.193 172.766 252.193 167.255C252.193 150.95 238.031 137.327 228.644 128.316C225.476 125.274 222.982 122.87 221.718 121.022C221.521 120.728 221.587 120.319 221.882 120.106C222.178 119.91 222.588 119.975 222.801 120.27C223.999 122.003 226.444 124.375 229.563 127.351C234.305 131.898 240.197 137.572 245.005 144.278C250.733 152.258 253.523 159.781 253.523 167.222C253.523 173.11 251.143 178.31 246.63 182.268C243.676 184.852 239.902 186.831 235.667 188.025C232.878 188.842 230.022 189.235 227.363 189.235Z" fill="#5D7183"/>
<path d="M230.367 203.171C229.858 205.673 227.905 207.472 225.673 207.488L159.454 208.11C156.468 208.012 152.414 208.159 150.921 204.496C149.624 201.307 148.918 197.66 148.147 194.258C146.129 185.394 143.585 161.763 143.125 158.933C142.682 156.235 144.504 153.716 146.916 153.7C151.659 153.667 223.507 154.583 228.808 154.927C231.286 155.09 233.403 156.235 233.994 158.966C236.094 168.68 232.91 190.677 230.367 203.171Z" fill="white"/>
<path d="M159.454 208.762H159.438C159.241 208.762 159.044 208.746 158.831 208.746C155.893 208.664 151.872 208.549 150.313 204.739C149.181 201.991 148.508 198.95 147.852 196.006C147.737 195.466 147.622 194.926 147.491 194.403C145.997 187.829 144.241 173.454 143.207 164.868C142.846 161.908 142.584 159.765 142.469 159.029C142.206 157.443 142.649 155.808 143.65 154.63C144.504 153.616 145.653 153.06 146.9 153.044C150.986 153.011 223.31 153.911 228.84 154.27C231.975 154.467 234.043 156.086 234.634 158.833C236.833 168.989 233.403 191.574 231.023 203.316C230.449 206.145 228.25 208.141 225.69 208.173L159.454 208.762ZM147.212 154.352C147.08 154.352 146.982 154.352 146.916 154.352C146.063 154.352 145.259 154.761 144.668 155.481C143.913 156.364 143.585 157.623 143.782 158.833C143.913 159.585 144.159 161.744 144.52 164.721C145.554 173.274 147.294 187.616 148.787 194.109C148.902 194.632 149.033 195.172 149.148 195.711C149.788 198.606 150.461 201.599 151.528 204.248C152.759 207.274 156.008 207.356 158.863 207.437C159.06 207.437 159.274 207.454 159.471 207.454L225.673 206.832C227.577 206.816 229.3 205.213 229.743 203.038C234.748 178.245 234.289 163.461 233.354 159.095C232.763 156.38 230.531 155.677 228.758 155.562C223.343 155.219 153.678 154.352 147.212 154.352Z" fill="#5D7183"/>
<path d="M193.82 177.395C191.736 175.874 188.815 175.433 186.402 176.479C184.318 177.395 182.644 179.309 182.349 181.549C181.676 186.717 187.945 189.89 192.278 188.042C196.856 186.112 197.939 180.421 193.82 177.395Z" fill="#DFE2EA"/>
<path d="M187.209 93.9091C187.98 94.1872 188.735 94.5142 189.523 94.6287C190.655 94.7759 191.804 94.6451 192.887 94.2526C193.97 93.8437 193.806 93.811 193.675 94.874C193.543 95.9534 193.527 96.951 193.15 97.9813C192.739 99.0934 191.984 99.6003 190.737 99.6167C187.767 99.6494 186.897 96.0842 186.602 93.7129C186.815 93.7783 187.012 93.8437 187.209 93.9091Z" fill="#5D7183"/>
<path d="M190.701 100.27C187.468 100.27 186.336 96.7542 185.958 93.7942C185.925 93.5815 186.007 93.3526 186.188 93.2218C186.352 93.0746 186.582 93.0255 186.795 93.0909C186.992 93.14 187.189 93.2218 187.435 93.3035C187.599 93.3526 187.747 93.418 187.911 93.4834C188.502 93.7124 189.06 93.925 189.618 93.9904C190.635 94.1212 191.653 94.0068 192.654 93.647C192.736 93.6143 192.818 93.5815 192.9 93.5488C193.376 93.3526 193.77 93.2054 194.131 93.4998C194.492 93.7778 194.426 94.1866 194.377 94.5955C194.361 94.6936 194.344 94.8245 194.328 94.9553C194.295 95.2006 194.279 95.4459 194.246 95.6912C194.164 96.5089 194.082 97.343 193.77 98.2097C193.261 99.5835 192.277 100.254 190.75 100.27C190.734 100.27 190.717 100.27 190.701 100.27ZM187.419 94.6936C187.96 97.5229 189.06 98.962 190.701 98.962C190.717 98.962 190.717 98.962 190.734 98.962C191.719 98.9457 192.211 98.6186 192.539 97.7518C192.802 97.0322 192.867 96.3127 192.949 95.544C192.966 95.3314 192.999 95.1188 193.015 94.8899C191.833 95.2987 190.635 95.4296 189.454 95.266C188.748 95.1679 188.092 94.9226 187.452 94.6773C187.435 94.6936 187.435 94.6936 187.419 94.6936Z" fill="#5D7183"/>
<path d="M197.086 121.168C196.742 121.168 196.381 121.152 196.036 121.136C184.089 120.531 177.721 116.344 174.472 112.942C174.226 112.681 174.226 112.272 174.488 112.01C174.751 111.765 175.161 111.765 175.424 112.026C181.003 117.881 189.75 119.5 196.102 119.811C203.667 120.187 211.216 116.18 215.024 112.304C215.27 112.043 215.696 112.043 215.959 112.288C216.222 112.533 216.222 112.959 215.975 113.22C212.119 117.145 204.701 121.168 197.086 121.168Z" fill="#5D7183"/>
<path d="M201.746 130.279C201.484 130.279 201.057 130.23 200.811 129.887L195.838 123.312L190.291 129.511C190.144 129.674 189.914 129.756 189.701 129.723C181.676 128.415 175.095 125.291 171.189 120.941C170.943 120.679 170.976 120.254 171.238 120.025C171.501 119.78 171.927 119.813 172.157 120.074C175.8 124.147 181.971 127.074 189.553 128.382L195.395 121.857C195.527 121.71 195.707 121.628 195.904 121.644C196.101 121.644 196.281 121.743 196.396 121.906L201.763 128.987H201.779C202.518 128.987 205.39 128.088 209.263 126.06C213.431 123.869 216.516 121.53 217.517 119.78C217.698 119.469 218.092 119.355 218.42 119.535C218.732 119.715 218.847 120.107 218.666 120.434C216.172 124.801 204.815 130.099 201.927 130.296C201.878 130.279 201.812 130.279 201.746 130.279Z" fill="#5D7183"/>
<path d="M134.297 150.501C134.085 150.476 133.884 150.452 133.674 150.408C129.613 149.722 126.625 147.275 125.258 143.484C124.791 142.188 124.686 140.862 124.579 139.553C124.475 138.226 124.375 136.956 123.872 135.859C123.361 134.725 122.373 133.774 121.23 133.324C120.979 133.22 120.859 132.817 120.952 132.439C121.048 132.043 121.326 131.817 121.565 131.92C122.913 132.469 124.051 133.566 124.675 134.955C125.289 136.324 125.412 137.801 125.527 139.24C125.621 140.454 125.722 141.614 126.109 142.678C127.342 146.083 130.104 148.318 133.872 148.951C137.229 149.517 141.054 148.675 143.859 146.75C154.434 139.529 163.152 128.717 172.146 111.7C172.317 111.368 172.626 111.294 172.826 111.521C173.026 111.749 173.043 112.214 172.871 112.545C163.766 129.79 154.91 140.752 144.166 148.083C141.347 150.025 137.698 150.905 134.297 150.501Z" fill="#5D7183"/>
</svg>
