<svg width="354" height="244" viewBox="0 0 354 244" fill="none" xmlns="http://www.w3.org/2000/svg">
<path d="M28.6092 215.706H27.4075C27.0948 215.476 26.782 215.245 26.4693 214.998C26.2718 214.85 26.2388 214.554 26.387 214.356C26.5351 214.158 26.8314 214.126 27.0289 214.274C27.4898 214.636 27.9507 214.982 28.4281 215.311C28.5433 215.41 28.6092 215.558 28.6092 215.706Z" fill="#FFE7EB"/>
<path d="M24.3286 212.068C23.4562 211.311 22.5838 210.52 21.7608 209.714C21.5797 209.532 21.2834 209.549 21.1188 209.73C20.9377 209.911 20.9542 210.207 21.1353 210.372C21.9912 211.195 22.8636 212.002 23.7525 212.776C23.8348 212.858 23.95 212.891 24.0488 212.891C24.1804 212.891 24.2957 212.842 24.3944 212.726C24.5261 212.512 24.5097 212.233 24.3286 212.068ZM336.205 208.462C336.008 208.314 335.712 208.347 335.563 208.545C334.856 209.483 334.131 210.405 333.407 211.311C333.242 211.508 333.275 211.788 333.473 211.953C333.555 212.019 333.654 212.051 333.753 212.051C333.884 212.051 334.016 212.002 334.115 211.887C334.856 210.981 335.58 210.043 336.288 209.104C336.436 208.89 336.403 208.61 336.205 208.462ZM19.3081 207.211C18.518 206.355 17.7444 205.482 17.0037 204.593C16.8391 204.396 16.5592 204.379 16.3617 204.527C16.1642 204.692 16.1477 204.972 16.2959 205.169C17.0531 206.075 17.8432 206.964 18.6333 207.837C18.7156 207.935 18.8472 207.985 18.9625 207.985C19.0777 207.985 19.1929 207.952 19.2752 207.87C19.4563 207.672 19.4727 207.392 19.3081 207.211ZM340.238 202.683C340.024 202.552 339.744 202.601 339.613 202.815C338.971 203.786 338.312 204.758 337.637 205.713C337.489 205.91 337.539 206.207 337.753 206.355C337.835 206.404 337.934 206.437 338.016 206.437C338.164 206.437 338.296 206.371 338.395 206.24C339.069 205.285 339.744 204.297 340.386 203.325C340.501 203.111 340.452 202.832 340.238 202.683ZM14.8309 201.844C14.1396 200.922 13.4647 199.95 12.8063 198.995C12.6581 198.781 12.3783 198.732 12.1808 198.864C11.9668 199.012 11.9174 199.292 12.0491 199.489C12.7075 200.461 13.3988 201.449 14.0902 202.387C14.1725 202.502 14.3206 202.568 14.4523 202.568C14.5511 202.568 14.6498 202.535 14.7321 202.469C14.9461 202.321 14.979 202.041 14.8309 201.844ZM343.892 196.674C343.678 196.542 343.399 196.625 343.267 196.855C342.707 197.859 342.098 198.88 341.489 199.868C341.357 200.082 341.423 200.362 341.637 200.494C341.72 200.543 341.785 200.559 341.868 200.559C342.016 200.559 342.164 200.477 342.263 200.345C342.888 199.341 343.481 198.304 344.057 197.3C344.189 197.069 344.106 196.789 343.892 196.674ZM10.9462 196.032C10.3536 195.044 9.77753 194.007 9.23433 192.986C9.11911 192.755 8.83928 192.673 8.62529 192.788C8.39485 192.904 8.31254 193.183 8.42777 193.398C8.97096 194.435 9.56354 195.472 10.1561 196.493C10.2384 196.641 10.3866 196.723 10.5512 196.723C10.6335 196.723 10.7158 196.707 10.7816 196.657C11.0121 196.526 11.0779 196.246 10.9462 196.032ZM347.086 190.401C346.855 190.302 346.592 190.401 346.477 190.615C345.983 191.652 345.473 192.723 344.929 193.76C344.814 193.99 344.896 194.254 345.127 194.369C345.193 194.402 345.259 194.418 345.341 194.418C345.505 194.418 345.67 194.336 345.752 194.171C346.296 193.118 346.822 192.047 347.316 190.994C347.415 190.78 347.316 190.516 347.086 190.401ZM7.68705 189.841C7.20969 188.788 6.73234 187.717 6.30436 186.631C6.2056 186.4 5.94223 186.285 5.71179 186.384C5.48134 186.483 5.36612 186.746 5.46488 186.977C5.90931 188.063 6.37021 189.166 6.86402 190.22C6.94632 190.385 7.11093 190.483 7.27553 190.483C7.34137 190.483 7.40722 190.467 7.47306 190.434C7.70351 190.352 7.80227 190.072 7.68705 189.841ZM349.752 183.881C349.522 183.799 349.258 183.914 349.16 184.161C348.979 184.655 348.798 185.149 348.6 185.626C348.37 186.219 348.123 186.812 347.876 187.405C347.777 187.635 347.892 187.898 348.123 187.997C348.172 188.03 348.238 188.03 348.304 188.03C348.485 188.03 348.649 187.931 348.732 187.75C348.979 187.158 349.226 186.548 349.456 185.939C349.654 185.445 349.835 184.935 350.016 184.457C350.098 184.243 349.983 183.98 349.752 183.881ZM5.08629 183.354C4.7077 182.268 4.34557 181.148 4.03282 180.029C3.96698 179.782 3.70361 179.65 3.47316 179.716C3.22625 179.782 3.09457 180.045 3.16041 180.276C3.48962 181.412 3.85175 182.548 4.23034 183.651C4.29619 183.832 4.47725 183.964 4.65832 183.964C4.7077 183.964 4.75708 183.947 4.80646 183.931C5.03691 183.865 5.16859 183.601 5.08629 183.354ZM351.777 177.164C351.53 177.098 351.283 177.246 351.217 177.493C350.937 178.613 350.608 179.732 350.263 180.852C350.18 181.099 350.328 181.346 350.559 181.428C350.608 181.445 350.641 181.445 350.691 181.445C350.888 181.445 351.069 181.313 351.119 181.115C351.464 179.979 351.793 178.827 352.073 177.707C352.172 177.46 352.024 177.213 351.777 177.164ZM3.12749 176.653C2.86412 175.534 2.60076 174.381 2.38677 173.229C2.33739 172.982 2.10694 172.817 1.86003 172.867C1.61313 172.916 1.44852 173.147 1.4979 173.394C1.72835 174.546 1.97526 175.715 2.25509 176.851C2.30447 177.065 2.48553 177.197 2.69952 177.197C2.73244 177.197 2.76536 177.197 2.81474 177.18C3.02873 177.131 3.17687 176.9 3.12749 176.653ZM353.077 170.249C352.83 170.216 352.6 170.397 352.567 170.644C352.419 171.78 352.221 172.933 351.991 174.085C351.942 174.332 352.106 174.579 352.353 174.612C352.386 174.612 352.419 174.628 352.435 174.628C352.649 174.628 352.847 174.48 352.88 174.266C353.11 173.097 353.308 171.928 353.456 170.776C353.505 170.512 353.324 170.282 353.077 170.249ZM1.79419 169.788C1.62959 168.652 1.48144 167.483 1.36622 166.314C1.3333 166.067 1.11931 165.886 0.872406 165.902C0.625498 165.935 0.444433 166.149 0.460893 166.396C0.576117 167.565 0.724261 168.751 0.905326 169.903C0.938247 170.134 1.13577 170.298 1.34976 170.298C1.36622 170.298 1.39914 170.298 1.4156 170.298C1.66251 170.265 1.84357 170.035 1.79419 169.788ZM353.538 163.219C353.291 163.219 353.077 163.416 353.077 163.663C353.061 164.141 353.061 164.618 353.044 165.112C353.028 165.787 352.979 166.479 352.929 167.17C352.913 167.417 353.094 167.648 353.357 167.664C353.374 167.664 353.374 167.664 353.39 167.664C353.621 167.664 353.835 167.483 353.851 167.236C353.9 166.544 353.933 165.837 353.966 165.145C353.983 164.651 353.999 164.174 353.999 163.696C353.999 163.433 353.785 163.235 353.538 163.219ZM0.921787 159.317C0.921787 159.07 0.707801 158.872 0.460893 158.872C0.213986 158.872 0.0164605 159.086 0.0164605 159.333C0.0493814 160.519 0.0987629 161.704 0.164605 162.873C0.181065 163.12 0.378591 163.301 0.625498 163.301H0.658419C0.905326 163.285 1.10285 163.071 1.08639 162.824C1.00409 161.671 0.954708 160.486 0.921787 159.317ZM353.884 156.617C353.867 156.37 353.653 156.172 353.407 156.188C353.16 156.205 352.962 156.419 352.979 156.666C353.044 157.802 353.077 158.987 353.094 160.173C353.094 160.42 353.308 160.617 353.555 160.617C353.802 160.617 354.016 160.403 353.999 160.156C353.983 158.954 353.95 157.769 353.884 156.617ZM0.543196 151.842C0.296289 151.842 0.0823024 152.04 0.0658419 152.286C0.032921 153.439 0 154.624 0 155.81C0 156.057 0.197526 156.271 0.444433 156.271C0.69134 156.271 0.905326 156.073 0.905326 155.826C0.921787 154.641 0.938247 153.472 0.971168 152.319C0.987629 152.056 0.790103 151.842 0.543196 151.842ZM353.209 149.57C353.176 149.323 352.946 149.142 352.699 149.191C352.452 149.224 352.271 149.455 352.32 149.702C352.485 150.821 352.633 151.99 352.732 153.176C352.748 153.406 352.946 153.587 353.193 153.587C353.209 153.587 353.225 153.587 353.242 153.587C353.489 153.554 353.67 153.34 353.653 153.093C353.505 151.891 353.374 150.722 353.209 149.57ZM0.954708 144.812C0.707801 144.795 0.477354 144.976 0.460893 145.223C0.362131 146.376 0.279828 147.561 0.213986 148.747C0.197526 148.994 0.395052 149.208 0.641959 149.224C0.658419 149.224 0.658419 149.224 0.67488 149.224C0.921787 149.224 1.11931 149.043 1.13577 148.796C1.20162 147.611 1.28392 146.442 1.36622 145.306C1.38268 145.059 1.20162 144.828 0.954708 144.812ZM352.6 146.079C352.37 144.911 352.09 143.742 351.793 142.622C351.728 142.375 351.481 142.227 351.234 142.293C350.987 142.359 350.839 142.606 350.905 142.853C351.201 143.956 351.464 145.092 351.695 146.261C351.744 146.475 351.925 146.623 352.139 146.623C352.172 146.623 352.205 146.623 352.238 146.606C352.485 146.573 352.649 146.326 352.6 146.079ZM1.76127 137.814C1.51436 137.782 1.28392 137.946 1.251 138.193C1.08639 139.329 0.938247 140.515 0.806564 141.7C0.773643 141.947 0.954708 142.177 1.20162 142.21C1.21808 142.21 1.23454 142.21 1.251 142.21C1.48144 142.21 1.67897 142.029 1.69543 141.799C1.82711 140.63 1.97526 139.461 2.13986 138.325C2.17278 138.094 2.00818 137.847 1.76127 137.814ZM350.773 139.23C350.394 138.094 349.966 136.991 349.522 135.905C349.423 135.674 349.16 135.559 348.929 135.658C348.699 135.756 348.584 136.02 348.682 136.25C349.127 137.304 349.538 138.407 349.917 139.51C349.983 139.708 350.164 139.823 350.345 139.823C350.394 139.823 350.444 139.823 350.493 139.79C350.723 139.724 350.855 139.477 350.773 139.23ZM3.04519 130.9C2.79828 130.85 2.55137 130.998 2.50199 131.245C2.25509 132.365 2.00818 133.534 1.79419 134.719C1.74481 134.966 1.90942 135.213 2.15632 135.246C2.18924 135.246 2.2057 135.246 2.23863 135.246C2.45261 135.246 2.65014 135.098 2.68306 134.867C2.89704 133.698 3.12749 132.546 3.3744 131.443C3.4567 131.196 3.2921 130.949 3.04519 130.9ZM348.024 132.694C347.497 131.657 346.921 130.603 346.296 129.582C346.164 129.368 345.884 129.302 345.67 129.434C345.456 129.566 345.39 129.846 345.522 130.06C346.131 131.064 346.691 132.085 347.217 133.106C347.3 133.27 347.464 133.353 347.629 133.353C347.695 133.353 347.761 133.336 347.826 133.303C348.04 133.188 348.139 132.908 348.024 132.694ZM4.93814 124.116C4.69124 124.034 4.44433 124.166 4.36203 124.413C3.9999 125.516 3.67069 126.652 3.35794 127.804C3.2921 128.051 3.44024 128.298 3.68715 128.364C3.72007 128.38 3.76945 128.38 3.80237 128.38C3.9999 128.38 4.18096 128.249 4.2468 128.051C4.55955 126.915 4.88876 125.779 5.23443 124.693C5.30027 124.462 5.16859 124.199 4.93814 124.116ZM344.37 126.602C343.728 125.664 343.036 124.725 342.279 123.738C342.131 123.54 341.835 123.507 341.637 123.655C341.44 123.803 341.407 124.1 341.555 124.297C342.312 125.269 342.987 126.191 343.613 127.113C343.695 127.244 343.843 127.31 343.991 127.31C344.073 127.31 344.172 127.277 344.254 127.228C344.468 127.096 344.518 126.816 344.37 126.602ZM340.074 120.988C339.481 120.264 338.888 119.572 338.329 118.897L337.818 118.288C337.654 118.09 337.374 118.074 337.176 118.239C336.979 118.403 336.963 118.683 337.127 118.881L337.637 119.49C338.197 120.165 338.79 120.856 339.382 121.581C339.465 121.696 339.596 121.745 339.728 121.745C339.827 121.745 339.925 121.713 340.024 121.647C340.205 121.466 340.238 121.186 340.074 120.988ZM7.52244 117.58C7.29199 117.481 7.02863 117.58 6.9134 117.81C6.43605 118.864 5.97515 119.967 5.54718 121.087C5.44842 121.317 5.5801 121.581 5.81055 121.68C5.85993 121.696 5.92577 121.712 5.97515 121.712C6.15622 121.712 6.33729 121.597 6.40313 121.416C6.8311 120.313 7.27553 119.226 7.75289 118.189C7.85165 117.959 7.75289 117.679 7.52244 117.58ZM335.58 115.571C334.773 114.551 334.082 113.645 333.473 112.789C333.325 112.575 333.045 112.525 332.831 112.674C332.617 112.822 332.568 113.102 332.716 113.316C333.325 114.188 334.033 115.11 334.856 116.148C334.938 116.263 335.086 116.312 335.218 116.312C335.316 116.312 335.415 116.279 335.498 116.213C335.712 116.065 335.744 115.769 335.58 115.571ZM10.9133 111.422C10.6993 111.291 10.4195 111.357 10.2878 111.571C9.6623 112.558 9.05326 113.579 8.49361 114.633C8.37838 114.847 8.46069 115.127 8.67467 115.259C8.74052 115.291 8.82282 115.308 8.88866 115.308C9.05326 115.308 9.20141 115.226 9.28371 115.061C9.84337 114.024 10.4359 113.019 11.045 112.048C11.1767 111.834 11.1273 111.554 10.9133 111.422ZM331.629 109.858C331.053 108.821 330.559 107.8 330.131 106.747C330.033 106.516 329.769 106.401 329.539 106.5C329.308 106.598 329.193 106.862 329.292 107.092C329.736 108.195 330.23 109.249 330.839 110.319C330.922 110.467 331.086 110.55 331.234 110.55C331.317 110.55 331.382 110.533 331.448 110.484C331.662 110.352 331.745 110.089 331.629 109.858ZM15.1436 105.808C14.9461 105.643 14.6663 105.66 14.5017 105.857C13.728 106.747 12.9873 107.685 12.2795 108.64C12.1314 108.838 12.1808 109.134 12.3783 109.282C12.4606 109.348 12.5593 109.364 12.6581 109.364C12.7898 109.364 12.9379 109.299 13.0202 109.183C13.7116 108.245 14.4358 107.339 15.193 106.467C15.3576 106.269 15.3412 105.973 15.1436 105.808ZM20.1641 100.885C19.9995 100.688 19.7032 100.671 19.5221 100.836C18.6168 101.626 17.7444 102.433 16.9214 103.256C16.7403 103.437 16.7403 103.717 16.9214 103.898C17.0037 103.981 17.1189 104.03 17.2506 104.03C17.3658 104.03 17.481 103.981 17.5798 103.898C18.3864 103.092 19.2423 102.285 20.1312 101.511C20.2958 101.363 20.3287 101.066 20.1641 100.885ZM329.292 100.046C329.308 99.7987 329.111 99.5846 328.864 99.5682C328.617 99.5517 328.403 99.7493 328.387 99.9962C328.337 100.951 328.304 101.741 328.304 102.4C328.304 102.828 328.321 103.223 328.337 103.569C328.354 103.816 328.551 103.997 328.798 103.997C328.815 103.997 328.815 103.997 328.831 103.997C329.078 103.981 329.275 103.767 329.259 103.52C329.243 103.19 329.226 102.828 329.226 102.416C329.21 101.758 329.243 100.984 329.292 100.046ZM25.7607 96.6211C25.6125 96.4071 25.3327 96.3577 25.1187 96.5058C24.0981 97.2138 23.1599 97.9053 22.2546 98.5968C22.057 98.745 22.0241 99.0413 22.1723 99.2389C22.2546 99.3541 22.4027 99.42 22.5344 99.42C22.6332 99.42 22.7319 99.3871 22.8142 99.3212C23.7031 98.6462 24.6249 97.9711 25.6454 97.2632C25.843 97.115 25.8923 96.8187 25.7607 96.6211ZM329.325 92.538C329.078 92.5215 328.864 92.7191 328.848 92.966C328.782 94.2338 328.699 95.4357 328.617 96.4729C328.601 96.7199 328.782 96.9504 329.045 96.9668C329.061 96.9668 329.061 96.9668 329.078 96.9668C329.308 96.9668 329.522 96.7857 329.539 96.5388C329.621 95.5015 329.703 94.2832 329.769 93.0154C329.769 92.7685 329.572 92.5544 329.325 92.538ZM31.67 92.7849C31.5383 92.5709 31.2585 92.505 31.0445 92.6368C30.1391 93.213 29.1021 93.8551 28.0651 94.5301C27.8511 94.6618 27.7853 94.9582 27.9334 95.1558C28.0157 95.2875 28.1639 95.3698 28.312 95.3698C28.3943 95.3698 28.4766 95.3369 28.5589 95.2875C29.5795 94.6289 30.6165 93.9704 31.5218 93.4106C31.7358 93.2789 31.8016 92.999 31.67 92.7849ZM37.5299 88.8994C37.3818 88.7018 37.1019 88.6524 36.8879 88.8006C36.0649 89.3933 35.1431 90.019 33.9909 90.7598C33.7769 90.8915 33.7111 91.1879 33.8592 91.3855C33.9415 91.5172 34.0897 91.5995 34.2378 91.5995C34.3201 91.5995 34.4024 91.583 34.4847 91.5337C35.6369 90.7763 36.5752 90.1507 37.4147 89.5415C37.6287 89.3933 37.678 89.1134 37.5299 88.8994ZM329.852 85.9358C329.835 85.6889 329.638 85.4913 329.374 85.4913C329.127 85.5078 328.93 85.7053 328.93 85.9688C328.963 86.7097 328.963 87.4835 328.963 88.2573C328.963 88.6524 328.963 89.064 328.946 89.4592C328.946 89.7061 329.144 89.9202 329.391 89.9202C329.638 89.9202 329.835 89.7226 329.852 89.4756C329.852 89.064 329.868 88.6524 329.868 88.2573C329.884 87.467 329.885 86.6932 329.852 85.9358ZM42.6656 84.1248C42.468 83.9601 42.1882 83.9766 42.0236 84.1742C41.7602 84.487 41.4804 84.7998 41.2006 85.0962C40.7232 85.6066 40.18 86.1334 39.6039 86.6438C39.4229 86.8084 39.4064 87.1048 39.571 87.2859C39.6533 87.3847 39.785 87.4341 39.9167 87.4341C40.0319 87.4341 40.1307 87.4011 40.213 87.3188C40.8055 86.792 41.3652 86.2487 41.859 85.7053C42.1388 85.3925 42.4351 85.0797 42.715 84.7504C42.8796 84.5693 42.8631 84.2894 42.6656 84.1248ZM329.621 82.396C329.506 81.1942 329.341 80.0087 329.144 78.8727C329.094 78.6257 328.864 78.4611 328.617 78.494C328.37 78.5434 328.206 78.7739 328.238 79.0209C328.436 80.124 328.601 81.2929 328.716 82.4784C328.749 82.7089 328.946 82.89 329.177 82.89C329.193 82.89 329.21 82.89 329.226 82.89C329.457 82.8735 329.638 82.643 329.621 82.396ZM46.6819 78.3458C46.4679 78.2141 46.1881 78.28 46.0564 78.494C45.398 79.5807 44.7725 80.5356 44.147 81.4247C43.9989 81.6222 44.0482 81.9186 44.2622 82.0667C44.3445 82.1161 44.4268 82.1491 44.5256 82.1491C44.6737 82.1491 44.8054 82.0832 44.9042 81.9515C45.5462 81.046 46.1716 80.0746 46.8465 78.9715C46.9618 78.7575 46.8959 78.4776 46.6819 78.3458ZM50.1222 72.2212C49.9082 72.1059 49.6284 72.1882 49.4967 72.4023L49.2662 72.8303C48.7889 73.7029 48.2951 74.6085 47.8012 75.4811C47.6696 75.6951 47.7519 75.975 47.9823 76.1067C48.0481 76.1396 48.1304 76.1726 48.2127 76.1726C48.3774 76.1726 48.5255 76.0903 48.6078 75.9421C49.1016 75.0695 49.5954 74.1639 50.0728 73.2749L50.3032 72.8468C50.4349 72.6163 50.3526 72.3364 50.1222 72.2212ZM328.37 75.3988C328.288 75.1189 328.222 74.8554 328.14 74.5756C327.893 73.7029 327.596 72.8468 327.284 71.9907C327.201 71.7602 326.938 71.6285 326.691 71.7272C326.461 71.8096 326.329 72.073 326.428 72.32C326.741 73.1432 327.02 73.9828 327.267 74.839C327.35 75.1024 327.415 75.3658 327.498 75.6457C327.547 75.8433 327.728 75.9915 327.942 75.9915C327.975 75.9915 328.024 75.9915 328.057 75.975C328.288 75.8927 328.436 75.6457 328.37 75.3988ZM53.6447 66.113C53.4307 65.9813 53.1509 66.0471 53.0192 66.2611C52.4431 67.1831 51.867 68.1875 51.225 69.307C51.0933 69.521 51.1756 69.8009 51.4061 69.9326C51.4719 69.9656 51.5542 69.9985 51.6365 69.9985C51.8011 69.9985 51.9493 69.9162 52.0316 69.768C52.6571 68.6484 53.2497 67.6606 53.8093 66.7551C53.9245 66.5246 53.8587 66.2447 53.6447 66.113ZM325.868 68.7308C325.341 67.6606 324.749 66.6234 324.123 65.619C323.992 65.405 323.712 65.3391 323.498 65.4709C323.284 65.6026 323.218 65.8825 323.35 66.0965C323.959 67.0679 324.535 68.0887 325.045 69.1259C325.127 69.2906 325.292 69.3729 325.457 69.3729C325.522 69.3729 325.588 69.3564 325.654 69.3235C325.901 69.2412 325.983 68.9613 325.868 68.7308ZM57.694 60.367C57.4965 60.2023 57.2166 60.2353 57.052 60.4493C56.3442 61.3548 55.6364 62.3097 54.9451 63.2976C54.7969 63.5116 54.8628 63.7915 55.0603 63.9397C55.1426 63.9891 55.2249 64.022 55.3237 64.022C55.4718 64.022 55.6035 63.9562 55.7023 63.8244C56.3771 62.8531 57.0685 61.8981 57.7763 61.0255C57.9244 60.8115 57.8915 60.5316 57.694 60.367ZM322.082 62.7049C321.967 62.5567 321.852 62.425 321.753 62.2768C321.128 61.503 320.453 60.7456 319.745 60.0048C319.564 59.8236 319.284 59.8236 319.103 59.9883C318.922 60.1694 318.922 60.4493 319.086 60.6304C319.778 61.3383 320.436 62.0792 321.045 62.8366C321.16 62.9683 321.259 63.1165 321.374 63.2482C321.473 63.3634 321.605 63.4293 321.737 63.4293C321.835 63.4293 321.934 63.3964 322.016 63.3305C322.197 63.1988 322.23 62.9024 322.082 62.7049ZM62.5005 55.2466C62.3358 55.0655 62.0396 55.049 61.8585 55.2301C61.0025 56.0369 60.1631 56.8766 59.3565 57.7492C59.1919 57.9303 59.1919 58.2266 59.3894 58.3913C59.4717 58.4736 59.5869 58.5065 59.7022 58.5065C59.8339 58.5065 59.9491 58.4571 60.0314 58.3583C60.8215 57.5022 61.6445 56.679 62.484 55.8887C62.6651 55.7076 62.6815 55.4277 62.5005 55.2466ZM317.144 57.5845C316.255 56.8272 315.317 56.0863 314.346 55.3783C314.148 55.2301 313.852 55.2795 313.704 55.4771C313.556 55.6747 313.605 55.971 313.803 56.1192C314.757 56.8107 315.679 57.5351 316.535 58.276C316.617 58.3583 316.733 58.3913 316.831 58.3913C316.963 58.3913 317.095 58.3419 317.177 58.2266C317.358 58.0291 317.342 57.7492 317.144 57.5845ZM311.383 53.4191C310.494 52.8758 309.556 52.3489 308.601 51.855C308.502 51.8056 308.387 51.7397 308.288 51.6903C308.058 51.5751 307.795 51.6574 307.679 51.8879C307.564 52.1184 307.646 52.3818 307.877 52.4971C307.976 52.5465 308.091 52.6123 308.19 52.6617C309.128 53.1557 310.033 53.666 310.922 54.2094C311.004 54.2588 311.07 54.2752 311.152 54.2752C311.301 54.2752 311.449 54.1929 311.548 54.0612C311.679 53.8307 311.597 53.5508 311.383 53.4191ZM68.0641 50.933C67.9159 50.719 67.6361 50.6696 67.4386 50.8013C66.451 51.4598 65.4798 52.1678 64.5745 52.8922C64.3769 53.0569 64.344 53.3368 64.4922 53.5343C64.5745 53.6496 64.7226 53.7154 64.8543 53.7154C64.9531 53.7154 65.0518 53.6825 65.1341 53.6167C66.0395 52.9087 66.9777 52.2172 67.9489 51.5586C68.1464 51.4269 68.1958 51.147 68.0641 50.933ZM305.111 50.1262C304.025 49.6323 302.939 49.1549 301.869 48.7103C301.638 48.6115 301.375 48.7268 301.276 48.9573C301.177 49.1878 301.293 49.4512 301.523 49.55C302.577 49.9781 303.663 50.4555 304.733 50.9495C304.799 50.9824 304.865 50.9988 304.93 50.9988C305.095 50.9988 305.26 50.9001 305.342 50.7354C305.441 50.5049 305.342 50.225 305.111 50.1262ZM74.1874 47.492C74.0722 47.2615 73.8088 47.1792 73.5784 47.2779C72.5084 47.8048 71.4549 48.3646 70.4509 48.9408C70.2369 49.0725 70.1546 49.336 70.2863 49.5665C70.3686 49.7146 70.5167 49.797 70.6813 49.797C70.7636 49.797 70.8295 49.7805 70.9118 49.7311C71.8994 49.1713 72.9364 48.6115 73.9899 48.1012C74.2038 47.9859 74.3026 47.706 74.1874 47.492ZM298.56 47.459C297.441 47.0639 296.305 46.7017 295.186 46.3889C294.939 46.323 294.692 46.4547 294.626 46.7017C294.56 46.9487 294.692 47.1956 294.939 47.2615C296.042 47.5743 297.161 47.9365 298.264 48.3152C298.313 48.3316 298.363 48.3481 298.412 48.3481C298.593 48.3481 298.774 48.2329 298.84 48.0353C298.922 47.7883 298.807 47.5414 298.56 47.459ZM80.7222 44.8742C80.6399 44.6272 80.393 44.512 80.1461 44.5778C79.0268 44.94 77.9075 45.3516 76.8211 45.8126C76.5906 45.9114 76.4754 46.1748 76.5742 46.4053C76.64 46.5864 76.8211 46.6852 77.0021 46.6852C77.068 46.6852 77.1174 46.6688 77.1832 46.6523C78.2531 46.2078 79.356 45.8126 80.4588 45.4504C80.6564 45.3846 80.788 45.1211 80.7222 44.8742ZM291.762 45.4833C290.626 45.2199 289.458 44.9894 288.289 44.7919C288.042 44.7425 287.811 44.9236 287.762 45.1705C287.713 45.4175 287.894 45.648 288.141 45.6974C289.293 45.895 290.445 46.1255 291.565 46.3889C291.597 46.3889 291.63 46.4053 291.663 46.4053C291.877 46.4053 292.058 46.2572 292.108 46.0431C292.157 45.7962 292.009 45.5492 291.762 45.4833ZM284.783 44.2815C283.647 44.1497 282.495 44.0345 281.26 43.9357C281.013 43.9192 280.783 44.1004 280.766 44.3638C280.75 44.6107 280.931 44.8412 281.194 44.8577C282.429 44.9565 283.565 45.0553 284.684 45.187C284.7 45.187 284.717 45.187 284.733 45.187C284.964 45.187 285.161 45.0224 285.178 44.7919C285.211 44.5449 285.03 44.3144 284.783 44.2815ZM277.738 43.7381C276.997 43.7052 276.273 43.6723 275.565 43.6394H275.516C275.071 43.6229 274.643 43.6064 274.232 43.59C273.985 43.5735 273.771 43.7711 273.754 44.018C273.738 44.265 273.935 44.479 274.182 44.4955C274.61 44.512 275.038 44.5284 275.483 44.5449H275.532C276.24 44.5778 276.964 44.6107 277.705 44.6437H277.721C277.968 44.6437 278.166 44.4461 278.182 44.2156C278.182 43.9686 277.985 43.7381 277.738 43.7381ZM87.5533 43.2113C87.5039 42.9643 87.2735 42.7997 87.0266 42.8491C85.8414 43.0631 84.6727 43.3265 83.5699 43.6064C83.323 43.6723 83.1748 43.9193 83.2407 44.1662C83.29 44.3802 83.4711 44.512 83.6851 44.512C83.718 44.512 83.7674 44.512 83.8003 44.4955C84.8867 44.2156 86.0389 43.9686 87.2076 43.7546C87.4216 43.7052 87.5862 43.4583 87.5533 43.2113ZM270.726 43.3759C269.409 43.2771 268.289 43.129 267.285 42.9479C267.038 42.8985 266.791 43.0631 266.759 43.3101C266.709 43.557 266.874 43.7875 267.121 43.8369C268.158 44.018 269.31 44.1662 270.66 44.2815C270.676 44.2815 270.693 44.2815 270.693 44.2815C270.923 44.2815 271.121 44.1004 271.154 43.8699C271.154 43.6064 270.972 43.3924 270.726 43.3759ZM94.0223 41.8777C92.7383 42.0094 91.6026 42.1411 90.5162 42.2893C90.2693 42.3222 90.0882 42.5527 90.1211 42.7997C90.1541 43.0302 90.3516 43.1948 90.5656 43.1948C90.582 43.1948 90.6149 43.1948 90.6314 43.1948C91.7013 43.0466 92.8536 42.9149 94.1046 42.7997C94.3515 42.7668 94.5325 42.5527 94.5161 42.3058C94.4996 42.0423 94.2692 41.8612 94.0223 41.8777ZM263.96 42.0423C263.466 41.8448 262.973 41.6307 262.495 41.4002C261.936 41.1203 261.392 40.824 260.849 40.5276C260.635 40.4124 260.355 40.4782 260.224 40.7087C260.109 40.9228 260.174 41.2027 260.405 41.3344C260.948 41.6307 261.508 41.9271 262.067 42.2234C262.561 42.4704 263.088 42.7009 263.615 42.9149C263.664 42.9314 263.73 42.9479 263.779 42.9479C263.96 42.9479 264.141 42.8326 264.207 42.6515C264.322 42.3881 264.207 42.1247 263.96 42.0423ZM101.051 41.285C100.343 41.3508 99.6517 41.4002 98.9439 41.4496H98.9275C98.4666 41.4826 98.0057 41.5319 97.5448 41.5649C97.2979 41.5813 97.1004 41.8118 97.1333 42.0588C97.1498 42.3058 97.3473 42.4869 97.5942 42.4869C97.6107 42.4869 97.6106 42.4869 97.6271 42.4869C98.088 42.4539 98.5489 42.4045 99.0098 42.3716H99.0263C99.7341 42.3222 100.442 42.2564 101.133 42.207C101.38 42.1905 101.578 41.96 101.545 41.713C101.512 41.4496 101.298 41.2685 101.051 41.285ZM108.524 40.9228C108.491 40.6758 108.261 40.4947 108.014 40.5441C106.944 40.7087 105.808 40.8404 104.541 40.9722C104.294 41.0051 104.113 41.2191 104.129 41.4661C104.162 41.6966 104.359 41.8777 104.573 41.8777C104.59 41.8777 104.606 41.8777 104.623 41.8777C105.89 41.746 107.043 41.5978 108.129 41.4332C108.392 41.4002 108.557 41.1697 108.524 40.9228ZM115.404 39.4081C115.339 39.1611 115.075 39.0294 114.845 39.0952C113.758 39.4081 112.623 39.688 111.454 39.9185C111.207 39.9678 111.042 40.2148 111.092 40.4618C111.141 40.6758 111.322 40.824 111.536 40.824C111.569 40.824 111.602 40.824 111.635 40.8075C112.82 40.5606 113.972 40.2807 115.075 39.9678C115.322 39.902 115.47 39.655 115.404 39.4081ZM257.886 38.733C256.915 38.0909 255.96 37.4159 255.055 36.7079C254.858 36.5598 254.578 36.5927 254.413 36.7903C254.265 36.9878 254.298 37.2677 254.495 37.4324C255.434 38.1568 256.405 38.8483 257.393 39.4904C257.475 39.5398 257.557 39.5727 257.639 39.5727C257.788 39.5727 257.936 39.4904 258.018 39.3587C258.15 39.1446 258.1 38.8647 257.886 38.733ZM121.972 36.922C121.873 36.6915 121.594 36.5927 121.363 36.6915C120.31 37.1689 119.223 37.6299 118.153 38.0251C117.923 38.1074 117.791 38.3708 117.89 38.6178C117.956 38.7989 118.137 38.9141 118.318 38.9141C118.367 38.9141 118.417 38.8977 118.483 38.8812C119.585 38.4696 120.688 38.0251 121.758 37.5147C121.972 37.4159 122.071 37.1525 121.972 36.922ZM128.128 33.5139C127.997 33.2999 127.717 33.234 127.503 33.3492C126.696 33.8267 125.84 34.3206 124.984 34.8146C124.82 34.9133 124.639 35.0121 124.474 35.1109C124.26 35.2262 124.178 35.5061 124.293 35.7366C124.375 35.8847 124.54 35.9671 124.688 35.9671C124.77 35.9671 124.836 35.9506 124.902 35.9177C125.083 35.8189 125.248 35.7201 125.429 35.6213C126.301 35.1274 127.141 34.6334 127.964 34.1395C128.178 34.0078 128.26 33.7279 128.128 33.5139ZM252.372 34.4853C251.549 33.7444 250.726 32.9541 249.854 32.0815C249.673 31.9004 249.393 31.9004 249.212 32.0815C249.031 32.2626 249.031 32.5425 249.212 32.7236C250.101 33.6127 250.94 34.4194 251.78 35.1768C251.862 35.2591 251.977 35.292 252.076 35.292C252.208 35.292 252.323 35.2426 252.421 35.1438C252.57 34.9298 252.553 34.6499 252.372 34.4853ZM134.038 29.6942C133.89 29.4802 133.61 29.4308 133.412 29.5789C132.441 30.254 131.486 30.8796 130.499 31.5053C130.285 31.637 130.219 31.9169 130.367 32.1309C130.449 32.2626 130.597 32.3449 130.746 32.3449C130.828 32.3449 130.91 32.3285 130.993 32.2791C131.98 31.637 132.951 30.9949 133.939 30.3198C134.12 30.1881 134.169 29.9082 134.038 29.6942ZM247.434 29.5296C246.924 28.9698 246.397 28.3935 245.887 27.8502C245.607 27.5539 245.343 27.241 245.064 26.9447C244.899 26.7636 244.603 26.7471 244.422 26.9118C244.241 27.0764 244.224 27.3727 244.389 27.5539C244.669 27.8502 244.948 28.163 245.212 28.4594C245.722 29.0192 246.249 29.5954 246.759 30.1552C246.841 30.254 246.973 30.3034 247.088 30.3034C247.204 30.3034 247.302 30.2704 247.401 30.1881C247.599 30.007 247.599 29.7107 247.434 29.5296ZM139.733 25.5782C139.585 25.3806 139.289 25.3312 139.091 25.4794C138.219 26.1379 137.264 26.8294 136.26 27.5703C136.062 27.7185 136.013 27.9984 136.161 28.2124C136.243 28.3441 136.392 28.3935 136.54 28.3935C136.638 28.3935 136.721 28.3606 136.803 28.3112C137.807 27.5868 138.762 26.8788 139.634 26.2203C139.832 26.0556 139.881 25.7757 139.733 25.5782ZM242.644 24.3598C241.755 23.4378 240.949 22.6146 240.142 21.8572C239.961 21.6761 239.665 21.6926 239.5 21.8737C239.319 22.0548 239.335 22.3512 239.516 22.5158C240.307 23.2732 241.113 24.0799 241.986 24.9854C242.068 25.0842 242.2 25.1336 242.315 25.1336C242.43 25.1336 242.545 25.0842 242.627 25.0019C242.825 24.8208 242.825 24.5409 242.644 24.3598ZM145.395 21.4127C145.247 21.2151 144.967 21.1658 144.753 21.2975C143.881 21.9231 142.976 22.5817 141.906 23.372C141.708 23.5201 141.659 23.8 141.807 24.0141C141.889 24.1293 142.037 24.1952 142.169 24.1952C142.268 24.1952 142.367 24.1622 142.449 24.1128C143.519 23.3226 144.424 22.664 145.28 22.0548C145.494 21.9066 145.544 21.6103 145.395 21.4127ZM237.508 19.4864C236.603 18.7291 235.648 17.9882 234.71 17.2967C234.512 17.1485 234.216 17.1979 234.068 17.3955C233.92 17.593 233.969 17.8894 234.167 18.0376C235.089 18.7126 236.027 19.437 236.916 20.1779C236.998 20.2438 237.113 20.2767 237.212 20.2767C237.344 20.2767 237.475 20.2273 237.558 20.112C237.722 19.9474 237.689 19.651 237.508 19.4864ZM151.272 17.5272C151.14 17.3131 150.86 17.2473 150.646 17.379C149.642 18.0046 148.671 18.6303 147.683 19.2888C147.469 19.437 147.42 19.7169 147.552 19.9145C147.634 20.0462 147.782 20.112 147.93 20.112C148.013 20.112 148.111 20.0791 148.177 20.0297C149.148 19.3712 150.12 18.7455 151.124 18.1199C151.338 18.0211 151.404 17.7412 151.272 17.5272ZM157.362 14.0038C157.247 13.7733 156.967 13.691 156.737 13.8227C156.589 13.905 156.424 13.9874 156.276 14.0697C155.387 14.5636 154.515 15.0575 153.659 15.5515C153.445 15.6832 153.362 15.9631 153.494 16.1771C153.576 16.3253 153.724 16.4076 153.889 16.4076C153.971 16.4076 154.054 16.3911 154.119 16.3417C154.959 15.8478 155.831 15.3539 156.72 14.86C156.868 14.7777 157.017 14.6953 157.165 14.613C157.395 14.4978 157.477 14.2179 157.362 14.0038ZM231.764 15.321C230.776 14.7118 229.739 14.1026 228.702 13.5428C228.471 13.4276 228.208 13.5099 228.076 13.7239C227.961 13.9544 228.044 14.2179 228.257 14.3496C229.294 14.9094 230.299 15.4856 231.27 16.0948C231.352 16.1442 231.434 16.1606 231.517 16.1606C231.665 16.1606 231.813 16.0783 231.912 15.9466C232.043 15.749 231.978 15.4527 231.764 15.321ZM163.831 11.2543C163.749 11.0238 163.486 10.8921 163.255 10.9744C162.103 11.386 161 11.8306 159.947 12.2751C159.716 12.3739 159.617 12.6373 159.716 12.8678C159.798 13.0489 159.963 13.1477 160.128 13.1477C160.193 13.1477 160.243 13.1312 160.309 13.1148C161.329 12.6702 162.416 12.2422 163.551 11.8306C163.798 11.7482 163.913 11.4848 163.831 11.2543ZM225.525 11.9623C224.488 11.4848 223.385 11.0074 222.266 10.5628C222.035 10.464 221.772 10.5793 221.673 10.8098C221.575 11.0403 221.69 11.3037 221.92 11.4025C223.023 11.847 224.093 12.308 225.13 12.7855C225.196 12.8184 225.262 12.8349 225.328 12.8349C225.509 12.8349 225.673 12.7361 225.739 12.5715C225.854 12.341 225.755 12.0775 225.525 11.9623ZM170.58 9.26215C170.514 9.01519 170.267 8.86701 170.02 8.93287C168.852 9.22922 167.699 9.54204 166.613 9.87133C166.366 9.93718 166.234 10.2006 166.3 10.4311C166.366 10.6287 166.547 10.7604 166.745 10.7604C166.794 10.7604 166.827 10.7604 166.876 10.7439C167.963 10.4146 169.099 10.1018 170.251 9.82193C170.498 9.75608 170.646 9.50911 170.58 9.26215ZM218.957 9.32801C218.513 9.17983 218.052 9.01519 217.591 8.86701C216.949 8.65298 216.274 8.45541 215.566 8.25784C215.32 8.19198 215.073 8.34016 215.007 8.57065C214.941 8.81762 215.089 9.06458 215.32 9.13044C215.994 9.31154 216.669 9.52558 217.295 9.72315C217.756 9.87133 218.2 10.0195 218.645 10.1841C218.694 10.2006 218.743 10.2171 218.793 10.2171C218.974 10.2171 219.155 10.1018 219.221 9.90425C219.319 9.65729 219.204 9.41033 218.957 9.32801ZM177.477 7.84623C177.428 7.59927 177.197 7.43463 176.95 7.46755C175.781 7.66512 174.613 7.89562 173.477 8.12612C173.23 8.17551 173.066 8.42248 173.131 8.66944C173.181 8.88347 173.362 9.03165 173.576 9.03165C173.609 9.03165 173.642 9.03165 173.675 9.01519C174.794 8.78469 175.963 8.55419 177.115 8.35662C177.345 8.34016 177.51 8.09319 177.477 7.84623ZM212.126 7.41816C211.007 7.18766 209.838 6.99009 208.637 6.80899C208.39 6.77606 208.159 6.9407 208.11 7.18766C208.077 7.43463 208.242 7.66512 208.488 7.71452C209.674 7.89562 210.826 8.09319 211.929 8.32369C211.962 8.32369 211.995 8.34016 212.027 8.34016C212.241 8.34016 212.423 8.19198 212.472 7.97794C212.538 7.71452 212.373 7.46755 212.126 7.41816ZM184.456 6.92424C184.423 6.67727 184.209 6.49617 183.962 6.51263C182.794 6.62788 181.609 6.77606 180.456 6.9407C180.209 6.97363 180.028 7.20413 180.061 7.45109C180.094 7.68159 180.292 7.84623 180.506 7.84623C180.522 7.84623 180.555 7.84623 180.571 7.84623C181.724 7.69805 182.892 7.54988 184.045 7.43463C184.292 7.4017 184.473 7.1712 184.456 6.92424ZM205.114 6.38092C203.978 6.26567 202.777 6.16688 201.592 6.10103C201.345 6.08456 201.131 6.28213 201.114 6.5291C201.098 6.77606 201.295 6.99009 201.542 7.00656C202.727 7.07241 203.896 7.1712 205.032 7.28645C205.048 7.28645 205.065 7.28645 205.081 7.28645C205.312 7.28645 205.509 7.10534 205.542 6.87484C205.558 6.62788 205.377 6.39738 205.114 6.38092ZM190.991 6.01871C189.822 6.0681 188.637 6.13396 187.468 6.21628C187.222 6.23274 187.024 6.44678 187.04 6.7102C187.057 6.95717 187.254 7.13827 187.501 7.13827H187.534C188.687 7.05595 189.872 6.99009 191.04 6.9407C191.287 6.92424 191.485 6.7102 191.485 6.46324C191.468 6.19981 191.254 6.00224 190.991 6.01871ZM198.069 5.95285C197.246 5.93639 196.39 5.91992 195.551 5.91992C195.221 5.91992 194.876 5.91992 194.53 5.91992C194.283 5.91992 194.069 6.13396 194.086 6.38092C194.086 6.62788 194.3 6.84192 194.546 6.82545C194.876 6.82545 195.205 6.82545 195.534 6.82545C196.374 6.82545 197.213 6.84192 198.053 6.85838H198.069C198.316 6.85838 198.513 6.66081 198.53 6.41385C198.513 6.16688 198.316 5.95285 198.069 5.95285Z" fill="#FFE7EB"/>
<path d="M331.775 214.668C331.479 215.014 331.166 215.359 330.87 215.705H329.816C329.816 215.59 329.849 215.475 329.932 215.376C330.31 214.948 330.705 214.52 331.084 214.076C331.248 213.878 331.528 213.862 331.726 214.026C331.923 214.191 331.94 214.487 331.775 214.668Z" fill="#FFE7EB"/>
<path d="M34.5691 215.707C34.5691 215.707 3.88672 200.231 3.88672 157.276C3.88672 100.886 31.7379 101.001 44.0503 87.7473C54.7825 76.1894 55.3751 59.3959 77.4321 49.7808C94.2712 42.4378 108.608 48.6284 126.896 38.2065C140.937 30.2049 144.031 25.3151 158.154 17.4616C172.277 9.60823 201.017 7.48435 216.359 12.5389C242.35 21.1167 240.934 34.7984 260.736 44.8416C271.518 50.3242 284.39 43.508 306.792 55.2634C334.693 69.9001 323.171 97.6916 325.706 105.891C331.319 124.1 351.351 126.422 350.051 164.981C349.112 192.525 325.525 215.674 325.525 215.674H34.5691V215.707Z" fill="#FBF0F4"/>
<path d="M25.0686 215.707C25.0686 215.707 15.9166 210.438 18.9782 198.436C20.7724 191.373 28.1796 186.219 35.4387 186.878C35.4387 186.878 24.476 167.187 42.3521 158.872C62.9277 149.307 67.8658 170.479 67.8658 170.479C70.9275 167.796 75.6517 167.187 79.3059 168.981C82.9601 170.792 85.3304 174.908 85.0671 178.975C85.0671 178.975 91.2233 175.205 99.3054 178.679C103.766 180.605 106.943 185.972 105.099 190.467C110.334 187.01 120.539 188.656 126.416 196.641C132.128 204.412 129.708 215.707 129.708 215.707H25.0686Z" fill="#B4ACC6"/>
<path d="M196.319 228.138C186.472 230.048 175.996 229.926 170.473 228.626C157.053 225.478 144.202 214.429 138.476 201.898C134.923 194.1 132.406 177.507 138.192 170.094C143.532 163.27 155.693 154.13 164.89 156.831C171.103 158.659 176.402 165.504 181.376 169.342C191.141 176.877 202.348 183.173 210.652 192.414C214.632 196.841 218.895 202.812 219.423 209.068C220.337 219.974 208.825 225.722 196.319 228.138Z" fill="#DFE2EA"/>
<path d="M181.029 230.413C180.826 230.413 180.603 230.413 180.4 230.413C179.953 230.413 179.588 230.047 179.588 229.601C179.588 229.154 179.953 228.788 180.4 228.788C185.577 228.829 191.181 228.321 196.155 227.346C202.956 226.026 208.58 223.873 212.417 221.132C216.925 217.902 218.995 213.881 218.61 209.169C218.204 204.315 215.321 198.872 210.042 192.982C204.154 186.422 192.703 178.36 184.339 172.449C183.121 171.596 181.963 170.764 180.887 170.012C180.522 169.748 180.441 169.24 180.705 168.875C180.968 168.509 181.476 168.428 181.841 168.692C182.897 169.444 184.054 170.256 185.273 171.129C193.698 177.06 205.251 185.204 211.24 191.906C216.762 198.06 219.787 203.828 220.214 209.047C220.66 214.368 218.346 218.898 213.351 222.472C209.331 225.356 203.484 227.61 196.439 228.971C191.587 229.885 186.125 230.413 181.029 230.413Z" fill="#5D7183"/>
<path d="M144.363 242.823C132.689 241.625 121.36 238.091 110.701 233.298C106.112 231.246 86.3578 221.904 101.382 219.589C105.666 218.939 110.335 219.954 114.457 219.873C122.151 219.71 129.948 220.096 137.622 219.446C130.009 219.487 114.639 219.203 107.29 217.192C87.9414 211.912 78.2367 189.205 83.3733 170.053C85.566 161.909 109.198 168.794 115.228 169.708C127.146 171.495 138.901 173.506 150.393 177.365C171.67 184.494 206.266 215.649 177.294 235.938C167.995 242.437 156.321 244.041 144.363 242.823Z" fill="#DFE2EA"/>
<path d="M151.57 243.999C149.214 243.999 146.798 243.877 144.281 243.613C133.5 242.517 122.09 239.287 110.375 234.007C108.426 233.134 104.67 231.367 101.381 229.336C96.7929 226.513 94.7829 224.279 95.0469 222.309C95.2905 220.521 97.3208 219.364 101.26 218.754C103.939 218.348 106.741 218.572 109.441 218.795C110.538 218.876 111.573 218.978 112.609 219.018C110.538 218.734 108.629 218.389 107.066 217.962C98.4171 215.606 91.0879 209.615 86.3979 201.105C81.9313 192.981 80.2462 183.436 81.6674 174.195C81.7283 173.748 82.1547 173.444 82.6013 173.525C83.048 173.586 83.3525 174.012 83.2713 174.459C81.9313 183.213 83.5962 192.636 87.8191 200.334C92.2857 208.457 99.2698 214.164 107.492 216.419C113.847 218.165 127.227 218.714 137.601 218.653C138.028 218.653 138.393 218.998 138.413 219.425C138.434 219.851 138.109 220.237 137.662 220.278C132.668 220.684 127.552 220.684 122.618 220.663C119.938 220.663 117.157 220.643 114.456 220.704C112.791 220.745 111.005 220.603 109.299 220.46C106.68 220.257 104 220.034 101.483 220.42C97.2802 221.07 96.6914 222.146 96.6305 222.573C96.4072 224.238 100.772 227.975 111.005 232.565C122.577 237.764 133.805 240.953 144.423 242.029C146.88 242.273 149.255 242.395 151.529 242.395C161.559 242.395 170.025 240.019 176.786 235.266C183.892 230.29 187.505 224.36 187.526 217.637C187.526 212.357 185.374 206.711 181.069 200.882C177.313 195.784 172.096 190.808 165.985 186.482C165.619 186.218 165.538 185.711 165.781 185.345C166.045 184.979 166.553 184.898 166.918 185.142C173.172 189.549 178.511 194.647 182.369 199.907C186.876 206.02 189.15 211.991 189.13 217.617C189.109 224.888 185.272 231.265 177.699 236.566C170.695 241.521 161.924 243.999 151.57 243.999Z" fill="#5D7183"/>
<path d="M179.528 166.051C177.498 168.468 146.252 189.651 83.3744 170.052C80.2072 169.057 93.4039 128.539 94.3785 125.208C98.3375 111.662 103.129 98.1153 104.205 83.9392C104.855 75.4498 103.697 66.9807 100.733 58.999C96.8757 48.6411 88.6328 37.2271 91.3128 25.6303C92.4294 20.8169 95.6778 16.5722 99.9617 14.1351C110.418 8.20468 122.417 14.1351 129.766 22.1574C145.216 39.0144 150.861 61.7002 159.51 82.2738C164.26 93.5863 168.037 105.325 171.529 117.064C180.401 146.858 179.528 166.051 179.528 166.051Z" fill="white"/>
<path d="M92.307 59.1826C96.3675 62.6149 103.839 61.0917 107.412 56.0955C110.985 51.0993 109.869 43.7473 105.138 41.2695C107.899 41.8788 111.168 40.8024 113.401 38.548C115.635 36.2936 116.751 32.9629 116.224 30.0992C119.533 32.0083 124.446 31.0944 127.532 27.9667C130.618 24.839 131.613 19.8022 129.806 16.3902C127.999 12.9579 123.553 11.4753 119.594 12.9579C122.314 9.97237 122.457 5.19961 120.183 2.51874C117.909 -0.162133 113.686 -0.690183 110.092 0.873657C106.499 2.4375 103.616 5.84951 102.255 9.58648C100.144 6.27602 95.0276 5.6058 91.3934 8.16481C87.7592 10.7238 86.2162 16.1059 88.1043 19.5585C84.2265 19.2945 79.9223 22.1988 78.3793 26.1388C76.8363 30.0789 78.2169 34.5876 81.506 36.3546C77.689 38.7511 75.8821 44.255 77.7297 47.8498C79.5772 51.4446 84.7544 52.4601 88.551 50.0026C87.7186 54.1458 89.1398 57.0704 92.307 59.1826Z" fill="#FE5D7C"/>
<path d="M132.913 179.111C130.192 179.111 127.411 179.03 124.589 178.847C111.554 178.035 97.6065 175.334 83.1306 170.825C82.9073 170.764 82.5825 170.581 82.3591 170.155C81.7907 169.058 81.6689 165.93 85.7294 151.125C88.1657 142.29 91.2111 132.521 92.6932 127.85C93.1399 126.428 93.4647 125.392 93.5865 124.966C94.2971 122.549 95.028 120.071 95.7589 117.695C99.0683 106.748 102.499 95.4154 103.372 83.8592C104.022 75.3698 102.865 67.1037 99.9413 59.2642C98.9464 56.6037 97.6877 53.9025 96.3274 51.0592C92.4496 42.8134 88.4296 34.2834 90.4802 25.4284C91.6172 20.4526 95.0077 15.9641 99.5352 13.4051C104.53 10.5821 110.296 10.1353 116.265 12.1256C121.3 13.8113 126.294 17.1624 130.355 21.5899C142.191 34.5271 148.384 50.9779 154.373 66.8803C156.241 71.8562 158.19 77.0148 160.261 81.9501C165.296 93.9531 169.173 106.301 172.32 116.822C176.929 132.277 178.858 144.829 179.69 152.648C180.157 157.075 180.32 160.487 180.36 162.579C180.462 166.215 180.34 166.357 180.198 166.56C180.198 166.58 180.178 166.58 180.178 166.601C179.284 167.677 171.183 173.831 154.454 177.121C147.693 178.441 140.486 179.111 132.913 179.111ZM83.7803 169.322C98.0734 173.77 111.839 176.43 124.69 177.223C135.166 177.872 145.074 177.304 154.109 175.516C169.336 172.511 177.274 167.088 178.716 165.727C178.777 163.189 178.898 144.768 170.737 117.289C167.61 106.809 163.753 94.5014 158.738 82.5797C156.647 77.6241 154.718 72.4452 152.83 67.449C146.901 51.6888 140.77 35.3801 129.157 22.7069C125.279 18.4825 120.528 15.2736 115.757 13.6895C110.255 11.8616 104.915 12.2475 100.347 14.8471C96.2259 17.1827 93.1196 21.2852 92.0841 25.8143C90.1757 34.1209 94.0535 42.3869 97.8095 50.3889C99.1698 53.2729 100.449 55.9944 101.464 58.7159C104.469 66.7585 105.667 75.2682 104.997 84.0014C104.103 95.7403 100.652 107.154 97.3222 118.182C96.6116 120.559 95.8604 123.016 95.1498 125.433C95.028 125.859 94.7235 126.855 94.2565 128.337C92.7744 133.049 89.7087 142.838 87.2927 151.673C83.4149 165.788 83.557 168.733 83.7803 169.322Z" fill="#5D7183"/>
<path d="M126.965 90.1134C119.96 90.1134 112.61 88.3668 105.789 85.0157C105.383 84.8126 105.22 84.3252 105.423 83.919C105.626 83.5128 106.114 83.3503 106.52 83.5534C114.966 87.6762 124.203 89.301 132.527 88.0824C141.643 86.7623 149.399 81.9896 153.257 75.3483C153.48 74.9624 153.987 74.8203 154.373 75.0437C154.759 75.2671 154.901 75.7748 154.678 76.1607C150.577 83.2284 142.395 88.2855 132.791 89.6666C130.842 89.9915 128.914 90.1134 126.965 90.1134Z" fill="#5D7183"/>
<path d="M135.287 56.3992C134.495 56.3992 133.703 56.1961 133.013 55.7696C132.627 55.5258 132.505 55.0384 132.749 54.6525C132.993 54.2666 133.48 54.1448 133.866 54.3885C134.799 54.9572 136.119 54.8962 136.992 54.2057C137.865 53.5152 138.251 52.2763 137.906 51.2202C137.764 50.7937 138.007 50.3266 138.434 50.2047C138.86 50.0626 139.327 50.3063 139.449 50.7328C139.997 52.4388 139.388 54.3885 137.987 55.5055C137.216 56.0945 136.261 56.3992 135.287 56.3992Z" fill="#5D7183"/>
<path d="M138.8 195.379C138.759 195.379 138.739 195.379 138.698 195.379C134.009 194.79 129.4 193.389 124.994 191.236C118.944 188.271 113.868 184.148 109.483 178.624C105.707 173.872 102.539 168.144 99.7985 161.178C93.525 145.215 92.5301 128.358 96.9764 113.714C97.0982 113.288 97.5652 113.044 97.9916 113.166C98.4179 113.288 98.6616 113.755 98.5397 114.182C94.195 128.48 95.1695 144.951 101.321 160.569C104.001 167.393 107.087 172.978 110.762 177.609C114.985 182.93 119.878 186.91 125.705 189.774C129.948 191.846 134.394 193.206 138.901 193.775C139.348 193.836 139.653 194.242 139.612 194.689C139.551 195.095 139.206 195.379 138.8 195.379Z" fill="#5D7183"/>
<path d="M178.088 92.3677C175.286 92.3677 172.525 91.9209 169.987 91.0679C164.668 89.24 160.506 85.6858 157.968 80.7506C157.765 80.3444 157.927 79.857 158.313 79.6539C158.719 79.4508 159.206 79.6133 159.409 79.9991C161.764 84.5485 165.602 87.8386 170.515 89.5243C175.103 91.0882 180.402 91.1491 185.458 89.6868C197.03 86.3154 205.314 74.942 204.765 63.2437C204.156 50.3268 197.578 37.5723 187.204 29.1642C180.93 24.0664 173.296 20.7763 165.175 19.6389C156.912 18.4813 148.689 19.6593 141.421 23.0103C138.802 24.2289 136.305 25.6912 134.011 27.3769C132.285 28.6361 130.6 30.0578 129.869 31.9872C129.706 32.4137 129.239 32.6168 128.833 32.4543C128.407 32.2918 128.204 31.8247 128.366 31.4185C129.239 29.0829 131.229 27.3972 133.056 26.0568C135.452 24.3102 138.03 22.7869 140.751 21.5277C148.324 18.0345 156.851 16.8159 165.419 18.0142C173.844 19.1921 181.742 22.6041 188.239 27.8846C198.979 36.5772 205.76 49.7581 206.41 63.1422C206.694 69.2553 204.745 75.4701 200.908 80.649C197.132 85.7468 191.812 89.504 185.925 91.2304C183.346 91.9818 180.686 92.3677 178.088 92.3677Z" fill="#5D7183"/>
<path d="M131.349 102.484C122.476 102.484 112.163 101.163 105.016 97.3249C104.63 97.1218 104.468 96.614 104.691 96.2282C104.894 95.8423 105.402 95.6798 105.788 95.9032C114.802 100.757 129.217 101.427 138.82 100.534C139.185 100.493 139.531 100.453 139.713 100.31C139.957 100.128 140.079 99.7011 140.18 99.3152C140.871 96.6344 141.236 93.8723 141.256 91.1101C141.256 90.7852 141.459 90.5009 141.744 90.379C142.028 90.2571 142.373 90.3181 142.617 90.5212L148.119 95.558C148.484 95.9032 148.829 96.1875 149.134 96.2282C149.438 96.2688 149.824 96.0657 150.19 95.8829C153.621 94.0347 156.727 91.6585 159.407 88.7745C159.711 88.4496 160.219 88.4293 160.564 88.7339C160.889 89.0386 160.909 89.5463 160.605 89.8916C157.803 92.8974 154.555 95.3955 150.961 97.3249C150.393 97.6295 149.723 97.9545 148.951 97.8529C148.098 97.7514 147.449 97.1624 147.022 96.7765L142.82 92.9177C142.678 95.2127 142.332 97.5077 141.764 99.7417C141.601 100.412 141.358 101.143 140.708 101.631C140.14 102.057 139.449 102.118 138.982 102.159C136.648 102.362 134.069 102.484 131.349 102.484Z" fill="#5D7183"/>
<path d="M318.218 144.634C318.192 144.705 252.361 145.214 246.312 145.285C240.498 145.341 234.736 145.554 228.922 145.313C227.814 145.271 226.471 145.073 226.08 144.224C225.963 143.97 225.963 143.687 225.95 143.418C225.884 140.265 225.884 137.126 225.845 133.972C225.832 133.294 225.728 125.658 225.78 125.658C228.022 125.643 230.278 125.615 232.507 125.601C235.075 125.573 237.643 125.53 240.211 125.502C246.846 125.417 253.482 125.318 260.117 125.219C270.455 125.078 280.818 124.823 291.156 124.951C296.657 125.021 302.158 125.106 307.659 125.205C309.849 125.248 317.436 124.738 318.31 126.308C318.466 126.591 318.531 126.916 318.557 127.227C318.792 129.405 318.701 131.597 318.688 133.774C318.675 135.924 318.662 138.073 318.649 140.222C318.636 141.226 318.505 143.659 318.218 144.634Z" fill="white"/>
<path d="M234.871 145.979C232.889 145.979 230.882 145.95 228.9 145.865C227.74 145.823 226.136 145.625 225.615 144.451C225.446 144.084 225.446 143.716 225.433 143.419C225.393 141.51 225.38 139.573 225.367 137.706C225.354 136.476 225.354 135.218 225.328 133.973V133.902C225.315 133.393 225.289 131.343 225.276 129.42C225.263 128.317 225.263 127.44 225.25 126.818C225.25 125.432 225.25 125.432 225.406 125.248C225.498 125.135 225.641 125.079 225.771 125.079C227.975 125.065 230.204 125.05 232.355 125.022H232.498C235.066 124.994 237.634 124.951 240.202 124.923C243.448 124.881 246.694 124.838 249.94 124.782C253.33 124.739 256.719 124.683 260.108 124.64C262.507 124.612 264.893 124.57 267.291 124.527C275.113 124.4 283.208 124.273 291.147 124.358C296.661 124.428 302.241 124.513 307.651 124.612C308.042 124.612 308.628 124.612 309.293 124.598C314.86 124.485 318.001 124.683 318.731 125.998C318.953 126.394 319.018 126.818 319.057 127.143C319.253 128.939 319.227 130.763 319.201 132.517C319.201 132.941 319.187 133.351 319.187 133.775L319.148 140.223C319.148 141.256 319.018 143.759 318.705 144.805C318.588 145.201 318.327 145.201 317.819 145.215C317.558 145.215 317.18 145.229 316.685 145.229C315.694 145.243 314.273 145.257 312.487 145.272C309.215 145.3 304.457 145.356 298.317 145.399C287.041 145.498 272.818 145.611 262.429 145.696C254.346 145.766 247.972 145.809 246.29 145.837C244.791 145.851 243.279 145.88 241.819 145.908C239.551 145.95 237.217 145.979 234.871 145.979ZM226.293 126.21C226.293 127.299 226.319 130.07 226.371 133.888V133.959C226.384 135.203 226.397 136.476 226.41 137.692C226.423 139.559 226.436 141.496 226.475 143.391C226.475 143.603 226.488 143.815 226.554 143.956C226.697 144.268 227.231 144.664 228.952 144.734C233.254 144.904 237.621 144.833 241.832 144.763C243.305 144.734 244.817 144.706 246.316 144.692C247.998 144.678 254.372 144.621 262.455 144.55C281.983 144.395 314.025 144.126 317.832 144.055C318.027 143.009 318.145 141.086 318.145 140.195V140.153L318.184 133.747C318.184 133.323 318.197 132.898 318.197 132.488C318.223 130.763 318.249 128.996 318.066 127.271C318.04 127.044 318.001 126.776 317.884 126.578C317.832 126.479 317.428 125.984 314.69 125.786C312.943 125.658 310.871 125.701 309.358 125.729C308.68 125.743 308.081 125.757 307.677 125.743C302.28 125.658 296.687 125.56 291.186 125.489C283.247 125.39 275.165 125.531 267.356 125.658C264.958 125.701 262.559 125.743 260.173 125.772C256.784 125.814 253.395 125.871 250.005 125.913C246.759 125.955 243.513 126.012 240.267 126.054C237.699 126.097 235.131 126.125 232.563 126.153H232.42C230.386 126.182 228.326 126.196 226.293 126.21Z" fill="#5D7183"/>
<path d="M225.782 118.135C225.352 118.135 225 117.753 225 117.287C225 116.82 225.352 116.438 225.782 116.438C227.985 116.424 252.597 116.099 260.119 116C260.549 116 260.901 116.368 260.914 116.834C260.914 117.301 260.575 117.683 260.145 117.697C254.631 117.768 228.116 118.121 225.782 118.135Z" fill="#FA758E"/>
<path d="M318.218 182.134C318.192 182.205 252.361 182.714 246.312 182.785C240.498 182.841 234.736 183.054 228.922 182.813C227.814 182.771 226.471 182.573 226.08 181.724C225.963 181.47 225.963 181.187 225.95 180.918C225.884 177.765 225.884 174.626 225.845 171.472C225.832 170.794 225.728 163.158 225.78 163.158C228.022 163.143 230.278 163.115 232.507 163.101C235.075 163.073 237.643 163.03 240.211 163.002C246.846 162.917 253.482 162.818 260.117 162.719C270.455 162.578 280.818 162.323 291.156 162.451C296.657 162.521 302.158 162.606 307.659 162.705C309.849 162.748 317.436 162.238 318.31 163.808C318.466 164.091 318.531 164.416 318.557 164.727C318.792 166.905 318.701 169.097 318.688 171.274C318.675 173.424 318.662 175.573 318.649 177.722C318.636 178.726 318.505 181.159 318.218 182.134Z" fill="white"/>
<path d="M234.871 183.479C232.889 183.479 230.882 183.45 228.9 183.365C227.74 183.323 226.136 183.125 225.615 181.951C225.446 181.584 225.446 181.216 225.433 180.919C225.393 179.01 225.38 177.073 225.367 175.206C225.354 173.976 225.354 172.718 225.328 171.473V171.402C225.315 170.893 225.289 168.843 225.276 166.92C225.263 165.817 225.263 164.94 225.25 164.318C225.25 162.932 225.25 162.932 225.406 162.748C225.498 162.635 225.641 162.579 225.771 162.579C227.975 162.565 230.217 162.55 232.381 162.522H232.485C235.053 162.494 237.621 162.451 240.189 162.423C243.435 162.381 246.681 162.338 249.927 162.282C253.317 162.239 256.706 162.183 260.095 162.14C262.494 162.112 264.879 162.07 267.278 162.027C275.1 161.9 283.182 161.773 291.134 161.858C296.635 161.928 302.228 162.013 307.625 162.112C308.029 162.112 308.602 162.112 309.28 162.098C314.847 161.985 317.988 162.183 318.718 163.498C318.94 163.894 319.005 164.318 319.044 164.643C319.24 166.439 319.214 168.263 319.188 170.017C319.188 170.441 319.174 170.851 319.174 171.275L319.135 177.723C319.135 178.756 319.005 181.259 318.692 182.305C318.575 182.701 318.314 182.701 317.806 182.715C317.545 182.715 317.167 182.729 316.672 182.729C315.681 182.743 314.247 182.757 312.461 182.772C309.189 182.8 304.405 182.856 298.252 182.899C286.949 182.998 272.714 183.111 262.311 183.196C254.281 183.266 247.946 183.309 246.277 183.323C244.791 183.337 243.266 183.365 241.806 183.394C239.551 183.45 237.217 183.479 234.871 183.479ZM226.293 163.71C226.293 164.799 226.319 167.57 226.371 171.388V171.459C226.384 172.703 226.397 173.976 226.41 175.192C226.423 177.059 226.436 178.996 226.475 180.891C226.475 181.103 226.488 181.315 226.554 181.456C226.697 181.768 227.231 182.164 228.952 182.234C233.254 182.404 237.621 182.333 241.845 182.263C243.305 182.234 244.83 182.206 246.316 182.192C247.985 182.178 254.333 182.121 262.35 182.065C281.918 181.909 314.012 181.64 317.819 181.57C318.014 180.523 318.132 178.6 318.132 177.709V177.667L318.171 171.261C318.171 170.837 318.184 170.413 318.184 170.003C318.21 168.277 318.236 166.51 318.053 164.785C318.027 164.558 317.988 164.29 317.871 164.092C317.819 163.993 317.415 163.498 314.677 163.3C312.93 163.173 310.857 163.215 309.345 163.243C308.667 163.257 308.068 163.272 307.664 163.257C302.254 163.173 296.661 163.074 291.173 163.003C283.234 162.904 275.152 163.045 267.343 163.173C264.945 163.215 262.546 163.257 260.16 163.286C256.771 163.328 253.382 163.385 249.992 163.427C246.746 163.47 243.5 163.526 240.254 163.569C237.686 163.597 235.118 163.639 232.55 163.668H232.446C230.399 163.682 228.34 163.696 226.293 163.71Z" fill="#5D7183"/>
<path d="M225.782 155.635C225.352 155.635 225 155.253 225 154.787C225 154.32 225.352 153.938 225.782 153.938C227.985 153.924 252.597 153.599 260.119 153.5H260.132C260.562 153.5 260.914 153.868 260.914 154.334C260.914 154.801 260.575 155.183 260.145 155.197C254.631 155.268 228.116 155.621 225.782 155.635Z" fill="#FA758E"/>
<path d="M312.525 99.2675C312.499 99.5478 247.33 101.27 241.336 101.51C235.584 101.711 229.871 102.431 224.12 101.63C223.021 101.47 221.692 100.829 221.308 97.8257C221.193 96.9446 221.18 95.9833 221.18 95.0622C221.116 84.1684 221.116 73.2747 221.078 62.381C221.065 60.018 220.963 33.5847 221.014 33.5847C223.238 33.5446 225.462 33.4645 227.673 33.3844C230.216 33.2643 232.76 33.1441 235.303 33.024C241.873 32.7036 248.442 32.3832 255.011 32.0628C265.249 31.5822 275.499 30.701 285.736 31.1015C291.181 31.3418 296.626 31.6623 302.07 31.9827C304.243 32.1028 311.758 30.3806 312.602 35.8275C312.755 36.8288 312.819 37.9502 312.844 39.0315C313.075 46.6011 312.985 54.1306 312.972 61.7001C312.959 69.1495 312.947 76.5989 312.934 84.0483C312.947 87.4926 312.806 95.9032 312.525 99.2675Z" fill="#FA758E"/>
<path d="M229.096 135.769C228.841 136.08 228.771 136.504 229.054 136.999C229.846 138.342 232.745 137.055 231.783 135.712C231.599 135.457 231.317 135.288 230.991 135.203C230.355 135.047 229.492 135.274 229.096 135.769Z" fill="#5D7183"/>
<path d="M240.366 135.769C240.111 136.08 240.04 136.504 240.323 136.999C241.115 138.342 244.015 137.055 243.053 135.712C242.869 135.457 242.586 135.288 242.261 135.203C241.638 135.047 240.776 135.274 240.366 135.769Z" fill="#5D7183"/>
<path d="M251.655 135.769C251.4 136.08 251.329 136.504 251.612 136.999C252.404 138.342 255.304 137.055 254.342 135.712C254.158 135.457 253.875 135.288 253.55 135.203C252.913 135.047 252.051 135.274 251.655 135.769Z" fill="#5D7183"/>
<path d="M260.031 48.6888C260.128 46.565 260.382 44.3929 261.474 42.5104C262.566 40.628 264.653 39.0673 267.052 39.0029C269.569 38.9225 271.87 40.5153 273.079 42.4622C274.289 44.4251 274.62 46.7098 274.796 48.9301C275.244 54.5293 274.952 60.1606 273.938 65.7115C273.333 68.9455 272.728 72.1794 272.007 75.3813C271.421 77.8912 271.304 81.8653 267.306 82.2193C266.311 82.2997 265.355 81.817 264.692 81.2056C262.313 79.0336 262.664 75.0112 262.313 72.2438C261.845 68.6076 261.552 64.9713 261.123 61.3351C260.616 57.2001 259.836 52.856 260.031 48.6888Z" fill="white"/>
<path d="M261.001 89.5452C260.962 91.2249 261.717 92.8655 263.348 93.9006C264.78 94.8186 266.529 95.092 268.2 94.9748C273.171 94.6428 274.483 89.2522 271.182 85.971C267.703 82.5335 261.101 84.2718 261.001 89.5452Z" fill="white"/>
</svg>
