<svg width="140" height="140" viewBox="0 0 140 140" fill="none" xmlns="http://www.w3.org/2000/svg">
<path d="M6.66667 0H0V6.66667H6.66667V0Z" fill="#003B6F"/>
<path d="M13.3327 0H6.66602V6.66667H13.3327V0Z" fill="#003B6F"/>
<path d="M19.9987 0H13.332V6.66667H19.9987V0Z" fill="#003B6F"/>
<path d="M26.6667 0H20V6.66667H26.6667V0Z" fill="#003B6F"/>
<path d="M33.3327 0H26.666V6.66667H33.3327V0Z" fill="#003B6F"/>
<path d="M39.9987 0H33.332V6.66667H39.9987V0Z" fill="#003B6F"/>
<path d="M46.6686 0H40.002V6.66667H46.6686V0Z" fill="#003B6F"/>
<path d="M73.3327 0H66.666V6.66667H73.3327V0Z" fill="#003B6F"/>
<path d="M86.6667 0H80V6.66667H86.6667V0Z" fill="#003B6F"/>
<path d="M99.9987 0H93.332V6.66667H99.9987V0Z" fill="#003B6F"/>
<path d="M106.665 0H99.998V6.66667H106.665V0Z" fill="#003B6F"/>
<path d="M113.335 0H106.668V6.66667H113.335V0Z" fill="#003B6F"/>
<path d="M120.001 0H113.334V6.66667H120.001V0Z" fill="#003B6F"/>
<path d="M126.667 0H120V6.66667H126.667V0Z" fill="#003B6F"/>
<path d="M133.335 0H126.668V6.66667H133.335V0Z" fill="#003B6F"/>
<path d="M140.001 0H133.334V6.66667H140.001V0Z" fill="#003B6F"/>
<path d="M6.66667 6.66602H0V13.3327H6.66667V6.66602Z" fill="#003B6F"/>
<path d="M46.6686 6.66602H40.002V13.3327H46.6686V6.66602Z" fill="#003B6F"/>
<path d="M86.6667 6.66602H80V13.3327H86.6667V6.66602Z" fill="#003B6F"/>
<path d="M99.9987 6.66602H93.332V13.3327H99.9987V6.66602Z" fill="#003B6F"/>
<path d="M140.001 6.66602H133.334V13.3327H140.001V6.66602Z" fill="#003B6F"/>
<path d="M6.66667 13.334H0V20.0007H6.66667V13.334Z" fill="#003B6F"/>
<path d="M19.9987 13.334H13.332V20.0007H19.9987V13.334Z" fill="#003B6F"/>
<path d="M26.6667 13.334H20V20.0007H26.6667V13.334Z" fill="#003B6F"/>
<path d="M33.3327 13.334H26.666V20.0007H33.3327V13.334Z" fill="#003B6F"/>
<path d="M46.6686 13.334H40.002V20.0007H46.6686V13.334Z" fill="#003B6F"/>
<path d="M60.0007 13.334H53.334V20.0007H60.0007V13.334Z" fill="#003B6F"/>
<path d="M73.3327 13.334H66.666V20.0007H73.3327V13.334Z" fill="#003B6F"/>
<path d="M99.9987 13.334H93.332V20.0007H99.9987V13.334Z" fill="#003B6F"/>
<path d="M113.335 13.334H106.668V20.0007H113.335V13.334Z" fill="#003B6F"/>
<path d="M120.001 13.334H113.334V20.0007H120.001V13.334Z" fill="#003B6F"/>
<path d="M126.667 13.334H120V20.0007H126.667V13.334Z" fill="#003B6F"/>
<path d="M140.001 13.334H133.334V20.0007H140.001V13.334Z" fill="#003B6F"/>
<path d="M6.66667 20H0V26.6667H6.66667V20Z" fill="#003B6F"/>
<path d="M19.9987 20H13.332V26.6667H19.9987V20Z" fill="#003B6F"/>
<path d="M26.6667 20H20V26.6667H26.6667V20Z" fill="#003B6F"/>
<path d="M33.3327 20H26.666V26.6667H33.3327V20Z" fill="#003B6F"/>
<path d="M46.6686 20H40.002V26.6667H46.6686V20Z" fill="#003B6F"/>
<path d="M86.6667 20H80V26.6667H86.6667V20Z" fill="#003B6F"/>
<path d="M99.9987 20H93.332V26.6667H99.9987V20Z" fill="#003B6F"/>
<path d="M113.335 20H106.668V26.6667H113.335V20Z" fill="#003B6F"/>
<path d="M120.001 20H113.334V26.6667H120.001V20Z" fill="#003B6F"/>
<path d="M126.667 20H120V26.6667H126.667V20Z" fill="#003B6F"/>
<path d="M140.001 20H133.334V26.6667H140.001V20Z" fill="#003B6F"/>
<path d="M6.66667 26.668H0V33.3346H6.66667V26.668Z" fill="#003B6F"/>
<path d="M19.9987 26.668H13.332V33.3346H19.9987V26.668Z" fill="#003B6F"/>
<path d="M26.6667 26.668H20V33.3346H26.6667V26.668Z" fill="#003B6F"/>
<path d="M33.3327 26.668H26.666V33.3346H33.3327V26.668Z" fill="#003B6F"/>
<path d="M46.6686 26.668H40.002V33.3346H46.6686V26.668Z" fill="#003B6F"/>
<path d="M66.6667 26.668H60V33.3346H66.6667V26.668Z" fill="#003B6F"/>
<path d="M80.0007 26.668H73.334V33.3346H80.0007V26.668Z" fill="#003B6F"/>
<path d="M86.6667 26.668H80V33.3346H86.6667V26.668Z" fill="#003B6F"/>
<path d="M99.9987 26.668H93.332V33.3346H99.9987V26.668Z" fill="#003B6F"/>
<path d="M113.335 26.668H106.668V33.3346H113.335V26.668Z" fill="#003B6F"/>
<path d="M120.001 26.668H113.334V33.3346H120.001V26.668Z" fill="#003B6F"/>
<path d="M126.667 26.668H120V33.3346H126.667V26.668Z" fill="#003B6F"/>
<path d="M140.001 26.668H133.334V33.3346H140.001V26.668Z" fill="#003B6F"/>
<path d="M6.66667 33.334H0V40.0007H6.66667V33.334Z" fill="#003B6F"/>
<path d="M46.6686 33.334H40.002V40.0007H46.6686V33.334Z" fill="#003B6F"/>
<path d="M66.6667 33.334H60V40.0007H66.6667V33.334Z" fill="#003B6F"/>
<path d="M73.3327 33.334H66.666V40.0007H73.3327V33.334Z" fill="#003B6F"/>
<path d="M80.0007 33.334H73.334V40.0007H80.0007V33.334Z" fill="#003B6F"/>
<path d="M99.9987 33.334H93.332V40.0007H99.9987V33.334Z" fill="#003B6F"/>
<path d="M140.001 33.334H133.334V40.0007H140.001V33.334Z" fill="#003B6F"/>
<path d="M6.66667 40H0V46.6667H6.66667V40Z" fill="#003B6F"/>
<path d="M13.3327 40H6.66602V46.6667H13.3327V40Z" fill="#003B6F"/>
<path d="M19.9987 40H13.332V46.6667H19.9987V40Z" fill="#003B6F"/>
<path d="M26.6667 40H20V46.6667H26.6667V40Z" fill="#003B6F"/>
<path d="M33.3327 40H26.666V46.6667H33.3327V40Z" fill="#003B6F"/>
<path d="M39.9987 40H33.332V46.6667H39.9987V40Z" fill="#003B6F"/>
<path d="M46.6686 40H40.002V46.6667H46.6686V40Z" fill="#003B6F"/>
<path d="M60.0007 40H53.334V46.6667H60.0007V40Z" fill="#003B6F"/>
<path d="M73.3327 40H66.666V46.6667H73.3327V40Z" fill="#003B6F"/>
<path d="M86.6667 40H80V46.6667H86.6667V40Z" fill="#003B6F"/>
<path d="M99.9987 40H93.332V46.6667H99.9987V40Z" fill="#003B6F"/>
<path d="M106.665 40H99.998V46.6667H106.665V40Z" fill="#003B6F"/>
<path d="M113.335 40H106.668V46.6667H113.335V40Z" fill="#003B6F"/>
<path d="M120.001 40H113.334V46.6667H120.001V40Z" fill="#003B6F"/>
<path d="M126.667 40H120V46.6667H126.667V40Z" fill="#003B6F"/>
<path d="M133.335 40H126.668V46.6667H133.335V40Z" fill="#003B6F"/>
<path d="M140.001 40H133.334V46.6667H140.001V40Z" fill="#003B6F"/>
<path d="M60.0007 46.666H53.334V53.3327H60.0007V46.666Z" fill="#003B6F"/>
<path d="M73.3327 46.666H66.666V53.3327H73.3327V46.666Z" fill="#003B6F"/>
<path d="M6.66667 53.334H0V60.0007H6.66667V53.334Z" fill="#003B6F"/>
<path d="M13.3327 53.334H6.66602V60.0007H13.3327V53.334Z" fill="#003B6F"/>
<path d="M19.9987 53.334H13.332V60.0007H19.9987V53.334Z" fill="#003B6F"/>
<path d="M33.3327 53.334H26.666V60.0007H33.3327V53.334Z" fill="#003B6F"/>
<path d="M39.9987 53.334H33.332V60.0007H39.9987V53.334Z" fill="#003B6F"/>
<path d="M46.6686 53.334H40.002V60.0007H46.6686V53.334Z" fill="#003B6F"/>
<path d="M53.3346 53.334H46.668V60.0007H53.3346V53.334Z" fill="#003B6F"/>
<path d="M60.0007 53.334H53.334V60.0007H60.0007V53.334Z" fill="#003B6F"/>
<path d="M73.3327 53.334H66.666V60.0007H73.3327V53.334Z" fill="#003B6F"/>
<path d="M86.6667 53.334H80V60.0007H86.6667V53.334Z" fill="#003B6F"/>
<path d="M93.3327 53.334H86.666V60.0007H93.3327V53.334Z" fill="#003B6F"/>
<path d="M99.9987 53.334H93.332V60.0007H99.9987V53.334Z" fill="#003B6F"/>
<path d="M126.667 53.334H120V60.0007H126.667V53.334Z" fill="#003B6F"/>
<path d="M6.66667 60H0V66.6667H6.66667V60Z" fill="#003B6F"/>
<path d="M19.9987 60H13.332V66.6667H19.9987V60Z" fill="#003B6F"/>
<path d="M39.9987 60H33.332V66.6667H39.9987V60Z" fill="#003B6F"/>
<path d="M60.0007 60H53.334V66.6667H60.0007V60Z" fill="#003B6F"/>
<path d="M73.3327 60H66.666V66.6667H73.3327V60Z" fill="#003B6F"/>
<path d="M80.0007 60H73.334V66.6667H80.0007V60Z" fill="#003B6F"/>
<path d="M93.3327 60H86.666V66.6667H93.3327V60Z" fill="#003B6F"/>
<path d="M106.665 60H99.998V66.6667H106.665V60Z" fill="#003B6F"/>
<path d="M120.001 60H113.334V66.6667H120.001V60Z" fill="#003B6F"/>
<path d="M133.335 60H126.668V66.6667H133.335V60Z" fill="#003B6F"/>
<path d="M19.9987 66.666H13.332V73.3327H19.9987V66.666Z" fill="#003B6F"/>
<path d="M33.3327 66.666H26.666V73.3327H33.3327V66.666Z" fill="#003B6F"/>
<path d="M46.6686 66.666H40.002V73.3327H46.6686V66.666Z" fill="#003B6F"/>
<path d="M66.6667 66.666H60V73.3327H66.6667V66.666Z" fill="#003B6F"/>
<path d="M80.0007 66.666H73.334V73.3327H80.0007V66.666Z" fill="#003B6F"/>
<path d="M93.3327 66.666H86.666V73.3327H93.3327V66.666Z" fill="#003B6F"/>
<path d="M99.9987 66.666H93.332V73.3327H99.9987V66.666Z" fill="#003B6F"/>
<path d="M106.665 66.666H99.998V73.3327H106.665V66.666Z" fill="#003B6F"/>
<path d="M120.001 66.666H113.334V73.3327H120.001V66.666Z" fill="#003B6F"/>
<path d="M126.667 66.666H120V73.3327H126.667V66.666Z" fill="#003B6F"/>
<path d="M133.335 66.666H126.668V73.3327H133.335V66.666Z" fill="#003B6F"/>
<path d="M13.3327 73.334H6.66602V80.0007H13.3327V73.334Z" fill="#003B6F"/>
<path d="M33.3327 73.334H26.666V80.0007H33.3327V73.334Z" fill="#003B6F"/>
<path d="M39.9987 73.334H33.332V80.0007H39.9987V73.334Z" fill="#003B6F"/>
<path d="M53.3346 73.334H46.668V80.0007H53.3346V73.334Z" fill="#003B6F"/>
<path d="M66.6667 73.334H60V80.0007H66.6667V73.334Z" fill="#003B6F"/>
<path d="M73.3327 73.334H66.666V80.0007H73.3327V73.334Z" fill="#003B6F"/>
<path d="M80.0007 73.334H73.334V80.0007H80.0007V73.334Z" fill="#003B6F"/>
<path d="M86.6667 73.334H80V80.0007H86.6667V73.334Z" fill="#003B6F"/>
<path d="M93.3327 73.334H86.666V80.0007H93.3327V73.334Z" fill="#003B6F"/>
<path d="M106.665 73.334H99.998V80.0007H106.665V73.334Z" fill="#003B6F"/>
<path d="M113.335 73.334H106.668V80.0007H113.335V73.334Z" fill="#003B6F"/>
<path d="M120.001 73.334H113.334V80.0007H120.001V73.334Z" fill="#003B6F"/>
<path d="M133.335 73.334H126.668V80.0007H133.335V73.334Z" fill="#003B6F"/>
<path d="M140.001 73.334H133.334V80.0007H140.001V73.334Z" fill="#003B6F"/>
<path d="M6.66667 80H0V86.6667H6.66667V80Z" fill="#003B6F"/>
<path d="M13.3327 80H6.66602V86.6667H13.3327V80Z" fill="#003B6F"/>
<path d="M26.6667 80H20V86.6667H26.6667V80Z" fill="#003B6F"/>
<path d="M33.3327 80H26.666V86.6667H33.3327V80Z" fill="#003B6F"/>
<path d="M39.9987 80H33.332V86.6667H39.9987V80Z" fill="#003B6F"/>
<path d="M46.6686 80H40.002V86.6667H46.6686V80Z" fill="#003B6F"/>
<path d="M53.3346 80H46.668V86.6667H53.3346V80Z" fill="#003B6F"/>
<path d="M66.6667 80H60V86.6667H66.6667V80Z" fill="#003B6F"/>
<path d="M73.3327 80H66.666V86.6667H73.3327V80Z" fill="#003B6F"/>
<path d="M80.0007 80H73.334V86.6667H80.0007V80Z" fill="#003B6F"/>
<path d="M93.3327 80H86.666V86.6667H93.3327V80Z" fill="#003B6F"/>
<path d="M99.9987 80H93.332V86.6667H99.9987V80Z" fill="#003B6F"/>
<path d="M106.665 80H99.998V86.6667H106.665V80Z" fill="#003B6F"/>
<path d="M120.001 80H113.334V86.6667H120.001V80Z" fill="#003B6F"/>
<path d="M126.667 80H120V86.6667H126.667V80Z" fill="#003B6F"/>
<path d="M133.335 80H126.668V86.6667H133.335V80Z" fill="#003B6F"/>
<path d="M60.0007 86.666H53.334V93.3327H60.0007V86.666Z" fill="#003B6F"/>
<path d="M66.6667 86.666H60V93.3327H66.6667V86.666Z" fill="#003B6F"/>
<path d="M73.3327 86.666H66.666V93.3327H73.3327V86.666Z" fill="#003B6F"/>
<path d="M99.9987 86.666H93.332V93.3327H99.9987V86.666Z" fill="#003B6F"/>
<path d="M126.667 86.666H120V93.3327H126.667V86.666Z" fill="#003B6F"/>
<path d="M133.335 86.666H126.668V93.3327H133.335V86.666Z" fill="#003B6F"/>
<path d="M6.66667 93.334H0V100.001H6.66667V93.334Z" fill="#003B6F"/>
<path d="M13.3327 93.334H6.66602V100.001H13.3327V93.334Z" fill="#003B6F"/>
<path d="M19.9987 93.334H13.332V100.001H19.9987V93.334Z" fill="#003B6F"/>
<path d="M26.6667 93.334H20V100.001H26.6667V93.334Z" fill="#003B6F"/>
<path d="M33.3327 93.334H26.666V100.001H33.3327V93.334Z" fill="#003B6F"/>
<path d="M39.9987 93.334H33.332V100.001H39.9987V93.334Z" fill="#003B6F"/>
<path d="M46.6686 93.334H40.002V100.001H46.6686V93.334Z" fill="#003B6F"/>
<path d="M60.0007 93.334H53.334V100.001H60.0007V93.334Z" fill="#003B6F"/>
<path d="M86.6667 93.334H80V100.001H86.6667V93.334Z" fill="#003B6F"/>
<path d="M113.335 93.334H106.668V100.001H113.335V93.334Z" fill="#003B6F"/>
<path d="M140.001 93.334H133.334V100.001H140.001V93.334Z" fill="#003B6F"/>
<path d="M6.66667 100H0V106.667H6.66667V100Z" fill="#003B6F"/>
<path d="M46.6686 100H40.002V106.667H46.6686V100Z" fill="#003B6F"/>
<path d="M60.0007 100H53.334V106.667H60.0007V100Z" fill="#003B6F"/>
<path d="M66.6667 100H60V106.667H66.6667V100Z" fill="#003B6F"/>
<path d="M73.3327 100H66.666V106.667H73.3327V100Z" fill="#003B6F"/>
<path d="M99.9987 100H93.332V106.667H99.9987V100Z" fill="#003B6F"/>
<path d="M126.667 100H120V106.667H126.667V100Z" fill="#003B6F"/>
<path d="M133.335 100H126.668V106.667H133.335V100Z" fill="#003B6F"/>
<path d="M6.66667 106.666H0V113.333H6.66667V106.666Z" fill="#003B6F"/>
<path d="M19.9987 106.666H13.332V113.333H19.9987V106.666Z" fill="#003B6F"/>
<path d="M26.6667 106.666H20V113.333H26.6667V106.666Z" fill="#003B6F"/>
<path d="M33.3327 106.666H26.666V113.333H33.3327V106.666Z" fill="#003B6F"/>
<path d="M46.6686 106.666H40.002V113.333H46.6686V106.666Z" fill="#003B6F"/>
<path d="M60.0007 106.666H53.334V113.333H60.0007V106.666Z" fill="#003B6F"/>
<path d="M86.6667 106.666H80V113.333H86.6667V106.666Z" fill="#003B6F"/>
<path d="M99.9987 106.666H93.332V113.333H99.9987V106.666Z" fill="#003B6F"/>
<path d="M113.335 106.666H106.668V113.333H113.335V106.666Z" fill="#003B6F"/>
<path d="M126.667 106.666H120V113.333H126.667V106.666Z" fill="#003B6F"/>
<path d="M140.001 106.666H133.334V113.333H140.001V106.666Z" fill="#003B6F"/>
<path d="M6.66667 113.332H0V119.999H6.66667V113.332Z" fill="#003B6F"/>
<path d="M19.9987 113.332H13.332V119.999H19.9987V113.332Z" fill="#003B6F"/>
<path d="M26.6667 113.332H20V119.999H26.6667V113.332Z" fill="#003B6F"/>
<path d="M33.3327 113.332H26.666V119.999H33.3327V113.332Z" fill="#003B6F"/>
<path d="M46.6686 113.332H40.002V119.999H46.6686V113.332Z" fill="#003B6F"/>
<path d="M66.6667 113.332H60V119.999H66.6667V113.332Z" fill="#003B6F"/>
<path d="M80.0007 113.332H73.334V119.999H80.0007V113.332Z" fill="#003B6F"/>
<path d="M93.3327 113.332H86.666V119.999H93.3327V113.332Z" fill="#003B6F"/>
<path d="M106.665 113.332H99.998V119.999H106.665V113.332Z" fill="#003B6F"/>
<path d="M120.001 113.332H113.334V119.999H120.001V113.332Z" fill="#003B6F"/>
<path d="M133.335 113.332H126.668V119.999H133.335V113.332Z" fill="#003B6F"/>
<path d="M6.66667 120H0V126.667H6.66667V120Z" fill="#003B6F"/>
<path d="M19.9987 120H13.332V126.667H19.9987V120Z" fill="#003B6F"/>
<path d="M26.6667 120H20V126.667H26.6667V120Z" fill="#003B6F"/>
<path d="M33.3327 120H26.666V126.667H33.3327V120Z" fill="#003B6F"/>
<path d="M46.6686 120H40.002V126.667H46.6686V120Z" fill="#003B6F"/>
<path d="M60.0007 120H53.334V126.667H60.0007V120Z" fill="#003B6F"/>
<path d="M73.3327 120H66.666V126.667H73.3327V120Z" fill="#003B6F"/>
<path d="M80.0007 120H73.334V126.667H80.0007V120Z" fill="#003B6F"/>
<path d="M93.3327 120H86.666V126.667H93.3327V120Z" fill="#003B6F"/>
<path d="M99.9987 120H93.332V126.667H99.9987V120Z" fill="#003B6F"/>
<path d="M106.665 120H99.998V126.667H106.665V120Z" fill="#003B6F"/>
<path d="M120.001 120H113.334V126.667H120.001V120Z" fill="#003B6F"/>
<path d="M126.667 120H120V126.667H126.667V120Z" fill="#003B6F"/>
<path d="M140.001 120H133.334V126.667H140.001V120Z" fill="#003B6F"/>
<path d="M6.66667 126.666H0V133.333H6.66667V126.666Z" fill="#003B6F"/>
<path d="M46.6686 126.666H40.002V133.333H46.6686V126.666Z" fill="#003B6F"/>
<path d="M60.0007 126.666H53.334V133.333H60.0007V126.666Z" fill="#003B6F"/>
<path d="M66.6667 126.666H60V133.333H66.6667V126.666Z" fill="#003B6F"/>
<path d="M80.0007 126.666H73.334V133.333H80.0007V126.666Z" fill="#003B6F"/>
<path d="M86.6667 126.666H80V133.333H86.6667V126.666Z" fill="#003B6F"/>
<path d="M93.3327 126.666H86.666V133.333H93.3327V126.666Z" fill="#003B6F"/>
<path d="M106.665 126.666H99.998V133.333H106.665V126.666Z" fill="#003B6F"/>
<path d="M113.335 126.666H106.668V133.333H113.335V126.666Z" fill="#003B6F"/>
<path d="M120.001 126.666H113.334V133.333H120.001V126.666Z" fill="#003B6F"/>
<path d="M133.335 126.666H126.668V133.333H133.335V126.666Z" fill="#003B6F"/>
<path d="M6.66667 133.334H0V140.001H6.66667V133.334Z" fill="#003B6F"/>
<path d="M13.3327 133.334H6.66602V140.001H13.3327V133.334Z" fill="#003B6F"/>
<path d="M19.9987 133.334H13.332V140.001H19.9987V133.334Z" fill="#003B6F"/>
<path d="M26.6667 133.334H20V140.001H26.6667V133.334Z" fill="#003B6F"/>
<path d="M33.3327 133.334H26.666V140.001H33.3327V133.334Z" fill="#003B6F"/>
<path d="M39.9987 133.334H33.332V140.001H39.9987V133.334Z" fill="#003B6F"/>
<path d="M46.6686 133.334H40.002V140.001H46.6686V133.334Z" fill="#003B6F"/>
<path d="M60.0007 133.334H53.334V140.001H60.0007V133.334Z" fill="#003B6F"/>
<path d="M66.6667 133.334H60V140.001H66.6667V133.334Z" fill="#003B6F"/>
<path d="M80.0007 133.334H73.334V140.001H80.0007V133.334Z" fill="#003B6F"/>
<path d="M93.3327 133.334H86.666V140.001H93.3327V133.334Z" fill="#003B6F"/>
<path d="M99.9987 133.334H93.332V140.001H99.9987V133.334Z" fill="#003B6F"/>
<path d="M106.665 133.334H99.998V140.001H106.665V133.334Z" fill="#003B6F"/>
<path d="M120.001 133.334H113.334V140.001H120.001V133.334Z" fill="#003B6F"/>
<path d="M126.667 133.334H120V140.001H126.667V133.334Z" fill="#003B6F"/>
<path d="M133.335 133.334H126.668V140.001H133.335V133.334Z" fill="#003B6F"/>
<path d="M140.001 133.334H133.334V140.001H140.001V133.334Z" fill="#003B6F"/>
</svg>
