<svg fill="none" height="60" viewBox="0 0 73 60" width="73" xmlns="http://www.w3.org/2000/svg" xmlns:xlink="http://www.w3.org/1999/xlink"><linearGradient id="a" gradientUnits="userSpaceOnUse" x1="36.0012" x2="36.0012" y1="0" y2="60.0001"><stop offset="0" stop-color="#eec800"/><stop offset=".46875" stop-color="#ee148a"/><stop offset="1" stop-color="#c728ff"/></linearGradient><path clip-rule="evenodd" d="m17.9885 36.7086c1.676 13.1322 13.081 23.2915 26.901 23.2915 14.9741 0 27.113-11.9269 27.113-26.6394 0-14.7126-12.1389-26.63947-27.113-26.63947-4.9783 0-9.6432 1.31826-13.6528 3.61887l-.178-.60434c-.1444-.48628-.4743-.89152-.9229-1.13466-.2887-.15702-.6083-.23807-.9331-.23807-.1804 0-.3609.02533-.5362.07598l-6.7846 1.92989c.5104-.54196.9538-1.12955 1.3147-1.74753.4949-.84593.83-1.72225.995-2.61377.1649-.87632.1546-1.72224-.0206-2.51245-.2269-1.01815-.7373-1.87928-1.4642-2.49219-.7785-.653445-1.7838-1.00296-2.9077-1.00296-.6599 0-1.361.116505-2.088.354581-2.1498.693969-3.418 2.476999-3.7738 5.293379-.1959 1.57028-.1031 3.27733.0619 4.92364-.4382-.4661-.9538-.99286-1.526-1.52474-1.0053-.93203-1.9643-1.67665-2.86132-2.21359-1.20639-.72942-2.31997-1.0992-3.30982-1.0992-1.04656 0-1.9694.4103-2.68085 1.19544-.52586.58253-.8455 1.22584-.94861 1.90967-.09795.64838.00516 1.30182.30417 1.95522.71661 1.5703 2.52103 2.9076 4.66056 3.6269l-6.07316 1.7222c-1.025939.2938-1.6136635 1.3424-1.319801 2.3504l1.417761 4.8223c.14435.4863.4743.8915.92283 1.1346.28871.1571.60834.2381.93314.2381.18044 0 .36088-.0253.53617-.076l.31964-.0911 3.79443 12.8915c.25778.8763 1.0775 1.4487 1.96426 1.4487.1907 0 .3815-.0253.5671-.081zm9.5242-23.7978c-.4292.3524-.8471.7177-1.2532 1.0951h-6.5429l7.4909-2.1275zm2.0252-1.511c-.0971.0656-.1937.1318-.2898.1987l-.0815-.2773c-.1031-.3393-.2887-.6483-.5465-.8915l.5826-.1671zm-27.43756 6.5673 1.42291 4.8223.31449-.0912-1.13421-3.8599c-.10311-.3495-.10311-.7091-.02062-1.0384zm2.74272-7.99833c.3351.72943 1.16514 1.47913 2.26841 2.04643 1.20123.6129 2.5829.9574 3.89243.9574h.0154.0258.0206c.1547 0 .9641-.0152 2.1344-.2584-.4949-.5673-1.2579-1.4031-2.1498-2.2237-1.91788-1.77289-3.60372-2.75052-4.74824-2.75052-.46399 0-.83003.16716-1.15483.52174-.48977.542-.58772 1.084-.30417 1.70705zm6.59384 6.38753-6.76913 1.9248 1.13421 3.8599 1.91784-.5471c.65474-2.0819 1.96939-3.9003 3.71708-5.2376zm-5.0936 7.6083 3.7944 12.8915 6.5681-1.8691c-5.3307-.7953-9.43967-5.1769-9.43967-10.4247 0-.2938.01547-.5825.04125-.8713zm9.847-12.228c.3041-.1418.6135-.2938.928-.466.0097-.0038.0187-.0084.027-.0126.0136-.0069.0252-.0127.0348-.0127 2.3973-1.0942 3.6295-2.57328 4.243-3.62182.7269-1.24103 1.0001-2.58844.7527-3.6927-.1341-.59266-.4073-1.07388-.7991-1.40313-.4073-.34951-.9383-.52174-1.5776-.52174-.4434 0-.928.08611-1.4487.25327-1.3713.4407-2.124 1.59562-2.3818 3.63192-.2269 1.79316-.0103 3.90545.2217 5.8455zm-13.79816 39.482-2.39214-4.2853 9.89852-4.3512zm9.83146 2.2187-4.80486-.1824 3.98006-8.5504zm-8.83645-10.683-1.24247-2.2085 5.57307.9624z" fill="url(#a)" fill-rule="evenodd"/><g fill="#fff"><path clip-rule="evenodd" d="m6.34189 23.8514 3.81501 12.9473 8.1663-2.3251-3.815-12.9472zm22.55011-6.4888-8.1663 2.325 3.815 12.9473 8.1663-2.3251zm.3608-7.2942-10.5017 2.9886 1.4178 4.802 10.5017-2.9886zm-16.7089 4.7513-10.45528 2.9734 1.4126 4.8021 10.46048-2.9734z" fill-rule="evenodd"/><path d="m27.3707 46.415v-10.3779h7.1894v1.9449h-4.624v2.4739h3.9906v1.976h-3.9906v3.9831z"/><path d="m36.402 46.415v-10.3779h5.1465c1.193 0 2.1273.2749 2.8029.8246.6757.5394 1.0135 1.3589 1.0135 2.4584 0 .4356-.0845.8609-.2534 1.2758-.1583.4045-.4012.7676-.7284 1.0891-.3167.3112-.7126.5342-1.1877.6691l2.7079 4.0609h-3.2621l-2.0903-3.5786h-1.5836v3.5786zm2.5653-5.4301h2.1537c.4539 0 .8128-.1193 1.0768-.3579.2639-.2386.3959-.6327.3959-1.1825 0-.4771-.1162-.8402-.3484-1.0891-.2323-.2489-.5701-.3734-1.0135-.3734h-2.2645z"/><path d="m47.6291 46.415v-10.3779h7.2369v1.9449h-4.6715v2.256h4.0539v1.9605h-4.0539v2.2716h4.6715v1.9449z"/><path d="m57.016 46.415v-10.3779h7.2369v1.9449h-4.6715v2.256h4.0539v1.9605h-4.0539v2.2716h4.6715v1.9449z"/><path d="m40.2194 30.2227c-1.0346 0-1.9425-.1815-2.7237-.5446-.7706-.363-1.3671-.9387-1.7894-1.727-.4223-.7884-.6334-1.8256-.6334-3.1118 0-1.2655.2111-2.2976.6334-3.0963s1.0188-1.3847 1.7894-1.7581c.7707-.3838 1.6786-.5757 2.7237-.5757.6651 0 1.3091.0674 1.932.2022.6334.1349 1.2457.3216 1.8369.5602v2.2871c-.6334-.3319-1.2246-.5964-1.7736-.7935-.5384-.197-1.0979-.2956-1.6786-.2956-.6017 0-1.119.1089-1.5518.3268-.4223.2074-.7443.5653-.966 1.0735-.2217.4979-.3326 1.1825-.3326 2.0538 0 .8609.1109 1.5455.3326 2.0538.2322.4979.5542.8557.966 1.0736.4117.2178.892.3267 1.441.3267.285 0 .549-.0156.7918-.0467.2533-.0415.475-.1089.6651-.2022v-1.836h-1.7419v-1.9604h4.3072v4.8855c-.6545.363-1.3407.6379-2.0586.8246-.7073.1867-1.4305.2801-2.1695.2801z"/><path d="m46.6971 30.0204v-10.3778h7.2368v1.9448h-4.6715v2.2561h4.0539v1.9604h-4.0539v2.2716h4.6715v1.9449z"/><path d="m58.3009 30.0204v-8.433h-2.9612v-1.9448h8.5354v1.9448h-3.0088v8.433z"/></g></svg>