<svg width="334" height="277" viewBox="0 0 334 277" fill="none" xmlns="http://www.w3.org/2000/svg">
<path d="M86.1398 271.897C79.0655 270.489 -5.93316 257.809 0.329507 164.28C6.59218 70.7506 14.4414 42.6227 47.4882 32.3306C80.5351 22.0386 160.854 -26.6519 223.888 19.6469C240.255 31.6666 256.925 43.2959 272.854 55.875C294.738 73.1637 317.244 93.1237 327.992 119.275C333.059 131.621 334.959 144.876 333.547 158.008C331.9 173.443 329.582 188.457 325.36 203.505C323.924 208.628 322.487 213.752 321.048 218.875C320.187 221.949 319.318 225.042 317.959 227.938C309.218 246.597 298.192 258.842 279.718 268.777C263.686 277.384 243.819 277.172 226.11 276.222C155.69 272.444 119.778 278.593 86.1398 271.897Z" fill="#EAF8FF"/>
<g clip-path="url(#clip0_360_2350)">
<path opacity="0.3" d="M34.6484 108.919C34.6484 90.4411 34.7692 60.6147 34.773 42.1371C45.2986 41.8976 85.7574 41.8675 85.7555 42.2106C85.6989 60.1094 85.8121 90.7842 85.7555 108.681C85.7555 108.819 85.3422 109.332 85.3422 109.467H38.6193L34.6484 108.919Z" fill="white"/>
<path d="M85.342 110.033H38.6192C38.469 110.033 38.325 109.974 38.2188 109.868C38.1127 109.761 38.053 109.618 38.053 109.468C38.053 109.318 38.1127 109.174 38.2188 109.068C38.325 108.962 38.469 108.902 38.6192 108.902H84.9872L85.0703 108.772C85.1061 108.717 85.1571 108.636 85.1891 108.583C85.2175 99.6443 85.2024 87.3472 85.1891 75.4518C85.1759 63.7317 85.1608 51.6175 85.1891 42.7105C80.8275 42.4503 46.2648 42.473 35.3409 42.6936C35.3409 51.857 35.3069 63.8693 35.2786 75.5008C35.2484 87.3793 35.2183 99.6801 35.2164 108.928C35.2164 109.078 35.1567 109.222 35.0505 109.328C34.9443 109.434 34.8003 109.494 34.6502 109.494C34.5 109.494 34.356 109.434 34.2498 109.328C34.1436 109.222 34.084 109.078 34.084 108.928C34.084 99.6782 34.116 87.3868 34.1462 75.497C34.1764 63.6374 34.2066 51.3743 34.2085 42.1468C34.2085 41.999 34.2663 41.8571 34.3697 41.7514C34.473 41.6457 34.6136 41.5846 34.7615 41.5811C39.7082 41.468 51.7607 41.3926 64.0642 41.3926C70.1131 41.3926 75.3203 41.4171 79.1233 41.4548C85.8648 41.5246 85.9328 41.5905 86.1517 41.8055C86.2609 41.9138 86.3226 42.0609 86.3234 42.2146C86.2951 51.1631 86.3102 63.5092 86.3234 75.448C86.3366 87.3868 86.3517 99.7367 86.3234 108.685C86.3234 108.917 86.1989 109.111 86.029 109.379C85.9875 109.443 85.9252 109.543 85.895 109.598C85.8656 109.722 85.795 109.833 85.6946 109.912C85.5942 109.991 85.4699 110.034 85.342 110.033Z" fill="#5D7183"/>
<path d="M59.8572 110.032C59.7071 110.032 59.563 109.972 59.4568 109.866C59.3507 109.76 59.291 109.616 59.291 109.466V45.4074C59.291 45.2574 59.3507 45.1136 59.4568 45.0075C59.563 44.9014 59.7071 44.8418 59.8572 44.8418C60.0074 44.8418 60.1514 44.9014 60.2576 45.0075C60.3638 45.1136 60.4234 45.2574 60.4234 45.4074V109.466C60.4234 109.616 60.3638 109.76 60.2576 109.866C60.1514 109.972 60.0074 110.032 59.8572 110.032Z" fill="#5D7183"/>
<path d="M82.0167 73.9446H38.4646C38.3145 73.9446 38.1705 73.8849 38.0643 73.7788C37.9581 73.6726 37.8984 73.5287 37.8984 73.3785C37.8984 73.2284 37.9581 73.0844 38.0643 72.9783C38.1705 72.8721 38.3145 72.8125 38.4646 72.8125H82.0167C82.1669 72.8125 82.3109 72.8721 82.4171 72.9783C82.5233 73.0844 82.5829 73.2284 82.5829 73.3785C82.5829 73.5287 82.5233 73.6726 82.4171 73.7788C82.3109 73.8849 82.1669 73.9446 82.0167 73.9446Z" fill="#5D7183"/>
<path d="M157.94 169.951C157.845 155.997 158.034 132.08 157.94 118.126C157.94 117.857 226.266 117.882 244.04 118.067C244.04 132.475 244.247 155.677 244.252 170.085L157.94 169.951Z" fill="white"/>
<path d="M104.461 121.146C104.402 107.244 104.519 83.4172 104.461 69.5149C104.461 69.2485 146.524 69.2719 157.466 69.4573C157.466 83.8096 157.593 106.925 157.597 121.279L104.461 121.146Z" fill="white"/>
<path d="M104.102 45.1388C104.006 38.5302 104.198 27.2042 104.102 20.5956C104.102 20.4674 173.38 20.4787 191.402 20.5673C191.402 27.3908 191.612 38.3794 191.618 45.201L104.102 45.1388Z" fill="white"/>
<path d="M104.102 123.295C103.952 123.295 103.808 123.235 103.702 123.129C103.595 123.023 103.536 122.879 103.536 122.729C103.489 109.076 103.513 90.2405 103.536 72.0249C103.558 53.8094 103.585 35.0074 103.536 21.366C103.537 21.2118 103.599 21.0642 103.707 20.955C103.941 20.725 104.058 20.61 115.439 20.5063C121.945 20.4459 130.861 20.412 141.22 20.4082C162.292 20.4082 182.941 20.5138 191.414 20.6835C191.562 20.6864 191.703 20.7473 191.807 20.8531C191.91 20.9589 191.969 21.101 191.969 21.2491C191.969 33.9346 192.014 50.1119 192.057 65.5955C192.057 65.7455 191.998 65.8894 191.891 65.9954C191.785 66.1015 191.641 66.1611 191.491 66.1611C191.341 66.1611 191.197 66.1015 191.091 65.9954C190.984 65.8894 190.925 65.7455 190.925 65.5955C190.881 50.3363 190.84 34.4003 190.836 21.8016C172.771 21.4622 110.504 21.4245 104.67 21.8449C104.715 35.4467 104.693 54.0375 104.67 72.023C104.647 90.2386 104.623 109.073 104.67 122.722C104.67 122.872 104.61 123.015 104.504 123.121C104.398 123.228 104.254 123.287 104.104 123.287L104.102 123.295Z" fill="#5D7183"/>
<path d="M161.224 42.6672C161.076 42.6672 160.934 42.6094 160.828 42.5062C160.723 42.403 160.661 42.2625 160.658 42.1147C160.624 40.6987 160.658 39.1923 160.675 37.7348C160.709 35.6909 160.745 33.5867 160.624 31.6164C159.093 31.7239 157.567 31.5354 156.085 31.3506C155.383 31.262 154.66 31.1733 153.954 31.1168C151.591 30.9298 149.213 31.1111 146.905 31.6541L146.697 42.1129C146.694 42.2609 146.634 42.4019 146.528 42.5055C146.422 42.6092 146.279 42.6672 146.131 42.6672H146.12C146.046 42.6657 145.972 42.6496 145.904 42.6198C145.836 42.59 145.774 42.5471 145.723 42.4935C145.671 42.44 145.631 42.3768 145.604 42.3076C145.577 42.2384 145.564 42.1645 145.565 42.0902L145.78 31.196C145.783 31.0724 145.826 30.9532 145.903 30.8565C145.98 30.7598 146.087 30.6909 146.207 30.6605C148.764 30.0072 151.412 29.7804 154.043 29.9893C154.773 30.0458 155.511 30.1382 156.225 30.2268C157.903 30.4361 159.49 30.6341 161.079 30.438C161.155 30.4284 161.232 30.4343 161.306 30.4554C161.379 30.4765 161.448 30.5122 161.507 30.5606C161.567 30.6088 161.616 30.6686 161.652 30.7363C161.687 30.8041 161.709 30.8783 161.715 30.9546C161.885 33.1342 161.845 35.4798 161.807 37.7536C161.783 39.1998 161.758 40.695 161.79 42.0902C161.792 42.1645 161.779 42.2384 161.752 42.3077C161.726 42.377 161.685 42.4404 161.634 42.4941C161.583 42.5479 161.521 42.591 161.453 42.621C161.385 42.651 161.312 42.6674 161.237 42.6691L161.224 42.6672Z" fill="#5D7183"/>
<path d="M167.922 45.3708C167.853 38.6699 167.783 31.6766 167.713 24.9757C169.977 25.1968 172.259 25.1335 174.507 24.7871C174.885 31.6955 174.989 39.2072 175.011 45.5273L167.922 45.3708Z" fill="white"/>
<path d="M175.009 43.9318C174.859 43.9318 174.715 43.8722 174.609 43.7661C174.503 43.66 174.443 43.5162 174.443 43.3661C174.479 37.3647 174.322 31.284 173.975 25.2826C172.087 25.5053 170.182 25.5539 168.284 25.4277L168.486 42.9626C168.486 43.1127 168.427 43.2565 168.321 43.3626C168.214 43.4687 168.07 43.5283 167.92 43.5283C167.77 43.5283 167.626 43.4687 167.52 43.3626C167.414 43.2565 167.354 43.1127 167.354 42.9626L167.145 24.815C167.144 24.7353 167.161 24.6564 167.194 24.5837C167.226 24.5109 167.274 24.4458 167.333 24.3926C167.391 24.3389 167.46 24.2979 167.535 24.2722C167.609 24.2466 167.689 24.2368 167.767 24.2437C169.989 24.4387 172.225 24.3824 174.433 24.0758C174.511 24.0649 174.59 24.0702 174.665 24.0913C174.741 24.1124 174.811 24.1489 174.871 24.1984C174.932 24.2479 174.981 24.3093 175.016 24.3787C175.052 24.4481 175.072 24.5241 175.077 24.6019C175.454 30.824 175.621 37.1384 175.583 43.3661C175.583 43.4411 175.568 43.5152 175.539 43.5843C175.51 43.6535 175.468 43.7162 175.414 43.7688C175.361 43.8214 175.298 43.8629 175.228 43.8909C175.159 43.9189 175.084 43.9328 175.009 43.9318Z" fill="#5D7183"/>
<path d="M133.007 69.8998C132.727 65.582 132.618 57.6574 133.099 52.6213C133.097 52.4424 133.153 52.2676 133.26 52.1235C133.335 52.0623 133.423 52.0179 133.517 51.9932C133.611 51.9685 133.709 51.9641 133.805 51.9802L153.288 52.6081C153.369 57.6781 153.565 64.4225 153.288 69.7659L133.007 69.8998Z" fill="white"/>
<path d="M153.29 68.8735H153.256C153.106 68.8647 152.966 68.7971 152.867 68.6854C152.767 68.5737 152.715 68.4271 152.724 68.2777C152.954 64.1862 152.856 59.2651 152.767 54.9228C152.756 54.2988 152.743 53.6916 152.731 53.1071L133.788 52.5415H133.671C133.671 52.5641 133.671 52.5905 133.662 52.6226C133.192 57.1477 133.284 63.5753 133.573 67.6385C133.583 67.788 133.534 67.9355 133.435 68.0486C133.337 68.1617 133.198 68.2312 133.048 68.2418C132.974 68.2472 132.899 68.2379 132.829 68.2145C132.758 68.1911 132.693 68.1539 132.637 68.1053C132.58 68.0566 132.534 67.9973 132.501 67.9308C132.467 67.8643 132.448 67.7919 132.442 67.7177C132.154 63.6073 132.065 57.0949 132.535 52.5057C132.545 52.2064 132.662 51.9207 132.865 51.7006C132.996 51.5897 133.149 51.5068 133.314 51.4569C133.478 51.4069 133.651 51.3911 133.822 51.4102L153.305 51.9872C153.45 51.9915 153.588 52.0515 153.69 52.1546C153.793 52.2578 153.851 52.3963 153.854 52.5415C153.867 53.2957 153.882 54.0782 153.899 54.8946C153.988 59.2557 154.088 64.2012 153.854 68.3361C153.847 68.4808 153.784 68.6173 153.679 68.7173C153.574 68.8172 153.435 68.8732 153.29 68.8735Z" fill="#5D7183"/>
<path d="M146.91 61.0527C146.91 61.1356 139.927 61.113 139.44 61.1092C139.44 60.7868 139.471 56.4785 139.491 56.4785C140.935 56.701 142.232 56.6953 143.732 56.6671C143.921 56.6671 146.563 56.5238 146.576 56.6671C146.776 58.1209 146.887 59.5854 146.91 61.0527Z" fill="white"/>
<path d="M142.121 61.6805C140.799 61.6805 139.642 61.6805 139.435 61.6805C139.285 61.6805 139.141 61.6209 139.034 61.5148C138.928 61.4087 138.869 61.2648 138.869 61.1148C138.869 60.9413 138.869 59.7573 138.886 58.6637C138.886 58.0981 138.897 57.555 138.903 57.144C138.903 56.9366 138.903 56.7669 138.903 56.6462C138.903 56.469 138.92 55.9298 139.456 55.909C139.492 55.9053 139.529 55.9053 139.565 55.909C140.984 56.1296 142.281 56.1183 143.706 56.0825H143.904C146.56 55.9637 147.039 55.943 147.124 56.5765C147.326 58.0566 147.44 59.5476 147.464 61.0413C147.465 61.1171 147.451 61.1924 147.422 61.2627C147.394 61.333 147.351 61.3968 147.297 61.4504C147.082 61.6673 147.082 61.6673 143.313 61.6748L142.121 61.6805ZM140.009 60.5492C141.468 60.5492 145.019 60.5492 146.333 60.5265C146.297 59.3953 146.21 58.2772 146.071 57.161C145.746 57.161 145.127 57.161 143.966 57.2175H143.747C142.509 57.276 141.269 57.2464 140.035 57.1289C140.035 58.0113 140.014 59.663 140.009 60.5454V60.5492Z" fill="#5D7183"/>
<path d="M155.068 36.4856H151.737C151.586 36.4856 151.442 36.426 151.336 36.3198C151.23 36.2137 151.17 36.0697 151.17 35.9196C151.17 35.7694 151.23 35.6255 151.336 35.5193C151.442 35.4131 151.586 35.3535 151.737 35.3535H155.06C155.21 35.3535 155.354 35.4131 155.461 35.5193C155.567 35.6255 155.626 35.7694 155.626 35.9196C155.626 36.0684 155.568 36.2112 155.463 36.3172C155.359 36.4231 155.217 36.4836 155.068 36.4856Z" fill="#5D7183"/>
<path d="M146.641 123.138C146.49 123.138 146.346 123.078 146.24 122.972C146.134 122.866 146.074 122.722 146.074 122.572C146.074 116.377 146.057 106.212 146.05 96.0758C146.05 86.0827 146.033 76.118 146.025 70.011C146.025 69.8609 146.085 69.7171 146.191 69.611C146.297 69.5049 146.441 69.4453 146.592 69.4453C146.742 69.4453 146.886 69.5049 146.992 69.611C147.098 69.7171 147.158 69.8609 147.158 70.011C147.158 76.118 147.173 86.0846 147.182 96.0776C147.182 106.212 147.199 116.377 147.207 122.572C147.207 122.722 147.147 122.866 147.041 122.972C146.935 123.078 146.791 123.138 146.641 123.138Z" fill="#5D7183"/>
<path d="M139.831 81.365C139.697 81.3672 139.567 81.3221 139.464 81.2375C139.36 81.1529 139.29 81.0344 139.265 80.903C139.01 79.5505 138.961 78.1673 139.12 76.8002C139.137 76.6512 139.212 76.5151 139.33 76.4218C139.447 76.3284 139.597 76.2855 139.746 76.3025C139.895 76.3195 140.032 76.395 140.125 76.5124C140.219 76.6298 140.262 76.7794 140.245 76.9285C140.099 78.185 140.144 79.4564 140.379 80.6994C140.406 80.8466 140.374 80.9988 140.29 81.1225C140.205 81.2463 140.075 81.3314 139.928 81.3593C139.896 81.3642 139.863 81.3661 139.831 81.365Z" fill="#5D7183"/>
<path d="M153.294 81.3648C153.258 81.3647 153.223 81.3609 153.188 81.3534C153.04 81.3255 152.91 81.2404 152.826 81.1167C152.741 80.9929 152.709 80.8408 152.737 80.6935C152.97 79.4503 153.015 78.1792 152.871 76.9226C152.854 76.7736 152.897 76.6239 152.99 76.5065C153.084 76.3891 153.22 76.3136 153.369 76.2966C153.518 76.2796 153.668 76.3225 153.785 76.4159C153.903 76.5092 153.979 76.6454 153.996 76.7944C154.153 78.1616 154.103 79.5447 153.848 80.8972C153.825 81.0277 153.757 81.146 153.656 81.2315C153.554 81.3169 153.426 81.3641 153.294 81.3648Z" fill="#5D7183"/>
<path d="M151.748 70.4431L107.611 70.2883C107.46 70.2883 107.316 70.2287 107.21 70.1226C107.104 70.0164 107.044 69.8724 107.044 69.7223C107.044 69.5722 107.104 69.4282 107.21 69.322C107.316 69.2159 107.46 69.1562 107.611 69.1562L151.748 69.311C151.898 69.311 152.042 69.3706 152.148 69.4767C152.254 69.5829 152.314 69.7269 152.314 69.877C152.314 70.0271 152.254 70.1711 152.148 70.2773C152.042 70.3834 151.898 70.4431 151.748 70.4431Z" fill="#5D7183"/>
<path d="M177.985 46.0302C168.145 46.0302 157.806 45.9152 147.716 45.804C133.822 45.6493 119.452 45.4891 106.573 45.6324C106.422 45.6324 106.278 45.5728 106.172 45.4667C106.066 45.3606 106.006 45.2167 106.006 45.0667C106.006 44.9167 106.066 44.7728 106.172 44.6668C106.278 44.5607 106.422 44.5011 106.573 44.5011C119.463 44.3578 133.839 44.5181 147.741 44.6727C161.643 44.8273 176.006 44.9856 188.885 44.8423C189.035 44.8423 189.179 44.902 189.285 45.008C189.391 45.1141 189.451 45.258 189.451 45.408C189.451 45.558 189.391 45.7019 189.285 45.808C189.179 45.914 189.035 45.9736 188.885 45.9736C185.35 46.0057 181.703 46.0302 177.985 46.0302Z" fill="#5D7183"/>
<path d="M244.813 162.148C244.663 162.148 244.519 162.094 244.413 161.998C244.307 161.903 244.247 161.773 244.247 161.638C244.247 148.931 244.192 132.067 244.14 115.752C244.089 99.6769 244.038 83.0628 244.034 70.4307C225.983 70.1248 163.763 70.0908 157.936 70.4697C157.981 82.7297 157.956 99.4865 157.936 115.698C157.911 132.116 157.887 149.092 157.936 161.395C157.936 161.53 157.876 161.66 157.77 161.755C157.664 161.851 157.52 161.905 157.37 161.905C157.22 161.905 157.076 161.851 156.97 161.755C156.864 161.66 156.804 161.53 156.804 161.395C156.755 149.091 156.78 132.113 156.804 115.694C156.829 99.2758 156.851 82.327 156.804 70.0313C156.804 69.9624 156.819 69.8941 156.849 69.8305C156.878 69.7669 156.921 69.7092 156.976 69.6608C157.21 69.4552 157.327 69.3515 168.696 69.2563C175.199 69.2019 184.106 69.1714 194.457 69.168C215.524 69.168 236.147 69.2631 244.62 69.4161C244.769 69.4188 244.91 69.4736 245.013 69.569C245.117 69.6643 245.175 69.7925 245.175 69.9259C245.175 82.6176 245.23 99.4593 245.281 115.745C245.331 132.031 245.386 148.921 245.388 161.631C245.389 161.699 245.375 161.767 245.346 161.83C245.318 161.894 245.275 161.951 245.222 161.999C245.168 162.047 245.104 162.085 245.034 162.111C244.964 162.136 244.889 162.149 244.813 162.148Z" fill="#5D7183"/>
<path d="M214.319 91.3345C214.171 91.3345 214.029 91.2767 213.923 91.1735C213.817 91.0702 213.756 90.9297 213.752 90.782C213.72 89.366 213.752 87.8595 213.769 86.4002C213.803 84.3563 213.839 82.2522 213.72 80.2856C212.188 80.3931 210.663 80.2026 209.179 80.0179C208.479 79.9292 207.754 79.8406 207.049 79.7841C204.685 79.5971 202.307 79.7784 199.999 80.3214L199.794 90.7801C199.791 90.9282 199.73 91.0692 199.624 91.1728C199.518 91.2765 199.376 91.3345 199.227 91.3345H199.216C199.142 91.333 199.068 91.3169 199 91.2871C198.932 91.2573 198.871 91.2144 198.819 91.1608C198.768 91.1072 198.727 91.044 198.7 90.9748C198.673 90.9056 198.66 90.8318 198.661 90.7575L198.876 79.8651C198.879 79.7413 198.922 79.6216 198.999 79.5245C199.076 79.4274 199.183 79.3583 199.303 79.3278C201.86 78.6757 204.507 78.449 207.137 78.6566C207.87 78.715 208.608 78.8055 209.321 78.8941C210.999 79.1034 212.584 79.3014 214.175 79.1053C214.251 79.0957 214.328 79.1016 214.402 79.1227C214.476 79.1438 214.544 79.1795 214.604 79.2278C214.663 79.2762 214.711 79.3361 214.747 79.4038C214.782 79.4716 214.803 79.5458 214.809 79.6219C214.979 81.8015 214.94 84.1471 214.902 86.4096C214.877 87.8577 214.853 89.3528 214.885 90.7462C214.887 90.8205 214.874 90.8944 214.847 90.9637C214.82 91.033 214.78 91.0963 214.728 91.1501C214.677 91.2038 214.616 91.247 214.548 91.277C214.479 91.307 214.406 91.3233 214.332 91.325L214.319 91.3345Z" fill="#5D7183"/>
<path d="M217.772 118.565C217.493 114.248 217.383 106.323 217.865 101.287C217.862 101.108 217.919 100.933 218.025 100.789C218.101 100.728 218.189 100.684 218.283 100.659C218.377 100.635 218.475 100.63 218.571 100.646L238.054 101.274C238.133 106.344 238.331 113.088 238.054 118.431L217.772 118.565Z" fill="white"/>
<path d="M161.373 94.3025C161.094 89.9848 160.985 82.0601 161.466 77.024C161.464 76.8451 161.52 76.6705 161.626 76.5263C161.702 76.4654 161.79 76.4213 161.884 76.3969C161.978 76.3726 162.076 76.3684 162.172 76.3849L181.655 77.0108C181.734 82.0827 181.932 88.8271 181.655 94.1686L161.373 94.3025Z" fill="white"/>
<path d="M238.053 117.539H238.021C237.947 117.535 237.874 117.516 237.808 117.484C237.741 117.451 237.681 117.406 237.631 117.351C237.582 117.295 237.544 117.23 237.519 117.16C237.495 117.09 237.485 117.016 237.489 116.942C237.719 112.85 237.619 107.929 237.532 103.587C237.52 102.958 237.508 102.353 237.497 101.771L218.553 101.206H218.436C218.436 101.228 218.436 101.255 218.427 101.287C217.972 105.659 218.05 112.481 218.336 116.68C218.347 116.829 218.297 116.977 218.199 117.09C218.101 117.203 217.961 117.272 217.812 117.283C217.662 117.293 217.514 117.244 217.401 117.146C217.288 117.047 217.218 116.908 217.208 116.759C216.9 112.405 216.83 105.653 217.3 101.17C217.31 100.87 217.427 100.585 217.631 100.365C217.762 100.254 217.914 100.171 218.078 100.121C218.242 100.071 218.415 100.055 218.586 100.074L238.07 100.651C238.218 100.656 238.357 100.717 238.46 100.823C238.562 100.928 238.62 101.07 238.62 101.217C238.633 101.971 238.648 102.752 238.665 103.568C238.752 107.931 238.854 112.875 238.62 117.01C238.61 117.153 238.547 117.288 238.442 117.387C238.336 117.485 238.198 117.54 238.053 117.539Z" fill="#5D7183"/>
<path d="M183.568 118.305C183.499 111.112 183.429 103.598 183.359 96.4106C185.623 96.6461 187.908 96.577 190.153 96.2051C190.531 103.623 190.635 111.685 190.659 118.476L183.568 118.305Z" fill="white"/>
<path d="M221.019 94.0387C220.949 87.3359 220.879 80.3426 220.809 73.6417C223.073 73.8628 225.355 73.7995 227.603 73.4531C227.981 80.3615 228.085 87.8732 228.107 94.1933L221.019 94.0387Z" fill="white"/>
<path d="M190.28 118.555C190.212 114 190.142 108.818 190.074 104.265C192.31 104.414 194.555 104.37 196.783 104.135C197.151 108.83 197.257 113.939 197.28 118.234L190.28 118.555Z" fill="white"/>
<path d="M190.657 117.782C190.507 117.782 190.363 117.723 190.257 117.617C190.15 117.511 190.091 117.367 190.091 117.217C190.061 109.173 189.902 102.51 189.619 96.8537C187.734 97.1046 185.827 97.159 183.931 97.0158L184.134 116.755C184.134 116.905 184.075 117.049 183.969 117.155C183.862 117.261 183.718 117.321 183.568 117.321C183.418 117.321 183.274 117.261 183.168 117.155C183.062 117.049 183.002 116.905 183.002 116.755L182.792 96.3917C182.792 96.312 182.809 96.2332 182.842 96.1604C182.874 96.0876 182.922 96.0225 182.981 95.9694C183.04 95.9155 183.109 95.8746 183.185 95.8492C183.26 95.8239 183.34 95.8147 183.419 95.8223C185.635 96.0407 187.87 95.9773 190.07 95.6338C190.148 95.6215 190.228 95.6258 190.304 95.6463C190.381 95.6667 190.452 95.7029 190.514 95.7526C190.575 95.8025 190.626 95.865 190.662 95.9358C190.698 96.0066 190.719 96.0842 190.723 96.1636C191.033 101.961 191.199 108.843 191.229 117.202C191.229 117.352 191.169 117.496 191.063 117.602C190.957 117.708 190.813 117.767 190.663 117.767L190.657 117.782Z" fill="#5D7183"/>
<path d="M228.104 92.5898C227.954 92.5898 227.81 92.5302 227.704 92.4241C227.597 92.318 227.538 92.1741 227.538 92.0241C227.575 86.0208 227.417 79.9401 227.072 73.9405C225.183 74.1642 223.277 74.2128 221.379 74.0857L221.581 91.6206C221.581 91.7707 221.522 91.9145 221.415 92.0206C221.309 92.1267 221.165 92.1863 221.015 92.1863C220.865 92.1863 220.721 92.1267 220.615 92.0206C220.508 91.9145 220.449 91.7707 220.449 91.6206L220.241 73.4729C220.241 73.3932 220.258 73.3144 220.29 73.2416C220.323 73.1688 220.37 73.1037 220.43 73.0506C220.488 72.9968 220.556 72.9559 220.631 72.9302C220.706 72.9045 220.785 72.8948 220.864 72.9016C223.085 73.0976 225.322 73.0413 227.53 72.7338C227.607 72.7232 227.686 72.7286 227.761 72.7497C227.836 72.7708 227.906 72.8071 227.966 72.8564C228.027 72.9057 228.076 72.967 228.112 73.0364C228.148 73.1059 228.169 73.182 228.174 73.2599C228.551 79.4819 228.715 85.7945 228.678 92.0241C228.678 92.099 228.663 92.1732 228.634 92.2423C228.605 92.3115 228.563 92.3741 228.509 92.4268C228.456 92.4794 228.392 92.5209 228.323 92.5489C228.253 92.5769 228.179 92.5907 228.104 92.5898Z" fill="#5D7183"/>
<path d="M196.544 117.539C196.394 117.539 196.25 117.48 196.143 117.374C196.037 117.268 195.978 117.124 195.978 116.974C195.946 112.994 195.978 108.962 196.049 104.984C194.337 104.716 192.6 104.638 190.871 104.75C190.796 104.757 190.722 104.749 190.651 104.727C190.58 104.705 190.514 104.669 190.457 104.621C190.399 104.574 190.352 104.515 190.318 104.449C190.283 104.383 190.262 104.311 190.255 104.237C190.249 104.163 190.257 104.089 190.279 104.018C190.301 103.947 190.337 103.881 190.384 103.824C190.432 103.767 190.491 103.719 190.557 103.685C190.622 103.651 190.695 103.629 190.769 103.623C192.763 103.489 194.766 103.602 196.733 103.956C196.863 103.982 196.981 104.052 197.065 104.156C197.149 104.259 197.194 104.389 197.191 104.522C197.104 108.647 197.076 112.833 197.11 116.966C197.11 117.116 197.05 117.26 196.944 117.366C196.838 117.472 196.694 117.532 196.544 117.532V117.539Z" fill="#5D7183"/>
<path d="M231.676 109.719C231.676 109.802 224.693 109.779 224.205 109.775C224.205 109.453 224.235 105.145 224.256 105.145C225.701 105.369 226.996 105.361 228.498 105.324C228.687 105.324 231.329 105.18 231.342 105.324C231.542 106.781 231.654 108.248 231.676 109.719Z" fill="white"/>
<path d="M226.873 110.347C225.508 110.347 224.366 110.347 224.199 110.347C224.048 110.347 223.904 110.287 223.798 110.181C223.692 110.075 223.632 109.931 223.632 109.781C223.632 109.607 223.632 108.421 223.649 107.33C223.649 106.764 223.661 106.221 223.666 105.81C223.666 105.605 223.666 105.433 223.676 105.312C223.676 105.135 223.693 104.598 224.225 104.575C224.262 104.571 224.299 104.571 224.336 104.575C225.757 104.796 227.052 104.784 228.477 104.749H228.666C231.323 104.632 231.801 104.611 231.888 105.243C232.089 106.723 232.203 108.215 232.227 109.709C232.228 109.862 232.169 110.009 232.061 110.118C231.846 110.335 231.846 110.335 228.077 110.343L226.873 110.347ZM224.774 109.211C226.233 109.211 229.785 109.211 231.097 109.189C231.063 108.058 230.976 106.938 230.836 105.825C230.512 105.825 229.893 105.825 228.732 105.88H228.511C227.275 105.934 226.037 105.901 224.806 105.78C224.793 106.677 224.776 108.329 224.776 109.211H224.774Z" fill="#5D7183"/>
<path d="M181.892 92.9395H181.86C181.786 92.9352 181.713 92.9163 181.646 92.8839C181.579 92.8516 181.519 92.8063 181.47 92.7508C181.421 92.6953 181.383 92.6306 181.358 92.5604C181.334 92.4903 181.323 92.416 181.328 92.3418C181.516 89.0988 181.349 85.3354 181.19 81.6965C181.122 80.0995 181.056 78.5798 181.024 77.1713C177.957 77.0884 174.847 77.0714 171.834 77.0544C168.637 77.0375 165.333 77.0186 162.079 76.9224H161.962C161.962 76.9451 161.962 76.9715 161.962 77.0035C161.494 81.4966 161.584 87.6866 161.871 91.8309C161.882 91.9804 161.832 92.1279 161.734 92.241C161.635 92.3541 161.496 92.4236 161.347 92.4342C161.197 92.4446 161.049 92.3952 160.936 92.297C160.823 92.1987 160.753 92.0595 160.743 91.9101C160.446 87.7186 160.365 81.4476 160.835 76.8866C160.844 76.5872 160.961 76.3012 161.165 76.0815C161.297 75.9727 161.449 75.8914 161.612 75.8424C161.775 75.7935 161.947 75.778 162.117 75.7968C165.357 75.893 168.656 75.9118 171.846 75.9288C175.035 75.9457 178.348 75.9646 181.601 76.0608C181.747 76.0651 181.885 76.1253 181.988 76.2289C182.09 76.3325 182.148 76.4715 182.151 76.617C182.177 78.1574 182.251 79.8544 182.328 81.6512C182.487 85.3185 182.649 89.1101 182.464 92.4097C182.455 92.5544 182.39 92.6901 182.284 92.7887C182.177 92.8873 182.037 92.9413 181.892 92.9395Z" fill="#5D7183"/>
<path d="M175.201 85.4316C175.201 85.5145 168.218 85.4919 167.729 85.4882C167.729 85.1657 167.76 80.8574 167.78 80.8574C169.226 81.0818 170.521 81.0743 172.023 81.046C172.212 81.046 174.854 80.9027 174.867 81.046C175.067 82.4998 175.178 83.9643 175.201 85.4316Z" fill="white"/>
<path d="M170.406 86.0595C169.085 86.0595 167.932 86.0595 167.724 86.0595C167.574 86.0595 167.43 85.9999 167.324 85.8938C167.217 85.7877 167.158 85.6438 167.158 85.4938C167.158 85.3241 167.158 84.1401 167.175 83.0427C167.175 82.4771 167.186 81.934 167.192 81.523C167.192 81.3175 167.192 81.1459 167.192 81.0252C167.192 80.8499 167.209 80.3125 167.741 80.288C167.778 80.2842 167.815 80.2842 167.852 80.288C169.273 80.5086 170.568 80.4973 171.993 80.4615H172.191C174.849 80.3446 175.326 80.3238 175.413 80.9574C175.615 82.4376 175.728 83.9285 175.753 85.4222C175.754 85.498 175.74 85.5733 175.711 85.6436C175.683 85.7139 175.64 85.7777 175.587 85.8313C175.371 86.0481 175.371 86.0482 171.602 86.0557L170.406 86.0595ZM168.298 84.9263C169.757 84.9263 173.309 84.9263 174.622 84.9018C174.588 83.7705 174.501 82.6505 174.362 81.5381C174.037 81.5381 173.418 81.5381 172.257 81.5928H172.036C170.801 81.6482 169.563 81.6148 168.332 81.4928C168.318 82.396 168.303 84.0439 168.298 84.9263Z" fill="#5D7183"/>
<path d="M208.168 85.1516H204.844C204.694 85.1516 204.55 85.092 204.444 84.9858C204.337 84.8797 204.278 84.7357 204.278 84.5856C204.278 84.4354 204.337 84.2915 204.444 84.1853C204.55 84.0792 204.694 84.0195 204.844 84.0195H208.168C208.318 84.0195 208.462 84.0792 208.568 84.1853C208.674 84.2915 208.734 84.4354 208.734 84.5856C208.734 84.7357 208.674 84.8797 208.568 84.9858C208.462 85.092 208.318 85.1516 208.168 85.1516Z" fill="#5D7183"/>
<path d="M199.745 157.088C199.594 157.088 199.45 157.028 199.344 156.922C199.238 156.816 199.178 156.672 199.178 156.522L199.127 118.677C199.127 118.527 199.187 118.383 199.293 118.277C199.399 118.171 199.543 118.111 199.694 118.111C199.844 118.111 199.988 118.171 200.094 118.277C200.2 118.383 200.26 118.527 200.26 118.677L200.311 156.52C200.311 156.67 200.251 156.814 200.145 156.92C200.039 157.026 199.895 157.086 199.745 157.086V157.088Z" fill="#5D7183"/>
<path d="M192.925 130.031C192.794 130.031 192.666 129.984 192.565 129.9C192.463 129.816 192.395 129.698 192.371 129.569C192.116 128.217 192.066 126.833 192.223 125.466C192.24 125.317 192.316 125.181 192.433 125.088C192.551 124.994 192.701 124.952 192.85 124.968C192.999 124.986 193.135 125.061 193.229 125.178C193.322 125.296 193.365 125.445 193.348 125.594C193.204 126.851 193.25 128.122 193.484 129.365C193.498 129.439 193.497 129.514 193.482 129.587C193.467 129.66 193.437 129.729 193.395 129.79C193.353 129.852 193.299 129.904 193.237 129.945C193.174 129.986 193.104 130.014 193.031 130.027C192.996 130.031 192.961 130.032 192.925 130.031Z" fill="#5D7183"/>
<path d="M206.388 130.031C206.353 130.03 206.319 130.027 206.284 130.021C206.211 130.008 206.141 129.98 206.079 129.939C206.016 129.899 205.962 129.846 205.92 129.784C205.878 129.723 205.848 129.654 205.833 129.581C205.818 129.508 205.817 129.433 205.831 129.36C206.066 128.116 206.111 126.845 205.965 125.589C205.948 125.44 205.991 125.29 206.085 125.173C206.178 125.055 206.314 124.98 206.464 124.963C206.613 124.946 206.763 124.989 206.88 125.082C206.998 125.175 207.073 125.311 207.09 125.46C207.249 126.827 207.2 128.211 206.945 129.563C206.922 129.694 206.853 129.813 206.752 129.898C206.65 129.984 206.521 130.031 206.388 130.031Z" fill="#5D7183"/>
<path d="M243.023 119.244L160.707 118.954C160.557 118.954 160.413 118.894 160.306 118.788C160.2 118.682 160.141 118.538 160.141 118.388C160.141 118.238 160.2 118.094 160.306 117.988C160.413 117.882 160.557 117.822 160.707 117.822L243.025 118.113C243.175 118.113 243.319 118.172 243.425 118.278C243.531 118.384 243.591 118.528 243.591 118.678C243.591 118.753 243.576 118.826 243.548 118.895C243.519 118.964 243.477 119.026 243.424 119.079C243.372 119.131 243.309 119.173 243.24 119.201C243.171 119.23 243.097 119.244 243.023 119.244Z" fill="#5D7183"/>
<path d="M231.078 94.6962C221.237 94.6962 210.9 94.5812 200.811 94.47C186.916 94.3154 172.548 94.1551 159.667 94.2984C159.517 94.2984 159.373 94.2388 159.266 94.1327C159.16 94.0266 159.101 93.8828 159.101 93.7327C159.101 93.5827 159.16 93.4389 159.266 93.3328C159.373 93.2267 159.517 93.1671 159.667 93.1671C172.559 93.0238 186.933 93.1841 200.835 93.3387C214.737 93.4933 229.1 93.6517 241.979 93.5084C242.129 93.5084 242.273 93.568 242.379 93.6741C242.486 93.7801 242.545 93.924 242.545 94.074C242.545 94.224 242.486 94.3679 242.379 94.474C242.273 94.5801 242.129 94.6396 241.979 94.6396C238.444 94.6792 234.796 94.6962 231.078 94.6962Z" fill="#5D7183"/>
<path d="M125.329 85.4122H125.293C125.143 85.403 125.004 85.3349 124.904 85.2228C124.805 85.1108 124.754 84.9639 124.763 84.8145C125.14 78.5717 125.059 66.3368 124.976 54.4848C124.893 42.6327 124.804 30.3507 125.191 24.0796C125.2 23.9302 125.268 23.7905 125.381 23.6912C125.493 23.5919 125.64 23.541 125.789 23.5498C125.939 23.559 126.079 23.6271 126.178 23.7392C126.278 23.8512 126.329 23.998 126.32 24.1475C125.942 30.3903 126.023 42.6251 126.108 54.4772C126.193 66.3293 126.28 78.6018 125.893 84.8824C125.884 85.0257 125.821 85.1603 125.716 85.2587C125.611 85.3571 125.473 85.412 125.329 85.4122Z" fill="#5D7183"/>
</g>
<g clip-path="url(#clip1_360_2350)">
<path d="M84.0885 115.712C84.0255 115.712 83.9633 115.698 83.9064 115.67C83.8496 115.643 83.7996 115.604 83.7603 115.555L77.6127 107.887C77.5762 107.844 77.5487 107.794 77.5317 107.741C77.5148 107.687 77.5088 107.631 77.5141 107.575C77.5194 107.519 77.5358 107.465 77.5625 107.415C77.5892 107.366 77.6255 107.322 77.6694 107.287C77.7132 107.252 77.7637 107.226 77.8178 107.211C77.8719 107.196 77.9285 107.192 77.9842 107.199C78.0399 107.206 78.0937 107.224 78.1423 107.252C78.1909 107.28 78.2333 107.318 78.2671 107.363L84.4168 115.031C84.4661 115.092 84.497 115.166 84.506 115.245C84.5151 115.323 84.5018 115.402 84.4677 115.473C84.4336 115.545 84.3802 115.605 84.3135 115.647C84.2468 115.689 84.1695 115.711 84.0906 115.712H84.0885Z" fill="#5D7183"/>
<path d="M88.1985 114.904C88.1096 114.904 88.023 114.876 87.9512 114.824C87.8794 114.771 87.8261 114.698 87.799 114.613C86.8706 111.686 86.8764 108.543 87.8158 105.62C87.8328 105.567 87.8599 105.519 87.8957 105.477C87.9315 105.435 87.9751 105.401 88.0242 105.376C88.0733 105.351 88.1268 105.336 88.1817 105.331C88.2367 105.327 88.2919 105.334 88.3443 105.351C88.3967 105.368 88.4452 105.395 88.4872 105.43C88.5291 105.466 88.5635 105.51 88.5885 105.559C88.6136 105.608 88.6287 105.661 88.633 105.716C88.6374 105.771 88.6308 105.826 88.6138 105.879C87.7283 108.635 87.7228 111.598 88.5981 114.357C88.6182 114.42 88.6233 114.487 88.6127 114.552C88.6022 114.617 88.5764 114.679 88.5374 114.732C88.4985 114.786 88.4475 114.829 88.3886 114.859C88.3297 114.889 88.2646 114.904 88.1985 114.904Z" fill="#5D7183"/>
<path d="M92.6682 115.155C92.6296 115.155 92.5911 115.15 92.5539 115.14C92.5009 115.125 92.4513 115.099 92.408 115.065C92.3648 115.031 92.3287 114.989 92.3018 114.941C92.2749 114.893 92.2578 114.84 92.2514 114.785C92.245 114.73 92.2494 114.675 92.2644 114.622L94.0651 108.311C94.0983 108.207 94.1705 108.121 94.2665 108.069C94.3625 108.018 94.4747 108.006 94.5795 108.036C94.6842 108.065 94.7732 108.135 94.8277 108.229C94.8822 108.323 94.8979 108.435 94.8715 108.54L93.0772 114.85C93.0521 114.939 92.9984 115.017 92.9244 115.072C92.8505 115.127 92.7604 115.156 92.6682 115.155Z" fill="#5D7183"/>
<path d="M87.4254 118.609C99.6891 118.948 108.32 127.447 108.32 127.447C108.431 143.297 98.1087 157.829 98.1087 157.829C91.14 150.272 76.7778 148.895 76.7778 148.895C87.7799 139.604 87.4254 118.609 87.4254 118.609Z" fill="white"/>
<path d="M98.1089 158.245C98.0509 158.245 97.9936 158.233 97.9406 158.21C97.8875 158.187 97.8398 158.153 97.8006 158.11C91.0196 150.755 76.8798 149.322 76.7382 149.31C76.6569 149.301 76.5799 149.269 76.5166 149.217C76.4534 149.165 76.4066 149.096 76.3821 149.018C76.3576 148.941 76.3564 148.857 76.3787 148.779C76.4009 148.7 76.4457 148.63 76.5075 148.576C79.5938 145.972 83.7132 140.667 85.8159 130.19C87.0743 123.898 87.0062 118.673 87.0062 118.622C87.0051 118.565 87.0156 118.509 87.037 118.457C87.0583 118.404 87.0901 118.356 87.1304 118.317C87.1707 118.277 87.2186 118.245 87.2714 118.225C87.3241 118.204 87.3805 118.194 87.4372 118.195C93.8606 118.374 99.274 120.797 102.684 122.799C106.377 124.967 108.525 127.065 108.615 127.153C108.694 127.231 108.739 127.337 108.74 127.449C108.797 135.713 105.997 143.6 103.638 148.759C101.084 154.345 98.477 158.037 98.4508 158.073C98.4147 158.124 98.3678 158.166 98.3134 158.197C98.2589 158.227 98.1984 158.245 98.1362 158.249L98.1089 158.245ZM77.7512 148.589C80.1825 148.932 82.5868 149.444 84.9465 150.123C88.9316 151.275 94.3849 153.422 98.0554 157.161C99.8863 154.365 101.499 151.432 102.879 148.389C105.187 143.347 107.913 135.667 107.899 127.627C107.391 127.154 105.356 125.333 102.236 123.503C98.9919 121.601 93.8899 119.312 87.842 119.044C87.7804 122.841 87.3771 126.625 86.637 130.35C85.8851 134.103 84.8175 137.496 83.4636 140.417C81.922 143.753 80.0028 146.497 77.7512 148.589Z" fill="#5D7183"/>
<path d="M94.6939 150.873C95.1252 151.321 95.7009 151.602 96.3194 151.666C96.7608 151.728 97.2106 151.68 97.6289 151.526C98.0471 151.372 98.4208 151.117 98.7168 150.784C99.3607 150.051 99.6679 148.794 99.3093 147.816C98.6874 146.124 96.4778 145.847 95.2371 146.528C93.8906 147.267 93.5865 149.701 94.6939 150.873Z" fill="#96E296"/>
<path d="M102.376 137.682C102.281 137.681 102.188 137.649 102.114 137.589C99.0799 135.146 93.5143 133.351 89.3195 132.484C89.2641 132.475 89.2112 132.454 89.1639 132.424C89.1167 132.393 89.076 132.354 89.0444 132.307C89.0127 132.261 88.9908 132.208 88.9798 132.153C88.9688 132.098 88.969 132.042 88.9804 131.987C88.9918 131.931 89.0141 131.879 89.0461 131.833C89.0781 131.787 89.119 131.748 89.1665 131.718C89.214 131.687 89.267 131.667 89.3225 131.658C89.378 131.649 89.4347 131.651 89.4894 131.664C93.7828 132.549 99.4941 134.401 102.644 136.936C102.712 136.99 102.762 137.064 102.785 137.148C102.809 137.232 102.806 137.321 102.777 137.403C102.748 137.485 102.695 137.555 102.623 137.606C102.552 137.656 102.467 137.682 102.38 137.682H102.376Z" fill="#5D7183"/>
<path d="M92.469 146.425C92.3648 146.426 92.2639 146.389 92.1858 146.32C90.7176 144.982 87.4383 143.553 84.8846 143.553H84.8731C84.7618 143.553 84.6551 143.509 84.5765 143.43C84.4978 143.352 84.4536 143.245 84.4536 143.134C84.4536 143.023 84.4978 142.916 84.5765 142.838C84.6551 142.759 84.7618 142.715 84.8731 142.715H84.8857C87.7235 142.715 91.178 144.263 92.7511 145.701C92.8153 145.757 92.8606 145.832 92.881 145.915C92.9014 145.998 92.8959 146.086 92.8652 146.165C92.8345 146.245 92.7801 146.314 92.7092 146.362C92.6384 146.41 92.5546 146.435 92.469 146.434V146.425Z" fill="#5D7183"/>
<path d="M101.219 143.663C101.122 143.664 101.027 143.63 100.952 143.568C98.2639 141.35 92.1426 138.721 87.3101 138.345C87.1989 138.337 87.0956 138.284 87.0232 138.199C86.9507 138.114 86.9149 138.004 86.9237 137.893C86.9324 137.782 86.985 137.679 87.0699 137.607C87.1547 137.534 87.2649 137.498 87.3762 137.507C92.5264 137.909 98.7107 140.629 101.487 142.919C101.553 142.974 101.601 143.049 101.624 143.132C101.646 143.215 101.643 143.303 101.614 143.384C101.584 143.465 101.531 143.535 101.46 143.585C101.39 143.635 101.305 143.661 101.219 143.661V143.663Z" fill="#5D7183"/>
<path d="M104.917 132.187C104.822 132.187 104.729 132.154 104.655 132.095C101.452 129.534 95.1734 127.468 90.3661 126.391C90.2575 126.367 90.163 126.3 90.1035 126.206C90.044 126.112 90.0244 125.998 90.0488 125.89C90.0733 125.781 90.1399 125.687 90.234 125.627C90.3282 125.568 90.442 125.548 90.5507 125.573C93.2852 126.181 95.9732 126.983 98.5943 127.971C101.448 129.064 103.664 130.232 105.179 131.443C105.247 131.497 105.297 131.571 105.321 131.655C105.345 131.738 105.343 131.827 105.314 131.91C105.285 131.992 105.231 132.063 105.16 132.113C105.089 132.163 105.004 132.19 104.917 132.19V132.187Z" fill="#5D7183"/>
<path d="M178.591 183.119C176.566 173.127 171.477 164.249 167.755 154.85C166.509 151.707 164.867 148.101 164.65 144.697C164.396 140.722 164.477 136.777 165.097 132.835C165.457 130.543 165.977 128.273 166.159 125.959C166.34 123.646 166.159 121.245 165.192 119.143C163.787 116.097 160.304 114.18 157.046 113.916C155.152 113.762 153.399 114.185 151.66 114.894C148.647 116.125 146.803 119.964 145.834 122.856C144.785 125.974 144.494 129.271 143.809 132.453C143.075 135.869 142.439 139.303 141.626 142.704C140.394 147.863 138.633 152.844 136.907 157.853C135.177 162.881 133.886 168.05 133.047 173.3C132.642 175.828 132.208 180.319 132.013 182.874L178.591 183.119Z" fill="white"/>
<path d="M175.934 113.487C177.507 116.204 178.194 119.54 177.335 122.884C175.922 128.384 170.924 129.545 166.638 128.498C164.751 128.037 162.838 127.05 161.742 125.201C160.885 123.756 160.61 121.937 159.792 120.461C158.867 118.79 158.953 117.813 157.241 117.669C154.693 117.46 150.655 119.66 148.071 119.166C145.8 118.731 145.389 115.673 146.172 113.643C148.009 108.878 152.303 107.838 156.323 107.245C160.891 106.571 165.963 106.203 170.361 108.252C172.594 109.295 174.589 111.166 175.934 113.487Z" fill="#FFE07B"/>
<path d="M152.13 114.904C152.032 114.904 151.937 114.869 151.862 114.807C151.787 114.744 151.736 114.657 151.718 114.561C151.262 112.109 153.673 109.807 155.531 108.955C157.389 108.103 159.527 108.417 162.094 109.898C163.44 110.676 164.662 111.679 165.703 112.554C166.444 113.182 167.522 113.579 168.744 113.683C169.834 113.776 170.713 113.31 171.729 112.77L172.069 112.59C172.168 112.539 172.283 112.529 172.389 112.562C172.495 112.595 172.584 112.669 172.636 112.767C172.687 112.866 172.697 112.981 172.664 113.087C172.631 113.193 172.557 113.282 172.458 113.333L172.124 113.51C171.037 114.088 170.011 114.632 168.672 114.518C167.285 114.401 166.04 113.93 165.167 113.194C164.154 112.341 162.964 111.368 161.679 110.623C159.364 109.284 157.47 108.986 155.887 109.712C154.322 110.43 152.178 112.418 152.549 114.404C152.569 114.513 152.545 114.626 152.482 114.717C152.419 114.809 152.322 114.872 152.213 114.892C152.186 114.899 152.158 114.903 152.13 114.904Z" fill="#5D7183"/>
<path d="M170.831 119.494C170.545 119.494 170.259 119.472 169.976 119.43C169.312 119.325 168.36 119.084 167.596 118.48C167.425 118.344 167.258 118.204 167.096 118.069C166.742 117.756 166.364 117.47 165.965 117.215C164.696 116.451 162.858 116.587 161.611 118.618C161.552 118.711 161.458 118.777 161.351 118.802C161.244 118.827 161.131 118.808 161.037 118.751C160.943 118.693 160.876 118.601 160.849 118.495C160.823 118.388 160.839 118.275 160.895 118.18C162.215 116.031 164.478 115.34 166.398 116.498C166.834 116.775 167.248 117.086 167.636 117.427C167.792 117.558 167.95 117.694 168.117 117.822C168.6 118.204 169.305 118.481 170.101 118.6C171.926 118.875 173.614 118.103 174.853 116.425C174.919 116.336 175.018 116.276 175.128 116.26C175.238 116.243 175.35 116.271 175.44 116.337C175.529 116.403 175.589 116.502 175.605 116.612C175.622 116.722 175.594 116.834 175.528 116.923C174.292 118.601 172.643 119.494 170.831 119.494Z" fill="#5D7183"/>
<path d="M172.339 125.996C171.42 125.996 170.48 125.62 169.769 125.158C169.268 124.814 168.787 124.442 168.329 124.043C167.685 123.505 167.077 122.995 166.383 122.651C165.85 122.385 164.384 122.022 163.26 122.581C163.211 122.605 163.158 122.62 163.103 122.624C163.048 122.628 162.992 122.622 162.94 122.604C162.888 122.587 162.839 122.56 162.797 122.524C162.756 122.488 162.721 122.444 162.697 122.395C162.672 122.345 162.657 122.292 162.653 122.237C162.649 122.182 162.656 122.127 162.673 122.075C162.69 122.022 162.718 121.974 162.754 121.932C162.79 121.891 162.834 121.856 162.883 121.832C164.24 121.151 165.98 121.517 166.763 121.901C167.546 122.284 168.219 122.855 168.871 123.401C169.305 123.778 169.76 124.131 170.234 124.457C171.773 125.47 173.007 125.233 173.597 124.723C173.681 124.654 173.789 124.62 173.898 124.63C174.007 124.639 174.108 124.691 174.18 124.773C174.251 124.856 174.288 124.963 174.281 125.072C174.275 125.181 174.226 125.283 174.145 125.357C173.642 125.784 172.999 126.012 172.339 125.996Z" fill="#5D7183"/>
<path d="M157.617 115.999C157.575 115.999 157.533 115.992 157.492 115.98C157.386 115.947 157.297 115.873 157.245 115.775C157.193 115.677 157.183 115.562 157.215 115.456C157.816 113.524 159.96 112.049 161.804 112.299C161.858 112.307 161.911 112.325 161.958 112.353C162.006 112.38 162.048 112.417 162.081 112.461C162.114 112.505 162.139 112.555 162.153 112.608C162.167 112.661 162.17 112.717 162.163 112.771C162.155 112.826 162.137 112.878 162.109 112.926C162.082 112.973 162.045 113.015 162.001 113.048C161.957 113.082 161.907 113.106 161.854 113.12C161.8 113.134 161.745 113.137 161.69 113.13C160.273 112.938 158.487 114.188 158.02 115.704C157.993 115.79 157.939 115.865 157.867 115.918C157.795 115.971 157.707 115.999 157.617 115.999Z" fill="#5D7183"/>
<path d="M169.098 110.3C169.035 110.3 168.972 110.285 168.915 110.258C168.516 110.064 168.078 109.962 167.634 109.961C167.19 109.96 166.752 110.059 166.352 110.251C166.302 110.278 166.247 110.295 166.191 110.301C166.135 110.306 166.078 110.3 166.024 110.283C165.97 110.266 165.92 110.238 165.877 110.201C165.834 110.164 165.799 110.118 165.774 110.067C165.749 110.016 165.735 109.961 165.732 109.904C165.729 109.848 165.738 109.791 165.757 109.738C165.777 109.685 165.807 109.636 165.846 109.595C165.885 109.554 165.932 109.521 165.984 109.499C166.498 109.25 167.062 109.121 167.633 109.121C168.204 109.121 168.768 109.25 169.282 109.499C169.367 109.54 169.436 109.609 169.477 109.695C169.518 109.78 169.529 109.878 169.508 109.97C169.487 110.063 169.434 110.145 169.36 110.204C169.286 110.263 169.193 110.296 169.098 110.295V110.3Z" fill="#5D7183"/>
<path d="M169.445 127.858C168.401 127.847 167.404 127.425 166.669 126.684C166.594 126.604 166.553 126.498 166.555 126.389C166.556 126.28 166.601 126.176 166.678 126.099C166.756 126.021 166.861 125.978 166.97 125.977C167.079 125.975 167.185 126.017 167.264 126.093C167.58 126.415 167.963 126.664 168.386 126.821C168.809 126.979 169.262 127.042 169.712 127.006C169.767 127.001 169.822 127.006 169.875 127.022C169.928 127.038 169.978 127.065 170.02 127.1C170.063 127.135 170.099 127.178 170.125 127.227C170.151 127.275 170.167 127.329 170.173 127.384C170.178 127.439 170.173 127.494 170.156 127.547C170.14 127.6 170.114 127.65 170.079 127.692C170.044 127.735 170.001 127.771 169.952 127.797C169.903 127.823 169.85 127.839 169.795 127.844C169.677 127.852 169.562 127.858 169.445 127.858Z" fill="#5D7183"/>
<path d="M172.678 122.914C171.326 122.914 169.966 122.518 168.959 121.563C168.883 121.485 168.841 121.381 168.84 121.273C168.84 121.165 168.881 121.061 168.955 120.982C169.03 120.904 169.132 120.857 169.24 120.852C169.348 120.847 169.454 120.884 169.536 120.955C171.139 122.475 173.835 122.304 175.568 121.374C175.616 121.341 175.671 121.319 175.728 121.309C175.786 121.299 175.845 121.301 175.902 121.315C175.958 121.329 176.012 121.355 176.058 121.39C176.104 121.426 176.142 121.471 176.17 121.522C176.198 121.573 176.215 121.63 176.22 121.688C176.224 121.746 176.217 121.805 176.198 121.86C176.178 121.915 176.148 121.965 176.108 122.008C176.068 122.051 176.02 122.084 175.966 122.107C174.952 122.638 173.823 122.915 172.678 122.914Z" fill="#5D7183"/>
<path d="M148.379 116.834C148.291 116.834 148.206 116.807 148.135 116.756C148.064 116.705 148.01 116.634 147.981 116.551C147.415 114.907 147.619 112.989 148.514 111.554C148.573 111.459 148.667 111.392 148.775 111.367C148.884 111.341 148.998 111.36 149.092 111.418C149.187 111.477 149.254 111.571 149.279 111.679C149.305 111.787 149.286 111.901 149.227 111.996C148.462 113.226 148.284 114.866 148.775 116.279C148.811 116.384 148.804 116.499 148.756 116.599C148.707 116.698 148.62 116.775 148.515 116.811C148.471 116.826 148.425 116.834 148.379 116.834Z" fill="#5D7183"/>
<path d="M148.326 135.11C148.091 135.113 147.858 135.068 147.64 134.978C147.423 134.888 147.227 134.755 147.063 134.586C146.247 133.756 146.233 132.177 146.691 131.117C146.713 131.067 146.745 131.021 146.785 130.983C146.824 130.945 146.871 130.915 146.922 130.894C146.974 130.874 147.028 130.864 147.084 130.865C147.139 130.866 147.193 130.878 147.244 130.9C147.294 130.922 147.34 130.954 147.378 130.993C147.416 131.033 147.447 131.08 147.467 131.131C147.487 131.182 147.497 131.237 147.496 131.292C147.495 131.347 147.483 131.401 147.461 131.452C147.078 132.333 147.17 133.5 147.66 134C147.975 134.314 148.435 134.353 149.035 134.104C149.693 133.833 150.189 133.114 150.232 132.356C150.239 132.245 150.289 132.141 150.373 132.067C150.456 131.993 150.566 131.956 150.677 131.962C150.788 131.969 150.892 132.02 150.966 132.103C151.04 132.187 151.078 132.296 151.071 132.407C151.004 133.491 150.315 134.485 149.356 134.879C149.032 135.023 148.682 135.101 148.326 135.11Z" fill="#5D7183"/>
<path d="M150.026 154.118C149.983 154.119 149.941 154.112 149.9 154.099C149.794 154.065 149.706 153.991 149.655 153.893C149.604 153.795 149.594 153.68 149.627 153.575C150.062 152.213 150.658 151.419 152.418 151.415H152.427C153.67 151.415 155.259 151.871 156.19 153.122C156.496 152.955 156.879 152.761 157.329 152.533C159.355 151.507 162.417 149.955 164.1 147.958C164.135 147.915 164.179 147.879 164.228 147.853C164.277 147.826 164.331 147.81 164.386 147.805C164.442 147.799 164.498 147.805 164.551 147.822C164.604 147.838 164.654 147.865 164.696 147.901C164.739 147.937 164.774 147.981 164.8 148.031C164.825 148.08 164.84 148.134 164.845 148.19C164.849 148.245 164.842 148.301 164.824 148.354C164.807 148.407 164.779 148.456 164.742 148.498C162.949 150.626 159.794 152.223 157.707 153.28C157.107 153.584 156.589 153.847 156.278 154.038C156.23 154.067 156.178 154.086 156.122 154.095C156.067 154.103 156.011 154.101 155.957 154.087C155.903 154.074 155.852 154.05 155.807 154.016C155.763 153.983 155.725 153.941 155.697 153.893C155.113 152.897 153.831 152.254 152.428 152.254H152.42C151.22 152.254 150.829 152.568 150.427 153.825C150.4 153.91 150.347 153.985 150.275 154.037C150.203 154.09 150.116 154.119 150.026 154.118Z" fill="#5D7183"/>
<path d="M150.027 154.119C149.995 154.119 149.963 154.115 149.932 154.107C149.878 154.095 149.827 154.072 149.783 154.04C149.738 154.008 149.699 153.968 149.67 153.921C149.641 153.874 149.621 153.822 149.612 153.768C149.603 153.713 149.605 153.658 149.617 153.604C149.846 152.621 149.419 152.388 149.279 152.311C148.402 151.834 146.368 152.449 145.599 153.242C145.542 153.3 145.469 153.341 145.389 153.359C145.31 153.377 145.227 153.371 145.15 153.343C145.074 153.314 145.007 153.264 144.959 153.198C144.91 153.132 144.882 153.054 144.878 152.972C144.68 152.591 143.505 151.155 143.326 150.965C142.484 150.078 141.587 149.244 140.64 148.47C140.595 148.435 140.558 148.393 140.53 148.344C140.502 148.295 140.484 148.241 140.478 148.185C140.471 148.129 140.476 148.073 140.491 148.019C140.507 147.965 140.534 147.914 140.569 147.871C140.605 147.827 140.649 147.791 140.699 147.765C140.749 147.739 140.803 147.723 140.86 147.718C140.916 147.714 140.972 147.72 141.026 147.738C141.079 147.756 141.129 147.784 141.171 147.821C142.145 148.618 143.069 149.476 143.935 150.389C144.028 150.486 144.497 151.048 144.897 151.56C145.122 151.849 145.303 152.084 145.438 152.284C145.973 151.918 146.567 151.648 147.195 151.485C147.776 151.329 148.873 151.134 149.68 151.576C150.1 151.805 150.759 152.399 150.434 153.795C150.413 153.887 150.361 153.969 150.287 154.027C150.213 154.086 150.122 154.118 150.027 154.119Z" fill="#5D7183"/>
<path d="M146.001 179.498H145.976C145.865 179.492 145.761 179.443 145.687 179.36C145.612 179.278 145.574 179.169 145.58 179.058C146.197 167.291 148.771 156.986 149.616 153.6C149.645 153.493 149.714 153.403 149.809 153.347C149.903 153.291 150.016 153.275 150.123 153.302C150.23 153.328 150.322 153.396 150.379 153.489C150.437 153.583 150.455 153.696 150.43 153.803C149.591 157.169 147.031 167.415 146.417 179.102C146.411 179.209 146.364 179.309 146.287 179.382C146.21 179.456 146.108 179.497 146.001 179.498Z" fill="#5D7183"/>
<path d="M151.085 152.495C150.99 152.495 150.897 152.463 150.823 152.404C150.749 152.345 150.697 152.262 150.675 152.17C150.654 152.077 150.665 151.98 150.706 151.895C150.747 151.809 150.816 151.74 150.901 151.699L152.215 151.062C158.193 148.168 161.485 146.574 163.665 142.543C163.723 142.456 163.812 142.393 163.914 142.368C164.015 142.343 164.123 142.356 164.215 142.406C164.307 142.457 164.377 142.539 164.411 142.639C164.446 142.738 164.441 142.846 164.399 142.942C162.092 147.21 158.711 148.847 152.577 151.816L151.264 152.453C151.208 152.48 151.147 152.494 151.085 152.495Z" fill="#5D7183"/>
<path d="M149.45 152.347C149.364 152.347 149.281 152.321 149.21 152.272C147.05 150.772 142.616 146.405 141.438 144.066C141.411 144.016 141.393 143.962 141.387 143.905C141.381 143.849 141.387 143.792 141.403 143.738C141.42 143.684 141.447 143.634 141.484 143.59C141.52 143.547 141.565 143.512 141.616 143.486C141.666 143.461 141.722 143.446 141.778 143.442C141.835 143.439 141.892 143.447 141.945 143.466C141.998 143.485 142.047 143.514 142.089 143.553C142.131 143.591 142.164 143.638 142.187 143.689C143.294 145.89 147.646 150.164 149.69 151.584C149.763 151.635 149.819 151.708 149.848 151.792C149.877 151.877 149.878 151.969 149.851 152.054C149.825 152.139 149.771 152.214 149.699 152.267C149.626 152.32 149.539 152.348 149.45 152.347Z" fill="#5D7183"/>
<path d="M178.251 182.086C178.157 182.086 178.065 182.054 177.991 181.995C177.917 181.937 177.865 181.855 177.843 181.763C176.355 175.458 173.66 169.422 171.053 163.585C169.803 160.786 168.511 157.893 167.367 155.004C167.198 154.58 167.023 154.146 166.842 153.706C165.709 150.907 164.423 147.734 164.231 144.724C163.953 140.373 164.101 136.463 164.682 132.77C164.798 132.037 164.933 131.286 165.063 130.564C165.335 129.047 165.619 127.478 165.74 125.927C165.95 123.284 165.644 121.122 164.811 119.319C163.37 116.195 159.856 114.565 157.012 114.333C155.378 114.201 153.727 114.502 151.819 115.282C148.789 116.52 147.018 120.64 146.232 122.987C145.558 125 145.192 127.137 144.838 129.204C144.651 130.3 144.457 131.435 144.219 132.54C143.952 133.777 143.694 135.039 143.446 136.258C143.007 138.405 142.553 140.625 142.034 142.799C140.88 147.607 139.256 152.333 137.68 156.904L137.305 157.987C135.737 162.552 134.529 167.233 133.694 171.986C133.684 172.04 133.664 172.092 133.634 172.139C133.605 172.185 133.566 172.225 133.521 172.257C133.476 172.288 133.425 172.311 133.371 172.323C133.317 172.334 133.262 172.336 133.208 172.326C133.153 172.317 133.101 172.296 133.055 172.267C133.008 172.237 132.968 172.199 132.937 172.154C132.905 172.109 132.883 172.058 132.871 172.004C132.859 171.95 132.858 171.895 132.867 171.84C133.711 167.044 134.931 162.322 136.515 157.717L136.888 156.632C138.461 152.08 140.081 147.374 141.22 142.606C141.736 140.446 142.188 138.233 142.626 136.093C142.875 134.871 143.133 133.607 143.401 132.365C143.634 131.277 143.827 130.152 144.013 129.065C144.373 126.969 144.747 124.797 145.438 122.723C146.453 119.691 148.331 115.808 151.504 114.508C153.538 113.676 155.312 113.356 157.082 113.5C160.168 113.751 163.992 115.539 165.577 118.97C166.47 120.907 166.798 123.205 166.58 125.99C166.454 127.583 166.168 129.173 165.891 130.711C165.762 131.427 165.629 132.169 165.514 132.898C164.943 136.529 164.798 140.38 165.072 144.669C165.255 147.544 166.513 150.649 167.624 153.39C167.802 153.832 167.979 154.267 168.148 154.694C169.285 157.566 170.574 160.456 171.819 163.241C174.44 169.114 177.154 175.185 178.659 181.568C178.672 181.622 178.674 181.678 178.665 181.732C178.656 181.787 178.636 181.839 178.607 181.885C178.578 181.932 178.539 181.973 178.494 182.005C178.449 182.037 178.399 182.06 178.345 182.072C178.314 182.08 178.283 182.085 178.251 182.086Z" fill="#5D7183"/>
<path d="M150.651 164.076C150.499 164.076 150.348 164.043 150.209 163.981C150.008 163.889 149.842 163.736 149.734 163.544C149.625 163.353 149.58 163.132 149.604 162.913C149.628 162.694 149.721 162.488 149.869 162.325C150.017 162.162 150.213 162.049 150.429 162.004C150.483 161.993 150.539 161.994 150.593 162.005C150.647 162.016 150.698 162.037 150.744 162.068C150.789 162.099 150.828 162.138 150.859 162.184C150.889 162.23 150.91 162.282 150.921 162.336C150.931 162.39 150.931 162.446 150.92 162.499C150.909 162.553 150.887 162.605 150.856 162.65C150.826 162.696 150.786 162.735 150.74 162.765C150.694 162.796 150.642 162.817 150.588 162.827C150.534 162.846 150.488 162.883 150.458 162.933C150.429 162.982 150.418 163.041 150.428 163.098C150.453 163.15 150.495 163.191 150.548 163.215C150.601 163.238 150.661 163.242 150.716 163.225C150.767 163.201 150.821 163.187 150.877 163.184C150.933 163.181 150.989 163.189 151.042 163.208C151.095 163.227 151.143 163.256 151.184 163.294C151.225 163.332 151.259 163.378 151.282 163.429C151.305 163.48 151.318 163.535 151.319 163.591C151.321 163.647 151.311 163.702 151.291 163.754C151.27 163.807 151.24 163.854 151.201 163.894C151.162 163.934 151.115 163.966 151.063 163.988C150.934 164.047 150.793 164.077 150.651 164.076Z" fill="#5D7183"/>
<path d="M149.624 174.061C149.47 174.062 149.317 174.031 149.176 173.969C149.035 173.906 148.909 173.815 148.806 173.7C148.704 173.585 148.627 173.45 148.581 173.303C148.535 173.156 148.521 173.001 148.539 172.848C148.554 172.699 148.601 172.555 148.678 172.426C148.754 172.297 148.859 172.187 148.983 172.104C149.076 172.043 149.189 172.021 149.298 172.044C149.407 172.067 149.503 172.131 149.564 172.224C149.625 172.317 149.647 172.431 149.624 172.54C149.601 172.648 149.536 172.744 149.443 172.805C149.423 172.82 149.406 172.841 149.394 172.864C149.382 172.887 149.375 172.912 149.374 172.938C149.366 172.983 149.371 173.028 149.388 173.071C149.405 173.113 149.433 173.15 149.469 173.177C149.506 173.204 149.549 173.221 149.594 173.225C149.639 173.229 149.685 173.221 149.725 173.201C149.775 173.175 149.83 173.16 149.886 173.156C149.941 173.152 149.998 173.159 150.051 173.177C150.104 173.194 150.153 173.223 150.195 173.26C150.237 173.297 150.271 173.342 150.295 173.392C150.319 173.443 150.333 173.498 150.336 173.554C150.339 173.609 150.33 173.665 150.311 173.718C150.291 173.77 150.262 173.819 150.224 173.859C150.185 173.9 150.139 173.933 150.088 173.956C149.943 174.025 149.785 174.061 149.624 174.061Z" fill="#5D7183"/>
<path d="M132.362 156.69C127.643 156.69 122.592 153.074 120.447 149.49C118.184 145.709 116.207 141.024 114.404 135.169C114.159 134.377 113.945 133.474 113.719 132.517C112.764 128.49 111.683 123.926 107.659 123.298C106.598 123.153 105.522 123.424 104.657 124.054C104.037 124.514 103.647 125.118 103.559 125.755C103.551 125.81 103.533 125.863 103.505 125.91C103.477 125.957 103.44 125.999 103.396 126.032C103.352 126.065 103.302 126.09 103.248 126.103C103.195 126.117 103.139 126.12 103.085 126.113C103.03 126.105 102.978 126.087 102.93 126.059C102.883 126.031 102.841 125.994 102.808 125.95C102.775 125.906 102.75 125.856 102.737 125.803C102.723 125.749 102.72 125.694 102.727 125.639C102.848 124.778 103.356 123.976 104.157 123.381C105.201 122.615 106.505 122.288 107.787 122.472C112.368 123.183 113.569 128.252 114.534 132.32C114.757 133.263 114.968 134.152 115.204 134.918C116.987 140.709 118.938 145.332 121.166 149.055C122.279 150.916 124.166 152.722 126.342 153.998C128.638 155.347 131.022 155.995 133.054 155.819C135.676 155.592 137.618 154.006 138.682 151.231C138.724 151.129 138.803 151.047 138.904 151.003C139.005 150.959 139.119 150.957 139.222 150.996C139.324 151.035 139.407 151.113 139.453 151.213C139.499 151.313 139.503 151.427 139.466 151.531C137.965 155.442 135.19 156.475 133.126 156.654C132.874 156.679 132.619 156.691 132.362 156.69Z" fill="#5D7183"/>
<path d="M158.221 179.546C158 179.546 157.778 179.541 157.554 179.532C154.154 179.391 150.633 178.293 146.482 176.075L146.167 175.907C144.862 175.206 143.511 174.481 142.087 174.451C141.209 174.44 140.361 174.771 139.724 175.374C139.429 175.665 139.078 176.15 139.084 176.805C139.084 176.916 139.04 177.023 138.961 177.101C138.883 177.18 138.776 177.224 138.665 177.224C138.553 177.224 138.447 177.18 138.368 177.101C138.289 177.023 138.245 176.916 138.245 176.805C138.239 176.055 138.546 175.351 139.135 174.77C139.934 174.009 141 173.591 142.104 173.605C143.73 173.64 145.171 174.413 146.565 175.162L146.879 175.328C150.918 177.482 154.325 178.549 157.591 178.68C161.628 178.847 165.384 177.405 167.64 174.822C172.221 169.575 168.862 158.069 166.446 152.716C166.403 152.615 166.402 152.501 166.442 152.399C166.482 152.297 166.56 152.215 166.66 152.17C166.76 152.125 166.873 152.121 166.976 152.158C167.079 152.196 167.163 152.272 167.211 152.371C168.824 155.942 170.065 160.245 170.533 163.885C171.196 169.029 170.434 172.895 168.272 175.37C165.974 178.017 162.254 179.546 158.221 179.546Z" fill="#5D7183"/>
<path d="M181.436 183.417H148.834C148.723 183.417 148.616 183.373 148.537 183.294C148.459 183.215 148.415 183.109 148.415 182.998C148.415 182.886 148.459 182.78 148.537 182.701C148.616 182.622 148.723 182.578 148.834 182.578H181.436C181.548 182.578 181.654 182.622 181.733 182.701C181.812 182.78 181.856 182.886 181.856 182.998C181.856 183.109 181.812 183.215 181.733 183.294C181.654 183.373 181.548 183.417 181.436 183.417Z" fill="#5D7183"/>
<path d="M89.4 240.168C89.2887 240.168 89.182 240.124 89.1033 240.045C89.0247 239.967 88.9805 239.86 88.9805 239.749V182.997C88.9805 182.886 89.0247 182.779 89.1033 182.701C89.182 182.622 89.2887 182.578 89.4 182.578H99.9668C100.078 182.578 100.185 182.622 100.263 182.701C100.342 182.779 100.386 182.886 100.386 182.997C100.386 183.108 100.342 183.215 100.263 183.294C100.185 183.372 100.078 183.416 99.9668 183.416H89.8194V239.749C89.8194 239.86 89.7752 239.967 89.6966 240.045C89.6179 240.124 89.5112 240.168 89.4 240.168Z" fill="#5D7183"/>
<path d="M144.857 180.353C143.914 179.83 142.688 179.802 141.612 179.796C139.124 179.78 136.285 179.796 134.673 179.808C132.75 174.633 130.193 166.387 128.998 162.56C128.652 161.451 127.628 161.027 126.464 161.011C123.968 160.978 100.237 160.747 98.0093 160.858C97.7453 160.87 97.4873 160.94 97.2539 161.064C97.0205 161.188 96.8176 161.362 96.6598 161.574C96.502 161.786 96.3933 162.03 96.3416 162.289C96.2899 162.548 96.2964 162.815 96.3607 163.071C96.646 164.219 96.9386 165.366 97.2385 166.51C98.1824 170.15 99.1692 173.789 100.331 177.367C100.777 178.741 101.194 180.216 101.881 181.495C102.669 182.962 104.571 182.821 105.971 182.803C105.971 182.803 126.485 182.818 133.725 182.885L145.932 182.998C146.361 182.012 145.798 180.87 144.857 180.353ZM133.376 179.807C133.376 179.807 133.371 179.807 133.376 179.807V179.807Z" fill="white"/>
<path d="M145.936 183.417L133.73 183.304C126.574 183.238 106.184 183.223 105.978 183.223H105.7C104.295 183.248 102.372 183.282 101.516 181.69C100.917 180.575 100.523 179.336 100.142 178.137C100.072 177.92 100.002 177.705 99.9324 177.492C98.8249 174.079 97.8916 170.674 96.8324 166.612C96.5178 165.421 96.2273 164.263 95.9546 163.167C95.8764 162.851 95.8693 162.522 95.9336 162.204C95.9979 161.885 96.1321 161.584 96.3265 161.324C96.521 161.063 96.7708 160.849 97.0581 160.696C97.3454 160.543 97.663 160.456 97.9881 160.441C100.241 160.328 124.295 160.563 126.469 160.593C127.993 160.614 129.033 161.267 129.398 162.435C129.589 163.046 129.807 163.751 130.047 164.531C131.578 169.478 133.891 176.953 135.555 180.947C135.579 180.998 135.592 181.054 135.594 181.11C135.596 181.167 135.586 181.223 135.566 181.276C135.545 181.328 135.514 181.376 135.475 181.417C135.435 181.457 135.388 181.489 135.336 181.511C135.284 181.533 135.228 181.543 135.171 181.543C135.115 181.542 135.059 181.531 135.007 181.508C134.955 181.485 134.908 181.452 134.87 181.411C134.831 181.37 134.801 181.322 134.781 181.269C133.103 177.239 130.781 169.744 129.246 164.778C129.006 164.003 128.788 163.298 128.597 162.688C128.282 161.671 127.259 161.444 126.458 161.431C124.286 161.401 100.266 161.166 98.03 161.278C97.8283 161.287 97.6313 161.341 97.4531 161.436C97.2749 161.531 97.12 161.664 96.9996 161.826C96.8792 161.988 96.7962 162.174 96.7568 162.372C96.7174 162.57 96.7224 162.774 96.7715 162.97C97.0432 164.063 97.3378 165.218 97.6483 166.405C98.7033 170.453 99.6324 173.844 100.734 177.238C100.804 177.453 100.873 177.671 100.943 177.889C101.312 179.051 101.694 180.252 102.256 181.298C102.87 182.441 104.366 182.414 105.686 182.39H105.974C106.184 182.39 126.579 182.405 133.739 182.471L145.639 182.576C145.796 181.835 145.302 181.076 144.659 180.72C143.841 180.266 142.751 180.223 141.618 180.216C138.99 180.2 137.366 180.229 136.673 180.242C136.54 180.242 136.44 180.242 136.374 180.242H136.361C135.941 180.242 135.863 180 135.852 179.855C135.845 179.748 135.88 179.641 135.948 179.558C136.017 179.474 136.114 179.42 136.221 179.405C136.259 179.4 136.297 179.4 136.335 179.405H136.657C137.354 179.391 138.984 179.361 141.622 179.378C142.873 179.385 144.077 179.437 145.069 179.987C146.259 180.646 146.814 182.042 146.328 183.164C146.295 183.24 146.24 183.305 146.17 183.35C146.101 183.395 146.019 183.419 145.936 183.417Z" fill="#5D7183"/>
<path d="M112.248 171.222C112.33 172.319 112.994 173.394 114.009 173.882C114.883 174.301 115.979 174.313 116.791 173.784C118.665 172.562 117.962 169.644 116.162 168.755C114.252 167.806 112.086 169.043 112.248 171.222Z" fill="#EEEEEE"/>
<path d="M72.9165 177.077C72.8499 177.078 72.7843 177.062 72.7251 177.032C72.6658 177.001 72.6146 176.957 72.5757 176.904C70.9575 174.651 72.4435 172.027 73.7544 169.711C74.3144 168.72 74.844 167.784 75.102 166.951C76.1288 163.638 76.3566 160.131 75.7669 156.714C74.6857 150.585 70.9931 145.475 67.4212 140.535C65.5052 137.886 63.5242 135.145 61.9406 132.259C61.91 132.21 61.8895 132.156 61.8806 132.1C61.8717 132.043 61.8745 131.985 61.8888 131.93C61.903 131.874 61.9286 131.822 61.9637 131.777C61.9989 131.732 62.043 131.694 62.0932 131.667C62.1435 131.639 62.1988 131.622 62.2559 131.617C62.313 131.612 62.3705 131.618 62.425 131.636C62.4795 131.654 62.5298 131.682 62.5727 131.72C62.6157 131.758 62.6504 131.804 62.6747 131.856C64.2331 134.701 66.1984 137.42 68.0987 140.048C71.7262 145.067 75.4764 150.255 76.5933 156.574C77.2062 160.122 76.9697 163.763 75.9032 167.202C75.619 168.123 75.0643 169.097 74.4843 170.128C73.2395 172.328 71.9517 174.603 73.2573 176.414C73.3221 176.505 73.3483 176.617 73.3302 176.726C73.3121 176.836 73.2512 176.934 73.1608 176.999C73.0896 177.05 73.0042 177.077 72.9165 177.077Z" fill="#5D7183"/>
<path d="M71.3204 172.938C73.2647 196.92 62.2857 221.302 44.7418 237.475C43.8808 238.269 42.7943 239.112 41.56 238.941C40.2942 238.769 39.515 237.53 39.5674 236.408C39.6199 235.286 40.2785 234.262 40.9213 233.29L49.3897 217.385L47.5859 175.151L71.3204 172.938Z" fill="#DFE2EA"/>
<path d="M41.8873 239.41C41.7589 239.41 41.6307 239.401 41.5035 239.384C39.9734 239.174 39.0914 237.68 39.147 236.416C39.2026 235.151 39.9619 234.006 40.5701 233.087C40.633 232.998 40.7281 232.937 40.8352 232.917C40.9423 232.897 41.0531 232.92 41.144 232.98C41.2349 233.04 41.2988 233.133 41.3223 233.239C41.3457 233.345 41.3268 233.457 41.2696 233.549C40.6897 234.427 40.0321 235.422 39.9849 236.455C39.944 237.35 40.5565 238.408 41.6178 238.55C42.6791 238.691 43.6397 237.943 44.4567 237.188C48.7657 233.22 52.6514 228.816 56.0513 224.047C59.3696 219.391 62.1913 214.402 64.4703 209.159C66.7068 204.012 68.3771 198.637 69.4517 193.13C70.5147 187.679 70.9457 182.124 70.7364 176.574C70.7321 176.463 70.7722 176.355 70.8478 176.273C70.9234 176.192 71.0284 176.143 71.1396 176.139C71.2509 176.135 71.3593 176.175 71.441 176.25C71.5227 176.326 71.5711 176.431 71.5754 176.542C71.7871 182.157 71.3511 187.778 70.276 193.294C69.1903 198.861 67.5024 204.292 65.2422 209.495C62.9387 214.792 60.086 219.834 56.7308 224.537C53.2971 229.353 49.3732 233.801 45.0219 237.809C44.1546 238.612 43.1112 239.41 41.8873 239.41Z" fill="#5D7183"/>
<path d="M22.9495 172.069C22.0057 187.01 27.976 204.128 33.9893 216.952C36.2567 221.786 38.7306 226.553 41.4782 231.187C42.4546 232.834 46.8739 242.486 49.8501 239C50.8988 237.775 50.9796 235.468 51.1914 234.018C51.5543 231.535 51.5427 229.06 51.6434 226.565C51.7934 222.883 51.6319 219.167 51.6612 215.482C51.7231 207.42 52.0461 179.256 51.7284 171.197L22.9495 172.069Z" fill="#DFE2EA"/>
<path d="M48.424 240.169C48.3451 240.169 48.2664 240.165 48.188 240.156C45.6291 239.876 43.0325 234.983 41.6377 232.353C41.4133 231.934 41.2361 231.599 41.1134 231.398C38.4916 226.978 36.0365 222.309 33.6056 217.126C25.6836 200.238 22.0698 186.37 22.57 174.73C22.5747 174.619 22.6234 174.514 22.7055 174.439C22.7875 174.363 22.896 174.324 23.0073 174.329C23.1186 174.333 23.2234 174.382 23.2987 174.464C23.374 174.546 23.4137 174.654 23.409 174.765C22.9192 186.267 26.5037 200.007 34.3659 216.77C36.7853 221.929 39.2288 226.574 41.8359 230.97C41.9649 231.188 42.1505 231.53 42.375 231.961C43.5076 234.095 46.1598 239.086 48.2761 239.324C48.7333 239.373 49.1413 239.177 49.5283 238.724C50.3085 237.809 50.5078 236.134 50.6672 234.788C50.7028 234.492 50.7353 234.212 50.772 233.95C51.0478 232.064 51.1055 230.136 51.1622 228.272C51.1789 227.705 51.1968 227.119 51.2209 226.541C51.3132 224.264 51.2859 221.931 51.2597 219.678C51.2429 218.299 51.2261 216.872 51.2377 215.471L51.2545 213.314C51.3142 206.097 51.375 198.636 51.0867 191.306C51.0844 191.251 51.0931 191.196 51.1122 191.145C51.1312 191.093 51.1603 191.045 51.1977 191.005C51.2351 190.964 51.2801 190.932 51.3301 190.909C51.3802 190.886 51.4343 190.873 51.4894 190.87C51.5445 190.868 51.5994 190.877 51.6512 190.896C51.7029 190.915 51.7504 190.944 51.7909 190.981C51.8314 191.019 51.8642 191.064 51.8873 191.114C51.9104 191.164 51.9234 191.218 51.9256 191.273C52.2151 198.622 52.1542 206.094 52.0945 213.32L52.0777 215.477C52.0662 216.87 52.0829 218.292 52.0997 219.668C52.1259 221.934 52.1532 224.278 52.0599 226.574C52.0368 227.148 52.019 227.727 52.0022 228.297C51.9445 230.183 51.8858 232.139 51.6037 234.07C51.568 234.317 51.5345 234.594 51.4988 234.882C51.3258 236.341 51.1097 238.155 50.1648 239.264C49.6583 239.867 49.0752 240.169 48.424 240.169Z" fill="#5D7183"/>
<path d="M70.6514 175.317C60.7169 178.525 50.0724 179.458 39.7195 178.146C36.4685 177.734 33.1042 177.273 29.892 176.415C28.2671 175.987 26.6764 175.439 25.1329 174.776C23.5221 174.075 22.1043 173.617 22.0172 171.649C21.9008 168.997 22.5762 166.178 22.9443 163.553C24.3915 153.212 29.0342 143.71 32.2527 133.869C33.3308 130.574 34.7843 126.789 34.7937 123.296C34.8053 119.216 34.4791 115.187 33.5971 111.195C33.0854 108.874 32.4121 106.585 32.0828 104.231C31.7535 101.877 31.7829 99.4179 32.6459 97.2031C33.8929 94.0004 37.3337 91.8243 40.6476 91.3508C42.5752 91.0763 44.3937 91.3979 46.2153 92.016C49.3719 93.0868 51.4987 96.8961 52.6691 99.7909C53.9275 102.914 54.4382 106.267 55.338 109.478C56.3039 112.925 57.166 116.392 58.2084 119.82C59.7909 125.02 61.9009 130.003 63.9763 135.012C66.0581 140.045 67.7012 145.248 68.8874 150.564C70.0785 155.987 70.8331 161.497 71.1443 167.041C71.3023 169.688 71.354 172.339 71.2995 174.993L70.6514 175.317Z" fill="white"/>
<path d="M54.1865 91.8639C53.6212 89.1755 50.1793 87.3494 47.8491 88.8109C48.6052 86.6108 47.4433 83.9308 45.3207 82.9774C43.1981 82.024 40.419 82.9324 39.2727 84.9565C37.3504 82.8831 33.8267 82.5563 31.5531 84.2399C29.2795 85.9235 28.5716 89.3861 30 91.8261C27.8889 90.438 24.7931 92.5029 24.5613 95.0174C24.3296 97.5318 26.1627 99.842 28.3524 101.102C25.7632 102.852 25.5356 107.074 27.7494 109.281C29.9633 111.487 33.9368 111.397 36.244 109.292C38.2869 107.43 38.9329 104.321 38.1086 101.685C39.0923 102.104 40.2942 102.014 41.1751 101.399C42.293 100.62 42.7943 99.0646 42.3413 97.7812C44.8089 98.9954 47.7788 99.4575 50.322 98.4098C52.8651 97.3621 54.7517 94.5533 54.1865 91.8639Z" fill="#C7A4FF"/>
<path d="M48.7815 179.139C45.7344 179.139 42.6903 178.948 39.6671 178.568C36.4382 178.159 33.0141 177.689 29.7841 176.825C28.1387 176.392 26.5279 175.837 24.9652 175.165L24.6265 175.019C23.1163 174.374 21.6901 173.762 21.5988 171.673C21.5107 169.682 21.8579 167.612 22.1935 165.611C22.3162 164.878 22.4315 164.191 22.529 163.501C23.539 156.282 26.1282 149.383 28.6336 142.712C29.7337 139.778 30.8705 136.751 31.8542 133.745C32.001 133.297 32.1542 132.84 32.3094 132.377C33.2731 129.506 34.3659 126.252 34.3743 123.299C34.3869 118.899 33.9988 114.969 33.1871 111.291C33.0246 110.557 32.8421 109.802 32.6628 109.077C32.2842 107.523 31.892 105.916 31.6655 104.295C31.268 101.459 31.4557 99.0915 32.2527 97.0569C33.6549 93.4539 37.4491 91.39 40.5869 90.9416C42.3865 90.6849 44.2165 90.9018 46.3485 91.6247C48.1817 92.247 50.8328 94.1391 53.0603 99.6395C53.8993 101.716 54.4152 103.911 54.9123 106.03C55.1703 107.131 55.4367 108.269 55.745 109.367C56.0963 110.624 56.4382 111.895 56.7696 113.129C57.3506 115.291 57.9504 117.53 58.6132 119.702C60.072 124.505 62.0247 129.22 63.9134 133.774L64.3644 134.861C66.4535 139.917 68.1026 145.144 69.2933 150.482C70.4553 155.689 71.2177 161.253 71.5607 167.017C71.718 169.673 71.7704 172.36 71.7159 175.003C71.7142 175.08 71.6917 175.154 71.6509 175.218C71.6101 175.283 71.5524 175.335 71.4841 175.369L70.836 175.694C70.8169 175.703 70.7973 175.711 70.7773 175.718C63.668 177.994 56.2469 179.148 48.7815 179.139ZM42.0488 91.6771C41.6004 91.6768 41.1525 91.7083 40.7085 91.7714C37.813 92.1852 34.3177 94.0763 33.0372 97.3607C32.3031 99.2581 32.1227 101.489 32.4992 104.179C32.7205 105.758 33.1074 107.344 33.4808 108.879C33.6591 109.612 33.8436 110.364 34.0051 111.111C34.8294 114.85 35.2237 118.837 35.2112 123.302C35.2028 126.39 34.0869 129.712 33.1032 132.644C32.948 133.106 32.7949 133.559 32.6502 134.006C31.6602 137.03 30.5203 140.068 29.417 143.007C26.9284 149.637 24.3549 156.491 23.3575 163.618C23.259 164.319 23.1373 165.047 23.0188 165.751C22.6905 167.708 22.3508 169.733 22.4347 171.637C22.5028 173.201 23.5316 173.641 24.9516 174.25L25.2945 174.398C26.8193 175.053 28.3903 175.594 29.9948 176.018C33.1756 176.866 36.5661 177.332 39.7678 177.737C50.1144 179.044 60.7421 178.074 70.4868 174.931L70.88 174.734C70.9262 172.195 70.8727 169.616 70.7206 167.067C70.3861 161.347 69.63 155.831 68.4764 150.665C67.2953 145.373 65.6595 140.193 63.5873 135.182L63.1374 134.095C61.2403 129.52 59.2802 124.791 57.8057 119.951C57.1398 117.761 56.5378 115.519 55.9558 113.35C55.6244 112.119 55.2825 110.845 54.9333 109.597C54.6187 108.482 54.3512 107.335 54.0943 106.225C53.6046 104.13 53.097 101.972 52.2821 99.9548C51.331 97.6038 49.2618 93.4979 46.0832 92.4199C44.6108 91.9222 43.2988 91.6771 42.0488 91.6771Z" fill="#5D7183"/>
<path d="M45.9036 129.078C41.6951 129.078 37.4877 127.611 34.5576 125.116C34.4729 125.044 34.4203 124.941 34.4115 124.83C34.4026 124.719 34.4382 124.609 34.5104 124.525C34.5826 124.44 34.6854 124.388 34.7964 124.379C34.9073 124.37 35.0172 124.406 35.1019 124.478C38.0005 126.95 42.2258 128.354 46.4049 128.233C50.5841 128.111 54.7737 126.461 57.6062 123.82C57.6876 123.744 57.7958 123.703 57.907 123.707C58.0182 123.711 58.1234 123.759 58.1993 123.84C58.2752 123.921 58.3157 124.03 58.3119 124.141C58.3081 124.252 58.2602 124.357 58.1788 124.433C55.2005 127.209 50.8085 128.943 46.4332 129.071C46.2539 129.075 46.0788 129.078 45.9036 129.078Z" fill="#5D7183"/>
<path d="M57.0192 142.815C56.9237 142.815 56.8311 142.782 56.7568 142.722C56.6824 142.663 56.6307 142.579 56.6102 142.486L53.3445 127.674C53.3238 127.567 53.3459 127.456 53.406 127.365C53.4661 127.273 53.5594 127.209 53.6662 127.186C53.7729 127.162 53.8847 127.181 53.9775 127.239C54.0704 127.296 54.1372 127.388 54.1635 127.494L57.4292 142.306C57.4531 142.414 57.4334 142.527 57.3745 142.62C57.3156 142.713 57.2222 142.78 57.1146 142.805C57.0834 142.812 57.0513 142.816 57.0192 142.815Z" fill="#5D7183"/>
<path d="M51.5659 112.044C51.8806 111.006 51.9854 109.62 51.6939 108.557C50.8766 109.006 50.06 109.456 49.2441 109.906C49.0018 110.039 48.7522 110.179 48.596 110.407C48.3695 110.736 48.3862 111.175 48.4733 111.566C48.6474 112.387 49.0742 113.619 50.1135 113.556C50.8706 113.518 51.3698 112.693 51.5659 112.044Z" fill="#5D7183"/>
<path d="M51.7167 133.35C51.3674 133.461 51.0665 133.804 51.1755 134.205C51.2332 134.387 51.3605 134.539 51.5297 134.627C51.6988 134.716 51.8961 134.734 52.0785 134.677C52.2612 134.596 52.4062 134.448 52.4841 134.263C52.5619 134.079 52.5669 133.872 52.498 133.684C52.3511 133.331 52.0166 133.255 51.7167 133.35Z" fill="#5D7183"/>
<path d="M52.6752 137.787C52.3259 137.897 52.025 138.241 52.134 138.643C52.1917 138.825 52.319 138.976 52.4882 139.065C52.6573 139.153 52.8546 139.171 53.037 139.115C53.22 139.033 53.3651 138.885 53.443 138.7C53.5209 138.516 53.5257 138.309 53.4565 138.121C53.3096 137.768 52.9751 137.693 52.6752 137.787Z" fill="#5D7183"/>
<path d="M59.9816 166.269C59.7939 166.269 59.6061 166.269 59.4195 166.262C56.1046 166.177 52.8543 165.327 49.9234 163.777C46.901 162.176 44.4197 159.901 42.7481 157.196C39.173 151.416 38.053 146.091 39.4205 141.365C39.4514 141.259 39.5234 141.168 39.6209 141.115C39.7183 141.061 39.8332 141.048 39.9401 141.079C40.0471 141.11 40.1374 141.182 40.1912 141.279C40.2449 141.377 40.2578 141.491 40.2269 141.598C38.9276 146.085 40.0172 151.184 43.4612 156.755C45.0552 159.332 47.4253 161.505 50.3166 163.041C53.1328 164.529 56.2555 165.346 59.4405 165.429C62.509 165.505 65.6279 164.936 68.7132 163.743C71.6928 162.578 74.4602 160.931 76.9047 158.868C79.2308 156.925 81.0083 154.661 82.8918 152.268L83.5137 151.478C84.1922 150.619 85.0375 149.548 86.2844 149.143C86.3373 149.124 86.3937 149.115 86.45 149.118C86.5063 149.121 86.5616 149.135 86.6123 149.16C86.6631 149.184 86.7084 149.219 86.7454 149.261C86.7825 149.304 86.8107 149.353 86.8282 149.407C86.8457 149.46 86.8522 149.517 86.8473 149.573C86.8424 149.629 86.8262 149.684 86.7998 149.733C86.7733 149.783 86.737 149.827 86.6932 149.863C86.6493 149.898 86.5987 149.924 86.5445 149.94C85.5388 150.267 84.7805 151.226 84.1723 151.997L83.5515 152.792C81.6407 155.223 79.8359 157.52 77.4437 159.52C74.9289 161.638 72.0829 163.329 69.0194 164.526C66.019 165.678 62.983 166.269 59.9816 166.269Z" fill="#5D7183"/>
</g>
<path d="M226.201 178.69C224.664 178.694 223.136 178.461 221.672 177.999C221.612 177.98 221.556 177.949 221.508 177.909C221.46 177.868 221.42 177.819 221.391 177.763C221.362 177.707 221.345 177.646 221.34 177.584C221.334 177.522 221.342 177.459 221.361 177.399C221.38 177.34 221.411 177.284 221.452 177.236C221.492 177.189 221.542 177.149 221.598 177.121C221.654 177.092 221.716 177.075 221.778 177.069C221.841 177.064 221.905 177.071 221.965 177.09C225.187 178.114 228.78 177.918 232.353 176.521C235.661 175.227 238.764 172.958 241.091 170.132C243.553 167.141 245.515 163.393 247.076 158.66C247.248 158.134 247.401 157.3 247.576 156.333C248.176 153.054 248.993 148.568 251.966 148.717C252.094 148.723 252.213 148.779 252.299 148.873C252.384 148.967 252.428 149.091 252.422 149.218C252.415 149.344 252.359 149.463 252.264 149.548C252.169 149.633 252.045 149.677 251.917 149.67H251.837C249.767 149.67 249.019 153.776 248.522 156.506C248.34 157.508 248.181 158.372 247.987 158.96C246.385 163.803 244.373 167.661 241.835 170.739C239.407 173.69 236.163 176.059 232.704 177.413C230.637 178.241 228.43 178.674 226.201 178.69Z" fill="#5D7183"/>
<path d="M228.969 273.873C224.422 272.713 225.194 264.502 225.071 260.721C224.815 252.869 223.563 246.152 217.405 240.359C210.226 233.603 201.542 230.845 193.529 226.056C190.701 224.365 192.448 214.282 192.098 210.969C191.18 202.163 207.058 198.62 213.347 200.811C218.617 202.648 222.897 206.608 226.601 210.846C231.989 217.009 238.773 223.05 240.485 231.458C242.064 239.205 239.85 247.53 237.711 254.977C236.711 258.446 230.803 274.34 228.969 273.873Z" fill="#DFE2EA"/>
<path d="M229.06 274.362C228.988 274.362 228.917 274.353 228.847 274.335C224.593 273.249 224.601 266.834 224.606 262.588C224.606 261.911 224.606 261.277 224.589 260.737C224.329 252.712 222.951 246.235 217.074 240.705C212.862 236.746 207.699 234.194 202.691 231.722C199.242 230.019 195.984 228.409 193.245 226.438C193.142 226.364 193.073 226.252 193.053 226.127C193.033 226.002 193.064 225.874 193.138 225.772C193.213 225.669 193.326 225.601 193.452 225.581C193.578 225.561 193.706 225.591 193.809 225.666C196.483 227.592 199.706 229.183 203.118 230.867C208.184 233.37 213.422 235.956 217.734 240.013C223.849 245.766 225.281 252.446 225.55 260.706C225.568 261.257 225.566 261.898 225.566 262.589C225.566 266.523 225.554 272.469 229.048 273.401C229.23 273.331 230.332 272.614 233.37 265.32C235.179 260.979 236.78 256.445 237.24 254.842C239.556 246.78 241.51 238.932 240.001 231.548C238.61 224.718 233.78 219.447 229.109 214.351C228.509 213.696 227.889 213.02 227.293 212.356C227.208 212.262 227.165 212.137 227.172 212.011C227.18 211.884 227.237 211.766 227.333 211.681C227.429 211.597 227.554 211.554 227.681 211.561C227.809 211.569 227.928 211.626 228.013 211.721C228.613 212.382 229.227 213.056 229.825 213.708C234.583 218.901 239.504 224.271 240.947 231.36C242.495 238.953 240.514 246.924 238.165 255.104C237.684 256.773 235.956 261.653 234.09 266.085C231.154 273.073 229.891 274.362 229.06 274.362Z" fill="#5D7183"/>
<path d="M152.648 266.14C151.214 261.677 158.585 257.964 161.725 255.849C168.246 251.457 173.274 246.827 174.911 238.537C176.821 228.87 174.541 220.056 174.34 210.73C174.271 207.438 183.747 203.555 186.369 201.496C193.347 196.038 204.793 207.588 206.279 214.073C207.525 219.509 206.443 225.236 204.82 230.624C202.46 238.46 200.946 247.412 194.729 253.331C189 258.786 180.766 261.34 173.315 263.489C169.843 264.488 153.227 267.941 152.648 266.14Z" fill="#DFE2EA"/>
<path d="M152.282 266.479C152.244 266.418 152.214 266.353 152.193 266.284C150.851 262.107 156.294 258.703 159.896 256.45C160.469 256.09 161.007 255.753 161.456 255.451C168.121 250.964 172.879 246.354 174.442 238.441C175.558 232.772 174.977 227.047 174.409 221.495C174.019 217.671 173.651 214.059 173.866 210.694C173.874 210.567 173.932 210.449 174.028 210.366C174.123 210.282 174.248 210.24 174.374 210.249C174.501 210.258 174.619 210.317 174.703 210.413C174.787 210.509 174.829 210.634 174.821 210.761C174.61 214.047 174.975 217.62 175.361 221.402C175.933 227.02 176.526 232.826 175.38 238.632C173.753 246.864 168.852 251.628 161.993 256.247C161.536 256.556 160.991 256.895 160.405 257.263C157.071 259.355 152.023 262.506 153.091 265.958C153.247 266.075 154.441 266.626 162.239 265.317C166.882 264.54 171.577 263.484 173.18 263.02C181.247 260.693 188.939 258.173 194.396 252.97C199.446 248.161 201.346 241.273 203.183 234.61C203.419 233.754 203.662 232.871 203.908 232.013C203.943 231.891 204.026 231.788 204.137 231.727C204.248 231.666 204.38 231.652 204.502 231.688C204.624 231.724 204.727 231.807 204.789 231.919C204.85 232.031 204.865 232.163 204.83 232.285C204.589 233.144 204.343 234.022 204.108 234.874C202.236 241.662 200.301 248.68 195.059 253.671C189.444 259.018 181.634 261.58 173.45 263.942C171.78 264.423 166.724 265.555 161.974 266.334C154.489 267.564 152.724 267.182 152.282 266.479Z" fill="#5D7183"/>
<path d="M226.187 210.74C226.187 210.74 227.683 195.254 218.436 166.632C217.596 164.023 216.558 161.481 215.734 158.866C214.283 154.26 215.044 146.629 214.442 141.838C213.806 136.768 211.561 123.998 201.524 124.555C189.534 125.214 190.154 140.746 190.719 149.287C190.851 151.259 191.011 153.233 190.995 155.21C190.986 156.345 191.287 158.547 190.575 159.501C182.79 169.863 175.095 191.391 174.357 208.805C174.363 208.798 212.678 217.824 226.187 210.74Z" fill="white"/>
<path d="M185.73 139.766C186.484 142.514 190.369 144.084 193.579 142.937C196.789 141.791 198.604 138.185 197.245 135.654C198.306 136.755 200.136 137.261 201.868 136.932C203.601 136.603 205.166 135.454 205.83 134.028C206.724 135.874 209.254 136.94 211.652 136.48C214.051 136.019 216.094 134.078 216.352 132.009C216.611 129.939 215.065 127.942 212.79 127.407C214.979 126.894 216.553 124.813 216.367 122.939C216.181 121.065 214.422 119.556 212.296 119.171C210.17 118.786 207.772 119.441 205.969 120.688C206.063 118.578 203.949 116.742 201.483 116.79C199.017 116.838 196.611 118.761 196.378 120.874C194.698 119.587 191.816 119.586 189.868 120.874C187.92 122.161 187.119 124.584 188.06 126.356C185.556 126.278 182.994 128.18 182.699 130.335C182.403 132.49 184.43 134.507 186.938 134.55C185.241 136.146 184.959 137.875 185.737 139.767L185.73 139.766Z" fill="#96E296"/>
<path d="M207.891 166.259C203.775 166.259 198.269 165.107 191.124 161.492C191.01 161.434 190.924 161.334 190.885 161.214C190.845 161.094 190.856 160.963 190.914 160.85C190.971 160.738 191.072 160.652 191.193 160.613C191.314 160.574 191.446 160.584 191.559 160.642C197.066 163.43 202.105 164.982 206.536 165.255C210.967 165.528 213.859 164.448 215.501 163.493C215.61 163.441 215.735 163.432 215.85 163.467C215.966 163.503 216.064 163.58 216.124 163.684C216.185 163.787 216.204 163.91 216.177 164.027C216.151 164.144 216.081 164.247 215.981 164.315C214.367 165.255 211.734 166.259 207.891 166.259Z" fill="#5D7183"/>
<path d="M210.152 148.835C209.804 148.837 209.463 148.733 209.176 148.536C208.447 148.04 207.976 146.965 207.736 145.25C207.721 145.126 207.756 145.002 207.833 144.904C207.91 144.805 208.022 144.741 208.146 144.723C208.27 144.706 208.396 144.738 208.497 144.811C208.598 144.885 208.666 144.995 208.686 145.117C208.936 146.88 209.387 147.521 209.722 147.75C209.82 147.812 209.93 147.854 210.044 147.872C210.159 147.891 210.276 147.886 210.389 147.857C210.501 147.829 210.607 147.778 210.699 147.707C210.79 147.637 210.867 147.548 210.923 147.448C211.381 146.668 211.2 145.018 210.923 144.095C210.903 144.034 210.895 143.97 210.9 143.906C210.906 143.843 210.924 143.781 210.954 143.724C210.984 143.667 211.025 143.617 211.074 143.577C211.124 143.536 211.182 143.506 211.243 143.488C211.305 143.47 211.37 143.465 211.434 143.472C211.498 143.479 211.559 143.499 211.615 143.53C211.671 143.562 211.72 143.604 211.76 143.655C211.799 143.705 211.827 143.763 211.844 143.825C212.113 144.73 212.444 146.754 211.749 147.928C211.629 148.142 211.466 148.328 211.269 148.475C211.073 148.623 210.847 148.727 210.607 148.783C210.458 148.818 210.305 148.835 210.152 148.835Z" fill="#5D7183"/>
<path d="M210.31 213.94C205.92 213.94 200.867 213.593 195.149 212.898C183.984 211.541 174.346 209.285 174.25 209.262C174.142 209.236 174.047 209.175 173.98 209.088C173.913 209.001 173.878 208.894 173.881 208.785C174.23 200.551 176.18 190.81 179.372 181.355C182.387 172.426 186.335 164.355 190.195 159.213C190.65 158.608 190.588 157.155 190.543 156.093C190.53 155.77 190.516 155.464 190.519 155.206C190.532 153.522 190.414 151.803 190.3 150.142C190.281 149.867 190.262 149.593 190.244 149.319C189.884 144.016 189.153 132.99 194.085 127.458C195.934 125.384 198.43 124.248 201.502 124.079C206.028 123.831 209.546 126.117 211.947 130.873C213.37 133.694 214.373 137.364 214.927 141.78C215.168 143.643 215.192 145.889 215.224 148.265C215.274 152.044 215.326 155.951 216.2 158.724C216.629 160.082 217.123 161.447 217.602 162.768C218.043 163.981 218.497 165.235 218.901 166.488C221.542 174.67 224.968 187.016 226.265 199.371C227.043 206.782 226.689 210.626 226.673 210.786C226.666 210.865 226.639 210.94 226.594 211.006C226.55 211.072 226.49 211.126 226.42 211.163C222.878 213.013 217.488 213.94 210.31 213.94ZM174.858 208.424C176.761 208.854 185.423 210.755 195.274 211.953C209.706 213.707 220.224 213.183 225.727 210.438C225.791 209.459 225.956 205.699 225.295 199.426C224.582 192.658 222.734 181.501 217.972 166.777C217.572 165.541 217.12 164.295 216.684 163.09C216.204 161.759 215.703 160.385 215.268 159.007C214.352 156.101 214.3 152.124 214.248 148.28C214.216 145.929 214.187 143.71 213.959 141.899C213.417 137.591 212.447 134.025 211.077 131.301C208.864 126.912 205.661 124.802 201.548 125.028C198.741 125.181 196.471 126.211 194.797 128.086C190.136 133.314 190.855 144.078 191.196 149.252C191.214 149.525 191.233 149.799 191.252 150.074C191.372 151.753 191.486 153.49 191.473 155.21C191.473 155.448 191.484 155.738 191.497 156.044C191.55 157.315 191.617 158.896 190.958 159.775C187.154 164.838 183.261 172.811 180.274 181.649C177.169 190.874 175.248 200.361 174.858 208.424Z" fill="#5D7183"/>
<path d="M223.015 193.098C219.765 193.098 216.576 192.369 213.207 190.875C208.045 188.588 203.483 184.806 199.257 179.314C199.188 179.213 199.161 179.09 199.18 178.97C199.199 178.85 199.264 178.741 199.361 178.667C199.458 178.593 199.58 178.559 199.702 178.571C199.824 178.583 199.937 178.641 200.017 178.733C204.144 184.097 208.585 187.783 213.595 190.004C223.408 194.355 230.321 191.328 239.073 187.501C240.132 187.038 241.325 186.515 242.652 186.41C244.543 186.261 245.81 187.058 246.323 187.783C246.396 187.887 246.425 188.015 246.402 188.14C246.38 188.265 246.309 188.375 246.205 188.448C246.1 188.52 245.971 188.549 245.846 188.527C245.72 188.505 245.608 188.434 245.535 188.33C245.067 187.667 243.911 187.267 242.727 187.361C241.564 187.453 240.497 187.92 239.466 188.371C235.129 190.27 231.039 192.066 226.86 192.769C225.59 192.987 224.304 193.097 223.015 193.098Z" fill="#5D7183"/>
<path d="M314.606 248.028H267.93L257.547 204.072L329.194 214.84L325.445 238.81C325.043 241.378 323.73 243.718 321.742 245.409C319.754 247.099 317.223 248.029 314.606 248.028Z" fill="white"/>
<path d="M309.658 272.013C312.366 272.013 314.562 269.834 314.562 267.144C314.562 264.455 312.366 262.275 309.658 262.275C306.95 262.275 304.754 264.455 304.754 267.144C304.754 269.834 306.95 272.013 309.658 272.013Z" fill="#DFE2EA"/>
<path d="M277.886 272.013C280.595 272.013 282.791 269.834 282.791 267.144C282.791 264.455 280.595 262.275 277.886 262.275C275.178 262.275 272.982 264.455 272.982 267.144C272.982 269.834 275.178 272.013 277.886 272.013Z" fill="#DFE2EA"/>
<path d="M322.311 201.222C322.099 202.901 319.697 221.701 320.465 221.757C316.44 221.462 312.408 221.161 308.419 220.559C306.726 220.303 305.042 219.991 303.341 219.806C301.206 219.568 299.054 219.54 296.919 219.312C293.078 218.901 289.326 217.864 285.601 216.83C285.259 210.774 285.246 204.704 285.56 198.647C285.627 197.336 287.577 183.229 287.817 181.494C287.82 181.471 287.828 181.45 287.84 181.43C287.851 181.411 287.867 181.394 287.886 181.381C287.904 181.368 287.925 181.359 287.948 181.355C287.97 181.35 287.993 181.35 288.015 181.355C289.69 181.697 291.382 181.943 293.085 182.092C294.973 182.256 322.105 183.975 323.994 184.503C323.994 184.503 323.675 191.11 323.48 192.489C323.069 195.396 322.679 198.307 322.311 201.222Z" fill="#DFE2EA"/>
<path d="M312.171 187.47C312.141 187.47 312.11 187.468 312.081 187.462C312.019 187.45 311.96 187.427 311.907 187.392C311.854 187.358 311.809 187.313 311.773 187.262C311.738 187.21 311.713 187.152 311.7 187.09C311.688 187.029 311.687 186.966 311.699 186.904C312.043 185.129 312.236 183.329 312.275 181.521V181.254C312.324 178.722 312.38 175.85 310.875 173.726C310.363 173 309.686 172.479 308.971 172.26C306.228 171.426 304.169 174.919 303.78 175.63C302.34 178.278 302.115 181.765 301.915 184.841C301.884 185.307 301.855 185.767 301.821 186.214C301.816 186.277 301.799 186.338 301.771 186.394C301.743 186.45 301.703 186.5 301.655 186.541C301.608 186.582 301.552 186.613 301.492 186.633C301.432 186.652 301.369 186.66 301.305 186.656C301.242 186.651 301.181 186.634 301.124 186.606C301.068 186.578 301.018 186.539 300.976 186.491C300.935 186.444 300.904 186.388 300.884 186.329C300.864 186.269 300.856 186.206 300.861 186.144C300.894 185.699 300.923 185.243 300.953 184.779C301.161 181.606 301.395 178.009 302.933 175.177C304.231 172.793 306.573 170.528 309.252 171.349C310.169 171.631 311.024 172.28 311.653 173.178C313.334 175.562 313.279 178.594 313.227 181.273L313.221 181.539C313.181 183.4 312.983 185.255 312.629 187.083C312.609 187.19 312.552 187.286 312.469 187.357C312.385 187.427 312.28 187.467 312.171 187.47Z" fill="#5D7183"/>
<path d="M328.29 203.383C327.357 211.922 325.299 222.705 324.066 231.21C323.753 233.365 323.401 235.515 322.998 237.654C321.234 247.005 318.868 245.64 315.037 245.907C310.372 246.234 308.089 245.713 303.421 245.431C303.325 245.431 309.68 200.984 309.68 200.984C309.68 200.984 323.76 202.931 328.29 203.383Z" fill="#8CD9FE"/>
<path d="M323.712 204.96C323.654 204.96 323.596 204.949 323.542 204.929C323.483 204.907 323.429 204.873 323.383 204.83C323.337 204.787 323.3 204.736 323.274 204.679C323.248 204.622 323.234 204.56 323.232 204.497C323.23 204.435 323.24 204.372 323.263 204.314C323.343 204.112 323.423 203.906 323.503 203.696C324.703 200.573 326.206 196.686 324.223 193.811C323.887 193.323 323.416 192.989 322.934 192.897C322.147 192.748 321.373 193.216 320.913 193.703C320.244 194.407 318.04 197.175 317.771 203.18C317.769 203.243 317.753 203.304 317.727 203.361C317.7 203.418 317.662 203.469 317.616 203.511C317.569 203.553 317.515 203.586 317.456 203.608C317.396 203.629 317.333 203.639 317.27 203.636C317.207 203.633 317.145 203.618 317.088 203.592C317.031 203.565 316.979 203.528 316.937 203.482C316.894 203.435 316.861 203.381 316.84 203.322C316.818 203.264 316.808 203.201 316.811 203.138C316.882 201.536 317.339 196.076 320.213 193.049C321.026 192.193 322.134 191.776 323.112 191.962C323.842 192.1 324.536 192.578 325.015 193.273C327.278 196.559 325.679 200.704 324.395 204.036L324.154 204.65C324.121 204.74 324.06 204.817 323.981 204.873C323.902 204.928 323.808 204.958 323.712 204.96Z" fill="#5D7183"/>
<path d="M269.689 245.031C279.903 245.27 295.69 245.088 295.69 245.088C295.5 244.231 295.315 241.751 295.114 240.9C294.108 236.527 293.406 232.089 292.858 227.637C292.087 221.351 291.623 215.034 291.036 208.73C290.888 207.155 289.564 190.348 289.564 190.348C279.412 190.538 269.312 192.875 259.186 192.111C265.653 227.468 269.548 244.556 269.689 245.031Z" fill="#8CD9FE"/>
<path d="M269.129 195.913C269.037 195.913 268.948 195.887 268.87 195.838C268.793 195.789 268.732 195.718 268.693 195.636C267.384 192.814 266.59 189.784 266.35 186.687C266.23 185.122 266.23 183.132 267.396 181.617C268.561 180.102 270.769 179.423 272.798 179.938C274.545 180.381 276.132 181.607 277.267 183.394C278.348 185.091 278.88 187.055 279.223 188.577C279.681 190.607 279.98 192.669 280.116 194.744C280.125 194.871 280.082 194.995 279.998 195.09C279.914 195.186 279.795 195.244 279.667 195.252C279.54 195.26 279.415 195.218 279.319 195.134C279.223 195.051 279.164 194.933 279.156 194.806C279.025 192.778 278.735 190.763 278.29 188.78C277.964 187.333 277.461 185.47 276.46 183.893C275.458 182.316 274.073 181.237 272.565 180.854C270.899 180.431 269.084 180.974 268.164 182.187C267.204 183.447 267.204 185.21 267.31 186.606C267.542 189.591 268.307 192.511 269.57 195.23C269.603 195.303 269.618 195.383 269.613 195.463C269.607 195.543 269.581 195.62 269.538 195.687C269.494 195.754 269.434 195.81 269.363 195.848C269.293 195.886 269.213 195.906 269.133 195.906L269.129 195.913Z" fill="#5D7183"/>
<path d="M309.989 219.081C308.472 218.494 306.811 218.257 305.164 218.077C302.186 217.754 299.191 217.604 296.195 217.627C293.387 217.65 290.384 217.687 287.618 218.147C286.071 222.96 285.205 228.128 284.684 233.095C284.203 237.615 284.272 242.135 284.16 246.654C286.338 246.608 288.517 246.551 290.696 246.495C292.833 246.44 305.683 246.614 309.631 245.899C309.66 245.725 310.314 219.208 309.989 219.081Z" fill="white"/>
<path d="M302.477 221.778C302.442 221.778 302.406 221.774 302.371 221.766C302.247 221.738 302.139 221.662 302.072 221.555C302.004 221.448 301.982 221.318 302.01 221.195C302.971 217.024 301.842 215.257 301.314 214.69C301.066 214.43 300.766 214.223 300.434 214.082C300.101 213.941 299.744 213.87 299.383 213.872C298.348 213.859 297.253 214.319 296.464 215.11C295.126 216.456 294.451 218.724 294.703 221.028C294.717 221.155 294.679 221.282 294.599 221.381C294.519 221.48 294.402 221.543 294.275 221.557C294.148 221.571 294.02 221.534 293.92 221.454C293.82 221.374 293.756 221.259 293.743 221.132C293.46 218.549 294.24 215.985 295.776 214.441C296.745 213.467 298.096 212.898 299.393 212.918C299.885 212.916 300.371 213.015 300.822 213.208C301.273 213.402 301.679 213.686 302.014 214.042C303.912 216.079 303.295 219.871 302.942 221.407C302.918 221.512 302.859 221.606 302.775 221.673C302.69 221.74 302.586 221.777 302.477 221.778Z" fill="#5D7183"/>
<path d="M314.29 248.506L268.031 248.448C267.923 248.447 267.818 248.411 267.734 248.344C267.649 248.278 267.59 248.185 267.565 248.08L257.077 204.183C257.059 204.107 257.06 204.028 257.08 203.952C257.1 203.877 257.138 203.807 257.191 203.75C257.244 203.692 257.311 203.649 257.385 203.623C257.459 203.597 257.539 203.589 257.616 203.601L329.264 214.369C329.326 214.378 329.386 214.4 329.44 214.433C329.494 214.465 329.541 214.508 329.579 214.558C329.616 214.609 329.643 214.666 329.658 214.727C329.673 214.788 329.676 214.852 329.666 214.914L325.965 238.577C325.532 241.343 324.118 243.864 321.977 245.685C319.836 247.505 317.11 248.506 314.291 248.506H314.29ZM268.41 247.494L314.29 247.552C316.879 247.552 319.384 246.633 321.35 244.96C323.317 243.287 324.616 240.971 325.014 238.431L328.642 215.241L258.172 204.651L268.41 247.494Z" fill="#5D7183"/>
<path d="M310.103 262.752L278.161 262.59C276.129 262.583 274.159 261.898 272.567 260.643C270.975 259.389 269.855 257.64 269.387 255.676L255.286 196.938C254.882 195.255 253.943 193.746 252.607 192.635C251.272 191.523 249.611 190.869 247.872 190.768L243.533 190.517C243.47 190.513 243.408 190.497 243.351 190.47C243.294 190.443 243.244 190.404 243.202 190.357C243.16 190.311 243.127 190.256 243.107 190.197C243.086 190.137 243.077 190.075 243.081 190.012C243.085 189.949 243.101 189.888 243.128 189.832C243.156 189.775 243.194 189.725 243.242 189.683C243.289 189.641 243.344 189.609 243.403 189.589C243.463 189.568 243.526 189.56 243.589 189.563L247.928 189.815C249.874 189.927 251.731 190.659 253.225 191.902C254.718 193.145 255.769 194.833 256.22 196.715L270.321 255.455C270.739 257.21 271.74 258.775 273.164 259.897C274.587 261.018 276.349 261.632 278.166 261.637L310.103 261.798C310.231 261.798 310.353 261.848 310.443 261.938C310.533 262.027 310.584 262.148 310.584 262.275C310.584 262.401 310.533 262.523 310.443 262.612C310.353 262.701 310.231 262.752 310.103 262.752Z" fill="#5D7183"/>
<path d="M283.989 248.507C283.871 248.507 283.757 248.465 283.668 248.388C283.58 248.311 283.523 248.204 283.508 248.088L278.431 207.343C278.424 207.281 278.428 207.218 278.445 207.158C278.461 207.097 278.49 207.041 278.529 206.991C278.567 206.942 278.615 206.9 278.67 206.869C278.725 206.838 278.785 206.818 278.848 206.81C278.911 206.803 278.974 206.807 279.035 206.824C279.096 206.84 279.153 206.868 279.203 206.907C279.252 206.945 279.294 206.993 279.325 207.047C279.357 207.102 279.377 207.162 279.385 207.224L284.462 247.969C284.469 248.031 284.465 248.094 284.448 248.155C284.431 248.215 284.402 248.271 284.364 248.321C284.325 248.37 284.277 248.411 284.222 248.442C284.167 248.473 284.106 248.493 284.044 248.501L283.989 248.507Z" fill="#5D7183"/>
<path d="M304.196 248.506H304.155C304.028 248.495 303.91 248.435 303.828 248.339C303.746 248.242 303.706 248.117 303.717 247.991L306.821 211.518C306.832 211.392 306.893 211.275 306.991 211.193C307.088 211.111 307.215 211.071 307.342 211.082C307.469 211.093 307.587 211.153 307.67 211.25C307.752 211.347 307.792 211.473 307.781 211.599L304.676 248.072C304.665 248.191 304.61 248.302 304.521 248.382C304.432 248.462 304.316 248.507 304.196 248.506Z" fill="#5D7183"/>
<path d="M324.957 231.322H324.927L263.942 227.65C263.879 227.646 263.817 227.63 263.76 227.602C263.704 227.575 263.653 227.536 263.611 227.489C263.569 227.442 263.537 227.388 263.516 227.328C263.496 227.269 263.487 227.206 263.491 227.144C263.495 227.081 263.511 227.02 263.539 226.964C263.567 226.907 263.605 226.857 263.653 226.815C263.7 226.774 263.755 226.742 263.815 226.721C263.874 226.701 263.938 226.692 264.001 226.696L324.986 230.367C325.114 230.371 325.234 230.425 325.322 230.517C325.409 230.609 325.456 230.732 325.452 230.858C325.448 230.985 325.394 231.105 325.301 231.191C325.209 231.278 325.085 231.325 324.957 231.321V231.322Z" fill="#5D7183"/>
<defs>
<clipPath id="clip0_360_2350">
<rect width="211.196" height="151.813" fill="white" transform="translate(34.082 20.4102)"/>
</clipPath>
<clipPath id="clip1_360_2350">
<rect width="160.272" height="157.571" fill="white" transform="translate(21.584 82.5977)"/>
</clipPath>
</defs>
</svg>
