<svg width="254" height="225" viewBox="0 0 254 225" fill="none" xmlns="http://www.w3.org/2000/svg">
<g clip-path="url(#clip0)">
<path d="M89.0343 197.326C91.9074 202.332 95.254 206.628 99.0112 211.002C102.484 215.045 106.636 219.009 110.44 222.736C111.167 223.447 112.098 224.22 113.077 223.952C113.945 223.715 114.403 222.704 114.324 221.804C114.245 220.904 113.771 220.114 113.282 219.356C108.735 212.123 99.6584 198.305 93.8964 192.02C92.302 190.283 95.8539 194.847 93.0755 195.747C89.6657 196.852 89.0343 197.326 89.0343 197.326Z" fill="#EEEEEE"/>
<path d="M194.549 187.771C197.422 192.777 200.769 197.073 204.526 201.447C207.999 205.49 212.151 209.454 215.955 213.181C216.682 213.892 217.613 214.666 218.592 214.397C219.46 214.16 219.918 213.15 219.839 212.249C219.76 211.349 219.286 210.56 218.797 209.802C214.25 202.569 205.173 188.75 199.411 182.465C197.817 180.728 201.369 185.292 198.591 186.192C195.181 187.298 194.549 187.771 194.549 187.771Z" fill="#EEEEEE"/>
<path d="M93.9123 189.824C88.9081 193.488 82.4515 202.284 78.2366 206.833C74.3374 211.018 71.0697 215.897 67.5494 220.414C66.8706 221.283 66.1602 222.372 66.5706 223.399C66.9337 224.299 68.0545 224.678 68.9859 224.489C69.9331 224.299 70.7224 223.699 71.4801 223.099C78.6471 217.382 85.2773 211.018 91.2918 204.085C92.9494 202.174 98.9481 196.978 97.6694 194.088C96.0908 190.535 93.9123 189.824 93.9123 189.824Z" fill="#EEEEEE"/>
<path d="M196.396 182.086C191.376 186.113 185.867 194.23 181.715 199.11C177.879 203.595 174.075 208.744 170.649 213.529C170.002 214.445 169.307 215.598 169.797 216.608C170.223 217.493 171.423 217.808 172.386 217.556C173.364 217.303 174.154 216.64 174.911 215.977C182.062 209.739 188.645 202.853 194.534 195.462C196.16 193.425 202.142 187.787 200.627 184.945C198.796 181.47 196.396 182.086 196.396 182.086Z" fill="#EEEEEE"/>
<path d="M78.0626 0.710938C85.198 12.5078 91.7651 24.589 99.2161 36.1964C109.177 51.7203 119.123 67.26 129.084 82.7839C135.603 92.9542 142.281 103.314 151.768 110.784C164.034 120.465 180.041 124.444 195.67 124.776C211.298 125.107 222.127 129.577 237.456 126.56C222.885 147.548 213.966 161.888 200.863 183.808C186.245 188.656 171.359 194.689 156.283 197.91C144.081 200.532 130.568 201.685 119.217 201.179C104.883 200.548 91.1652 197.784 80.8252 187.124C74.5265 180.633 69.617 172.658 64.4549 165.394C59.1034 157.829 55.22 149.933 50.2158 142.1C39.9705 126.055 30.0252 109.82 20.7587 93.1911C17.1437 86.7162 13.6391 80.1782 10.2609 73.577C9.36109 71.824 -0.0159145 54.7524 0.757609 54.105C25.1315 33.6538 78.0626 0.710938 78.0626 0.710938Z" fill="white"/>
<path d="M72.3954 15.7137C74.7002 19.3302 77.3049 22.7413 79.736 26.2788C85.1033 34.096 90.0128 42.2449 95.238 50.1569C100.321 57.8636 105.767 65.3807 110.724 73.1664C112.729 76.309 114.545 79.5623 116.628 82.6576C118.412 85.3265 120.559 88.6903 123.527 90.159C125.106 90.9486 126.889 91.4224 128.626 91.7382C130.031 92.0067 131.578 92.3383 132.967 91.833C133.52 91.6277 133.993 91.3118 134.388 90.9012C132.572 88.2165 130.82 85.4844 129.084 82.7839C119.123 67.26 109.177 51.7203 99.2162 36.1964C91.7809 24.589 85.198 12.5078 78.0626 0.710938C78.0626 0.710938 74.1319 3.15876 67.9121 7.13844C69.0171 10.1706 70.6747 13.0132 72.3954 15.7137Z" fill="#EEEEEE"/>
<path d="M60.0346 39.4336C61.5185 41.5971 62.9709 43.8081 64.4074 46.0032C67.9909 48.4194 72.3479 49.8881 76.3576 48.1668C77.0048 47.8825 77.5889 47.5509 78.1098 47.156C71.2271 36.2277 65.0389 24.9204 58.3455 13.8657C58.3455 13.8657 54.4148 16.3135 48.195 20.2932C49.2842 23.3254 50.9418 26.168 52.6783 28.8843C54.9988 32.5007 57.6036 35.8961 60.0346 39.4336Z" fill="#EEEEEE"/>
<path d="M66.1125 123.844C68.1331 124.444 70.3116 124.254 72.0165 122.707C74.8738 120.101 74.3844 116.09 72.7742 112.963C71.0693 109.662 68.7961 106.662 66.9649 103.44C64.9443 99.8866 63.1447 96.2228 61.345 92.559C57.6984 85.0734 54.1307 77.5562 50.5157 70.0548C47.0585 62.8693 43.5698 55.7154 39.1181 49.0983C35.5977 43.8553 31.7617 38.7859 28.5097 33.3691C25.0526 35.7854 21.627 38.2016 18.3276 40.602C20.2851 44.3448 19.922 47.0611 21.6901 50.8829C22.8109 53.2991 30.3094 63.88 31.8406 66.2015C37.4605 74.6978 42.7015 83.3678 47.7531 92.2115C52.8047 101.039 57.7774 109.931 62.9868 118.664C64.0445 120.369 65.0706 122.107 66.1125 123.844Z" fill="#EEEEEE"/>
<path d="M216.271 147.801C209.451 148.574 203.168 152.191 196.207 152.001C196.159 152.001 196.128 151.986 196.08 151.986C194.186 152.507 192.434 153.675 190.966 154.891C187.54 157.734 184.351 161.793 183.483 166.262C183.246 167.525 183.262 168.931 183.893 170.052C188.834 168.362 193.791 166.688 198.638 165.52C204.273 164.162 210.793 160.229 216.366 158.603C218.655 155.002 220.959 151.417 223.28 147.832C223.233 147.832 223.201 147.816 223.154 147.816C220.896 147.437 218.544 147.548 216.271 147.801Z" fill="#EEEEEE"/>
<path d="M194.17 177.648C177.295 183.302 159.993 188.166 142.234 189.935C126.226 191.514 103.905 192.541 91.5441 180.617C85.7347 175.011 77.3049 163.167 72.9953 156.329C50.4052 120.496 34.0033 93.4593 15.3441 61.306C13.7497 58.5581 12.029 55.9366 10.3556 53.2519C9.39266 51.72 8.47706 50.1092 7.82983 48.4194C5.28825 50.3935 2.90453 52.2886 0.757609 54.1047C-0.0159146 54.7522 9.36109 71.8237 10.2609 73.5925C13.6392 80.1937 17.1437 86.7317 20.7587 93.2066C30.0252 109.82 39.9547 126.071 50.2 142.116C55.2042 149.949 59.0876 157.845 64.4391 165.409C69.5854 172.674 75.379 180.649 81.6777 187.14C92.0334 197.8 107.709 201.732 122.059 201.858C136.172 201.985 147.459 199.71 161.272 196.741C174.864 193.82 187.666 188.166 200.832 183.808C202.931 180.302 205.047 176.811 207.194 173.306C202.853 174.743 198.511 176.196 194.17 177.648Z" fill="#EEEEEE"/>
<path d="M124.174 75.8507C123.937 75.8507 123.716 75.7402 123.574 75.5191L98.6164 36.5909C94.0542 29.4843 89.7604 22.0777 85.5928 14.908C83.067 10.5651 80.4623 6.08002 77.826 1.70553C75.6949 3.04789 68.1806 7.75401 58.4721 14.071C58.1406 14.2921 57.6986 14.1973 57.4934 13.8657C57.2724 13.534 57.3671 13.0918 57.6986 12.8865C69.191 5.40095 77.605 0.157882 77.6997 0.110505C77.8576 0.0157505 78.0628 -0.0158342 78.2365 0.0157505C78.4259 0.0631277 78.5837 0.173674 78.6785 0.331598C81.4568 4.92718 84.1878 9.63331 86.8241 14.1973C90.9759 21.3513 95.2698 28.7421 99.8162 35.8329L124.774 74.7769C124.979 75.1085 124.885 75.5507 124.553 75.756C124.427 75.8192 124.301 75.8507 124.174 75.8507Z" fill="#5D7183"/>
<path d="M123.732 202.411C114.876 202.411 107.094 201.321 100.037 199.126C79.4678 192.714 67.2808 172.121 56.5462 153.944C54.1625 149.901 51.905 146.095 49.6003 142.479C37.8553 124.096 28.4941 108.557 20.1274 93.5383C16.4177 86.8897 12.8815 80.2727 9.62959 73.9083C9.48751 73.6241 9.10864 72.9292 8.60348 71.9817C7.24587 69.4707 4.98844 65.2541 3.12567 61.5429C2.08378 59.4741 1.29447 57.8317 0.789312 56.6631C-0.173647 54.4521 -0.142075 53.931 0.315725 53.5678C3.80448 50.6462 8.08254 47.2982 13.0236 43.6028C13.3393 43.3659 13.7814 43.4291 14.0182 43.7449C14.2549 44.0608 14.1918 44.503 13.8761 44.7398C9.06128 48.3247 4.87794 51.5937 1.46812 54.4521C1.78384 55.8419 4.60957 61.5113 9.86638 71.3184C10.3873 72.2817 10.7504 72.9766 10.9083 73.2766C14.1602 79.6252 17.6806 86.2264 21.3903 92.8592C29.7412 107.846 39.0866 123.386 50.8158 141.737C53.1364 145.369 55.3938 149.191 57.7933 153.233C63.2238 162.425 68.8437 171.932 75.6949 180.033C83.4301 189.193 91.5442 194.988 100.479 197.768C113.929 201.953 130.205 202.063 151.658 198.1C164.271 195.778 176.663 191.451 188.629 187.266C192.481 185.924 196.444 184.534 200.374 183.239C206.736 172.611 211.314 165.093 215.671 158.161C215.876 157.829 216.318 157.734 216.65 157.94C216.981 158.145 217.076 158.587 216.871 158.919C212.482 165.899 207.873 173.448 201.464 184.186C201.369 184.329 201.243 184.439 201.085 184.502C197.091 185.829 193.034 187.234 189.119 188.608C177.09 192.809 164.666 197.152 151.942 199.505C141.381 201.448 132.083 202.411 123.732 202.411Z" fill="#5D7183"/>
<path d="M25.2421 109.504C21.2955 109.504 17.5542 108.857 14.3338 107.577C8.61918 105.303 4.79892 101.26 3.28344 95.8753C-0.99462 80.6198 14.8389 65.0959 24.658 57.1839C24.9579 56.9313 25.4157 56.9944 25.6525 57.2945C25.9051 57.5945 25.8419 58.0525 25.542 58.2894C20.9166 62.0322 14.4127 67.907 9.77157 74.6977C4.62527 82.2464 2.90457 89.2425 4.64106 95.4805C6.03024 100.423 9.55056 104.15 14.8389 106.251C19.78 108.209 25.984 108.62 32.3143 107.388C37.7605 106.33 42.9068 104.04 46.8218 100.945C49.8212 98.5758 53.4678 94.5961 53.8309 89.1477C53.8624 88.7529 54.1939 88.4528 54.5886 88.4844C54.9833 88.516 55.2832 88.8477 55.2516 89.2425C54.9359 93.9644 52.3312 98.402 47.7058 102.066C43.6172 105.303 38.2499 107.688 32.5826 108.793C30.1042 109.267 27.6416 109.504 25.2421 109.504Z" fill="#5D7183"/>
<path d="M94.2909 60.327C93.912 60.327 93.5963 60.0269 93.5805 59.6321C93.5647 59.2373 93.8804 58.9057 94.2751 58.9057C100.605 58.7319 106.857 55.6682 111.892 50.2356C116.36 45.4348 119.454 39.1652 120.196 33.4957C121.317 24.8099 118.696 17.3401 113.013 12.9972C110.03 10.7231 106.367 9.14389 102.389 8.43324C98.4742 7.72258 94.354 7.86471 90.4548 8.82805C80.9831 11.1653 69.396 20.1828 65.1811 28.4895C65.0075 28.837 64.5812 28.9791 64.2181 28.8054C63.8708 28.6317 63.7288 28.2053 63.9024 27.8421C66.0493 23.6097 69.9959 19.1405 75.0001 15.2555C79.9728 11.4022 85.3401 8.62275 90.0917 7.45411C98.5847 5.35372 107.472 6.99613 113.866 11.876C119.975 16.5189 122.785 24.4783 121.601 33.6852C120.827 39.639 117.591 46.1928 112.934 51.2148C107.646 56.9158 101.032 60.1533 94.3224 60.3428C94.3066 60.327 94.2909 60.327 94.2909 60.327Z" fill="#5D7183"/>
<path d="M146.007 109.978C158.304 108.888 169.181 103.55 181.036 100.724C190.634 98.4337 200.627 96.6492 210.493 98.0389C231.947 101.055 238.151 119.943 238.829 139.21C239.193 149.348 238.687 160.166 237.361 170.384C236.951 173.479 235.593 179.37 231.473 179.085C229.074 178.912 227.353 176.764 226.137 174.695C218.086 160.94 217.439 144.8 206.468 132.482C201.827 127.286 196.144 126.528 189.419 127.271C185.298 127.713 186.924 135.562 172.054 138.341C163.798 139.889 130.347 153.628 128.089 154.118L146.007 109.978Z" fill="#CACEDE"/>
<path d="M231.773 179.796C231.662 179.796 231.536 179.796 231.41 179.78C229.216 179.622 227.29 178.075 225.506 175.042C222.143 169.278 220.028 163.056 218.007 157.039C216.618 152.933 215.182 148.669 213.366 144.674C213.208 144.31 213.366 143.9 213.714 143.726C214.077 143.568 214.487 143.726 214.661 144.074C216.508 148.132 217.96 152.428 219.349 156.565C221.354 162.519 223.438 168.662 226.737 174.3C228.253 176.906 229.815 178.217 231.52 178.343C233.02 178.454 234.22 177.569 235.167 175.658C236.083 173.811 236.493 171.489 236.651 170.257C237.977 160.134 238.482 149.396 238.119 139.194C237.788 129.813 236.177 121.917 233.32 115.726C233.162 115.363 233.304 114.952 233.667 114.779C234.03 114.621 234.441 114.763 234.614 115.126C237.551 121.49 239.208 129.56 239.54 139.131C239.903 149.411 239.398 160.229 238.056 170.431C237.693 173.321 236.335 179.796 231.773 179.796Z" fill="#5D7183"/>
<path d="M170.365 104.546C170.065 104.546 169.781 104.356 169.686 104.056C169.56 103.677 169.765 103.282 170.144 103.156C173.522 102.05 177.168 100.913 180.878 100.029C187.998 98.3233 196.412 96.6178 204.857 96.8546C205.252 96.8704 205.552 97.1863 205.552 97.5811C205.536 97.9759 205.221 98.276 204.826 98.276C196.538 98.0549 188.235 99.7289 181.21 101.403C177.547 102.271 173.948 103.408 170.586 104.498C170.507 104.53 170.428 104.546 170.365 104.546Z" fill="#5D7183"/>
<path d="M106.415 177.222C120.259 188.198 140.45 187.44 156.678 183.381C176.237 178.485 190.997 166.294 203.989 151.244C219.823 132.893 232.373 112.315 244.418 91.3588C246.786 87.237 249.106 83.0678 250.622 78.567C252.406 73.2923 251.285 64.954 244.56 69.818C228.284 81.5676 161.461 135.972 153.316 139.147C143.607 142.953 133.899 144.706 124.206 148.511C115.018 152.302 108.988 158.65 103.021 166.357C102.847 166.578 102.658 166.846 102.689 167.131C102.721 167.352 98.3639 171.3 98.5218 171.458C100.164 173.195 104.536 175.722 106.415 177.222Z" fill="#CACEDE"/>
<path d="M135.951 186.476C134.435 186.476 132.936 186.429 131.452 186.334C121.617 185.718 113.108 183.081 106.178 178.533C105.846 178.311 105.752 177.869 105.973 177.553C106.194 177.222 106.636 177.127 106.951 177.348C113.676 181.77 121.948 184.328 131.546 184.928C139.724 185.45 148.722 184.486 157.53 182.181C173.932 177.869 188.961 167.604 203.468 150.785C218.402 133.461 230.4 114.368 243.818 91.0112C246.217 86.842 248.491 82.736 249.974 78.3457C251.174 74.7608 250.843 70.5917 249.248 69.423C248.064 68.5544 246.281 69.4704 245.002 70.4021C237.409 75.8821 220.391 89.2582 203.91 102.208C184.525 117.432 166.229 131.819 161.982 134.424C161.651 134.63 161.209 134.519 161.003 134.188C160.798 133.856 160.909 133.414 161.24 133.208C165.408 130.634 184.541 115.616 203.026 101.087C219.507 88.137 236.54 74.7451 244.165 69.2493C247.196 67.07 249.059 67.5121 250.085 68.286C252.453 70.0231 252.563 75.1083 251.316 78.8037C249.801 83.3203 247.48 87.4895 245.049 91.7219C231.599 115.142 219.554 134.314 204.542 151.717C189.845 168.757 174.58 179.18 157.894 183.555C150.506 185.481 143.007 186.476 135.951 186.476Z" fill="#5D7183"/>
<path d="M156.031 128.045C157.562 125.534 167.46 109.852 166.623 105.793C166.039 102.966 159.267 99.1603 156.852 97.4231C152.653 94.3594 148.232 91.5957 143.733 88.99C126.132 78.7407 106.952 70.7814 91.2759 57.5158C82.7513 50.2987 75.5528 41.7076 68.8121 32.8481C62.4976 24.5571 57.5881 16.961 46.5851 14.6869C36.7819 12.6654 28.2573 17.3873 26.1262 27.4471C24.8317 33.5745 27.0892 39.8599 29.8044 45.4978C35.9768 58.337 47.3113 68.1125 52.1261 81.3149C56.9409 94.5015 60.1139 108.304 65.5759 121.238C73.5006 139.984 84.7246 161.682 100.984 174.174C103.131 175.817 108.183 172.705 110.014 171.758C115.523 168.931 120.701 165.409 125.706 161.777C135.493 154.655 143.891 145.843 150.853 135.957C152.668 133.398 154.389 130.745 156.031 128.045Z" fill="white"/>
<path d="M46.5377 32.4062C50.6737 33.6854 55.599 31.3639 57.2565 27.3684C58.9141 23.3572 57.0671 18.2404 53.2468 16.219C55.7253 15.2399 56.9408 12.2077 56.483 9.5862C55.2517 2.52701 46.1588 -1.87906 40.2074 2.40067C38.1868 3.85357 36.6713 5.92237 35.5347 8.1333C32.1565 6.15926 27.5153 7.26472 24.3107 9.52303C22.1638 11.0233 20.301 13.1553 19.8432 15.7452C19.3854 18.3194 20.7115 21.3199 23.2057 22.1096C21.8639 21.6832 19.6854 22.8676 18.7066 23.6888C17.5227 24.6679 16.686 26.0103 16.2282 27.4632C15.723 29.0266 15.4863 30.3374 16.1177 31.8692C17.0333 34.0802 18.5172 35.2014 20.4589 36.3859C18.5172 38.0125 17.428 40.5077 16.9859 41.9921C16.4334 43.8556 16.3861 45.8613 16.7965 47.7722C17.3964 50.4884 18.9119 52.9678 20.9483 54.8471C22.7795 56.5211 25.0685 57.7687 27.5469 57.9898C30.0096 58.2267 32.6459 57.3581 34.2245 55.4473C34.9506 56.9949 36.845 58.6057 38.5341 58.9058C40.3495 59.2216 42.307 58.4162 43.3805 56.9159C45.1169 54.4681 44.0751 51.2465 42.1649 49.2724C45.7168 47.7564 48.511 46.8878 49.6476 42.7976C50.3895 40.0813 50.0107 33.4959 46.5377 32.4062Z" fill="#FFBF3A"/>
<path d="M64.6129 35.7539C65.2917 37.2542 66.4126 38.5176 67.0124 40.0494C67.6123 41.5813 67.486 43.6185 66.1126 44.5029C64.9444 45.2609 63.3185 44.8345 62.2766 43.9186C61.3452 43.0974 60.5243 42.213 59.7034 41.2654C59.5771 41.1233 59.4508 40.9654 59.4982 40.7759C59.5298 40.6022 59.7192 40.5074 59.8771 40.4285C61.7241 39.4651 63.7289 37.649 64.6129 35.7539Z" fill="#5D7183"/>
<path d="M102.595 175.39C101.821 175.39 101.111 175.216 100.542 174.774C93.1228 169.089 86.0506 160.908 79.5309 150.47C74.5267 142.447 69.7435 132.987 64.8971 121.554C61.7083 113.989 59.2614 106.03 56.8935 98.3232C55.2044 92.7959 53.4521 87.0948 51.4314 81.5991C48.8109 74.4451 44.1382 68.144 39.6234 62.0481C35.8505 56.9472 31.9355 51.6883 29.1255 45.8451C27.468 42.3866 26.3787 39.5282 25.7315 36.8593C24.8791 33.3849 24.7686 30.2581 25.3842 27.3365C26.4577 22.2829 29.1098 18.3506 33.0721 15.9659C36.8608 13.6918 41.6914 12.997 46.6956 14.0235C57.0829 16.1713 62.0714 22.7883 67.8491 30.4634C68.3385 31.1108 68.8436 31.7741 69.3488 32.4374C74.9687 39.8124 82.5776 49.2563 91.7021 56.9788C102.61 66.1699 115.397 72.9291 127.758 79.4513C133.157 82.2939 138.729 85.2471 144.081 88.3582C149.164 91.3114 153.473 94.0909 157.278 96.8229C157.752 97.1704 158.415 97.5968 159.188 98.1021C163.198 100.724 166.844 103.282 167.334 105.635C167.902 108.399 164.65 115.395 157.089 127.681C156.899 127.981 156.757 128.218 156.646 128.408C154.942 131.203 153.189 133.888 151.437 136.399C144.207 146.679 135.682 155.428 126.132 162.377C121.917 165.441 116.329 169.357 110.346 172.421C110.125 172.532 109.872 172.674 109.572 172.832C107.678 173.858 104.852 175.39 102.595 175.39ZM42.1965 14.9394C34.4455 14.9394 28.4941 19.6772 26.805 27.6049C25.4947 33.7955 28.0521 40.2546 30.4358 45.1976C33.1826 50.9303 37.0502 56.1418 40.7915 61.1795C45.3695 67.3544 50.1054 73.7345 52.7891 81.0937C54.8097 86.6211 56.562 92.3537 58.2669 97.8968C60.619 105.572 63.0501 113.5 66.2231 121.001C71.0221 132.372 75.7738 141.768 80.7464 149.712C87.1714 160.008 94.1331 168.062 101.411 173.637C102.942 174.806 107.109 172.547 108.893 171.584C109.193 171.41 109.477 171.268 109.698 171.158C115.587 168.141 121.128 164.256 125.295 161.224C134.719 154.355 143.134 145.732 150.269 135.577C152.005 133.098 153.742 130.445 155.431 127.665L156.031 128.029L155.431 127.665C155.541 127.492 155.699 127.239 155.873 126.939C157.057 125.028 159.804 120.543 162.124 116.137C165.818 109.125 166.102 106.725 165.929 105.919C165.518 103.961 161.067 101.04 158.399 99.2866C157.625 98.7812 156.946 98.339 156.441 97.9758C152.684 95.2595 148.406 92.5116 143.37 89.59C138.05 86.4947 132.478 83.5573 127.095 80.7147C114.655 74.1451 101.805 67.3544 90.818 58.0526C81.5831 50.2354 73.911 40.7126 68.2438 33.2744C67.7386 32.6111 67.2334 31.9478 66.7441 31.2846C61.14 23.8463 56.2936 17.4188 46.4272 15.3816C44.9749 15.0974 43.5541 14.9394 42.1965 14.9394Z" fill="#5D7183"/>
<path d="M88.3396 69.9128C88.2133 69.9128 88.1028 69.8812 87.9923 69.8181C87.645 69.6286 87.5345 69.1864 87.7397 68.8547C89.4446 65.9015 89.9813 62.9642 89.3183 60.3426C89.2236 59.9636 89.4446 59.5688 89.8235 59.474C90.2023 59.3793 90.597 59.6004 90.6917 59.9794C91.4652 62.9642 90.8653 66.2806 88.971 69.5496C88.8289 69.7865 88.5921 69.9128 88.3396 69.9128Z" fill="#5D7183"/>
<path d="M98.9634 84.1892C98.7898 84.1892 98.6161 84.126 98.4741 83.9997C96.3903 82.0414 94.2592 80.1148 92.2069 78.2513C90.3126 76.5457 88.3709 74.7927 86.445 72.9924C84.6454 74.998 82.4353 76.7194 80.02 78.0302C73.895 81.3308 65.9703 82.6258 57.1142 81.8046C56.7196 81.773 56.4354 81.4255 56.467 81.0307C56.4986 80.6359 56.8459 80.3517 57.2405 80.3832C63.2235 80.9518 71.9217 80.7781 79.3412 76.7826C81.8196 75.4402 84.0771 73.6241 85.8451 71.5237C85.9714 71.3816 86.1451 71.2868 86.3503 71.271C86.5397 71.2553 86.7291 71.3342 86.8712 71.4606C88.955 73.4188 91.0861 75.3455 93.1541 77.209C95.2221 79.0725 97.3533 80.9992 99.4528 82.9732C99.737 83.2417 99.7528 83.6996 99.4844 83.9839C99.3423 84.1102 99.1529 84.1892 98.9634 84.1892Z" fill="#5D7183"/>
<path d="M93.8962 72.4879C93.8646 72.4879 93.833 72.4879 93.7857 72.4879C92.9964 72.4247 92.3333 71.7138 92.3649 70.908C92.3807 70.5131 92.6964 70.2129 93.0911 70.2129C93.4857 70.2287 93.7857 70.5447 93.7857 70.9396C93.7857 70.987 93.8488 71.0502 93.8962 71.066C93.9435 71.066 94.0225 71.0028 94.0225 70.9712C94.0698 70.5763 94.4171 70.3077 94.8118 70.3551C95.2064 70.4025 95.4748 70.75 95.4274 71.145C95.3485 71.8875 94.6539 72.4879 93.8962 72.4879Z" fill="#5D7183"/>
<path d="M100.021 76.9722C99.6898 76.9722 99.3583 76.8458 99.1215 76.6405C98.8531 76.4036 98.6795 76.0404 98.6637 75.6614C98.6479 75.2824 98.7742 74.9192 99.0268 74.6507C99.2951 74.3664 99.753 74.3506 100.037 74.6191C100.258 74.8244 100.321 75.1403 100.211 75.4087C100.463 75.2666 100.779 75.2824 101.016 75.4719C101.316 75.7246 101.363 76.1668 101.111 76.4668C100.874 76.7511 100.526 76.9248 100.148 76.9564C100.1 76.9722 100.069 76.9722 100.021 76.9722Z" fill="#5D7183"/>
<path d="M245.286 173.432C245.223 173.432 245.144 173.416 245.081 173.4C244.702 173.29 244.497 172.879 244.607 172.516C245.965 168.157 246.36 163.451 245.712 158.919C245.665 158.524 245.933 158.176 246.312 158.113C246.691 158.05 247.054 158.334 247.117 158.713C247.78 163.451 247.386 168.363 245.949 172.927C245.87 173.227 245.602 173.432 245.286 173.432Z" fill="#5D7183"/>
<path d="M252.769 171.3C252.706 171.3 252.627 171.284 252.548 171.268C252.169 171.158 251.964 170.747 252.09 170.384C252.658 168.568 252.737 166.625 252.279 164.762C252.185 164.383 252.421 164.004 252.8 163.909C253.179 163.814 253.558 164.051 253.653 164.43C254.158 166.531 254.079 168.742 253.432 170.81C253.353 171.11 253.069 171.3 252.769 171.3Z" fill="#5D7183"/>
<path d="M237.077 65.9649C236.919 65.9649 236.746 65.9017 236.619 65.7912C236.319 65.5385 236.288 65.0805 236.54 64.7962C239.019 61.9062 242.429 60.0269 246.375 59.3637C246.754 59.3005 247.133 59.5532 247.196 59.948C247.259 60.3428 247.006 60.706 246.612 60.7692C242.997 61.3693 239.887 63.0907 237.63 65.728C237.488 65.8859 237.282 65.9649 237.077 65.9649Z" fill="#5D7183"/>
<path d="M236.698 58.0369C236.54 58.0369 236.367 57.9738 236.225 57.8632C235.925 57.6105 235.893 57.1526 236.161 56.8683C237.361 55.4944 239.035 54.7363 240.897 54.7363C241.292 54.7363 241.608 55.0522 241.608 55.447C241.608 55.8418 241.292 56.1576 240.897 56.1576C239.429 56.1576 238.166 56.7262 237.235 57.8C237.093 57.958 236.888 58.0369 236.698 58.0369Z" fill="#5D7183"/>
</g>
<defs>
<clipPath id="clip0">
<rect width="254" height="224.536" fill="white"/>
</clipPath>
</defs>
</svg>
