<svg width="200" height="193" viewBox="0 0 200 193" fill="none" xmlns="http://www.w3.org/2000/svg">
<path d="M70.838 150.1C70.5016 150.1 70.2264 149.902 70.2264 149.66L69.9971 135.476C69.9971 135.234 70.257 135.036 70.6087 135.036C70.9451 135.036 71.2203 135.234 71.2203 135.476L71.4496 149.66C71.4496 149.902 71.1897 150.1 70.838 150.1Z" fill="#DFE2EA"/>
<path d="M82.8259 154.322C82.4895 154.322 82.2143 154.135 82.2143 153.894L81.8779 142.601C81.8779 142.359 82.1379 142.161 82.4743 142.15C82.8106 142.15 83.0859 142.337 83.1012 142.579L83.4375 153.872C83.4528 154.124 83.1776 154.322 82.8259 154.322C82.8412 154.322 82.8412 154.322 82.8259 154.322Z" fill="#DFE2EA"/>
<path d="M94.9202 159.226C94.8743 159.226 94.8285 159.226 94.7826 159.215C94.4921 159.171 94.3086 158.984 94.3086 158.764L94.7979 150.276C94.8132 150.034 95.1037 149.847 95.4401 149.858C95.7765 149.869 96.0364 150.078 96.0211 150.32L95.5624 158.39C95.6694 158.511 95.6847 158.665 95.593 158.808L95.4859 158.984C95.3789 159.127 95.1496 159.226 94.9202 159.226Z" fill="#DFE2EA"/>
<path d="M106.326 150.1C105.975 150.1 105.715 149.902 105.715 149.649C105.776 146.274 105.684 142.865 105.409 139.5C105.394 139.258 105.653 139.05 105.99 139.039C106.326 139.028 106.617 139.214 106.632 139.456C106.892 142.843 106.999 146.274 106.938 149.671C106.938 149.913 106.663 150.1 106.326 150.1Z" fill="#DFE2EA"/>
<path d="M116.433 162.107C116.096 162.107 115.821 161.909 115.821 161.667C115.806 157.808 115.806 153.883 115.806 150.001C115.806 149.759 116.081 149.562 116.417 149.562C116.754 149.562 117.029 149.759 117.029 150.001C117.029 153.883 117.029 157.808 117.044 161.667C117.044 161.909 116.769 162.107 116.433 162.107Z" fill="#DFE2EA"/>
<path d="M129.735 153.585C129.399 153.585 129.139 153.398 129.123 153.156L128.695 139.445C128.695 139.203 128.955 139.005 129.292 138.994H129.307C129.643 138.994 129.903 139.181 129.919 139.423L130.347 153.134C130.347 153.376 130.087 153.574 129.735 153.585Z" fill="#DFE2EA"/>
<path d="M106.157 171.486C106.142 171.486 106.127 171.486 106.111 171.486C105.775 171.464 105.53 171.255 105.546 171.013C105.79 168.737 105.836 166.428 105.683 164.141C105.668 163.899 105.928 163.69 106.264 163.679C106.601 163.668 106.891 163.855 106.906 164.097C107.059 166.417 107.013 168.77 106.769 171.079C106.754 171.31 106.478 171.486 106.157 171.486Z" fill="#DFE2EA"/>
<path d="M82.5048 173.531C82.4895 173.531 82.4895 173.531 82.4743 173.531C82.1379 173.52 81.8779 173.311 81.8932 173.069C82.1379 169.77 82.1837 166.428 82.0308 163.129C82.0155 162.887 82.2908 162.678 82.6272 162.678C82.9635 162.667 83.2541 162.865 83.2541 163.107C83.407 166.428 83.3611 169.803 83.1165 173.124C83.1012 173.344 82.8412 173.531 82.5048 173.531Z" fill="#DFE2EA"/>
<path d="M149.604 41.5764C149.298 41.5764 149.039 41.3469 148.993 41.041C148.947 40.6893 148.886 40.3681 148.809 40.0316C148.641 39.2975 148.488 38.548 148.595 37.5233C148.641 37.1868 148.947 36.9421 149.268 36.988C149.604 37.0338 149.849 37.3244 149.803 37.6609C149.711 38.4715 149.849 39.0986 149.987 39.7563C150.063 40.1081 150.139 40.4751 150.201 40.8881C150.246 41.2246 150.002 41.5305 149.665 41.5611C149.65 41.5764 149.635 41.5764 149.604 41.5764Z" fill="#D0D0CF"/>
<path d="M152.418 44.4971C152.327 44.4971 152.25 44.4818 152.174 44.436C151.027 43.9161 150.461 43.3351 149.834 42.7234C149.635 42.5247 149.421 42.3106 149.192 42.1118C148.947 41.8825 148.917 41.5002 149.146 41.2556C149.376 41.0109 149.758 40.9803 150.002 41.2097C150.262 41.439 150.476 41.6531 150.691 41.8672C151.272 42.4482 151.715 42.9069 152.663 43.3351C152.969 43.4727 153.106 43.8396 152.969 44.1455C152.877 44.3595 152.663 44.4971 152.418 44.4971Z" fill="#D0D0CF"/>
<path d="M148.962 41.9878C147.54 41.9725 145.614 40.9633 145.537 40.9174C145.231 40.7645 145.124 40.3823 145.277 40.0917C145.43 39.7859 145.797 39.6789 146.103 39.8318C146.577 40.0917 148.029 40.7492 148.962 40.7645C149.299 40.7645 149.574 41.0398 149.558 41.3914C149.574 41.7278 149.299 41.9878 148.962 41.9878Z" fill="#D0D0CF"/>
<path d="M150.186 41.8041C150.002 41.8041 149.819 41.7123 149.696 41.5594C149.498 41.2842 149.543 40.9019 149.819 40.7032L152.143 38.9601C152.418 38.7613 152.8 38.8072 152.999 39.0824C153.198 39.3576 153.152 39.7399 152.877 39.9387L150.553 41.6818C150.446 41.7582 150.323 41.8041 150.186 41.8041Z" fill="#D0D0CF"/>
<path d="M147.509 45.3072C147.265 45.3072 147.035 45.1696 146.944 44.9249C146.821 44.6191 146.974 44.2522 147.28 44.1298C147.509 44.0075 148.289 43.1359 148.457 42.1268C148.519 41.7904 148.824 41.561 149.161 41.6222C149.497 41.6833 149.726 41.9892 149.665 42.3255C149.436 43.7476 148.366 45.0167 147.739 45.2613C147.662 45.2919 147.586 45.3072 147.509 45.3072Z" fill="#D0D0CF"/>
<path d="M54.9451 8.67791C54.6393 8.67791 54.3794 8.44849 54.3335 8.14259C54.2876 7.79082 54.2265 7.46963 54.15 7.13315C53.9818 6.39901 53.8289 5.64957 53.936 4.62483C53.9818 4.28835 54.2876 4.04364 54.6087 4.08952C54.9451 4.1354 55.1898 4.426 55.1439 4.76248C55.0522 5.5731 55.1898 6.20018 55.3274 6.85785C55.4038 7.20962 55.4803 7.57669 55.5415 7.98965C55.5873 8.32613 55.3427 8.63202 55.0063 8.66261C55.0063 8.67791 54.9757 8.67791 54.9451 8.67791Z" fill="#D0D0CF"/>
<path d="M57.7582 11.5987C57.6665 11.5987 57.59 11.5834 57.5136 11.5375C56.3668 11.0177 55.801 10.4366 55.1741 9.825C54.9753 9.62623 54.7613 9.41216 54.5319 9.21338C54.2873 8.98403 54.2567 8.60176 54.486 8.35711C54.7154 8.11247 55.0977 8.08189 55.3423 8.31124C55.6022 8.5406 55.8163 8.75467 56.0304 8.96873C56.6114 9.54977 57.0548 10.0085 58.0028 10.4366C58.3087 10.5742 58.4463 10.9412 58.3087 11.247C58.2169 11.4764 58.0029 11.5987 57.7582 11.5987Z" fill="#D0D0CF"/>
<path d="M54.3029 9.10495C52.8809 9.08965 50.9543 8.08048 50.8779 8.03461C50.5721 7.8817 50.465 7.49944 50.6179 7.20892C50.7708 6.90311 51.1378 6.79608 51.4436 6.94898C51.9176 7.20892 53.3702 7.86641 54.3029 7.8817C54.6393 7.8817 54.9146 8.15693 54.8993 8.50862C54.9146 8.82972 54.6393 9.10495 54.3029 9.10495Z" fill="#D0D0CF"/>
<path d="M55.5412 8.906C55.3577 8.906 55.1742 8.81426 55.0519 8.66135C54.8531 8.38612 54.899 8.00386 55.1742 7.80508L57.4983 6.07725C57.7736 5.87848 58.1558 5.92435 58.3546 6.19958C58.5534 6.47481 58.5075 6.85707 58.2323 7.05585L55.9081 8.79897C55.7858 8.87542 55.6635 8.906 55.5412 8.906Z" fill="#D0D0CF"/>
<path d="M52.8502 12.4088C52.6055 12.4088 52.3762 12.2712 52.2844 12.0265C52.1621 11.7207 52.315 11.3537 52.6208 11.2314C52.8502 11.1091 53.63 10.2375 53.7982 9.22834C53.8593 8.89195 54.1652 8.66259 54.5016 8.72375C54.8379 8.78491 55.0673 9.09072 55.0061 9.42711C54.7768 10.8491 53.7064 12.1182 53.0795 12.3629C53.0031 12.3935 52.9266 12.4088 52.8502 12.4088Z" fill="#D0D0CF"/>
<path d="M162.265 4.59392C161.959 4.59392 161.699 4.3645 161.653 4.05861C161.607 3.70684 161.546 3.38565 161.469 3.04917C161.301 2.31502 161.148 1.56559 161.255 0.540848C161.301 0.204366 161.607 -0.0403482 161.928 0.00553565C162.265 0.0514195 162.509 0.342017 162.463 0.678499C162.372 1.48911 162.509 2.11619 162.647 2.77386C162.723 3.12564 162.8 3.49271 162.861 3.90567C162.907 4.24215 162.662 4.54804 162.326 4.57863C162.31 4.59392 162.28 4.59392 162.265 4.59392Z" fill="#D0D0CF"/>
<path d="M165.078 7.51472C164.986 7.51472 164.909 7.49943 164.833 7.45356C163.686 6.93368 163.105 6.35264 162.493 5.74102C162.295 5.54224 162.081 5.32818 161.851 5.1294C161.607 4.90004 161.576 4.51778 161.805 4.27313C162.035 4.02848 162.417 3.9979 162.662 4.22726C162.922 4.45662 163.136 4.67068 163.35 4.88475C163.931 5.46579 164.374 5.92451 165.322 6.35264C165.628 6.49025 165.766 6.85723 165.628 7.16304C165.536 7.3771 165.307 7.51472 165.078 7.51472Z" fill="#D0D0CF"/>
<path d="M161.622 5.00534C161.622 5.00534 161.607 5.00534 161.622 5.00534C160.2 4.99005 158.274 3.98087 158.197 3.935C157.891 3.7821 157.784 3.39983 157.937 3.10931C158.09 2.8035 158.457 2.69647 158.763 2.84937C159.237 3.10931 160.69 3.76681 161.622 3.7821C161.959 3.7821 162.234 4.05733 162.219 4.40901C162.219 4.73011 161.959 5.00534 161.622 5.00534Z" fill="#D0D0CF"/>
<path d="M162.846 4.82168C162.662 4.82168 162.479 4.72994 162.357 4.57703C162.158 4.3018 162.204 3.91954 162.479 3.72076L164.803 1.97764C165.078 1.77887 165.461 1.82474 165.659 2.09997C165.858 2.3752 165.812 2.75746 165.537 2.95624L163.213 4.69936C163.106 4.77581 162.968 4.82168 162.846 4.82168Z" fill="#D0D0CF"/>
<path d="M160.155 8.30915C159.91 8.30915 159.681 8.17154 159.589 7.92689C159.467 7.62108 159.62 7.25411 159.925 7.13178C160.155 7.00946 160.935 6.1379 161.103 5.12873C161.164 4.79234 161.47 4.56298 161.806 4.62414C162.143 4.6853 162.372 4.99111 162.311 5.3275C162.081 6.74952 161.011 8.01863 160.384 8.26328C160.308 8.29386 160.231 8.30915 160.155 8.30915Z" fill="#D0D0CF"/>
<path d="M196.469 29.2951C196.163 29.2951 195.903 29.0657 195.857 28.7598C195.811 28.408 195.75 28.0868 195.673 27.7503C195.505 27.0162 195.352 26.2668 195.459 25.242C195.505 24.9055 195.811 24.6608 196.132 24.7067C196.469 24.7526 196.713 25.0432 196.667 25.3797C196.576 26.1903 196.713 26.8174 196.851 27.475C196.927 27.8268 197.004 28.1939 197.065 28.6068C197.111 28.9433 196.866 29.2492 196.53 29.2798C196.53 29.2951 196.499 29.2951 196.469 29.2951Z" fill="#D0D0CF"/>
<path d="M199.282 32.2159C199.19 32.2159 199.113 32.2006 199.037 32.1547C197.89 31.6348 197.309 31.0538 196.698 30.4422C196.499 30.2434 196.285 30.0293 196.055 29.8306C195.811 29.6012 195.78 29.2189 196.009 28.9743C196.239 28.7297 196.621 28.6991 196.866 28.9284C197.126 29.1578 197.34 29.3719 197.554 29.5859C198.135 30.167 198.578 30.6257 199.526 31.0538C199.832 31.1914 199.97 31.5584 199.832 31.8642C199.74 32.0783 199.526 32.2159 199.282 32.2159Z" fill="#D0D0CF"/>
<path d="M195.826 29.7065C194.404 29.6912 192.478 28.682 192.401 28.6362C192.096 28.4833 191.988 28.101 192.141 27.8105C192.294 27.5047 192.661 27.3976 192.967 27.5505C193.441 27.8105 194.894 28.468 195.826 28.4833C196.163 28.4833 196.438 28.7585 196.423 29.1102C196.438 29.4466 196.163 29.7065 195.826 29.7065Z" fill="#D0D0CF"/>
<path d="M197.065 29.5229C196.881 29.5229 196.698 29.4311 196.575 29.2782C196.377 29.003 196.422 28.6207 196.698 28.4219L199.022 26.6788C199.297 26.48 199.679 26.5259 199.878 26.8011C200.077 27.0764 200.031 27.4586 199.756 27.6574L197.432 29.4005C197.309 29.477 197.187 29.5229 197.065 29.5229Z" fill="#D0D0CF"/>
<path d="M194.374 33.0262C194.129 33.0262 193.9 32.8885 193.808 32.6439C193.686 32.3381 193.838 31.9711 194.144 31.8488C194.374 31.7265 195.153 30.8549 195.322 29.8457C195.383 29.5093 195.689 29.2953 196.025 29.3411C196.361 29.4023 196.591 29.7081 196.53 30.0445C196.3 31.4665 195.23 32.7356 194.603 32.9803C194.526 33.0109 194.45 33.0262 194.374 33.0262Z" fill="#D0D0CF"/>
<path d="M178.533 66.6134C178.227 66.6134 177.967 66.384 177.921 66.0781C177.876 65.7263 177.814 65.4052 177.738 65.0687C177.57 64.3345 177.417 63.5851 177.524 62.5604C177.57 62.2239 177.876 61.9792 178.197 62.0251C178.533 62.071 178.778 62.3615 178.732 62.698C178.64 63.5086 178.778 64.1357 178.915 64.7934C178.992 65.1452 179.068 65.5122 179.129 65.9252C179.175 66.2617 178.931 66.5675 178.594 66.5981C178.579 66.6134 178.564 66.6134 178.533 66.6134Z" fill="#D0D0CF"/>
<path d="M181.346 69.5489C181.254 69.5489 181.178 69.5336 181.102 69.4878C179.955 68.9679 179.389 68.3868 178.762 67.7752C178.563 67.5764 178.349 67.3624 178.12 67.1636C177.875 66.9342 177.845 66.552 178.074 66.3073C178.303 66.0627 178.686 66.0321 178.93 66.2614C179.19 66.4908 179.404 66.7049 179.618 66.9189C180.199 67.5 180.643 67.9587 181.591 68.3868C181.897 68.5244 182.034 68.8914 181.897 69.1972C181.805 69.4113 181.591 69.5489 181.346 69.5489Z" fill="#D0D0CF"/>
<path d="M177.891 67.0405C176.469 67.0252 174.542 66.016 174.466 65.9702C174.16 65.8173 174.053 65.435 174.206 65.1445C174.359 64.8387 174.726 64.7316 175.031 64.8845C175.505 65.1445 176.958 65.802 177.891 65.8173C178.227 65.8173 178.502 66.0925 178.487 66.4442C178.502 66.7653 178.227 67.0405 177.891 67.0405Z" fill="#D0D0CF"/>
<path d="M179.114 66.8412C178.931 66.8412 178.747 66.7495 178.625 66.5965C178.426 66.3213 178.472 65.9391 178.747 65.7403L181.072 63.9972C181.347 63.7984 181.729 63.8443 181.928 64.1195C182.127 64.3947 182.081 64.777 181.806 64.9758L179.481 66.7189C179.374 66.8106 179.252 66.8412 179.114 66.8412Z" fill="#D0D0CF"/>
<path d="M176.438 70.3445C176.193 70.3445 175.964 70.2069 175.872 69.9622C175.75 69.6564 175.903 69.2894 176.209 69.1671C176.438 69.0448 177.218 68.1732 177.386 67.1641C177.447 66.8277 177.753 66.6136 178.089 66.6595C178.426 66.7207 178.655 67.0265 178.594 67.3629C178.365 68.7849 177.294 70.054 176.667 70.2986C176.591 70.3292 176.515 70.3445 176.438 70.3445Z" fill="#D0D0CF"/>
<path d="M16.033 74.7658C15.7272 74.7658 15.4673 74.5364 15.4214 74.2305C15.3755 73.8787 15.3144 73.5575 15.2379 73.221C15.0697 72.4869 14.9168 71.7375 15.0239 70.7127C15.0697 70.3762 15.3603 70.1315 15.6966 70.1774C16.033 70.2233 16.2777 70.5139 16.2318 70.8504C16.1401 71.661 16.2777 72.2881 16.4153 72.9457C16.4918 73.2975 16.5682 73.6646 16.6294 74.0775C16.6752 74.414 16.4306 74.7199 16.0942 74.7505C16.0789 74.7658 16.0483 74.7658 16.033 74.7658Z" fill="#D0D0CF"/>
<path d="M18.8461 77.6866C18.7544 77.6866 18.6779 77.6713 18.6015 77.6255C17.4547 77.1056 16.8736 76.5245 16.262 75.9129C16.0632 75.7141 15.8492 75.5001 15.6198 75.3013C15.3752 75.0719 15.3446 74.6897 15.5739 74.445C15.8033 74.2004 16.1856 74.1698 16.4302 74.3991C16.6901 74.6285 16.9042 74.8426 17.1183 75.0566C17.6993 75.6377 18.1427 76.0964 19.0908 76.5245C19.3966 76.6621 19.5342 77.0291 19.3966 77.3349C19.2895 77.549 19.0755 77.6866 18.8461 77.6866Z" fill="#D0D0CF"/>
<path d="M15.3752 75.1772C13.9532 75.1619 12.0266 74.1528 11.9501 74.1069C11.6443 73.954 11.5373 73.5717 11.6902 73.2812C11.8431 72.9754 12.2254 72.8683 12.5159 73.0212C12.9899 73.2812 14.4425 73.9387 15.3752 73.954C15.7116 73.954 15.9868 74.2292 15.9715 74.5809C15.9868 74.9173 15.7116 75.1772 15.3752 75.1772Z" fill="#D0D0CF"/>
<path d="M16.6134 74.9935C16.4299 74.9935 16.2465 74.9018 16.1241 74.7489C15.9254 74.4737 15.9712 74.0914 16.2465 73.8926L18.5706 72.1495C18.8458 71.9507 19.2281 71.9966 19.4269 72.2718C19.6257 72.5471 19.5798 72.9293 19.3046 73.1281L16.9804 74.8712C16.8581 74.9477 16.7357 74.9935 16.6134 74.9935Z" fill="#D0D0CF"/>
<path d="M13.9224 78.4811C13.6778 78.4811 13.4484 78.3434 13.3567 78.0988C13.2344 77.793 13.3873 77.426 13.6931 77.3037C13.9224 77.1814 14.7022 76.3098 14.8704 75.3006C14.9316 74.9642 15.2374 74.7349 15.5738 74.796C15.9102 74.8572 16.1396 75.163 16.0784 75.4994C15.849 76.9214 14.7787 78.1905 14.1518 78.4352C14.0753 78.4811 13.9989 78.4811 13.9224 78.4811Z" fill="#D0D0CF"/>
<path d="M45.3729 47.6027C45.0671 47.6027 44.8071 47.3733 44.7613 47.0674C44.7154 46.7156 44.6542 46.3944 44.5778 46.058C44.4096 45.3238 44.2567 44.5744 44.3637 43.5496C44.4096 43.2132 44.7001 42.9684 45.0365 43.0143C45.3729 43.0602 45.6175 43.3508 45.5716 43.6873C45.4799 44.4979 45.6175 45.125 45.7551 45.7827C45.8316 46.1344 45.908 46.5015 45.9692 46.9145C46.0151 47.2509 45.7704 47.5568 45.434 47.5874C45.4187 47.6027 45.4035 47.6027 45.3729 47.6027Z" fill="#D0D0CF"/>
<path d="M48.1859 50.5235C48.0942 50.5235 48.0177 50.5082 47.9413 50.4623C46.7945 49.9425 46.2135 49.3614 45.6019 48.7498C45.4031 48.551 45.189 48.337 44.9597 48.1382C44.715 47.9088 44.6844 47.5266 44.9138 47.2819C45.1431 47.0373 45.5254 47.0067 45.77 47.236C46.03 47.4654 46.244 47.6795 46.4581 47.8935C47.0392 48.4746 47.4826 48.9333 48.4306 49.3614C48.7364 49.499 48.874 49.866 48.7364 50.1718C48.6447 50.3859 48.4306 50.5235 48.1859 50.5235Z" fill="#D0D0CF"/>
<path d="M44.7307 48.0141C43.3087 47.9988 41.3821 46.9897 41.3056 46.9438C40.9998 46.7909 40.8928 46.4086 41.0457 46.1181C41.1986 45.8123 41.5808 45.7053 41.8713 45.8582C42.3454 46.1181 43.798 46.7756 44.7307 46.7909C45.0671 46.7909 45.3423 47.0661 45.327 47.4178C45.3423 47.7542 45.0671 48.0141 44.7307 48.0141Z" fill="#D0D0CF"/>
<path d="M45.9542 47.8305C45.7708 47.8305 45.5873 47.7387 45.4649 47.5858C45.2662 47.3106 45.312 46.9283 45.5873 46.7295L47.9114 44.9864C48.1867 44.7877 48.5689 44.8335 48.7677 45.1088C48.9665 45.384 48.9206 45.7662 48.6454 45.965L46.3212 47.7081C46.2142 47.7846 46.0919 47.8305 45.9542 47.8305Z" fill="#D0D0CF"/>
<path d="M43.2779 51.3338C43.0333 51.3338 42.8039 51.1961 42.7121 50.9515C42.5898 50.6457 42.7427 50.2787 43.0485 50.1564C43.2779 50.0341 44.0577 49.1625 44.2259 48.1533C44.2871 47.8169 44.5929 47.6029 44.9293 47.6487C45.2657 47.7099 45.495 48.0157 45.4339 48.3521C45.2045 49.7741 44.1342 51.0432 43.5073 51.2879C43.4308 51.3185 43.3544 51.3338 43.2779 51.3338Z" fill="#D0D0CF"/>
<path d="M4.39631 33.3176C4.0905 33.3176 3.83057 33.0882 3.78469 32.7823C3.73882 32.4305 3.67766 32.1093 3.60121 31.7728C3.43301 31.0387 3.28011 30.2892 3.38714 29.2645C3.43301 28.928 3.72353 28.6833 4.05992 28.7292C4.39631 28.7751 4.64096 29.0657 4.59509 29.4021C4.50335 30.2128 4.64096 30.8398 4.77858 31.4975C4.85503 31.8493 4.93148 32.2164 4.99264 32.6293C5.03851 32.9658 4.79387 33.2717 4.45748 33.3023C4.44218 33.3176 4.42689 33.3176 4.39631 33.3176Z" fill="#D0D0CF"/>
<path d="M7.20939 36.2383C7.11765 36.2383 7.04119 36.2231 6.96474 36.1772C5.81795 35.6573 5.23691 35.0763 4.62529 34.4646C4.42652 34.2659 4.21245 34.0518 3.98309 33.853C3.73844 33.6237 3.70786 33.2414 3.93722 32.9968C4.16658 32.7521 4.54884 32.7215 4.79349 32.9509C5.05343 33.1802 5.26749 33.3943 5.48156 33.6084C6.0626 34.1894 6.50603 34.6481 7.45404 35.0763C7.75985 35.2139 7.89746 35.5809 7.75985 35.8867C7.6681 36.1007 7.45404 36.2383 7.20939 36.2383Z" fill="#D0D0CF"/>
<path d="M3.75412 33.7446C2.3321 33.7293 0.405493 32.7201 0.32904 32.6743C0.0232296 32.5214 -0.0838041 32.1391 0.0691012 31.8486C0.222006 31.5428 0.604269 31.4357 0.894789 31.5886C1.3688 31.8486 2.8214 32.5061 3.75412 32.5214C4.09051 32.5214 4.36574 32.7966 4.35045 33.1483C4.36574 33.4694 4.09051 33.7446 3.75412 33.7446Z" fill="#D0D0CF"/>
<path d="M4.99233 33.5453C4.80884 33.5453 4.62536 33.4536 4.50303 33.3007C4.30426 33.0254 4.35013 32.6432 4.62536 32.4444L6.94952 30.7013C7.22475 30.5025 7.60701 30.5484 7.80579 30.8236C8.00456 31.0988 7.95869 31.4811 7.68346 31.6799L5.3593 33.423C5.23698 33.4995 5.11465 33.5453 4.99233 33.5453Z" fill="#D0D0CF"/>
<path d="M2.30134 37.0486C2.05669 37.0486 1.82733 36.911 1.73559 36.6663C1.61326 36.3605 1.76617 35.9936 2.07198 35.8712C2.30134 35.7489 3.08115 34.8773 3.24935 33.8682C3.31051 33.5318 3.61632 33.3177 3.95271 33.3636C4.28911 33.4248 4.51846 33.7306 4.4573 34.067C4.22794 35.489 3.15761 36.7581 2.53069 37.0027C2.45424 37.0333 2.37779 37.0486 2.30134 37.0486Z" fill="#D0D0CF"/>
<path d="M103.128 188.092C99.9019 182.815 103.969 175.137 110.513 174.128C117.072 173.133 123.662 179.175 122.516 185.124C124.396 181.362 130.283 179.848 134.044 182.157C128.265 178.594 125.971 171.023 128.922 165.257C131.873 159.491 139.717 156.233 146.444 157.961C152.392 159.491 156.765 164.324 158.936 169.6C161.107 174.862 161.413 180.597 161.704 186.21C159.945 182.28 164.792 177.446 169.257 178.67C174.67 180.154 176.336 187.74 172.345 191.212C169.104 194.026 161.199 192.665 157.04 192.71C150.863 192.756 144.671 192.649 138.494 192.512C126.43 192.236 114.351 191.839 102.287 192.252C98.5869 192.374 82.0738 194.286 84.4591 186.531C86.4009 180.154 100.621 184.038 103.128 188.092Z" fill="#B7E250"/>
<path d="M26.6176 178.165C27.8102 174.54 30.012 171.084 33.4216 168.942C36.8312 166.801 41.5405 166.205 45.1337 168.071C48.7268 169.937 50.5616 174.494 48.5433 177.798C51.3261 175.718 54.8275 174.081 58.3747 174.525C66.1114 175.473 66.3561 183.824 66.0808 189.131C65.5457 186.011 68.8636 182.448 72.5638 183.686C76.0651 184.864 76.6156 190.11 73.4047 191.869C71.7993 192.756 69.8116 192.741 67.9309 192.71C57.121 192.481 46.2804 193.536 35.501 192.603C24.2018 191.624 23.4526 187.785 26.6176 178.165Z" fill="#B7E250"/>
<path d="M100.316 121.973H99.6138C97.1865 121.973 95.2383 120.024 95.2383 117.596V101.495C95.2383 99.0669 97.1865 97.1182 99.6138 97.1182H100.316C102.744 97.1182 104.692 99.0669 104.692 101.495V117.596C104.692 120.024 102.744 121.973 100.316 121.973Z" fill="#FFF7BF"/>
<path d="M104.053 117.436C103.957 119.896 101.977 122.324 99.2944 121.557C97.2503 120.982 96.0367 119.129 95.9409 117.085C95.9409 116.893 94.5995 117.085 94.6314 117.436C94.9189 124.113 105.075 123.378 105.363 117.085C105.363 116.925 104.053 117.053 104.053 117.436Z" fill="#5D7183"/>
<path d="M133.308 91.2402C127.974 69.3887 128.389 41.084 99.9975 41.084C71.3821 41.084 72.0209 69.3887 66.6874 91.2402C64.2602 101.144 57.7451 101.847 57.7451 107.469C57.7451 111.91 78.6637 115.52 99.9975 115.52C121.331 115.52 142.25 111.91 142.25 107.469C142.25 101.847 135.703 101.144 133.308 91.2402Z" fill="#FFE07B"/>
<path d="M100.316 54.3418H99.6138C97.1865 54.3418 95.2383 52.393 95.2383 49.9651V33.864C95.2383 31.4361 97.1865 29.4873 99.6138 29.4873H100.316C102.744 29.4873 104.692 31.4361 104.692 33.864V49.9651C104.692 52.3611 102.744 54.3418 100.316 54.3418Z" fill="#FFEEA4"/>
<path d="M127.974 92.0386C126.122 84.5312 125.259 76.8959 123.695 69.3246C122.513 63.5422 120.884 57.6321 117.627 52.6484C112.612 44.9493 104.245 41.9463 95.3347 41.9463C83.1029 41.9463 74.8951 53.7665 72.3721 63.6381C70.903 69.3565 70.2643 75.3944 68.9549 81.1448C67.7413 86.3521 66.7513 92.2623 64.2921 96.8306C62.6314 99.8975 56.1482 104.21 58.0006 107.756C58.799 109.258 61.8969 109.705 63.334 110.025C66.5916 110.823 69.9449 111.302 73.2664 111.75C83.0071 113.06 92.8755 113.794 102.712 113.379C111.942 112.996 121.459 111.909 129.954 108.044C135.671 105.424 129.986 99.3544 128.868 95.5528C128.581 94.3707 128.262 93.1887 127.974 92.0386Z" fill="#FFEEA4"/>
<path d="M94.6 101.974C90.7037 101.654 87.1268 100.44 84.4441 97.3095C80.8033 93.0606 80.6756 86.7352 81.6017 81.464C82.1447 78.3332 83.1986 75.3302 84.4441 72.4231C85.498 69.8993 87.1587 67.2477 86.9032 64.3725C86.7755 62.9349 85.9132 61.4973 84.508 61.114C83.4541 60.8264 82.3363 61.2417 81.474 61.9126C78.2484 64.5323 76.6196 70.1229 75.4699 73.9565C74.2563 78.0776 73.5537 82.3585 73.4898 86.6393C73.4259 89.4826 72.7872 92.4536 71.5097 95.0732C70.1045 97.8845 67.5815 99.418 65.9527 101.942C63.6852 105.424 72.2443 106.478 74.0647 106.862C80.5478 108.171 86.9671 108.363 93.5461 108.459C95.3026 108.491 97.155 108.459 98.5921 107.469C100.349 106.255 100.732 103.699 98.6879 102.613C97.8256 102.133 96.8036 102.038 95.8136 102.006C95.4304 102.038 95.0152 102.006 94.6 101.974Z" fill="#FFF7BF"/>
<path d="M128.485 71.1131C129.539 75.969 130.369 80.8568 131.359 85.7127C132.189 89.8339 132.924 94.0508 135.223 97.6608C136.565 99.7693 138.385 101.399 139.918 103.347C140.908 104.625 142.313 107.085 141.132 108.618C139.854 110.312 136.884 110.983 134.968 111.526C131.231 112.58 127.367 113.219 123.503 113.73C113.762 115.04 103.83 115.391 94.0249 115.072C85.0826 114.784 75.9807 114.081 67.2619 112.005C64.7389 111.398 61.8965 110.727 59.7248 109.225C58.1599 108.139 58.0641 106.734 58.7987 104.977C59.7248 102.708 61.8646 101.079 63.3337 99.2262C65.4415 96.6065 66.6871 93.6355 67.4535 90.3769C68.9865 83.9557 69.9446 77.4066 71.3498 70.9534C72.8509 64.2126 74.7032 57.1524 78.6953 51.402C80.6434 48.5907 83.1345 46.1947 86.1046 44.5016C88.947 42.9042 91.981 42.1695 95.1427 41.5944C95.3663 41.5625 95.9092 41.4347 95.9092 41.1152C95.9092 37.7928 94.6317 28.2727 100.732 29.9658C103.638 30.7645 104.021 33.448 104.021 35.9718C104.021 37.7928 104.021 39.6137 104.021 41.4347C104.053 41.4986 104.085 41.5305 104.149 41.5625C105.873 41.9778 107.598 42.3931 109.323 42.8084C109.674 42.9042 110.856 42.3292 110.377 42.2334C109.355 41.9778 108.333 41.7542 107.343 41.4986C106.8 41.3708 106.225 41.243 105.682 41.0833C105.171 40.9555 105.426 41.1472 105.362 40.8916C105.107 39.9332 105.362 38.5595 105.362 37.5691C105.362 36.451 105.394 35.3329 105.362 34.1828C105.171 27.2823 94.7595 27.9213 94.6317 34.5342C94.5998 36.8344 94.6317 39.1665 94.6317 41.4666C94.8872 41.3069 95.1427 41.1472 95.3982 40.9874C89.7454 42.0097 84.5717 43.8307 80.4199 47.9518C75.8848 52.4563 73.3938 58.59 71.7011 64.596C69.7849 71.4006 68.731 78.397 67.3258 85.2974C66.5912 88.9713 65.9844 92.8688 64.196 96.1912C62.7588 98.8748 60.5233 100.824 58.7029 103.219C57.7128 104.497 56.4353 106.766 57.2657 108.427C58.0961 110.056 60.5871 110.887 62.152 111.43C70.0085 114.177 78.7592 114.912 87.0308 115.455C97.3144 116.126 107.662 115.998 117.914 115.008C122.353 114.593 126.76 113.986 131.104 113.091C134.042 112.484 137.012 111.781 139.726 110.471C140.972 109.864 142.76 108.97 142.888 107.405C143.08 105.136 141.483 103.188 140.078 101.654C137.778 99.1303 135.734 96.6065 134.585 93.316C132.892 88.556 132.253 83.3487 131.327 78.397C130.848 75.8732 130.337 73.3174 129.794 70.7937C129.73 70.3783 128.421 70.7298 128.485 71.1131Z" fill="#5D7183"/>
<path d="M133.946 91.0801C131.902 82.5823 130.817 73.8609 128.517 65.427C126.537 58.1751 123.535 50.6996 117.499 45.9076C113.89 43.0324 109.483 41.5309 104.948 40.9239C105.076 41.0517 105.235 41.1795 105.363 41.3073C105.363 38.8154 105.363 36.3555 105.363 33.8637C105.363 32.5219 105.171 31.308 104.213 30.2857C103.064 29.1037 101.594 29.0078 100.062 29.0078C96.8998 29.0078 94.6323 30.6051 94.6323 33.9595C94.6323 36.4194 94.6323 38.9113 94.6323 41.3712C94.8878 41.2114 95.1113 41.0198 95.3668 40.86C89.4904 41.6267 84.0292 43.9588 79.9413 48.3036C76.077 52.4247 73.8095 57.7278 72.1807 63.031C70.3284 69.1328 69.2425 75.4582 68.0609 81.7198C67.486 84.7867 66.8792 87.8535 66.1446 90.8885C65.2824 94.4665 63.6536 97.5334 61.2264 100.281C59.2782 102.453 54.9029 106.798 58.384 109.545C60.2044 110.983 62.7274 111.686 64.931 112.293C68.3483 113.219 71.8294 113.826 75.3105 114.337C84.6999 115.647 94.2171 116.094 103.702 115.903C112.645 115.743 121.651 115.072 130.433 113.347C133.627 112.708 136.98 111.973 139.951 110.504C141.356 109.801 142.985 108.842 142.985 107.085C142.985 104.53 141.196 102.645 139.567 100.856C136.821 98.0126 134.936 94.9137 133.946 91.0801C133.787 90.5051 132.477 90.8565 132.637 91.4316C133.435 94.5304 134.777 97.3417 136.789 99.8016C138.194 101.495 140.078 103.028 141.004 105.041C141.771 106.702 141.867 108.204 140.27 109.258C138.29 110.6 135.767 111.207 133.467 111.782C125.579 113.73 117.371 114.465 109.259 114.848C100.03 115.296 90.7679 115.072 81.6021 114.178C74.9911 113.507 67.8054 112.804 61.6096 110.184C60.3002 109.609 58.384 108.811 58.3521 107.149C58.3201 104.913 59.9808 103.156 61.3861 101.623C63.2065 99.6099 64.8991 97.5653 65.985 95.0735C67.2305 92.3261 67.7734 89.2911 68.3802 86.352C69.5938 80.4419 70.5519 74.4679 71.9252 68.5578C73.3624 62.4559 75.2466 56.1944 79.0152 51.0829C82.9753 45.684 88.692 42.681 95.2071 41.8184C95.4626 41.7865 95.9417 41.6267 95.9417 41.3073C95.9417 39.2946 95.9417 37.3139 95.9417 35.3013C95.9417 34.5985 95.9097 33.8956 95.9417 33.1928C96.0694 30.7968 97.794 29.9662 99.9338 29.9662C101.914 29.9662 103.766 30.7649 104.022 33.0011C104.117 33.7998 104.054 34.6304 104.054 35.4291C104.054 37.4417 104.054 39.4544 104.054 41.4351C104.054 41.6906 104.245 41.7865 104.469 41.8184C112.581 42.9046 118.968 47.3452 122.896 54.5012C126.793 61.5614 128.326 69.7717 129.827 77.6306C130.721 82.2309 131.551 86.8632 132.637 91.4316C132.765 91.9747 134.074 91.6552 133.946 91.0801Z" fill="#5D7183"/>
<path d="M90.2565 77.9817C95.0472 82.7737 104.309 82.7737 109.26 78.2373C109.835 77.6942 108.557 77.5664 108.174 77.9178C103.798 81.9111 95.5902 81.5917 91.4702 77.4386C91.0869 77.0233 89.8413 77.5345 90.2565 77.9817Z" fill="#5D7183"/>
<path d="M91.2557 73.3063C91.8506 73.2305 92.2715 72.6868 92.1958 72.0919C92.1201 71.497 91.5764 71.0761 90.9815 71.1519C90.3866 71.2276 89.9657 71.7713 90.0414 72.3663C90.1171 72.9612 90.6608 73.3821 91.2557 73.3063Z" fill="#5D7183"/>
<path d="M108.345 73.401C108.94 73.3253 109.36 72.7815 109.285 72.1866C109.209 71.5917 108.665 71.1708 108.07 71.2466C107.475 71.3224 107.055 71.8661 107.13 72.461C107.206 73.0559 107.75 73.4768 108.345 73.401Z" fill="#5D7183"/>
<path d="M88.6274 76.7684C88.6593 78.0782 87.8609 79.1324 86.9027 79.1324C85.9446 79.1324 85.1142 78.1101 85.1142 76.8003C85.0823 75.4905 85.8807 74.4363 86.8389 74.4363C87.8289 74.4043 88.6274 75.4585 88.6274 76.7684Z" fill="#FF9C80"/>
<path d="M113.889 76.4171C113.921 77.7269 113.123 78.7811 112.164 78.7811C111.206 78.7811 110.376 77.7588 110.376 76.449C110.344 75.1392 111.142 74.085 112.101 74.085C113.091 74.085 113.889 75.1392 113.889 76.4171Z" fill="#FF9C80"/>
</svg>
