<svg width="354" height="232" viewBox="0 0 354 232" fill="none" xmlns="http://www.w3.org/2000/svg">
<path d="M28.6084 225.716H27.4068C27.0941 225.486 26.7813 225.255 26.4686 225.008C26.271 224.86 26.2381 224.564 26.3863 224.366C26.5344 224.168 26.8307 224.136 27.0282 224.284C27.4891 224.646 27.95 224.992 28.4274 225.321C28.5426 225.42 28.6084 225.568 28.6084 225.716Z" fill="#DFF2F5"/>
<path d="M24.3287 222.078C23.4562 221.321 22.5838 220.531 21.7608 219.725C21.5797 219.544 21.2835 219.56 21.1188 219.741C20.9378 219.922 20.9542 220.218 21.1353 220.383C21.9913 221.206 22.8637 222.012 23.7525 222.786C23.8348 222.868 23.9501 222.901 24.0488 222.901C24.1805 222.901 24.2957 222.852 24.3945 222.737C24.5262 222.523 24.5097 222.243 24.3287 222.078ZM336.206 218.474C336.009 218.326 335.712 218.359 335.564 218.556C334.856 219.494 334.132 220.416 333.408 221.321C333.243 221.519 333.276 221.798 333.474 221.963C333.556 222.029 333.655 222.062 333.754 222.062C333.885 222.062 334.017 222.012 334.116 221.897C334.856 220.992 335.581 220.054 336.288 219.116C336.437 218.902 336.404 218.622 336.206 218.474ZM19.3082 217.223C18.5181 216.367 17.7444 215.495 17.0037 214.606C16.8391 214.409 16.5593 214.392 16.3618 214.54C16.1642 214.705 16.1478 214.985 16.2959 215.182C17.0531 216.087 17.8432 216.976 18.6333 217.848C18.7156 217.947 18.8473 217.997 18.9625 217.997C19.0777 217.997 19.193 217.964 19.2753 217.881C19.4563 217.684 19.4728 217.404 19.3082 217.223ZM340.239 212.697C340.025 212.565 339.745 212.615 339.613 212.829C338.971 213.8 338.313 214.771 337.638 215.725C337.49 215.923 337.539 216.219 337.753 216.367C337.836 216.417 337.935 216.449 338.017 216.449C338.165 216.449 338.297 216.384 338.395 216.252C339.07 215.297 339.745 214.31 340.387 213.339C340.502 213.125 340.453 212.845 340.239 212.697ZM14.8309 211.857C14.1396 210.936 13.4647 209.965 12.8063 209.01C12.6581 208.796 12.3783 208.747 12.1808 208.878C11.9668 209.027 11.9174 209.306 12.0491 209.504C12.7075 210.475 13.3989 211.462 14.0902 212.401C14.1725 212.516 14.3207 212.582 14.4523 212.582C14.5511 212.582 14.6499 212.549 14.7322 212.483C14.9462 212.335 14.9791 212.055 14.8309 211.857ZM343.893 206.689C343.679 206.558 343.399 206.64 343.268 206.871C342.708 207.874 342.099 208.895 341.49 209.882C341.358 210.096 341.424 210.376 341.638 210.508C341.72 210.557 341.786 210.574 341.869 210.574C342.017 210.574 342.165 210.491 342.264 210.36C342.889 209.356 343.482 208.319 344.058 207.315C344.189 207.085 344.107 206.805 343.893 206.689ZM10.9462 206.048C10.3537 205.06 9.77755 204.023 9.23435 203.003C9.11913 202.772 8.8393 202.69 8.62531 202.805C8.39487 202.92 8.31256 203.2 8.42779 203.414C8.97098 204.451 9.56356 205.488 10.1561 206.508C10.2384 206.657 10.3866 206.739 10.5512 206.739C10.6335 206.739 10.7158 206.722 10.7816 206.673C11.0121 206.541 11.0779 206.262 10.9462 206.048ZM347.087 200.419C346.856 200.32 346.593 200.419 346.478 200.633C345.984 201.67 345.473 202.739 344.93 203.776C344.815 204.007 344.897 204.27 345.128 204.385C345.194 204.418 345.259 204.435 345.342 204.435C345.506 204.435 345.671 204.352 345.753 204.188C346.296 203.134 346.823 202.065 347.317 201.011C347.416 200.797 347.317 200.534 347.087 200.419ZM7.68706 199.859C7.20971 198.806 6.73235 197.736 6.30438 196.65C6.20562 196.419 5.94225 196.304 5.7118 196.403C5.48135 196.502 5.36613 196.765 5.46489 196.995C5.90933 198.082 6.37022 199.184 6.86404 200.238C6.94634 200.402 7.11095 200.501 7.27555 200.501C7.34139 200.501 7.40724 200.485 7.47308 200.452C7.70352 200.369 7.80229 200.09 7.68706 199.859ZM349.753 193.901C349.523 193.819 349.259 193.934 349.161 194.181C348.98 194.675 348.798 195.168 348.601 195.646C348.37 196.238 348.124 196.831 347.877 197.423C347.778 197.654 347.893 197.917 348.124 198.016C348.173 198.049 348.239 198.049 348.305 198.049C348.486 198.049 348.65 197.95 348.733 197.769C348.98 197.176 349.226 196.567 349.457 195.958C349.654 195.465 349.835 194.954 350.017 194.477C350.099 194.263 349.984 194 349.753 193.901ZM5.0863 193.374C4.70771 192.288 4.34558 191.169 4.03283 190.05C3.96699 189.803 3.70362 189.671 3.47317 189.737C3.22626 189.803 3.09458 190.066 3.16042 190.297C3.48963 191.432 3.85176 192.568 4.23035 193.671C4.2962 193.852 4.47726 193.983 4.65833 193.983C4.70771 193.983 4.75709 193.967 4.80647 193.951C5.03692 193.885 5.1686 193.621 5.0863 193.374ZM351.778 187.186C351.531 187.12 351.284 187.268 351.218 187.515C350.938 188.634 350.609 189.754 350.263 190.873C350.181 191.12 350.329 191.367 350.56 191.449C350.609 191.465 350.642 191.465 350.691 191.465C350.889 191.465 351.07 191.334 351.119 191.136C351.465 190 351.794 188.848 352.074 187.729C352.173 187.482 352.025 187.235 351.778 187.186ZM3.1275 186.676C2.86413 185.557 2.60076 184.405 2.38678 183.252C2.33739 183.006 2.10695 182.841 1.86004 182.89C1.61313 182.94 1.44853 183.17 1.49791 183.417C1.72835 184.569 1.97526 185.738 2.25509 186.873C2.30447 187.087 2.48554 187.219 2.69953 187.219C2.73245 187.219 2.76537 187.219 2.81475 187.202C3.02874 187.153 3.17688 186.923 3.1275 186.676ZM353.078 180.273C352.831 180.24 352.601 180.422 352.568 180.668C352.42 181.804 352.222 182.956 351.992 184.108C351.942 184.355 352.107 184.602 352.354 184.635C352.387 184.635 352.42 184.651 352.436 184.651C352.65 184.651 352.848 184.503 352.881 184.289C353.111 183.121 353.309 181.952 353.457 180.8C353.506 180.537 353.325 180.306 353.078 180.273ZM1.7942 179.813C1.62959 178.677 1.48145 177.508 1.36622 176.34C1.3333 176.093 1.11932 175.912 0.872408 175.928C0.6255 175.961 0.444434 176.175 0.460895 176.422C0.576118 177.591 0.724263 178.776 0.905329 179.928C0.93825 180.158 1.13578 180.323 1.34976 180.323C1.36622 180.323 1.39914 180.323 1.4156 180.323C1.66251 180.29 1.84358 180.059 1.7942 179.813ZM353.539 173.246C353.292 173.246 353.078 173.443 353.078 173.69C353.062 174.167 353.062 174.645 353.045 175.138C353.029 175.813 352.979 176.504 352.93 177.196C352.914 177.443 353.095 177.673 353.358 177.689C353.374 177.689 353.374 177.689 353.391 177.689C353.621 177.689 353.835 177.508 353.852 177.261C353.901 176.57 353.934 175.863 353.967 175.171C353.983 174.677 354 174.2 354 173.723C354 173.46 353.786 173.262 353.539 173.246ZM0.921789 169.345C0.921789 169.098 0.707802 168.901 0.460895 168.901C0.213987 168.901 0.0164605 169.114 0.0164605 169.361C0.0493816 170.546 0.0987631 171.731 0.164605 172.9C0.181066 173.147 0.378592 173.328 0.6255 173.328H0.658421C0.905329 173.311 1.10285 173.097 1.08639 172.851C1.00409 171.698 0.95471 170.513 0.921789 169.345ZM353.885 166.646C353.868 166.399 353.654 166.201 353.407 166.218C353.16 166.234 352.963 166.448 352.979 166.695C353.045 167.831 353.078 169.016 353.095 170.201C353.095 170.448 353.309 170.645 353.556 170.645C353.802 170.645 354.016 170.431 354 170.184C353.984 168.983 353.951 167.798 353.885 166.646ZM0.543197 161.873C0.296289 161.873 0.0823026 162.07 0.0658421 162.317C0.032921 163.469 0 164.654 0 165.839C0 166.086 0.197526 166.3 0.444434 166.3C0.691342 166.3 0.905329 166.103 0.905329 165.856C0.921789 164.671 0.93825 163.502 0.971171 162.35C0.987631 162.087 0.790105 161.873 0.543197 161.873ZM353.21 159.601C353.177 159.355 352.947 159.173 352.7 159.223C352.453 159.256 352.272 159.486 352.321 159.733C352.486 160.852 352.634 162.021 352.733 163.206C352.749 163.436 352.947 163.617 353.193 163.617C353.21 163.617 353.226 163.617 353.243 163.617C353.49 163.584 353.671 163.37 353.654 163.124C353.506 161.922 353.374 160.753 353.21 159.601ZM0.95471 154.845C0.707802 154.828 0.477355 155.009 0.460895 155.256C0.362131 156.408 0.279829 157.593 0.213987 158.778C0.197526 159.025 0.395053 159.239 0.64196 159.256C0.658421 159.256 0.658421 159.256 0.674881 159.256C0.921789 159.256 1.11932 159.075 1.13578 158.828C1.20162 157.643 1.28392 156.474 1.36622 155.339C1.38268 155.092 1.20162 154.861 0.95471 154.845ZM352.601 156.112C352.37 154.944 352.091 153.775 351.794 152.656C351.728 152.409 351.482 152.261 351.235 152.327C350.988 152.393 350.84 152.639 350.905 152.886C351.202 153.989 351.465 155.125 351.696 156.293C351.745 156.507 351.926 156.655 352.14 156.655C352.173 156.655 352.206 156.655 352.239 156.639C352.486 156.606 352.65 156.359 352.601 156.112ZM1.76128 147.85C1.51437 147.817 1.28392 147.982 1.251 148.229C1.08639 149.364 0.93825 150.549 0.806566 151.734C0.773645 151.981 0.95471 152.211 1.20162 152.244C1.21808 152.244 1.23454 152.244 1.251 152.244C1.48145 152.244 1.67897 152.063 1.69543 151.833C1.82712 150.664 1.97526 149.496 2.13987 148.36C2.17279 148.13 2.00818 147.883 1.76128 147.85ZM350.774 149.265C350.395 148.13 349.967 147.027 349.523 145.941C349.424 145.71 349.161 145.595 348.93 145.694C348.7 145.793 348.584 146.056 348.683 146.286C349.128 147.34 349.539 148.442 349.918 149.545C349.984 149.743 350.165 149.858 350.346 149.858C350.395 149.858 350.445 149.858 350.494 149.825C350.724 149.759 350.856 149.512 350.774 149.265ZM3.0452 140.937C2.79829 140.888 2.55138 141.036 2.502 141.283C2.25509 142.402 2.00818 143.571 1.7942 144.756C1.74482 145.003 1.90942 145.249 2.15633 145.282C2.18925 145.282 2.20571 145.282 2.23863 145.282C2.45262 145.282 2.65014 145.134 2.68306 144.904C2.89705 143.735 3.1275 142.583 3.37441 141.48C3.45671 141.234 3.2921 140.987 3.0452 140.937ZM348.025 142.731C347.498 141.694 346.922 140.641 346.296 139.621C346.165 139.407 345.885 139.341 345.671 139.473C345.457 139.604 345.391 139.884 345.523 140.098C346.132 141.102 346.691 142.122 347.218 143.143C347.301 143.307 347.465 143.39 347.63 143.39C347.696 143.39 347.761 143.373 347.827 143.34C348.041 143.225 348.14 142.945 348.025 142.731ZM4.93816 134.156C4.69125 134.074 4.44434 134.206 4.36204 134.453C3.99991 135.555 3.6707 136.691 3.35795 137.843C3.2921 138.09 3.44025 138.337 3.68716 138.403C3.72008 138.419 3.76946 138.419 3.80238 138.419C3.99991 138.419 4.18097 138.287 4.24681 138.09C4.55956 136.954 4.88877 135.819 5.23445 134.732C5.30029 134.502 5.1686 134.239 4.93816 134.156ZM344.371 136.642C343.729 135.703 343.037 134.765 342.28 133.778C342.132 133.58 341.836 133.547 341.638 133.696C341.441 133.844 341.408 134.14 341.556 134.337C342.313 135.308 342.988 136.23 343.613 137.152C343.696 137.284 343.844 137.349 343.992 137.349C344.074 137.349 344.173 137.316 344.255 137.267C344.469 137.135 344.519 136.856 344.371 136.642ZM340.074 131.029C339.482 130.305 338.889 129.614 338.33 128.939L337.819 128.33C337.655 128.133 337.375 128.116 337.177 128.281C336.98 128.445 336.963 128.725 337.128 128.923L337.638 129.532C338.198 130.206 338.79 130.898 339.383 131.622C339.465 131.737 339.597 131.786 339.729 131.786C339.827 131.786 339.926 131.753 340.025 131.688C340.206 131.507 340.239 131.227 340.074 131.029ZM7.52246 127.622C7.29201 127.524 7.02864 127.622 6.91342 127.853C6.43606 128.906 5.97517 130.009 5.5472 131.128C5.44843 131.358 5.58012 131.622 5.81056 131.721C5.85995 131.737 5.92579 131.753 5.97517 131.753C6.15623 131.753 6.3373 131.638 6.40314 131.457C6.83112 130.354 7.27555 129.268 7.75291 128.231C7.85167 128.001 7.75291 127.721 7.52246 127.622ZM335.581 125.614C334.774 124.594 334.083 123.689 333.474 122.833C333.326 122.619 333.046 122.57 332.832 122.718C332.618 122.866 332.568 123.146 332.717 123.36C333.326 124.232 334.033 125.154 334.856 126.19C334.939 126.306 335.087 126.355 335.219 126.355C335.317 126.355 335.416 126.322 335.498 126.256C335.712 126.108 335.745 125.812 335.581 125.614ZM10.9133 121.467C10.6993 121.335 10.4195 121.401 10.2878 121.615C9.66233 122.602 9.05329 123.623 8.49363 124.676C8.37841 124.89 8.46071 125.17 8.6747 125.302C8.74054 125.335 8.82284 125.351 8.88868 125.351C9.05329 125.351 9.20143 125.269 9.28373 125.104C9.84339 124.067 10.436 123.063 11.045 122.092C11.1767 121.878 11.1273 121.598 10.9133 121.467ZM331.63 119.903C331.054 118.866 330.56 117.846 330.132 116.793C330.033 116.562 329.77 116.447 329.54 116.546C329.309 116.644 329.194 116.908 329.293 117.138C329.737 118.241 330.231 119.294 330.84 120.364C330.922 120.512 331.087 120.594 331.235 120.594C331.317 120.594 331.383 120.578 331.449 120.529C331.663 120.397 331.745 120.134 331.63 119.903ZM15.1437 115.854C14.9462 115.69 14.6663 115.706 14.5017 115.904C13.7281 116.793 12.9874 117.731 12.2795 118.685C12.1314 118.883 12.1808 119.179 12.3783 119.327C12.4606 119.393 12.5594 119.409 12.6581 119.409C12.7898 119.409 12.938 119.344 13.0203 119.228C13.7116 118.29 14.4359 117.385 15.1931 116.513C15.3577 116.315 15.3412 116.019 15.1437 115.854ZM20.1641 110.933C19.9995 110.736 19.7032 110.719 19.5222 110.884C18.6168 111.674 17.7444 112.48 16.9214 113.303C16.7404 113.484 16.7404 113.764 16.9214 113.945C17.0037 114.027 17.1189 114.077 17.2506 114.077C17.3659 114.077 17.4811 114.027 17.5798 113.945C18.3864 113.139 19.2423 112.332 20.1312 111.559C20.2958 111.411 20.3287 111.114 20.1641 110.933ZM329.293 110.094C329.309 109.847 329.112 109.633 328.865 109.617C328.618 109.6 328.404 109.798 328.387 110.045C328.338 110.999 328.305 111.789 328.305 112.447C328.305 112.875 328.322 113.27 328.338 113.616C328.354 113.863 328.552 114.044 328.799 114.044C328.815 114.044 328.815 114.044 328.832 114.044C329.079 114.027 329.276 113.814 329.26 113.567C329.243 113.237 329.227 112.875 329.227 112.464C329.21 111.806 329.243 111.032 329.293 110.094ZM25.7607 106.671C25.6126 106.457 25.3327 106.407 25.1188 106.555C24.0982 107.263 23.16 107.954 22.2546 108.646C22.0571 108.794 22.0242 109.09 22.1723 109.287C22.2546 109.403 22.4028 109.468 22.5345 109.468C22.6332 109.468 22.732 109.436 22.8143 109.37C23.7032 108.695 24.6249 108.02 25.6455 107.312C25.843 107.164 25.8924 106.868 25.7607 106.671ZM329.326 102.589C329.079 102.572 328.865 102.77 328.848 103.017C328.782 104.284 328.7 105.485 328.618 106.522C328.601 106.769 328.782 107 329.046 107.016C329.062 107.016 329.062 107.016 329.079 107.016C329.309 107.016 329.523 106.835 329.54 106.588C329.622 105.551 329.704 104.333 329.77 103.066C329.77 102.819 329.573 102.605 329.326 102.589ZM31.67 102.836C31.5384 102.622 31.2585 102.556 31.0445 102.688C30.1392 103.264 29.1022 103.905 28.0652 104.58C27.8512 104.712 27.7854 105.008 27.9335 105.206C28.0158 105.337 28.164 105.42 28.3121 105.42C28.3944 105.42 28.4767 105.387 28.559 105.337C29.5796 104.679 30.6166 104.021 31.5219 103.461C31.7359 103.329 31.8017 103.05 31.67 102.836ZM37.53 98.9514C37.3818 98.7539 37.102 98.7045 36.888 98.8527C36.065 99.4452 35.1432 100.071 33.991 100.811C33.777 100.943 33.7111 101.239 33.8593 101.437C33.9416 101.568 34.0897 101.651 34.2379 101.651C34.3202 101.651 34.4025 101.634 34.4848 101.585C35.637 100.828 36.5753 100.202 37.4148 99.5933C37.6288 99.4452 37.6781 99.1654 37.53 98.9514ZM329.852 95.9889C329.836 95.742 329.638 95.5445 329.375 95.5445C329.128 95.5609 328.931 95.7584 328.931 96.0218C328.964 96.7624 328.964 97.536 328.964 98.3095C328.964 98.7045 328.964 99.116 328.947 99.511C328.947 99.7579 329.145 99.9718 329.391 99.9718C329.638 99.9718 329.836 99.7743 329.852 99.5275C329.852 99.116 329.869 98.7045 329.869 98.3095C329.885 97.5195 329.885 96.746 329.852 95.9889ZM42.6657 94.1784C42.4681 94.0138 42.1883 94.0303 42.0237 94.2278C41.7603 94.5405 41.4805 94.8532 41.2007 95.1495C40.7233 95.6597 40.1801 96.1864 39.604 96.6966C39.423 96.8612 39.4065 97.1574 39.5711 97.3385C39.6534 97.4372 39.7851 97.4866 39.9168 97.4866C40.032 97.4866 40.1308 97.4537 40.2131 97.3714C40.8056 96.8447 41.3653 96.3016 41.8591 95.7584C42.1389 95.4457 42.4352 95.133 42.7151 94.8038C42.8797 94.6228 42.8632 94.343 42.6657 94.1784ZM329.622 92.4503C329.507 91.2488 329.342 90.0638 329.145 88.9281C329.095 88.6812 328.865 88.5166 328.618 88.5496C328.371 88.5989 328.206 88.8294 328.239 89.0762C328.437 90.179 328.601 91.3475 328.717 92.5325C328.75 92.763 328.947 92.944 329.178 92.944C329.194 92.944 329.21 92.944 329.227 92.944C329.457 92.9276 329.638 92.6971 329.622 92.4503ZM46.682 88.4014C46.4681 88.2698 46.1882 88.3356 46.0565 88.5496C45.3981 89.6358 44.7726 90.5904 44.1471 91.4792C43.999 91.6767 44.0484 91.973 44.2623 92.1211C44.3446 92.1705 44.4269 92.2034 44.5257 92.2034C44.6739 92.2034 44.8055 92.1375 44.9043 92.0059C45.5463 91.1006 46.1718 90.1296 46.8466 89.0269C46.9619 88.8129 46.896 88.5331 46.682 88.4014ZM50.1223 82.2788C49.9083 82.1636 49.6285 82.2459 49.4968 82.4599L49.2663 82.8878C48.789 83.7601 48.2952 84.6653 47.8014 85.5376C47.6697 85.7516 47.752 86.0314 47.9824 86.1631C48.0483 86.196 48.1306 86.2289 48.2129 86.2289C48.3775 86.2289 48.5256 86.1466 48.6079 85.9985C49.1017 85.1262 49.5956 84.2209 50.0729 83.3322L50.3034 82.9043C50.435 82.6738 50.3527 82.394 50.1223 82.2788ZM328.371 85.4553C328.289 85.1756 328.223 84.9122 328.141 84.6324C327.894 83.7601 327.597 82.9043 327.285 82.0484C327.202 81.818 326.939 81.6863 326.692 81.7851C326.462 81.8674 326.33 82.1307 326.429 82.3776C326.741 83.2005 327.021 84.0399 327.268 84.8958C327.35 85.1591 327.416 85.4224 327.499 85.7022C327.548 85.8997 327.729 86.0479 327.943 86.0479C327.976 86.0479 328.025 86.0479 328.058 86.0314C328.289 85.9491 328.437 85.7022 328.371 85.4553ZM53.6448 76.1727C53.4309 76.041 53.151 76.1069 53.0193 76.3208C52.4432 77.2425 51.8671 78.2465 51.2251 79.3657C51.0935 79.5796 51.1758 79.8594 51.4062 79.9911C51.472 80.024 51.5544 80.0569 51.6367 80.0569C51.8013 80.0569 51.9494 79.9746 52.0317 79.8265C52.6572 78.7073 53.2498 77.7198 53.8094 76.8146C53.9247 76.5842 53.8588 76.3044 53.6448 76.1727ZM325.869 78.7896C325.342 77.7198 324.75 76.6829 324.124 75.6789C323.992 75.465 323.713 75.3991 323.499 75.5308C323.285 75.6625 323.219 75.9423 323.35 76.1562C323.96 77.1273 324.536 78.1477 325.046 79.1846C325.128 79.3492 325.293 79.4315 325.457 79.4315C325.523 79.4315 325.589 79.415 325.655 79.3821C325.902 79.2998 325.984 79.02 325.869 78.7896ZM57.6941 70.4286C57.4966 70.264 57.2168 70.297 57.0522 70.5109C56.3444 71.4161 55.6366 72.3707 54.9452 73.3583C54.7971 73.5722 54.8629 73.852 55.0604 74.0001C55.1427 74.0495 55.2251 74.0824 55.3238 74.0824C55.472 74.0824 55.6036 74.0166 55.7024 73.8849C56.3773 72.9139 57.0686 71.9593 57.7764 71.087C57.9246 70.873 57.8917 70.5932 57.6941 70.4286ZM322.083 72.7658C321.968 72.6176 321.853 72.486 321.754 72.3378C321.128 71.5643 320.453 70.8072 319.746 70.0665C319.565 69.8855 319.285 69.8855 319.104 70.0501C318.923 70.2311 318.923 70.5109 319.087 70.692C319.779 71.3997 320.437 72.1403 321.046 72.8974C321.161 73.0291 321.26 73.1772 321.375 73.3089C321.474 73.4241 321.606 73.4899 321.737 73.4899C321.836 73.4899 321.935 73.457 322.017 73.3912C322.198 73.2595 322.231 72.9633 322.083 72.7658ZM62.5006 65.31C62.336 65.129 62.0397 65.1125 61.8586 65.2935C61.0027 66.1 60.1632 66.9394 59.3566 67.8117C59.192 67.9928 59.192 68.289 59.3896 68.4536C59.4719 68.5359 59.5871 68.5688 59.7023 68.5688C59.834 68.5688 59.9492 68.5194 60.0315 68.4207C60.8216 67.5648 61.6447 66.7419 62.4841 65.9519C62.6652 65.7708 62.6817 65.4911 62.5006 65.31ZM317.145 67.6471C316.256 66.89 315.318 66.1494 314.347 65.4417C314.149 65.2935 313.853 65.3429 313.705 65.5404C313.556 65.7379 313.606 66.0342 313.803 66.1823C314.758 66.8736 315.68 67.5978 316.536 68.3384C316.618 68.4207 316.733 68.4536 316.832 68.4536C316.964 68.4536 317.095 68.4042 317.178 68.289C317.359 68.0915 317.342 67.8117 317.145 67.6471ZM311.384 63.4831C310.495 62.94 309.557 62.4133 308.602 61.9195C308.503 61.8702 308.388 61.8043 308.289 61.7549C308.059 61.6397 307.795 61.722 307.68 61.9524C307.565 62.1829 307.647 62.4462 307.878 62.5614C307.976 62.6108 308.092 62.6766 308.19 62.726C309.129 63.2198 310.034 63.73 310.923 64.2731C311.005 64.3225 311.071 64.3389 311.153 64.3389C311.301 64.3389 311.45 64.2567 311.548 64.125C311.68 63.8946 311.598 63.6148 311.384 63.4831ZM68.0643 60.9978C67.9161 60.7839 67.6363 60.7345 67.4388 60.8662C66.4511 61.5245 65.4799 62.2322 64.5746 62.9564C64.3771 63.121 64.3442 63.4008 64.4923 63.5983C64.5746 63.7135 64.7228 63.7794 64.8545 63.7794C64.9532 63.7794 65.052 63.7464 65.1343 63.6806C66.0396 62.9729 66.9779 62.2816 67.949 61.6233C68.1466 61.4916 68.1959 61.2118 68.0643 60.9978ZM305.112 60.1914C304.026 59.6976 302.939 59.2203 301.87 58.7759C301.639 58.6772 301.376 58.7924 301.277 59.0228C301.178 59.2532 301.293 59.5166 301.524 59.6153C302.577 60.0432 303.664 60.5205 304.734 61.0143C304.799 61.0472 304.865 61.0637 304.931 61.0637C305.096 61.0637 305.26 60.9649 305.343 60.8003C305.441 60.5699 305.343 60.2901 305.112 60.1914ZM74.1876 57.558C74.0723 57.3276 73.809 57.2453 73.5785 57.344C72.5086 57.8707 71.4551 58.4303 70.451 59.0064C70.237 59.138 70.1547 59.4014 70.2864 59.6318C70.3687 59.7799 70.5169 59.8622 70.6815 59.8622C70.7638 59.8622 70.8296 59.8457 70.9119 59.7964C71.8996 59.2368 72.9366 58.6772 73.99 58.167C74.204 58.0518 74.3028 57.772 74.1876 57.558ZM298.561 57.5251C297.442 57.1301 296.306 56.768 295.187 56.4553C294.94 56.3894 294.693 56.5211 294.627 56.768C294.561 57.0149 294.693 57.2617 294.94 57.3276C296.042 57.6403 297.162 58.0024 298.265 58.3809C298.314 58.3974 298.363 58.4138 298.413 58.4138C298.594 58.4138 298.775 58.2986 298.841 58.1011C298.923 57.8543 298.808 57.6074 298.561 57.5251ZM80.7224 54.9411C80.6401 54.6942 80.3932 54.579 80.1463 54.6448C79.027 55.0069 77.9077 55.4184 76.8213 55.8792C76.5908 55.978 76.4756 56.2413 76.5743 56.4717C76.6402 56.6528 76.8213 56.7515 77.0023 56.7515C77.0682 56.7515 77.1175 56.7351 77.1834 56.7186C78.2533 56.2742 79.3562 55.8792 80.459 55.5171C80.6566 55.4513 80.7882 55.188 80.7224 54.9411ZM291.763 55.55C290.627 55.2867 289.458 55.0563 288.29 54.8588C288.043 54.8094 287.812 54.9905 287.763 55.2373C287.713 55.4842 287.895 55.7146 288.141 55.764C289.294 55.9615 290.446 56.1919 291.565 56.4553C291.598 56.4553 291.631 56.4717 291.664 56.4717C291.878 56.4717 292.059 56.3236 292.108 56.1096C292.158 55.8628 292.01 55.6159 291.763 55.55ZM284.783 54.3486C283.648 54.2169 282.495 54.1017 281.261 54.0029C281.014 53.9865 280.784 54.1675 280.767 54.4309C280.751 54.6777 280.932 54.9082 281.195 54.9246C282.43 55.0234 283.565 55.1221 284.685 55.2538C284.701 55.2538 284.718 55.2538 284.734 55.2538C284.965 55.2538 285.162 55.0892 285.179 54.8588C285.211 54.6119 285.03 54.3815 284.783 54.3486ZM277.738 53.8054C276.998 53.7725 276.273 53.7396 275.566 53.7067H275.516C275.072 53.6902 274.644 53.6738 274.232 53.6573C273.985 53.6408 273.771 53.8383 273.755 54.0852C273.738 54.3321 273.936 54.5461 274.183 54.5625C274.611 54.579 275.039 54.5954 275.483 54.6119H275.533C276.24 54.6448 276.965 54.6777 277.705 54.7107H277.722C277.969 54.7107 278.166 54.5132 278.183 54.2827C278.183 54.0359 277.985 53.8054 277.738 53.8054ZM87.5535 53.2788C87.5041 53.0319 87.2737 52.8673 87.0268 52.9167C85.8416 53.1306 84.6729 53.394 83.5701 53.6738C83.3232 53.7396 83.175 53.9865 83.2409 54.2334C83.2902 54.4473 83.4713 54.579 83.6853 54.579C83.7182 54.579 83.7676 54.579 83.8005 54.5625C84.8869 54.2827 86.0391 54.0359 87.2078 53.8219C87.4218 53.7725 87.5864 53.5256 87.5535 53.2788ZM270.726 53.4433C269.409 53.3446 268.29 53.1965 267.286 53.0154C267.039 52.966 266.792 53.1306 266.759 53.3775C266.71 53.6244 266.874 53.8548 267.121 53.9042C268.158 54.0852 269.311 54.2334 270.66 54.3486C270.677 54.3486 270.693 54.3486 270.693 54.3486C270.924 54.3486 271.121 54.1675 271.154 53.9371C271.154 53.6738 270.973 53.4598 270.726 53.4433ZM94.0225 51.9456C92.7386 52.0773 91.6028 52.2089 90.5164 52.3571C90.2695 52.39 90.0884 52.6204 90.1214 52.8673C90.1543 53.0977 90.3518 53.2623 90.5658 53.2623C90.5823 53.2623 90.6152 53.2623 90.6316 53.2623C91.7016 53.1142 92.8538 52.9825 94.1048 52.8673C94.3517 52.8344 94.5328 52.6204 94.5163 52.3735C94.4999 52.1102 94.2694 51.9291 94.0225 51.9456ZM263.961 52.1102C263.467 51.9127 262.973 51.6987 262.496 51.4683C261.936 51.1885 261.393 50.8923 260.85 50.596C260.636 50.4808 260.356 50.5466 260.224 50.7771C260.109 50.991 260.175 51.2708 260.405 51.4025C260.949 51.6987 261.508 51.995 262.068 52.2912C262.562 52.5381 263.089 52.7685 263.615 52.9825C263.665 52.999 263.73 53.0154 263.78 53.0154C263.961 53.0154 264.142 52.9002 264.208 52.7192C264.323 52.4558 264.208 52.1925 263.961 52.1102ZM101.051 51.3531C100.343 51.4189 99.652 51.4683 98.9442 51.5177H98.9277C98.4668 51.5506 98.0059 51.6 97.545 51.6329C97.2981 51.6494 97.1006 51.8798 97.1335 52.1267C97.15 52.3735 97.3475 52.5546 97.5944 52.5546C97.6109 52.5546 97.6109 52.5546 97.6273 52.5546C98.0882 52.5217 98.5491 52.4723 99.01 52.4394H99.0265C99.7343 52.39 100.442 52.3242 101.133 52.2748C101.38 52.2583 101.578 52.0279 101.545 51.781C101.512 51.5177 101.298 51.3366 101.051 51.3531ZM108.524 50.991C108.491 50.7441 108.261 50.5631 108.014 50.6125C106.944 50.7771 105.808 50.9087 104.541 51.0404C104.294 51.0733 104.113 51.2873 104.129 51.5341C104.162 51.7646 104.36 51.9456 104.574 51.9456C104.59 51.9456 104.607 51.9456 104.623 51.9456C105.891 51.8139 107.043 51.6658 108.129 51.5012C108.393 51.4683 108.557 51.2379 108.524 50.991ZM115.405 49.4768C115.339 49.2299 115.076 49.0983 114.845 49.1641C113.759 49.4768 112.623 49.7566 111.454 49.987C111.207 50.0364 111.043 50.2833 111.092 50.5302C111.141 50.7441 111.323 50.8923 111.536 50.8923C111.569 50.8923 111.602 50.8923 111.635 50.8758C112.82 50.6289 113.973 50.3491 115.076 50.0364C115.322 49.9706 115.471 49.7237 115.405 49.4768ZM257.887 48.802C256.916 48.1601 255.961 47.4853 255.056 46.7776C254.858 46.6295 254.578 46.6624 254.414 46.8599C254.266 47.0574 254.299 47.3372 254.496 47.5018C255.434 48.226 256.406 48.9172 257.393 49.5591C257.475 49.6085 257.558 49.6414 257.64 49.6414C257.788 49.6414 257.936 49.5591 258.019 49.4274C258.15 49.2135 258.101 48.9337 257.887 48.802ZM121.972 46.9916C121.874 46.7611 121.594 46.6624 121.363 46.7611C120.31 47.2384 119.224 47.6993 118.154 48.0943C117.923 48.1766 117.791 48.4399 117.89 48.6868C117.956 48.8679 118.137 48.9831 118.318 48.9831C118.368 48.9831 118.417 48.9666 118.483 48.9501C119.586 48.5387 120.689 48.0943 121.758 47.5841C121.972 47.4853 122.071 47.222 121.972 46.9916ZM128.129 43.5846C127.997 43.3707 127.717 43.3048 127.503 43.42C126.697 43.8974 125.841 44.3911 124.985 44.8849C124.82 44.9836 124.639 45.0824 124.474 45.1811C124.26 45.2963 124.178 45.5761 124.293 45.8065C124.376 45.9547 124.54 46.037 124.688 46.037C124.771 46.037 124.837 46.0205 124.902 45.9876C125.084 45.8888 125.248 45.7901 125.429 45.6913C126.302 45.1976 127.141 44.7038 127.964 44.2101C128.178 44.0784 128.26 43.7986 128.129 43.5846ZM252.373 44.5557C251.55 43.8151 250.727 43.025 249.854 42.1527C249.673 41.9717 249.393 41.9717 249.212 42.1527C249.031 42.3338 249.031 42.6136 249.212 42.7946C250.101 43.6834 250.941 44.4899 251.78 45.247C251.862 45.3292 251.978 45.3622 252.076 45.3622C252.208 45.3622 252.323 45.3128 252.422 45.214C252.57 45.0001 252.554 44.7203 252.373 44.5557ZM134.038 39.7662C133.89 39.5523 133.61 39.5029 133.413 39.651C132.441 40.3258 131.487 40.9513 130.499 41.5767C130.285 41.7084 130.219 41.9881 130.367 42.2021C130.45 42.3338 130.598 42.4161 130.746 42.4161C130.828 42.4161 130.911 42.3996 130.993 42.3502C131.98 41.7084 132.952 41.0665 133.939 40.3917C134.12 40.26 134.17 39.9802 134.038 39.7662ZM247.435 39.6017C246.924 39.0421 246.398 38.466 245.887 37.9229C245.607 37.6266 245.344 37.3139 245.064 37.0176C244.9 36.8366 244.603 36.8201 244.422 36.9847C244.241 37.1493 244.225 37.4456 244.389 37.6266C244.669 37.9229 244.949 38.2356 245.212 38.5318C245.723 39.0914 246.249 39.6675 246.76 40.2271C246.842 40.3258 246.974 40.3752 247.089 40.3752C247.204 40.3752 247.303 40.3423 247.402 40.26C247.599 40.0789 247.599 39.7827 247.435 39.6017ZM139.733 35.6516C139.585 35.4541 139.289 35.4047 139.091 35.5528C138.219 36.2112 137.264 36.9024 136.26 37.6431C136.063 37.7912 136.013 38.071 136.161 38.285C136.244 38.4166 136.392 38.466 136.54 38.466C136.639 38.466 136.721 38.4331 136.803 38.3837C137.807 37.6595 138.762 36.9518 139.635 36.2935C139.832 36.1289 139.882 35.8491 139.733 35.6516ZM242.645 34.4336C241.756 33.512 240.949 32.689 240.143 31.9319C239.961 31.7509 239.665 31.7674 239.501 31.9484C239.32 32.1294 239.336 32.4257 239.517 32.5903C240.307 33.3474 241.114 34.1539 241.986 35.0591C242.068 35.1578 242.2 35.2072 242.315 35.2072C242.431 35.2072 242.546 35.1578 242.628 35.0755C242.826 34.8945 242.826 34.6147 242.645 34.4336ZM145.396 31.4876C145.248 31.2901 144.968 31.2407 144.754 31.3723C143.881 31.9978 142.976 32.6561 141.906 33.4461C141.709 33.5943 141.659 33.8741 141.807 34.088C141.89 34.2032 142.038 34.2691 142.17 34.2691C142.268 34.2691 142.367 34.2361 142.449 34.1868C143.519 33.3968 144.425 32.7384 145.281 32.1294C145.495 31.9813 145.544 31.6851 145.396 31.4876ZM237.509 29.5619C236.604 28.8048 235.649 28.0642 234.711 27.3729C234.513 27.2248 234.217 27.2741 234.069 27.4717C233.92 27.6692 233.97 27.9654 234.167 28.1135C235.089 28.7883 236.027 29.5125 236.916 30.2532C236.999 30.319 237.114 30.3519 237.213 30.3519C237.344 30.3519 237.476 30.3025 237.558 30.1873C237.723 30.0227 237.69 29.7265 237.509 29.5619ZM151.272 27.6033C151.141 27.3894 150.861 27.3235 150.647 27.4552C149.643 28.0806 148.671 28.706 147.684 29.3644C147.47 29.5125 147.42 29.7923 147.552 29.9898C147.634 30.1215 147.783 30.1873 147.931 30.1873C148.013 30.1873 148.112 30.1544 148.178 30.105C149.149 29.4467 150.12 28.8213 151.124 28.1958C151.338 28.0971 151.404 27.8173 151.272 27.6033ZM157.363 24.0812C157.247 23.8508 156.968 23.7685 156.737 23.9001C156.589 23.9824 156.424 24.0647 156.276 24.147C155.387 24.6408 154.515 25.1345 153.659 25.6283C153.445 25.76 153.363 26.0398 153.494 26.2537C153.577 26.4018 153.725 26.4841 153.889 26.4841C153.972 26.4841 154.054 26.4677 154.12 26.4183C154.959 25.9245 155.832 25.4308 156.721 24.937C156.869 24.8547 157.017 24.7724 157.165 24.6901C157.396 24.5749 157.478 24.2951 157.363 24.0812ZM231.764 25.3979C230.777 24.7889 229.74 24.1799 228.702 23.6203C228.472 23.5051 228.209 23.5874 228.077 23.8014C227.962 24.0318 228.044 24.2951 228.258 24.4268C229.295 24.9864 230.299 25.5625 231.27 26.1714C231.353 26.2208 231.435 26.2373 231.517 26.2373C231.665 26.2373 231.814 26.155 231.912 26.0233C232.044 25.8258 231.978 25.5295 231.764 25.3979ZM163.832 21.3326C163.749 21.1022 163.486 20.9705 163.255 21.0528C162.103 21.4643 161 21.9086 159.947 22.353C159.716 22.4518 159.618 22.7151 159.716 22.9455C159.799 23.1266 159.963 23.2253 160.128 23.2253C160.194 23.2253 160.243 23.2089 160.309 23.1924C161.33 22.748 162.416 22.3201 163.552 21.9086C163.799 21.8263 163.914 21.563 163.832 21.3326ZM225.526 22.0403C224.489 21.563 223.386 21.0857 222.266 20.6413C222.036 20.5426 221.773 20.6578 221.674 20.8882C221.575 21.1186 221.69 21.382 221.921 21.4807C223.024 21.9251 224.094 22.3859 225.131 22.8632C225.196 22.8962 225.262 22.9126 225.328 22.9126C225.509 22.9126 225.674 22.8139 225.74 22.6493C225.855 22.4189 225.756 22.1555 225.526 22.0403ZM170.58 19.3411C170.515 19.0942 170.268 18.9461 170.021 19.0119C168.852 19.3082 167.7 19.6209 166.613 19.9501C166.366 20.0159 166.235 20.2792 166.301 20.5097C166.366 20.7072 166.548 20.8388 166.745 20.8388C166.794 20.8388 166.827 20.8388 166.877 20.8224C167.963 20.4932 169.099 20.1805 170.251 19.9007C170.498 19.8349 170.646 19.588 170.58 19.3411ZM218.958 19.4069C218.513 19.2588 218.053 19.0942 217.592 18.9461C216.95 18.7321 216.275 18.5346 215.567 18.3371C215.32 18.2713 215.073 18.4194 215.007 18.6498C214.941 18.8967 215.09 19.1436 215.32 19.2094C215.995 19.3905 216.67 19.6044 217.295 19.8019C217.756 19.9501 218.201 20.0982 218.645 20.2628C218.695 20.2792 218.744 20.2957 218.793 20.2957C218.974 20.2957 219.155 20.1805 219.221 19.983C219.32 19.7361 219.205 19.4892 218.958 19.4069ZM177.477 17.9257C177.428 17.6788 177.198 17.5142 176.951 17.5471C175.782 17.7446 174.613 17.975 173.477 18.2055C173.231 18.2548 173.066 18.5017 173.132 18.7486C173.181 18.9626 173.362 19.1107 173.576 19.1107C173.609 19.1107 173.642 19.1107 173.675 19.0942C174.794 18.8638 175.963 18.6334 177.115 18.4359C177.346 18.4194 177.51 18.1725 177.477 17.9257ZM212.127 17.4977C211.007 17.2673 209.839 17.0698 208.637 16.8888C208.39 16.8558 208.16 17.0204 208.11 17.2673C208.077 17.5142 208.242 17.7446 208.489 17.794C209.674 17.975 210.826 18.1725 211.929 18.403C211.962 18.403 211.995 18.4194 212.028 18.4194C212.242 18.4194 212.423 18.2713 212.472 18.0573C212.538 17.794 212.374 17.5471 212.127 17.4977ZM184.457 17.004C184.424 16.7571 184.21 16.5761 183.963 16.5925C182.794 16.7077 181.609 16.8558 180.457 17.0204C180.21 17.0534 180.029 17.2838 180.062 17.5307C180.095 17.7611 180.292 17.9257 180.506 17.9257C180.523 17.9257 180.555 17.9257 180.572 17.9257C181.724 17.7775 182.893 17.6294 184.045 17.5142C184.292 17.4813 184.473 17.2509 184.457 17.004ZM205.115 16.4608C203.979 16.3456 202.777 16.2469 201.592 16.181C201.345 16.1646 201.131 16.3621 201.115 16.609C201.098 16.8558 201.296 17.0698 201.543 17.0863C202.728 17.1521 203.896 17.2509 205.032 17.3661C205.049 17.3661 205.065 17.3661 205.082 17.3661C205.312 17.3661 205.51 17.185 205.543 16.9546C205.559 16.7077 205.378 16.4773 205.115 16.4608ZM190.991 16.0988C189.823 16.1481 188.638 16.214 187.469 16.2963C187.222 16.3127 187.024 16.5267 187.041 16.79C187.057 17.0369 187.255 17.2179 187.502 17.2179H187.535C188.687 17.1356 189.872 17.0698 191.041 17.0204C191.288 17.004 191.485 16.79 191.485 16.5431C191.469 16.2798 191.255 16.0823 190.991 16.0988ZM198.069 16.0329C197.246 16.0165 196.39 16 195.551 16C195.222 16 194.876 16 194.53 16C194.284 16 194.07 16.214 194.086 16.4608C194.086 16.7077 194.3 16.9217 194.547 16.9052C194.876 16.9052 195.205 16.9052 195.535 16.9052C196.374 16.9052 197.214 16.9217 198.053 16.9381H198.069C198.316 16.9381 198.514 16.7406 198.53 16.4938C198.514 16.2469 198.316 16.0329 198.069 16.0329Z" fill="#DFF2F5"/>
<path d="M331.778 224.679C331.482 225.024 331.169 225.37 330.873 225.716H329.819C329.819 225.6 329.852 225.485 329.935 225.386C330.313 224.958 330.708 224.531 331.087 224.086C331.251 223.889 331.531 223.872 331.729 224.037C331.926 224.201 331.943 224.498 331.778 224.679Z" fill="#DFF2F5"/>
<path d="M34.5674 225.716C34.5674 225.716 3.88501 210.245 3.88501 167.304C3.88501 110.933 31.7362 111.048 44.0487 97.7993C54.7809 86.2453 55.3735 69.4575 77.4306 59.8457C94.2697 52.5051 108.607 58.6936 126.894 48.2753C140.935 40.2764 144.03 35.3882 158.153 27.5374C172.276 19.6867 201.016 17.5635 216.357 22.6163C242.349 31.1912 240.933 44.8683 260.735 54.9081C271.517 60.3888 284.389 53.575 306.792 65.3264C334.692 79.9581 323.17 107.74 325.705 115.937C331.318 134.14 351.35 136.461 350.05 175.007C349.112 202.542 325.524 225.683 325.524 225.683H34.5674V225.716Z" fill="#EAF8FF"/>
<path d="M25.0693 225.716C25.0693 225.716 15.9173 220.449 18.979 208.45C20.7731 201.39 28.1804 196.238 35.4395 196.897C35.4395 196.897 24.4768 177.212 42.3529 168.9C62.9285 159.338 67.8667 180.504 67.8667 180.504C70.9284 177.821 75.6525 177.212 79.3068 179.006C82.961 180.816 85.3313 184.931 85.068 188.996C85.068 188.996 91.2242 185.227 99.3063 188.7C103.767 190.626 106.944 195.991 105.1 200.485C110.335 197.028 120.54 198.674 126.417 206.656C132.129 214.425 129.709 225.716 129.709 225.716H25.0693Z" fill="#9ABED9"/>
<path d="M201.213 207.957C201.049 202.394 206.382 197.292 211.946 197.703C211.024 194.461 212.653 186.89 221.641 181.853C230.316 176.998 242.035 179.253 249.706 185.573C254.348 182.726 260.735 183.055 265.047 186.363C264.043 184.849 264.389 182.61 265.804 181.458C267.204 180.306 269.475 180.421 270.759 181.705C271.78 175.83 275.171 170.415 279.977 166.909C284.8 163.403 291.006 161.873 296.898 162.728C301.079 163.337 305.194 165.197 307.894 168.44C310.594 171.698 311.631 176.455 309.902 180.306C316.026 178.545 329.342 183.516 330.198 203.414C330.939 220.317 318.725 225.683 318.725 225.683H193.493C186.761 221.782 192.028 208.023 201.213 207.957Z" fill="#9ABED9"/>
<g clip-path="url(#clip0)">
<path d="M67.0496 138.167C67.2507 141.606 68.0707 144.985 68.8907 148.332C72.1862 161.768 75.9304 175.08 79.7519 188.377C83.5115 201.458 87.2093 214.569 93.1195 226.894C93.9704 228.653 95.0225 230.566 96.8791 231.198C98.875 231.877 101.134 230.72 102.341 228.992C103.671 227.11 104.027 224.735 104.275 222.452C105.698 210.003 105.497 197.401 105.497 184.875C105.497 180.571 105.512 176.252 105.512 171.948C105.512 167.444 105.806 164.22 107.137 159.963C109.643 151.942 110.897 143.535 110.835 135.128L67.0496 138.167Z" fill="#CACEDE"/>
<path d="M98.0702 232C97.6061 232 97.1419 231.923 96.6777 231.769C94.5891 231.059 93.4596 229.007 92.5623 227.141C86.8222 215.186 83.1245 202.306 79.5505 189.857L79.1637 188.531C75.4969 175.805 71.6444 162.153 68.2871 148.471C67.6218 145.756 67.0803 143.473 66.7244 141.082C66.678 140.743 66.9101 140.434 67.2505 140.388C67.5908 140.341 67.9003 140.573 67.9467 140.912C68.2871 143.241 68.8131 145.494 69.4784 148.178C72.8358 161.845 76.6882 175.481 80.3396 188.191L80.7264 189.518C84.3003 201.92 87.9826 214.739 93.6762 226.616C94.4653 228.252 95.44 230.056 97.08 230.596C98.8593 231.198 100.824 230.056 101.845 228.622C103.068 226.894 103.408 224.673 103.671 222.359C104.924 211.407 104.909 200.162 104.893 189.271C104.893 187.806 104.893 186.325 104.893 184.86C104.893 184.52 105.172 184.243 105.512 184.243C105.853 184.243 106.131 184.52 106.131 184.86C106.131 186.325 106.131 187.806 106.131 189.271C106.146 200.193 106.162 211.484 104.893 222.498C104.615 224.981 104.243 227.357 102.836 229.331C101.814 230.797 99.9887 232 98.0702 232Z" fill="#5D7183"/>
<path d="M107.23 137.719C108.251 151.803 105.002 165.501 102.604 179.306C101.026 188.392 95.626 197.215 90.3502 204.635C88.3234 207.489 69.7263 229.162 81.2837 229.208C85.2135 229.223 89.4373 226.663 92.7174 224.75C102.325 219.151 111.113 212.132 118.679 204.003C135.187 186.263 144.996 161.073 144.331 136.84L107.23 137.719Z" fill="#CACEDE"/>
<path d="M81.3296 229.84C81.3141 229.84 81.2986 229.84 81.2986 229.84C79.2563 229.825 77.9103 229.177 77.2759 227.912C75.2646 223.794 81.8246 214.538 88.5085 206.039C89.1273 205.252 89.6224 204.635 89.8545 204.296C93.939 198.542 98.0391 192.295 100.298 185.585C102.294 179.661 103.299 173.26 104.259 167.074C104.475 165.716 104.692 164.313 104.909 162.955C104.97 162.616 105.28 162.385 105.62 162.446C105.961 162.508 106.193 162.816 106.131 163.156C105.899 164.513 105.682 165.917 105.481 167.274C104.506 173.506 103.501 179.97 101.474 185.986C99.1685 192.85 95.0066 199.19 90.8756 205.021C90.6281 205.375 90.1485 205.977 89.4986 206.81C86.2805 210.913 76.4714 223.408 78.4054 227.388C78.8077 228.221 79.7514 228.622 81.3141 228.622C81.3296 228.622 81.3296 228.622 81.345 228.622C84.9499 228.622 88.8798 226.323 92.0515 224.472L92.4383 224.241C102.015 218.672 110.695 211.731 118.261 203.602C132.386 188.423 141.561 167.783 143.433 146.974C143.464 146.635 143.774 146.388 144.099 146.419C144.439 146.45 144.686 146.743 144.656 147.082C142.768 168.169 133.469 189.071 119.158 204.45C111.515 212.656 102.727 219.675 93.0572 225.305L92.6704 225.537C89.3594 227.449 85.2594 229.84 81.3296 229.84Z" fill="#5D7183"/>
<path d="M77.4003 158.513C77.1836 158.513 76.967 158.389 76.8587 158.189C76.704 157.88 76.8123 157.51 77.1218 157.356C80.4946 155.566 83.1248 152.312 84.1305 148.64C84.2233 148.316 84.5637 148.116 84.8886 148.208C85.2135 148.301 85.4146 148.64 85.3218 148.964C84.2078 152.959 81.361 156.492 77.6942 158.436C77.6014 158.497 77.5086 158.513 77.4003 158.513Z" fill="#5D7183"/>
<path d="M133.702 65.9133C133.254 62.6585 133.501 59.6814 133.872 56.0564C135.095 44.1325 142.784 21.2101 131.072 12.1553C127.591 9.45585 123.336 9.07021 119.329 10.659C102.511 17.3537 104.29 36.7128 98.0398 50.5032C85.2601 78.7319 64.9302 106.452 66.8177 138.892C66.8641 139.709 96.0594 145.386 118.849 145.478C121.418 145.494 144.037 146.589 144.316 144.244C145.677 132.737 145.538 120.149 144.347 108.642C142.939 95.1601 137.88 82.2181 134.337 69.091C134.058 67.9958 133.841 66.9468 133.702 65.9133Z" fill="white"/>
<path d="M98.7353 98.7388C98.6579 98.7388 98.596 98.7388 98.5496 98.7388C95.2696 98.5074 91.9741 98.06 88.7715 97.4122C88.6013 97.3813 88.3537 97.3196 88.1371 97.1499C87.5801 96.718 87.7039 95.9622 87.7349 95.7308C87.9824 94.142 88.3847 92.5531 88.7715 91.026C89.3285 88.8356 89.9009 86.5526 90.0092 84.2851C90.0247 83.9457 90.3186 83.6835 90.659 83.6989C90.9994 83.7143 91.2624 84.0074 91.247 84.3468C91.1232 86.7377 90.5352 89.067 89.9628 91.3191C89.576 92.8154 89.1892 94.3733 88.9417 95.9159C88.9262 96.0547 88.9107 96.1473 88.9262 96.1936C88.9571 96.1936 88.9881 96.209 89.0035 96.209C92.1598 96.8569 95.4089 97.2888 98.627 97.5202L101.18 86.275C101.257 85.9356 101.582 85.7351 101.922 85.8122C102.263 85.8893 102.464 86.2132 102.387 86.5526L99.8338 97.8132C99.7874 97.9829 99.7255 98.3069 99.447 98.5382C99.2149 98.7079 98.9364 98.7388 98.7353 98.7388Z" fill="#5D7183"/>
<path d="M116.59 44.7649C116.296 44.7649 116.002 44.7186 115.692 44.6106C114.47 44.1633 113.851 43.1143 113.867 41.4792C113.882 40.7388 114.021 39.9675 114.114 39.443C114.176 39.1037 114.517 38.8877 114.841 38.9649C115.182 39.0266 115.398 39.3659 115.321 39.6899C115.228 40.1526 115.104 40.8468 115.089 41.4946C115.074 42.8984 115.615 43.2686 116.095 43.4383C116.946 43.7468 117.92 43.1452 118.4 42.4356C118.648 42.0808 118.833 41.6489 118.988 41.1244C119.081 40.8005 119.421 40.6154 119.761 40.7079C120.086 40.8005 120.272 41.1399 120.179 41.4792C119.994 42.1271 119.746 42.667 119.421 43.1298C118.833 44.0399 117.735 44.7649 116.59 44.7649Z" fill="#5D7183"/>
<path d="M143.263 34.584C141.933 36.9595 139.829 39.1808 136.951 39.5973C131.211 40.4457 128.225 34.6611 129.138 29.9564C126.647 33.3654 121.34 34.4452 117.781 32.5324C114.223 30.6196 112.629 26.2079 113.712 22.259C112.614 24.8042 109.272 26.2079 106.611 25.4984C103.95 24.8042 102.155 22.3053 101.985 19.6521C101.799 16.8292 103.269 13.9138 105.45 11.8776C106.085 11.2606 112.66 7.3271 113.094 9.25529C112.537 6.80263 113.511 3.97976 115.523 2.15955C117.534 0.339333 120.535 -0.431944 123.073 0.231354C125.858 0.956354 128.008 3.93348 126.74 6.5404C129.525 3.68667 134.677 3.43986 137.338 6.03135C139.999 8.60742 139.643 13.5127 136.595 16.1196C139.256 15.7649 142.629 16.9372 143.588 19.4053C144.006 20.4851 143.418 26.0383 140.989 25.267C145.244 26.5936 145.275 30.9744 143.263 34.584Z" fill="#96E296"/>
<path d="M131.969 146.373C127.822 146.373 123.599 146.234 121.092 146.157C120.009 146.126 119.22 146.095 118.849 146.095C105.806 146.033 91.5566 144.167 84.2075 143.056C79.535 142.347 75.0792 141.575 71.629 140.85C70.0973 140.527 68.8286 140.233 67.9622 139.987C66.7554 139.647 66.2293 139.447 66.1984 138.907C64.7595 114.087 76.255 91.9515 87.3792 70.5409C90.8449 63.8771 94.4189 56.9973 97.4823 50.2255C99.3389 46.1223 100.515 41.4021 101.644 36.8361C104.305 26.0383 107.075 14.8702 119.112 10.0883C123.444 8.37602 127.931 8.94677 131.458 11.6617C135.713 14.9627 137.895 20.2537 138.08 27.843C138.25 34.2909 136.982 41.2787 135.868 47.4643C135.295 50.642 134.754 53.6499 134.491 56.118C134.119 59.6659 133.887 62.643 134.321 65.8207C134.46 66.8542 134.676 67.8723 134.955 68.9366C135.992 72.7776 137.183 76.6803 138.328 80.4441C140.85 88.7122 143.449 97.2579 144.656 105.896C144.702 106.236 144.47 106.544 144.13 106.59C143.789 106.637 143.48 106.405 143.433 106.066C142.242 97.5202 139.658 89.0207 137.152 80.8143C136.007 77.0351 134.816 73.1324 133.764 69.2606C133.47 68.1499 133.253 67.0856 133.098 66.0058C132.634 62.6893 132.882 59.6505 133.268 56.0101C133.532 53.4957 134.073 50.4569 134.661 47.2638C135.775 41.1398 137.028 34.2138 136.858 27.9047C136.672 20.7164 134.661 15.734 130.716 12.6797C127.513 10.1962 123.552 9.70262 119.591 11.276C114.393 13.343 110.695 16.7058 107.957 21.8425C105.528 26.4239 104.166 31.8845 102.866 37.1601C101.722 41.7877 100.546 46.5542 98.6427 50.7654C95.5638 57.568 91.9743 64.4632 88.5087 71.1425C77.5082 92.3218 66.1365 114.211 67.4516 138.552C70.3293 139.678 97.3276 144.769 118.895 144.877C119.282 144.877 120.071 144.907 121.17 144.938C124.341 145.031 129.648 145.2 134.475 145.123C142.242 145 143.542 144.321 143.758 144.121C144.346 139.154 144.671 133.832 144.718 128.31C144.718 127.97 144.996 127.692 145.336 127.692C145.677 127.692 145.955 127.97 145.955 128.31C145.909 133.909 145.584 139.292 144.981 144.321C144.872 145.2 144.021 146.172 135.094 146.342C134.042 146.357 133.005 146.373 131.969 146.373Z" fill="#5D7183"/>
<path d="M110.695 69.6771C110.649 69.6771 110.602 69.6771 110.556 69.6617C105.404 68.4894 100.329 65.8362 95.8576 61.9952C95.5946 61.7793 95.5637 61.3782 95.7958 61.1314C96.0124 60.8692 96.4146 60.8383 96.6622 61.0697C100.979 64.7718 105.883 67.3324 110.834 68.4585C111.175 68.5356 111.376 68.8596 111.298 69.1989C111.221 69.4766 110.974 69.6771 110.695 69.6771Z" fill="#5D7183"/>
<path d="M110.479 86.9383C110.417 86.9383 110.355 86.9228 110.308 86.9074C109.983 86.8149 109.798 86.4601 109.891 86.1361C111.856 79.5957 112.459 69.5537 112.474 69.4457C112.49 69.276 112.567 69.1218 112.706 68.9984C112.846 68.8904 113.016 68.8441 113.186 68.8596C119.591 69.7388 125.919 68.1654 130.561 64.5404C130.824 64.3244 131.226 64.3707 131.427 64.6484C131.644 64.9106 131.597 65.3117 131.319 65.5122C126.585 69.2143 120.179 70.8957 113.666 70.1553C113.496 72.5308 112.815 80.6909 111.082 86.4601C111.005 86.7686 110.757 86.9383 110.479 86.9383Z" fill="#5D7183"/>
<path d="M114.996 83.9921C114.981 84.0075 114.95 84.0229 114.935 84.0383C114.61 84.2697 113.403 84.3777 113.418 83.7607C113.434 83.3133 113.635 82.8814 113.96 82.6038C114.687 82.6192 115.739 83.375 114.996 83.9921Z" fill="#5D7183"/>
<path d="M115.692 76.5879C115.708 76.6033 115.723 76.6187 115.754 76.6341C116.033 76.9118 116.342 78.0841 115.723 78.1767C115.29 78.2384 114.826 78.115 114.486 77.8373C114.393 77.0969 114.981 75.9554 115.692 76.5879Z" fill="#5D7183"/>
<path d="M63.0888 135.59C62.8722 135.59 62.6711 135.482 62.5628 135.297C62.3926 135.004 62.4854 134.634 62.7794 134.449C63.7541 133.863 64.373 132.845 64.5896 131.441C65.0537 128.587 63.6767 123.312 60.6288 119.779C59.8552 118.884 59.0197 117.974 58.2307 117.111C55.1827 113.794 52.042 110.354 50.6805 105.896C49.6903 102.595 49.7831 98.893 50.9589 95.2063C52.042 91.8281 53.945 88.6196 56.4669 85.9355C61.2941 80.8142 67.6375 77.7137 73.7798 74.7212C79.4425 71.96 87.1784 67.4712 91.9437 61.7329C92.1603 61.4706 92.5471 61.4398 92.8101 61.6557C93.0731 61.8717 93.104 62.2573 92.8874 62.5196C90.1799 65.7898 84.7648 70.7414 74.3368 75.8318C68.2873 78.7781 62.0367 81.8169 57.3797 86.7839C52.2431 92.26 50.0771 99.618 51.8563 105.557C53.125 109.753 56.1729 113.084 59.128 116.293C59.9326 117.172 60.768 118.082 61.5571 118.992C64.1564 122.016 66.4617 127.584 65.7964 131.657C65.5179 133.415 64.6824 134.742 63.3982 135.513C63.3054 135.575 63.1971 135.59 63.0888 135.59Z" fill="#5D7183"/>
<path d="M199.736 170.252C195.156 156.831 184.45 125.919 177.518 109.861C177.07 108.812 176.064 108.133 174.966 108.118C164.507 107.994 154.342 108.102 143.914 108.01C141.964 107.994 140.587 109.969 141.191 111.881C152.392 147.298 165.621 182.006 180.814 215.757C182.964 220.539 184.604 224.889 189.695 226.015C195.961 227.388 202.552 227.727 208.911 226.971C210.349 226.802 215.625 226.863 216.616 225.043C235.244 191.014 303.691 38.4867 303.691 38.4867C304.588 36.5277 303.226 34.2601 301.138 34.2601L271.03 34.2292C269.916 34.2292 268.91 34.908 268.446 35.9569C256.765 62.7665 217.281 144.954 204.934 170.576C203.836 172.905 200.587 172.704 199.736 170.252Z" fill="#96E296"/>
<path d="M158.983 108.58C157.807 108.58 156.585 108.411 155.347 108.071C152.16 107.192 149.065 105.202 146.435 102.348C143.65 99.3404 141.5 95.4532 140.2 91.134C140.107 90.8101 140.293 90.4707 140.618 90.3628C140.943 90.2702 141.283 90.4553 141.391 90.7793C142.645 94.9287 144.702 98.6308 147.364 101.515C149.855 104.199 152.732 106.066 155.703 106.884C159.54 107.948 163.176 107.161 165.93 104.678C168.405 102.441 169.906 98.8314 170.37 93.9569C171.561 81.5085 166.595 69.384 161.783 57.6606C161.536 57.0436 161.288 56.442 161.041 55.825C159.23 51.3979 157.652 47.0479 158.116 42.6207C158.302 40.9548 158.952 39.2734 159.927 38.0394C161.072 36.5739 162.588 35.8335 164.166 35.9415C164.506 35.9723 164.769 36.2654 164.738 36.6048C164.707 36.9442 164.429 37.2064 164.073 37.1755C163.996 37.1755 163.934 37.1755 163.856 37.1755C161.427 37.1755 159.633 40.0293 159.339 42.775C158.89 46.9245 160.36 50.9505 162.17 55.3931C162.418 55.9947 162.665 56.6117 162.913 57.2287C167.771 69.091 172.799 81.3543 171.577 94.1112C171.082 99.2941 169.457 103.181 166.734 105.634C164.537 107.562 161.876 108.58 158.983 108.58Z" fill="#5D7183"/>
</g>
<defs>
<clipPath id="clip0">
<rect width="254" height="232" fill="white" transform="translate(50)"/>
</clipPath>
</defs>
</svg>
