<svg width="354" height="232" viewBox="0 0 354 232" fill="none" xmlns="http://www.w3.org/2000/svg">
<path d="M28.6087 222.716H27.4071C27.0943 222.486 26.7816 222.255 26.4688 222.008C26.2713 221.86 26.2384 221.564 26.3865 221.366C26.5346 221.168 26.8309 221.136 27.0285 221.284C27.4894 221.646 27.9503 221.992 28.4276 222.321C28.5428 222.42 28.6087 222.568 28.6087 222.716Z" fill="#FFE7EB"/>
<path d="M24.3287 219.078C23.4562 218.321 22.5838 217.531 21.7608 216.725C21.5797 216.544 21.2835 216.56 21.1188 216.741C20.9378 216.922 20.9542 217.218 21.1353 217.383C21.9913 218.206 22.8637 219.012 23.7525 219.786C23.8348 219.868 23.9501 219.901 24.0488 219.901C24.1805 219.901 24.2957 219.852 24.3945 219.737C24.5262 219.523 24.5097 219.243 24.3287 219.078ZM336.206 215.474C336.009 215.326 335.712 215.359 335.564 215.556C334.856 216.494 334.132 217.416 333.408 218.321C333.243 218.519 333.276 218.798 333.474 218.963C333.556 219.029 333.655 219.062 333.754 219.062C333.885 219.062 334.017 219.012 334.116 218.897C334.856 217.992 335.581 217.054 336.288 216.116C336.437 215.902 336.404 215.622 336.206 215.474ZM19.3082 214.223C18.5181 213.367 17.7444 212.495 17.0037 211.606C16.8391 211.409 16.5593 211.392 16.3618 211.54C16.1642 211.705 16.1478 211.985 16.2959 212.182C17.0531 213.087 17.8432 213.976 18.6333 214.848C18.7156 214.947 18.8473 214.997 18.9625 214.997C19.0777 214.997 19.193 214.964 19.2753 214.881C19.4563 214.684 19.4728 214.404 19.3082 214.223ZM340.239 209.697C340.025 209.565 339.745 209.615 339.613 209.829C338.971 210.8 338.313 211.771 337.638 212.725C337.49 212.923 337.539 213.219 337.753 213.367C337.836 213.417 337.935 213.449 338.017 213.449C338.165 213.449 338.297 213.384 338.395 213.252C339.07 212.297 339.745 211.31 340.387 210.339C340.502 210.125 340.453 209.845 340.239 209.697ZM14.8309 208.857C14.1396 207.936 13.4647 206.965 12.8063 206.01C12.6581 205.796 12.3783 205.747 12.1808 205.878C11.9668 206.027 11.9174 206.306 12.0491 206.504C12.7075 207.475 13.3989 208.462 14.0902 209.401C14.1725 209.516 14.3207 209.582 14.4523 209.582C14.5511 209.582 14.6499 209.549 14.7322 209.483C14.9462 209.335 14.9791 209.055 14.8309 208.857ZM343.893 203.689C343.679 203.558 343.399 203.64 343.268 203.871C342.708 204.874 342.099 205.895 341.49 206.882C341.358 207.096 341.424 207.376 341.638 207.508C341.72 207.557 341.786 207.574 341.869 207.574C342.017 207.574 342.165 207.491 342.264 207.36C342.889 206.356 343.482 205.319 344.058 204.315C344.189 204.085 344.107 203.805 343.893 203.689ZM10.9462 203.048C10.3537 202.06 9.77755 201.023 9.23435 200.003C9.11913 199.772 8.8393 199.69 8.62531 199.805C8.39487 199.92 8.31256 200.2 8.42779 200.414C8.97098 201.451 9.56356 202.488 10.1561 203.508C10.2384 203.657 10.3866 203.739 10.5512 203.739C10.6335 203.739 10.7158 203.722 10.7816 203.673C11.0121 203.541 11.0779 203.262 10.9462 203.048ZM347.087 197.419C346.856 197.32 346.593 197.419 346.478 197.633C345.984 198.67 345.473 199.739 344.93 200.776C344.815 201.007 344.897 201.27 345.128 201.385C345.194 201.418 345.259 201.435 345.342 201.435C345.506 201.435 345.671 201.352 345.753 201.188C346.296 200.134 346.823 199.065 347.317 198.011C347.416 197.797 347.317 197.534 347.087 197.419ZM7.68706 196.859C7.20971 195.806 6.73235 194.736 6.30438 193.65C6.20562 193.419 5.94225 193.304 5.7118 193.403C5.48135 193.502 5.36613 193.765 5.46489 193.995C5.90933 195.082 6.37022 196.184 6.86404 197.238C6.94634 197.402 7.11095 197.501 7.27555 197.501C7.34139 197.501 7.40724 197.485 7.47308 197.452C7.70352 197.369 7.80229 197.09 7.68706 196.859ZM349.753 190.901C349.523 190.819 349.259 190.934 349.161 191.181C348.98 191.675 348.798 192.168 348.601 192.646C348.37 193.238 348.124 193.831 347.877 194.423C347.778 194.654 347.893 194.917 348.124 195.016C348.173 195.049 348.239 195.049 348.305 195.049C348.486 195.049 348.65 194.95 348.733 194.769C348.98 194.176 349.226 193.567 349.457 192.958C349.654 192.465 349.835 191.954 350.017 191.477C350.099 191.263 349.984 191 349.753 190.901ZM5.0863 190.374C4.70771 189.288 4.34558 188.169 4.03283 187.05C3.96699 186.803 3.70362 186.671 3.47317 186.737C3.22626 186.803 3.09458 187.066 3.16042 187.297C3.48963 188.432 3.85176 189.568 4.23035 190.671C4.2962 190.852 4.47726 190.983 4.65833 190.983C4.70771 190.983 4.75709 190.967 4.80647 190.951C5.03692 190.885 5.1686 190.621 5.0863 190.374ZM351.778 184.186C351.531 184.12 351.284 184.268 351.218 184.515C350.938 185.634 350.609 186.754 350.263 187.873C350.181 188.12 350.329 188.367 350.56 188.449C350.609 188.465 350.642 188.465 350.691 188.465C350.889 188.465 351.07 188.334 351.119 188.136C351.465 187 351.794 185.848 352.074 184.729C352.173 184.482 352.025 184.235 351.778 184.186ZM3.1275 183.676C2.86413 182.557 2.60076 181.405 2.38678 180.252C2.33739 180.006 2.10695 179.841 1.86004 179.89C1.61313 179.94 1.44853 180.17 1.49791 180.417C1.72835 181.569 1.97526 182.738 2.25509 183.873C2.30447 184.087 2.48554 184.219 2.69953 184.219C2.73245 184.219 2.76537 184.219 2.81475 184.202C3.02874 184.153 3.17688 183.923 3.1275 183.676ZM353.078 177.273C352.831 177.24 352.601 177.422 352.568 177.668C352.42 178.804 352.222 179.956 351.992 181.108C351.942 181.355 352.107 181.602 352.354 181.635C352.387 181.635 352.42 181.651 352.436 181.651C352.65 181.651 352.848 181.503 352.881 181.289C353.111 180.121 353.309 178.952 353.457 177.8C353.506 177.537 353.325 177.306 353.078 177.273ZM1.7942 176.813C1.62959 175.677 1.48145 174.508 1.36622 173.34C1.3333 173.093 1.11932 172.912 0.872408 172.928C0.6255 172.961 0.444434 173.175 0.460895 173.422C0.576118 174.591 0.724263 175.776 0.905329 176.928C0.93825 177.158 1.13578 177.323 1.34976 177.323C1.36622 177.323 1.39914 177.323 1.4156 177.323C1.66251 177.29 1.84358 177.059 1.7942 176.813ZM353.539 170.246C353.292 170.246 353.078 170.443 353.078 170.69C353.062 171.167 353.062 171.645 353.045 172.138C353.029 172.813 352.979 173.504 352.93 174.196C352.914 174.443 353.095 174.673 353.358 174.689C353.374 174.689 353.374 174.689 353.391 174.689C353.621 174.689 353.835 174.508 353.852 174.261C353.901 173.57 353.934 172.863 353.967 172.171C353.983 171.677 354 171.2 354 170.723C354 170.46 353.786 170.262 353.539 170.246ZM0.921789 166.345C0.921789 166.098 0.707802 165.901 0.460895 165.901C0.213987 165.901 0.0164605 166.114 0.0164605 166.361C0.0493816 167.546 0.0987631 168.731 0.164605 169.9C0.181066 170.147 0.378592 170.328 0.6255 170.328H0.658421C0.905329 170.311 1.10285 170.097 1.08639 169.851C1.00409 168.698 0.95471 167.513 0.921789 166.345ZM353.885 163.646C353.868 163.399 353.654 163.201 353.407 163.218C353.16 163.234 352.963 163.448 352.979 163.695C353.045 164.831 353.078 166.016 353.095 167.201C353.095 167.448 353.309 167.645 353.556 167.645C353.802 167.645 354.016 167.431 354 167.184C353.984 165.983 353.951 164.798 353.885 163.646ZM0.543197 158.873C0.296289 158.873 0.0823026 159.07 0.0658421 159.317C0.032921 160.469 0 161.654 0 162.839C0 163.086 0.197526 163.3 0.444434 163.3C0.691342 163.3 0.905329 163.103 0.905329 162.856C0.921789 161.671 0.93825 160.502 0.971171 159.35C0.987631 159.087 0.790105 158.873 0.543197 158.873ZM353.21 156.601C353.177 156.355 352.947 156.173 352.7 156.223C352.453 156.256 352.272 156.486 352.321 156.733C352.486 157.852 352.634 159.021 352.733 160.206C352.749 160.436 352.947 160.617 353.193 160.617C353.21 160.617 353.226 160.617 353.243 160.617C353.49 160.584 353.671 160.37 353.654 160.124C353.506 158.922 353.374 157.753 353.21 156.601ZM0.95471 151.845C0.707802 151.828 0.477355 152.009 0.460895 152.256C0.362131 153.408 0.279829 154.593 0.213987 155.778C0.197526 156.025 0.395053 156.239 0.64196 156.256C0.658421 156.256 0.658421 156.256 0.674881 156.256C0.921789 156.256 1.11932 156.075 1.13578 155.828C1.20162 154.643 1.28392 153.474 1.36622 152.339C1.38268 152.092 1.20162 151.861 0.95471 151.845ZM352.601 153.112C352.37 151.944 352.091 150.775 351.794 149.656C351.728 149.409 351.482 149.261 351.235 149.327C350.988 149.393 350.84 149.639 350.905 149.886C351.202 150.989 351.465 152.125 351.696 153.293C351.745 153.507 351.926 153.655 352.14 153.655C352.173 153.655 352.206 153.655 352.239 153.639C352.486 153.606 352.65 153.359 352.601 153.112ZM1.76128 144.85C1.51437 144.817 1.28392 144.982 1.251 145.229C1.08639 146.364 0.93825 147.549 0.806566 148.734C0.773645 148.981 0.95471 149.211 1.20162 149.244C1.21808 149.244 1.23454 149.244 1.251 149.244C1.48145 149.244 1.67897 149.063 1.69543 148.833C1.82712 147.664 1.97526 146.496 2.13987 145.36C2.17279 145.13 2.00818 144.883 1.76128 144.85ZM350.774 146.265C350.395 145.13 349.967 144.027 349.523 142.941C349.424 142.71 349.161 142.595 348.93 142.694C348.7 142.793 348.584 143.056 348.683 143.286C349.128 144.34 349.539 145.442 349.918 146.545C349.984 146.743 350.165 146.858 350.346 146.858C350.395 146.858 350.445 146.858 350.494 146.825C350.724 146.759 350.856 146.512 350.774 146.265ZM3.0452 137.937C2.79829 137.888 2.55138 138.036 2.502 138.283C2.25509 139.402 2.00818 140.571 1.7942 141.756C1.74482 142.003 1.90942 142.249 2.15633 142.282C2.18925 142.282 2.20571 142.282 2.23863 142.282C2.45262 142.282 2.65014 142.134 2.68306 141.904C2.89705 140.735 3.1275 139.583 3.37441 138.48C3.45671 138.234 3.2921 137.987 3.0452 137.937ZM348.025 139.731C347.498 138.694 346.922 137.641 346.296 136.621C346.165 136.407 345.885 136.341 345.671 136.473C345.457 136.604 345.391 136.884 345.523 137.098C346.132 138.102 346.691 139.122 347.218 140.143C347.301 140.307 347.465 140.39 347.63 140.39C347.696 140.39 347.761 140.373 347.827 140.34C348.041 140.225 348.14 139.945 348.025 139.731ZM4.93816 131.156C4.69125 131.074 4.44434 131.206 4.36204 131.453C3.99991 132.555 3.6707 133.691 3.35795 134.843C3.2921 135.09 3.44025 135.337 3.68716 135.403C3.72008 135.419 3.76946 135.419 3.80238 135.419C3.99991 135.419 4.18097 135.287 4.24681 135.09C4.55956 133.954 4.88877 132.819 5.23445 131.732C5.30029 131.502 5.1686 131.239 4.93816 131.156ZM344.371 133.642C343.729 132.703 343.037 131.765 342.28 130.778C342.132 130.58 341.836 130.547 341.638 130.696C341.441 130.844 341.408 131.14 341.556 131.337C342.313 132.308 342.988 133.23 343.613 134.152C343.696 134.284 343.844 134.349 343.992 134.349C344.074 134.349 344.173 134.316 344.255 134.267C344.469 134.135 344.519 133.856 344.371 133.642ZM340.074 128.029C339.482 127.305 338.889 126.614 338.33 125.939L337.819 125.33C337.655 125.133 337.375 125.116 337.177 125.281C336.98 125.445 336.963 125.725 337.128 125.923L337.638 126.532C338.198 127.206 338.79 127.898 339.383 128.622C339.465 128.737 339.597 128.786 339.729 128.786C339.827 128.786 339.926 128.753 340.025 128.688C340.206 128.507 340.239 128.227 340.074 128.029ZM7.52246 124.622C7.29201 124.524 7.02864 124.622 6.91342 124.853C6.43606 125.906 5.97517 127.009 5.5472 128.128C5.44843 128.358 5.58012 128.622 5.81056 128.721C5.85995 128.737 5.92579 128.753 5.97517 128.753C6.15623 128.753 6.3373 128.638 6.40314 128.457C6.83112 127.354 7.27555 126.268 7.75291 125.231C7.85167 125.001 7.75291 124.721 7.52246 124.622ZM335.581 122.614C334.774 121.594 334.083 120.689 333.474 119.833C333.326 119.619 333.046 119.57 332.832 119.718C332.618 119.866 332.568 120.146 332.717 120.36C333.326 121.232 334.033 122.154 334.856 123.19C334.939 123.306 335.087 123.355 335.219 123.355C335.317 123.355 335.416 123.322 335.498 123.256C335.712 123.108 335.745 122.812 335.581 122.614ZM10.9133 118.467C10.6993 118.335 10.4195 118.401 10.2878 118.615C9.66233 119.602 9.05329 120.623 8.49363 121.676C8.37841 121.89 8.46071 122.17 8.6747 122.302C8.74054 122.335 8.82284 122.351 8.88868 122.351C9.05329 122.351 9.20143 122.269 9.28373 122.104C9.84339 121.067 10.436 120.063 11.045 119.092C11.1767 118.878 11.1273 118.598 10.9133 118.467ZM331.63 116.903C331.054 115.866 330.56 114.846 330.132 113.793C330.033 113.562 329.77 113.447 329.54 113.546C329.309 113.644 329.194 113.908 329.293 114.138C329.737 115.241 330.231 116.294 330.84 117.364C330.922 117.512 331.087 117.594 331.235 117.594C331.317 117.594 331.383 117.578 331.449 117.529C331.663 117.397 331.745 117.134 331.63 116.903ZM15.1437 112.854C14.9462 112.69 14.6663 112.706 14.5017 112.904C13.7281 113.793 12.9874 114.731 12.2795 115.685C12.1314 115.883 12.1808 116.179 12.3783 116.327C12.4606 116.393 12.5594 116.409 12.6581 116.409C12.7898 116.409 12.938 116.344 13.0203 116.228C13.7116 115.29 14.4359 114.385 15.1931 113.513C15.3577 113.315 15.3412 113.019 15.1437 112.854ZM20.1641 107.933C19.9995 107.736 19.7032 107.719 19.5222 107.884C18.6168 108.674 17.7444 109.48 16.9214 110.303C16.7404 110.484 16.7404 110.764 16.9214 110.945C17.0037 111.027 17.1189 111.077 17.2506 111.077C17.3659 111.077 17.4811 111.027 17.5798 110.945C18.3864 110.139 19.2423 109.332 20.1312 108.559C20.2958 108.411 20.3287 108.114 20.1641 107.933ZM329.293 107.094C329.309 106.847 329.112 106.633 328.865 106.617C328.618 106.6 328.404 106.798 328.387 107.045C328.338 107.999 328.305 108.789 328.305 109.447C328.305 109.875 328.322 110.27 328.338 110.616C328.354 110.863 328.552 111.044 328.799 111.044C328.815 111.044 328.815 111.044 328.832 111.044C329.079 111.027 329.276 110.814 329.26 110.567C329.243 110.237 329.227 109.875 329.227 109.464C329.21 108.806 329.243 108.032 329.293 107.094ZM25.7607 103.671C25.6126 103.457 25.3327 103.407 25.1188 103.555C24.0982 104.263 23.16 104.954 22.2546 105.646C22.0571 105.794 22.0242 106.09 22.1723 106.287C22.2546 106.403 22.4028 106.468 22.5345 106.468C22.6332 106.468 22.732 106.436 22.8143 106.37C23.7032 105.695 24.6249 105.02 25.6455 104.312C25.843 104.164 25.8924 103.868 25.7607 103.671ZM329.326 99.5888C329.079 99.5723 328.865 99.7698 328.848 100.017C328.782 101.284 328.7 102.485 328.618 103.522C328.601 103.769 328.782 104 329.046 104.016C329.062 104.016 329.062 104.016 329.079 104.016C329.309 104.016 329.523 103.835 329.54 103.588C329.622 102.551 329.704 101.333 329.77 100.066C329.77 99.8192 329.573 99.6052 329.326 99.5888ZM31.67 99.8356C31.5384 99.6217 31.2585 99.5558 31.0445 99.6875C30.1392 100.264 29.1022 100.905 28.0652 101.58C27.8512 101.712 27.7854 102.008 27.9335 102.206C28.0158 102.337 28.164 102.42 28.3121 102.42C28.3944 102.42 28.4767 102.387 28.559 102.337C29.5796 101.679 30.6166 101.021 31.5219 100.461C31.7359 100.329 31.8017 100.05 31.67 99.8356ZM37.53 95.9514C37.3818 95.7539 37.102 95.7045 36.888 95.8527C36.065 96.4452 35.1432 97.0706 33.991 97.8112C33.777 97.9429 33.7111 98.2392 33.8593 98.4367C33.9416 98.5683 34.0897 98.6506 34.2379 98.6506C34.3202 98.6506 34.4025 98.6342 34.4848 98.5848C35.637 97.8277 36.5753 97.2023 37.4148 96.5933C37.6288 96.4452 37.6781 96.1654 37.53 95.9514ZM329.852 92.9889C329.836 92.742 329.638 92.5445 329.375 92.5445C329.128 92.5609 328.931 92.7584 328.931 93.0218C328.964 93.7624 328.964 94.536 328.964 95.3095C328.964 95.7045 328.964 96.116 328.947 96.511C328.947 96.7579 329.145 96.9718 329.391 96.9718C329.638 96.9718 329.836 96.7743 329.852 96.5275C329.852 96.116 329.869 95.7045 329.869 95.3095C329.885 94.5195 329.885 93.746 329.852 92.9889ZM42.6657 91.1784C42.4681 91.0138 42.1883 91.0303 42.0237 91.2278C41.7603 91.5405 41.4805 91.8532 41.2007 92.1495C40.7233 92.6597 40.1801 93.1864 39.604 93.6966C39.423 93.8612 39.4065 94.1574 39.5711 94.3385C39.6534 94.4372 39.7851 94.4866 39.9168 94.4866C40.032 94.4866 40.1308 94.4537 40.2131 94.3714C40.8056 93.8447 41.3653 93.3016 41.8591 92.7584C42.1389 92.4457 42.4352 92.133 42.7151 91.8038C42.8797 91.6228 42.8632 91.343 42.6657 91.1784ZM329.622 89.4503C329.507 88.2488 329.342 87.0638 329.145 85.9281C329.095 85.6812 328.865 85.5166 328.618 85.5496C328.371 85.5989 328.206 85.8294 328.239 86.0762C328.437 87.179 328.601 88.3475 328.717 89.5325C328.75 89.763 328.947 89.944 329.178 89.944C329.194 89.944 329.21 89.944 329.227 89.944C329.457 89.9276 329.638 89.6971 329.622 89.4503ZM46.682 85.4014C46.4681 85.2698 46.1882 85.3356 46.0565 85.5496C45.3981 86.6358 44.7726 87.5904 44.1471 88.4792C43.999 88.6767 44.0484 88.973 44.2623 89.1211C44.3446 89.1705 44.4269 89.2034 44.5257 89.2034C44.6739 89.2034 44.8055 89.1375 44.9043 89.0059C45.5463 88.1006 46.1718 87.1296 46.8466 86.0269C46.9619 85.8129 46.896 85.5331 46.682 85.4014ZM50.1223 79.2788C49.9083 79.1636 49.6285 79.2459 49.4968 79.4599L49.2663 79.8878C48.789 80.7601 48.2952 81.6653 47.8014 82.5376C47.6697 82.7516 47.752 83.0314 47.9824 83.1631C48.0483 83.196 48.1306 83.2289 48.2129 83.2289C48.3775 83.2289 48.5256 83.1466 48.6079 82.9985C49.1017 82.1262 49.5956 81.2209 50.0729 80.3322L50.3034 79.9043C50.435 79.6738 50.3527 79.394 50.1223 79.2788ZM328.371 82.4553C328.289 82.1756 328.223 81.9122 328.141 81.6324C327.894 80.7601 327.597 79.9043 327.285 79.0484C327.202 78.818 326.939 78.6863 326.692 78.7851C326.462 78.8674 326.33 79.1307 326.429 79.3776C326.741 80.2005 327.021 81.0399 327.268 81.8958C327.35 82.1591 327.416 82.4224 327.499 82.7022C327.548 82.8997 327.729 83.0479 327.943 83.0479C327.976 83.0479 328.025 83.0479 328.058 83.0314C328.289 82.9491 328.437 82.7022 328.371 82.4553ZM53.6448 73.1727C53.4309 73.041 53.151 73.1069 53.0193 73.3208C52.4432 74.2425 51.8671 75.2465 51.2251 76.3657C51.0935 76.5796 51.1758 76.8594 51.4062 76.9911C51.472 77.024 51.5544 77.0569 51.6367 77.0569C51.8013 77.0569 51.9494 76.9746 52.0317 76.8265C52.6572 75.7073 53.2498 74.7198 53.8094 73.8146C53.9247 73.5842 53.8588 73.3044 53.6448 73.1727ZM325.869 75.7896C325.342 74.7198 324.75 73.6829 324.124 72.6789C323.992 72.465 323.713 72.3991 323.499 72.5308C323.285 72.6625 323.219 72.9423 323.35 73.1562C323.96 74.1273 324.536 75.1477 325.046 76.1846C325.128 76.3492 325.293 76.4315 325.457 76.4315C325.523 76.4315 325.589 76.415 325.655 76.3821C325.902 76.2998 325.984 76.02 325.869 75.7896ZM57.6941 67.4286C57.4966 67.264 57.2168 67.297 57.0522 67.5109C56.3444 68.4161 55.6366 69.3707 54.9452 70.3583C54.7971 70.5722 54.8629 70.852 55.0604 71.0001C55.1427 71.0495 55.2251 71.0824 55.3238 71.0824C55.472 71.0824 55.6036 71.0166 55.7024 70.8849C56.3773 69.9139 57.0686 68.9593 57.7764 68.087C57.9246 67.873 57.8917 67.5932 57.6941 67.4286ZM322.083 69.7658C321.968 69.6176 321.853 69.486 321.754 69.3378C321.128 68.5643 320.453 67.8072 319.746 67.0665C319.565 66.8855 319.285 66.8855 319.104 67.0501C318.923 67.2311 318.923 67.5109 319.087 67.692C319.779 68.3997 320.437 69.1403 321.046 69.8974C321.161 70.0291 321.26 70.1772 321.375 70.3089C321.474 70.4241 321.606 70.4899 321.737 70.4899C321.836 70.4899 321.935 70.457 322.017 70.3912C322.198 70.2595 322.231 69.9633 322.083 69.7658ZM62.5006 62.31C62.336 62.129 62.0397 62.1125 61.8586 62.2935C61.0027 63.1 60.1632 63.9394 59.3566 64.8117C59.192 64.9928 59.192 65.289 59.3896 65.4536C59.4719 65.5359 59.5871 65.5688 59.7023 65.5688C59.834 65.5688 59.9492 65.5194 60.0315 65.4207C60.8216 64.5648 61.6447 63.7419 62.4841 62.9519C62.6652 62.7708 62.6817 62.4911 62.5006 62.31ZM317.145 64.6471C316.256 63.89 315.318 63.1494 314.347 62.4417C314.149 62.2935 313.853 62.3429 313.705 62.5404C313.556 62.7379 313.606 63.0342 313.803 63.1823C314.758 63.8736 315.68 64.5978 316.536 65.3384C316.618 65.4207 316.733 65.4536 316.832 65.4536C316.964 65.4536 317.095 65.4042 317.178 65.289C317.359 65.0915 317.342 64.8117 317.145 64.6471ZM311.384 60.4831C310.495 59.94 309.557 59.4133 308.602 58.9195C308.503 58.8702 308.388 58.8043 308.289 58.7549C308.059 58.6397 307.795 58.722 307.68 58.9524C307.565 59.1829 307.647 59.4462 307.878 59.5614C307.976 59.6108 308.092 59.6766 308.19 59.726C309.129 60.2198 310.034 60.73 310.923 61.2731C311.005 61.3225 311.071 61.3389 311.153 61.3389C311.301 61.3389 311.45 61.2567 311.548 61.125C311.68 60.8946 311.598 60.6148 311.384 60.4831ZM68.0643 57.9978C67.9161 57.7839 67.6363 57.7345 67.4388 57.8662C66.4511 58.5245 65.4799 59.2322 64.5746 59.9564C64.3771 60.121 64.3442 60.4008 64.4923 60.5983C64.5746 60.7135 64.7228 60.7794 64.8545 60.7794C64.9532 60.7794 65.052 60.7464 65.1343 60.6806C66.0396 59.9729 66.9779 59.2816 67.949 58.6233C68.1466 58.4916 68.1959 58.2118 68.0643 57.9978ZM305.112 57.1914C304.026 56.6976 302.939 56.2203 301.87 55.7759C301.639 55.6772 301.376 55.7924 301.277 56.0228C301.178 56.2532 301.293 56.5166 301.524 56.6153C302.577 57.0432 303.664 57.5205 304.734 58.0143C304.799 58.0472 304.865 58.0637 304.931 58.0637C305.096 58.0637 305.26 57.9649 305.343 57.8003C305.441 57.5699 305.343 57.2901 305.112 57.1914ZM74.1876 54.558C74.0723 54.3276 73.809 54.2453 73.5785 54.344C72.5086 54.8707 71.4551 55.4303 70.451 56.0064C70.237 56.138 70.1547 56.4014 70.2864 56.6318C70.3687 56.7799 70.5169 56.8622 70.6815 56.8622C70.7638 56.8622 70.8296 56.8457 70.9119 56.7964C71.8996 56.2368 72.9366 55.6772 73.99 55.167C74.204 55.0518 74.3028 54.772 74.1876 54.558ZM298.561 54.5251C297.442 54.1301 296.306 53.768 295.187 53.4553C294.94 53.3894 294.693 53.5211 294.627 53.768C294.561 54.0149 294.693 54.2617 294.94 54.3276C296.042 54.6403 297.162 55.0024 298.265 55.3809C298.314 55.3974 298.363 55.4138 298.413 55.4138C298.594 55.4138 298.775 55.2986 298.841 55.1011C298.923 54.8543 298.808 54.6074 298.561 54.5251ZM80.7224 51.9411C80.6401 51.6942 80.3932 51.579 80.1463 51.6448C79.027 52.0069 77.9077 52.4184 76.8213 52.8792C76.5908 52.978 76.4756 53.2413 76.5743 53.4717C76.6402 53.6528 76.8213 53.7515 77.0023 53.7515C77.0682 53.7515 77.1175 53.7351 77.1834 53.7186C78.2533 53.2742 79.3562 52.8792 80.459 52.5171C80.6566 52.4513 80.7882 52.188 80.7224 51.9411ZM291.763 52.55C290.627 52.2867 289.458 52.0563 288.29 51.8588C288.043 51.8094 287.812 51.9905 287.763 52.2373C287.713 52.4842 287.895 52.7146 288.141 52.764C289.294 52.9615 290.446 53.1919 291.565 53.4553C291.598 53.4553 291.631 53.4717 291.664 53.4717C291.878 53.4717 292.059 53.3236 292.108 53.1096C292.158 52.8628 292.01 52.6159 291.763 52.55ZM284.783 51.3486C283.648 51.2169 282.495 51.1017 281.261 51.0029C281.014 50.9865 280.784 51.1675 280.767 51.4309C280.751 51.6777 280.932 51.9082 281.195 51.9246C282.43 52.0234 283.565 52.1221 284.685 52.2538C284.701 52.2538 284.718 52.2538 284.734 52.2538C284.965 52.2538 285.162 52.0892 285.179 51.8588C285.211 51.6119 285.03 51.3815 284.783 51.3486ZM277.738 50.8054C276.998 50.7725 276.273 50.7396 275.566 50.7067H275.516C275.072 50.6902 274.644 50.6738 274.232 50.6573C273.985 50.6408 273.771 50.8383 273.755 51.0852C273.738 51.3321 273.936 51.5461 274.183 51.5625C274.611 51.579 275.039 51.5954 275.483 51.6119H275.533C276.24 51.6448 276.965 51.6777 277.705 51.7107H277.722C277.969 51.7107 278.166 51.5132 278.183 51.2827C278.183 51.0359 277.985 50.8054 277.738 50.8054ZM87.5535 50.2788C87.5041 50.0319 87.2737 49.8673 87.0268 49.9167C85.8416 50.1306 84.6729 50.394 83.5701 50.6738C83.3232 50.7396 83.175 50.9865 83.2409 51.2334C83.2902 51.4473 83.4713 51.579 83.6853 51.579C83.7182 51.579 83.7676 51.579 83.8005 51.5625C84.8869 51.2827 86.0391 51.0359 87.2078 50.8219C87.4218 50.7725 87.5864 50.5256 87.5535 50.2788ZM270.726 50.4433C269.409 50.3446 268.29 50.1965 267.286 50.0154C267.039 49.966 266.792 50.1306 266.759 50.3775C266.71 50.6244 266.874 50.8548 267.121 50.9042C268.158 51.0852 269.311 51.2334 270.66 51.3486C270.677 51.3486 270.693 51.3486 270.693 51.3486C270.924 51.3486 271.121 51.1675 271.154 50.9371C271.154 50.6738 270.973 50.4598 270.726 50.4433ZM94.0225 48.9456C92.7386 49.0773 91.6028 49.2089 90.5164 49.3571C90.2695 49.39 90.0884 49.6204 90.1214 49.8673C90.1543 50.0977 90.3518 50.2623 90.5658 50.2623C90.5823 50.2623 90.6152 50.2623 90.6316 50.2623C91.7016 50.1142 92.8538 49.9825 94.1048 49.8673C94.3517 49.8344 94.5328 49.6204 94.5163 49.3735C94.4999 49.1102 94.2694 48.9291 94.0225 48.9456ZM263.961 49.1102C263.467 48.9127 262.973 48.6987 262.496 48.4683C261.936 48.1885 261.393 47.8923 260.85 47.596C260.636 47.4808 260.356 47.5466 260.224 47.7771C260.109 47.991 260.175 48.2708 260.405 48.4025C260.949 48.6987 261.508 48.995 262.068 49.2912C262.562 49.5381 263.089 49.7685 263.615 49.9825C263.665 49.999 263.73 50.0154 263.78 50.0154C263.961 50.0154 264.142 49.9002 264.208 49.7192C264.323 49.4558 264.208 49.1925 263.961 49.1102ZM101.051 48.3531C100.343 48.4189 99.652 48.4683 98.9442 48.5177H98.9277C98.4668 48.5506 98.0059 48.6 97.545 48.6329C97.2981 48.6494 97.1006 48.8798 97.1335 49.1267C97.15 49.3735 97.3475 49.5546 97.5944 49.5546C97.6109 49.5546 97.6109 49.5546 97.6273 49.5546C98.0882 49.5217 98.5491 49.4723 99.01 49.4394H99.0265C99.7343 49.39 100.442 49.3242 101.133 49.2748C101.38 49.2583 101.578 49.0279 101.545 48.781C101.512 48.5177 101.298 48.3366 101.051 48.3531ZM108.524 47.991C108.491 47.7441 108.261 47.5631 108.014 47.6125C106.944 47.7771 105.808 47.9087 104.541 48.0404C104.294 48.0733 104.113 48.2873 104.129 48.5341C104.162 48.7646 104.36 48.9456 104.574 48.9456C104.59 48.9456 104.607 48.9456 104.623 48.9456C105.891 48.8139 107.043 48.6658 108.129 48.5012C108.393 48.4683 108.557 48.2379 108.524 47.991ZM115.405 46.4768C115.339 46.2299 115.076 46.0983 114.845 46.1641C113.759 46.4768 112.623 46.7566 111.454 46.987C111.207 47.0364 111.043 47.2833 111.092 47.5302C111.141 47.7441 111.323 47.8923 111.536 47.8923C111.569 47.8923 111.602 47.8923 111.635 47.8758C112.82 47.6289 113.973 47.3491 115.076 47.0364C115.322 46.9706 115.471 46.7237 115.405 46.4768ZM257.887 45.802C256.916 45.1601 255.961 44.4853 255.056 43.7776C254.858 43.6295 254.578 43.6624 254.414 43.8599C254.266 44.0574 254.299 44.3372 254.496 44.5018C255.434 45.226 256.406 45.9172 257.393 46.5591C257.475 46.6085 257.558 46.6414 257.64 46.6414C257.788 46.6414 257.936 46.5591 258.019 46.4274C258.15 46.2135 258.101 45.9337 257.887 45.802ZM121.972 43.9916C121.874 43.7611 121.594 43.6624 121.363 43.7611C120.31 44.2384 119.224 44.6993 118.154 45.0943C117.923 45.1766 117.791 45.4399 117.89 45.6868C117.956 45.8679 118.137 45.9831 118.318 45.9831C118.368 45.9831 118.417 45.9666 118.483 45.9501C119.586 45.5387 120.689 45.0943 121.758 44.5841C121.972 44.4853 122.071 44.222 121.972 43.9916ZM128.129 40.5846C127.997 40.3707 127.717 40.3048 127.503 40.42C126.697 40.8974 125.841 41.3911 124.985 41.8849C124.82 41.9836 124.639 42.0824 124.474 42.1811C124.26 42.2963 124.178 42.5761 124.293 42.8065C124.376 42.9547 124.54 43.037 124.688 43.037C124.771 43.037 124.837 43.0205 124.902 42.9876C125.084 42.8888 125.248 42.7901 125.429 42.6913C126.302 42.1976 127.141 41.7038 127.964 41.2101C128.178 41.0784 128.26 40.7986 128.129 40.5846ZM252.373 41.5557C251.55 40.8151 250.727 40.025 249.854 39.1527C249.673 38.9717 249.393 38.9717 249.212 39.1527C249.031 39.3338 249.031 39.6136 249.212 39.7946C250.101 40.6834 250.941 41.4899 251.78 42.247C251.862 42.3292 251.978 42.3622 252.076 42.3622C252.208 42.3622 252.323 42.3128 252.422 42.214C252.57 42.0001 252.554 41.7203 252.373 41.5557ZM134.038 36.7662C133.89 36.5523 133.61 36.5029 133.413 36.651C132.441 37.3258 131.487 37.9513 130.499 38.5767C130.285 38.7084 130.219 38.9881 130.367 39.2021C130.45 39.3338 130.598 39.4161 130.746 39.4161C130.828 39.4161 130.911 39.3996 130.993 39.3502C131.98 38.7084 132.952 38.0665 133.939 37.3917C134.12 37.26 134.17 36.9802 134.038 36.7662ZM247.435 36.6017C246.924 36.0421 246.398 35.466 245.887 34.9229C245.607 34.6266 245.344 34.3139 245.064 34.0176C244.9 33.8366 244.603 33.8201 244.422 33.9847C244.241 34.1493 244.225 34.4456 244.389 34.6266C244.669 34.9229 244.949 35.2356 245.212 35.5318C245.723 36.0914 246.249 36.6675 246.76 37.2271C246.842 37.3258 246.974 37.3752 247.089 37.3752C247.204 37.3752 247.303 37.3423 247.402 37.26C247.599 37.0789 247.599 36.7827 247.435 36.6017ZM139.733 32.6516C139.585 32.4541 139.289 32.4047 139.091 32.5528C138.219 33.2112 137.264 33.9024 136.26 34.6431C136.063 34.7912 136.013 35.071 136.161 35.285C136.244 35.4166 136.392 35.466 136.54 35.466C136.639 35.466 136.721 35.4331 136.803 35.3837C137.807 34.6595 138.762 33.9518 139.635 33.2935C139.832 33.1289 139.882 32.8491 139.733 32.6516ZM242.645 31.4336C241.756 30.512 240.949 29.689 240.143 28.9319C239.961 28.7509 239.665 28.7674 239.501 28.9484C239.32 29.1294 239.336 29.4257 239.517 29.5903C240.307 30.3474 241.114 31.1539 241.986 32.0591C242.068 32.1578 242.2 32.2072 242.315 32.2072C242.431 32.2072 242.546 32.1578 242.628 32.0755C242.826 31.8945 242.826 31.6147 242.645 31.4336ZM145.396 28.4876C145.248 28.2901 144.968 28.2407 144.754 28.3723C143.881 28.9978 142.976 29.6561 141.906 30.4461C141.709 30.5943 141.659 30.8741 141.807 31.088C141.89 31.2032 142.038 31.2691 142.17 31.2691C142.268 31.2691 142.367 31.2361 142.449 31.1868C143.519 30.3968 144.425 29.7384 145.281 29.1294C145.495 28.9813 145.544 28.6851 145.396 28.4876ZM237.509 26.5619C236.604 25.8048 235.649 25.0642 234.711 24.3729C234.513 24.2248 234.217 24.2741 234.069 24.4717C233.92 24.6692 233.97 24.9654 234.167 25.1135C235.089 25.7883 236.027 26.5125 236.916 27.2532C236.999 27.319 237.114 27.3519 237.213 27.3519C237.344 27.3519 237.476 27.3025 237.558 27.1873C237.723 27.0227 237.69 26.7265 237.509 26.5619ZM151.272 24.6033C151.141 24.3894 150.861 24.3235 150.647 24.4552C149.643 25.0806 148.671 25.706 147.684 26.3644C147.47 26.5125 147.42 26.7923 147.552 26.9898C147.634 27.1215 147.783 27.1873 147.931 27.1873C148.013 27.1873 148.112 27.1544 148.178 27.105C149.149 26.4467 150.12 25.8213 151.124 25.1958C151.338 25.0971 151.404 24.8173 151.272 24.6033ZM157.363 21.0812C157.247 20.8508 156.968 20.7685 156.737 20.9001C156.589 20.9824 156.424 21.0647 156.276 21.147C155.387 21.6408 154.515 22.1345 153.659 22.6283C153.445 22.76 153.363 23.0398 153.494 23.2537C153.577 23.4018 153.725 23.4841 153.889 23.4841C153.972 23.4841 154.054 23.4677 154.12 23.4183C154.959 22.9245 155.832 22.4308 156.721 21.937C156.869 21.8547 157.017 21.7724 157.165 21.6901C157.396 21.5749 157.478 21.2951 157.363 21.0812ZM231.764 22.3979C230.777 21.7889 229.74 21.1799 228.702 20.6203C228.472 20.5051 228.209 20.5874 228.077 20.8014C227.962 21.0318 228.044 21.2951 228.258 21.4268C229.295 21.9864 230.299 22.5625 231.27 23.1714C231.353 23.2208 231.435 23.2373 231.517 23.2373C231.665 23.2373 231.814 23.155 231.912 23.0233C232.044 22.8258 231.978 22.5295 231.764 22.3979ZM163.832 18.3326C163.749 18.1022 163.486 17.9705 163.255 18.0528C162.103 18.4643 161 18.9086 159.947 19.353C159.716 19.4518 159.618 19.7151 159.716 19.9455C159.799 20.1266 159.963 20.2253 160.128 20.2253C160.194 20.2253 160.243 20.2089 160.309 20.1924C161.33 19.748 162.416 19.3201 163.552 18.9086C163.799 18.8263 163.914 18.563 163.832 18.3326ZM225.526 19.0403C224.489 18.563 223.386 18.0857 222.266 17.6413C222.036 17.5426 221.773 17.6578 221.674 17.8882C221.575 18.1186 221.69 18.382 221.921 18.4807C223.024 18.9251 224.094 19.3859 225.131 19.8632C225.196 19.8962 225.262 19.9126 225.328 19.9126C225.509 19.9126 225.674 19.8139 225.74 19.6493C225.855 19.4189 225.756 19.1555 225.526 19.0403ZM170.58 16.3411C170.515 16.0942 170.268 15.9461 170.021 16.0119C168.852 16.3082 167.7 16.6209 166.613 16.9501C166.366 17.0159 166.235 17.2792 166.301 17.5097C166.366 17.7072 166.548 17.8388 166.745 17.8388C166.794 17.8388 166.827 17.8388 166.877 17.8224C167.963 17.4932 169.099 17.1805 170.251 16.9007C170.498 16.8349 170.646 16.588 170.58 16.3411ZM218.958 16.4069C218.513 16.2588 218.053 16.0942 217.592 15.9461C216.95 15.7321 216.275 15.5346 215.567 15.3371C215.32 15.2713 215.073 15.4194 215.007 15.6498C214.941 15.8967 215.09 16.1436 215.32 16.2094C215.995 16.3905 216.67 16.6044 217.295 16.8019C217.756 16.9501 218.201 17.0982 218.645 17.2628C218.695 17.2792 218.744 17.2957 218.793 17.2957C218.974 17.2957 219.155 17.1805 219.221 16.983C219.32 16.7361 219.205 16.4892 218.958 16.4069ZM177.477 14.9257C177.428 14.6788 177.198 14.5142 176.951 14.5471C175.782 14.7446 174.613 14.975 173.477 15.2055C173.231 15.2548 173.066 15.5017 173.132 15.7486C173.181 15.9626 173.362 16.1107 173.576 16.1107C173.609 16.1107 173.642 16.1107 173.675 16.0942C174.794 15.8638 175.963 15.6334 177.115 15.4359C177.346 15.4194 177.51 15.1725 177.477 14.9257ZM212.127 14.4977C211.007 14.2673 209.839 14.0698 208.637 13.8888C208.39 13.8558 208.16 14.0204 208.11 14.2673C208.077 14.5142 208.242 14.7446 208.489 14.794C209.674 14.975 210.826 15.1725 211.929 15.403C211.962 15.403 211.995 15.4194 212.028 15.4194C212.242 15.4194 212.423 15.2713 212.472 15.0573C212.538 14.794 212.374 14.5471 212.127 14.4977ZM184.457 14.004C184.424 13.7571 184.21 13.5761 183.963 13.5925C182.794 13.7077 181.609 13.8558 180.457 14.0204C180.21 14.0534 180.029 14.2838 180.062 14.5307C180.095 14.7611 180.292 14.9257 180.506 14.9257C180.523 14.9257 180.555 14.9257 180.572 14.9257C181.724 14.7775 182.893 14.6294 184.045 14.5142C184.292 14.4813 184.473 14.2509 184.457 14.004ZM205.115 13.4608C203.979 13.3456 202.777 13.2469 201.592 13.181C201.345 13.1646 201.131 13.3621 201.115 13.609C201.098 13.8558 201.296 14.0698 201.543 14.0863C202.728 14.1521 203.896 14.2509 205.032 14.3661C205.049 14.3661 205.065 14.3661 205.082 14.3661C205.312 14.3661 205.51 14.185 205.543 13.9546C205.559 13.7077 205.378 13.4773 205.115 13.4608ZM190.991 13.0988C189.823 13.1481 188.638 13.214 187.469 13.2963C187.222 13.3127 187.024 13.5267 187.041 13.79C187.057 14.0369 187.255 14.2179 187.502 14.2179H187.535C188.687 14.1356 189.872 14.0698 191.041 14.0204C191.288 14.004 191.485 13.79 191.485 13.5431C191.469 13.2798 191.255 13.0823 190.991 13.0988ZM198.069 13.0329C197.246 13.0165 196.39 13 195.551 13C195.222 13 194.876 13 194.53 13C194.284 13 194.07 13.214 194.086 13.4608C194.086 13.7077 194.3 13.9217 194.547 13.9052C194.876 13.9052 195.205 13.9052 195.535 13.9052C196.374 13.9052 197.214 13.9217 198.053 13.9381H198.069C198.316 13.9381 198.514 13.7406 198.53 13.4938C198.514 13.2469 198.316 13.0329 198.069 13.0329Z" fill="#FFE7EB"/>
<path d="M331.778 221.679C331.482 222.024 331.169 222.37 330.873 222.716H329.819C329.819 222.6 329.852 222.485 329.935 222.386C330.313 221.958 330.708 221.531 331.087 221.086C331.251 220.889 331.531 220.872 331.729 221.037C331.926 221.201 331.943 221.498 331.778 221.679Z" fill="#FFE7EB"/>
<path d="M34.5672 222.716C34.5672 222.716 3.88477 207.245 3.88477 164.304C3.88477 107.933 31.736 108.048 44.0484 94.7993C54.7807 83.2453 55.3733 66.4575 77.4304 56.8457C94.2695 49.5051 108.607 55.6936 126.894 45.2753C140.935 37.2764 144.03 32.3882 158.153 24.5374C172.276 16.6867 201.016 14.5635 216.357 19.6163C242.348 28.1912 240.933 41.8683 260.735 51.9081C271.516 57.3888 284.389 50.575 306.791 62.3264C334.692 76.9581 323.169 104.74 325.704 112.937C331.317 131.14 351.35 133.461 350.05 172.007C349.111 199.542 325.523 222.683 325.523 222.683H34.5672V222.716Z" fill="#FBF0F4"/>
<path d="M25.0691 222.716C25.0691 222.716 15.9171 217.449 18.9787 205.45C20.7729 198.39 28.1801 193.238 35.4392 193.897C35.4392 193.897 24.4765 174.212 42.3526 165.9C62.9283 156.338 67.8665 177.504 67.8665 177.504C70.9281 174.821 75.6523 174.212 79.3065 176.006C82.9608 177.816 85.3311 181.931 85.0677 185.996C85.0677 185.996 91.2239 182.227 99.3061 185.7C103.767 187.626 106.944 192.991 105.1 197.485C110.335 194.028 120.54 195.674 126.417 203.656C132.128 211.425 129.709 222.716 129.709 222.716H25.0691Z" fill="#B4ACC6"/>
<path d="M170.841 135.454C167.265 133.979 163.931 131.574 161.223 128.22C149.968 114.298 144.169 95.1625 140.309 77.9467C136.814 62.2666 135.298 44.0607 126.428 30.1991C119.214 18.924 104.201 12.3569 91.9961 20.0151C77.7304 29.0069 79.1448 52.4463 79.9329 67.3586C80.5391 79.0176 82.2566 96.3547 76.2755 107.266C64.7983 128.159 48.7747 149.053 46.1276 173.664C43.6827 196.457 54.6749 223.069 78.3972 229.616C94.5623 234.081 119.093 228.949 129.6 215.875L170.841 135.454Z" fill="white"/>
<path d="M71.6076 30.6033C66.6368 35.857 62.6562 42.6867 62.5956 50.1024C62.5754 52.406 62.9189 54.7701 64.1312 56.7301C65.3436 58.6901 67.5865 60.1046 69.8698 59.8823C71.2439 59.7409 72.6381 59.0134 73.9515 59.458C71.547 64.1661 66.3135 72.875 70.2942 77.9872C83.1252 94.3947 110.303 45.4146 113.071 36.6248C111.818 40.6054 114.546 45.071 118.022 46.3845C127.276 49.8802 147.927 35.6347 143.522 24.9455C142.451 22.3793 139.844 21.0255 137.359 20.9851C134.874 20.9447 132.469 22.0156 130.166 23.1674C134.752 21.5913 136.207 13.8118 133.035 9.75036C129.418 5.1029 119.658 5.78991 118.224 12.3974C125.134 -7.06132 96.9059 1.2839 89.9347 4.96145C83.206 8.51777 71.7086 13.731 70.9812 22.5006C70.9004 23.5513 71.0014 24.6626 71.5672 25.5517C72.2744 26.6631 73.7091 27.2693 75.0225 26.9864C73.8707 28.1987 72.7391 29.4111 71.6076 30.6033Z" fill="#FE5D7C"/>
<path d="M117.456 141.556C117.375 141.556 117.315 141.556 117.234 141.516C116.81 141.395 116.547 140.95 116.688 140.526C118.386 134.605 119.214 124.906 119.618 120.259C119.699 119.37 119.76 118.663 119.8 118.157C119.881 117.349 119.942 116.703 120.669 116.662C128.792 116.177 137.42 111.671 143.765 104.599C144.068 104.276 144.573 104.235 144.897 104.538C145.22 104.841 145.26 105.347 144.957 105.67C138.511 112.863 129.762 117.531 121.397 118.218C121.336 118.723 121.275 119.532 121.194 120.38C120.79 125.088 119.942 134.888 118.204 140.95C118.123 141.334 117.8 141.556 117.456 141.556Z" fill="#5D7183"/>
<path d="M115.112 119.572C101.513 119.572 89.6723 116.117 77.0636 108.539C76.6797 108.317 76.5584 107.812 76.7807 107.428C77.003 107.044 77.5081 106.923 77.892 107.145C90.9453 115.005 103.13 118.319 117.416 117.915H117.436C117.88 117.915 118.224 118.258 118.244 118.703C118.264 119.148 117.901 119.511 117.456 119.531C116.688 119.552 115.9 119.572 115.112 119.572Z" fill="#5D7183"/>
<path d="M115.819 76.0071C114.91 76.0071 114.021 75.7242 113.213 75.1584C112.041 74.3501 111.212 73.0367 110.99 71.6627C110.929 71.2181 111.212 70.814 111.657 70.7332C112.101 70.6524 112.506 70.9555 112.586 71.4C112.728 72.3497 113.314 73.259 114.122 73.8046C114.809 74.2693 115.597 74.4512 116.345 74.3097C117.395 74.0875 119.153 73.0569 118.992 68.6115C118.972 68.167 119.315 67.7831 119.78 67.7831C120.224 67.7629 120.608 68.1064 120.608 68.5711C120.75 72.6932 119.315 75.3807 116.668 75.9262C116.385 75.9868 116.102 76.0071 115.819 76.0071Z" fill="#5D7183"/>
<path d="M158.739 230.02C158.76 231.03 182.32 180.494 191.494 153.013C174.44 151.033 153.95 148.002 136.896 146.022C127.945 166.087 120.408 185.95 110.466 205.55C107.536 211.329 106.082 214.885 102.384 220.199C118.387 224.604 142.473 226.686 158.739 230.02Z" fill="white"/>
<path d="M158.819 230.848C158.759 230.848 158.698 230.848 158.638 230.828C158.577 230.828 158.516 230.808 158.456 230.788C151.909 229.454 144.231 228.343 136.087 227.15C124.125 225.413 111.759 223.614 102.181 220.988C101.918 220.927 101.716 220.725 101.636 220.482C101.555 220.24 101.575 219.957 101.737 219.755C104.586 215.633 106.101 212.561 108.021 208.682C108.566 207.591 109.112 206.459 109.758 205.206C116.265 192.396 121.842 179.201 127.257 166.43C130.126 159.661 133.097 152.65 136.188 145.719C136.33 145.396 136.673 145.214 137.017 145.254C145.544 146.244 155.102 147.517 164.336 148.75C173.55 149.982 183.087 151.255 191.614 152.245C191.857 152.266 192.079 152.407 192.2 152.609C192.322 152.811 192.362 153.074 192.281 153.296C187.169 168.613 177.773 190.456 172.641 202.115C168.397 211.733 165.104 218.846 163.528 222.22C162.376 224.685 161.386 226.767 160.658 228.242C159.567 230.383 159.345 230.848 158.819 230.848ZM103.697 219.715C113.012 222.159 124.853 223.877 136.31 225.554C144.311 226.726 151.889 227.817 158.375 229.131C160.961 224.281 181.653 179.564 190.422 153.721C182.138 152.751 172.984 151.518 164.093 150.346C155.081 149.134 145.766 147.901 137.401 146.911C134.41 153.66 131.521 160.469 128.732 167.057C123.317 179.847 117.72 193.062 111.193 205.934C110.567 207.187 110.001 208.318 109.455 209.409C107.657 213.026 106.202 215.956 103.697 219.715Z" fill="#5D7183"/>
<path d="M180.986 154.428C173.954 154.731 166.963 152.771 160.012 151.639C159.143 151.498 146.433 149.437 146.474 149.296C146.918 147.457 147.383 145.537 148.575 144.082C150.03 142.304 152.354 141.435 154.657 141.294C155.647 141.233 156.597 141.354 157.527 141.556C159.244 141.92 160.537 141.476 162.214 141.698C163.326 139.112 165.589 137.05 168.559 137.03C169.307 137.03 170.095 137.172 170.681 137.636C171.408 138.243 171.651 139.233 171.732 140.182C171.812 141.354 171.671 142.567 171.287 143.678C173.611 144.204 175.914 144.749 178.238 145.274C179.248 145.497 180.279 145.759 181.087 146.426C182.199 147.356 182.582 148.932 182.421 150.366C182.219 151.781 181.592 153.135 180.986 154.428Z" fill="white"/>
<path d="M179.511 155.277C174.762 155.277 170.054 154.367 165.467 153.478C163.628 153.114 161.729 152.751 159.87 152.448C159.83 152.448 156.314 151.862 152.818 151.276C146.069 150.144 146.049 150.124 145.786 149.76C145.665 149.578 145.625 149.356 145.665 149.134C146.11 147.295 146.595 145.214 147.928 143.577C149.383 141.799 151.808 140.667 154.576 140.486C155.768 140.405 156.859 140.587 157.668 140.768C158.516 140.95 159.264 140.91 160.052 140.869C160.577 140.849 161.103 140.809 161.689 140.849C163.123 137.96 165.649 136.242 168.518 136.222C169.63 136.202 170.519 136.485 171.165 137.01C171.954 137.657 172.398 138.707 172.499 140.122C172.56 141.112 172.479 142.102 172.257 143.072L178.379 144.486C179.369 144.709 180.602 144.992 181.552 145.8C182.784 146.83 183.39 148.568 183.168 150.447C182.986 152.023 182.299 153.498 181.713 154.792C181.592 155.054 181.309 155.236 181.006 155.256C180.521 155.256 180.016 155.277 179.511 155.277ZM147.423 148.709C149.686 149.154 156.738 150.306 160.113 150.851C161.992 151.154 163.911 151.518 165.75 151.882C170.559 152.811 175.55 153.781 180.44 153.64C180.945 152.549 181.43 151.417 181.552 150.265C181.673 149.215 181.45 147.82 180.501 147.032C179.834 146.487 178.864 146.265 177.995 146.062L171.044 144.466C170.822 144.406 170.64 144.264 170.519 144.082C170.398 143.88 170.377 143.658 170.458 143.436C170.802 142.425 170.923 141.314 170.862 140.243C170.802 139.293 170.539 138.627 170.115 138.283C169.771 138 169.226 137.838 168.518 137.859C166.134 137.879 164.033 139.455 162.901 142.041C162.76 142.365 162.416 142.567 162.052 142.526C161.365 142.446 160.759 142.466 160.113 142.506C159.264 142.547 158.375 142.607 157.324 142.385C156.617 142.243 155.667 142.062 154.657 142.142C152.333 142.304 150.313 143.213 149.161 144.628C148.251 145.739 147.787 147.255 147.423 148.709Z" fill="#5D7183"/>
<path d="M91.0262 232C86.4596 232 82.0748 231.475 78.175 230.383C66.8796 227.272 57.7463 219.553 51.7248 208.096C46.4106 197.912 44.0666 185.344 45.3396 173.563C47.4007 154.347 57.5241 137.414 67.3241 121.047C70.1126 116.399 72.9819 111.59 75.5683 106.882C80.8826 97.2034 79.9935 81.9678 79.3267 70.8544C79.2661 69.6622 79.1853 68.5104 79.1246 67.3991L79.1044 66.8535C78.2962 51.5573 77.0838 28.4614 91.5718 19.3282C97.4316 15.6506 104.443 14.903 111.354 17.2267C117.638 19.3686 123.397 23.915 127.115 29.7546C134.005 40.5246 136.49 53.7598 138.875 66.5504C139.602 70.4502 140.289 74.1278 141.098 77.7649C147.826 107.852 156.151 120.683 161.849 127.715C166.275 133.171 172.68 136.525 179.449 136.889C185.875 137.252 191.937 134.949 196.544 130.402C200.706 126.28 202.767 120.057 204.364 113.954C206.768 104.761 207.819 95.1424 208.829 85.8273C208.971 84.534 209.112 83.2409 209.254 81.9476C210.405 71.5818 213.295 58.6497 225.398 50.749C225.782 50.5066 226.267 50.6076 226.51 50.9915C226.752 51.3754 226.651 51.8604 226.267 52.1029C214.729 59.6398 211.961 72.1072 210.83 82.1295C210.688 83.4227 210.547 84.7159 210.405 85.9889C209.395 95.3647 208.324 105.064 205.899 114.359C204.242 120.683 202.1 127.149 197.655 131.534C192.725 136.404 186.218 138.869 179.328 138.485C172.114 138.081 165.285 134.525 160.576 128.705C148.493 113.773 142.754 92.657 139.501 78.0882C138.693 74.4309 137.986 70.7331 137.258 66.8333C134.894 54.1841 132.449 41.1308 125.72 30.6033C122.184 25.087 116.749 20.7628 110.788 18.7422C104.362 16.5599 97.8357 17.2469 92.4002 20.682C78.7003 29.2899 79.8925 51.8402 80.6805 66.7525L80.7007 67.298C80.7614 68.3892 80.822 69.5409 80.9028 70.7331C81.5696 82.0487 82.4789 97.5469 76.9424 107.63C74.3357 112.358 71.4664 117.188 68.678 121.855C58.9991 138.101 48.9566 154.872 46.9359 173.745C44.592 195.568 54.8972 222.281 78.6195 228.828C86.4798 230.99 96.4415 230.889 105.938 228.524C115.981 226.019 124.165 221.351 128.994 215.35C129.277 215.006 129.782 214.946 130.125 215.229C130.469 215.512 130.53 216.017 130.247 216.36C125.215 222.624 116.729 227.494 106.322 230.08C101.23 231.353 96.0172 232 91.0262 232Z" fill="#5D7183"/>
<path d="M111.98 127.816C111.415 127.816 110.849 127.513 110.485 127.008C110.121 126.503 110.02 125.876 110.202 125.331C110.384 124.785 110.869 124.361 111.455 124.179C112.061 123.997 112.688 124.118 113.132 124.482C113.476 124.765 113.536 125.27 113.253 125.614C112.97 125.957 112.465 126.018 112.122 125.735C112.081 125.715 112 125.694 111.899 125.715C111.798 125.735 111.738 125.796 111.718 125.836C111.697 125.876 111.718 125.957 111.778 126.038C111.839 126.119 111.92 126.159 111.96 126.159C112.405 126.159 112.768 126.523 112.768 126.967C112.809 127.452 112.445 127.816 111.98 127.816C112 127.816 111.98 127.816 111.98 127.816Z" fill="#5D7183"/>
<path d="M108.807 140.687C108.242 140.687 107.676 140.384 107.312 139.879C106.948 139.374 106.847 138.748 107.029 138.202C107.211 137.657 107.696 137.232 108.282 137.05C108.888 136.868 109.515 136.99 109.959 137.353C110.303 137.636 110.363 138.141 110.08 138.485C109.798 138.829 109.292 138.889 108.949 138.606C108.908 138.586 108.828 138.566 108.727 138.586C108.626 138.606 108.565 138.667 108.545 138.707C108.525 138.748 108.545 138.828 108.605 138.909C108.666 138.99 108.747 139.031 108.787 139.031C109.232 139.031 109.595 139.394 109.595 139.839C109.636 140.324 109.272 140.687 108.807 140.687C108.828 140.687 108.828 140.687 108.807 140.687Z" fill="#5D7183"/>
<path d="M201.214 204.957C201.049 199.394 206.382 194.292 211.946 194.703C211.024 191.461 212.654 183.89 221.641 178.853C230.316 173.998 242.036 176.253 249.707 182.573C254.348 179.726 260.735 180.055 265.048 183.363C264.044 181.849 264.389 179.61 265.805 178.458C267.204 177.306 269.476 177.421 270.76 178.705C271.78 172.83 275.171 167.415 279.977 163.909C284.8 160.403 291.006 158.873 296.899 159.728C301.08 160.337 305.195 162.197 307.895 165.44C310.594 168.698 311.631 173.455 309.903 177.306C316.026 175.545 329.343 180.516 330.199 200.414C330.939 217.317 318.726 222.683 318.726 222.683H193.494C186.762 218.782 192.029 205.023 201.214 204.957Z" fill="#B4ACC6"/>
<path d="M245.502 193.096C245.435 175.19 245.369 170.417 245.315 152.512L255.987 152.725C255.987 152.725 256.134 161.871 256.134 178.11C256.134 178.11 254.795 181.51 253.121 183.79C249.252 189.096 245.502 193.096 245.502 193.096Z" fill="white"/>
<path d="M256.135 178.883C255.76 178.883 255.465 178.59 255.465 178.217C255.465 163.165 255.318 155.912 255.318 155.845C255.304 155.472 255.599 155.179 255.974 155.165C256.349 155.152 256.643 155.445 256.657 155.819C256.657 155.885 256.804 163.151 256.804 178.217C256.804 178.577 256.51 178.883 256.135 178.883Z" fill="#5D7183"/>
<path d="M245.502 193.762C245.128 193.762 244.833 193.469 244.833 193.096C244.806 184.696 244.766 179.55 244.739 174.564C244.712 169.577 244.672 164.431 244.646 156.032C244.646 155.658 244.94 155.365 245.315 155.365C245.69 155.365 245.984 155.658 245.984 156.032C246.011 164.431 246.051 169.577 246.078 174.564C246.105 179.55 246.145 184.696 246.172 193.096C246.172 193.469 245.877 193.762 245.502 193.762Z" fill="#5D7183"/>
<path d="M206.738 154.632C203.873 154.632 201.141 154.472 199.052 152.779C196.669 150.859 197.245 146.152 198.798 143.886L240.373 69.8781C242.663 65.7984 246.318 60.4388 251.621 60.9055C255.731 61.2654 258.45 64.9452 260.766 68.8649C264.502 75.1577 268.211 81.5972 271.799 87.8234C275.977 95.0762 280.302 102.582 284.68 109.875C286.434 112.808 288.202 115.821 289.902 118.741C291.683 121.768 293.518 124.914 295.339 127.94C295.914 128.914 296.597 129.967 297.32 131.1C300.494 136.033 304.43 142.179 303.962 146.952C303.935 147.166 303.935 147.379 303.922 147.606C303.908 147.926 303.881 148.246 303.841 148.579C302.958 154.925 291.737 154.685 285.029 154.552C284.158 154.538 283.408 154.512 282.752 154.512H278.601C272.509 154.512 266.202 154.512 260.137 154.525L206.912 154.645C206.858 154.632 206.792 154.632 206.738 154.632ZM250.978 62.212C246.72 62.212 243.56 66.9183 241.538 70.5314L199.949 144.553C199.936 144.566 199.923 144.593 199.923 144.606C198.704 146.379 198.195 150.352 199.909 151.739C201.69 153.179 204.247 153.299 206.925 153.285L260.15 153.165C266.216 153.152 272.522 153.152 278.615 153.152H282.766C283.422 153.152 284.225 153.165 285.069 153.192C290.92 153.312 301.806 153.552 302.529 148.379C302.569 148.099 302.583 147.819 302.596 147.512C302.609 147.286 302.623 147.046 302.65 146.806C303.078 142.499 299.275 136.566 296.209 131.807C295.486 130.674 294.79 129.607 294.201 128.62C292.38 125.581 290.545 122.448 288.764 119.408C287.064 116.501 285.296 113.488 283.542 110.555C279.164 103.236 274.839 95.7428 270.648 88.4767C267.059 82.2505 263.35 75.811 259.615 69.5315C257.472 65.9184 255.008 62.5453 251.5 62.2254C251.326 62.212 251.152 62.212 250.978 62.212Z" fill="#5D7183"/>
<path d="M290.559 138.993C290.586 134.02 286.448 128.834 284.091 124.887C281.387 120.381 278.722 115.728 276.004 111.182C269.845 100.876 263.98 90.3965 257.861 80.0639C256.307 77.4508 254.326 74.5443 251.313 74.2777C247.671 73.9577 245.073 77.6108 243.266 80.8239C232.755 99.5425 222.23 118.261 211.719 136.98C209.724 140.353 210.26 141.833 211.8 143.073C213.339 144.312 215.468 144.366 217.437 144.366C230.893 144.339 244.35 144.312 257.807 144.286C263.444 144.272 269.322 144.272 274.96 144.272C279.151 144.272 289.394 144.512 290.452 140.206C290.559 139.819 290.545 139.406 290.559 138.993Z" fill="#FE5D7C"/>
<path d="M245.355 97.4093C245.421 95.6495 245.596 93.8496 246.345 92.2897C247.095 90.7298 248.528 89.4366 250.175 89.3833C251.902 89.3166 253.482 90.6365 254.312 92.2497C255.143 93.8763 255.37 95.7695 255.491 97.6093C255.799 102.249 255.598 106.915 254.902 111.515C254.486 114.195 254.071 116.875 253.576 119.528C253.174 121.608 253.094 124.901 250.349 125.194C249.666 125.261 249.01 124.861 248.555 124.354C246.921 122.554 247.162 119.221 246.921 116.928C246.6 113.915 246.399 110.902 246.104 107.889C245.756 104.462 245.221 100.862 245.355 97.4093Z" fill="white"/>
<path d="M246.452 131.3C246.425 132.447 246.934 133.567 248.032 134.273C248.996 134.9 250.175 135.087 251.299 135.007C254.647 134.78 255.531 131.1 253.308 128.86C250.965 126.514 246.519 127.701 246.452 131.3Z" fill="white"/>
<path d="M258.209 51.6927C258.129 51.6927 258.062 51.6794 257.981 51.6527C257.633 51.5327 257.459 51.1461 257.58 50.7995C259.762 44.8132 261.704 38.6537 263.337 32.4942C263.431 32.1342 263.792 31.9209 264.154 32.0275C264.516 32.1209 264.73 32.4808 264.623 32.8408C262.962 39.0403 261.021 45.2265 258.825 51.2528C258.744 51.5194 258.477 51.6927 258.209 51.6927Z" fill="#5D7183"/>
<path d="M250.657 50.4394C250.322 50.4394 250.027 50.1861 249.987 49.8394L248.675 38.0537C248.635 37.6937 248.903 37.3604 249.264 37.3204C249.639 37.2804 249.96 37.547 250 37.907L251.313 49.6928C251.353 50.0528 251.085 50.3861 250.724 50.4261C250.71 50.4394 250.683 50.4394 250.657 50.4394Z" fill="#5D7183"/>
<path d="M243.828 52.8659C243.6 52.8659 243.373 52.7459 243.252 52.5326L236.892 41.64C236.705 41.3201 236.812 40.9201 237.133 40.7334C237.454 40.5468 237.856 40.6535 238.044 40.9734L244.404 51.8659C244.591 52.1859 244.484 52.5859 244.163 52.7725C244.069 52.8392 243.949 52.8659 243.828 52.8659Z" fill="#5D7183"/>
</svg>
