<svg width="354" height="244" viewBox="0 0 354 244" fill="none" xmlns="http://www.w3.org/2000/svg">
<path d="M28.6092 219.304H27.4075C27.0948 219.074 26.782 218.844 26.4693 218.597C26.2718 218.449 26.2388 218.154 26.387 217.956C26.5351 217.759 26.8314 217.726 27.0289 217.874C27.4898 218.236 27.9507 218.581 28.4281 218.91C28.5433 219.008 28.6092 219.156 28.6092 219.304Z" fill="#FFE7EB"/>
<path d="M24.3287 215.672C23.4562 214.916 22.5838 214.128 21.7608 213.323C21.5797 213.142 21.2835 213.158 21.1188 213.339C20.9378 213.52 20.9542 213.816 21.1353 213.98C21.9913 214.801 22.8637 215.606 23.7525 216.378C23.8348 216.461 23.9501 216.493 24.0488 216.493C24.1805 216.493 24.2957 216.444 24.3945 216.329C24.5262 216.116 24.5097 215.836 24.3287 215.672ZM336.206 212.074C336.009 211.926 335.712 211.959 335.564 212.156C334.856 213.093 334.132 214.013 333.408 214.916C333.243 215.113 333.276 215.393 333.474 215.557C333.556 215.623 333.655 215.656 333.754 215.656C333.885 215.656 334.017 215.606 334.116 215.491C334.856 214.588 335.581 213.651 336.288 212.715C336.437 212.501 336.404 212.222 336.206 212.074ZM19.3082 210.825C18.5181 209.971 17.7444 209.1 17.0037 208.213C16.8391 208.016 16.5593 208 16.3618 208.148C16.1642 208.312 16.1478 208.591 16.2959 208.788C17.0531 209.692 17.8432 210.579 18.6333 211.45C18.7156 211.548 18.8473 211.598 18.9625 211.598C19.0777 211.598 19.193 211.565 19.2753 211.483C19.4563 211.285 19.4728 211.006 19.3082 210.825ZM340.239 206.307C340.025 206.176 339.745 206.225 339.613 206.439C338.971 207.408 338.313 208.378 337.638 209.33C337.49 209.528 337.539 209.823 337.753 209.971C337.836 210.02 337.935 210.053 338.017 210.053C338.165 210.053 338.297 209.988 338.395 209.856C339.07 208.903 339.745 207.918 340.387 206.948C340.502 206.735 340.453 206.455 340.239 206.307ZM14.8309 205.47C14.1396 204.55 13.4647 203.58 12.8063 202.627C12.6581 202.414 12.3783 202.365 12.1808 202.496C11.9668 202.644 11.9174 202.923 12.0491 203.12C12.7075 204.09 13.3989 205.075 14.0902 206.012C14.1725 206.127 14.3207 206.192 14.4523 206.192C14.5511 206.192 14.6499 206.16 14.7322 206.094C14.9462 205.946 14.9791 205.667 14.8309 205.47ZM343.893 200.311C343.679 200.179 343.399 200.262 343.268 200.492C342.708 201.494 342.099 202.512 341.49 203.498C341.358 203.712 341.424 203.991 341.638 204.122C341.72 204.172 341.786 204.188 341.869 204.188C342.017 204.188 342.165 204.106 342.264 203.975C342.889 202.972 343.482 201.937 344.058 200.935C344.189 200.705 344.107 200.426 343.893 200.311ZM10.9462 199.67C10.3537 198.684 9.77755 197.649 9.23435 196.631C9.11913 196.401 8.8393 196.319 8.62531 196.434C8.39487 196.549 8.31256 196.828 8.42779 197.041C8.97098 198.077 9.56356 199.112 10.1561 200.13C10.2384 200.278 10.3866 200.36 10.5512 200.36C10.6335 200.36 10.7158 200.344 10.7816 200.294C11.0121 200.163 11.0779 199.884 10.9462 199.67ZM347.087 194.051C346.856 193.953 346.593 194.051 346.478 194.265C345.984 195.3 345.473 196.368 344.93 197.403C344.815 197.633 344.897 197.896 345.128 198.011C345.194 198.044 345.259 198.06 345.342 198.06C345.506 198.06 345.671 197.978 345.753 197.814C346.296 196.762 346.823 195.694 347.317 194.643C347.416 194.429 347.317 194.166 347.087 194.051ZM7.68706 193.493C7.20971 192.441 6.73235 191.373 6.30438 190.289C6.20562 190.059 5.94225 189.944 5.7118 190.043C5.48135 190.141 5.36613 190.404 5.46489 190.634C5.90933 191.718 6.37022 192.819 6.86404 193.871C6.94634 194.035 7.11095 194.134 7.27555 194.134C7.34139 194.134 7.40724 194.117 7.47308 194.084C7.70352 194.002 7.80229 193.723 7.68706 193.493ZM349.753 187.546C349.523 187.463 349.259 187.578 349.161 187.825C348.98 188.318 348.798 188.811 348.601 189.287C348.37 189.878 348.124 190.47 347.877 191.061C347.778 191.291 347.893 191.554 348.124 191.653C348.173 191.686 348.239 191.686 348.305 191.686C348.486 191.686 348.65 191.587 348.733 191.406C348.98 190.815 349.226 190.207 349.457 189.599C349.654 189.106 349.835 188.597 350.017 188.121C350.099 187.907 349.984 187.644 349.753 187.546ZM5.0863 187.02C4.70771 185.935 4.34558 184.818 4.03283 183.701C3.96699 183.455 3.70362 183.323 3.47317 183.389C3.22626 183.455 3.09458 183.718 3.16042 183.948C3.48963 185.081 3.85176 186.215 4.23035 187.315C4.2962 187.496 4.47726 187.628 4.65833 187.628C4.70771 187.628 4.75709 187.611 4.80647 187.595C5.03692 187.529 5.1686 187.266 5.0863 187.02ZM351.778 180.842C351.531 180.777 351.284 180.925 351.218 181.171C350.938 182.288 350.609 183.405 350.263 184.523C350.181 184.769 350.329 185.015 350.56 185.098C350.609 185.114 350.642 185.114 350.691 185.114C350.889 185.114 351.07 184.983 351.119 184.785C351.465 183.652 351.794 182.502 352.074 181.385C352.173 181.138 352.025 180.892 351.778 180.842ZM3.1275 180.333C2.86413 179.216 2.60076 178.066 2.38678 176.916C2.33739 176.669 2.10695 176.505 1.86004 176.554C1.61313 176.604 1.44853 176.834 1.49791 177.08C1.72835 178.23 1.97526 179.397 2.25509 180.53C2.30447 180.744 2.48554 180.875 2.69953 180.875C2.73245 180.875 2.76537 180.875 2.81475 180.859C3.02874 180.81 3.17688 180.58 3.1275 180.333ZM353.078 173.942C352.831 173.909 352.601 174.09 352.568 174.337C352.42 175.47 352.222 176.62 351.992 177.77C351.942 178.017 352.107 178.263 352.354 178.296C352.387 178.296 352.42 178.312 352.436 178.312C352.65 178.312 352.848 178.165 352.881 177.951C353.111 176.784 353.309 175.618 353.457 174.468C353.506 174.205 353.325 173.975 353.078 173.942ZM1.7942 173.482C1.62959 172.349 1.48145 171.182 1.36622 170.016C1.3333 169.769 1.11932 169.589 0.872408 169.605C0.6255 169.638 0.444434 169.851 0.460895 170.098C0.576118 171.264 0.724263 172.447 0.905329 173.597C0.93825 173.827 1.13578 173.992 1.34976 173.992C1.36622 173.992 1.39914 173.992 1.4156 173.992C1.66251 173.959 1.84358 173.729 1.7942 173.482ZM353.539 166.927C353.292 166.927 353.078 167.124 353.078 167.371C353.062 167.847 353.062 168.324 353.045 168.816C353.029 169.49 352.979 170.18 352.93 170.87C352.914 171.116 353.095 171.346 353.358 171.363C353.374 171.363 353.374 171.363 353.391 171.363C353.621 171.363 353.835 171.182 353.852 170.936C353.901 170.246 353.934 169.539 353.967 168.849C353.983 168.356 354 167.88 354 167.403C354 167.141 353.786 166.943 353.539 166.927ZM0.921789 163.033C0.921789 162.787 0.707802 162.59 0.460895 162.59C0.213987 162.59 0.0164605 162.803 0.0164605 163.05C0.0493816 164.233 0.0987631 165.416 0.164605 166.582C0.181066 166.828 0.378592 167.009 0.6255 167.009H0.658421C0.905329 166.993 1.10285 166.779 1.08639 166.533C1.00409 165.383 0.95471 164.2 0.921789 163.033ZM353.885 160.339C353.868 160.093 353.654 159.895 353.407 159.912C353.16 159.928 352.963 160.142 352.979 160.388C353.045 161.522 353.078 162.705 353.095 163.888C353.095 164.134 353.309 164.331 353.556 164.331C353.802 164.331 354.016 164.118 354 163.871C353.984 162.672 353.951 161.489 353.885 160.339ZM0.543197 155.575C0.296289 155.575 0.0823026 155.772 0.0658421 156.018C0.032921 157.168 0 158.351 0 159.534C0 159.78 0.197526 159.994 0.444434 159.994C0.691342 159.994 0.905329 159.797 0.905329 159.55C0.921789 158.368 0.93825 157.201 0.971171 156.051C0.987631 155.788 0.790105 155.575 0.543197 155.575ZM353.21 153.307C353.177 153.061 352.947 152.88 352.7 152.929C352.453 152.962 352.272 153.192 352.321 153.439C352.486 154.556 352.634 155.722 352.733 156.905C352.749 157.135 352.947 157.316 353.193 157.316C353.21 157.316 353.226 157.316 353.243 157.316C353.49 157.283 353.671 157.07 353.654 156.823C353.506 155.624 353.374 154.457 353.21 153.307ZM0.95471 148.559C0.707802 148.543 0.477355 148.724 0.460895 148.97C0.362131 150.12 0.279829 151.303 0.213987 152.486C0.197526 152.732 0.395053 152.946 0.64196 152.962C0.658421 152.962 0.658421 152.962 0.674881 152.962C0.921789 152.962 1.11932 152.782 1.13578 152.535C1.20162 151.352 1.28392 150.186 1.36622 149.052C1.38268 148.806 1.20162 148.576 0.95471 148.559ZM352.601 149.824C352.37 148.658 352.091 147.491 351.794 146.374C351.728 146.128 351.482 145.98 351.235 146.046C350.988 146.111 350.84 146.358 350.905 146.604C351.202 147.705 351.465 148.839 351.696 150.005C351.745 150.219 351.926 150.367 352.14 150.367C352.173 150.367 352.206 150.367 352.239 150.35C352.486 150.317 352.65 150.071 352.601 149.824ZM1.76128 141.577C1.51437 141.544 1.28392 141.708 1.251 141.955C1.08639 143.088 0.93825 144.271 0.806566 145.454C0.773645 145.701 0.95471 145.931 1.20162 145.964C1.21808 145.964 1.23454 145.964 1.251 145.964C1.48145 145.964 1.67897 145.783 1.69543 145.553C1.82712 144.386 1.97526 143.22 2.13987 142.086C2.17279 141.856 2.00818 141.61 1.76128 141.577ZM350.774 142.99C350.395 141.856 349.967 140.756 349.523 139.671C349.424 139.441 349.161 139.326 348.93 139.425C348.7 139.523 348.584 139.786 348.683 140.016C349.128 141.068 349.539 142.168 349.918 143.269C349.984 143.466 350.165 143.581 350.346 143.581C350.395 143.581 350.445 143.581 350.494 143.548C350.724 143.483 350.856 143.236 350.774 142.99ZM3.0452 134.677C2.79829 134.628 2.55138 134.775 2.502 135.022C2.25509 136.139 2.00818 137.305 1.7942 138.488C1.74482 138.735 1.90942 138.981 2.15633 139.014C2.18925 139.014 2.20571 139.014 2.23863 139.014C2.45262 139.014 2.65014 138.866 2.68306 138.636C2.89705 137.47 3.1275 136.32 3.37441 135.219C3.45671 134.973 3.2921 134.726 3.0452 134.677ZM348.025 136.468C347.498 135.433 346.922 134.381 346.296 133.362C346.165 133.149 345.885 133.083 345.671 133.215C345.457 133.346 345.391 133.625 345.523 133.839C346.132 134.841 346.691 135.86 347.218 136.878C347.301 137.043 347.465 137.125 347.63 137.125C347.696 137.125 347.761 137.108 347.827 137.075C348.041 136.96 348.14 136.681 348.025 136.468ZM4.93816 127.908C4.69125 127.826 4.44434 127.957 4.36204 128.204C3.99991 129.305 3.6707 130.438 3.35795 131.588C3.2921 131.835 3.44025 132.081 3.68716 132.147C3.72008 132.163 3.76946 132.163 3.80238 132.163C3.99991 132.163 4.18097 132.032 4.24681 131.835C4.55956 130.701 4.88877 129.567 5.23445 128.483C5.30029 128.253 5.1686 127.99 4.93816 127.908ZM344.371 130.389C343.729 129.452 343.037 128.516 342.28 127.53C342.132 127.333 341.836 127.3 341.638 127.448C341.441 127.596 341.408 127.892 341.556 128.089C342.313 129.058 342.988 129.978 343.613 130.898C343.696 131.03 343.844 131.095 343.992 131.095C344.074 131.095 344.173 131.062 344.255 131.013C344.469 130.882 344.519 130.602 344.371 130.389ZM340.074 124.787C339.482 124.064 338.889 123.374 338.33 122.7L337.819 122.092C337.655 121.895 337.375 121.879 337.177 122.043C336.98 122.207 336.963 122.486 337.128 122.684L337.638 123.291C338.198 123.965 338.79 124.655 339.383 125.378C339.465 125.493 339.597 125.542 339.729 125.542C339.827 125.542 339.926 125.509 340.025 125.444C340.206 125.263 340.239 124.984 340.074 124.787ZM7.52246 121.386C7.29201 121.287 7.02864 121.386 6.91342 121.616C6.43606 122.667 5.97517 123.768 5.5472 124.885C5.44843 125.115 5.58012 125.378 5.81056 125.477C5.85995 125.493 5.92579 125.509 5.97517 125.509C6.15623 125.509 6.3373 125.394 6.40314 125.214C6.83112 124.113 7.27555 123.029 7.75291 121.994C7.85167 121.764 7.75291 121.484 7.52246 121.386ZM335.581 119.381C334.774 118.363 334.083 117.459 333.474 116.605C333.326 116.391 333.046 116.342 332.832 116.49C332.618 116.638 332.568 116.917 332.717 117.131C333.326 118.001 334.033 118.921 334.856 119.956C334.939 120.071 335.087 120.121 335.219 120.121C335.317 120.121 335.416 120.088 335.498 120.022C335.712 119.874 335.745 119.579 335.581 119.381ZM10.9133 115.241C10.6993 115.11 10.4195 115.176 10.2878 115.389C9.66233 116.375 9.05329 117.393 8.49363 118.445C8.37841 118.658 8.46071 118.938 8.6747 119.069C8.74054 119.102 8.82284 119.118 8.88868 119.118C9.05329 119.118 9.20143 119.036 9.28373 118.872C9.84339 117.837 10.436 116.835 11.045 115.866C11.1767 115.652 11.1273 115.373 10.9133 115.241ZM331.63 113.68C331.054 112.645 330.56 111.627 330.132 110.575C330.033 110.345 329.77 110.23 329.54 110.329C329.309 110.428 329.194 110.69 329.293 110.92C329.737 112.021 330.231 113.073 330.84 114.14C330.922 114.288 331.087 114.37 331.235 114.37C331.317 114.37 331.383 114.354 331.449 114.305C331.663 114.173 331.745 113.91 331.63 113.68ZM15.1437 109.639C14.9462 109.475 14.6663 109.491 14.5017 109.688C13.7281 110.575 12.9874 111.512 12.2795 112.465C12.1314 112.662 12.1808 112.958 12.3783 113.105C12.4606 113.171 12.5594 113.188 12.6581 113.188C12.7898 113.188 12.938 113.122 13.0203 113.007C13.7116 112.07 14.4359 111.167 15.1931 110.296C15.3577 110.099 15.3412 109.803 15.1437 109.639ZM20.1641 104.727C19.9995 104.529 19.7032 104.513 19.5222 104.677C18.6168 105.466 17.7444 106.271 16.9214 107.092C16.7404 107.273 16.7404 107.552 16.9214 107.733C17.0037 107.815 17.1189 107.865 17.2506 107.865C17.3659 107.865 17.4811 107.815 17.5798 107.733C18.3864 106.928 19.2423 106.123 20.1312 105.351C20.2958 105.203 20.3287 104.907 20.1641 104.727ZM329.293 103.889C329.309 103.642 329.112 103.429 328.865 103.412C328.618 103.396 328.404 103.593 328.387 103.839C328.338 104.792 328.305 105.581 328.305 106.238C328.305 106.665 328.322 107.06 328.338 107.405C328.354 107.651 328.552 107.832 328.799 107.832C328.815 107.832 328.815 107.832 328.832 107.832C329.079 107.815 329.276 107.602 329.26 107.355C329.243 107.027 329.227 106.665 329.227 106.255C329.21 105.597 329.243 104.825 329.293 103.889ZM25.7607 100.472C25.6126 100.258 25.3327 100.209 25.1188 100.357C24.0982 101.063 23.16 101.753 22.2546 102.443C22.0571 102.591 22.0242 102.887 22.1723 103.084C22.2546 103.199 22.4028 103.264 22.5345 103.264C22.6332 103.264 22.732 103.232 22.8143 103.166C23.7032 102.492 24.6249 101.819 25.6455 101.112C25.843 100.964 25.8924 100.669 25.7607 100.472ZM329.326 96.3971C329.079 96.3807 328.865 96.5778 328.848 96.8243C328.782 98.0893 328.7 99.2886 328.618 100.324C328.601 100.57 328.782 100.8 329.046 100.817C329.062 100.817 329.062 100.817 329.079 100.817C329.309 100.817 329.523 100.636 329.54 100.389C329.622 99.3543 329.704 98.1386 329.77 96.8736C329.77 96.6271 329.573 96.4135 329.326 96.3971ZM31.67 96.6435C31.5384 96.43 31.2585 96.3643 31.0445 96.4957C30.1392 97.0707 29.1022 97.7114 28.0652 98.385C27.8512 98.5165 27.7854 98.8122 27.9335 99.0093C28.0158 99.1408 28.164 99.2229 28.3121 99.2229C28.3944 99.2229 28.4767 99.1901 28.559 99.1408C29.5796 98.4836 30.6166 97.8264 31.5219 97.2679C31.7359 97.1364 31.8017 96.8571 31.67 96.6435ZM37.53 92.7663C37.3818 92.5691 37.102 92.5199 36.888 92.6677C36.065 93.2592 35.1432 93.8835 33.991 94.6228C33.777 94.7542 33.7111 95.0499 33.8593 95.2471C33.9416 95.3785 34.0897 95.4607 34.2379 95.4607C34.3202 95.4607 34.4025 95.4442 34.4848 95.3949C35.637 94.6392 36.5753 94.0149 37.4148 93.407C37.6288 93.2592 37.6781 92.9799 37.53 92.7663ZM329.852 89.8091C329.836 89.5626 329.638 89.3655 329.375 89.3655C329.128 89.3819 328.931 89.5791 328.931 89.8419C328.964 90.5812 328.964 91.3534 328.964 92.1256C328.964 92.5199 328.964 92.9306 328.947 93.3249C328.947 93.5713 329.145 93.7849 329.391 93.7849C329.638 93.7849 329.836 93.5877 329.852 93.3413C329.852 92.9306 329.869 92.5199 329.869 92.1256C329.885 91.337 329.885 90.5648 329.852 89.8091ZM42.6657 88.0019C42.4681 87.8376 42.1883 87.854 42.0237 88.0512C41.7603 88.3633 41.4805 88.6755 41.2007 88.9712C40.7233 89.4805 40.1801 90.0062 39.604 90.5155C39.423 90.6798 39.4065 90.9755 39.5711 91.1562C39.6534 91.2548 39.7851 91.3041 39.9168 91.3041C40.032 91.3041 40.1308 91.2712 40.2131 91.1891C40.8056 90.6634 41.3653 90.1212 41.8591 89.5791C42.1389 89.2669 42.4352 88.9548 42.7151 88.6262C42.8797 88.4454 42.8632 88.1662 42.6657 88.0019ZM329.622 86.2768C329.507 85.0775 329.342 83.8946 329.145 82.761C329.095 82.5146 328.865 82.3503 328.618 82.3831C328.371 82.4324 328.206 82.6624 328.239 82.9089C328.437 84.0096 328.601 85.1761 328.717 86.359C328.75 86.589 328.947 86.7697 329.178 86.7697C329.194 86.7697 329.21 86.7697 329.227 86.7697C329.457 86.7533 329.638 86.5233 329.622 86.2768ZM46.682 82.2353C46.4681 82.1038 46.1882 82.1696 46.0565 82.3831C45.3981 83.4675 44.7726 84.4203 44.1471 85.3075C43.999 85.5047 44.0484 85.8004 44.2623 85.9482C44.3446 85.9975 44.4269 86.0304 44.5257 86.0304C44.6739 86.0304 44.8055 85.9647 44.9043 85.8332C45.5463 84.9296 46.1718 83.9603 46.8466 82.8596C46.9619 82.646 46.896 82.3667 46.682 82.2353ZM50.1223 76.1237C49.9083 76.0087 49.6285 76.0908 49.4968 76.3044L49.2663 76.7315C48.789 77.6023 48.2952 78.5059 47.8014 79.3766C47.6697 79.5902 47.752 79.8695 47.9824 80.0009C48.0483 80.0338 48.1306 80.0666 48.2129 80.0666C48.3775 80.0666 48.5256 79.9845 48.6079 79.8366C49.1017 78.9659 49.5956 78.0623 50.0729 77.1751L50.3034 76.748C50.435 76.518 50.3527 76.2387 50.1223 76.1237ZM328.371 79.2945C328.289 79.0152 328.223 78.7523 328.141 78.473C327.894 77.6023 327.597 76.748 327.285 75.8937C327.202 75.6637 326.939 75.5322 326.692 75.6308C326.462 75.7129 326.33 75.9758 326.429 76.2222C326.741 77.0437 327.021 77.8816 327.268 78.7359C327.35 78.9987 327.416 79.2616 327.499 79.5409C327.548 79.7381 327.729 79.8859 327.943 79.8859C327.976 79.8859 328.025 79.8859 328.058 79.8695C328.289 79.7873 328.437 79.5409 328.371 79.2945ZM53.6448 70.0285C53.4309 69.8971 53.151 69.9628 53.0193 70.1763C52.4432 71.0964 51.8671 72.0985 51.2251 73.2157C51.0935 73.4293 51.1758 73.7086 51.4062 73.84C51.472 73.8729 51.5544 73.9057 51.6367 73.9057C51.8013 73.9057 51.9494 73.8236 52.0317 73.6757C52.6572 72.5586 53.2498 71.5728 53.8094 70.6692C53.9247 70.4392 53.8588 70.1599 53.6448 70.0285ZM325.869 72.6407C325.342 71.5728 324.75 70.5378 324.124 69.5356C323.992 69.322 323.713 69.2563 323.499 69.3878C323.285 69.5192 323.219 69.7985 323.35 70.0121C323.96 70.9814 324.536 72 325.046 73.035C325.128 73.1993 325.293 73.2814 325.457 73.2814C325.523 73.2814 325.589 73.265 325.655 73.2322C325.902 73.15 325.984 72.8707 325.869 72.6407ZM57.6941 64.2947C57.4966 64.1305 57.2168 64.1633 57.0522 64.3769C56.3444 65.2805 55.6366 66.2334 54.9452 67.2191C54.7971 67.4327 54.8629 67.712 55.0604 67.8598C55.1427 67.9091 55.2251 67.942 55.3238 67.942C55.472 67.942 55.6036 67.8763 55.7024 67.7449C56.3773 66.7755 57.0686 65.8227 57.7764 64.9519C57.9246 64.7383 57.8917 64.459 57.6941 64.2947ZM322.083 66.6277C321.968 66.4798 321.853 66.3484 321.754 66.2005C321.128 65.4283 320.453 64.6726 319.746 63.9333C319.565 63.7526 319.285 63.7526 319.104 63.9169C318.923 64.0976 318.923 64.3769 319.087 64.5576C319.779 65.2641 320.437 66.0034 321.046 66.7591C321.161 66.8905 321.26 67.0384 321.375 67.1698C321.474 67.2848 321.606 67.3505 321.737 67.3505C321.836 67.3505 321.935 67.3177 322.017 67.252C322.198 67.1205 322.231 66.8248 322.083 66.6277ZM62.5006 59.1853C62.336 59.0046 62.0397 58.9882 61.8586 59.1689C61.0027 59.9739 60.1632 60.8118 59.3566 61.6825C59.192 61.8632 59.192 62.159 59.3896 62.3233C59.4719 62.4054 59.5871 62.4383 59.7023 62.4383C59.834 62.4383 59.9492 62.389 60.0315 62.2904C60.8216 61.4361 61.6447 60.6146 62.4841 59.826C62.6652 59.6453 62.6817 59.366 62.5006 59.1853ZM317.145 61.5182C316.256 60.7625 315.318 60.0232 314.347 59.3167C314.149 59.1689 313.853 59.2182 313.705 59.4153C313.556 59.6125 313.606 59.9082 313.803 60.056C314.758 60.7461 315.68 61.4689 316.536 62.2083C316.618 62.2904 316.733 62.3233 316.832 62.3233C316.964 62.3233 317.095 62.274 317.178 62.159C317.359 61.9618 317.342 61.6825 317.145 61.5182ZM311.384 57.3617C310.495 56.8195 309.557 56.2938 308.602 55.8009C308.503 55.7516 308.388 55.6859 308.289 55.6366C308.059 55.5216 307.795 55.6038 307.68 55.8338C307.565 56.0638 307.647 56.3267 307.878 56.4417C307.976 56.4909 308.092 56.5567 308.19 56.6059C309.129 57.0988 310.034 57.6081 310.923 58.1503C311.005 58.1996 311.071 58.216 311.153 58.216C311.301 58.216 311.45 58.1339 311.548 58.0024C311.68 57.7724 311.598 57.4931 311.384 57.3617ZM68.0643 54.8809C67.9161 54.6673 67.6363 54.618 67.4388 54.7495C66.4511 55.4066 65.4799 56.1131 64.5746 56.836C64.3771 57.0002 64.3442 57.2795 64.4923 57.4767C64.5746 57.5917 64.7228 57.6574 64.8545 57.6574C64.9532 57.6574 65.052 57.6246 65.1343 57.5588C66.0396 56.8524 66.9779 56.1624 67.949 55.5052C68.1466 55.3738 68.1959 55.0945 68.0643 54.8809ZM305.112 54.0759C304.026 53.583 302.939 53.1066 301.87 52.663C301.639 52.5644 301.376 52.6794 301.277 52.9094C301.178 53.1394 301.293 53.4023 301.524 53.5009C302.577 53.928 303.664 54.4045 304.734 54.8973C304.799 54.9302 304.865 54.9466 304.931 54.9466C305.096 54.9466 305.26 54.848 305.343 54.6838C305.441 54.4537 305.343 54.1744 305.112 54.0759ZM74.1876 51.4472C74.0723 51.2172 73.809 51.1351 73.5785 51.2337C72.5086 51.7594 71.4551 52.318 70.451 52.893C70.237 53.0244 70.1547 53.2873 70.2864 53.5173C70.3687 53.6651 70.5169 53.7473 70.6815 53.7473C70.7638 53.7473 70.8296 53.7309 70.9119 53.6816C71.8996 53.123 72.9366 52.5644 73.99 52.0551C74.204 51.9401 74.3028 51.6608 74.1876 51.4472ZM298.561 51.4144C297.442 51.0201 296.306 50.6586 295.187 50.3465C294.94 50.2808 294.693 50.4122 294.627 50.6586C294.561 50.9051 294.693 51.1515 294.94 51.2172C296.042 51.5294 297.162 51.8908 298.265 52.2687C298.314 52.2851 298.363 52.3015 298.413 52.3015C298.594 52.3015 298.775 52.1865 298.841 51.9894C298.923 51.743 298.808 51.4965 298.561 51.4144ZM80.7224 48.835C80.6401 48.5886 80.3932 48.4736 80.1463 48.5393C79.027 48.9007 77.9077 49.3115 76.8213 49.7715C76.5908 49.87 76.4756 50.1329 76.5743 50.3629C76.6402 50.5436 76.8213 50.6422 77.0023 50.6422C77.0682 50.6422 77.1175 50.6258 77.1834 50.6093C78.2533 50.1658 79.3562 49.7715 80.459 49.41C80.6566 49.3443 80.7882 49.0814 80.7224 48.835ZM291.763 49.4429C290.627 49.18 289.458 48.95 288.29 48.7529C288.043 48.7036 287.812 48.8843 287.763 49.1307C287.713 49.3772 287.895 49.6072 288.141 49.6565C289.294 49.8536 290.446 50.0836 291.565 50.3465C291.598 50.3465 291.631 50.3629 291.664 50.3629C291.878 50.3629 292.059 50.215 292.108 50.0015C292.158 49.755 292.01 49.5086 291.763 49.4429ZM284.783 48.2436C283.648 48.1121 282.495 47.9971 281.261 47.8986C281.014 47.8821 280.784 48.0628 280.767 48.3257C280.751 48.5721 280.932 48.8022 281.195 48.8186C282.43 48.9172 283.565 49.0157 284.685 49.1472C284.701 49.1472 284.718 49.1472 284.734 49.1472C284.965 49.1472 285.162 48.9829 285.179 48.7529C285.211 48.5064 285.03 48.2764 284.783 48.2436ZM277.738 47.7014C276.998 47.6685 276.273 47.6357 275.566 47.6028H275.516C275.072 47.5864 274.644 47.57 274.232 47.5535C273.985 47.5371 273.771 47.7343 273.755 47.9807C273.738 48.2271 273.936 48.4407 274.183 48.4571C274.611 48.4736 275.039 48.49 275.483 48.5064H275.533C276.24 48.5393 276.965 48.5721 277.705 48.605H277.722C277.969 48.605 278.166 48.4079 278.183 48.1778C278.183 47.9314 277.985 47.7014 277.738 47.7014ZM87.5535 47.1757C87.5041 46.9292 87.2737 46.7649 87.0268 46.8142C85.8416 47.0278 84.6729 47.2907 83.5701 47.57C83.3232 47.6357 83.175 47.8821 83.2409 48.1286C83.2902 48.3421 83.4713 48.4736 83.6853 48.4736C83.7182 48.4736 83.7676 48.4736 83.8005 48.4571C84.8869 48.1778 86.0391 47.9314 87.2078 47.7178C87.4218 47.6685 87.5864 47.4221 87.5535 47.1757ZM270.726 47.34C269.409 47.2414 268.29 47.0935 267.286 46.9128C267.039 46.8635 266.792 47.0278 266.759 47.2742C266.71 47.5207 266.874 47.7507 267.121 47.8C268.158 47.9807 269.311 48.1286 270.66 48.2436C270.677 48.2436 270.693 48.2436 270.693 48.2436C270.924 48.2436 271.121 48.0628 271.154 47.8328C271.154 47.57 270.973 47.3564 270.726 47.34ZM94.0225 45.8449C92.7386 45.9764 91.6028 46.1078 90.5164 46.2556C90.2695 46.2885 90.0884 46.5185 90.1214 46.7649C90.1543 46.995 90.3518 47.1592 90.5658 47.1592C90.5823 47.1592 90.6152 47.1592 90.6316 47.1592C91.7016 47.0114 92.8538 46.88 94.1048 46.7649C94.3517 46.7321 94.5328 46.5185 94.5163 46.2721C94.4999 46.0092 94.2694 45.8285 94.0225 45.8449ZM263.961 46.0092C263.467 45.8121 262.973 45.5985 262.496 45.3685C261.936 45.0892 261.393 44.7935 260.85 44.4977C260.636 44.3827 260.356 44.4485 260.224 44.6785C260.109 44.892 260.175 45.1713 260.405 45.3028C260.949 45.5985 261.508 45.8942 262.068 46.1899C262.562 46.4364 263.089 46.6664 263.615 46.8799C263.665 46.8964 263.73 46.9128 263.78 46.9128C263.961 46.9128 264.142 46.7978 264.208 46.6171C264.323 46.3542 264.208 46.0914 263.961 46.0092ZM101.051 45.2535C100.343 45.3192 99.652 45.3685 98.9442 45.4178H98.9277C98.4668 45.4506 98.0059 45.4999 97.545 45.5328C97.2981 45.5492 97.1006 45.7792 97.1335 46.0256C97.15 46.2721 97.3475 46.4528 97.5944 46.4528C97.6109 46.4528 97.6109 46.4528 97.6273 46.4528C98.0882 46.4199 98.5491 46.3706 99.01 46.3378H99.0265C99.7343 46.2885 100.442 46.2228 101.133 46.1735C101.38 46.1571 101.578 45.9271 101.545 45.6806C101.512 45.4178 101.298 45.237 101.051 45.2535ZM108.524 44.892C108.491 44.6456 108.261 44.4649 108.014 44.5142C106.944 44.6785 105.808 44.8099 104.541 44.9413C104.294 44.9742 104.113 45.1878 104.129 45.4342C104.162 45.6642 104.36 45.8449 104.574 45.8449C104.59 45.8449 104.607 45.8449 104.623 45.8449C105.891 45.7135 107.043 45.5656 108.129 45.4013C108.393 45.3685 108.557 45.1385 108.524 44.892ZM115.405 43.3806C115.339 43.1341 115.076 43.0027 114.845 43.0684C113.759 43.3806 112.623 43.6599 111.454 43.8899C111.207 43.9391 111.043 44.1856 111.092 44.432C111.141 44.6456 111.323 44.7935 111.536 44.7935C111.569 44.7935 111.602 44.7935 111.635 44.777C112.82 44.5306 113.973 44.2513 115.076 43.9391C115.322 43.8734 115.471 43.627 115.405 43.3806ZM257.887 42.707C256.916 42.0662 255.961 41.3926 255.056 40.6862C254.858 40.5383 254.578 40.5712 254.414 40.7683C254.266 40.9655 254.299 41.2448 254.496 41.4091C255.434 42.132 256.406 42.822 257.393 43.4627C257.475 43.512 257.558 43.5448 257.64 43.5448C257.788 43.5448 257.936 43.4627 258.019 43.3313C258.15 43.1177 258.101 42.8384 257.887 42.707ZM121.972 40.8998C121.874 40.6698 121.594 40.5712 121.363 40.6698C120.31 41.1462 119.224 41.6062 118.154 42.0005C117.923 42.0827 117.791 42.3455 117.89 42.592C117.956 42.7727 118.137 42.8877 118.318 42.8877C118.368 42.8877 118.417 42.8713 118.483 42.8548C119.586 42.4441 120.689 42.0005 121.758 41.4912C121.972 41.3926 122.071 41.1298 121.972 40.8998ZM128.129 37.499C127.997 37.2854 127.717 37.2197 127.503 37.3347C126.697 37.8111 125.841 38.304 124.985 38.7969C124.82 38.8954 124.639 38.994 124.474 39.0926C124.26 39.2076 124.178 39.4869 124.293 39.7169C124.376 39.8647 124.54 39.9469 124.688 39.9469C124.771 39.9469 124.837 39.9305 124.902 39.8976C125.084 39.799 125.248 39.7005 125.429 39.6019C126.302 39.109 127.141 38.6161 127.964 38.1233C128.178 37.9918 128.26 37.7125 128.129 37.499ZM252.373 38.4683C251.55 37.729 250.727 36.9404 249.854 36.0696C249.673 35.8889 249.393 35.8889 249.212 36.0696C249.031 36.2504 249.031 36.5296 249.212 36.7104C250.101 37.5975 250.941 38.4026 251.78 39.1583C251.862 39.2404 251.978 39.2733 252.076 39.2733C252.208 39.2733 252.323 39.224 252.422 39.1254C252.57 38.9119 252.554 38.6326 252.373 38.4683ZM134.038 33.6874C133.89 33.4738 133.61 33.4246 133.413 33.5724C132.441 34.246 131.487 34.8703 130.499 35.4946C130.285 35.626 130.219 35.9053 130.367 36.1189C130.45 36.2504 130.598 36.3325 130.746 36.3325C130.828 36.3325 130.911 36.3161 130.993 36.2668C131.98 35.626 132.952 34.9853 133.939 34.3117C134.12 34.1803 134.17 33.901 134.038 33.6874ZM247.435 33.5231C246.924 32.9645 246.398 32.3895 245.887 31.8474C245.607 31.5516 245.344 31.2395 245.064 30.9438C244.9 30.763 244.603 30.7466 244.422 30.9109C244.241 31.0752 244.225 31.3709 244.389 31.5516C244.669 31.8474 244.949 32.1595 245.212 32.4552C245.723 33.0138 246.249 33.5888 246.76 34.1474C246.842 34.246 246.974 34.2953 247.089 34.2953C247.204 34.2953 247.303 34.2624 247.402 34.1803C247.599 33.9996 247.599 33.7038 247.435 33.5231ZM139.733 29.5802C139.585 29.383 139.289 29.3337 139.091 29.4816C138.219 30.1387 137.264 30.8288 136.26 31.5681C136.063 31.7159 136.013 31.9952 136.161 32.2088C136.244 32.3402 136.392 32.3895 136.54 32.3895C136.639 32.3895 136.721 32.3567 136.803 32.3074C137.807 31.5845 138.762 30.8781 139.635 30.2209C139.832 30.0566 139.882 29.7773 139.733 29.5802ZM242.645 28.3644C241.756 27.4444 240.949 26.6229 240.143 25.8672C239.961 25.6865 239.665 25.7029 239.501 25.8836C239.32 26.0643 239.336 26.3601 239.517 26.5244C240.307 27.2801 241.114 28.0851 241.986 28.9887C242.068 29.0873 242.2 29.1366 242.315 29.1366C242.431 29.1366 242.546 29.0873 242.628 29.0051C242.826 28.8244 242.826 28.5451 242.645 28.3644ZM145.396 25.4236C145.248 25.2265 144.968 25.1772 144.754 25.3086C143.881 25.9329 142.976 26.5901 141.906 27.3787C141.709 27.5265 141.659 27.8058 141.807 28.0194C141.89 28.1344 142.038 28.2001 142.17 28.2001C142.268 28.2001 142.367 28.1673 142.449 28.118C143.519 27.3294 144.425 26.6722 145.281 26.0643C145.495 25.9165 145.544 25.6208 145.396 25.4236ZM237.509 23.5014C236.604 22.7457 235.649 22.0064 234.711 21.3163C234.513 21.1685 234.217 21.2178 234.069 21.4149C233.92 21.6121 233.97 21.9078 234.167 22.0556C235.089 22.7292 236.027 23.4521 236.916 24.1914C236.999 24.2571 237.114 24.29 237.213 24.29C237.344 24.29 237.476 24.2407 237.558 24.1257C237.723 23.9614 237.69 23.6657 237.509 23.5014ZM151.272 21.5463C151.141 21.3328 150.861 21.2671 150.647 21.3985C149.643 22.0228 148.671 22.6471 147.684 23.3043C147.47 23.4521 147.42 23.7314 147.552 23.9286C147.634 24.06 147.783 24.1257 147.931 24.1257C148.013 24.1257 148.112 24.0929 148.178 24.0436C149.149 23.3864 150.12 22.7621 151.124 22.1378C151.338 22.0392 151.404 21.7599 151.272 21.5463ZM157.363 18.0305C157.247 17.8005 156.968 17.7184 156.737 17.8498C156.589 17.932 156.424 18.0141 156.276 18.0962C155.387 18.5891 154.515 19.082 153.659 19.5749C153.445 19.7063 153.363 19.9856 153.494 20.1992C153.577 20.347 153.725 20.4292 153.889 20.4292C153.972 20.4292 154.054 20.4127 154.12 20.3635C154.959 19.8706 155.832 19.3777 156.721 18.8848C156.869 18.8027 157.017 18.7206 157.165 18.6384C157.396 18.5234 157.478 18.2441 157.363 18.0305ZM231.764 19.3449C230.777 18.737 229.74 18.1291 228.702 17.5705C228.472 17.4555 228.209 17.5377 228.077 17.7512C227.962 17.9812 228.044 18.2441 228.258 18.3755C229.295 18.9341 230.299 19.5091 231.27 20.117C231.353 20.1663 231.435 20.1827 231.517 20.1827C231.665 20.1827 231.814 20.1006 231.912 19.9692C232.044 19.772 231.978 19.4763 231.764 19.3449ZM163.832 15.2869C163.749 15.0569 163.486 14.9254 163.255 15.0076C162.103 15.4183 161 15.8619 159.947 16.3055C159.716 16.4041 159.618 16.6669 159.716 16.8969C159.799 17.0776 159.963 17.1762 160.128 17.1762C160.194 17.1762 160.243 17.1598 160.309 17.1434C161.33 16.6998 162.416 16.2726 163.552 15.8619C163.799 15.7798 163.914 15.5169 163.832 15.2869ZM225.526 15.9933C224.489 15.5169 223.386 15.0404 222.266 14.5969C222.036 14.4983 221.773 14.6133 221.674 14.8433C221.575 15.0733 221.69 15.3362 221.921 15.4347C223.024 15.8783 224.094 16.3383 225.131 16.8148C225.196 16.8476 225.262 16.8641 225.328 16.8641C225.509 16.8641 225.674 16.7655 225.74 16.6012C225.855 16.3712 225.756 16.1083 225.526 15.9933ZM170.58 13.299C170.515 13.0525 170.268 12.9047 170.021 12.9704C168.852 13.2661 167.7 13.5783 166.613 13.9068C166.366 13.9726 166.235 14.2354 166.301 14.4654C166.366 14.6626 166.548 14.794 166.745 14.794C166.794 14.794 166.827 14.794 166.877 14.7776C167.963 14.449 169.099 14.1368 170.251 13.8576C170.498 13.7918 170.646 13.5454 170.58 13.299ZM218.958 13.3647C218.513 13.2168 218.053 13.0525 217.592 12.9047C216.95 12.6911 216.275 12.4939 215.567 12.2968C215.32 12.2311 215.073 12.3789 215.007 12.6089C214.941 12.8554 215.09 13.1018 215.32 13.1675C215.995 13.3483 216.67 13.5618 217.295 13.759C217.756 13.9068 218.201 14.0547 218.645 14.219C218.695 14.2354 218.744 14.2519 218.793 14.2519C218.974 14.2519 219.155 14.1368 219.221 13.9397C219.32 13.6933 219.205 13.4468 218.958 13.3647ZM177.477 11.8861C177.428 11.6396 177.198 11.4753 176.951 11.5082C175.782 11.7053 174.613 11.9354 173.477 12.1654C173.231 12.2146 173.066 12.4611 173.132 12.7075C173.181 12.9211 173.362 13.069 173.576 13.069C173.609 13.069 173.642 13.069 173.675 13.0525C174.794 12.8225 175.963 12.5925 177.115 12.3954C177.346 12.3789 177.51 12.1325 177.477 11.8861ZM212.127 11.4589C211.007 11.2289 209.839 11.0318 208.637 10.851C208.39 10.8182 208.16 10.9825 208.11 11.2289C208.077 11.4753 208.242 11.7053 208.489 11.7546C209.674 11.9354 210.826 12.1325 211.929 12.3625C211.962 12.3625 211.995 12.3789 212.028 12.3789C212.242 12.3789 212.423 12.2311 212.472 12.0175C212.538 11.7546 212.374 11.5082 212.127 11.4589ZM184.457 10.966C184.424 10.7196 184.21 10.5389 183.963 10.5553C182.794 10.6703 181.609 10.8182 180.457 10.9825C180.21 11.0153 180.029 11.2453 180.062 11.4918C180.095 11.7218 180.292 11.8861 180.506 11.8861C180.523 11.8861 180.555 11.8861 180.572 11.8861C181.724 11.7382 182.893 11.5903 184.045 11.4753C184.292 11.4425 184.473 11.2125 184.457 10.966ZM205.115 10.4239C203.979 10.3089 202.777 10.2103 201.592 10.1446C201.345 10.1282 201.131 10.3253 201.115 10.5717C201.098 10.8182 201.296 11.0318 201.543 11.0482C202.728 11.1139 203.896 11.2125 205.032 11.3275C205.049 11.3275 205.065 11.3275 205.082 11.3275C205.312 11.3275 205.51 11.1468 205.543 10.9168C205.559 10.6703 205.378 10.4403 205.115 10.4239ZM190.991 10.0624C189.823 10.1117 188.638 10.1774 187.469 10.2596C187.222 10.276 187.024 10.4896 187.041 10.7525C187.057 10.9989 187.255 11.1796 187.502 11.1796H187.535C188.687 11.0975 189.872 11.0318 191.041 10.9825C191.288 10.966 191.485 10.7525 191.485 10.506C191.469 10.2432 191.255 10.046 190.991 10.0624ZM198.069 9.99673C197.246 9.9803 196.39 9.96387 195.551 9.96387C195.222 9.96387 194.876 9.96387 194.53 9.96387C194.284 9.96387 194.07 10.1774 194.086 10.4239C194.086 10.6703 194.3 10.8839 194.547 10.8675C194.876 10.8675 195.205 10.8675 195.535 10.8675C196.374 10.8675 197.214 10.8839 198.053 10.9003H198.069C198.316 10.9003 198.514 10.7032 198.53 10.4567C198.514 10.2103 198.316 9.99673 198.069 9.99673Z" fill="#FFE7EB"/>
<path d="M331.777 218.268C331.481 218.613 331.168 218.958 330.872 219.303H329.818C329.818 219.188 329.851 219.073 329.934 218.975C330.312 218.548 330.707 218.121 331.086 217.677C331.25 217.48 331.53 217.463 331.728 217.628C331.925 217.792 331.942 218.088 331.777 218.268Z" fill="#FFE7EB"/>
<path d="M34.5672 219.304C34.5672 219.304 3.88477 203.86 3.88477 160.997C3.88477 104.727 31.736 104.842 44.0484 91.6171C54.7807 80.0839 55.3733 63.3262 77.4304 53.7317C94.2695 46.4043 108.607 52.5816 126.894 42.1821C140.935 34.1975 144.03 29.3181 158.153 21.4814C172.276 13.6448 201.016 11.5254 216.357 16.5692C242.348 25.1287 240.933 38.7812 260.735 48.803C271.516 54.2738 284.389 47.4722 306.791 59.2026C334.692 73.808 323.169 101.54 325.704 109.722C331.317 127.892 351.35 130.209 350.05 168.686C349.111 196.172 325.523 219.271 325.523 219.271H34.5672V219.304Z" fill="#FBF0F4"/>
<path d="M25.0686 219.304C25.0686 219.304 15.9166 214.046 18.9782 202.07C20.7724 195.022 28.1797 189.879 35.4387 190.536C35.4387 190.536 24.476 170.887 42.3522 162.591C62.9278 153.045 67.866 174.173 67.866 174.173C70.9276 171.495 75.6518 170.887 79.306 172.678C82.9603 174.485 85.3306 178.592 85.0672 182.65C85.0672 182.65 91.2235 178.888 99.3056 182.355C103.766 184.277 106.943 189.633 105.1 194.118C110.334 190.668 120.54 192.311 126.416 200.279C132.128 208.033 129.708 219.304 129.708 219.304H25.0686Z" fill="#B4ACC6"/>
<path d="M201.214 201.577C201.049 196.023 206.382 190.93 211.946 191.341C211.024 188.105 212.654 180.547 221.641 175.52C230.316 170.673 242.036 172.924 249.707 179.233C254.348 176.391 260.735 176.719 265.048 180.022C264.044 178.51 264.389 176.276 265.805 175.126C267.204 173.976 269.476 174.091 270.76 175.372C271.78 169.507 275.171 164.102 279.977 160.602C284.8 157.103 291.006 155.575 296.899 156.429C301.08 157.037 305.195 158.894 307.895 162.13C310.594 165.383 311.631 170.131 309.903 173.976C316.026 172.218 329.343 177.179 330.199 197.042C330.939 213.915 318.726 219.271 318.726 219.271H193.494C186.762 215.377 192.029 201.642 201.214 201.577Z" fill="#B4ACC6"/>
<path d="M245.501 189.736C245.434 171.863 245.368 167.099 245.314 149.226L255.986 149.439C255.986 149.439 256.133 158.568 256.133 174.778C256.133 174.778 254.794 178.171 253.12 180.447C249.251 185.744 245.501 189.736 245.501 189.736Z" fill="white"/>
<path d="M256.134 175.55C255.759 175.55 255.464 175.257 255.464 174.885C255.464 159.859 255.317 152.62 255.317 152.553C255.303 152.181 255.598 151.888 255.973 151.874C256.348 151.861 256.642 152.154 256.656 152.527C256.656 152.593 256.803 159.846 256.803 174.885C256.803 175.244 256.509 175.55 256.134 175.55Z" fill="#5D7183"/>
<path d="M245.501 190.401C245.127 190.401 244.832 190.109 244.832 189.736C244.805 181.352 244.765 176.215 244.738 171.237C244.711 166.26 244.671 161.123 244.645 152.739C244.645 152.366 244.939 152.073 245.314 152.073C245.689 152.073 245.984 152.366 245.984 152.739C246.01 161.123 246.05 166.26 246.077 171.237C246.104 176.215 246.144 181.352 246.171 189.736C246.171 190.109 245.876 190.401 245.501 190.401Z" fill="#5D7183"/>
<path d="M206.737 151.341C203.872 151.341 201.14 151.182 199.051 149.491C196.668 147.575 197.244 142.877 198.797 140.615L240.372 66.7399C242.662 62.6675 246.317 57.3175 251.62 57.7833C255.731 58.1427 258.449 61.8158 260.765 65.7284C264.501 72.01 268.21 78.438 271.798 84.653C275.976 91.8927 280.301 99.3854 284.679 106.665C286.433 109.593 288.201 112.601 289.901 115.515C291.682 118.536 293.517 121.677 295.338 124.698C295.914 125.669 296.596 126.721 297.319 127.852C300.493 132.776 304.429 138.911 303.961 143.676C303.934 143.889 303.934 144.102 303.921 144.328C303.907 144.647 303.88 144.967 303.84 145.299C302.957 151.634 291.736 151.395 285.028 151.261C284.157 151.248 283.407 151.222 282.751 151.222H278.6C272.508 151.222 266.201 151.222 260.136 151.235L206.911 151.355C206.857 151.341 206.791 151.341 206.737 151.341ZM250.977 59.0876C246.719 59.0876 243.559 63.7854 241.537 67.392L199.948 141.28C199.935 141.293 199.922 141.32 199.922 141.333C198.703 143.103 198.194 147.069 199.908 148.453C201.689 149.891 204.246 150.01 206.924 149.997L260.149 149.877C266.215 149.864 272.521 149.864 278.614 149.864H282.765C283.421 149.864 284.224 149.877 285.068 149.904C290.919 150.024 301.805 150.263 302.528 145.1C302.568 144.82 302.582 144.541 302.595 144.235C302.608 144.008 302.622 143.769 302.649 143.529C303.077 139.231 299.274 133.308 296.208 128.557C295.485 127.426 294.789 126.361 294.2 125.377C292.379 122.342 290.544 119.215 288.763 116.181C287.063 113.279 285.295 110.272 283.541 107.344C279.163 100.037 274.838 92.5582 270.647 85.3051C267.058 79.0901 263.349 72.6621 259.614 66.3939C257.471 62.7873 255.007 59.4203 251.499 59.1009C251.325 59.0876 251.151 59.0876 250.977 59.0876Z" fill="#5D7183"/>
<path d="M290.557 135.731C290.584 130.767 286.446 125.59 284.09 121.651C281.385 117.152 278.72 112.508 276.002 107.97C269.843 97.6821 263.978 87.2217 257.859 76.9077C256.306 74.2993 254.324 71.3981 251.311 71.1319C247.669 70.8125 245.071 74.459 243.264 77.6663C232.753 96.3513 222.228 115.036 211.717 133.721C209.722 137.088 210.258 138.566 211.798 139.803C213.337 141.041 215.466 141.094 217.435 141.094C230.892 141.067 244.348 141.041 257.805 141.014C263.442 141.001 269.32 141.001 274.958 141.001C279.149 141.001 289.392 141.24 290.45 136.942C290.557 136.556 290.543 136.143 290.557 135.731Z" fill="#FA758E"/>
<path d="M245.353 94.2221C245.42 92.4654 245.594 90.6687 246.344 89.1116C247.094 87.5546 248.526 86.2637 250.173 86.2104C251.901 86.1439 253.481 87.4614 254.311 89.0717C255.141 90.6953 255.369 92.5851 255.489 94.4217C255.797 99.053 255.596 103.711 254.9 108.302C254.485 110.977 254.07 113.652 253.574 116.301C253.173 118.377 253.092 121.664 250.347 121.957C249.665 122.023 249.009 121.624 248.553 121.118C246.92 119.322 247.161 115.995 246.92 113.706C246.598 110.698 246.397 107.69 246.103 104.682C245.755 101.262 245.219 97.6689 245.353 94.2221Z" fill="white"/>
<path d="M246.452 128.052C246.425 129.197 246.934 130.314 248.032 131.02C248.996 131.645 250.175 131.832 251.299 131.752C254.647 131.526 255.531 127.852 253.308 125.617C250.965 123.274 246.519 124.459 246.452 128.052Z" fill="white"/>
<path d="M258.208 48.587C258.128 48.587 258.061 48.5737 257.98 48.5471C257.632 48.4273 257.458 48.0414 257.579 47.6954C259.761 41.7199 261.703 35.5714 263.336 29.423C263.43 29.0636 263.791 28.8507 264.153 28.9572C264.515 29.0503 264.729 29.4097 264.622 29.769C262.961 35.9574 261.02 42.1325 258.824 48.1479C258.744 48.414 258.476 48.587 258.208 48.587Z" fill="#5D7183"/>
<path d="M250.656 47.3357C250.321 47.3357 250.026 47.0829 249.986 46.7369L248.674 34.9723C248.634 34.6129 248.902 34.2802 249.263 34.2403C249.638 34.2004 249.959 34.4665 250 34.8259L251.312 46.5905C251.352 46.9498 251.084 47.2825 250.723 47.3224C250.709 47.3357 250.682 47.3357 250.656 47.3357Z" fill="#5D7183"/>
<path d="M243.827 49.758C243.599 49.758 243.372 49.6382 243.251 49.4253L236.891 38.5523C236.704 38.2329 236.811 37.8337 237.132 37.6473C237.453 37.461 237.855 37.5675 238.043 37.8869L244.403 48.7598C244.59 49.0793 244.483 49.4785 244.162 49.6648C244.068 49.7314 243.948 49.758 243.827 49.758Z" fill="#5D7183"/>
<path d="M173.318 228.138C163.471 230.048 152.995 229.926 147.473 228.626C134.053 225.478 121.201 214.429 115.476 201.898C111.923 194.1 109.405 177.507 115.191 170.094C120.531 163.27 132.692 154.13 141.889 156.831C148.102 158.659 153.401 165.504 158.375 169.342C168.141 176.877 179.348 183.173 187.652 192.414C191.631 196.841 195.895 202.812 196.423 209.068C197.336 219.974 185.825 225.722 173.318 228.138Z" fill="#DFE2EA"/>
<path d="M158.029 230.413C157.826 230.413 157.603 230.413 157.4 230.413C156.953 230.413 156.588 230.047 156.588 229.601C156.588 229.154 156.953 228.788 157.4 228.788C162.577 228.829 168.181 228.321 173.155 227.346C179.956 226.026 185.58 223.873 189.417 221.132C193.925 217.902 195.995 213.881 195.61 209.169C195.204 204.315 192.321 198.872 187.042 192.982C181.154 186.422 169.703 178.36 161.339 172.449C160.121 171.596 158.963 170.764 157.887 170.012C157.522 169.748 157.441 169.24 157.705 168.875C157.968 168.509 158.476 168.428 158.841 168.692C159.897 169.444 161.054 170.256 162.273 171.129C170.698 177.06 182.251 185.204 188.24 191.906C193.762 198.06 196.787 203.828 197.214 209.047C197.66 214.368 195.346 218.898 190.351 222.472C186.331 225.356 180.484 227.61 173.439 228.971C168.587 229.885 163.125 230.413 158.029 230.413Z" fill="#5D7183"/>
<path d="M121.363 242.822C109.689 241.624 98.3596 238.09 87.7007 233.297C83.1123 231.245 63.3578 221.903 78.3818 219.588C82.6657 218.938 87.3353 219.953 91.4567 219.872C99.1514 219.709 106.948 220.095 114.622 219.445C107.009 219.486 91.6394 219.202 84.2899 217.191C64.9414 211.911 55.2367 189.204 60.3733 170.052C62.566 161.908 86.1983 168.793 92.2282 169.707C104.146 171.494 115.901 173.505 127.393 177.364C148.67 184.493 183.266 215.648 154.294 235.937C144.995 242.436 133.321 244.04 121.363 242.822Z" fill="#DFE2EA"/>
<path d="M128.57 244C126.215 244 123.799 243.878 121.281 243.614C110.501 242.518 99.0906 239.288 87.3759 234.008C85.4269 233.135 81.6709 231.368 78.3818 229.337C73.7934 226.514 71.7834 224.28 72.0474 222.31C72.291 220.522 74.3213 219.365 78.26 218.755C80.94 218.349 83.7417 218.573 86.442 218.796C87.5383 218.877 88.5738 218.979 89.6092 219.019C87.5383 218.735 85.6299 218.39 84.0666 217.963C75.4176 215.607 68.0883 209.616 63.3984 201.106C58.9318 192.982 57.2467 183.437 58.6679 174.196C58.7288 173.749 59.1552 173.445 59.6018 173.526C60.0485 173.587 60.353 174.013 60.2718 174.46C58.9318 183.214 60.5966 192.637 64.8196 200.335C69.2862 208.458 76.2703 214.165 84.4929 216.42C90.8477 218.166 104.227 218.715 114.602 218.654C115.028 218.654 115.394 218.999 115.414 219.426C115.434 219.852 115.109 220.238 114.663 220.279C109.668 220.685 104.552 220.685 99.6184 220.664C96.9385 220.664 94.157 220.644 91.4568 220.705C89.7919 220.746 88.0053 220.604 86.2999 220.461C83.6808 220.258 81.0009 220.035 78.4833 220.421C74.2807 221.071 73.6919 222.147 73.631 222.574C73.4077 224.239 77.7727 227.976 88.0053 232.566C99.5778 237.765 110.805 240.954 121.424 242.03C123.88 242.274 126.256 242.396 128.529 242.396C138.559 242.396 147.025 240.02 153.786 235.267C160.892 230.291 164.506 224.361 164.526 217.638C164.526 212.358 162.374 206.712 158.07 200.883C154.314 195.785 149.096 190.809 142.985 186.483C142.62 186.219 142.538 185.712 142.782 185.346C143.046 184.98 143.553 184.899 143.919 185.143C150.172 189.55 155.512 194.648 159.369 199.908C163.876 206.021 166.15 211.992 166.13 217.618C166.11 224.889 162.273 231.266 154.7 236.567C147.695 241.522 138.924 244 128.57 244Z" fill="#5D7183"/>
<path d="M156.528 166.052C154.498 168.469 123.252 189.652 60.3744 170.053C57.2072 169.058 70.4039 128.54 71.3785 125.209C75.3375 111.663 80.1289 98.1163 81.205 83.9402C81.8547 75.4508 80.6974 66.9817 77.7332 59C73.8757 48.6421 65.6328 37.2281 68.3128 25.6313C69.4294 20.8179 72.6778 16.5732 76.9617 14.1361C87.4176 8.20565 99.4165 14.1361 106.766 22.1584C122.216 39.0153 127.861 61.7012 136.51 82.2748C141.26 93.5873 145.037 105.326 148.529 117.065C157.401 146.859 156.528 166.052 156.528 166.052Z" fill="white"/>
<path d="M69.307 59.1826C73.3675 62.6149 80.8389 61.0917 84.4122 56.0955C87.9855 51.0993 86.8688 43.7473 82.1383 41.2695C84.8995 41.8788 88.1682 40.8024 90.4015 38.548C92.6348 36.2936 93.7514 32.9629 93.2236 30.0992C96.5329 32.0083 101.446 31.0944 104.532 27.9667C107.618 24.839 108.613 19.8022 106.806 16.3902C104.999 12.9579 100.553 11.4753 96.5938 12.9579C99.3144 9.97237 99.4565 5.19961 97.1826 2.51874C94.9087 -0.162133 90.6857 -0.690183 87.0922 0.873657C83.4986 2.4375 80.6156 5.84951 79.2553 9.58648C77.1438 6.27602 72.0276 5.6058 68.3934 8.16481C64.7592 10.7238 63.2162 16.1059 65.1043 19.5585C61.2265 19.2945 56.9223 22.1988 55.3793 26.1388C53.8363 30.0789 55.2169 34.5876 58.506 36.3546C54.689 38.7511 52.8821 44.255 54.7297 47.8498C56.5772 51.4446 61.7544 52.4601 65.551 50.0026C64.7186 54.1458 66.1398 57.0704 69.307 59.1826Z" fill="#FE5D7C"/>
<path d="M109.913 179.111C107.192 179.111 104.411 179.03 101.589 178.847C88.5544 178.035 74.6065 175.334 60.1306 170.825C59.9073 170.764 59.5825 170.581 59.3591 170.155C58.7907 169.058 58.6689 165.93 62.7294 151.125C65.1657 142.29 68.2111 132.521 69.6932 127.85C70.1399 126.428 70.4647 125.392 70.5865 124.966C71.2971 122.549 72.028 120.071 72.7589 117.695C76.0683 106.748 79.4994 95.4154 80.3724 83.8592C81.0221 75.3698 79.8649 67.1037 76.9413 59.2642C75.9464 56.6037 74.6877 53.9025 73.3274 51.0592C69.4496 42.8134 65.4296 34.2834 67.4802 25.4284C68.6172 20.4526 72.0077 15.9641 76.5352 13.4051C81.5297 10.5821 87.2957 10.1353 93.2646 12.1256C98.2997 13.8113 103.294 17.1624 107.355 21.5899C119.191 34.5271 125.384 50.9779 131.373 66.8803C133.241 71.8562 135.19 77.0148 137.261 81.9501C142.296 93.9531 146.173 106.301 149.32 116.822C153.929 132.277 155.858 144.829 156.69 152.648C157.157 157.075 157.32 160.487 157.36 162.579C157.462 166.215 157.34 166.357 157.198 166.56C157.198 166.58 157.178 166.58 157.178 166.601C156.284 167.677 148.183 173.831 131.454 177.121C124.693 178.441 117.486 179.111 109.913 179.111ZM60.7803 169.322C75.0734 173.77 88.8387 176.43 101.69 177.223C112.166 177.872 122.074 177.304 131.109 175.516C146.336 172.511 154.274 167.088 155.716 165.727C155.777 163.189 155.898 144.768 147.737 117.289C144.61 106.809 140.753 94.5014 135.738 82.5797C133.647 77.6241 131.718 72.4452 129.83 67.449C123.901 51.6888 117.77 35.3801 106.157 22.7069C102.279 18.4825 97.5282 15.2736 92.7571 13.6895C87.2551 11.8616 81.9154 12.2475 77.3473 14.8471C73.2259 17.1827 70.1196 21.2852 69.0841 25.8143C67.1757 34.1209 71.0535 42.3869 74.8095 50.3889C76.1698 53.2729 77.4488 55.9944 78.464 58.7159C81.4688 66.7585 82.6666 75.2682 81.9967 84.0014C81.1033 95.7403 77.6519 107.154 74.3222 118.182C73.6116 120.559 72.8604 123.016 72.1498 125.433C72.028 125.859 71.7235 126.855 71.2565 128.337C69.7744 133.049 66.7087 142.838 64.2927 151.673C60.4149 165.788 60.557 168.733 60.7803 169.322Z" fill="#5D7183"/>
<path d="M103.965 90.1144C96.9601 90.1144 89.6105 88.3678 82.7888 85.0167C82.3827 84.8136 82.2203 84.3261 82.4233 83.9199C82.6264 83.5138 83.1136 83.3513 83.5197 83.5544C91.9656 87.6772 101.203 89.302 109.527 88.0834C118.643 86.7633 126.399 81.9905 130.257 75.3493C130.48 74.9634 130.987 74.8212 131.373 75.0446C131.759 75.268 131.901 75.7758 131.678 76.1617C127.577 83.2294 119.395 88.2865 109.791 89.6676C107.842 89.9925 105.914 90.1144 103.965 90.1144Z" fill="#5D7183"/>
<path d="M112.287 56.4001C111.495 56.4001 110.704 56.197 110.013 55.7705C109.628 55.5268 109.506 55.0394 109.749 54.6535C109.993 54.2676 110.48 54.1458 110.866 54.3895C111.8 54.9581 113.12 54.8972 113.993 54.2067C114.866 53.5162 115.251 52.2773 114.906 51.2212C114.764 50.7947 115.008 50.3276 115.434 50.2057C115.861 50.0635 116.327 50.3072 116.449 50.7337C116.997 52.4398 116.388 54.3895 114.987 55.5065C114.216 56.0955 113.262 56.4001 112.287 56.4001Z" fill="#5D7183"/>
<path d="M115.8 195.379C115.759 195.379 115.739 195.379 115.698 195.379C111.009 194.79 106.4 193.389 101.994 191.236C95.9439 188.271 90.8683 184.148 86.4829 178.624C82.7066 173.872 79.5394 168.144 76.7985 161.178C70.525 145.215 69.5301 128.358 73.9764 113.714C74.0982 113.288 74.5652 113.044 74.9916 113.166C75.4179 113.288 75.6616 113.755 75.5397 114.182C71.195 128.48 72.1695 144.951 78.3212 160.569C81.0012 167.393 84.0872 172.978 87.762 177.609C91.9849 182.93 96.8779 186.91 102.705 189.774C106.948 191.846 111.394 193.206 115.901 193.775C116.348 193.836 116.653 194.242 116.612 194.689C116.551 195.095 116.206 195.379 115.8 195.379Z" fill="#5D7183"/>
<path d="M155.088 92.3687C152.286 92.3687 149.525 91.9219 146.987 91.0689C141.668 89.241 137.506 85.6868 134.968 80.7516C134.765 80.3454 134.927 79.8579 135.313 79.6549C135.719 79.4518 136.206 79.6142 136.409 80.0001C138.764 84.5495 142.602 87.8396 147.515 89.5253C152.103 91.0892 157.402 91.1501 162.458 89.6878C174.03 86.3164 182.314 74.943 181.765 63.2447C181.156 50.3278 174.578 37.5733 164.204 29.1651C157.93 24.0674 150.296 20.7773 142.175 19.6399C133.912 18.4823 125.689 19.6602 118.421 23.0113C115.802 24.2299 113.305 25.6922 111.011 27.3779C109.285 28.6371 107.6 30.0588 106.869 31.9882C106.706 32.4147 106.239 32.6178 105.833 32.4553C105.407 32.2928 105.204 31.8257 105.366 31.4195C106.239 29.0839 108.229 27.3982 110.056 26.0578C112.452 24.3111 115.03 22.7879 117.751 21.5287C125.324 18.0355 133.851 16.8169 142.419 18.0151C150.844 19.1931 158.742 22.6051 165.239 27.8856C175.979 36.5781 182.76 49.7591 183.41 63.1431C183.694 69.2563 181.745 75.4711 177.908 80.65C174.132 85.7477 168.812 89.505 162.925 91.2313C160.346 91.9828 157.686 92.3687 155.088 92.3687Z" fill="#5D7183"/>
<path d="M108.349 102.483C99.4763 102.483 89.1626 101.162 82.016 97.3239C81.6303 97.1208 81.4678 96.6131 81.6912 96.2272C81.8942 95.8413 82.4018 95.6788 82.7875 95.9022C91.8019 100.756 106.217 101.426 115.82 100.533C116.185 100.492 116.531 100.452 116.713 100.309C116.957 100.127 117.079 99.7001 117.18 99.3143C117.871 96.6334 118.236 93.8713 118.256 91.1092C118.256 90.7842 118.459 90.4999 118.744 90.378C119.028 90.2562 119.373 90.3171 119.617 90.5202L125.119 95.557C125.484 95.9022 125.829 96.1866 126.134 96.2272C126.438 96.2678 126.824 96.0647 127.19 95.8819C130.621 94.0338 133.727 91.6575 136.407 88.7736C136.711 88.4486 137.219 88.4283 137.564 88.7329C137.889 89.0376 137.909 89.5453 137.605 89.8906C134.803 92.8964 131.555 95.3945 127.961 97.3239C127.393 97.6286 126.723 97.9535 125.951 97.852C125.098 97.7504 124.449 97.1614 124.022 96.7756L119.82 92.9167C119.678 95.2117 119.332 97.5067 118.764 99.7408C118.601 100.411 118.358 101.142 117.708 101.63C117.14 102.056 116.449 102.117 115.982 102.158C113.648 102.361 111.069 102.483 108.349 102.483Z" fill="#5D7183"/>
</svg>
