<svg width="354" height="224" viewBox="0 0 354 224" fill="none" xmlns="http://www.w3.org/2000/svg">
<path d="M28.6092 211.28H27.4075C27.0948 211.048 26.782 210.816 26.4693 210.567C26.2718 210.418 26.2388 210.119 26.387 209.92C26.5351 209.721 26.8314 209.688 27.0289 209.837C27.4898 210.202 27.9507 210.55 28.4281 210.882C28.5433 210.982 28.6092 211.131 28.6092 211.28Z" fill="#DFF2F5"/>
<path d="M24.3287 207.615C23.4562 206.852 22.5838 206.057 21.7608 205.244C21.5797 205.062 21.2835 205.078 21.1188 205.261C20.9378 205.443 20.9542 205.742 21.1353 205.907C21.9913 206.736 22.8637 207.549 23.7525 208.328C23.8348 208.411 23.9501 208.444 24.0488 208.444C24.1805 208.444 24.2957 208.395 24.3945 208.278C24.5262 208.063 24.5097 207.781 24.3287 207.615ZM336.206 203.984C336.009 203.835 335.712 203.868 335.564 204.067C334.856 205.012 334.132 205.941 333.408 206.852C333.243 207.051 333.276 207.333 333.474 207.499C333.556 207.565 333.655 207.599 333.754 207.599C333.885 207.599 334.017 207.549 334.116 207.433C334.856 206.521 335.581 205.576 336.288 204.631C336.437 204.415 336.404 204.133 336.206 203.984ZM19.3082 202.724C18.5181 201.861 17.7444 200.983 17.0037 200.087C16.8391 199.888 16.5593 199.872 16.3618 200.021C16.1642 200.187 16.1478 200.469 16.2959 200.668C17.0531 201.58 17.8432 202.475 18.6333 203.354C18.7156 203.453 18.8473 203.503 18.9625 203.503C19.0777 203.503 19.193 203.47 19.2753 203.387C19.4563 203.188 19.4728 202.906 19.3082 202.724ZM340.239 198.164C340.025 198.031 339.745 198.081 339.613 198.296C338.971 199.275 338.313 200.253 337.638 201.215C337.49 201.414 337.539 201.712 337.753 201.861C337.836 201.911 337.935 201.944 338.017 201.944C338.165 201.944 338.297 201.878 338.395 201.745C339.07 200.784 339.745 199.789 340.387 198.811C340.502 198.595 340.453 198.313 340.239 198.164ZM14.8309 197.318C14.1396 196.39 13.4647 195.411 12.8063 194.45C12.6581 194.234 12.3783 194.184 12.1808 194.317C11.9668 194.466 11.9174 194.748 12.0491 194.947C12.7075 195.925 13.3989 196.92 14.0902 197.865C14.1725 197.981 14.3207 198.048 14.4523 198.048C14.5511 198.048 14.6499 198.015 14.7322 197.948C14.9462 197.799 14.9791 197.517 14.8309 197.318ZM343.893 192.112C343.679 191.979 343.399 192.062 343.268 192.294C342.708 193.305 342.099 194.334 341.49 195.328C341.358 195.544 341.424 195.826 341.638 195.959C341.72 196.008 341.786 196.025 341.869 196.025C342.017 196.025 342.165 195.942 342.264 195.809C342.889 194.798 343.482 193.753 344.058 192.742C344.189 192.51 344.107 192.228 343.893 192.112ZM10.9462 191.465C10.3537 190.47 9.77755 189.425 9.23435 188.397C9.11913 188.165 8.8393 188.082 8.62531 188.198C8.39487 188.315 8.31256 188.596 8.42779 188.812C8.97098 189.857 9.56356 190.901 10.1561 191.929C10.2384 192.078 10.3866 192.161 10.5512 192.161C10.6335 192.161 10.7158 192.145 10.7816 192.095C11.0121 191.962 11.0779 191.681 10.9462 191.465ZM347.087 185.794C346.856 185.695 346.593 185.794 346.478 186.01C345.984 187.054 345.473 188.132 344.93 189.177C344.815 189.409 344.897 189.674 345.128 189.79C345.194 189.823 345.259 189.84 345.342 189.84C345.506 189.84 345.671 189.757 345.753 189.591C346.296 188.53 346.823 187.452 347.317 186.391C347.416 186.176 347.317 185.91 347.087 185.794ZM7.68706 185.23C7.20971 184.169 6.73235 183.091 6.30438 181.997C6.20562 181.765 5.94225 181.649 5.7118 181.748C5.48135 181.848 5.36613 182.113 5.46489 182.345C5.90933 183.44 6.37022 184.551 6.86404 185.612C6.94634 185.778 7.11095 185.877 7.27555 185.877C7.34139 185.877 7.40724 185.86 7.47308 185.827C7.70352 185.744 7.80229 185.463 7.68706 185.23ZM349.753 179.228C349.523 179.145 349.259 179.261 349.161 179.51C348.98 180.007 348.798 180.505 348.601 180.986C348.37 181.582 348.124 182.179 347.877 182.776C347.778 183.008 347.893 183.274 348.124 183.373C348.173 183.406 348.239 183.406 348.305 183.406C348.486 183.406 348.65 183.307 348.733 183.125C348.98 182.528 349.226 181.914 349.457 181.301C349.654 180.803 349.835 180.289 350.017 179.808C350.099 179.593 349.984 179.327 349.753 179.228ZM5.0863 178.697C4.70771 177.603 4.34558 176.475 4.03283 175.348C3.96699 175.099 3.70362 174.967 3.47317 175.033C3.22626 175.099 3.09458 175.364 3.16042 175.597C3.48963 176.741 3.85176 177.885 4.23035 178.996C4.2962 179.178 4.47726 179.311 4.65833 179.311C4.70771 179.311 4.75709 179.294 4.80647 179.278C5.03692 179.211 5.1686 178.946 5.0863 178.697ZM351.778 172.463C351.531 172.396 351.284 172.546 351.218 172.794C350.938 173.922 350.609 175.049 350.263 176.177C350.181 176.426 350.329 176.674 350.56 176.757C350.609 176.774 350.642 176.774 350.691 176.774C350.889 176.774 351.07 176.641 351.119 176.442C351.465 175.298 351.794 174.137 352.074 173.01C352.173 172.761 352.025 172.512 351.778 172.463ZM3.1275 171.949C2.86413 170.821 2.60076 169.66 2.38678 168.5C2.33739 168.251 2.10695 168.085 1.86004 168.135C1.61313 168.185 1.44853 168.417 1.49791 168.666C1.72835 169.826 1.97526 171.004 2.25509 172.148C2.30447 172.363 2.48554 172.496 2.69953 172.496C2.73245 172.496 2.76537 172.496 2.81475 172.479C3.02874 172.43 3.17688 172.197 3.1275 171.949ZM353.078 165.499C352.831 165.465 352.601 165.648 352.568 165.897C352.42 167.041 352.222 168.201 351.992 169.362C351.942 169.611 352.107 169.859 352.354 169.893C352.387 169.893 352.42 169.909 352.436 169.909C352.65 169.909 352.848 169.76 352.881 169.544C353.111 168.367 353.309 167.19 353.457 166.029C353.506 165.764 353.325 165.532 353.078 165.499ZM1.7942 165.034C1.62959 163.89 1.48145 162.713 1.36622 161.536C1.3333 161.287 1.11932 161.105 0.872408 161.121C0.6255 161.154 0.444434 161.37 0.460895 161.619C0.576118 162.796 0.724263 163.99 0.905329 165.15C0.93825 165.382 1.13578 165.548 1.34976 165.548C1.36622 165.548 1.39914 165.548 1.4156 165.548C1.66251 165.515 1.84358 165.283 1.7942 165.034ZM353.539 158.418C353.292 158.418 353.078 158.617 353.078 158.866C353.062 159.347 353.062 159.828 353.045 160.325C353.029 161.005 352.979 161.701 352.93 162.398C352.914 162.647 353.095 162.879 353.358 162.895C353.374 162.895 353.374 162.895 353.391 162.895C353.621 162.895 353.835 162.713 353.852 162.464C353.901 161.768 353.934 161.055 353.967 160.358C353.983 159.861 354 159.38 354 158.899C354 158.634 353.786 158.435 353.539 158.418ZM0.921789 154.489C0.921789 154.24 0.707802 154.041 0.460895 154.041C0.213987 154.041 0.0164605 154.256 0.0164605 154.505C0.0493816 155.699 0.0987631 156.893 0.164605 158.07C0.181066 158.319 0.378592 158.501 0.6255 158.501H0.658421C0.905329 158.485 1.10285 158.269 1.08639 158.02C1.00409 156.86 0.95471 155.666 0.921789 154.489ZM353.885 151.769C353.868 151.52 353.654 151.322 353.407 151.338C353.16 151.355 352.963 151.57 352.979 151.819C353.045 152.963 353.078 154.157 353.095 155.351C353.095 155.6 353.309 155.798 353.556 155.798C353.802 155.798 354.016 155.583 354 155.334C353.984 154.124 353.951 152.93 353.885 151.769ZM0.543197 146.961C0.296289 146.961 0.0823026 147.16 0.0658421 147.408C0.032921 148.569 0 149.763 0 150.957C0 151.205 0.197526 151.421 0.444434 151.421C0.691342 151.421 0.905329 151.222 0.905329 150.973C0.921789 149.779 0.93825 148.602 0.971171 147.441C0.987631 147.176 0.790105 146.961 0.543197 146.961ZM353.21 144.672C353.177 144.424 352.947 144.241 352.7 144.291C352.453 144.324 352.272 144.556 352.321 144.805C352.486 145.933 352.634 147.11 352.733 148.304C352.749 148.536 352.947 148.718 353.193 148.718C353.21 148.718 353.226 148.718 353.243 148.718C353.49 148.685 353.671 148.47 353.654 148.221C353.506 147.01 353.374 145.833 353.21 144.672ZM0.95471 139.88C0.707802 139.864 0.477355 140.046 0.460895 140.295C0.362131 141.456 0.279829 142.649 0.213987 143.843C0.197526 144.092 0.395053 144.308 0.64196 144.324C0.658421 144.324 0.658421 144.324 0.674881 144.324C0.921789 144.324 1.11932 144.142 1.13578 143.893C1.20162 142.699 1.28392 141.522 1.36622 140.378C1.38268 140.129 1.20162 139.897 0.95471 139.88ZM352.601 141.157C352.37 139.98 352.091 138.803 351.794 137.675C351.728 137.426 351.482 137.277 351.235 137.343C350.988 137.41 350.84 137.658 350.905 137.907C351.202 139.018 351.465 140.162 351.696 141.34C351.745 141.555 351.926 141.704 352.14 141.704C352.173 141.704 352.206 141.704 352.239 141.688C352.486 141.655 352.65 141.406 352.601 141.157ZM1.76128 132.833C1.51437 132.8 1.28392 132.966 1.251 133.215C1.08639 134.359 0.93825 135.553 0.806566 136.746C0.773645 136.995 0.95471 137.227 1.20162 137.26C1.21808 137.26 1.23454 137.26 1.251 137.26C1.48145 137.26 1.67897 137.078 1.69543 136.846C1.82712 135.669 1.97526 134.491 2.13987 133.347C2.17279 133.115 2.00818 132.866 1.76128 132.833ZM350.774 134.259C350.395 133.115 349.967 132.004 349.523 130.91C349.424 130.678 349.161 130.562 348.93 130.661C348.7 130.761 348.584 131.026 348.683 131.258C349.128 132.319 349.539 133.43 349.918 134.541C349.984 134.74 350.165 134.856 350.346 134.856C350.395 134.856 350.445 134.856 350.494 134.823C350.724 134.757 350.856 134.508 350.774 134.259ZM3.0452 125.869C2.79829 125.819 2.55138 125.969 2.502 126.217C2.25509 127.345 2.00818 128.522 1.7942 129.716C1.74482 129.965 1.90942 130.213 2.15633 130.247C2.18925 130.247 2.20571 130.247 2.23863 130.247C2.45262 130.247 2.65014 130.097 2.68306 129.865C2.89705 128.688 3.1275 127.527 3.37441 126.416C3.45671 126.168 3.2921 125.919 3.0452 125.869ZM348.025 127.676C347.498 126.632 346.922 125.571 346.296 124.543C346.165 124.327 345.885 124.261 345.671 124.393C345.457 124.526 345.391 124.808 345.523 125.023C346.132 126.035 346.691 127.063 347.218 128.091C347.301 128.257 347.465 128.34 347.63 128.34C347.696 128.34 347.761 128.323 347.827 128.29C348.041 128.174 348.14 127.892 348.025 127.676ZM4.93816 119.038C4.69125 118.955 4.44434 119.087 4.36204 119.336C3.99991 120.447 3.6707 121.591 3.35795 122.752C3.2921 123.001 3.44025 123.249 3.68716 123.316C3.72008 123.332 3.76946 123.332 3.80238 123.332C3.99991 123.332 4.18097 123.2 4.24681 123.001C4.55956 121.856 4.88877 120.712 5.23445 119.618C5.30029 119.386 5.1686 119.12 4.93816 119.038ZM344.371 121.541C343.729 120.596 343.037 119.651 342.28 118.656C342.132 118.457 341.836 118.424 341.638 118.573C341.441 118.723 341.408 119.021 341.556 119.22C342.313 120.198 342.988 121.127 343.613 122.055C343.696 122.188 343.844 122.254 343.992 122.254C344.074 122.254 344.173 122.221 344.255 122.171C344.469 122.039 344.519 121.757 344.371 121.541ZM340.074 115.887C339.482 115.158 338.889 114.461 338.33 113.781L337.819 113.168C337.655 112.969 337.375 112.952 337.177 113.118C336.98 113.284 336.963 113.566 337.128 113.765L337.638 114.378C338.198 115.058 338.79 115.754 339.383 116.484C339.465 116.6 339.597 116.65 339.729 116.65C339.827 116.65 339.926 116.617 340.025 116.55C340.206 116.368 340.239 116.086 340.074 115.887ZM7.52246 112.455C7.29201 112.355 7.02864 112.455 6.91342 112.687C6.43606 113.748 5.97517 114.859 5.5472 115.987C5.44843 116.219 5.58012 116.484 5.81056 116.584C5.85995 116.6 5.92579 116.617 5.97517 116.617C6.15623 116.617 6.3373 116.501 6.40314 116.318C6.83112 115.207 7.27555 114.113 7.75291 113.068C7.85167 112.836 7.75291 112.554 7.52246 112.455ZM335.581 110.432C334.774 109.404 334.083 108.492 333.474 107.63C333.326 107.414 333.046 107.364 332.832 107.514C332.618 107.663 332.568 107.945 332.717 108.16C333.326 109.039 334.033 109.968 334.856 111.012C334.939 111.128 335.087 111.178 335.219 111.178C335.317 111.178 335.416 111.145 335.498 111.079C335.712 110.929 335.745 110.631 335.581 110.432ZM10.9133 106.253C10.6993 106.121 10.4195 106.187 10.2878 106.403C9.66233 107.397 9.05329 108.426 8.49363 109.487C8.37841 109.702 8.46071 109.984 8.6747 110.117C8.74054 110.15 8.82284 110.167 8.88868 110.167C9.05329 110.167 9.20143 110.084 9.28373 109.918C9.84339 108.873 10.436 107.862 11.045 106.883C11.1767 106.668 11.1273 106.386 10.9133 106.253ZM331.63 104.678C331.054 103.634 330.56 102.605 330.132 101.544C330.033 101.312 329.77 101.196 329.54 101.296C329.309 101.395 329.194 101.66 329.293 101.892C329.737 103.003 330.231 104.065 330.84 105.142C330.922 105.292 331.087 105.375 331.235 105.375C331.317 105.375 331.383 105.358 331.449 105.308C331.663 105.176 331.745 104.91 331.63 104.678ZM15.1437 100.599C14.9462 100.433 14.6663 100.45 14.5017 100.649C13.7281 101.544 12.9874 102.489 12.2795 103.451C12.1314 103.65 12.1808 103.949 12.3783 104.098C12.4606 104.164 12.5594 104.181 12.6581 104.181C12.7898 104.181 12.938 104.114 13.0203 103.998C13.7116 103.053 14.4359 102.141 15.1931 101.262C15.3577 101.063 15.3412 100.765 15.1437 100.599ZM20.1641 95.6413C19.9995 95.4423 19.7032 95.4257 19.5222 95.5915C18.6168 96.3875 17.7444 97.1999 16.9214 98.029C16.7404 98.2114 16.7404 98.4933 16.9214 98.6757C17.0037 98.7586 17.1189 98.8083 17.2506 98.8083C17.3659 98.8083 17.4811 98.7586 17.5798 98.6757C18.3864 97.8632 19.2423 97.0507 20.1312 96.2714C20.2958 96.1221 20.3287 95.8237 20.1641 95.6413ZM329.293 94.7956C329.309 94.5469 329.112 94.3314 328.865 94.3148C328.618 94.2982 328.404 94.4972 328.387 94.7459C328.338 95.7076 328.305 96.5035 328.305 97.1668C328.305 97.5979 328.322 97.9958 328.338 98.344C328.354 98.5928 328.552 98.7752 328.799 98.7752C328.815 98.7752 328.815 98.7752 328.832 98.7752C329.079 98.7586 329.276 98.543 329.26 98.2943C329.243 97.9627 329.227 97.5979 329.227 97.1833C329.21 96.5201 329.243 95.7408 329.293 94.7956ZM25.7607 91.3467C25.6126 91.1312 25.3327 91.0814 25.1188 91.2307C24.0982 91.9436 23.16 92.6401 22.2546 93.3365C22.0571 93.4857 22.0242 93.7842 22.1723 93.9832C22.2546 94.0992 22.4028 94.1656 22.5345 94.1656C22.6332 94.1656 22.732 94.1324 22.8143 94.0661C23.7032 93.3862 24.6249 92.7064 25.6455 91.9934C25.843 91.8442 25.8924 91.5457 25.7607 91.3467ZM329.326 87.2345C329.079 87.218 328.865 87.4169 328.848 87.6657C328.782 88.9424 328.7 90.1529 328.618 91.1975C328.601 91.4462 328.782 91.6783 329.046 91.6949C329.062 91.6949 329.062 91.6949 329.079 91.6949C329.309 91.6949 329.523 91.5125 329.54 91.2638C329.622 90.2192 329.704 88.9922 329.77 87.7154C329.77 87.4667 329.573 87.2511 329.326 87.2345ZM31.67 87.4833C31.5384 87.2677 31.2585 87.2014 31.0445 87.334C30.1392 87.9144 29.1022 88.5611 28.0652 89.2409C27.8512 89.3735 27.7854 89.672 27.9335 89.871C28.0158 90.0036 28.164 90.0865 28.3121 90.0865C28.3944 90.0865 28.4767 90.0534 28.559 90.0036C29.5796 89.3404 30.6166 88.6771 31.5219 88.1134C31.7359 87.9807 31.8017 87.6988 31.67 87.4833ZM37.53 83.5701C37.3818 83.3711 37.102 83.3213 36.888 83.4706C36.065 84.0675 35.1432 84.6976 33.991 85.4437C33.777 85.5764 33.7111 85.8749 33.8593 86.0738C33.9416 86.2065 34.0897 86.2894 34.2379 86.2894C34.3202 86.2894 34.4025 86.2728 34.4848 86.2231C35.637 85.4603 36.5753 84.8302 37.4148 84.2167C37.6288 84.0675 37.6781 83.7856 37.53 83.5701ZM329.852 80.5854C329.836 80.3367 329.638 80.1377 329.375 80.1377C329.128 80.1543 328.931 80.3533 328.931 80.6186C328.964 81.3647 328.964 82.1441 328.964 82.9234C328.964 83.3213 328.964 83.7359 328.947 84.1338C328.947 84.3825 329.145 84.5981 329.391 84.5981C329.638 84.5981 329.836 84.3991 329.852 84.1504C329.852 83.7359 329.869 83.3213 329.869 82.9234C329.885 82.1275 329.885 81.3482 329.852 80.5854ZM42.6657 78.7615C42.4681 78.5956 42.1883 78.6122 42.0237 78.8112C41.7603 79.1263 41.4805 79.4413 41.2007 79.7398C40.7233 80.2538 40.1801 80.7844 39.604 81.2984C39.423 81.4642 39.4065 81.7627 39.5711 81.9451C39.6534 82.0446 39.7851 82.0943 39.9168 82.0943C40.032 82.0943 40.1308 82.0612 40.2131 81.9782C40.8056 81.4476 41.3653 80.9005 41.8591 80.3533C42.1389 80.0382 42.4352 79.7232 42.7151 79.3916C42.8797 79.2092 42.8632 78.9273 42.6657 78.7615ZM329.622 77.0204C329.507 75.81 329.342 74.6161 329.145 73.472C329.095 73.2233 328.865 73.0575 328.618 73.0906C328.371 73.1404 328.206 73.3725 328.239 73.6212C328.437 74.7322 328.601 75.9095 328.717 77.1033C328.75 77.3355 328.947 77.5179 329.178 77.5179C329.194 77.5179 329.21 77.5179 329.227 77.5179C329.457 77.5013 329.638 77.2691 329.622 77.0204ZM46.682 72.9414C46.4681 72.8088 46.1882 72.8751 46.0565 73.0906C45.3981 74.185 44.7726 75.1467 44.1471 76.0421C43.999 76.2411 44.0484 76.5396 44.2623 76.6888C44.3446 76.7385 44.4269 76.7717 44.5257 76.7717C44.6739 76.7717 44.8055 76.7054 44.9043 76.5727C45.5463 75.6608 46.1718 74.6824 46.8466 73.5715C46.9619 73.3559 46.896 73.0741 46.682 72.9414ZM50.1223 66.7731C49.9083 66.6571 49.6285 66.74 49.4968 66.9555L49.2663 67.3867C48.789 68.2655 48.2952 69.1774 47.8014 70.0563C47.6697 70.2718 47.752 70.5537 47.9824 70.6863C48.0483 70.7195 48.1306 70.7527 48.2129 70.7527C48.3775 70.7527 48.5256 70.6698 48.6079 70.5205C49.1017 69.6417 49.5956 68.7297 50.0729 67.8344L50.3034 67.4032C50.435 67.1711 50.3527 66.8892 50.1223 66.7731ZM328.371 69.9733C328.289 69.6915 328.223 69.4262 328.141 69.1443C327.894 68.2655 327.597 67.4032 327.285 66.541C327.202 66.3089 326.939 66.1762 326.692 66.2757C326.462 66.3586 326.33 66.6239 326.429 66.8726C326.741 67.7017 327.021 68.5473 327.268 69.4096C327.35 69.6749 327.416 69.9402 327.499 70.2221C327.548 70.421 327.729 70.5703 327.943 70.5703C327.976 70.5703 328.025 70.5703 328.058 70.5537C328.289 70.4708 328.437 70.2221 328.371 69.9733ZM53.6448 60.6215C53.4309 60.4888 53.151 60.5551 53.0193 60.7707C52.4432 61.6992 51.8671 62.7107 51.2251 63.8382C51.0935 64.0538 51.1758 64.3357 51.4062 64.4683C51.472 64.5015 51.5544 64.5347 51.6367 64.5347C51.8013 64.5347 51.9494 64.4518 52.0317 64.3025C52.6572 63.175 53.2498 62.1801 53.8094 61.2681C53.9247 61.036 53.8588 60.7541 53.6448 60.6215ZM325.869 63.2579C325.342 62.1801 324.75 61.1355 324.124 60.124C323.992 59.9085 323.713 59.8421 323.499 59.9748C323.285 60.1074 323.219 60.3893 323.35 60.6049C323.96 61.5832 324.536 62.6112 325.046 63.6558C325.128 63.8217 325.293 63.9046 325.457 63.9046C325.523 63.9046 325.589 63.888 325.655 63.8548C325.902 63.7719 325.984 63.49 325.869 63.2579ZM57.6941 54.8346C57.4966 54.6688 57.2168 54.7019 57.0522 54.9175C56.3444 55.8294 55.6366 56.7912 54.9452 57.786C54.7971 58.0016 54.8629 58.2835 55.0604 58.4327C55.1427 58.4825 55.2251 58.5156 55.3238 58.5156C55.472 58.5156 55.6036 58.4493 55.7024 58.3167C56.3773 57.3383 57.0686 56.3766 57.7764 55.4978C57.9246 55.2823 57.8917 55.0004 57.6941 54.8346ZM322.083 57.1891C321.968 57.0399 321.853 56.9072 321.754 56.758C321.128 55.9787 320.453 55.2159 319.746 54.4698C319.565 54.2874 319.285 54.2874 319.104 54.4532C318.923 54.6356 318.923 54.9175 319.087 55.0999C319.779 55.8129 320.437 56.559 321.046 57.3218C321.161 57.4544 321.26 57.6036 321.375 57.7363C321.474 57.8524 321.606 57.9187 321.737 57.9187C321.836 57.9187 321.935 57.8855 322.017 57.8192C322.198 57.6866 322.231 57.3881 322.083 57.1891ZM62.5006 49.6778C62.336 49.4954 62.0397 49.4788 61.8586 49.6612C61.0027 50.4737 60.1632 51.3193 59.3566 52.1981C59.192 52.3805 59.192 52.679 59.3896 52.8448C59.4719 52.9277 59.5871 52.9609 59.7023 52.9609C59.834 52.9609 59.9492 52.9111 60.0315 52.8116C60.8216 51.9494 61.6447 51.1203 62.4841 50.3244C62.6652 50.142 62.6817 49.8602 62.5006 49.6778ZM317.145 52.0323C316.256 51.2696 315.318 50.5234 314.347 49.8104C314.149 49.6612 313.853 49.7109 313.705 49.9099C313.556 50.1089 313.606 50.4073 313.803 50.5566C314.758 51.253 315.68 51.9826 316.536 52.7287C316.618 52.8116 316.733 52.8448 316.832 52.8448C316.964 52.8448 317.095 52.7951 317.178 52.679C317.359 52.48 317.342 52.1981 317.145 52.0323ZM311.384 47.8372C310.495 47.29 309.557 46.7594 308.602 46.262C308.503 46.2123 308.388 46.1459 308.289 46.0962C308.059 45.9801 307.795 46.063 307.68 46.2952C307.565 46.5273 307.647 46.7926 307.878 46.9087C307.976 46.9584 308.092 47.0247 308.19 47.0745C309.129 47.5719 310.034 48.0859 310.923 48.6331C311.005 48.6829 311.071 48.6995 311.153 48.6995C311.301 48.6995 311.45 48.6166 311.548 48.4839C311.68 48.2518 311.598 47.9699 311.384 47.8372ZM68.0643 45.3334C67.9161 45.1179 67.6363 45.0681 67.4388 45.2008C66.4511 45.864 65.4799 46.577 64.5746 47.3066C64.3771 47.4724 64.3442 47.7543 64.4923 47.9533C64.5746 48.0694 64.7228 48.1357 64.8545 48.1357C64.9532 48.1357 65.052 48.1025 65.1343 48.0362C66.0396 47.3232 66.9779 46.6268 67.949 45.9635C68.1466 45.8309 68.1959 45.549 68.0643 45.3334ZM305.112 44.521C304.026 44.0235 302.939 43.5427 301.87 43.095C301.639 42.9955 301.376 43.1115 301.277 43.3437C301.178 43.5758 301.293 43.8411 301.524 43.9406C302.577 44.3717 303.664 44.8526 304.734 45.35C304.799 45.3832 304.865 45.3998 304.931 45.3998C305.096 45.3998 305.26 45.3003 305.343 45.1345C305.441 44.9023 305.343 44.6204 305.112 44.521ZM74.1876 41.8679C74.0723 41.6358 73.809 41.5529 73.5785 41.6524C72.5086 42.183 71.4551 42.7467 70.451 43.3271C70.237 43.4597 70.1547 43.725 70.2864 43.9572C70.3687 44.1064 70.5169 44.1893 70.6815 44.1893C70.7638 44.1893 70.8296 44.1727 70.9119 44.123C71.8996 43.5592 72.9366 42.9955 73.99 42.4814C74.204 42.3654 74.3028 42.0835 74.1876 41.8679ZM298.561 41.8348C297.442 41.4368 296.306 41.072 295.187 40.757C294.94 40.6907 294.693 40.8233 294.627 41.072C294.561 41.3208 294.693 41.5695 294.94 41.6358C296.042 41.9508 297.162 42.3156 298.265 42.697C298.314 42.7136 298.363 42.7302 298.413 42.7302C298.594 42.7302 298.775 42.6141 298.841 42.4151C298.923 42.1664 298.808 41.9177 298.561 41.8348ZM80.7224 39.2315C80.6401 38.9828 80.3932 38.8667 80.1463 38.933C79.027 39.2978 77.9077 39.7124 76.8213 40.1766C76.5908 40.2761 76.4756 40.5414 76.5743 40.7736C76.6402 40.956 76.8213 41.0555 77.0023 41.0555C77.0682 41.0555 77.1175 41.0389 77.1834 41.0223C78.2533 40.5746 79.3562 40.1766 80.459 39.8118C80.6566 39.7455 80.7882 39.4802 80.7224 39.2315ZM291.763 39.845C290.627 39.5797 289.458 39.3476 288.29 39.1486C288.043 39.0989 287.812 39.2812 287.763 39.53C287.713 39.7787 287.895 40.0108 288.141 40.0606C289.294 40.2595 290.446 40.4917 291.565 40.757C291.598 40.757 291.631 40.7736 291.664 40.7736C291.878 40.7736 292.059 40.6243 292.108 40.4088C292.158 40.1601 292.01 39.9113 291.763 39.845ZM284.783 38.6346C283.648 38.5019 282.495 38.3858 281.261 38.2864C281.014 38.2698 280.784 38.4522 280.767 38.7175C280.751 38.9662 280.932 39.1983 281.195 39.2149C282.43 39.3144 283.565 39.4139 284.685 39.5465C284.701 39.5465 284.718 39.5465 284.734 39.5465C284.965 39.5465 285.162 39.3807 285.179 39.1486C285.211 38.8999 285.03 38.6677 284.783 38.6346ZM277.738 38.0874C276.998 38.0542 276.273 38.0211 275.566 37.9879H275.516C275.072 37.9713 274.644 37.9547 274.232 37.9382C273.985 37.9216 273.771 38.1205 273.755 38.3693C273.738 38.618 273.936 38.8335 274.183 38.8501C274.611 38.8667 275.039 38.8833 275.483 38.8999H275.533C276.24 38.933 276.965 38.9662 277.705 38.9994H277.722C277.969 38.9994 278.166 38.8004 278.183 38.5682C278.183 38.3195 277.985 38.0874 277.738 38.0874ZM87.5535 37.5568C87.5041 37.3081 87.2737 37.1423 87.0268 37.192C85.8416 37.4076 84.6729 37.6729 83.5701 37.9547C83.3232 38.0211 83.175 38.2698 83.2409 38.5185C83.2902 38.7341 83.4713 38.8667 83.6853 38.8667C83.7182 38.8667 83.7676 38.8667 83.8005 38.8501C84.8869 38.5682 86.0391 38.3195 87.2078 38.104C87.4218 38.0542 87.5864 37.8055 87.5535 37.5568ZM270.726 37.7226C269.409 37.6231 268.29 37.4739 267.286 37.2915C267.039 37.2417 266.792 37.4076 266.759 37.6563C266.71 37.905 266.874 38.1371 267.121 38.1869C268.158 38.3693 269.311 38.5185 270.66 38.6346C270.677 38.6346 270.693 38.6346 270.693 38.6346C270.924 38.6346 271.121 38.4522 271.154 38.22C271.154 37.9547 270.973 37.7392 270.726 37.7226ZM94.0225 36.2137C92.7386 36.3463 91.6028 36.479 90.5164 36.6282C90.2695 36.6614 90.0884 36.8935 90.1214 37.1423C90.1543 37.3744 90.3518 37.5402 90.5658 37.5402C90.5823 37.5402 90.6152 37.5402 90.6316 37.5402C91.7016 37.391 92.8538 37.2583 94.1048 37.1423C94.3517 37.1091 94.5328 36.8935 94.5163 36.6448C94.4999 36.3795 94.2694 36.1971 94.0225 36.2137ZM263.961 36.3795C263.467 36.1805 262.973 35.965 262.496 35.7328C261.936 35.451 261.393 35.1525 260.85 34.854C260.636 34.7379 260.356 34.8043 260.224 35.0364C260.109 35.252 260.175 35.5339 260.405 35.6665C260.949 35.965 261.508 36.2634 262.068 36.5619C262.562 36.8106 263.089 37.0428 263.615 37.2583C263.665 37.2749 263.73 37.2915 263.78 37.2915C263.961 37.2915 264.142 37.1754 264.208 36.993C264.323 36.7277 264.208 36.4624 263.961 36.3795ZM101.051 35.6168C100.343 35.6831 99.652 35.7328 98.9442 35.7826H98.9277C98.4668 35.8157 98.0059 35.8655 97.545 35.8986C97.2981 35.9152 97.1006 36.1474 97.1335 36.3961C97.15 36.6448 97.3475 36.8272 97.5944 36.8272C97.6109 36.8272 97.6109 36.8272 97.6273 36.8272C98.0882 36.794 98.5491 36.7443 99.01 36.7111H99.0265C99.7343 36.6614 100.442 36.5951 101.133 36.5453C101.38 36.5287 101.578 36.2966 101.545 36.0479C101.512 35.7826 101.298 35.6002 101.051 35.6168ZM108.524 35.252C108.491 35.0033 108.261 34.8209 108.014 34.8706C106.944 35.0364 105.808 35.1691 104.541 35.3017C104.294 35.3349 104.113 35.5504 104.129 35.7992C104.162 36.0313 104.36 36.2137 104.574 36.2137C104.59 36.2137 104.607 36.2137 104.623 36.2137C105.891 36.081 107.043 35.9318 108.129 35.766C108.393 35.7328 108.557 35.5007 108.524 35.252ZM115.405 33.7265C115.339 33.4778 115.076 33.3451 114.845 33.4114C113.759 33.7265 112.623 34.0084 111.454 34.2405C111.207 34.2903 111.043 34.539 111.092 34.7877C111.141 35.0033 111.323 35.1525 111.536 35.1525C111.569 35.1525 111.602 35.1525 111.635 35.1359C112.82 34.8872 113.973 34.6053 115.076 34.2903C115.322 34.2239 115.471 33.9752 115.405 33.7265ZM257.887 33.0467C256.916 32.4 255.961 31.7201 255.056 31.0071C254.858 30.8579 254.578 30.8911 254.414 31.0901C254.266 31.289 254.299 31.5709 254.496 31.7367C255.434 32.4663 256.406 33.1627 257.393 33.8094C257.475 33.8591 257.558 33.8923 257.64 33.8923C257.788 33.8923 257.936 33.8094 258.019 33.6767C258.15 33.4612 258.101 33.1793 257.887 33.0467ZM121.972 31.2227C121.874 30.9906 121.594 30.8911 121.363 30.9906C120.31 31.4714 119.224 31.9357 118.154 32.3337C117.923 32.4166 117.791 32.6819 117.89 32.9306C117.956 33.113 118.137 33.229 118.318 33.229C118.368 33.229 118.417 33.2125 118.483 33.1959C119.586 32.7813 120.689 32.3337 121.758 31.8196C121.972 31.7201 122.071 31.4548 121.972 31.2227ZM128.129 27.7904C127.997 27.5748 127.717 27.5085 127.503 27.6245C126.697 28.1054 125.841 28.6028 124.985 29.1003C124.82 29.1998 124.639 29.2993 124.474 29.3988C124.26 29.5148 124.178 29.7967 124.293 30.0288C124.376 30.1781 124.54 30.261 124.688 30.261C124.771 30.261 124.837 30.2444 124.902 30.2112C125.084 30.1118 125.248 30.0123 125.429 29.9128C126.302 29.4153 127.141 28.9179 127.964 28.4205C128.178 28.2878 128.26 28.0059 128.129 27.7904ZM252.373 28.7687C251.55 28.0225 250.727 27.2266 249.854 26.3478C249.673 26.1654 249.393 26.1654 249.212 26.3478C249.031 26.5302 249.031 26.8121 249.212 26.9945C250.101 27.8899 250.941 28.7023 251.78 29.4651C251.862 29.548 251.978 29.5811 252.076 29.5811C252.208 29.5811 252.323 29.5314 252.422 29.4319C252.57 29.2164 252.554 28.9345 252.373 28.7687ZM134.038 23.9435C133.89 23.7279 133.61 23.6782 133.413 23.8274C132.441 24.5073 131.487 25.1373 130.499 25.7674C130.285 25.9001 130.219 26.182 130.367 26.3975C130.45 26.5302 130.598 26.6131 130.746 26.6131C130.828 26.6131 130.911 26.5965 130.993 26.5468C131.98 25.9001 132.952 25.2534 133.939 24.5736C134.12 24.4409 134.17 24.159 134.038 23.9435ZM247.435 23.7777C246.924 23.2139 246.398 22.6336 245.887 22.0864C245.607 21.7879 245.344 21.4729 245.064 21.1744C244.9 20.992 244.603 20.9754 244.422 21.1412C244.241 21.307 244.225 21.6055 244.389 21.7879C244.669 22.0864 244.949 22.4014 245.212 22.6999C245.723 23.2636 246.249 23.844 246.76 24.4078C246.842 24.5073 246.974 24.557 247.089 24.557C247.204 24.557 247.303 24.5238 247.402 24.4409C247.599 24.2585 247.599 23.9601 247.435 23.7777ZM139.733 19.7981C139.585 19.5992 139.289 19.5494 139.091 19.6987C138.219 20.3619 137.264 21.0583 136.26 21.8045C136.063 21.9537 136.013 22.2356 136.161 22.4512C136.244 22.5838 136.392 22.6336 136.54 22.6336C136.639 22.6336 136.721 22.6004 136.803 22.5507C137.807 21.8211 138.762 21.1081 139.635 20.4448C139.832 20.279 139.882 19.9971 139.733 19.7981ZM242.645 18.5711C241.756 17.6426 240.949 16.8135 240.143 16.0508C239.961 15.8684 239.665 15.8849 239.501 16.0673C239.32 16.2497 239.336 16.5482 239.517 16.714C240.307 17.4768 241.114 18.2892 241.986 19.2012C242.068 19.3007 242.2 19.3504 242.315 19.3504C242.431 19.3504 242.546 19.3007 242.628 19.2178C242.826 19.0354 242.826 18.7535 242.645 18.5711ZM145.396 15.6031C145.248 15.4041 144.968 15.3543 144.754 15.487C143.881 16.1171 142.976 16.7803 141.906 17.5762C141.709 17.7255 141.659 18.0074 141.807 18.2229C141.89 18.339 142.038 18.4053 142.17 18.4053C142.268 18.4053 142.367 18.3721 142.449 18.3224C143.519 17.5265 144.425 16.8632 145.281 16.2497C145.495 16.1005 145.544 15.802 145.396 15.6031ZM237.509 13.663C236.604 12.9003 235.649 12.1541 234.711 11.4577C234.513 11.3085 234.217 11.3582 234.069 11.5572C233.92 11.7562 233.97 12.0546 234.167 12.2039C235.089 12.8837 236.027 13.6133 236.916 14.3595C236.999 14.4258 237.114 14.4589 237.213 14.4589C237.344 14.4589 237.476 14.4092 237.558 14.2931C237.723 14.1273 237.69 13.8289 237.509 13.663ZM151.272 11.6899C151.141 11.4743 150.861 11.408 150.647 11.5406C149.643 12.1707 148.671 12.8008 147.684 13.4641C147.47 13.6133 147.42 13.8952 147.552 14.0942C147.634 14.2268 147.783 14.2931 147.931 14.2931C148.013 14.2931 148.112 14.26 148.178 14.2102C149.149 13.547 150.12 12.9169 151.124 12.2868C151.338 12.1873 151.404 11.9054 151.272 11.6899ZM157.363 8.14145C157.247 7.90931 156.968 7.8264 156.737 7.95905C156.589 8.04196 156.424 8.12487 156.276 8.20777C155.387 8.70521 154.515 9.20266 153.659 9.7001C153.445 9.83275 153.363 10.1146 153.494 10.3302C153.577 10.4794 153.725 10.5623 153.889 10.5623C153.972 10.5623 154.054 10.5457 154.12 10.496C154.959 9.99856 155.832 9.50112 156.721 9.00368C156.869 8.92077 157.017 8.83786 157.165 8.75496C157.396 8.63889 157.478 8.35701 157.363 8.14145ZM231.764 9.46796C230.777 8.85445 229.74 8.24094 228.702 7.67717C228.472 7.5611 228.209 7.64401 228.077 7.85957C227.962 8.0917 228.044 8.35701 228.258 8.48966C229.295 9.05342 230.299 9.63377 231.27 10.2473C231.353 10.297 231.435 10.3136 231.517 10.3136C231.665 10.3136 231.814 10.2307 231.912 10.098C232.044 9.89907 231.978 9.60061 231.764 9.46796ZM163.832 5.37236C163.749 5.14022 163.486 5.00757 163.255 5.09048C162.103 5.50501 161 5.95271 159.947 6.4004C159.716 6.49989 159.618 6.7652 159.716 6.99733C159.799 7.17973 159.963 7.27922 160.128 7.27922C160.194 7.27922 160.243 7.26264 160.309 7.24605C161.33 6.79836 162.416 6.36724 163.552 5.95271C163.799 5.8698 163.914 5.6045 163.832 5.37236ZM225.526 6.08536C224.489 5.6045 223.386 5.12364 222.266 4.67594C222.036 4.57646 221.773 4.69253 221.674 4.92466C221.575 5.1568 221.69 5.4221 221.921 5.52159C223.024 5.96929 224.094 6.43357 225.131 6.91443C225.196 6.94759 225.262 6.96417 225.328 6.96417C225.509 6.96417 225.674 6.86468 225.74 6.69887C225.855 6.46673 225.756 6.20143 225.526 6.08536ZM170.58 3.36602C170.515 3.1173 170.268 2.96806 170.021 3.03439C168.852 3.33285 167.7 3.6479 166.613 3.97953C166.366 4.04585 166.235 4.31115 166.301 4.54329C166.366 4.74227 166.548 4.87492 166.745 4.87492C166.794 4.87492 166.827 4.87492 166.877 4.85834C167.963 4.52671 169.099 4.21167 170.251 3.92978C170.498 3.86346 170.646 3.61474 170.58 3.36602ZM218.958 3.43234C218.513 3.28311 218.053 3.1173 217.592 2.96806C216.95 2.75251 216.275 2.55353 215.567 2.35455C215.32 2.28823 215.073 2.43746 215.007 2.6696C214.941 2.91832 215.09 3.16704 215.32 3.23337C215.995 3.41576 216.67 3.63132 217.295 3.83029C217.756 3.97953 218.201 4.12876 218.645 4.29457C218.695 4.31115 218.744 4.32774 218.793 4.32774C218.974 4.32774 219.155 4.21167 219.221 4.01269C219.32 3.76397 219.205 3.51525 218.958 3.43234ZM177.477 1.94002C177.428 1.6913 177.198 1.52549 176.951 1.55865C175.782 1.75762 174.613 1.98976 173.477 2.2219C173.231 2.27165 173.066 2.52037 173.132 2.76909C173.181 2.98465 173.362 3.13388 173.576 3.13388C173.609 3.13388 173.642 3.13388 173.675 3.1173C174.794 2.88516 175.963 2.65302 177.115 2.45404C177.346 2.43746 177.51 2.18874 177.477 1.94002ZM212.127 1.5089C211.007 1.27676 209.839 1.07779 208.637 0.895393C208.39 0.862231 208.16 1.02804 208.11 1.27676C208.077 1.52549 208.242 1.75762 208.489 1.80737C209.674 1.98976 210.826 2.18874 211.929 2.42088C211.962 2.42088 211.995 2.43746 212.028 2.43746C212.242 2.43746 212.423 2.28823 212.472 2.07267C212.538 1.80737 212.374 1.55865 212.127 1.5089ZM184.457 1.01146C184.424 0.762743 184.21 0.580348 183.963 0.596929C182.794 0.712999 181.609 0.862231 180.457 1.02804C180.21 1.06121 180.029 1.29335 180.062 1.54207C180.095 1.77421 180.292 1.94002 180.506 1.94002C180.523 1.94002 180.555 1.94002 180.572 1.94002C181.724 1.79079 182.893 1.64155 184.045 1.52549C184.292 1.49232 184.473 1.26018 184.457 1.01146ZM205.115 0.464278C203.979 0.348209 202.777 0.24872 201.592 0.182395C201.345 0.165814 201.131 0.36479 201.115 0.61351C201.098 0.862231 201.296 1.07779 201.543 1.09437C202.728 1.1607 203.896 1.26018 205.032 1.37625C205.049 1.37625 205.065 1.37625 205.082 1.37625C205.312 1.37625 205.51 1.19386 205.543 0.961719C205.559 0.712999 205.378 0.480859 205.115 0.464278ZM190.991 0.0994882C189.823 0.149232 188.638 0.215558 187.469 0.298464C187.222 0.315046 187.024 0.530604 187.041 0.795905C187.057 1.04463 187.255 1.22702 187.502 1.22702H187.535C188.687 1.14411 189.872 1.07779 191.041 1.02804C191.288 1.01146 191.485 0.795905 191.485 0.547185C191.469 0.281883 191.255 0.0829068 190.991 0.0994882ZM198.069 0.0331627C197.246 0.0165814 196.39 0 195.551 0C195.222 0 194.876 0 194.53 0C194.284 0 194.07 0.215558 194.086 0.464278C194.086 0.712999 194.3 0.928556 194.547 0.911975C194.876 0.911975 195.205 0.911975 195.535 0.911975C196.374 0.911975 197.214 0.928556 198.053 0.945138H198.069C198.316 0.945138 198.514 0.746161 198.53 0.497441C198.514 0.24872 198.316 0.0331627 198.069 0.0331627Z" fill="#DFF2F5"/>
<path d="M331.777 210.235C331.481 210.584 331.168 210.932 330.872 211.28H329.818C329.818 211.164 329.851 211.048 329.934 210.948C330.312 210.517 330.707 210.086 331.086 209.638C331.25 209.439 331.53 209.423 331.728 209.589C331.925 209.754 331.942 210.053 331.777 210.235Z" fill="#DFF2F5"/>
<path d="M34.5672 211.28C34.5672 211.28 3.88477 195.693 3.88477 152.433C3.88477 95.6414 31.736 95.7574 44.0484 82.4094C54.7807 70.7693 55.3733 53.8563 77.4304 44.1728C94.2695 36.7775 108.607 43.0121 126.894 32.5161C140.935 24.4576 144.03 19.5329 158.153 11.6236C172.276 3.71427 201.016 1.57527 216.357 6.66575C242.348 15.3046 240.933 29.0838 260.735 39.1984C271.516 44.72 284.389 37.8553 306.791 49.6944C334.692 64.4352 323.169 92.4246 325.704 100.682C331.317 119.021 351.35 121.359 350.05 160.193C349.111 187.933 325.523 211.247 325.523 211.247H34.5672V211.28Z" fill="#EAF8FF"/>
<path d="M25.0686 211.28C25.0686 211.28 15.9166 205.974 18.9782 193.886C20.7724 186.773 28.1797 181.583 35.4387 182.246C35.4387 182.246 24.476 162.415 42.3522 154.041C62.9278 144.407 67.866 165.731 67.866 165.731C70.9276 163.028 75.6518 162.415 79.306 164.222C82.9603 166.046 85.3306 170.191 85.0672 174.287C85.0672 174.287 91.2235 170.49 99.3056 173.989C103.766 175.929 106.943 181.334 105.1 185.861C110.334 182.379 120.54 184.037 126.416 192.079C132.128 199.905 129.708 211.28 129.708 211.28H25.0686Z" fill="#9ABED9"/>
<path d="M171.464 210.173H78.4773C75.0475 210.173 72.0982 207.718 71.452 204.31L37.7998 25.695C36.9713 21.2518 40.3349 17.1426 44.8251 17.1426H137.812C141.242 17.1426 144.191 19.5981 144.837 23.0057L178.489 201.621C179.335 206.064 175.954 210.173 171.464 210.173Z" fill="#F8F8F8"/>
<path d="M79.9683 210.842H78.4605C74.7159 210.842 71.4848 208.152 70.7889 204.444L37.1367 25.8287C36.7059 23.5236 37.3024 21.1516 38.7937 19.3476C40.2849 17.5269 42.472 16.4912 44.8083 16.4912H47.0286C47.3931 16.4912 47.6914 16.7919 47.6914 17.1594C47.6914 17.5269 47.3931 17.8275 47.0286 17.8275H44.8083C42.8697 17.8275 41.0471 18.6961 39.821 20.1995C38.5783 21.7028 38.0812 23.6739 38.4457 25.5949L72.1145 204.21C72.6944 207.284 75.3786 209.522 78.4771 209.522H79.9849C80.3494 209.522 80.6477 209.823 80.6477 210.19C80.6477 210.558 80.3494 210.842 79.9683 210.842Z" fill="#5D7183"/>
<path d="M187.851 201.621L154.183 23.0057C153.536 19.6148 150.587 17.1426 147.157 17.1426H54.1704C49.6967 17.1426 46.3165 21.2518 47.145 25.695L80.8138 204.31C81.46 207.701 84.4093 210.173 87.8391 210.173H180.826C185.316 210.173 188.68 206.064 187.851 201.621ZM84.9395 189.678L55.2805 30.7396H146.478L176.153 189.678H84.9395Z" fill="white"/>
<path d="M176.939 87.7503C174.785 87.7503 172.697 87.4329 170.692 86.7815C170.345 86.6645 170.146 86.297 170.262 85.9463C170.378 85.5955 170.742 85.395 171.09 85.512C175.531 86.9485 180.501 86.6645 185.423 84.7102C189.996 82.8894 194.271 79.7157 197.485 75.7568C200.882 71.5642 203.583 66.3024 205.737 59.6709C205.968 58.936 206.184 57.7667 206.432 56.4137C207.261 51.8201 208.388 45.5227 212.497 45.7398C212.861 45.7565 213.143 46.0739 213.126 46.4414C213.11 46.8089 212.795 47.0929 212.431 47.0762C212.397 47.0762 212.348 47.0762 212.315 47.0762C209.465 47.0762 208.421 52.8223 207.741 56.6475C207.493 58.0507 207.277 59.27 206.996 60.0885C204.792 66.8703 202.008 72.2824 198.512 76.592C195.165 80.7346 190.692 84.042 185.903 85.9463C182.904 87.1489 179.872 87.7503 176.939 87.7503Z" fill="#5D7183"/>
<path d="M152.997 151.091C152.898 148.953 153.047 146.915 152.351 144.844C150.363 138.981 142.326 138.396 137.14 137.411C130.032 136.058 127.961 122.294 120.737 122.06C119.676 122.026 108.939 120.59 107.978 121.057C106.934 121.575 106.139 132.049 105.94 136.893C105.791 140.718 104.482 159.543 103.621 163.268C102.726 167.177 101.417 170.986 99.7599 174.61C97.3408 179.905 94.1595 184.867 90.332 189.243H121.366C122.692 188.274 124.017 187.289 125.31 186.27C135.566 178.252 143.834 169.315 150.561 157.789C150.926 157.171 151.406 156.603 151.821 156.019C152.036 155.701 152.235 155.417 152.5 155.15C153.676 154.014 153.063 152.511 152.997 151.091Z" fill="#DFE2EA"/>
<path d="M91.9711 187.974C91.822 187.974 91.6729 187.924 91.5569 187.823C91.2752 187.59 91.2255 187.172 91.4575 186.888C94.5228 183.063 97.1076 178.853 99.1622 174.36C100.803 170.752 102.095 166.96 102.973 163.135C103.818 159.493 105.111 140.885 105.276 136.876L105.293 136.359C105.326 135.456 105.376 134.22 105.442 133.252C105.459 132.884 105.773 132.6 106.138 132.634C106.502 132.65 106.784 132.968 106.751 133.335C106.685 134.287 106.635 135.507 106.602 136.409L106.585 136.926C106.42 140.952 105.111 159.711 104.249 163.436C103.338 167.361 102.029 171.22 100.339 174.911C98.2509 179.505 95.5998 183.814 92.4682 187.723C92.3522 187.89 92.17 187.974 91.9711 187.974Z" fill="#5D7183"/>
<path d="M123.752 188.157C123.554 188.157 123.355 188.057 123.222 187.89C123.007 187.589 123.057 187.171 123.355 186.954C123.885 186.553 124.399 186.152 124.912 185.768C133.346 179.17 140.139 172.121 145.674 164.22C145.889 163.919 146.303 163.853 146.601 164.053C146.9 164.27 146.966 164.688 146.767 164.988C141.15 173.006 134.274 180.139 125.724 186.821C125.211 187.221 124.697 187.622 124.15 188.023C124.034 188.123 123.902 188.157 123.752 188.157Z" fill="#5D7183"/>
<path d="M180.764 221.148C174.484 219.527 175.561 208.018 175.379 202.723C175.031 191.715 173.291 182.311 164.791 174.193C154.883 164.722 142.903 160.863 131.835 154.148C127.941 151.776 130.344 137.645 129.863 133.001C128.604 120.657 150.509 115.696 159.191 118.769C166.465 121.342 172.364 126.887 177.483 132.834C184.923 141.47 194.285 149.939 196.654 161.715C198.825 172.573 195.776 184.232 192.827 194.672C191.435 199.533 183.283 221.799 180.764 221.148Z" fill="#DFE2EA"/>
<path d="M180.881 221.832C180.782 221.832 180.683 221.815 180.583 221.798C174.718 220.278 174.718 211.292 174.734 205.345C174.734 204.393 174.734 203.491 174.718 202.756C174.353 191.514 172.448 182.427 164.345 174.677C158.529 169.131 151.405 165.539 144.495 162.082C139.74 159.693 135.233 157.438 131.455 154.682C131.157 154.465 131.091 154.047 131.306 153.746C131.522 153.446 131.936 153.379 132.234 153.596C135.929 156.302 140.37 158.524 145.075 160.879C152.067 164.387 159.292 168.012 165.257 173.691C173.69 181.759 175.679 191.113 176.043 202.689C176.06 203.457 176.06 204.376 176.06 205.328C176.06 210.841 176.043 219.176 180.865 220.479C181.113 220.379 182.638 219.376 186.83 209.154C189.332 203.073 191.535 196.709 192.165 194.471C195.363 183.179 198.064 172.171 195.976 161.831C194.054 152.26 187.393 144.877 180.948 137.727C180.119 136.809 179.258 135.857 178.446 134.938C178.197 134.671 178.23 134.236 178.495 134.002C178.761 133.752 179.191 133.785 179.423 134.053C180.252 134.971 181.097 135.923 181.925 136.842C188.52 144.108 195.313 151.625 197.302 161.564C199.439 172.204 196.705 183.379 193.458 194.838C192.795 197.177 190.409 204.009 187.841 210.223C183.781 220.028 182.025 221.832 180.881 221.832Z" fill="#5D7183"/>
<path d="M176.925 132.667C176.925 132.667 178.996 110.968 166.221 70.8622C165.061 67.204 163.636 63.6461 162.493 59.9712C160.488 53.5235 161.549 42.8162 160.704 36.1013C159.826 29.0021 156.727 11.0954 142.875 11.8638C126.322 12.7825 127.184 34.5478 127.963 46.5245C128.145 49.2807 128.36 52.0535 128.344 54.8264C128.327 56.4133 128.742 59.5035 127.764 60.8398C117.011 75.3555 106.406 105.54 105.379 129.944C105.395 129.944 158.285 142.589 176.925 132.667Z" fill="white"/>
<path d="M121.086 33.2114C122.13 37.07 127.482 39.2582 131.922 37.6546C136.346 36.0511 138.865 30.9898 136.976 27.4485C138.434 28.9853 140.969 29.7036 143.355 29.2358C145.741 28.7681 147.911 27.1646 148.823 25.1601C150.065 27.7492 153.545 29.2358 156.859 28.6011C160.173 27.9496 162.989 25.2436 163.354 22.3371C163.719 19.4306 161.581 16.6411 158.433 15.8894C161.449 15.1711 163.619 12.2479 163.371 9.6254C163.105 7.00288 160.686 4.88147 157.754 4.34695C154.821 3.81242 151.507 4.73114 149.022 6.46835C149.154 3.51175 146.238 0.93934 142.825 1.00616C139.428 1.07297 136.098 3.76231 135.783 6.73561C133.463 4.93159 129.486 4.93159 126.802 6.73561C124.118 8.53964 123.008 11.9305 124.3 14.4194C120.837 14.3025 117.308 16.9751 116.894 19.9986C116.48 23.022 119.28 25.8449 122.743 25.9118C120.406 28.1334 120.025 30.5555 121.086 33.2114Z" fill="#96E296"/>
<path d="M151.671 70.3284C145.988 70.3284 138.383 68.7081 128.524 63.6468C128.193 63.4797 128.06 63.0789 128.242 62.7448C128.408 62.4107 128.806 62.2771 129.137 62.4608C136.742 66.3695 143.685 68.541 149.799 68.9252C155.913 69.3094 159.906 67.7894 162.176 66.453C162.491 66.2693 162.905 66.3695 163.088 66.6869C163.27 67.0043 163.17 67.4219 162.856 67.6056C160.619 68.9252 156.973 70.3284 151.671 70.3284Z" fill="#5D7183"/>
<path d="M154.784 45.9231C154.304 45.9231 153.84 45.7895 153.442 45.5055C152.431 44.804 151.785 43.3006 151.454 40.8952C151.404 40.5278 151.652 40.1937 152.017 40.1436C152.381 40.0935 152.713 40.344 152.763 40.7115C153.111 43.1837 153.724 44.0857 154.188 44.4031C154.453 44.5868 154.751 44.6369 155.115 44.5534C155.43 44.4866 155.662 44.3028 155.844 43.9855C156.474 42.8997 156.226 40.5779 155.844 39.2917C155.745 38.9409 155.944 38.5734 156.292 38.4565C156.64 38.3562 157.004 38.5567 157.12 38.9075C157.485 40.177 157.949 43.0166 156.988 44.6536C156.623 45.2884 156.076 45.6893 155.414 45.8563C155.198 45.8897 154.999 45.9231 154.784 45.9231Z" fill="#5D7183"/>
<path d="M155.015 137.16C148.951 137.16 141.975 136.676 134.088 135.707C118.679 133.803 105.374 130.646 105.241 130.612C104.926 130.546 104.711 130.262 104.727 129.927C105.208 118.385 107.892 104.738 112.3 91.4917C116.459 78.9804 121.91 67.6718 127.229 60.4557C127.858 59.6038 127.775 57.5659 127.709 56.0793C127.692 55.6283 127.676 55.194 127.676 54.8432C127.692 52.4879 127.527 50.0826 127.378 47.744C127.345 47.3598 127.328 46.9756 127.295 46.5914C126.814 39.1582 125.787 23.707 132.597 15.9564C135.149 13.0499 138.595 11.463 142.837 11.2125C149.083 10.8617 153.938 14.0688 157.252 20.7337C159.224 24.6926 160.599 29.8374 161.361 36.0178C161.676 38.6237 161.726 41.7807 161.775 45.1048C161.842 50.3999 161.925 55.8788 163.118 59.7542C163.714 61.6584 164.393 63.5627 165.056 65.4168C165.669 67.1206 166.299 68.8745 166.846 70.6284C170.491 82.0873 175.213 99.3926 177.003 116.715C178.08 127.104 177.583 132.483 177.566 132.717C177.549 132.934 177.417 133.135 177.218 133.252C172.363 135.857 164.924 137.16 155.015 137.16ZM106.086 129.426C108.721 130.028 120.667 132.7 134.27 134.371C154.187 136.826 168.701 136.091 176.307 132.249C176.39 130.88 176.622 125.601 175.71 116.815C174.733 107.327 172.181 91.6921 165.603 71.0627C165.056 69.3255 164.427 67.5883 163.83 65.9012C163.167 64.0304 162.471 62.1094 161.875 60.1885C160.616 56.1127 160.533 50.5336 160.467 45.1549C160.417 41.8642 160.384 38.7573 160.069 36.2183C159.323 30.1882 157.981 25.177 156.092 21.3685C153.043 15.2214 148.619 12.2648 142.936 12.5822C139.059 12.7993 135.927 14.2359 133.624 16.8751C127.195 24.2081 128.19 39.2918 128.653 46.5413C128.687 46.9255 128.703 47.3097 128.736 47.6939C128.902 50.0492 129.068 52.4879 129.035 54.8933C129.035 55.2274 129.051 55.6283 129.068 56.0626C129.134 57.8499 129.233 60.0548 128.322 61.2909C123.07 68.3901 117.701 79.5651 113.575 91.9427C109.267 104.821 106.616 118.118 106.086 129.426Z" fill="#5D7183"/>
<path d="M170.781 107.848C166.337 107.202 162.136 105.561 157.827 102.808C151.231 98.6091 145.753 92.4624 141.075 84.0018C140.904 83.6732 141.013 83.267 141.339 83.095C141.665 82.923 142.068 83.0322 142.238 83.3608C146.811 91.6205 152.145 97.6111 158.539 101.697C171.07 109.679 181.119 106.853 193.836 103.284C195.372 102.849 197.116 102.36 198.939 102.49C201.545 102.65 203.124 104.01 203.684 105.121C203.855 105.45 203.713 105.851 203.387 106.023C203.061 106.195 202.663 106.053 202.493 105.724C201.986 104.706 200.49 103.931 198.848 103.827C197.238 103.728 195.686 104.161 194.185 104.584C187.888 106.352 181.937 108.035 176.09 108.181C174.279 108.205 172.503 108.098 170.781 107.848Z" fill="#5D7183"/>
<path d="M172.572 210.842H87.8365C84.0918 210.842 80.8608 208.152 80.1649 204.444L46.4961 25.8287C46.0653 23.5236 46.6618 21.1516 48.153 19.3476C49.6443 17.5269 51.8314 16.4912 54.1677 16.4912H115.855C116.22 16.4912 116.518 16.7919 116.518 17.1594C116.518 17.5269 116.22 17.8275 115.855 17.8275H54.1677C52.2291 17.8275 50.4065 18.6961 49.1803 20.1995C47.9376 21.7028 47.4406 23.6739 47.8051 25.5949L81.4739 204.21C82.0538 207.284 84.738 209.522 87.8365 209.522H172.572C172.936 209.522 173.234 209.823 173.234 210.19C173.234 210.558 172.936 210.842 172.572 210.842Z" fill="#5D7183"/>
<path d="M117.5 31.4076H55.2819C54.9174 31.4076 54.6191 31.1069 54.6191 30.7394C54.6191 30.372 54.9174 30.0713 55.2819 30.0713H117.5C117.864 30.0713 118.162 30.372 118.162 30.7394C118.162 31.1069 117.864 31.4076 117.5 31.4076Z" fill="#5D7183"/>
<path d="M103.863 25.0609H91.6511C91.2865 25.0609 90.9883 24.7603 90.9883 24.3928C90.9883 24.0253 91.2865 23.7246 91.6511 23.7246H103.863C104.227 23.7246 104.525 24.0253 104.525 24.3928C104.525 24.7603 104.227 25.0609 103.863 25.0609Z" fill="#5D7183"/>
<path d="M169.905 190.346H84.9382C84.5736 190.346 84.2754 190.045 84.2754 189.678C84.2754 189.31 84.5736 189.01 84.9382 189.01H169.889C170.253 189.01 170.552 189.31 170.552 189.678C170.552 190.045 170.27 190.346 169.905 190.346Z" fill="#5D7183"/>
<path d="M140.313 205.329H130.139C127.041 205.329 124.506 202.79 124.506 199.65C124.506 196.51 127.024 193.954 130.139 193.954H140.313C143.411 193.954 145.947 196.493 145.947 199.633C145.947 202.79 143.411 205.329 140.313 205.329ZM130.139 195.307C127.77 195.307 125.831 197.261 125.831 199.65C125.831 202.056 127.77 204.01 130.139 204.01H140.313C142.682 204.01 144.621 202.056 144.621 199.667C144.621 197.261 142.682 195.307 140.313 195.307H130.139Z" fill="#5D7183"/>
<path d="M299.213 190.408H234.791L220.459 128.804L319.344 143.887L314.175 177.479C313.015 184.912 306.669 190.408 299.213 190.408Z" fill="white"/>
<path d="M292.389 224C296.122 224 299.149 220.948 299.149 217.184C299.149 213.42 296.122 210.369 292.389 210.369C288.655 210.369 285.628 213.42 285.628 217.184C285.628 220.948 288.655 224 292.389 224Z" fill="#DFE2EA"/>
<path d="M248.53 224C252.263 224 255.29 220.948 255.29 217.184C255.29 213.42 252.263 210.369 248.53 210.369C244.796 210.369 241.77 213.42 241.77 217.184C241.77 220.948 244.796 224 248.53 224Z" fill="#DFE2EA"/>
<path d="M309.853 124.812C309.554 127.168 306.241 153.51 307.301 153.593C301.75 153.176 296.183 152.758 290.682 151.906C288.346 151.539 286.026 151.104 283.673 150.854C280.724 150.52 277.758 150.486 274.809 150.169C269.506 149.601 264.337 148.131 259.184 146.695C258.703 138.209 258.687 129.707 259.134 121.204C259.234 119.367 261.918 99.5895 262.249 97.1674C262.266 97.0338 262.398 96.9503 262.531 96.967C264.834 97.4514 267.17 97.7855 269.523 98.0026C272.124 98.2365 309.571 100.642 312.189 101.377C312.189 101.377 311.742 110.631 311.476 112.568C310.897 116.644 310.366 120.72 309.853 124.812Z" fill="#DFE2EA"/>
<path d="M295.851 105.536C295.818 105.536 295.768 105.536 295.719 105.519C295.354 105.453 295.122 105.102 295.188 104.734C295.669 102.179 295.934 99.6396 295.984 97.1841V96.8166C296.05 93.2587 296.133 89.2497 294.045 86.2597C293.333 85.2408 292.405 84.5058 291.411 84.2051C287.633 83.0192 284.783 87.9301 284.253 88.9324C282.264 92.6406 281.949 97.5349 281.684 101.845C281.635 102.496 281.602 103.147 281.552 103.765C281.519 104.133 281.204 104.417 280.839 104.384C280.475 104.35 280.193 104.033 280.226 103.665C280.276 103.047 280.309 102.396 280.359 101.744C280.641 97.301 280.972 92.2565 283.093 88.2809C284.882 84.9401 288.113 81.7664 291.808 82.9189C293.067 83.3198 294.26 84.2218 295.139 85.4746C297.458 88.8154 297.375 93.0582 297.309 96.8166V97.1841C297.259 99.7064 296.994 102.329 296.497 104.951C296.448 105.319 296.166 105.536 295.851 105.536Z" fill="#5D7183"/>
<path d="M318.101 127.835C316.808 139.795 313.975 154.912 312.268 166.839C311.837 169.862 311.357 172.869 310.794 175.876C308.358 188.971 305.094 187.067 299.808 187.435C293.363 187.886 290.215 187.167 283.769 186.767C283.637 186.767 292.402 124.478 292.402 124.478C292.402 124.478 311.854 127.2 318.101 127.835Z" fill="#96E296"/>
<path d="M311.788 130.041C311.705 130.041 311.639 130.024 311.556 129.991C311.208 129.857 311.043 129.473 311.175 129.122C311.275 128.838 311.391 128.554 311.507 128.253C313.164 123.877 315.235 118.432 312.501 114.406C312.037 113.721 311.391 113.253 310.728 113.12C309.651 112.903 308.574 113.571 307.944 114.256C307.016 115.241 303.984 119.116 303.603 127.535C303.587 127.903 303.288 128.187 302.907 128.17C302.543 128.153 302.261 127.836 302.278 127.468C302.377 125.23 303.007 117.58 306.967 113.337C308.093 112.134 309.618 111.549 310.976 111.817C311.987 112.017 312.948 112.685 313.594 113.654C316.726 118.264 314.506 124.077 312.733 128.738C312.617 129.039 312.517 129.322 312.401 129.606C312.302 129.874 312.053 130.041 311.788 130.041Z" fill="#5D7183"/>
<path d="M237.23 186.2C251.33 186.534 273.119 186.284 273.119 186.284C272.853 185.081 272.605 181.607 272.323 180.421C270.931 174.29 269.97 168.076 269.208 161.829C268.148 153.026 267.502 144.173 266.69 135.337C266.491 133.132 264.652 109.579 264.652 109.579C250.634 109.846 236.699 113.12 222.715 112.051C231.646 161.595 237.031 185.532 237.23 186.2Z" fill="#96E296"/>
<path d="M236.451 117.363C236.203 117.363 235.954 117.213 235.855 116.979C234.049 113.004 232.955 108.794 232.624 104.435C232.458 102.246 232.475 99.4567 234.065 97.3353C235.656 95.2306 238.721 94.2618 241.521 94.9801C243.924 95.5981 246.128 97.3186 247.685 99.8242C249.176 102.196 249.906 104.952 250.386 107.09C251.016 109.93 251.43 112.837 251.612 115.726C251.629 116.094 251.364 116.411 250.999 116.445C250.635 116.461 250.32 116.194 250.287 115.827C250.104 113.004 249.69 110.164 249.077 107.391C248.63 105.37 247.934 102.747 246.558 100.542C245.167 98.3376 243.261 96.8175 241.19 96.283C238.887 95.6983 236.385 96.45 235.109 98.1538C233.784 99.9245 233.784 102.397 233.933 104.351C234.248 108.544 235.308 112.619 237.048 116.445C237.197 116.779 237.048 117.18 236.716 117.33C236.634 117.347 236.534 117.363 236.451 117.363Z" fill="#5D7183"/>
<path d="M292.85 149.836C290.763 149.018 288.46 148.684 286.19 148.433C282.08 147.982 277.955 147.765 273.812 147.798C269.935 147.832 265.793 147.882 261.965 148.533C259.828 155.282 258.635 162.514 257.922 169.48C257.26 175.811 257.359 182.142 257.193 188.489C260.192 188.422 263.208 188.339 266.207 188.272C269.156 188.188 286.885 188.439 292.337 187.437C292.386 187.169 293.298 150.02 292.85 149.836Z" fill="white"/>
<path d="M282.48 153.611C282.431 153.611 282.381 153.611 282.331 153.594C281.967 153.51 281.751 153.16 281.834 152.792C283.16 146.946 281.602 144.474 280.873 143.672C280.028 142.753 278.951 142.536 278.206 142.519C276.781 142.502 275.273 143.137 274.179 144.256C272.323 146.144 271.396 149.318 271.743 152.542C271.777 152.909 271.528 153.243 271.164 153.277C270.799 153.31 270.468 153.059 270.435 152.692C270.037 149.067 271.114 145.476 273.235 143.321C274.577 141.951 276.433 141.166 278.222 141.183C279.664 141.2 280.923 141.751 281.834 142.753C284.452 145.609 283.607 150.921 283.11 153.076C283.044 153.41 282.779 153.611 282.48 153.611Z" fill="#5D7183"/>
<path d="M298.783 191.076L234.941 190.992C234.626 190.992 234.361 190.775 234.295 190.474L219.814 128.954C219.764 128.737 219.814 128.503 219.963 128.352C220.112 128.185 220.327 128.118 220.543 128.152L319.428 143.236C319.61 143.269 319.759 143.352 319.859 143.503C319.958 143.653 320.008 143.82 319.975 144.004L314.871 177.161C314.275 181.037 312.32 184.578 309.37 187.117C306.438 189.673 302.66 191.076 298.783 191.076ZM235.455 189.656L298.783 189.739C302.362 189.739 305.808 188.453 308.525 186.115C311.243 183.776 313.032 180.519 313.579 176.961L318.583 144.455L221.321 129.605L235.455 189.656Z" fill="#5D7183"/>
<path d="M293.001 211.038L248.91 210.804C243.128 210.77 238.14 206.795 236.798 201.116L217.329 118.798C216.766 116.426 215.49 114.338 213.634 112.768C211.779 111.198 209.525 110.296 207.106 110.146L201.124 109.795C200.76 109.778 200.478 109.461 200.495 109.093C200.511 108.726 200.826 108.442 201.191 108.459L207.172 108.809C209.873 108.977 212.408 109.979 214.479 111.733C216.55 113.487 217.992 115.825 218.622 118.481L238.091 200.798C239.284 205.876 243.741 209.434 248.91 209.467L293.001 209.701C293.366 209.701 293.664 210.002 293.664 210.37C293.664 210.737 293.366 211.038 293.001 211.038Z" fill="#5D7183"/>
<path d="M256.947 191.076C256.616 191.076 256.334 190.826 256.284 190.491L249.276 133.397C249.226 133.03 249.491 132.696 249.855 132.646C250.22 132.596 250.551 132.863 250.601 133.23L257.61 190.324C257.66 190.692 257.394 191.026 257.03 191.076C257.013 191.076 256.98 191.076 256.947 191.076Z" fill="#5D7183"/>
<path d="M284.848 191.076C284.832 191.076 284.815 191.076 284.799 191.076C284.434 191.043 284.169 190.725 284.202 190.358L288.493 139.244C288.527 138.876 288.841 138.609 289.206 138.642C289.57 138.676 289.836 138.993 289.802 139.361L285.511 190.475C285.478 190.809 285.196 191.076 284.848 191.076Z" fill="#5D7183"/>
<path d="M313.497 166.989C313.481 166.989 313.464 166.989 313.464 166.989L229.292 161.844C228.928 161.827 228.646 161.51 228.663 161.142C228.679 160.775 228.994 160.491 229.359 160.508L313.531 165.652C313.895 165.669 314.177 165.986 314.16 166.354C314.144 166.721 313.845 166.989 313.497 166.989Z" fill="#5D7183"/>
</svg>
