<svg width="254" height="183" viewBox="0 0 254 183" fill="none" xmlns="http://www.w3.org/2000/svg">
<path d="M20.5277 177.385H19.6655C19.4411 177.22 19.2167 177.055 18.9923 176.878C18.8506 176.772 18.827 176.559 18.9332 176.418C19.0395 176.276 19.2521 176.253 19.3939 176.359C19.7246 176.618 20.0553 176.866 20.3978 177.102C20.4804 177.173 20.5277 177.279 20.5277 177.385Z" fill="#FFE7EB"/>
<path d="M17.4561 174.78C16.8301 174.237 16.2042 173.672 15.6136 173.094C15.4837 172.964 15.2711 172.976 15.153 173.106C15.0231 173.235 15.0349 173.448 15.1648 173.565C15.779 174.155 16.405 174.733 17.0427 175.287C17.1018 175.346 17.1845 175.369 17.2553 175.369C17.3498 175.369 17.4325 175.334 17.5033 175.251C17.5978 175.098 17.586 174.898 17.4561 174.78ZM241.232 172.198C241.09 172.092 240.878 172.115 240.771 172.257C240.264 172.929 239.744 173.589 239.224 174.237C239.106 174.379 239.13 174.579 239.271 174.697C239.331 174.744 239.401 174.768 239.472 174.768C239.567 174.768 239.661 174.733 239.732 174.65C240.264 174.002 240.783 173.33 241.291 172.658C241.397 172.504 241.374 172.304 241.232 172.198ZM13.8539 171.302C13.287 170.689 12.7319 170.064 12.2004 169.427C12.0823 169.286 11.8815 169.274 11.7398 169.38C11.598 169.498 11.5862 169.698 11.6925 169.84C12.2358 170.488 12.8027 171.125 13.3696 171.75C13.4287 171.821 13.5232 171.856 13.6058 171.856C13.6885 171.856 13.7712 171.832 13.8302 171.773C13.9602 171.632 13.972 171.432 13.8539 171.302ZM244.126 168.06C243.972 167.965 243.771 168.001 243.677 168.154C243.216 168.85 242.744 169.545 242.26 170.229C242.153 170.37 242.189 170.583 242.342 170.689C242.401 170.724 242.472 170.748 242.531 170.748C242.638 170.748 242.732 170.701 242.803 170.606C243.287 169.922 243.771 169.215 244.232 168.519C244.315 168.366 244.279 168.166 244.126 168.06ZM10.6414 167.458C10.1453 166.798 9.66109 166.103 9.18867 165.419C9.08237 165.266 8.88159 165.23 8.73986 165.324C8.58633 165.431 8.55089 165.631 8.64538 165.772C9.1178 166.468 9.61385 167.175 10.1099 167.847C10.169 167.93 10.2752 167.977 10.3697 167.977C10.4406 167.977 10.5115 167.954 10.5705 167.906C10.724 167.8 10.7477 167.6 10.6414 167.458ZM246.748 163.756C246.594 163.662 246.393 163.721 246.299 163.886C245.897 164.605 245.46 165.336 245.023 166.044C244.929 166.197 244.976 166.397 245.13 166.492C245.189 166.527 245.236 166.539 245.295 166.539C245.401 166.539 245.508 166.48 245.578 166.386C246.027 165.666 246.452 164.924 246.866 164.204C246.96 164.039 246.901 163.839 246.748 163.756ZM7.85407 163.297C7.42888 162.589 7.01551 161.846 6.62576 161.116C6.54309 160.95 6.34231 160.892 6.18877 160.974C6.02342 161.057 5.96437 161.257 6.04704 161.41C6.43679 162.153 6.86197 162.896 7.28716 163.627C7.34621 163.733 7.45251 163.792 7.57061 163.792C7.62967 163.792 7.68872 163.78 7.73596 163.745C7.90131 163.65 7.94855 163.45 7.85407 163.297ZM249.039 159.265C248.874 159.194 248.685 159.265 248.602 159.418C248.248 160.161 247.881 160.927 247.492 161.67C247.409 161.835 247.468 162.023 247.633 162.106C247.681 162.129 247.728 162.141 247.787 162.141C247.905 162.141 248.023 162.082 248.082 161.964C248.472 161.21 248.85 160.444 249.204 159.689C249.275 159.536 249.204 159.347 249.039 159.265ZM5.51556 158.864C5.17306 158.109 4.83055 157.343 4.52347 156.565C4.45261 156.4 4.26364 156.317 4.09829 156.388C3.93294 156.459 3.85026 156.647 3.92113 156.812C4.24002 157.59 4.57071 158.38 4.92503 159.135C4.98409 159.253 5.10219 159.324 5.2203 159.324C5.26754 159.324 5.31478 159.312 5.36203 159.288C5.52737 159.229 5.59824 159.029 5.51556 158.864ZM250.952 154.596C250.787 154.537 250.598 154.619 250.527 154.796C250.397 155.15 250.267 155.504 250.125 155.846C249.96 156.27 249.783 156.694 249.606 157.119C249.535 157.284 249.618 157.473 249.783 157.543C249.818 157.567 249.866 157.567 249.913 157.567C250.043 157.567 250.161 157.496 250.22 157.366C250.397 156.942 250.574 156.506 250.74 156.07C250.881 155.716 251.011 155.35 251.141 155.008C251.2 154.855 251.118 154.667 250.952 154.596ZM3.64948 154.219C3.37784 153.44 3.11801 152.639 2.8936 151.837C2.84636 151.66 2.65739 151.566 2.49204 151.613C2.31488 151.66 2.2204 151.849 2.26764 152.014C2.50385 152.827 2.76369 153.641 3.03533 154.431C3.08257 154.56 3.21249 154.655 3.34241 154.655C3.37784 154.655 3.41327 154.643 3.4487 154.631C3.61405 154.584 3.70854 154.395 3.64948 154.219ZM252.405 149.786C252.228 149.738 252.051 149.845 252.003 150.021C251.803 150.823 251.566 151.625 251.318 152.427C251.259 152.603 251.366 152.78 251.531 152.839C251.566 152.851 251.59 152.851 251.625 152.851C251.767 152.851 251.897 152.757 251.933 152.615C252.181 151.802 252.417 150.976 252.618 150.175C252.688 149.998 252.582 149.821 252.405 149.786ZM2.24402 149.42C2.05505 148.618 1.86608 147.793 1.71254 146.968C1.67711 146.791 1.51176 146.673 1.3346 146.709C1.15744 146.744 1.03934 146.909 1.07477 147.086C1.24012 147.911 1.41728 148.748 1.61806 149.562C1.65349 149.715 1.7834 149.809 1.93694 149.809C1.96056 149.809 1.98419 149.809 2.01962 149.797C2.17316 149.762 2.27945 149.597 2.24402 149.42ZM253.338 144.834C253.161 144.81 252.995 144.94 252.972 145.117C252.866 145.93 252.724 146.756 252.558 147.581C252.523 147.758 252.641 147.935 252.818 147.958C252.842 147.958 252.866 147.97 252.877 147.97C253.031 147.97 253.173 147.864 253.196 147.711C253.362 146.874 253.503 146.037 253.61 145.211C253.645 145.023 253.515 144.858 253.338 144.834ZM1.28736 144.504C1.16925 143.69 1.06296 142.853 0.980282 142.016C0.956661 141.839 0.803123 141.71 0.625963 141.722C0.448804 141.745 0.318887 141.898 0.330698 142.075C0.413372 142.912 0.519668 143.761 0.649585 144.586C0.673206 144.751 0.814933 144.869 0.968471 144.869C0.980282 144.869 1.0039 144.869 1.01571 144.869C1.19287 144.846 1.32279 144.681 1.28736 144.504ZM253.669 139.8C253.492 139.8 253.338 139.941 253.338 140.118C253.326 140.46 253.326 140.802 253.314 141.156C253.303 141.639 253.267 142.134 253.232 142.629C253.22 142.806 253.35 142.971 253.539 142.983C253.551 142.983 253.551 142.983 253.562 142.983C253.728 142.983 253.881 142.853 253.893 142.676C253.928 142.181 253.952 141.674 253.976 141.179C253.988 140.825 253.999 140.484 253.999 140.142C253.999 139.953 253.846 139.812 253.669 139.8ZM0.661395 137.006C0.661395 136.829 0.507857 136.687 0.330698 136.687C0.153538 136.687 0.0118106 136.841 0.0118106 137.017C0.0354319 137.866 0.0708638 138.715 0.118106 139.552C0.129917 139.729 0.271644 139.859 0.448804 139.859H0.472425C0.649585 139.847 0.791312 139.694 0.779501 139.517C0.720448 138.692 0.685016 137.843 0.661395 137.006ZM253.917 135.072C253.905 134.895 253.751 134.754 253.574 134.766C253.397 134.777 253.255 134.931 253.267 135.107C253.314 135.921 253.338 136.77 253.35 137.619C253.35 137.796 253.503 137.937 253.68 137.937C253.858 137.937 254.011 137.784 253.999 137.607C253.988 136.746 253.964 135.897 253.917 135.072ZM0.389751 131.653C0.212591 131.653 0.0590531 131.795 0.0472425 131.971C0.0236213 132.797 0 133.646 0 134.494C0 134.671 0.141728 134.825 0.318887 134.825C0.496046 134.825 0.649585 134.683 0.649585 134.506C0.661395 133.657 0.673206 132.82 0.696827 131.995C0.708638 131.806 0.56691 131.653 0.389751 131.653ZM253.432 130.026C253.409 129.849 253.243 129.72 253.066 129.755C252.889 129.779 252.759 129.944 252.795 130.12C252.913 130.922 253.019 131.759 253.09 132.608C253.102 132.773 253.243 132.903 253.421 132.903C253.432 132.903 253.444 132.903 253.456 132.903C253.633 132.879 253.763 132.726 253.751 132.549C253.645 131.688 253.551 130.851 253.432 130.026ZM0.685016 126.619C0.507857 126.607 0.342508 126.737 0.330698 126.914C0.259834 127.739 0.200781 128.588 0.153538 129.437C0.141728 129.614 0.283455 129.767 0.460614 129.779C0.472425 129.779 0.472425 129.779 0.484236 129.779C0.661395 129.779 0.803123 129.649 0.814933 129.472C0.862176 128.623 0.921229 127.786 0.980282 126.973C0.992093 126.796 0.862176 126.631 0.685016 126.619ZM252.995 127.527C252.83 126.69 252.629 125.853 252.417 125.051C252.369 124.874 252.192 124.768 252.015 124.815C251.838 124.862 251.732 125.039 251.779 125.216C251.992 126.006 252.181 126.819 252.346 127.656C252.381 127.81 252.511 127.916 252.665 127.916C252.688 127.916 252.712 127.916 252.736 127.904C252.913 127.88 253.031 127.704 252.995 127.527ZM1.26374 121.608C1.08658 121.585 0.921229 121.703 0.897608 121.879C0.779501 122.693 0.673206 123.542 0.578721 124.391C0.555099 124.568 0.685016 124.733 0.862176 124.756C0.873986 124.756 0.885797 124.756 0.897608 124.756C1.06296 124.756 1.20468 124.626 1.21649 124.461C1.31098 123.624 1.41728 122.787 1.53538 121.974C1.559 121.809 1.4409 121.632 1.26374 121.608ZM251.684 122.622C251.413 121.809 251.106 121.019 250.787 120.241C250.716 120.076 250.527 119.993 250.362 120.064C250.196 120.135 250.114 120.323 250.185 120.488C250.503 121.243 250.799 122.033 251.07 122.823C251.118 122.964 251.247 123.047 251.377 123.047C251.413 123.047 251.448 123.047 251.484 123.023C251.649 122.976 251.744 122.799 251.684 122.622ZM2.18497 116.657C2.00781 116.621 1.83065 116.727 1.79522 116.904C1.61806 117.706 1.4409 118.543 1.28736 119.392C1.25193 119.569 1.37003 119.746 1.54719 119.769C1.57081 119.769 1.58262 119.769 1.60625 119.769C1.75978 119.769 1.90151 119.663 1.92513 119.498C2.07867 118.661 2.24402 117.836 2.42118 117.046C2.48023 116.869 2.36213 116.692 2.18497 116.657ZM249.712 117.942C249.334 117.199 248.921 116.444 248.472 115.713C248.378 115.56 248.177 115.513 248.023 115.607C247.87 115.702 247.822 115.902 247.917 116.055C248.354 116.775 248.755 117.505 249.133 118.236C249.192 118.354 249.311 118.413 249.429 118.413C249.476 118.413 249.523 118.402 249.57 118.378C249.724 118.295 249.795 118.095 249.712 117.942ZM3.54319 111.799C3.36603 111.74 3.18887 111.835 3.12982 112.011C2.86998 112.801 2.63377 113.615 2.40937 114.44C2.36213 114.617 2.46842 114.794 2.64558 114.841C2.6692 114.853 2.70463 114.853 2.72826 114.853C2.86998 114.853 2.9999 114.758 3.04714 114.617C3.27154 113.804 3.50776 112.99 3.75578 112.212C3.80302 112.047 3.70854 111.858 3.54319 111.799ZM247.09 113.58C246.63 112.908 246.133 112.236 245.59 111.528C245.484 111.387 245.271 111.363 245.13 111.469C244.988 111.575 244.964 111.787 245.071 111.929C245.614 112.625 246.098 113.285 246.547 113.945C246.606 114.039 246.712 114.086 246.818 114.086C246.878 114.086 246.948 114.063 247.007 114.028C247.161 113.933 247.196 113.733 247.09 113.58ZM244.008 109.559C243.582 109.041 243.157 108.545 242.756 108.062L242.39 107.626C242.271 107.484 242.071 107.472 241.929 107.59C241.787 107.708 241.775 107.909 241.893 108.05L242.26 108.486C242.661 108.97 243.086 109.465 243.512 109.984C243.571 110.066 243.665 110.102 243.76 110.102C243.83 110.102 243.901 110.078 243.972 110.031C244.102 109.901 244.126 109.701 244.008 109.559ZM5.39746 107.119C5.23211 107.048 5.04314 107.119 4.96046 107.284C4.61796 108.038 4.28726 108.828 3.98018 109.63C3.90932 109.795 4.0038 109.984 4.16915 110.054C4.20458 110.066 4.25183 110.078 4.28726 110.078C4.41717 110.078 4.54709 109.995 4.59433 109.866C4.90141 109.076 5.2203 108.298 5.56281 107.555C5.63367 107.39 5.56281 107.19 5.39746 107.119ZM240.783 105.68C240.205 104.949 239.708 104.301 239.271 103.688C239.165 103.535 238.964 103.499 238.811 103.605C238.657 103.712 238.622 103.912 238.728 104.065C239.165 104.69 239.673 105.35 240.264 106.093C240.323 106.176 240.429 106.211 240.523 106.211C240.594 106.211 240.665 106.187 240.724 106.14C240.878 106.034 240.901 105.822 240.783 105.68ZM7.83045 102.709C7.67691 102.615 7.47613 102.662 7.38164 102.816C6.93284 103.523 6.49584 104.254 6.09428 105.008C6.01161 105.162 6.07066 105.362 6.2242 105.456C6.27144 105.48 6.3305 105.492 6.37774 105.492C6.49585 105.492 6.60214 105.433 6.66119 105.315C7.06276 104.572 7.48794 103.853 7.92493 103.157C8.01942 103.004 7.98398 102.804 7.83045 102.709ZM237.949 101.589C237.535 100.847 237.181 100.116 236.874 99.3612C236.803 99.1961 236.614 99.1136 236.449 99.1843C236.283 99.2551 236.201 99.4437 236.272 99.6087C236.59 100.399 236.945 101.153 237.382 101.92C237.441 102.026 237.559 102.085 237.665 102.085C237.724 102.085 237.772 102.073 237.819 102.037C237.972 101.943 238.031 101.754 237.949 101.589ZM10.8658 98.6892C10.724 98.5713 10.5233 98.583 10.4052 98.7245C9.85006 99.3612 9.31859 100.033 8.81073 100.717C8.70443 100.858 8.73986 101.071 8.88159 101.177C8.94064 101.224 9.01151 101.236 9.08237 101.236C9.17686 101.236 9.28315 101.189 9.34221 101.106C9.83825 100.434 10.3579 99.7856 10.9012 99.1607C11.0193 99.0193 11.0075 98.8071 10.8658 98.6892ZM14.468 95.164C14.3499 95.0226 14.1373 95.0108 14.0074 95.1287C13.3578 95.6946 12.7319 96.2723 12.1413 96.8618C12.0114 96.9914 12.0114 97.1919 12.1413 97.3215C12.2004 97.3805 12.2831 97.4159 12.3775 97.4159C12.4602 97.4159 12.5429 97.3805 12.6138 97.3215C13.1925 96.7439 13.8066 96.1662 14.4444 95.612C14.5625 95.5059 14.5861 95.2937 14.468 95.164ZM236.272 94.5628C236.283 94.3859 236.142 94.2327 235.965 94.2209C235.787 94.2091 235.634 94.3506 235.622 94.5274C235.587 95.2112 235.563 95.7771 235.563 96.2487C235.563 96.5552 235.575 96.8382 235.587 97.0858C235.598 97.2626 235.74 97.3923 235.917 97.3923C235.929 97.3923 235.929 97.3923 235.941 97.3923C236.118 97.3805 236.26 97.2272 236.248 97.0504C236.236 96.8146 236.224 96.5552 236.224 96.2605C236.213 95.7889 236.236 95.2348 236.272 94.5628ZM18.4836 92.1105C18.3773 91.9572 18.1766 91.9219 18.023 92.028C17.2908 92.5349 16.6176 93.0301 15.968 93.5253C15.8262 93.6314 15.8026 93.8436 15.9089 93.9851C15.968 94.0676 16.0743 94.1148 16.1687 94.1148C16.2396 94.1148 16.3105 94.0912 16.3695 94.044C17.0073 93.5606 17.6687 93.0773 18.401 92.5703C18.5427 92.4642 18.5781 92.252 18.4836 92.1105ZM236.295 89.1867C236.118 89.1749 235.965 89.3164 235.953 89.4932C235.905 90.401 235.846 91.2617 235.787 92.0044C235.776 92.1813 235.905 92.3463 236.094 92.3581C236.106 92.3581 236.106 92.3581 236.118 92.3581C236.283 92.3581 236.437 92.2284 236.449 92.0516C236.508 91.3088 236.567 90.4364 236.614 89.5286C236.614 89.3517 236.472 89.1985 236.295 89.1867ZM22.7236 89.3635C22.6292 89.2102 22.4284 89.1631 22.2748 89.2574C21.6253 89.67 20.8812 90.1298 20.1371 90.6132C19.9836 90.7075 19.9363 90.9198 20.0426 91.0612C20.1017 91.1555 20.208 91.2145 20.3143 91.2145C20.3733 91.2145 20.4324 91.1909 20.4914 91.1555C21.2237 90.684 21.9678 90.2124 22.6174 89.8115C22.7709 89.7172 22.8181 89.5168 22.7236 89.3635ZM26.9282 86.5811C26.8219 86.4397 26.6212 86.4043 26.4676 86.5104C25.8771 86.9348 25.2157 87.3828 24.3889 87.9134C24.2354 88.0077 24.1882 88.2199 24.2945 88.3614C24.3535 88.4557 24.4598 88.5147 24.5661 88.5147C24.6252 88.5147 24.6842 88.5029 24.7433 88.4675C25.57 87.9252 26.2432 87.4772 26.8456 87.0409C26.9991 86.9348 27.0345 86.7344 26.9282 86.5811ZM236.673 84.459C236.661 84.2822 236.52 84.1407 236.331 84.1407C236.154 84.1525 236.012 84.2939 236.012 84.4826C236.035 85.0131 236.035 85.5672 236.035 86.1213C236.035 86.4043 236.035 86.699 236.024 86.982C236.024 87.1588 236.165 87.3121 236.342 87.3121C236.52 87.3121 236.661 87.1706 236.673 86.9938C236.673 86.699 236.685 86.4043 236.685 86.1213C236.697 85.5554 236.697 85.0013 236.673 84.459ZM30.6131 83.1621C30.4714 83.0442 30.2706 83.056 30.1525 83.1975C29.9636 83.4215 29.7628 83.6455 29.562 83.8577C29.2195 84.2232 28.8297 84.6005 28.4164 84.966C28.2865 85.0839 28.2746 85.2961 28.3927 85.4258C28.4518 85.4965 28.5463 85.5319 28.6408 85.5319C28.7234 85.5319 28.7943 85.5083 28.8534 85.4493C29.2785 85.0721 29.6801 84.683 30.0344 84.2939C30.2352 84.0699 30.4478 83.8459 30.6486 83.6101C30.7667 83.4805 30.7549 83.28 30.6131 83.1621ZM236.508 81.9242C236.425 81.0636 236.307 80.2147 236.165 79.4012C236.13 79.2244 235.965 79.1065 235.787 79.1301C235.61 79.1654 235.492 79.3305 235.516 79.5073C235.657 80.2972 235.776 81.1343 235.858 81.9832C235.882 82.1482 236.024 82.2779 236.189 82.2779C236.201 82.2779 236.213 82.2779 236.224 82.2779C236.39 82.2661 236.52 82.1011 236.508 81.9242ZM33.4949 79.024C33.3414 78.9296 33.1406 78.9768 33.0461 79.1301C32.5737 79.9082 32.1249 80.592 31.6761 81.2286C31.5698 81.3701 31.6052 81.5823 31.7588 81.6884C31.8178 81.7238 31.8769 81.7474 31.9477 81.7474C32.054 81.7474 32.1485 81.7002 32.2194 81.6059C32.68 80.9575 33.1288 80.2619 33.613 79.472C33.6957 79.3187 33.6485 79.1183 33.4949 79.024ZM35.9634 74.6382C35.8098 74.5557 35.609 74.6146 35.5146 74.7679L35.3492 75.0744C35.0067 75.6993 34.6524 76.3477 34.2981 76.9726C34.2036 77.1258 34.2626 77.3262 34.428 77.4206C34.4752 77.4441 34.5343 77.4677 34.5933 77.4677C34.7114 77.4677 34.8177 77.4088 34.8768 77.3027C35.2311 76.6778 35.5854 76.0294 35.9279 75.3927L36.0933 75.0862C36.1878 74.9212 36.1287 74.7207 35.9634 74.6382ZM235.61 76.9136C235.551 76.7132 235.504 76.5245 235.445 76.3241C235.268 75.6993 235.055 75.0862 234.831 74.4731C234.772 74.3081 234.583 74.2138 234.406 74.2845C234.24 74.3435 234.146 74.5321 234.217 74.7089C234.441 75.2984 234.642 75.8997 234.819 76.5128C234.878 76.7014 234.925 76.89 234.984 77.0905C235.02 77.2319 235.15 77.338 235.303 77.338C235.327 77.338 235.362 77.338 235.386 77.3262C235.551 77.2673 235.657 77.0905 235.61 76.9136ZM38.4908 70.2642C38.3373 70.1699 38.1365 70.2171 38.042 70.3703C37.6287 71.0306 37.2153 71.7497 36.7547 72.5514C36.6602 72.7047 36.7192 72.9051 36.8846 72.9994C36.9318 73.023 36.9909 73.0466 37.0499 73.0466C37.168 73.0466 37.2743 72.9876 37.3334 72.8815C37.7822 72.0798 38.2074 71.3725 38.6089 70.724C38.6916 70.559 38.6444 70.3585 38.4908 70.2642ZM233.815 72.1388C233.437 71.3725 233.012 70.6297 232.563 69.9105C232.469 69.7573 232.268 69.7101 232.114 69.8044C231.961 69.8987 231.913 70.0992 232.008 70.2524C232.445 70.948 232.858 71.679 233.224 72.4217C233.284 72.5396 233.402 72.5986 233.52 72.5986C233.567 72.5986 233.614 72.5868 233.661 72.5632C233.839 72.5043 233.898 72.3038 233.815 72.1388ZM41.3962 66.1496C41.2545 66.0317 41.0537 66.0553 40.9356 66.2086C40.4278 66.857 39.9199 67.5408 39.4239 68.2482C39.3176 68.4015 39.3648 68.6019 39.5065 68.708C39.5656 68.7434 39.6247 68.7669 39.6955 68.7669C39.8018 68.7669 39.8963 68.7198 39.9672 68.6255C40.4514 67.9299 40.9474 67.2461 41.4553 66.6212C41.5616 66.4679 41.538 66.2675 41.3962 66.1496ZM231.099 67.8238C231.016 67.7177 230.933 67.6233 230.862 67.5172C230.414 66.9631 229.929 66.4208 229.421 65.8903C229.292 65.7606 229.091 65.7606 228.961 65.8785C228.831 66.0081 228.831 66.2086 228.949 66.3383C229.445 66.8452 229.917 67.3758 230.354 67.9181C230.437 68.0124 230.508 68.1185 230.591 68.2128C230.662 68.2953 230.756 68.3425 230.851 68.3425C230.921 68.3425 230.992 68.3189 231.051 68.2718C231.181 68.1774 231.205 67.9652 231.099 67.8238ZM44.845 62.483C44.7268 62.3533 44.5143 62.3416 44.3843 62.4712C43.7702 63.0489 43.1678 63.6502 42.5891 64.2751C42.471 64.4047 42.471 64.617 42.6127 64.7349C42.6718 64.7938 42.7545 64.8174 42.8371 64.8174C42.9316 64.8174 43.0143 64.782 43.0734 64.7113C43.6403 64.0982 44.2308 63.5087 44.8331 62.9428C44.9631 62.8131 44.9749 62.6127 44.845 62.483ZM227.555 64.1572C226.918 63.6148 226.244 63.0843 225.548 62.5773C225.406 62.4712 225.193 62.5066 225.087 62.6481C224.981 62.7896 225.016 63.0018 225.158 63.1079C225.843 63.6031 226.504 64.1218 227.118 64.6523C227.177 64.7113 227.26 64.7349 227.331 64.7349C227.425 64.7349 227.52 64.6995 227.579 64.617C227.709 64.4755 227.697 64.2751 227.555 64.1572ZM223.422 61.1744C222.784 60.7853 222.111 60.408 221.426 60.0544C221.355 60.019 221.272 59.9718 221.201 59.9365C221.036 59.8539 220.847 59.9129 220.764 60.0779C220.682 60.243 220.741 60.4316 220.906 60.5142C220.977 60.5495 221.06 60.5967 221.13 60.632C221.804 60.9857 222.453 61.3512 223.091 61.7403C223.15 61.7756 223.197 61.7874 223.256 61.7874C223.363 61.7874 223.469 61.7285 223.54 61.6342C223.634 61.4691 223.575 61.2687 223.422 61.1744ZM48.8369 59.3941C48.7306 59.2409 48.5299 59.2055 48.3881 59.2998C47.6795 59.7714 46.9827 60.2784 46.3331 60.7971C46.1914 60.915 46.1677 61.1154 46.274 61.2569C46.3331 61.3394 46.4394 61.3866 46.5339 61.3866C46.6047 61.3866 46.6756 61.363 46.7347 61.3159C47.3842 60.8089 48.0574 60.3137 48.7543 59.8421C48.896 59.7478 48.9314 59.5474 48.8369 59.3941ZM218.922 58.8164C218.142 58.4627 217.363 58.1208 216.595 57.8025C216.43 57.7318 216.241 57.8143 216.17 57.9794C216.099 58.1444 216.182 58.3331 216.347 58.4038C217.103 58.7103 217.882 59.0522 218.65 59.4059C218.697 59.4295 218.745 59.4413 218.792 59.4413C218.91 59.4413 219.028 59.3706 219.087 59.2527C219.158 59.0876 219.087 58.8872 218.922 58.8164ZM53.2305 56.9301C53.1478 56.765 52.9589 56.7061 52.7935 56.7768C52.0258 57.1541 51.2699 57.5549 50.5495 57.9676C50.3959 58.0619 50.3369 58.2505 50.4314 58.4156C50.4904 58.5217 50.5967 58.5806 50.7148 58.5806C50.7739 58.5806 50.8211 58.5689 50.8802 58.5335C51.5888 58.1326 52.3329 57.7318 53.0888 57.3663C53.2423 57.2838 53.3132 57.0834 53.2305 56.9301ZM214.221 56.9065C213.418 56.6236 212.603 56.3642 211.8 56.1402C211.623 56.093 211.446 56.1873 211.398 56.3642C211.351 56.541 211.446 56.7179 211.623 56.765C212.414 56.989 213.217 57.2484 214.009 57.5196C214.044 57.5314 214.079 57.5432 214.115 57.5432C214.245 57.5432 214.375 57.4606 214.422 57.3191C214.481 57.1423 214.398 56.9655 214.221 56.9065ZM57.9193 55.0555C57.8603 54.8787 57.6831 54.7962 57.5059 54.8433C56.7028 55.1027 55.8997 55.3974 55.1202 55.7275C54.9549 55.7983 54.8722 55.9869 54.943 56.152C54.9903 56.2817 55.1202 56.3524 55.2501 56.3524C55.2974 56.3524 55.3328 56.3406 55.38 56.3288C56.1477 56.0105 56.939 55.7275 57.7303 55.4682C57.8721 55.421 57.9666 55.2324 57.9193 55.0555ZM209.343 55.4917C208.528 55.3031 207.69 55.1381 206.851 54.9966C206.674 54.9612 206.509 55.0909 206.473 55.2677C206.438 55.4446 206.568 55.6096 206.745 55.645C207.572 55.7865 208.399 55.9515 209.202 56.1402C209.225 56.1402 209.249 56.152 209.273 56.152C209.426 56.152 209.556 56.0459 209.591 55.8926C209.627 55.7158 209.521 55.5389 209.343 55.4917ZM204.336 54.6311C203.521 54.5368 202.694 54.4543 201.808 54.3835C201.631 54.3717 201.466 54.5014 201.454 54.69C201.442 54.8669 201.572 55.0319 201.761 55.0437C202.647 55.1145 203.462 55.1852 204.265 55.2795C204.277 55.2795 204.288 55.2795 204.3 55.2795C204.466 55.2795 204.607 55.1616 204.619 54.9966C204.643 54.8197 204.513 54.6547 204.336 54.6311ZM199.281 54.242C198.749 54.2185 198.23 54.1949 197.722 54.1713H197.686C197.367 54.1595 197.06 54.1477 196.765 54.1359C196.588 54.1241 196.434 54.2656 196.423 54.4425C196.411 54.6193 196.552 54.7726 196.73 54.7844C197.037 54.7962 197.344 54.8079 197.663 54.8197H197.698C198.206 54.8433 198.726 54.8669 199.257 54.8905H199.269C199.446 54.8905 199.588 54.749 199.6 54.5839C199.6 54.4071 199.458 54.242 199.281 54.242ZM62.8207 53.8648C62.7853 53.6879 62.6199 53.57 62.4428 53.6054C61.5924 53.7587 60.7539 53.9473 59.9626 54.1477C59.7854 54.1949 59.6791 54.3717 59.7263 54.5486C59.7618 54.7018 59.8917 54.7962 60.0452 54.7962C60.0689 54.7962 60.1043 54.7962 60.1279 54.7844C60.9074 54.5839 61.7341 54.4071 62.5727 54.2538C62.7262 54.2185 62.8444 54.0416 62.8207 53.8648ZM194.249 53.9827C193.305 53.9119 192.501 53.8058 191.781 53.6761C191.604 53.6408 191.427 53.7587 191.403 53.9355C191.368 54.1124 191.486 54.2774 191.663 54.3128C192.407 54.4425 193.234 54.5486 194.202 54.6311C194.214 54.6311 194.226 54.6311 194.226 54.6311C194.391 54.6311 194.533 54.5014 194.556 54.3364C194.556 54.1477 194.427 53.9945 194.249 53.9827ZM67.4623 52.9098C66.5411 53.0041 65.7261 53.0984 64.9466 53.2045C64.7695 53.2281 64.6396 53.3932 64.6632 53.57C64.6868 53.7351 64.8285 53.853 64.9821 53.853C64.9939 53.853 65.0175 53.853 65.0293 53.853C65.797 53.7469 66.6237 53.6526 67.5214 53.57C67.6985 53.5464 67.8284 53.3932 67.8166 53.2163C67.8048 53.0277 67.6395 52.898 67.4623 52.9098ZM189.395 53.0277C189.041 52.8862 188.687 52.733 188.344 52.5679C187.943 52.3675 187.553 52.1553 187.163 51.9431C187.009 51.8605 186.809 51.9077 186.714 52.0727C186.632 52.226 186.679 52.4264 186.844 52.5207C187.234 52.733 187.635 52.9452 188.037 53.1574C188.391 53.3342 188.769 53.4993 189.147 53.6526C189.183 53.6643 189.23 53.6761 189.265 53.6761C189.395 53.6761 189.525 53.5936 189.572 53.4639C189.655 53.2753 189.572 53.0867 189.395 53.0277ZM72.5054 52.4854C71.9976 52.5325 71.5015 52.5679 70.9937 52.6033H70.9819C70.6512 52.6269 70.3205 52.6622 69.9898 52.6858C69.8126 52.6976 69.6709 52.8626 69.6945 53.0395C69.7063 53.2163 69.8481 53.346 70.0252 53.346C70.037 53.346 70.037 53.346 70.0488 53.346C70.3795 53.3224 70.7102 53.2871 71.0409 53.2635H71.0527C71.5606 53.2281 72.0685 53.181 72.5645 53.1456C72.7417 53.1338 72.8834 52.9688 72.8598 52.7919C72.8361 52.6033 72.6826 52.4736 72.5054 52.4854ZM77.8675 52.226C77.8438 52.0492 77.6785 51.9195 77.5013 51.9548C76.7337 52.0727 75.9187 52.1671 75.0093 52.2614C74.8321 52.285 74.7022 52.4382 74.714 52.6151C74.7376 52.7801 74.8794 52.9098 75.0329 52.9098C75.0447 52.9098 75.0565 52.9098 75.0683 52.9098C75.9778 52.8155 76.8045 52.7094 77.584 52.5915C77.773 52.5679 77.8911 52.4029 77.8675 52.226ZM82.8043 51.1414C82.7571 50.9645 82.5681 50.8702 82.4027 50.9173C81.6232 51.1414 80.8083 51.3418 79.9698 51.5068C79.7926 51.5422 79.6745 51.719 79.7099 51.8959C79.7454 52.0492 79.8753 52.1553 80.0288 52.1553C80.0524 52.1553 80.0761 52.1553 80.0997 52.1435C80.95 51.9666 81.7768 51.7662 82.5681 51.5422C82.7453 51.495 82.8515 51.3182 82.8043 51.1414ZM185.037 50.658C184.34 50.1982 183.655 49.7148 183.006 49.2078C182.864 49.1017 182.663 49.1253 182.545 49.2668C182.439 49.4083 182.462 49.6087 182.604 49.7266C183.277 50.2453 183.974 50.7405 184.683 51.2003C184.742 51.2357 184.801 51.2592 184.86 51.2592C184.966 51.2592 185.073 51.2003 185.132 51.106C185.226 50.9527 185.191 50.7523 185.037 50.658ZM87.5168 49.3611C87.4459 49.1961 87.2451 49.1253 87.0798 49.1961C86.3239 49.538 85.5444 49.8681 84.7767 50.151C84.6113 50.21 84.5169 50.3986 84.5877 50.5754C84.635 50.7051 84.7649 50.7877 84.8948 50.7877C84.9302 50.7877 84.9657 50.7759 85.0129 50.7641C85.8042 50.4693 86.5955 50.151 87.3632 49.7855C87.5168 49.7148 87.5876 49.5262 87.5168 49.3611ZM91.9339 46.9206C91.8394 46.7674 91.6387 46.7202 91.4851 46.8027C90.9064 47.1446 90.2922 47.4983 89.6781 47.852C89.56 47.9228 89.4301 47.9935 89.312 48.0642C89.1584 48.1468 89.0994 48.3472 89.182 48.5123C89.2411 48.6184 89.3592 48.6773 89.4655 48.6773C89.5246 48.6773 89.5718 48.6655 89.619 48.6419C89.749 48.5712 89.8671 48.5005 89.997 48.4297C90.6229 48.076 91.2253 47.7223 91.8158 47.3687C91.9694 47.2743 92.0284 47.0739 91.9339 46.9206ZM181.081 47.6162C180.49 47.0857 179.899 46.5198 179.274 45.8949C179.144 45.7653 178.943 45.7653 178.813 45.8949C178.683 46.0246 178.683 46.2251 178.813 46.3547C179.451 46.9914 180.053 47.5691 180.655 48.1114C180.714 48.1704 180.797 48.1939 180.868 48.1939C180.962 48.1939 181.045 48.1586 181.116 48.0878C181.222 47.9346 181.21 47.7341 181.081 47.6162ZM96.1739 44.1854C96.0676 44.0322 95.8669 43.9968 95.7251 44.1029C95.0283 44.5863 94.3433 45.0343 93.6347 45.4823C93.4811 45.5766 93.4339 45.777 93.5402 45.9303C93.5992 46.0246 93.7055 46.0836 93.8118 46.0836C93.8709 46.0836 93.9299 46.0718 93.989 46.0364C94.6976 45.5766 95.3944 45.1168 96.1031 44.6334C96.233 44.5391 96.2684 44.3387 96.1739 44.1854ZM177.537 44.0675C177.171 43.6667 176.793 43.2541 176.427 42.865C176.226 42.6528 176.037 42.4288 175.837 42.2166C175.719 42.0869 175.506 42.0751 175.376 42.193C175.246 42.3109 175.234 42.5231 175.352 42.6528C175.553 42.865 175.754 43.089 175.943 43.3012C176.309 43.7021 176.687 44.1147 177.053 44.5155C177.112 44.5863 177.207 44.6217 177.289 44.6217C177.372 44.6217 177.443 44.5981 177.514 44.5391C177.655 44.4094 177.655 44.1972 177.537 44.0675ZM100.26 41.238C100.154 41.0965 99.9415 41.0612 99.7998 41.1673C99.1738 41.6389 98.4888 42.134 97.7684 42.6646C97.6266 42.7707 97.5912 42.9711 97.6975 43.1244C97.7566 43.2187 97.8629 43.2541 97.9692 43.2541C98.04 43.2541 98.0991 43.2305 98.1581 43.1951C98.8786 42.6764 99.5636 42.1694 100.19 41.6978C100.331 41.5799 100.367 41.3795 100.26 41.238ZM174.1 40.3656C173.463 39.7054 172.884 39.1159 172.305 38.5735C172.175 38.4439 171.963 38.4557 171.845 38.5853C171.715 38.715 171.727 38.9272 171.856 39.0451C172.423 39.5875 173.002 40.1652 173.628 40.8136C173.687 40.8843 173.782 40.9197 173.864 40.9197C173.947 40.9197 174.03 40.8843 174.089 40.8254C174.23 40.6957 174.23 40.4953 174.1 40.3656ZM104.323 38.2552C104.217 38.1138 104.016 38.0784 103.863 38.1727C103.237 38.6207 102.587 39.0923 101.819 39.6582C101.678 39.7643 101.642 39.9647 101.749 40.118C101.808 40.2005 101.914 40.2477 102.008 40.2477C102.079 40.2477 102.15 40.2241 102.209 40.1887C102.977 39.6228 103.626 39.1512 104.241 38.715C104.394 38.6089 104.43 38.3967 104.323 38.2552ZM170.416 36.8758C169.766 36.3335 169.081 35.803 168.408 35.3078C168.266 35.2017 168.053 35.2371 167.947 35.3785C167.841 35.52 167.876 35.7322 168.018 35.8383C168.679 36.3217 169.353 36.8405 169.99 37.371C170.049 37.4182 170.132 37.4417 170.203 37.4417C170.297 37.4417 170.392 37.4064 170.451 37.3238C170.569 37.2059 170.545 36.9937 170.416 36.8758ZM108.54 35.4729C108.445 35.3196 108.244 35.2724 108.091 35.3668C107.37 35.8148 106.674 36.2628 105.965 36.7344C105.811 36.8405 105.776 37.0409 105.87 37.1824C105.93 37.2767 106.036 37.3238 106.142 37.3238C106.201 37.3238 106.272 37.3003 106.319 37.2649C107.016 36.7933 107.713 36.3453 108.433 35.8973C108.587 35.8266 108.634 35.6261 108.54 35.4729ZM112.91 32.9499C112.827 32.7848 112.626 32.7259 112.461 32.8202C112.354 32.8791 112.236 32.9381 112.13 32.997C111.492 33.3507 110.866 33.7044 110.252 34.0581C110.099 34.1524 110.04 34.3528 110.134 34.5061C110.193 34.6122 110.299 34.6712 110.418 34.6712C110.477 34.6712 110.536 34.6594 110.583 34.624C111.185 34.2703 111.811 33.9166 112.449 33.5629C112.555 33.504 112.662 33.445 112.768 33.3861C112.933 33.3036 112.992 33.1031 112.91 32.9499ZM166.294 33.893C165.585 33.4568 164.841 33.0206 164.097 32.6198C163.932 32.5372 163.743 32.5962 163.648 32.7494C163.565 32.9145 163.624 33.1031 163.778 33.1975C164.522 33.5983 165.242 34.0109 165.939 34.4472C165.998 34.4825 166.057 34.4943 166.116 34.4943C166.223 34.4943 166.329 34.4354 166.4 34.3411C166.494 34.1996 166.447 33.9874 166.294 33.893ZM117.551 30.981C117.492 30.8159 117.303 30.7216 117.138 30.7806C116.311 31.0753 115.52 31.3936 114.764 31.712C114.599 31.7827 114.528 31.9713 114.599 32.1364C114.658 32.2661 114.776 32.3368 114.894 32.3368C114.941 32.3368 114.976 32.325 115.024 32.3132C115.756 31.9949 116.535 31.6884 117.35 31.3936C117.528 31.3347 117.61 31.146 117.551 30.981ZM161.817 31.4879C161.073 31.146 160.282 30.8041 159.479 30.4858C159.314 30.4151 159.125 30.4976 159.054 30.6627C158.983 30.8277 159.066 31.0164 159.231 31.0871C160.022 31.4054 160.79 31.7355 161.534 32.0774C161.581 32.101 161.628 32.1128 161.676 32.1128C161.806 32.1128 161.924 32.0421 161.971 31.9242C162.054 31.7591 161.983 31.5705 161.817 31.4879ZM122.394 29.5544C122.346 29.3776 122.169 29.2715 121.992 29.3186C121.153 29.5309 120.327 29.7549 119.547 29.9907C119.37 30.0378 119.276 30.2265 119.323 30.3915C119.37 30.533 119.5 30.6273 119.642 30.6273C119.677 30.6273 119.701 30.6273 119.736 30.6155C120.516 30.3797 121.331 30.1557 122.157 29.9553C122.334 29.9081 122.441 29.7313 122.394 29.5544ZM157.105 29.6016C156.786 29.4955 156.455 29.3776 156.125 29.2715C155.664 29.1182 155.18 28.9767 154.672 28.8353C154.495 28.7881 154.318 28.8942 154.27 29.0593C154.223 29.2361 154.329 29.413 154.495 29.4601C154.979 29.5898 155.463 29.7431 155.912 29.8846C156.243 29.9907 156.562 30.0968 156.881 30.2147C156.916 30.2265 156.951 30.2382 156.987 30.2382C157.117 30.2382 157.247 30.1557 157.294 30.0142C157.365 29.8374 157.282 29.6605 157.105 29.6016ZM127.342 28.5405C127.307 28.3637 127.141 28.2458 126.964 28.2694C126.126 28.4108 125.287 28.5759 124.472 28.741C124.295 28.7763 124.177 28.9532 124.224 29.13C124.26 29.2833 124.39 29.3894 124.543 29.3894C124.567 29.3894 124.59 29.3894 124.614 29.3776C125.417 29.2125 126.256 29.0475 127.082 28.906C127.248 28.8942 127.366 28.7174 127.342 28.5405ZM152.204 28.234C151.4 28.0689 150.562 27.9275 149.7 27.7978C149.523 27.7742 149.357 27.8921 149.322 28.0689C149.298 28.2458 149.416 28.4108 149.593 28.4462C150.444 28.5759 151.271 28.7174 152.062 28.8824C152.085 28.8824 152.109 28.8942 152.133 28.8942C152.286 28.8942 152.416 28.7881 152.452 28.6348C152.499 28.4462 152.381 28.2694 152.204 28.234ZM132.35 27.8803C132.326 27.7035 132.173 27.5738 131.996 27.5856C131.157 27.6681 130.307 27.7742 129.48 27.8921C129.303 27.9157 129.173 28.0807 129.196 28.2576C129.22 28.4226 129.362 28.5405 129.515 28.5405C129.527 28.5405 129.551 28.5405 129.563 28.5405C130.389 28.4344 131.228 28.3283 132.055 28.2458C132.232 28.2222 132.362 28.0571 132.35 27.8803ZM147.172 27.4912C146.357 27.4087 145.495 27.338 144.645 27.2908C144.468 27.279 144.314 27.4205 144.302 27.5974C144.29 27.7742 144.432 27.9275 144.609 27.9393C145.46 27.9864 146.298 28.0571 147.113 28.1397C147.125 28.1397 147.137 28.1397 147.149 28.1397C147.314 28.1397 147.456 28.01 147.479 27.8449C147.491 27.6681 147.361 27.503 147.172 27.4912ZM137.039 27.2319C136.2 27.2672 135.35 27.3144 134.511 27.3733C134.334 27.3851 134.192 27.5384 134.204 27.727C134.216 27.9039 134.358 28.0336 134.535 28.0336H134.558C135.385 27.9746 136.236 27.9275 137.074 27.8921C137.251 27.8803 137.393 27.727 137.393 27.5502C137.381 27.3616 137.228 27.2201 137.039 27.2319ZM142.117 27.1847C141.527 27.1729 140.913 27.1611 140.31 27.1611C140.074 27.1611 139.826 27.1611 139.578 27.1611C139.401 27.1611 139.247 27.3144 139.259 27.4912C139.259 27.6681 139.413 27.8214 139.59 27.8096C139.826 27.8096 140.062 27.8096 140.298 27.8096C140.901 27.8096 141.503 27.8214 142.105 27.8331H142.117C142.294 27.8331 142.436 27.6917 142.448 27.5148C142.436 27.338 142.294 27.1847 142.117 27.1847Z" fill="#FFAEBD"/>
<path d="M238.054 176.643C237.841 176.89 237.617 177.138 237.404 177.385H236.648C236.648 177.303 236.672 177.22 236.731 177.15C237.003 176.843 237.286 176.537 237.558 176.218C237.676 176.077 237.877 176.065 238.018 176.183C238.16 176.301 238.172 176.513 238.054 176.643Z" fill="#FFE7EB"/>
<path d="M24.8021 177.385C24.8021 177.385 2.78711 166.303 2.78711 135.544C2.78711 95.1642 22.7707 95.2467 31.605 85.756C39.3056 77.4796 39.7307 65.4541 55.557 58.569C67.6393 53.3108 77.9263 57.7437 91.0479 50.2808C101.122 44.551 103.343 41.0495 113.476 35.4258C123.61 29.8021 144.231 28.2813 155.239 31.9007C173.888 38.0431 172.872 47.8403 187.08 55.0321C194.816 58.958 204.052 54.0771 220.126 62.4949C240.145 72.976 231.878 92.877 233.697 98.7482C237.724 111.788 252.098 113.45 251.165 141.061C250.491 160.786 233.567 177.362 233.567 177.362H24.8021V177.385Z" fill="#FFE7EB"/>
<path d="M17.9875 177.385C17.9875 177.385 11.4208 173.612 13.6176 165.018C14.905 159.96 20.2197 156.27 25.4282 156.741C25.4282 156.741 17.5624 142.641 30.3887 136.687C45.152 129.837 48.6952 144.999 48.6952 144.999C50.8919 143.077 54.2816 142.641 56.9036 143.926C59.5255 145.223 61.2262 148.17 61.0373 151.082C61.0373 151.082 65.4545 148.383 71.2535 150.87C74.4542 152.25 76.7336 156.093 75.4108 159.312C79.1666 156.836 86.4892 158.015 90.7056 163.733C94.8039 169.297 93.0677 177.385 93.0677 177.385H17.9875Z" fill="#B4ACC6"/>
<path d="M144.373 164.664C144.255 160.679 148.081 157.025 152.073 157.319C151.412 154.997 152.581 149.573 159.03 145.966C165.254 142.488 173.663 144.103 179.167 148.63C182.497 146.591 187.08 146.826 190.174 149.196C189.454 148.112 189.702 146.508 190.718 145.683C191.722 144.858 193.351 144.94 194.273 145.86C195.005 141.651 197.438 137.772 200.887 135.261C204.347 132.75 208.8 131.653 213.028 132.266C216.028 132.702 218.98 134.035 220.917 136.357C222.854 138.692 223.598 142.099 222.358 144.858C226.752 143.596 236.307 147.157 236.921 161.41C237.452 173.518 228.689 177.362 228.689 177.362H138.834C134.003 174.568 137.782 164.711 144.373 164.664Z" fill="#B4ACC6"/>
<g clip-path="url(#clip0_15:2221)">
<path d="M110.592 107.988C110.696 96.1656 110.201 156.058 109.628 174.384C109.575 176.104 109.497 177.877 108.703 179.467C107.908 181.057 106.201 182.452 104.286 182.478C101.525 182.504 98.255 176.547 97.1868 174.318C91.7806 163.018 75.9529 128.634 75.9529 128.634C71.4977 115.704 74.9889 117.502 77.5943 103.426C78.6886 97.5081 81.1897 91.3951 86.4656 87.55C91.5201 83.8483 100.899 82.8707 105.146 87.7585C109.992 93.3502 110.539 114.883 110.592 107.988Z" fill="#DFE2EA"/>
<path d="M104.271 182.999C104.284 182.999 104.284 182.999 104.297 182.999C106.55 182.973 108.361 181.331 109.182 179.701C109.976 178.111 110.055 176.404 110.146 174.748L110.159 174.409C111.188 155.236 111.123 108.456 111.123 107.987C111.123 107.7 110.888 107.466 110.602 107.466C110.315 107.466 110.081 107.7 110.081 107.987C110.081 108.456 110.146 155.21 109.117 174.357L109.104 174.696C109.025 176.247 108.947 177.837 108.244 179.232C107.579 180.575 106.094 181.93 104.284 181.956H104.271C102.317 181.956 99.4767 177.89 97.6659 174.097C93.1065 164.569 81.8903 141.042 76.4451 128.425C76.3278 128.164 76.0282 128.034 75.7547 128.151C75.4941 128.268 75.3639 128.568 75.4811 128.842C80.9394 141.472 92.1555 165.012 96.715 174.553C97.0276 175.204 98.174 177.512 99.6851 179.558C101.366 181.839 102.903 182.999 104.271 182.999Z" fill="#5D7183"/>
<path d="M64.784 146.752C57.2936 157.688 48.4222 167.268 39.616 177.252C37.4926 179.663 32.7378 183.365 29.9761 179.363C28.2826 176.9 31.6566 170.644 32.9072 167.763C36.4505 159.591 41.1011 151.692 42.0911 142.777C43.1463 133.249 42.6904 99.6334 44.8268 95.7883C46.7548 92.3082 49.9464 95.671 53.7502 94.0808C59.9641 91.487 67.3634 92.0735 73.447 94.8759C77.0554 96.5443 80.3121 99.0077 82.3443 102.266C87.0601 109.839 81.8363 117.516 78.2018 124.45C74.1895 132.115 69.7082 139.57 64.784 146.752Z" fill="#DFE2EA"/>
<path d="M33.0936 181.656C36.2722 181.656 39.3986 178.293 40.0109 177.602C41.2354 176.221 42.486 174.813 43.6845 173.458C51.4355 164.738 58.7567 156.5 65.218 147.063C71.1583 138.383 76.5124 129.233 81.1109 119.9C81.2412 119.639 81.137 119.327 80.8764 119.196C80.6159 119.066 80.3032 119.17 80.173 119.431C75.6005 128.724 70.2725 137.822 64.3583 146.464C57.936 155.848 50.6409 164.06 42.9029 172.754C41.6914 174.109 40.4538 175.517 39.2293 176.899C37.653 178.684 35.0476 180.731 32.8852 180.6C31.8951 180.535 31.0875 180.04 30.41 179.062C29.1334 177.198 31.374 172.324 32.7288 169.417C32.9763 168.883 33.2108 168.387 33.3932 167.957C34.2009 166.093 35.0867 164.203 35.9465 162.378C38.8515 156.187 41.8477 149.787 42.6163 142.827C43.2676 136.962 43.4761 128.633 43.6845 120.578C43.8669 113.201 44.0623 105.576 44.5834 99.6711C44.6094 99.3843 44.401 99.1367 44.1144 99.1106C43.8278 99.0845 43.5803 99.2931 43.5542 99.5798C43.0201 105.523 42.8378 113.174 42.6424 120.565C42.4469 128.594 42.2385 136.897 41.5872 142.723C40.8316 149.514 37.8745 155.835 35.0086 161.948C34.1488 163.773 33.2629 165.676 32.4422 167.553C32.2599 167.97 32.0384 168.465 31.7909 168.987C30.2537 172.297 27.948 177.316 29.5633 179.662C30.4231 180.9 31.5173 181.578 32.8331 181.656C32.9112 181.656 33.0024 181.656 33.0936 181.656Z" fill="#5D7183"/>
<path d="M110.73 106.084C111.785 81.3065 116.383 57.8841 136.705 39.9099C141.239 35.9084 145.095 30.9815 147.114 25.1682C148.351 21.5838 148.99 17.5172 147.387 14.0762C145.212 9.46205 139.558 7.42872 134.465 7.67637C121.633 8.30201 106.027 24.699 95.4751 30.043C69.773 43.0772 50.4931 55.7595 44.0709 96.9736C44.0709 96.9736 61.071 101.536 79.6344 103.373C94.7196 104.846 110.73 106.084 110.73 106.084Z" fill="white"/>
<path d="M121.006 56.2552C121.449 56.2552 121.879 56.2421 122.309 56.2161C122.596 56.203 122.817 55.9554 122.804 55.6686C122.791 55.3819 122.544 55.1603 122.257 55.1733C115.874 55.4992 109.425 53.2964 104.579 49.1255C99.7334 44.9545 96.5939 38.9067 95.9817 32.533C95.9556 32.2462 95.6951 32.0377 95.4085 32.0637C95.1219 32.0898 94.9134 32.3505 94.9395 32.6372C95.5908 39.2716 98.8476 45.5671 103.902 49.9206C108.618 53.9872 114.78 56.2552 121.006 56.2552Z" fill="#5D7183"/>
<path d="M148.416 32.6372C145.811 32.8197 143.271 31.1774 142.098 28.8834C140.926 26.5894 141.017 23.774 142.007 21.3887C140.053 22.4575 137.578 22.5357 135.572 21.5973C132.81 20.3199 132.589 18.052 131.546 15.5364C130.908 18.7428 127.703 21.2714 124.395 21.1802C121.086 21.0889 118.077 18.3778 117.66 15.1323C116.904 15.9404 115.588 16.0708 114.585 15.6016C113.582 15.1323 112.892 14.1678 112.514 13.1381C111.693 10.8571 112.436 8.11992 114.286 6.51672C116.136 4.92654 118.988 4.57462 121.164 5.68253C121.242 3.36244 122.844 1.14663 125.059 0.325474C128.016 -0.769398 131.677 0.912013 133.162 3.57099C135.428 1.34214 139.206 0.781671 142.02 2.26757C144.821 3.75347 146.423 7.16843 145.759 10.2575C148.664 9.97078 151.66 11.3524 153.301 13.7116C155.255 16.5139 155.62 21.6885 152.09 23.4351C153.692 24.3084 154.63 26.2375 154.304 28.0231C153.888 30.4214 150.748 32.4678 148.416 32.6372Z" fill="#FA758E"/>
<path d="M110.728 106.593C110.937 106.593 110.976 106.554 111.08 106.463C111.184 106.372 111.249 106.241 111.249 106.098C111.458 101.106 111.797 96.6743 112.279 92.5425C112.318 92.2557 112.109 91.995 111.823 91.969C111.536 91.9429 111.275 92.1384 111.249 92.4252C110.793 96.4397 110.455 100.728 110.246 105.525C107.354 105.303 93.2202 104.182 79.6852 102.839C63.0498 101.197 47.4826 97.313 44.6688 96.5831C47.665 77.6965 53.488 63.9324 62.9456 53.2705C72.1165 42.9344 84.1665 36.3521 95.7213 30.4997C99.421 28.6228 103.72 25.4164 108.266 22.0145C116.682 15.719 126.243 8.57623 134.463 8.18521C139.114 7.96362 144.768 9.76234 146.891 14.2982C148.194 17.0745 148.103 20.672 146.605 24.9993C144.794 30.226 141.342 35.1138 136.352 39.5324C130.047 45.1111 125.084 51.3023 121.163 58.4711C117.672 64.8709 115.092 71.8833 113.295 79.9384C113.23 80.2252 113.412 80.4989 113.685 80.5641C113.972 80.6292 114.246 80.4468 114.311 80.173C116.082 72.2091 118.623 65.275 122.075 58.9794C125.931 51.9149 130.829 45.8149 137.043 40.3275C142.175 35.7916 145.719 30.7604 147.595 25.3643C149.184 20.7762 149.262 16.9181 147.842 13.8811C146.774 11.6132 144.833 9.78841 142.214 8.6023C139.896 7.54653 137.134 7.05123 134.411 7.18157C125.866 7.59867 116.174 14.8326 107.615 21.2194C103.095 24.5822 98.8348 27.7756 95.2133 29.6004C83.5672 35.5049 71.4261 42.1393 62.1249 52.6188C52.4459 63.5153 46.5316 77.5923 43.5224 96.922C43.4833 97.1827 43.6397 97.4433 43.9002 97.5085C44.0696 97.5606 61.1479 102.097 79.5419 103.921C87.358 104.69 95.3957 105.394 100.776 105.85C103.824 106.111 106.351 106.307 107.928 106.437C108.8 106.502 109.478 106.554 109.947 106.593C110.351 106.58 110.585 106.593 110.728 106.593Z" fill="#5D7183"/>
<path d="M113.69 82.7832L135.631 73.9079C134.922 70.6467 135.132 67.1513 136.446 63.8316C139.906 55.0246 149.75 50.7382 158.396 54.263C167.042 57.7877 171.25 67.8152 167.789 76.6222C164.329 85.4292 154.485 89.7155 145.839 86.1908C142.245 84.7262 139.427 82.1388 137.596 78.9851L115.655 87.8604C114.285 88.4072 112.732 87.7237 112.185 86.3275C111.649 84.9117 112.32 83.33 113.69 82.7832ZM147.708 81.2698C153.757 83.7401 160.648 80.7328 163.064 74.5718C165.479 68.4108 162.537 61.3906 156.488 58.9301C150.44 56.4598 143.548 59.4671 141.133 65.6281C138.717 71.7891 141.67 78.8093 147.708 81.2698Z" fill="#FA758E"/>
<path d="M129.385 37.9814C129.932 37.9814 130.48 37.825 130.936 37.5252C131.17 37.3688 131.235 37.0429 131.079 36.7953C130.923 36.5607 130.597 36.4955 130.349 36.6519C129.763 37.056 128.903 37.0299 128.343 36.5998C127.783 36.1696 127.536 35.3354 127.77 34.6707C127.861 34.397 127.718 34.0972 127.444 34.0059C127.171 33.9147 126.871 34.0581 126.78 34.3318C126.402 35.4267 126.793 36.7301 127.705 37.434C128.174 37.7989 128.773 37.9814 129.385 37.9814Z" fill="#5D7183"/>
<path d="M117.583 85.5304C117.818 85.5304 118.026 85.374 118.091 85.1394C118.313 84.2921 117.818 83.3146 116.893 82.7802C116.137 82.337 115.264 82.2197 114.496 82.1024C113.792 81.9981 113.076 81.8939 112.346 81.7896C106.145 80.9033 99.7362 79.9909 94.5384 77.0321C90.1093 74.5035 87.061 70.0067 86.1751 64.6887C85.2763 59.3056 86.7353 53.9747 90.1744 50.0774C90.3698 49.8559 90.3437 49.53 90.1223 49.3475C89.9008 49.152 89.5752 49.1781 89.3928 49.3997C85.7452 53.5315 84.2081 59.1753 85.146 64.8712C86.0839 70.502 89.3146 75.2595 94.0173 77.9445C99.3844 81.0075 105.898 81.933 112.19 82.8323C112.906 82.9366 113.623 83.0409 114.339 83.1451C115.056 83.2494 115.785 83.3537 116.372 83.6926C116.814 83.9532 117.205 84.4485 117.088 84.8917C117.01 85.1654 117.179 85.4522 117.466 85.5304C117.492 85.5173 117.531 85.5304 117.583 85.5304Z" fill="#5D7183"/>
</g>
<path d="M172.211 156.124C172.184 148.855 172.157 146.918 172.135 139.648L176.475 139.735C176.475 139.735 176.535 143.448 176.535 150.041C176.535 150.041 175.99 151.421 175.31 152.346C173.736 154.501 172.211 156.124 172.211 156.124Z" fill="white"/>
<path d="M176.536 150.355C176.383 150.355 176.264 150.236 176.264 150.084C176.264 143.973 176.204 141.029 176.204 141.002C176.198 140.85 176.318 140.731 176.471 140.726C176.623 140.72 176.743 140.839 176.748 140.991C176.748 141.018 176.808 143.968 176.808 150.084C176.808 150.23 176.688 150.355 176.536 150.355Z" fill="#5D7183"/>
<path d="M172.212 156.395C172.059 156.395 171.94 156.276 171.94 156.124C171.929 152.714 171.912 150.625 171.901 148.601C171.891 146.576 171.874 144.487 171.863 141.077C171.863 140.926 171.983 140.807 172.136 140.807C172.288 140.807 172.408 140.926 172.408 141.077C172.419 144.487 172.435 146.576 172.446 148.601C172.457 150.625 172.473 152.714 172.484 156.124C172.484 156.276 172.364 156.395 172.212 156.395Z" fill="#5D7183"/>
<path d="M156.448 140.509C155.283 140.509 154.172 140.445 153.323 139.757C152.354 138.978 152.588 137.067 153.219 136.147L170.126 106.102C171.057 104.445 172.544 102.269 174.7 102.459C176.372 102.605 177.477 104.099 178.419 105.69C179.938 108.245 181.446 110.859 182.906 113.387C184.604 116.331 186.363 119.379 188.144 122.339C188.857 123.53 189.576 124.753 190.267 125.939C190.991 127.167 191.737 128.445 192.478 129.673C192.712 130.069 192.99 130.496 193.284 130.956C194.574 132.959 196.175 135.454 195.984 137.392C195.974 137.478 195.974 137.565 195.968 137.657C195.963 137.787 195.952 137.917 195.935 138.052C195.576 140.629 191.013 140.531 188.285 140.477C187.931 140.472 187.626 140.461 187.36 140.461H185.672C183.194 140.461 180.63 140.461 178.163 140.466L156.519 140.515C156.497 140.509 156.47 140.509 156.448 140.509ZM174.439 102.989C172.707 102.989 171.422 104.9 170.6 106.367L153.688 136.418C153.682 136.423 153.677 136.434 153.677 136.439C153.181 137.159 152.974 138.772 153.671 139.335C154.396 139.92 155.436 139.968 156.525 139.963L178.168 139.914C180.635 139.909 183.2 139.909 185.677 139.909H187.365C187.632 139.909 187.959 139.914 188.302 139.925C190.681 139.974 195.108 140.071 195.402 137.971C195.418 137.857 195.424 137.744 195.429 137.619C195.435 137.527 195.44 137.43 195.451 137.332C195.625 135.584 194.079 133.175 192.832 131.243C192.538 130.783 192.255 130.35 192.015 129.949C191.275 128.715 190.529 127.443 189.804 126.209C189.113 125.029 188.394 123.806 187.681 122.615C185.9 119.644 184.142 116.602 182.437 113.652C180.978 111.124 179.47 108.51 177.951 105.961C177.079 104.494 176.078 103.125 174.651 102.995C174.58 102.989 174.509 102.989 174.439 102.989Z" fill="#5D7183"/>
<path d="M190.534 134.16C190.545 132.141 188.863 130.035 187.904 128.433C186.804 126.604 185.721 124.715 184.615 122.869C182.111 118.685 179.726 114.431 177.237 110.236C176.606 109.175 175.8 107.995 174.575 107.887C173.094 107.757 172.038 109.24 171.302 110.544C167.028 118.144 162.748 125.743 158.474 133.342C157.663 134.712 157.881 135.313 158.507 135.816C159.133 136.319 159.999 136.341 160.799 136.341C166.271 136.33 171.743 136.319 177.216 136.308C179.508 136.303 181.898 136.303 184.191 136.303C185.895 136.303 190.06 136.401 190.491 134.652C190.534 134.495 190.529 134.327 190.534 134.16Z" fill="#FA758E"/>
<path d="M172.151 117.278C172.178 116.563 172.249 115.833 172.554 115.199C172.859 114.566 173.442 114.041 174.111 114.02C174.814 113.992 175.456 114.528 175.794 115.183C176.131 115.844 176.224 116.612 176.273 117.359C176.398 119.243 176.317 121.137 176.033 123.004C175.865 124.092 175.696 125.18 175.494 126.257C175.331 127.102 175.298 128.439 174.182 128.558C173.904 128.585 173.638 128.422 173.452 128.217C172.788 127.486 172.886 126.133 172.788 125.202C172.658 123.979 172.576 122.755 172.456 121.532C172.314 120.141 172.097 118.68 172.151 117.278Z" fill="white"/>
<path d="M172.598 131.038C172.587 131.503 172.794 131.958 173.241 132.245C173.633 132.499 174.112 132.575 174.569 132.543C175.93 132.451 176.29 130.957 175.386 130.047C174.433 129.095 172.625 129.576 172.598 131.038Z" fill="white"/>
<path d="M177.378 98.9694C177.346 98.9694 177.318 98.964 177.286 98.9531C177.144 98.9044 177.073 98.7475 177.122 98.6067C178.01 96.1765 178.799 93.6759 179.464 91.1752C179.502 91.0291 179.649 90.9425 179.796 90.9858C179.943 91.0237 180.03 91.1698 179.986 91.316C179.311 93.8328 178.522 96.3443 177.629 98.7908C177.596 98.899 177.487 98.9694 177.378 98.9694Z" fill="#5D7183"/>
<path d="M174.307 98.4604C174.171 98.4604 174.052 98.3576 174.035 98.2169L173.502 93.4321C173.485 93.286 173.594 93.1507 173.741 93.1344C173.894 93.1182 174.024 93.2264 174.041 93.3726L174.574 98.1573C174.591 98.3035 174.482 98.4388 174.335 98.455C174.329 98.4604 174.318 98.4604 174.307 98.4604Z" fill="#5D7183"/>
<path d="M171.532 99.4452C171.439 99.4452 171.347 99.3965 171.298 99.3099L168.711 94.8878C168.635 94.7579 168.679 94.5955 168.809 94.5197C168.94 94.4439 169.103 94.4872 169.18 94.6171L171.766 99.0392C171.842 99.1691 171.799 99.3315 171.668 99.4073C171.63 99.4344 171.581 99.4452 171.532 99.4452Z" fill="#5D7183"/>
<defs>
<clipPath id="clip0_15:2221">
<rect width="158.069" height="183" fill="white" transform="matrix(-1 0 0 1 187.068 0)"/>
</clipPath>
</defs>
</svg>
