<svg width="68" height="20" viewBox="0 0 68 20" fill="none" xmlns="http://www.w3.org/2000/svg">
<rect width="68" height="20" rx="2" fill="#AFBED5"/>
<path d="M11.2701 11.0972V13.8723H10V6.12772H13.0483C13.9258 6.12772 14.6032 6.33285 15.0804 6.74311C15.5654 7.15336 15.8079 7.76488 15.8079 8.57765C15.8079 9.38268 15.5654 10.0058 15.0804 10.447C14.6032 10.8805 13.9258 11.0972 13.0483 11.0972H11.2701ZM11.2701 10.0058H12.8866C13.3331 10.0058 13.6679 9.94001 13.8912 9.80842C14.1221 9.67683 14.276 9.50653 14.353 9.29753C14.4377 9.08079 14.48 8.85631 14.48 8.62409C14.48 8.38413 14.4377 8.15578 14.353 7.93904C14.276 7.7223 14.1221 7.54814 13.8912 7.41655C13.6679 7.27721 13.3331 7.20755 12.8866 7.20755H11.2701V10.0058Z" fill="white"/>
<path d="M17.3293 13.8723V6.12772H22.3751V7.20755H18.611V9.44848H21.9017V10.5399H18.5994V12.7925H22.3751V13.8723H17.3293Z" fill="white"/>
<path d="M24.0948 13.8723V6.12772H25.3187L29.4062 11.8171V6.12772H30.6186V13.8723H29.4755L25.3072 8.12482V13.8723H24.0948Z" fill="white"/>
<path d="M32.4389 13.8723V6.12772H35.1408C36.3878 6.12772 37.3154 6.45283 37.9235 7.10305C38.5316 7.75327 38.8357 8.71698 38.8357 9.99419C38.8357 11.2791 38.5316 12.2467 37.9235 12.897C37.3154 13.5472 36.3878 13.8723 35.1408 13.8723H32.4389ZM33.709 12.7925H35.0138C35.8759 12.7925 36.511 12.5718 36.919 12.1306C37.3269 11.6817 37.5309 10.9695 37.5309 9.99419C37.5309 9.02661 37.3269 8.31834 36.919 7.86938C36.511 7.42042 35.8759 7.19594 35.0138 7.19594H33.709V12.7925Z" fill="white"/>
<path d="M40.3546 13.8723V6.12772H41.6362V13.8723H40.3546Z" fill="white"/>
<path d="M43.4554 13.8723V6.12772H44.6793L48.7668 11.8171V6.12772H49.9792V13.8723H48.8361L44.6678 8.12482V13.8723H43.4554Z" fill="white"/>
<path d="M55.148 14C53.978 14 53.0774 13.6749 52.4462 13.0247C51.8149 12.3745 51.4993 11.3643 51.4993 9.99419C51.4993 8.63957 51.8149 7.63716 52.4462 6.98694C53.0774 6.32898 53.9741 6 55.1365 6C56.0448 6 56.9031 6.17804 57.7113 6.53411V7.76488C57.3034 7.56362 56.9031 7.39719 56.5105 7.2656C56.1179 7.13401 55.7138 7.06821 55.2981 7.06821C54.4514 7.06821 53.8202 7.29657 53.4045 7.75327C52.9888 8.20997 52.781 8.95694 52.781 9.99419C52.781 11.0314 52.9888 11.7784 53.4045 12.2351C53.8279 12.6918 54.4475 12.9202 55.2635 12.9202C55.8023 12.9202 56.2911 12.8428 56.7299 12.688V10.8418H55.1134V9.75036H58V13.3033C57.0994 13.7678 56.1487 14 55.148 14Z" fill="white"/>
</svg>
