<svg width="105" height="105" viewBox="0 0 105 105" fill="none" xmlns="http://www.w3.org/2000/svg">
<rect width="105" height="105" rx="3" fill="#9EA9B9"/>
<path d="M38.9437 37.441V37.3801L38.8792 37.441H38.9437Z" fill="#9EA9B9"/>
<path d="M62.0295 42.8595L61.965 42.798V42.8595H62.0295Z" fill="#9EA9B9"/>
<path d="M45.069 64.238L45.1335 64.2989V64.238H45.069Z" fill="#9EA9B9"/>
<path d="M18.3735 77.6983L42.0392 62.7169C41.5233 61.6816 41.0074 60.6463 40.556 59.611L17.0838 74.4097C17.5997 75.6277 17.9866 76.7239 18.3735 77.6983Z" fill="white"/>
<path d="M16.4383 72.5803L39.8461 57.7816C39.2012 56.1373 38.6209 54.3712 38.1695 52.6051L14.6973 67.4647C15.2131 69.0481 15.7935 70.8142 16.4383 72.5803Z" fill="white"/>
<path d="M19.4704 80.4384C19.8573 81.3519 20.0507 81.9 20.0507 81.9L44.2967 66.4314C44.0388 66.0051 43.7164 65.6397 43.4584 65.2134L19.4704 80.4384Z" fill="white"/>
<path d="M52.099 31.7176C52.1635 31.7785 52.228 31.7785 52.2925 31.8394C44.0385 25.932 37.0098 25.7493 31.0127 27.5154C17.6645 31.4131 9.47508 45.9682 13.731 64.2382C13.9245 64.9081 14.1179 65.6998 14.3759 66.4915L37.8481 51.6319C35.0108 40.3045 36.0425 28.368 45.2637 29.4034C43.5871 29.4034 41.0723 30.1342 39.5246 34.0318C39.2022 34.7626 38.9443 35.9197 38.8798 37.4422C44.8123 27.6372 57.7091 37.8685 61.9006 42.8623C59.0633 38.1121 55.7101 34.0927 52.099 31.7176Z" fill="white"/>
<path d="M88.7887 29.6426L65.123 44.624C65.6389 45.6593 66.0903 46.6946 66.5417 47.7299L89.9494 32.9312C89.5625 31.7132 89.1756 30.617 88.7887 29.6426Z" fill="white"/>
<path d="M90.7251 34.8228L67.3174 49.6215C67.9623 51.2659 68.4781 53.0319 68.994 54.7981L92.4662 39.9384C91.9503 38.355 91.37 36.5889 90.7251 34.8228Z" fill="white"/>
<path d="M92.7886 40.9128L69.252 55.7724C71.9603 67.0389 70.8641 78.7318 61.7718 77.7574C63.4484 77.7574 65.9633 77.0266 67.5109 73.129C67.8333 72.3982 68.0268 71.2411 68.1557 69.7186C62.2232 79.5235 49.3264 69.2922 45.1349 64.2984C48.0367 68.9877 51.3254 73.0072 55.001 75.3823C54.9365 75.3214 54.872 75.3214 54.8075 75.2605C63.0615 81.1678 70.0902 81.3505 76.0873 79.5844C89.4355 75.6868 97.6249 61.1316 93.369 42.8616C93.1755 42.3135 92.9821 41.6436 92.7886 40.9128Z" fill="white"/>
<path d="M87.6946 26.9052C87.2432 25.8699 86.9853 25.2 86.9853 25.2L62.7393 40.6686C63.0617 41.1558 63.3841 41.643 63.7065 42.1302L87.6946 26.9052Z" fill="white"/>
</svg>
