<svg width="230" height="208" viewBox="0 0 230 208" fill="none" xmlns="http://www.w3.org/2000/svg">
<g clip-path="url(#clip0_360_5922)">
<path d="M59.3191 204.413C54.4477 203.355 -4.08267 193.821 0.22983 123.506C4.54233 53.1901 9.94733 32.0434 32.7035 24.3058C55.4597 16.5682 110.768 -20.0375 154.173 14.7702C165.443 23.8066 176.923 32.5496 187.891 42.0066C202.961 55.0043 218.458 70.0104 225.86 89.671C229.348 98.9524 230.657 108.918 229.685 118.791C228.551 130.395 226.955 141.683 224.047 152.995C223.058 156.847 222.069 160.699 221.078 164.551C220.485 166.862 219.887 169.187 218.951 171.364C212.931 185.393 205.339 194.598 192.618 202.067C181.578 208.538 167.898 208.379 155.703 207.665C107.212 204.824 82.4824 209.447 59.3191 204.413Z" fill="#EAF8FF"/>
<path d="M23.92 180.482C21.0496 179.99 19.9962 179.398 21.3762 178.688C30.9741 173.756 74.0163 173.687 94.8934 173.588C121.155 173.463 148.483 173.197 172.125 174.267C182.015 174.716 204.442 175.06 208.279 176.694C218.334 180.983 146.772 182.539 135.192 182.657C115.874 182.853 40.296 183.29 23.92 180.482Z" fill="#E3E3E3"/>
<path d="M80.7299 187.722C79.6535 187.242 79.2579 186.664 79.7754 185.973C83.3772 181.156 99.5278 181.092 107.375 180.995C117.229 180.872 127.482 180.611 136.355 181.656C140.068 182.092 148.483 182.43 149.925 184.025C153.7 188.212 126.847 189.728 122.5 189.844C115.244 190.036 86.8824 190.463 80.7299 187.722Z" fill="#E3E3E3"/>
<path d="M187.657 44.0547H37.8925C37.417 44.0541 36.9461 44.1477 36.5066 44.3301C36.0671 44.5125 35.6677 44.7802 35.3313 45.1178C34.9949 45.4555 34.728 45.8564 34.5459 46.2978C34.3637 46.7392 34.27 47.2123 34.27 47.6901V177.517H190.01V46.419C190.01 45.7919 189.762 45.1906 189.321 44.7472C188.88 44.3038 188.281 44.0547 187.657 44.0547Z" fill="#E3E3E3"/>
<path d="M190.44 44.0547H40.6662C39.7067 44.0547 38.7865 44.4377 38.108 45.1195C37.4295 45.8012 37.0483 46.7259 37.0483 47.6901V177.517H192.784V46.419C192.784 45.7935 192.537 45.1935 192.098 44.7504C191.659 44.3073 191.062 44.0571 190.44 44.0547Z" fill="white"/>
<path d="M149.689 177.956H192.74C192.97 177.956 193.347 177.757 193.347 177.493V48.0134C193.347 46.6452 193.527 45.1661 192.292 44.2116C191.337 43.4721 190.058 43.62 188.925 43.62H42.1845C40.8689 43.62 39.6108 43.5437 38.4286 44.2995C36.6438 45.4388 36.4897 47.1883 36.4897 49.0419V177.551C36.4897 177.847 36.7543 177.951 37.0119 177.951H79.2836C79.9368 177.951 80.1185 177.082 79.3664 177.082H37.09L37.6121 177.482V49.2406C37.6121 47.3802 37.5454 45.1892 39.8615 44.5814C40.6573 44.3711 41.6302 44.489 42.4398 44.489H188.764C190.164 44.489 191.871 44.2579 192.181 46.1969C192.308 46.9873 192.22 47.8378 192.22 48.6328V177.551L192.828 177.089H149.772C149.118 177.089 148.937 177.958 149.689 177.958V177.956Z" fill="#637082"/>
<path d="M192.784 54.5679H37.0483V46.1878C37.0483 45.6221 37.272 45.0795 37.6701 44.6795C38.0682 44.2794 38.6082 44.0547 39.1712 44.0547H190.67C191.233 44.0547 191.773 44.2794 192.171 44.6795C192.569 45.0795 192.793 45.6221 192.793 46.1878L192.784 54.5679Z" fill="#EFEFEF"/>
<path d="M193.016 54.3112H39.6358C38.9619 54.3112 38.2029 54.2142 37.5336 54.3112C37.4486 54.317 37.3633 54.317 37.2783 54.3112L37.6026 54.4222C37.6026 51.6488 37.4094 48.8131 37.6026 46.0513C37.7268 44.2833 38.8423 44.3203 40.0429 44.3203H188.101C188.821 44.3203 189.552 44.281 190.272 44.3203C191.422 44.3804 192.156 45.2216 192.229 46.3633C192.321 47.817 192.229 49.3054 192.229 50.7544V54.7157C192.229 54.9584 193.34 54.7804 193.34 54.4152V50.2275C193.34 48.7992 193.467 47.3063 193.329 45.8803C193.154 44.1031 191.576 43.8003 190.148 43.8003H41.1998C40.611 43.8003 40.0199 43.7772 39.4311 43.8003C37.9315 43.8581 36.5791 44.7502 36.4917 46.3425C36.4158 47.7662 36.4917 49.2152 36.4917 50.6412V54.718C36.4917 54.8359 36.7562 54.8289 36.816 54.8289H173.339C179.646 54.8289 185.989 55.0346 192.296 54.8289C192.381 54.8289 192.469 54.8289 192.554 54.8289C192.901 54.8289 193.754 54.3112 193.016 54.3112Z" fill="#637082"/>
<path d="M45.5698 51.748C46.9163 51.748 48.0078 50.6564 48.0078 49.3098C48.0078 47.9632 46.9163 46.8716 45.5698 46.8716C44.2234 46.8716 43.1318 47.9632 43.1318 49.3098C43.1318 50.6564 44.2234 51.748 45.5698 51.748Z" fill="white"/>
<path d="M48.5621 49.1622C48.3666 45.5314 42.5821 45.9567 42.5821 49.4233C42.566 53.0934 48.3804 52.6589 48.5621 49.2361C48.5851 48.8086 47.4742 49.0351 47.4535 49.3863C47.396 50.4726 46.6554 51.6859 45.3835 51.4016C44.8979 51.2761 44.4679 50.9912 44.1616 50.5922C43.8554 50.1933 43.6905 49.703 43.693 49.1991C43.693 48.0182 44.6705 46.8464 45.9332 47.2855C46.8854 47.616 47.3914 48.4827 47.4443 49.4603C47.4696 49.7908 48.5828 49.5712 48.5621 49.1622Z" fill="#637082"/>
<path d="M52.8818 51.748C54.2283 51.748 55.3198 50.6564 55.3198 49.3098C55.3198 47.9632 54.2283 46.8716 52.8818 46.8716C51.5354 46.8716 50.4438 47.9632 50.4438 49.3098C50.4438 50.6564 51.5354 51.748 52.8818 51.748Z" fill="white"/>
<path d="M55.8741 49.162C55.6786 45.5127 49.894 45.9102 49.894 49.4185C49.894 53.1163 55.6947 52.7118 55.8741 49.2452C55.8994 48.7691 54.7816 48.984 54.7609 49.3769C54.7011 50.4793 53.9443 51.6302 52.6908 51.3783C51.6903 51.1749 51.0095 50.195 51.0095 49.2036C51.0095 48.0041 52.0008 46.911 53.252 47.3062C54.2088 47.6089 54.7079 48.501 54.7585 49.4601C54.7838 49.8391 55.8902 49.608 55.8741 49.162Z" fill="#637082"/>
<path d="M60.1934 51.748C61.5398 51.748 62.6314 50.6564 62.6314 49.3098C62.6314 47.9632 61.5398 46.8716 60.1934 46.8716C58.8469 46.8716 57.7554 47.9632 57.7554 49.3098C57.7554 50.6564 58.8469 51.748 60.1934 51.748Z" fill="white"/>
<path d="M63.1856 49.1622C62.9924 45.5707 57.2056 46.1046 57.2056 49.4604C57.1895 53.0934 63.0131 52.4648 63.1856 49.1622C63.1856 49.0282 62.0931 49.1484 62.0747 49.4604C62.0057 50.7546 60.996 52.0026 59.5999 51.2884C59.2119 51.0867 58.8865 50.7817 58.6593 50.4067C58.4322 50.0317 58.312 49.6012 58.3119 49.1622C58.3119 47.9235 59.3653 46.6916 60.6763 47.2763C61.09 47.4717 61.4406 47.7801 61.6879 48.1664C61.9352 48.5526 62.0693 49.0011 62.0747 49.4604C62.0839 49.6291 63.2017 49.458 63.1856 49.1622Z" fill="#637082"/>
<path d="M96.6002 165.059H128.632C129.26 165.059 129.488 164.253 128.733 164.253H96.6922C96.062 164.253 95.8366 165.059 96.591 165.059H96.6002Z" fill="white"/>
<path d="M65.8192 161.392H151.379C155.333 161.392 159.335 161.577 163.284 161.392H163.454C163.684 161.392 164.703 160.966 164.183 160.966H78.6233C74.6696 160.966 70.6676 160.782 66.7185 160.966H66.5483C66.3183 160.966 65.2994 161.392 65.8192 161.392Z" fill="#EFEFEF"/>
<path d="M176.665 65.0024H53.1644C52.0402 65.0024 51.1289 65.9182 51.1289 67.0478V74.1036C51.1289 75.2332 52.0402 76.1489 53.1644 76.1489H176.665C177.789 76.1489 178.701 75.2332 178.701 74.1036V67.0478C178.701 65.9182 177.789 65.0024 176.665 65.0024Z" fill="#F4F4F4"/>
<path d="M176.898 96.0708H130.875C129.878 96.0708 129.069 96.8831 129.069 97.885V149.991C129.069 150.993 129.878 151.806 130.875 151.806H176.898C177.895 151.806 178.703 150.993 178.703 149.991V97.885C178.703 96.8831 177.895 96.0708 176.898 96.0708Z" fill="#F4F4F4"/>
<path d="M172.254 114.259H135.114C134.711 114.259 133.931 114.869 134.677 114.869H171.81C172.213 114.869 172.995 114.259 172.247 114.259H172.254Z" fill="white"/>
<path d="M155.093 104.303H135.111C134.692 104.303 133.933 104.938 134.679 104.938H154.661C155.08 104.938 155.841 104.303 155.093 104.303Z" fill="white"/>
<path d="M172.399 124.465H135.258C135.028 124.465 134.007 124.899 134.532 124.899H171.672C171.902 124.899 172.923 124.465 172.399 124.465Z" fill="white"/>
<path d="M172.392 134.574H155.68C155.278 134.574 154.496 135.184 155.241 135.184H171.953C172.355 135.184 173.137 134.574 172.392 134.574Z" fill="white"/>
<path d="M166.29 144.676H135.24C134.819 144.676 134.06 145.311 134.808 145.311H165.858C166.276 145.311 167.035 144.676 166.288 144.676H166.29Z" fill="white"/>
<path d="M121.813 128.103H94.0977V151.805H121.813V128.103Z" fill="#EFEFEF"/>
<path d="M116.01 144.717H100.441C100.211 144.717 99.1876 145.161 99.7189 145.161H115.288C115.518 145.161 116.541 144.717 116.01 144.717Z" fill="white"/>
<path d="M115.665 139.591H100.28C99.7995 139.591 99.1302 140.324 99.8754 140.324H115.258C115.738 140.324 116.408 139.591 115.663 139.591H115.665Z" fill="white"/>
<path d="M115.874 134.343H100.248C99.8774 134.343 99.0517 134.902 99.7877 134.902H115.428C115.798 134.902 116.621 134.343 115.888 134.343H115.874Z" fill="white"/>
<path d="M120.007 96.0708H95.9032C94.906 96.0708 94.0977 96.8831 94.0977 97.885V117.959C94.0977 118.961 94.906 119.774 95.9032 119.774H120.007C121.004 119.774 121.813 118.961 121.813 117.959V97.885C121.813 96.8831 121.004 96.0708 120.007 96.0708Z" fill="#F4F4F4"/>
<path d="M115.513 107.513H100.13C99.5025 107.513 99.2748 108.32 100.029 108.32H115.412C116.04 108.32 116.267 107.513 115.513 107.513Z" fill="white"/>
<path d="M57.9601 84.79H167.118C168.588 84.79 170.108 84.9079 171.575 84.79C171.64 84.79 171.707 84.79 171.773 84.79C172.401 84.79 172.631 83.9903 171.874 83.9903H62.7142C61.2445 83.9903 59.7242 83.8748 58.2568 83.9903C58.1924 83.9903 58.1234 83.9903 58.059 83.9903C57.4311 83.9903 57.2011 84.79 57.9555 84.79H57.9601Z" fill="#EFEFEF"/>
<path d="M84.7618 96.0708H52.9344C51.9373 96.0708 51.1289 96.8831 51.1289 97.885V149.991C51.1289 150.993 51.9373 151.806 52.9344 151.806H84.7618C85.759 151.806 86.5673 150.993 86.5673 149.991V97.885C86.5673 96.8831 85.759 96.0708 84.7618 96.0708Z" fill="#F4F4F4"/>
<path d="M80.1825 143.604H58.6315C58.4015 143.604 57.378 144.047 57.9093 144.047H79.4603C79.6903 144.047 80.7138 143.604 80.1825 143.604Z" fill="white"/>
<path d="M80.0401 133.229H58.4201C58.0521 133.229 57.2264 133.786 57.9601 133.786H79.5939C79.9642 133.786 80.7876 133.229 80.0539 133.229H80.0401Z" fill="white"/>
<path d="M77.3811 125.262H61.334C60.3818 125.262 59.3697 125.396 58.6268 124.643C57.8839 123.889 58.0035 122.794 58.0035 121.8V112.334C58.0035 110.131 57.8609 107.873 58.0035 105.676C58.1139 103.984 59.2019 103.799 60.4922 103.799H74.5222C75.226 103.799 75.9459 103.75 76.6474 103.799C78.2574 103.908 78.7174 105.243 78.7174 106.598V121.689C78.7174 122.87 78.998 125.156 77.2684 125.26C76.9671 125.281 76.0609 125.766 76.79 125.722C78.4 125.613 79.78 124.698 79.826 122.972C79.8559 121.93 79.826 120.88 79.826 119.836V108.835C79.826 106.679 80.3527 103.422 77.2707 103.337C74.4647 103.258 71.6449 103.337 68.8366 103.337C65.9593 103.337 63.0751 103.281 60.1954 103.337C58.7418 103.362 57.141 104.03 56.9202 105.664C56.8144 106.436 56.8995 107.263 56.8995 108.037V122.801C56.8995 124.188 57.4308 125.468 58.9856 125.694C59.7446 125.803 60.5588 125.72 61.3201 125.72H76.6704C76.9027 125.724 77.9216 125.262 77.3811 125.262Z" fill="white"/>
<path d="M115 87.2397C106.146 87.2397 97.654 90.774 91.3929 97.0649C85.1317 103.356 81.6139 111.888 81.6133 120.786V141.246H91.2457V121.035C91.2457 114.704 93.7483 108.633 98.203 104.156C102.658 99.6796 108.7 97.1643 115 97.1637C121.3 97.1643 127.342 99.6796 131.797 104.156C136.252 108.633 138.754 114.704 138.754 121.035V132.267H148.387V120.788C148.387 111.89 144.869 103.357 138.608 97.0658C132.347 90.7743 123.855 87.2397 115 87.2397Z" fill="#EFEFEF"/>
<path d="M116.787 87.2397H115C99.9052 87.2397 84.5435 102.262 84.5435 120.786L84.3135 141.246H91.2457V121.035C91.2457 114.704 93.7483 108.633 98.2031 104.156C102.658 99.6796 108.7 97.1643 115 97.1637H113.252C133.124 95.9318 141.68 107.853 141.68 121.035V132.267H148.382V118.992C148.382 110.572 145.054 102.496 139.129 96.5414C133.203 90.5868 125.167 87.241 116.787 87.2397Z" fill="white"/>
<path d="M148.941 125.44C148.941 122.879 149.036 120.296 148.819 117.742C148.458 113.503 147.295 109.373 145.395 105.572C141.682 98.214 135.433 92.4641 127.814 89.3938C112.427 83.2277 94.13 89.5139 85.7005 103.824C83.2943 107.917 81.7819 112.476 81.2639 117.201C80.9396 120.171 81.0591 123.187 81.0591 126.173C81.0591 126.404 82.1701 126.221 82.1701 125.872C82.1701 123.596 82.1011 121.306 82.2069 119.031C82.4938 112.943 84.4379 107.051 87.8275 101.996C91.2171 96.941 95.9222 92.9178 101.43 90.3644C109.043 86.8677 117.898 86.5812 125.769 89.403C131.619 91.5077 136.767 95.2162 140.629 100.109C144.49 105.001 146.912 110.882 147.619 117.086C147.943 119.949 147.835 122.863 147.835 125.731C147.835 125.963 148.946 125.782 148.946 125.433L148.941 125.44Z" fill="#637082"/>
<path d="M91.8001 125.609C91.8001 121.132 91.715 116.771 93.3227 112.5C95.4412 106.88 99.6062 102.278 104.974 99.6276C116.359 94.0809 130.387 99.4981 135.834 110.786C137.275 113.783 138.077 117.05 138.186 120.377C138.246 122.179 138.2 123.987 138.2 125.789C138.2 125.986 139.311 125.824 139.311 125.489C139.311 123.848 139.332 122.205 139.311 120.562C139.268 117.325 138.572 114.132 137.264 111.174C134.754 105.564 130.213 101.125 124.564 98.7586C113.185 94.0139 99.4085 98.9019 93.5481 109.785C91.8747 112.904 90.9108 116.357 90.726 119.896C90.6202 121.895 90.6915 123.908 90.6915 125.905C90.6915 126.104 91.8024 125.94 91.8024 125.604L91.8001 125.609Z" fill="#637082"/>
<path d="M126.79 186.248H103.21C95.7641 186.248 88.6229 183.276 83.3576 177.985C78.0923 172.694 75.1343 165.518 75.1343 158.036V133.853C75.134 133.117 75.2779 132.389 75.5578 131.709C75.8378 131.029 76.2482 130.412 76.7657 129.891C77.2832 129.371 77.8977 128.959 78.574 128.677C79.2503 128.395 79.9751 128.25 80.7072 128.25H149.293C150.025 128.25 150.75 128.395 151.426 128.677C152.103 128.959 152.717 129.371 153.235 129.891C153.752 130.412 154.163 131.029 154.443 131.709C154.722 132.389 154.866 133.117 154.866 133.853V158.036C154.866 165.518 151.908 172.694 146.643 177.985C141.377 183.276 134.236 186.248 126.79 186.248Z" fill="#6FCF97"/>
<path d="M129.497 184.08H104.646C98.0492 184.08 91.723 181.392 87.0587 176.607C82.3943 171.822 79.7739 165.332 79.7739 158.565V132.727C79.7739 131.452 80.2676 130.23 81.1465 129.328C82.0253 128.426 83.2173 127.92 84.4601 127.92H149.685C150.3 127.92 150.909 128.044 151.478 128.286C152.046 128.528 152.562 128.882 152.997 129.328C153.432 129.775 153.777 130.305 154.013 130.888C154.248 131.471 154.369 132.096 154.369 132.727V158.565C154.369 165.332 151.748 171.822 147.084 176.607C142.419 181.392 136.093 184.08 129.497 184.08Z" fill="#96E296"/>
<path d="M149.557 173.932C144.868 180.849 137.4 185.391 129.025 185.897C126.219 186.068 123.377 185.945 120.566 185.945H107.605C104.33 185.945 101.046 186.072 97.8143 185.437C85.4219 182.999 76.1299 171.891 75.7044 159.236C75.4744 152.233 75.6883 145.191 75.6883 138.186C75.6883 135.325 74.9983 131.287 77.6249 129.348C79.0647 128.283 81.0519 128.544 82.747 128.544H147.853C148.364 128.544 148.874 128.544 149.385 128.544C150.434 128.545 151.455 128.881 152.3 129.504C153.146 130.128 153.771 131.006 154.086 132.011C154.385 132.988 154.316 134.04 154.316 135.05V153.127C154.316 156.469 154.486 159.878 153.9 163.179C153.197 167.016 151.721 170.668 149.562 173.911C149.293 174.32 150.399 174.209 150.59 173.911C153.865 168.938 155.42 163.338 155.42 157.398V134.357C155.42 133.019 155.397 131.764 154.682 130.557C153.658 128.826 151.828 127.953 149.866 127.923C145.036 127.849 140.206 127.923 135.376 127.923H85.0999C83.5888 127.923 82.0731 127.899 80.562 127.923C78.7059 127.95 76.905 128.678 75.732 130.164C74.7591 131.396 74.582 132.817 74.582 134.324V157.387C74.582 162.055 75.3249 166.564 77.388 170.791C80.0838 176.306 84.4949 180.787 89.9529 183.556C94.2056 185.705 98.7918 186.56 103.523 186.56H126.27C132.326 186.56 138.23 184.979 143.239 181.476C146.129 179.438 148.624 176.886 150.599 173.946C150.859 173.535 149.753 173.643 149.557 173.932Z" fill="#637082"/>
<path d="M121.981 171.427H108.02L111.352 155.411C110.335 154.833 109.49 153.993 108.904 152.977C108.318 151.961 108.013 150.807 108.02 149.633C108.02 146.004 110.892 143.06 114.437 143.06C117.981 143.06 120.856 146.004 120.856 149.633C120.856 152.117 119.508 154.28 118.648 155.411L121.981 171.427Z" fill="#EFEFEF"/>
<path d="M121.001 169.559H111.948C111.829 169.559 111.711 169.533 111.603 169.482C111.495 169.431 111.4 169.357 111.324 169.264C111.248 169.172 111.193 169.064 111.163 168.948C111.133 168.832 111.13 168.711 111.152 168.593L113.498 156.171C113.525 156.02 113.51 155.865 113.454 155.723C113.398 155.581 113.304 155.456 113.183 155.364C112.48 154.8 111.914 154.082 111.53 153.264C111.146 152.447 110.954 151.551 110.968 150.647C110.968 147.495 113.236 144.939 116.028 144.939C118.82 144.939 121.088 147.495 121.088 150.647C121.088 152.619 120.2 154.359 119.529 155.383C119.413 155.559 119.371 155.774 119.409 155.981L121.792 168.593C121.814 168.71 121.81 168.831 121.781 168.947C121.752 169.063 121.697 169.17 121.622 169.263C121.546 169.355 121.451 169.429 121.344 169.48C121.237 169.532 121.119 169.559 121.001 169.559Z" fill="white"/>
<path d="M111.78 155.089C108.006 152.836 107.392 147.111 111.157 144.488C114.805 141.946 119.667 144.627 120.235 148.852C120.546 151.184 119.545 153.171 118.324 155.062C118.009 155.556 118.144 155.801 118.262 156.365L119.66 163.09L121.04 169.696C121.141 170.183 121.394 170.803 120.746 171.022C120.141 171.223 119.122 171.022 118.492 171.022H110.909C110.156 171.022 108.898 171.373 108.827 170.202C108.804 169.809 109.018 169.277 109.096 168.91C110.036 164.394 110.975 159.879 111.914 155.367C112.026 154.821 110.892 154.96 110.789 155.452L107.919 169.252C107.801 169.823 107.546 170.507 107.81 171.066C108.229 171.951 109.259 171.831 110.069 171.831H118.384C119.833 171.831 122.622 172.231 122.252 169.91C121.882 167.59 121.293 165.304 120.817 163.014C120.309 160.574 119.747 158.135 119.292 155.683C119.257 155.582 119.236 155.476 119.228 155.369C119.246 155.196 119.258 155.369 119.253 155.385C119.382 155.055 119.741 154.692 119.927 154.384C120.24 153.873 120.513 153.338 120.741 152.783C121.562 150.765 121.686 148.517 120.72 146.529C118.804 142.584 113.609 141.493 110.186 144.16C106.311 147.181 106.736 153.224 110.922 155.73C111.336 155.977 112.314 155.408 111.78 155.089Z" fill="#637082"/>
<path d="M214.643 71.0065C199.516 66.7564 192.312 55.3511 192.312 55.3511C192.312 55.3511 181.979 62.9223 164.763 61.7066C164.763 61.7066 159.243 71.6652 160.651 84.5196C163.07 106.773 177.082 119.746 177.082 119.746C177.082 119.746 195.36 114.289 208.051 93.355C214.963 81.9543 214.643 71.0065 214.643 71.0065Z" fill="#FFAEBD"/>
<path d="M214.461 74.3415C200.419 70.3756 191.256 59.8208 191.256 59.8208C191.256 59.8208 183.669 66.5045 167.67 65.4044C167.67 65.4044 162.513 74.8084 163.774 86.9232C165.956 107.89 177.079 119.741 177.079 119.741C177.079 119.741 195.396 114.4 207.26 94.6284C213.72 83.861 214.461 74.3415 214.461 74.3415Z" fill="#FE5D7C"/>
<path d="M215.099 70.8148C208.861 69.0258 203.121 65.8085 198.329 61.4155C196.294 59.5527 194.309 57.4866 192.867 55.2194C192.713 54.9744 191.97 55.2703 191.809 55.3858C189.817 56.8395 187.363 57.9072 185.008 58.7947C178.742 61.1543 171.898 61.9609 165.122 61.5103C164.892 61.4941 164.335 61.5796 164.213 61.7991C162.817 64.3414 161.913 67.154 161.223 69.888C159.657 76.0194 159.556 82.2548 160.641 88.4578C162.389 98.3858 166.558 107.724 172.776 115.636C173.927 117.155 175.193 118.582 176.564 119.903C176.698 120.028 177.149 119.889 177.28 119.85C182.383 118.317 187.154 115.334 191.259 112.327C201.648 104.716 209.967 93.9975 213.385 82.3981C214.475 78.7003 215.308 74.7159 215.204 70.8656C215.204 70.6969 214.084 70.8471 214.093 71.1291C214.176 74.2445 213.601 77.4361 212.858 80.466C211.274 86.9163 208.228 92.8951 204.18 98.421C198.522 106.147 190.974 112.995 181.87 117.529C180.274 118.363 178.61 119.059 176.896 119.609L177.611 119.556C173.538 115.773 170.446 110.913 167.951 106.221C162.3 95.5575 159.418 83.1677 161.895 71.4827C162.603 68.1408 163.613 64.6788 165.306 61.605L164.386 61.8939C173.604 62.5063 183.347 60.8285 191.174 56.3195C191.733 56.0072 192.275 55.6646 192.798 55.2934L191.74 55.4621C194.845 60.3547 199.988 64.5748 205.291 67.5215C208.103 69.076 211.083 70.3027 214.172 71.1776C214.441 71.2701 215.423 70.9072 215.099 70.8148Z" fill="#637080"/>
<path d="M185.873 100.794L186.139 100.88L186.405 100.794C186.937 100.622 199.437 96.6686 199.437 87.9876V73.2041H198.639C189.951 73.2041 186.76 70.1959 186.76 70.1959L186.228 69.6802L185.696 70.1959C185.696 70.1959 182.504 73.2041 173.816 73.2041H173.019V87.9876C172.93 96.6686 185.341 100.622 185.873 100.794ZM174.437 74.6653C181.352 74.4934 184.898 72.5165 186.139 71.657C187.38 72.6025 190.926 74.5793 197.841 74.6653V87.9876C197.841 95.0355 187.823 98.7314 186.139 99.3331C184.455 98.7314 174.437 95.0355 174.437 87.9876V74.6653Z" fill="white"/>
<path d="M191.727 82.4871H190.397V81.1979C190.397 78.9632 188.535 77.1582 186.23 77.1582C183.925 77.1582 182.064 78.9632 182.064 81.1979V82.4012H180.734V91.6839H191.904V82.4871H191.727ZM183.482 81.1979C183.482 79.8227 184.635 78.6194 186.142 78.6194C187.56 78.6194 188.801 79.7367 188.801 81.1979V82.4012H183.482V81.1979ZM190.131 90.3086H182.064V84.0342H190.131V90.3086Z" fill="white"/>
<path d="M185.341 87.9878V88.8473H186.937V87.9878C187.558 87.7299 188.001 87.1283 188.001 86.4407C188.001 85.4952 187.203 84.7217 186.228 84.7217C185.253 84.7217 184.455 85.4952 184.455 86.4407C184.278 87.1283 184.721 87.7299 185.341 87.9878ZM186.139 86.1828C186.317 86.1828 186.405 86.2688 186.405 86.4407C186.405 86.6126 186.317 86.6985 186.139 86.6985C185.962 86.6985 185.873 86.6126 185.873 86.4407C185.873 86.2688 185.962 86.1828 186.139 86.1828Z" fill="white"/>
</g>
<defs>
<clipPath id="clip0_360_5922">
<rect width="230" height="208" fill="white"/>
</clipPath>
</defs>
</svg>
