<svg width="294" height="200" viewBox="0 0 294 200" fill="none" xmlns="http://www.w3.org/2000/svg">
<g clip-path="url(#clip0_81_9242)">
<path d="M289.853 127.592C287.28 114.906 280.813 103.643 276.08 91.7146C274.494 87.7253 272.414 83.1508 272.134 78.829C271.814 73.7891 271.907 68.7758 272.707 63.7758C273.16 60.8636 273.827 57.9779 274.054 55.0524C274.28 52.1136 274.067 49.0816 272.827 46.3955C271.04 42.5258 266.614 40.0923 262.467 39.7598C260.054 39.5604 257.828 40.1056 255.614 40.9965C251.788 42.5524 249.441 47.4327 248.201 51.1029C246.868 55.0657 246.495 59.2412 245.628 63.2838C244.695 67.6189 243.882 71.9806 242.855 76.2891C241.282 82.8449 239.055 89.1614 236.855 95.5178C234.655 101.901 233.015 108.47 231.949 115.119C231.429 118.324 230.882 124.028 230.629 127.273L289.853 127.592Z" fill="white"/>
<path d="M286.467 39.2008C288.467 42.6449 289.347 46.887 288.253 51.129C286.453 58.1104 280.107 59.5864 274.654 58.2566C272.241 57.6715 269.828 56.4215 268.428 54.0678C267.334 52.2327 266.988 49.9189 265.948 48.0572C264.774 45.9295 264.881 44.6928 262.708 44.5066C259.468 44.2407 254.335 47.0332 251.055 46.4082C248.175 45.863 247.642 41.9801 248.642 39.4003C250.975 33.3497 256.441 32.0332 261.548 31.2753C267.361 30.4242 273.801 29.9588 279.4 32.5519C282.214 33.8817 284.76 36.262 286.467 39.2008Z" fill="#FFE07B"/>
<path d="M256.202 41.0099C255.948 41.0099 255.722 40.837 255.682 40.5711C255.108 37.4594 258.161 34.5338 260.535 33.4567C262.881 32.3796 265.614 32.7785 268.881 34.6535C270.588 35.6375 272.148 36.9141 273.467 38.0179C274.414 38.8157 275.787 39.3211 277.334 39.454C278.721 39.5737 279.841 38.9753 281.134 38.2971C281.28 38.2173 281.414 38.1508 281.56 38.0711C281.827 37.9381 282.147 38.0312 282.28 38.2971C282.414 38.5631 282.32 38.8822 282.054 39.0152C281.907 39.095 281.774 39.1615 281.627 39.2413C280.241 39.9727 278.947 40.6641 277.241 40.5179C275.481 40.3716 273.894 39.7732 272.788 38.8423C271.494 37.7652 269.988 36.5285 268.348 35.5844C265.401 33.8822 263.001 33.5099 260.988 34.4274C259.001 35.3317 256.268 37.8583 256.748 40.3849C256.802 40.6774 256.615 40.9567 256.322 41.0099C256.268 40.9966 256.242 41.0099 256.202 41.0099Z" fill="#5D7183"/>
<path d="M279.972 46.8348C279.612 46.8348 279.252 46.8082 278.892 46.755C278.053 46.622 276.839 46.3161 275.866 45.5449C275.653 45.372 275.439 45.1991 275.226 45.0262C274.746 44.6273 274.293 44.255 273.786 43.9491C272.173 42.9784 269.84 43.1512 268.253 45.731C268.093 45.9837 267.773 46.0635 267.52 45.9039C267.266 45.7443 267.186 45.4252 267.346 45.1725C269.026 42.4465 271.906 41.5688 274.346 43.0316C274.919 43.3773 275.426 43.8028 275.919 44.2151C276.119 44.3879 276.319 44.5475 276.533 44.7204C277.146 45.2124 278.039 45.5582 279.052 45.7044C281.372 46.0502 283.519 45.0661 285.092 42.9385C285.266 42.6991 285.599 42.6459 285.839 42.8321C286.079 43.005 286.132 43.3374 285.945 43.5768C284.372 45.7044 282.279 46.8348 279.972 46.8348Z" fill="#5D7183"/>
<path d="M281.892 55.0797C280.719 55.0797 279.532 54.6009 278.626 54.0158C277.972 53.5903 277.372 53.085 276.799 52.6063C275.986 51.9281 275.213 51.2765 274.333 50.8376C273.653 50.5052 271.786 50.0265 270.359 50.7446C270.093 50.8775 269.773 50.7711 269.639 50.5052C269.506 50.2392 269.613 49.9201 269.879 49.7871C271.599 48.9227 273.813 49.3882 274.813 49.8802C275.799 50.3722 276.666 51.0903 277.492 51.7818C278.052 52.2472 278.626 52.7259 279.226 53.1249C281.186 54.4148 282.745 54.1089 283.505 53.4573C283.732 53.2711 284.065 53.2844 284.252 53.5105C284.439 53.7366 284.425 54.069 284.199 54.2552C283.505 54.8536 282.705 55.0797 281.892 55.0797Z" fill="#5D7183"/>
<path d="M263.188 42.3937C263.134 42.3937 263.081 42.3804 263.028 42.3671C262.748 42.274 262.588 41.9815 262.681 41.7022C263.441 39.2554 266.174 37.3804 268.507 37.6995C268.801 37.7394 269.001 38.0054 268.961 38.2979C268.921 38.5905 268.654 38.79 268.361 38.7501C266.561 38.5107 264.294 40.0932 263.694 42.0214C263.628 42.2474 263.414 42.3937 263.188 42.3937Z" fill="#5D7183"/>
<path d="M277.772 35.1589C277.692 35.1589 277.612 35.1456 277.546 35.1057C276.519 34.6137 275.306 34.6004 274.293 35.0924C274.026 35.2254 273.706 35.1057 273.573 34.853C273.439 34.5871 273.559 34.2679 273.813 34.135C275.119 33.4967 276.679 33.4967 277.999 34.135C278.266 34.2679 278.372 34.5871 278.239 34.8398C278.159 35.0525 277.972 35.1589 277.772 35.1589Z" fill="#5D7183"/>
<path d="M278.213 57.446C276.919 57.446 275.639 56.9008 274.68 55.9566C274.466 55.7439 274.466 55.4114 274.68 55.1986C274.893 54.9859 275.226 54.9859 275.439 55.1986C276.279 56.0364 277.439 56.4619 278.546 56.3556C278.839 56.329 279.106 56.5417 279.133 56.8343C279.159 57.1268 278.946 57.3928 278.653 57.4194C278.506 57.4327 278.359 57.446 278.213 57.446Z" fill="#5D7183"/>
<path d="M282.32 51.171C280.6 51.171 278.867 50.6657 277.587 49.4556C277.373 49.2561 277.36 48.9104 277.573 48.6976C277.773 48.4849 278.12 48.4716 278.333 48.6843C280.373 50.6125 283.8 50.3997 286 49.2162C286.253 49.07 286.586 49.1763 286.72 49.429C286.853 49.6817 286.76 50.0141 286.506 50.1471C285.333 50.7854 283.826 51.171 282.32 51.171Z" fill="#5D7183"/>
<path d="M251.428 43.4574C251.201 43.4574 251.001 43.3245 250.921 43.0984C250.201 41.0106 250.455 38.5771 251.601 36.7553C251.761 36.5027 252.081 36.4229 252.334 36.5824C252.588 36.742 252.668 37.0612 252.508 37.3138C251.534 38.8697 251.308 40.9574 251.934 42.7527C252.028 43.0319 251.881 43.3378 251.601 43.4309C251.548 43.4442 251.494 43.4574 251.428 43.4574Z" fill="#5D7183"/>
<path d="M251.361 66.6482C250.561 66.6482 250.041 66.2758 249.747 65.9966C248.707 64.946 248.694 62.9248 249.281 61.595C249.401 61.329 249.707 61.1961 249.987 61.3157C250.254 61.4354 250.387 61.7413 250.267 62.0205C249.774 63.1375 249.894 64.6136 250.521 65.2519C250.921 65.6508 251.507 65.704 252.267 65.3849C253.107 65.0391 253.734 64.1216 253.787 63.1641C253.801 62.8716 254.054 62.6455 254.347 62.6721C254.641 62.6854 254.867 62.9381 254.841 63.2306C254.761 64.6003 253.881 65.8636 252.667 66.3689C252.174 66.5684 251.734 66.6482 251.361 66.6482Z" fill="#5D7183"/>
<path d="M253.533 90.7824C253.48 90.7824 253.427 90.7691 253.373 90.7558C253.093 90.6627 252.933 90.3701 253.027 90.0909C253.573 88.3622 254.333 87.3515 256.573 87.3515H256.587C258.16 87.3515 260.173 87.9366 261.373 89.5191C261.76 89.3063 262.253 89.0537 262.826 88.7744C265.399 87.4712 269.293 85.5031 271.439 82.9632C271.626 82.7372 271.959 82.7106 272.186 82.8967C272.413 83.0829 272.439 83.4154 272.253 83.6414C269.973 86.3409 265.959 88.3755 263.306 89.7186C262.546 90.1042 261.88 90.4366 261.493 90.676C261.373 90.7558 261.226 90.7691 261.08 90.7425C260.946 90.7026 260.826 90.6228 260.746 90.4898C260 89.2265 258.373 88.4154 256.587 88.4154H256.573C255.053 88.4154 254.547 88.8143 254.04 90.41C253.96 90.6361 253.76 90.7824 253.533 90.7824Z" fill="#5D7183"/>
<path d="M253.533 90.7822C253.493 90.7822 253.453 90.7822 253.413 90.7689C253.12 90.7024 252.947 90.4099 253.013 90.1306C253.307 88.8806 252.76 88.5881 252.587 88.495C251.467 87.8833 248.894 88.6678 247.907 89.6785C247.707 89.8912 247.36 89.8912 247.147 89.6918C247.04 89.5987 246.987 89.4657 246.987 89.346C246.734 88.8673 245.24 87.0322 245.014 86.7928C243.947 85.6625 242.801 84.5987 241.601 83.628C241.374 83.4418 241.334 83.1093 241.521 82.8833C241.707 82.6572 242.041 82.6173 242.267 82.8035C243.494 83.8141 244.68 84.9045 245.787 86.0615C245.907 86.1811 246.507 86.8992 247.014 87.5508C247.307 87.9232 247.534 88.2157 247.707 88.4684C248.307 88.0428 249.094 87.6838 249.947 87.4577C250.68 87.2583 252.08 87.0189 253.107 87.5774C253.64 87.87 254.48 88.6279 254.067 90.3966C253.987 90.6093 253.773 90.7822 253.533 90.7822Z" fill="#5D7183"/>
<path d="M248.413 122.989C248.399 122.989 248.399 122.989 248.386 122.989C248.093 122.976 247.866 122.723 247.879 122.431C248.666 107.497 251.933 94.4119 253.013 90.1167C253.079 89.8374 253.373 89.6645 253.653 89.731C253.933 89.7975 254.106 90.0901 254.039 90.3693C252.973 94.6379 249.719 107.643 248.933 122.484C248.933 122.763 248.693 122.989 248.413 122.989Z" fill="#5D7183"/>
<path d="M254.867 88.7211C254.667 88.7211 254.48 88.6147 254.387 88.4285C254.254 88.1626 254.374 87.8434 254.627 87.7237C255.2 87.4445 255.76 87.1785 256.294 86.9126C263.893 83.2423 268.08 81.2211 270.853 76.1014C270.986 75.8487 271.32 75.7424 271.573 75.8886C271.826 76.0349 271.933 76.3541 271.786 76.6067C268.853 82.0189 264.56 84.1067 256.76 87.87C256.227 88.136 255.667 88.4019 255.094 88.6812C255.027 88.6945 254.947 88.7211 254.867 88.7211Z" fill="#5D7183"/>
<path d="M252.8 88.5365C252.694 88.5365 252.587 88.5099 252.494 88.4434C249.747 86.5418 244.107 80.9966 242.614 78.0312C242.481 77.7652 242.587 77.4461 242.854 77.3131C243.121 77.1801 243.441 77.2865 243.574 77.5525C244.974 80.345 250.507 85.7705 253.107 87.579C253.347 87.7519 253.414 88.0844 253.24 88.3237C253.134 88.4567 252.96 88.5365 252.8 88.5365Z" fill="#5D7183"/>
<path d="M289.413 126.275C289.173 126.275 288.946 126.116 288.893 125.863C286.999 117.858 283.573 110.198 280.266 102.791C278.68 99.2406 277.04 95.5704 275.587 91.9002C275.373 91.355 275.147 90.8098 274.92 90.2512C273.48 86.7007 271.84 82.6715 271.6 78.855C271.254 73.3364 271.44 68.3763 272.173 63.6821C272.32 62.7513 272.493 61.7938 272.653 60.8763C273 58.9481 273.36 56.9534 273.52 54.9853C273.787 51.6342 273.4 48.8816 272.333 46.5944C270.507 42.6316 266.027 40.5571 262.414 40.2646C260.334 40.0917 258.241 40.4773 255.814 41.4747C251.961 43.0438 249.708 48.2699 248.708 51.2486C247.855 53.8018 247.388 56.5146 246.935 59.1342C246.695 60.5305 246.455 61.9667 246.148 63.363C245.815 64.9321 245.481 66.5412 245.161 68.0837C244.601 70.8098 244.028 73.6289 243.361 76.3816C241.895 82.4853 239.828 88.4826 237.828 94.2805L237.348 95.6502C235.362 101.421 233.815 107.392 232.762 113.416C232.709 113.709 232.429 113.895 232.149 113.842C231.855 113.788 231.669 113.509 231.722 113.23C232.789 107.153 234.349 101.116 236.362 95.3044L236.842 93.9214C238.842 88.1502 240.895 82.1661 242.348 76.1156C243.001 73.3763 243.575 70.5704 244.135 67.8443C244.455 66.2885 244.775 64.6927 245.121 63.1103C245.415 61.7273 245.668 60.3045 245.895 58.9215C246.348 56.2619 246.828 53.5092 247.708 50.8763C249.001 47.0332 251.388 42.0997 255.414 40.4507C258.001 39.4002 260.254 38.988 262.507 39.1742C266.427 39.4933 271.294 41.7672 273.307 46.1156C274.44 48.5757 274.867 51.488 274.587 55.0252C274.427 57.0465 274.067 59.0678 273.707 61.0225C273.547 61.9268 273.373 62.8709 273.227 63.8018C272.507 68.4161 272.32 73.2965 272.667 78.7353C272.893 82.3789 274.493 86.3284 275.907 89.7991C276.133 90.3576 276.36 90.9161 276.573 91.4613C278.013 95.105 279.653 98.7619 281.24 102.312C284.573 109.773 288.026 117.472 289.933 125.57C289.999 125.863 289.826 126.142 289.533 126.209C289.493 126.275 289.453 126.275 289.413 126.275Z" fill="#5D7183"/>
<path d="M254.322 103.415C254.135 103.415 253.935 103.376 253.762 103.296C253.402 103.136 253.135 102.844 253.028 102.498C252.922 102.152 252.962 101.753 253.162 101.421C253.362 101.088 253.682 100.849 254.042 100.782C254.335 100.729 254.615 100.915 254.668 101.208C254.722 101.501 254.535 101.78 254.242 101.833C254.188 101.846 254.122 101.899 254.082 101.966C254.042 102.032 254.028 102.112 254.042 102.179C254.055 102.232 254.122 102.298 254.188 102.325C254.268 102.365 254.348 102.365 254.402 102.338C254.668 102.219 254.988 102.338 255.108 102.604C255.228 102.87 255.108 103.189 254.841 103.309C254.681 103.376 254.508 103.415 254.322 103.415Z" fill="#5D7183"/>
<path d="M253.014 116.089C252.654 116.089 252.281 115.942 252.014 115.676C251.734 115.384 251.588 114.958 251.628 114.546C251.668 114.147 251.881 113.815 252.188 113.602C252.428 113.442 252.761 113.509 252.921 113.762C253.081 114.001 253.014 114.333 252.761 114.493C252.694 114.533 252.681 114.613 252.668 114.666C252.654 114.772 252.694 114.879 252.748 114.932C252.827 115.025 253.001 115.051 253.107 114.998C253.374 114.865 253.694 114.985 253.814 115.251C253.947 115.517 253.827 115.836 253.561 115.956C253.427 116.049 253.214 116.089 253.014 116.089Z" fill="#5D7183"/>
<path d="M231.068 94.0427C225.069 94.0427 218.642 89.4549 215.922 84.9071C213.043 80.1065 210.536 74.1624 208.243 66.7289C207.936 65.7182 207.656 64.5746 207.376 63.3645C206.163 58.2581 204.79 52.4602 199.67 51.6624C198.377 51.4629 196.923 51.8352 195.857 52.6198C195.07 53.2049 194.577 53.9762 194.457 54.7741C194.417 55.0666 194.15 55.2661 193.857 55.2262C193.564 55.1863 193.364 54.9204 193.404 54.6278C193.55 53.5374 194.203 52.5134 195.217 51.7555C196.523 50.7847 198.243 50.3592 199.83 50.5985C205.656 51.5028 207.176 57.939 208.403 63.0985C208.683 64.2954 208.949 65.4257 209.256 66.3964C211.523 73.7501 214.003 79.6145 216.829 84.3352C218.242 86.7023 220.642 88.9895 223.415 90.6118C226.335 92.3273 229.362 93.1517 231.948 92.9257C235.282 92.6331 237.748 90.6251 239.108 87.1012C239.215 86.8219 239.521 86.689 239.801 86.7954C240.081 86.9017 240.215 87.2076 240.108 87.4868C238.201 92.4469 234.668 93.7634 232.055 93.9895C231.722 94.0294 231.402 94.0427 231.068 94.0427Z" fill="#5D7183"/>
<path d="M263.946 123.056C263.666 123.056 263.386 123.056 263.093 123.043C258.773 122.856 254.293 121.473 249.013 118.654L248.613 118.442C246.947 117.551 245.24 116.633 243.427 116.593C242.334 116.58 241.174 117.019 240.427 117.763C240.054 118.136 239.6 118.747 239.614 119.585C239.614 119.878 239.374 120.117 239.081 120.117C238.787 120.117 238.547 119.878 238.547 119.585C238.534 118.628 238.934 117.737 239.68 117.005C240.64 116.061 242.08 115.489 243.454 115.529C245.52 115.569 247.347 116.553 249.12 117.511L249.52 117.723C254.653 120.463 258.986 121.806 263.133 121.979C268.266 122.192 273.039 120.356 275.906 117.085C281.732 110.423 277.465 95.8218 274.386 89.0266C274.266 88.7607 274.386 88.4415 274.652 88.3218C274.919 88.2022 275.239 88.3218 275.359 88.5878C277.412 93.1224 278.985 98.5878 279.585 103.202C280.425 109.731 279.465 114.638 276.705 117.777C273.799 121.114 269.079 123.056 263.946 123.056Z" fill="#5D7183"/>
<path d="M293.467 127.966H252.016C251.722 127.966 251.482 127.727 251.482 127.434C251.482 127.142 251.722 126.902 252.016 126.902H293.467C293.76 126.902 294 127.142 294 127.434C294 127.727 293.76 127.966 293.467 127.966Z" fill="#5D7183"/>
<path d="M176.459 200.001C176.166 200.001 175.926 199.761 175.926 199.469V127.434C175.926 127.142 176.166 126.902 176.459 126.902H189.898C190.192 126.902 190.432 127.142 190.432 127.434C190.432 127.727 190.192 127.966 189.898 127.966H176.992V199.469C176.992 199.761 176.752 200.001 176.459 200.001Z" fill="#5D7183"/>
<path d="M246.963 124.083C245.763 123.418 244.203 123.378 242.83 123.378C239.67 123.364 236.057 123.378 234.003 123.391C231.563 116.822 228.31 106.356 226.79 101.503C226.35 100.093 225.044 99.5613 223.564 99.5347C220.391 99.4948 190.219 99.2022 187.392 99.3352C185.965 99.4017 184.952 100.758 185.299 102.141C185.659 103.604 186.032 105.053 186.419 106.503C187.619 111.117 188.872 115.745 190.352 120.279C190.925 122.021 191.445 123.896 192.325 125.519C193.325 127.38 195.738 127.208 197.525 127.181C197.525 127.181 223.604 127.194 232.817 127.287C237.99 127.341 243.163 127.38 248.336 127.434C248.869 126.184 248.149 124.734 246.963 124.083ZM232.363 123.378C232.35 123.391 232.35 123.391 232.363 123.378V123.378Z" fill="white"/>
<path d="M248.336 127.964C248.323 127.964 248.323 127.964 248.336 127.964L232.817 127.818C223.724 127.738 197.791 127.712 197.538 127.712C197.431 127.712 197.311 127.712 197.178 127.712C195.392 127.738 192.952 127.792 191.858 125.77C191.098 124.361 190.592 122.778 190.112 121.262C190.018 120.983 189.938 120.717 189.845 120.438C188.432 116.103 187.245 111.781 185.899 106.621C185.499 105.105 185.125 103.643 184.779 102.246C184.579 101.435 184.752 100.584 185.245 99.906C185.752 99.2278 186.525 98.8156 187.365 98.7757C190.232 98.6294 220.804 98.9352 223.577 98.9751C225.51 99.0017 226.843 99.8262 227.297 101.316C227.537 102.087 227.817 102.991 228.123 103.975C230.07 110.252 233.017 119.746 235.123 124.813C235.23 125.079 235.11 125.398 234.83 125.504C234.563 125.624 234.243 125.491 234.136 125.212C232.003 120.092 229.057 110.584 227.097 104.281C226.79 103.297 226.51 102.406 226.27 101.621C225.87 100.332 224.564 100.039 223.55 100.026C220.79 99.9858 190.258 99.6932 187.405 99.8262C186.885 99.8528 186.405 100.105 186.085 100.531C185.779 100.943 185.672 101.475 185.792 101.98C186.139 103.363 186.512 104.839 186.912 106.342C188.259 111.475 189.432 115.784 190.832 120.092C190.925 120.358 191.005 120.637 191.098 120.917C191.565 122.393 192.058 123.922 192.765 125.238C193.552 126.688 195.445 126.648 197.125 126.621C197.245 126.621 197.378 126.621 197.498 126.621C197.765 126.621 223.697 126.635 232.79 126.728L247.923 126.874C248.123 125.93 247.496 124.972 246.683 124.52C245.643 123.949 244.256 123.895 242.816 123.882C239.47 123.855 237.416 123.895 236.536 123.922C236.363 123.922 236.243 123.922 236.15 123.922H236.136C235.603 123.922 235.51 123.616 235.483 123.43C235.456 123.151 235.67 122.898 235.95 122.858C236.003 122.845 236.043 122.845 236.096 122.858C236.176 122.858 236.336 122.858 236.51 122.845C237.39 122.832 239.47 122.792 242.816 122.805C244.403 122.818 245.936 122.885 247.203 123.576C248.722 124.414 249.416 126.183 248.802 127.605C248.736 127.845 248.549 127.964 248.336 127.964Z" fill="#5D7183"/>
<path d="M205.499 112.485C205.605 113.882 206.445 115.238 207.738 115.863C208.845 116.395 210.245 116.408 211.272 115.743C213.658 114.188 212.765 110.491 210.458 109.36C208.045 108.15 205.299 109.72 205.499 112.485Z" fill="#EEEEEE"/>
<path d="M155.5 119.919C155.34 119.919 155.167 119.839 155.06 119.693C153.007 116.834 154.887 113.509 156.553 110.557C157.26 109.294 157.94 108.11 158.26 107.06C159.566 102.831 159.86 98.3364 159.1 94.0678C157.726 86.2885 153.033 79.7992 148.487 73.5359C146.047 70.1715 143.527 66.7008 141.514 63.0305C141.367 62.7779 141.474 62.4454 141.727 62.3125C141.98 62.1662 142.314 62.2726 142.447 62.5252C144.434 66.1422 146.927 69.5864 149.34 72.9242C153.953 79.2938 158.726 85.8763 160.14 93.8949C160.926 98.3231 160.62 102.991 159.26 107.379C158.9 108.549 158.193 109.786 157.46 111.089C155.873 113.882 154.247 116.767 155.9 119.068C156.073 119.307 156.02 119.64 155.78 119.812C155.713 119.892 155.606 119.919 155.5 119.919Z" fill="#5D7183"/>
<path d="M153.473 114.666C155.939 145.105 141.993 176.049 119.688 196.581C118.594 197.592 117.208 198.655 115.648 198.443C114.034 198.217 113.048 196.647 113.115 195.225C113.181 193.802 114.021 192.498 114.834 191.262L125.607 171.076L123.314 117.472L153.473 114.666Z" fill="#EEEEEE"/>
<path d="M116.047 199.042C115.887 199.042 115.727 199.029 115.553 199.002C113.607 198.736 112.487 196.835 112.554 195.239C112.62 193.63 113.594 192.18 114.367 191.01C114.527 190.771 114.86 190.704 115.1 190.864C115.34 191.023 115.42 191.356 115.247 191.595C114.514 192.712 113.674 193.976 113.607 195.279C113.554 196.422 114.327 197.765 115.687 197.938C117.02 198.124 118.26 197.167 119.3 196.21C124.793 191.156 129.753 185.545 134.046 179.534C138.286 173.59 141.886 167.233 144.752 160.638C147.619 154.042 149.752 147.194 151.085 140.292C152.445 133.297 152.992 126.236 152.725 119.268C152.712 118.976 152.938 118.723 153.232 118.71C153.525 118.696 153.778 118.922 153.792 119.215C154.072 126.249 153.512 133.404 152.138 140.478C150.779 147.46 148.632 154.374 145.739 161.037C142.846 167.699 139.206 174.122 134.926 180.132C130.593 186.21 125.58 191.874 120.033 196.981C118.927 198.018 117.607 199.042 116.047 199.042Z" fill="#5D7183"/>
<path d="M91.9676 113.563C90.7677 132.525 98.354 154.254 106.007 170.531C108.887 176.661 112.033 182.712 115.527 188.603C116.767 190.69 122.393 202.938 126.166 198.523C127.499 196.967 127.606 194.041 127.873 192.193C128.339 189.041 128.313 185.903 128.446 182.738C128.633 178.071 128.433 173.35 128.473 168.669C128.553 158.443 128.966 122.685 128.553 112.459L91.9676 113.563Z" fill="#EEEEEE"/>
<path d="M124.353 200C124.26 200 124.153 200 124.047 199.986C120.793 199.627 117.487 193.417 115.714 190.079C115.434 189.547 115.207 189.122 115.047 188.869C111.714 183.257 108.594 177.34 105.501 170.757C95.4479 149.321 90.8614 131.715 91.4881 116.941C91.5014 116.648 91.7414 116.409 92.0481 116.436C92.3414 116.449 92.568 116.702 92.5547 116.994C91.9281 131.595 96.4879 149.029 106.487 170.305C109.567 176.848 112.674 182.752 115.98 188.324C116.14 188.603 116.38 189.029 116.66 189.587C118.1 192.3 121.473 198.643 124.167 198.936C124.753 199.002 125.26 198.75 125.753 198.178C126.74 197.021 126.993 194.893 127.206 193.178C127.246 192.805 127.3 192.446 127.34 192.114C127.686 189.72 127.766 187.273 127.833 184.906C127.86 184.188 127.873 183.444 127.913 182.712C128.033 179.827 127.993 176.861 127.966 174.002C127.94 172.247 127.926 170.438 127.94 168.656L127.966 165.917C128.046 156.755 128.113 147.287 127.753 137.978C127.74 137.686 127.966 137.433 128.26 137.42C128.553 137.406 128.806 137.632 128.82 137.925C129.193 147.26 129.113 156.742 129.033 165.904L129.006 168.643C128.993 170.412 129.02 172.22 129.033 173.962C129.073 176.835 129.1 179.813 128.98 182.726C128.953 183.457 128.926 184.202 128.9 184.906C128.833 187.3 128.753 189.787 128.393 192.234C128.353 192.553 128.3 192.898 128.26 193.257C128.033 195.106 127.766 197.406 126.566 198.816C125.927 199.614 125.18 200 124.353 200Z" fill="#5D7183"/>
<path d="M152.619 117.686C139.993 121.755 126.461 122.939 113.301 121.277C109.168 120.758 104.888 120.173 100.808 119.082C98.7418 118.537 96.7152 117.846 94.7553 116.995C92.702 116.117 90.9021 115.532 90.7821 113.032C90.6355 109.668 91.5021 106.09 91.9687 102.766C93.8087 89.641 99.7151 77.5799 103.808 65.0932C105.168 60.9043 107.021 56.0905 107.035 51.6623C107.048 46.4894 106.635 41.3698 105.515 36.3033C104.861 33.3512 104.008 30.4522 103.595 27.4602C103.182 24.4682 103.208 21.3565 104.315 18.5373C105.901 14.4682 110.275 11.7155 114.488 11.1038C116.941 10.7581 119.248 11.157 121.567 11.9416C125.581 13.298 128.287 18.1384 129.767 21.8086C131.367 25.7714 132.02 30.0267 133.167 34.1091C134.393 38.4841 135.487 42.8857 136.82 47.2341C138.833 53.8299 141.513 60.1597 144.153 66.516C146.806 72.899 148.886 79.508 150.393 86.2501C151.926 93.1118 152.846 100.133 153.259 107.154C153.459 110.519 153.526 113.883 153.459 117.247L152.619 117.686Z" fill="white"/>
<path d="M131.688 11.7677C130.968 8.35017 126.595 6.03634 123.635 7.89805C124.595 5.10549 123.115 1.70124 120.421 0.491131C117.728 -0.718976 114.195 0.437939 112.728 3.00443C110.289 0.37145 105.809 -0.0407842 102.916 2.10017C100.022 4.21454 99.1158 8.61613 100.929 11.7145C98.2491 9.94592 94.316 12.5789 94.0093 15.7704C93.716 18.9619 96.0492 21.9007 98.8358 23.4965C95.5426 25.7172 95.2493 31.0762 98.0625 33.8821C100.876 36.6746 105.929 36.5683 108.862 33.8954C111.462 31.5284 112.275 27.5922 111.235 24.2411C112.489 24.773 114.008 24.6534 115.128 23.8821C116.555 22.898 117.182 20.9167 116.608 19.2943C119.742 20.8369 123.528 21.422 126.755 20.0922C130.008 18.7358 132.408 15.172 131.688 11.7677Z" fill="#96E296"/>
<path d="M124.807 122.54C120.941 122.54 117.061 122.3 113.221 121.808C109.115 121.29 104.768 120.691 100.662 119.601C98.4752 119.016 96.4087 118.311 94.5421 117.5C94.3954 117.433 94.2488 117.38 94.1154 117.314C92.1955 116.489 90.3823 115.718 90.2623 113.072C90.1556 110.545 90.5956 107.912 91.0222 105.372C91.1822 104.441 91.3289 103.564 91.4489 102.699C92.7288 93.5372 96.022 84.7872 99.2085 76.3164C100.608 72.593 102.048 68.75 103.302 64.9335C103.488 64.3617 103.688 63.7899 103.875 63.1914C105.102 59.5478 106.488 55.4122 106.502 51.6755C106.515 46.0904 106.022 41.1037 104.995 36.4361C104.782 35.492 104.555 34.5478 104.328 33.6303C103.848 31.6622 103.355 29.6143 103.062 27.5665C102.555 23.9627 102.795 20.9574 103.808 18.3776C105.595 13.8032 110.421 11.1835 114.408 10.6117C116.701 10.2925 119.021 10.5585 121.728 11.476C124.061 12.2606 127.434 14.6675 130.26 21.6489C131.327 24.2819 131.98 27.0744 132.62 29.7606C132.954 31.1569 133.287 32.6063 133.674 33.9893C134.114 35.5851 134.554 37.1941 134.98 38.7633C135.714 41.5026 136.487 44.3484 137.327 47.101C139.167 53.1914 141.647 59.1755 144.047 64.9601L144.62 66.343C147.273 72.7393 149.38 79.4015 150.886 86.1702C152.366 92.7792 153.326 99.8404 153.766 107.154C153.966 110.519 154.033 113.936 153.966 117.287C153.966 117.487 153.846 117.66 153.673 117.753L152.846 118.165C152.819 118.178 152.793 118.191 152.766 118.191C143.847 121.077 134.354 122.54 124.807 122.54ZM116.248 11.5292C115.674 11.5292 115.101 11.5691 114.541 11.6489C110.861 12.1675 106.422 14.5744 104.795 18.7367C103.862 21.1436 103.635 23.976 104.115 27.3936C104.395 29.4016 104.888 31.4095 105.368 33.3643C105.595 34.2952 105.835 35.2526 106.035 36.1968C107.088 40.9441 107.581 46.0106 107.568 51.6755C107.555 55.5984 106.142 59.8138 104.888 63.5372C104.688 64.1223 104.502 64.6941 104.315 65.2659C103.062 69.109 101.608 72.9654 100.208 76.6888C97.0353 85.093 93.7554 93.7898 92.4888 102.832C92.3688 103.723 92.2088 104.641 92.0622 105.545C91.6489 108.032 91.2089 110.598 91.3156 113.019C91.4089 115 92.7155 115.558 94.5154 116.33C94.6621 116.396 94.8087 116.449 94.9554 116.516C96.782 117.314 98.7952 118.005 100.928 118.577C104.968 119.654 109.288 120.253 113.355 120.758C126.514 122.42 140.02 121.183 152.406 117.194L152.899 116.941C152.953 113.723 152.886 110.439 152.699 107.207C152.273 99.9468 151.3 92.9388 149.846 86.3829C148.353 79.6808 146.26 73.0585 143.633 66.7287L143.06 65.3457C140.647 59.5345 138.153 53.5372 136.287 47.3936C135.434 44.6143 134.674 41.7686 133.94 39.0159C133.514 37.4468 133.087 35.8377 132.634 34.2553C132.234 32.8457 131.9 31.3829 131.567 29.9734C130.94 27.3138 130.3 24.5744 129.261 22.0079C128.047 19.0292 125.421 13.8165 121.381 12.4468C119.514 11.8351 117.848 11.5292 116.248 11.5292Z" fill="#5D7183"/>
<path d="M121.155 58.9875C115.809 58.9875 110.449 57.1258 106.729 53.9609C106.502 53.7747 106.476 53.429 106.676 53.2162C106.862 52.9901 107.209 52.9635 107.422 53.163C111.102 56.3013 116.475 58.0832 121.795 57.9236C127.115 57.7641 132.435 55.6763 136.034 52.3252C136.248 52.1258 136.581 52.1391 136.794 52.3518C136.994 52.5646 136.981 52.8971 136.768 53.1098C132.981 56.6338 127.395 58.8412 121.835 59.0008C121.595 58.9875 121.382 58.9875 121.155 58.9875Z" fill="#5D7183"/>
<path d="M135.287 76.4355C135.047 76.4355 134.821 76.2627 134.767 76.0233L130.621 57.2202C130.554 56.9276 130.741 56.6484 131.021 56.5819C131.314 56.5154 131.594 56.7016 131.661 56.9808L135.807 75.784C135.874 76.0765 135.687 76.3558 135.407 76.4222C135.367 76.4222 135.327 76.4355 135.287 76.4355Z" fill="#5D7183"/>
<path d="M128.355 37.3794C128.755 36.0629 128.888 34.3076 128.515 32.9512C127.475 33.523 126.435 34.0948 125.395 34.6666C125.088 34.8395 124.768 35.0123 124.568 35.3049C124.275 35.7171 124.302 36.2756 124.408 36.781C124.635 37.8182 125.168 39.3873 126.488 39.3075C127.475 39.2411 128.101 38.2038 128.355 37.3794Z" fill="#5D7183"/>
<path d="M128.54 64.4148C128.1 64.5611 127.714 64.9866 127.847 65.5053C127.98 65.9707 128.54 66.2632 128.994 66.1037C129.46 65.9175 129.714 65.3058 129.527 64.8404C129.354 64.3882 128.927 64.2951 128.54 64.4148Z" fill="#5D7183"/>
<path d="M129.767 70.0535C129.327 70.1998 128.94 70.6253 129.074 71.1439C129.207 71.6094 129.767 71.9019 130.22 71.7424C130.687 71.5562 130.94 70.9445 130.754 70.479C130.567 70.0269 130.14 69.9338 129.767 70.0535Z" fill="#5D7183"/>
<path d="M139.061 106.196C138.821 106.196 138.581 106.196 138.341 106.182C134.141 106.076 129.968 104.986 126.262 103.031C122.422 100.996 119.262 98.1105 117.142 94.6797C112.596 87.3393 111.169 80.5839 112.915 74.5866C112.995 74.3074 113.289 74.1478 113.582 74.2276C113.862 74.3074 114.022 74.5999 113.942 74.8925C112.289 80.5839 113.675 87.06 118.049 94.1345C120.075 97.4057 123.088 100.158 126.768 102.113C130.328 104.001 134.341 105.039 138.368 105.145C142.274 105.238 146.234 104.52 150.154 103.004C153.874 101.568 157.38 99.4935 160.567 96.8206C163.527 94.3472 165.78 91.4749 168.18 88.443C168.446 88.1105 168.7 87.7781 168.966 87.4456C169.833 86.3552 170.9 84.9988 172.486 84.4802C172.766 84.3871 173.073 84.5467 173.153 84.826C173.246 85.1052 173.086 85.4111 172.806 85.4909C171.526 85.9031 170.566 87.1265 169.793 88.0972C169.526 88.4297 169.26 88.7621 169.006 89.0946C166.58 92.1797 164.287 95.0919 161.247 97.6318C157.967 100.371 154.367 102.512 150.54 103.988C146.727 105.451 142.874 106.196 139.061 106.196Z" fill="#5D7183"/>
<path d="M178.681 88.9096C187.831 80.9136 198.42 81.58 202.565 81.6729C201.032 77.9539 198.107 69.5396 198.107 69.5396C188.488 68.9662 178.525 76.8072 169.25 80.5727C169.297 80.7742 177.336 85.299 178.681 88.9096Z" fill="#96E296"/>
<path d="M177.525 86.2909C186.862 80.6038 195.606 79.5966 199.563 80.0305C198.452 77.3962 196.779 71.9416 196.701 71.8486C187.332 71.2288 180.153 77.9695 172.285 81.0997C172.332 81.2392 176.571 83.7185 177.525 86.2909Z" fill="white"/>
<path d="M181.559 80.3244C181.012 79.0692 182.498 77.1632 184.672 76.3109C186.846 75.4587 189.333 75.8306 189.912 77.0702C191.351 80.1694 182.889 83.4546 181.559 80.3244Z" fill="#96E296"/>
<path d="M193.162 77.3029C194.492 77.7058 195.79 76.3577 195.024 75.5209C194.367 74.7926 193.225 75.0715 192.678 75.9393C192.349 76.4506 192.552 77.117 193.162 77.3029Z" fill="#96E296"/>
<path d="M177.306 84.1057C178.636 84.5086 179.934 83.1604 179.167 82.3236C178.51 81.5953 177.369 81.8742 176.821 82.742C176.477 83.2689 176.696 83.9197 177.306 84.1057Z" fill="#96E296"/>
<path d="M175.35 84.9272C175.35 82.5874 175.616 80.2939 175.897 77.9695C176.226 75.2423 176.648 72.515 177.211 69.8651C178.353 64.5035 180.089 59.2814 182.248 54.1987C177.289 53.4549 172.347 52.6801 167.389 52.0138C167.185 51.9828 166.904 52.0138 166.701 52.0138C166.904 62.0707 166.669 72.0966 165.434 82.0915C168.906 82.5409 172.222 83.3312 175.35 84.9272Z" fill="#96E296"/>
<path d="M174.384 81.767C174.431 79.8145 174.634 77.893 174.853 75.956C175.103 73.6781 175.416 71.4002 175.839 69.1533C176.667 64.6749 177.903 60.2586 179.483 55.9507C176.104 55.4238 172.726 54.897 169.363 54.4166C169.222 54.4011 169.035 54.4166 168.91 54.4321C168.644 62.9084 168.268 71.3847 167.549 79.83C169.879 80.2329 172.21 80.7752 174.384 81.767Z" fill="white"/>
<path d="M171.849 72.1596C170.035 71.6018 169.112 68.8435 169.175 67.108C169.237 65.3879 170.645 63.0015 172.663 63.3269C176.667 63.9933 175.337 73.2289 171.849 72.1596Z" fill="#96E296"/>
<path d="M174.145 60.3971C174.989 59.6068 174.661 57.7163 173.331 57.8248C172.346 57.9023 172.033 59.08 172.612 60.0252C172.972 60.6141 173.722 60.8 174.145 60.3971Z" fill="#96E296"/>
<path d="M171.88 77.5038C172.631 76.6671 172.193 74.792 171.27 74.916C170.488 75.0245 170.269 76.1092 170.707 77.07C170.988 77.6588 171.536 77.8758 171.88 77.5038Z" fill="#96E296"/>
<path d="M178.838 88.5387C183.969 73.0582 192.9 68.2079 197.107 64.7213C192.978 61.6221 190.835 60.026 186.706 56.9114C186.549 56.7874 186.283 56.6789 186.111 56.5859C176.351 63.4662 171.44 70.7493 166.857 81.1006C167.076 81.2865 173.067 84.1223 178.838 88.5387Z" fill="#96E296"/>
<path d="M177.821 85.0995C182.842 72.3618 190.068 67.8835 193.54 64.8153C190.569 62.6149 189.036 61.4682 186.064 59.2677C185.955 59.1902 185.751 59.1128 185.626 59.0508C177.649 65.2027 173.364 71.3701 169.125 79.9704C169.25 80.0943 173.676 81.9538 177.821 85.0995Z" fill="white"/>
<path d="M177.086 75.3204C175.335 74.0187 175.053 71.121 176.492 69.215C177.931 67.3245 180.825 66.7511 182.608 68.0218C187.018 71.1985 181.435 78.5591 177.086 75.3204Z" fill="#96E296"/>
<path d="M185.754 66.4424C187.303 66.2409 187.553 64.2419 186.224 63.7306C185.082 63.2967 184.206 64.1025 184.3 65.2492C184.378 65.9775 185.051 66.5353 185.754 66.4424Z" fill="#96E296"/>
<path d="M175.241 80.4033C176.789 80.2019 177.039 78.2029 175.71 77.6915C174.568 77.2576 173.692 78.0634 173.786 79.2101C173.849 79.9229 174.521 80.4963 175.241 80.4033Z" fill="#96E296"/>
</g>
<path d="M17.2014 172.622H70.5055L82.3613 122.523L0.528183 134.796L4.81379 162.116C5.76788 168.159 11.0232 172.622 17.2014 172.622Z" fill="white"/>
<path d="M22.8478 199.941C19.7553 199.941 17.2484 197.457 17.2484 194.393C17.2484 191.329 19.7553 188.846 22.8478 188.846C25.9403 188.846 28.4473 191.329 28.4473 194.393C28.4473 197.457 25.9403 199.941 22.8478 199.941Z" fill="#DFE2EA"/>
<path d="M59.1369 199.941C56.0444 199.941 53.5374 197.457 53.5374 194.393C53.5374 191.329 56.0444 188.846 59.1369 188.846C62.2294 188.846 64.7363 191.329 64.7363 194.393C64.7363 197.457 62.2294 199.941 59.1369 199.941Z" fill="#DFE2EA"/>
<path d="M8.39604 119.27C8.63065 121.176 11.3834 142.607 10.5076 142.668C15.106 142.328 19.7044 141.987 24.2715 141.305C26.211 141.01 28.1349 140.654 30.0743 140.453C32.5143 140.189 34.9699 140.143 37.4099 139.895C41.805 139.43 46.075 138.237 50.3293 137.059C50.7203 130.163 50.7359 123.237 50.3762 116.341C50.298 114.853 48.077 98.7684 47.7955 96.7849C47.7798 96.6764 47.6703 96.5989 47.5765 96.6299C45.6683 97.0173 43.7288 97.2963 41.7893 97.4667C39.6309 97.6527 8.6463 99.6207 6.48786 100.21C6.48786 100.21 6.84761 107.741 7.08222 109.306C7.5358 112.637 7.97373 115.953 8.39604 119.27Z" fill="#DFE2EA"/>
<path d="M19.9704 103.603C20.0017 103.603 20.033 103.603 20.0799 103.588C20.3771 103.526 20.5804 103.247 20.5178 102.952C20.1111 100.876 19.8922 98.8148 19.8609 96.8158V96.5059C19.7983 93.6236 19.7358 90.354 21.4563 87.9211C22.035 87.0998 22.817 86.4955 23.6304 86.2475C26.7585 85.2868 29.1203 89.2848 29.5583 90.0905C31.2006 93.1123 31.4664 97.0792 31.6854 100.581C31.7167 101.108 31.748 101.635 31.7949 102.146C31.8106 102.441 32.0764 102.673 32.3893 102.642C32.6864 102.627 32.9211 102.363 32.8898 102.053C32.8585 101.542 32.8116 101.031 32.7803 100.504C32.5457 96.8933 32.2798 92.7868 30.528 89.5637C29.0421 86.8364 26.3675 84.2641 23.3175 85.1938C22.2696 85.5192 21.2999 86.2475 20.5647 87.2703C18.6409 89.9821 18.7035 93.4377 18.766 96.4904V96.8003C18.7973 98.8458 19.0319 100.984 19.4386 103.123C19.4855 103.417 19.7201 103.603 19.9704 103.603Z" fill="#5D7183"/>
<path d="M1.55977 121.731C2.62335 131.463 4.96949 143.751 6.37717 153.451C6.73691 155.915 7.12792 158.364 7.59715 160.797C9.61482 171.458 12.3207 169.893 16.6845 170.203C22.0181 170.575 24.6144 169.986 29.948 169.66C30.0575 169.66 22.8001 119.004 22.8001 119.004C22.8001 119.004 6.7369 121.22 1.55977 121.731Z" fill="#96E296"/>
<path d="M6.80184 123.53C6.8644 123.53 6.92696 123.514 6.98952 123.499C7.27106 123.39 7.41182 123.08 7.30234 122.801C7.20849 122.569 7.1303 122.336 7.03645 122.104C5.66005 118.54 3.95519 114.108 6.20747 110.838C6.5985 110.281 7.13029 109.909 7.67772 109.8C8.56925 109.63 9.4608 110.157 9.97695 110.714C10.7433 111.52 13.2615 114.666 13.5587 121.515C13.5743 121.81 13.8246 122.042 14.1374 122.027C14.4346 122.011 14.6692 121.763 14.6536 121.453C14.5754 119.625 14.0436 113.411 10.7746 109.955C9.85182 108.979 8.58489 108.499 7.45875 108.715C6.62978 108.87 5.83211 109.413 5.28468 110.219C2.70393 113.969 4.51827 118.695 5.98852 122.491C6.08236 122.724 6.1762 122.956 6.25441 123.189C6.36389 123.39 6.58286 123.53 6.80184 123.53Z" fill="#5D7183"/>
<path d="M68.4878 169.198C56.8197 169.477 38.7858 169.26 38.7858 169.26C39.0047 168.284 39.2081 165.463 39.4427 164.487C40.6001 159.497 41.3978 154.446 42.0234 149.379C42.8993 142.219 43.4311 135.014 44.1037 127.824C44.2757 126.026 45.7772 106.873 45.7772 106.873C57.3671 107.09 68.9101 109.755 80.4688 108.888C73.1019 149.177 68.6599 168.656 68.4878 169.198Z" fill="#96E296"/>
<path d="M69.1257 113.227C69.3291 113.227 69.5324 113.103 69.6262 112.917C71.1278 109.694 72.0193 106.254 72.3008 102.72C72.4416 100.938 72.426 98.676 71.1121 96.9405C69.7983 95.2204 67.2645 94.4456 64.934 95.019C62.9319 95.5303 61.1332 96.925 59.835 98.955C58.5994 100.892 57.9894 103.123 57.5984 104.859C57.0822 107.168 56.7381 109.523 56.5817 111.894C56.5661 112.189 56.7851 112.452 57.0979 112.467C57.3951 112.483 57.661 112.266 57.6766 111.956C57.833 109.647 58.1615 107.338 58.6776 105.091C59.053 103.449 59.6317 101.326 60.7735 99.5283C61.9153 97.7308 63.495 96.5066 65.2155 96.0727C67.1237 95.5923 69.1883 96.2122 70.2362 97.5913C71.3311 99.0324 71.3311 101.031 71.206 102.628C70.9401 106.037 70.0642 109.353 68.6252 112.452C68.5001 112.731 68.6252 113.041 68.8911 113.18C68.9693 113.211 69.0475 113.227 69.1257 113.227Z" fill="#5D7183"/>
<path d="M22.4739 139.63C24.2101 138.964 26.1026 138.685 27.9795 138.484C31.3736 138.112 34.799 137.941 38.2243 137.972C41.4307 138.003 44.8561 138.034 48.0155 138.561C49.7829 144.047 50.7683 149.935 51.3627 155.591C51.9101 160.736 51.8319 165.896 51.957 171.041C49.4701 170.994 46.9832 170.917 44.4963 170.855C42.0563 170.793 27.3852 170.994 22.865 170.173C22.8493 169.987 22.0986 139.77 22.4739 139.63Z" fill="white"/>
<path d="M31.0457 142.699C31.0926 142.699 31.1239 142.699 31.1708 142.684C31.468 142.622 31.6557 142.328 31.5775 142.033C30.4826 137.291 31.7652 135.261 32.3751 134.626C33.079 133.867 33.9549 133.712 34.5805 133.696C35.7692 133.681 37.0205 134.208 37.912 135.106C39.4448 136.641 40.2112 139.228 39.9297 141.847C39.8984 142.142 40.1174 142.421 40.4146 142.452C40.7117 142.483 40.9933 142.266 41.0246 141.971C41.353 139.027 40.4615 136.114 38.7097 134.347C37.5992 133.231 36.0664 132.596 34.5805 132.612C33.3918 132.627 32.3439 133.076 31.5931 133.898C29.419 136.222 30.1229 140.546 30.5295 142.297C30.5764 142.529 30.7954 142.699 31.0457 142.699Z" fill="#5D7183"/>
<path d="M17.5603 173.164L70.3952 173.102C70.6455 173.102 70.8644 172.931 70.927 172.683L82.9079 122.662C82.9549 122.492 82.9079 122.306 82.7828 122.167C82.6577 122.027 82.4856 121.965 82.2979 121.996L0.46479 134.269C0.32402 134.284 0.198891 134.362 0.105042 134.486C0.0112 134.61 -0.0200806 134.749 0.0112 134.889L4.23425 161.852C4.73476 164.997 6.34576 167.88 8.78574 169.956C11.2257 172.017 14.3383 173.164 17.5603 173.164ZM69.9573 172.002L17.5603 172.064C14.6042 172.064 11.7419 171.01 9.48959 169.104C7.2373 167.198 5.75142 164.564 5.29784 161.666L1.15299 135.23L81.641 123.158L69.9573 172.002Z" fill="#5D7183"/>
<path d="M22.3338 189.388L58.824 189.202C63.6101 189.171 67.7393 185.933 68.8498 181.315L84.96 114.372C85.4292 112.435 86.4771 110.746 88.0256 109.476C89.5584 108.205 91.4353 107.461 93.4373 107.353L109.657 107.074C109.954 107.058 110.189 106.795 110.173 106.5C110.157 106.206 109.892 105.974 109.594 105.989L93.3748 106.268C91.1381 106.392 89.0422 107.213 87.3217 108.654C85.6012 110.08 84.4125 111.97 83.8964 114.14L67.7863 181.083C66.8009 185.204 63.1096 188.102 58.824 188.133L22.3495 188.319C22.0523 188.319 21.802 188.567 21.802 188.862C21.7864 189.156 22.0367 189.388 22.3338 189.388Z" fill="#5D7183"/>
<path d="M52.1603 173.164C52.4262 173.164 52.6765 172.963 52.7077 172.684L58.5105 126.242C58.5418 125.948 58.3385 125.669 58.0413 125.638C57.7441 125.607 57.4626 125.808 57.4313 126.103L51.6285 172.544C51.5972 172.839 51.8006 173.118 52.0977 173.149C52.129 173.164 52.1447 173.164 52.1603 173.164Z" fill="#5D7183"/>
<path d="M29.0923 173.163C29.108 173.163 29.1236 173.163 29.1393 173.163C29.4365 173.132 29.6711 172.869 29.6398 172.574L26.0893 130.999C26.058 130.704 25.7921 130.472 25.4949 130.503C25.1978 130.534 24.9632 130.797 24.9944 131.092L28.5449 172.667C28.5606 172.946 28.7952 173.163 29.0923 173.163Z" fill="#5D7183"/>
<path d="M5.3791 153.578C5.39474 153.578 5.39473 153.578 5.41037 153.578L75.0593 149.394C75.3565 149.379 75.5911 149.115 75.5754 148.821C75.5598 148.526 75.2939 148.294 74.9967 148.309L5.3478 152.493C5.05063 152.509 4.81602 152.772 4.83167 153.067C4.84731 153.361 5.09756 153.578 5.3791 153.578Z" fill="#5D7183"/>
<defs>
<clipPath id="clip0_81_9242">
<rect width="203.764" height="200" fill="white" transform="translate(90.2363)"/>
</clipPath>
</defs>
</svg>
