<svg width="226" height="201" viewBox="0 0 226 201" fill="none" xmlns="http://www.w3.org/2000/svg">
<path d="M58.2574 190.125C53.4663 189.147 -4.00416 180.275 0.221939 114.831C4.44804 49.4096 9.75892 29.7332 32.1098 22.5223C51.1386 16.4032 69.3311 6.23515 88.7667 2.18612C124.971 -5.36601 155.865 7.8957 189.402 22.909C216.499 35.0561 219.776 62.6941 224.883 95.4503C228.635 119.472 222.646 146.04 211.233 165.353C196.589 190.148 175.933 194.424 152.904 193.15C105.287 190.512 80.9925 194.811 58.2574 190.125Z" fill="#F9F9F9"/>
<path d="M58.2574 190.125C53.4663 189.147 -4.00416 180.275 0.221939 114.831C4.44804 49.4096 9.75892 29.7332 32.1098 22.5223C51.1386 16.4032 69.3311 6.23515 88.7667 2.18612C124.971 -5.36601 155.865 7.8957 189.402 22.909C216.499 35.0561 219.776 62.6941 224.883 95.4503C228.635 119.472 222.646 146.04 211.233 165.353C196.589 190.148 175.933 194.424 152.904 193.15C105.287 190.512 80.9925 194.811 58.2574 190.125Z" fill="#F9F9F9"/>
<path d="M71.7002 187.992C68.3541 182.477 72.5724 174.452 79.3599 173.396C86.1632 172.357 92.9983 178.672 91.8089 184.891C93.7595 180.958 99.865 179.375 103.766 181.789C97.7717 178.064 95.3929 170.151 98.4536 164.124C101.514 158.097 109.65 154.692 116.628 156.499C122.796 158.097 127.332 163.149 129.584 168.664C131.836 174.164 132.153 180.159 132.454 186.026C130.631 181.917 135.658 176.865 140.288 178.144C145.902 179.695 147.631 187.624 143.492 191.253C140.13 194.195 131.931 192.772 127.617 192.82C121.211 192.868 114.788 192.756 108.381 192.612C95.8687 192.324 83.3404 191.909 70.828 192.34C66.9902 192.468 49.863 194.467 52.3369 186.361C54.351 179.695 69.0994 183.756 71.7002 187.992Z" fill="#B7E250"/>
<path d="M116.028 121.085V58.7117C116.028 53.0216 120.512 48.4106 126.051 48.4106H186.775C192.315 48.4106 196.799 53.0216 196.799 58.7117V183.534C196.799 189.224 192.315 193.835 186.775 193.835H126.051C120.512 193.835 116.028 189.224 116.028 183.534V153.23V121.085Z" fill="white"/>
<path d="M192.316 65.6431H120.501V175.096H192.316V65.6431Z" fill="white"/>
<path d="M192.315 66.0241H120.501C120.296 66.0241 120.124 65.8497 120.124 65.6426C120.124 65.4356 120.296 65.2612 120.501 65.2612H192.315C192.52 65.2612 192.693 65.4356 192.693 65.6426C192.693 65.8606 192.52 66.0241 192.315 66.0241Z" fill="#5D7183"/>
<path d="M192.315 175.477H120.501C120.296 175.477 120.124 175.303 120.124 175.096C120.124 174.889 120.296 174.714 120.501 174.714H192.315C192.52 174.714 192.693 174.889 192.693 175.096C192.693 175.303 192.52 175.477 192.315 175.477Z" fill="#5D7183"/>
<path d="M163.872 58.11H150.162C149.957 58.11 149.785 57.9356 149.785 57.7286C149.785 57.5215 149.957 57.3472 150.162 57.3472H163.872C164.076 57.3472 164.249 57.5215 164.249 57.7286C164.249 57.9465 164.076 58.11 163.872 58.11Z" fill="#5D7183"/>
<path d="M141.453 59.2112H141.798C142.52 59.2112 143.112 58.6117 143.112 57.8813V57.5325C143.112 56.8022 142.52 56.2026 141.798 56.2026H141.453C140.73 56.2026 140.138 56.8022 140.138 57.5325V57.8813C140.138 58.6226 140.73 59.2112 141.453 59.2112Z" fill="#5D7183"/>
<path d="M152.738 187.872H160.088C161.662 187.872 162.944 186.586 162.944 184.983V184.22C162.944 182.629 161.673 181.332 160.088 181.332H152.738C151.164 181.332 149.881 182.618 149.881 184.22V184.983C149.881 186.586 151.153 187.872 152.738 187.872Z" fill="white"/>
<path d="M160.078 188.253H152.727C150.949 188.253 149.494 186.792 149.494 184.983V184.22C149.494 182.421 150.938 180.95 152.727 180.95H160.078C161.856 180.95 163.311 182.41 163.311 184.22V184.983C163.311 186.792 161.856 188.253 160.078 188.253ZM152.738 181.724C151.369 181.724 150.259 182.846 150.259 184.231V184.994C150.259 186.378 151.369 187.501 152.738 187.501H160.089C161.457 187.501 162.567 186.378 162.567 184.994V184.231C162.567 182.846 161.457 181.724 160.089 181.724H152.738Z" fill="#5D7183"/>
<path d="M186.764 194.216H126.051C120.317 194.216 115.65 189.42 115.65 183.534V76.7299C115.65 76.5228 115.823 76.3484 116.028 76.3484C116.232 76.3484 116.405 76.5228 116.405 76.7299V183.534C116.405 189.006 120.727 193.453 126.051 193.453H186.775C192.089 193.453 196.421 189.006 196.421 183.534V58.7113C196.421 53.2393 192.099 48.7918 186.775 48.7918H126.051C120.738 48.7918 116.405 53.2393 116.405 58.7113V64.1943C116.405 64.4014 116.232 64.5758 116.028 64.5758C115.823 64.5758 115.65 64.4014 115.65 64.1943V58.7113C115.65 52.8141 120.317 48.0288 126.051 48.0288H186.775C192.509 48.0288 197.176 52.825 197.176 58.7113V183.534C197.165 189.42 192.498 194.216 186.764 194.216Z" fill="#5D7183"/>
<path d="M194.302 46.1469C194.421 46.1469 194.539 46.0924 194.615 45.9834L200.575 37.5137C200.694 37.3393 200.661 37.0994 200.489 36.9795C200.316 36.8596 200.079 36.8923 199.961 37.0667L193.99 45.5365C193.871 45.7109 193.903 45.9507 194.076 46.0706C194.151 46.1251 194.227 46.1469 194.302 46.1469Z" fill="#5D7183"/>
<path d="M190.281 44.7526C190.464 44.7526 190.626 44.6109 190.658 44.4256L191.661 37.1004C191.694 36.8933 191.543 36.6971 191.338 36.6753C191.133 36.6426 190.939 36.7952 190.917 37.0023L189.914 44.3275C189.882 44.5346 190.033 44.7308 190.238 44.7526C190.249 44.7526 190.259 44.7526 190.281 44.7526Z" fill="#5D7183"/>
<path d="M137.488 86.6758H126.608V94.9928M175.075 86.6758H185.955V94.9928M137.488 152.015H126.608V143.698M175.075 152.015H185.955V143.698" stroke="#FA758E" stroke-width="8" stroke-linecap="round" stroke-linejoin="round"/>
<path d="M66.2141 194.437C65.0301 187.359 64.5523 180.197 64.2303 173.046C64.0018 167.942 62.9632 161.221 68.0006 157.966C70.971 156.044 74.8347 155.844 78.2934 156.643C80.433 157.126 82.5518 158.008 84.0162 159.614C85.9065 161.683 85.0341 162.838 84.1097 165.254C82.9984 168.142 77.4313 186.918 75.1048 192.768C74.2531 194.91 71.4592 203.059 68.0836 199.866C66.7438 198.575 66.5049 196.138 66.2141 194.437Z" fill="white"/>
<path d="M69.6618 201C69.0282 201 68.405 200.716 67.8026 200.149C66.5043 198.92 66.1616 196.789 65.8916 195.077C65.8604 194.877 65.8292 194.688 65.7981 194.499C64.2505 185.216 63.8974 175.691 63.5546 166.471C63.5442 166.24 63.7208 166.04 63.9493 166.04C64.1778 166.03 64.3752 166.208 64.3752 166.439C64.7179 175.628 65.071 185.132 66.6082 194.352C66.6394 194.541 66.6705 194.73 66.7017 194.93C66.951 196.515 67.2625 198.49 68.3531 199.519C68.8932 200.033 69.4229 200.223 69.9526 200.096C71.9779 199.634 73.7436 195.056 74.4914 193.103C74.5745 192.903 74.6368 192.714 74.6991 192.567C76.9634 186.875 78.5421 181.614 80.2247 176.027C81.1802 172.845 82.1669 169.558 83.299 166.156C83.3717 165.935 83.6106 165.82 83.8287 165.893C84.0468 165.967 84.1611 166.208 84.0884 166.429C82.9563 169.821 81.9696 173.097 81.014 176.269C79.3314 181.866 77.7423 187.159 75.4677 192.871C75.4054 193.018 75.3431 193.197 75.26 193.397C74.3876 195.654 72.5803 200.338 70.1292 200.905C69.9941 200.979 69.828 201 69.6618 201Z" fill="#5D7183"/>
<path d="M61.7577 194.437C62.9417 187.359 63.4195 180.197 63.7415 173.046C63.97 167.942 65.0086 161.221 59.9712 157.966C57.0008 156.044 53.1371 155.844 49.6784 156.643C47.5388 157.126 45.42 158.008 43.9556 159.614C42.0653 161.683 43.3843 163.889 44.1944 166.335C45.607 170.599 50.5405 186.918 52.867 192.768C53.7187 194.91 56.5126 203.059 59.8882 199.866C61.228 198.575 61.4669 196.138 61.7577 194.437Z" fill="white"/>
<path d="M58.3092 201C58.143 201 57.9769 200.979 57.8107 200.937C55.3595 200.37 53.5523 195.686 52.6798 193.429C52.6071 193.229 52.5344 193.051 52.4721 192.904C50.1248 186.991 48.3903 181.383 46.5623 175.45C45.6171 172.394 44.6408 169.233 43.5814 166.03C43.5087 165.81 43.623 165.568 43.8411 165.495C44.0592 165.421 44.2981 165.537 44.3708 165.757C45.4406 168.96 46.4169 172.132 47.362 175.188C49.19 181.11 50.9142 186.697 53.2511 192.578C53.3134 192.725 53.3757 192.914 53.4588 193.114C54.217 195.067 55.9723 199.646 57.9976 200.108C58.5273 200.234 59.057 200.045 59.5971 199.53C60.6877 198.501 60.9993 196.527 61.2485 194.941C61.2797 194.741 61.3109 194.542 61.342 194.363C62.8896 185.143 63.2323 175.639 63.5751 166.45C63.5855 166.219 63.7828 166.041 64.0009 166.051C64.2294 166.062 64.406 166.251 64.3956 166.482C64.0528 175.702 63.6997 185.227 62.1521 194.51C62.121 194.689 62.0898 194.888 62.0587 195.088C61.7886 196.8 61.4563 198.931 60.1476 200.16C59.5763 200.717 58.9532 201 58.3092 201Z" fill="#5D7183"/>
<path d="M50.7277 70.6246C50.3954 73.4495 50.0007 76.2849 49.3048 79.0468C45.3164 94.8725 39.739 110.236 35.8649 126.093C33.9123 134.053 32.3959 142.15 31.7727 150.331C31.5234 153.618 31.0976 157.157 30.7652 160.36C30.1317 166.524 96.8221 165.033 98.5047 162.218C100.468 158.931 93.6128 126.429 92.7611 122.953C89.3232 108.829 84.6182 95.072 78.7292 81.7981C76.9428 77.7761 76.9012 73.0924 76.87 67.2956C76.8285 60.7847 77.9295 51.4384 72.1858 46.8073C65.5905 41.483 56.2325 45.2005 53.719 53.0766C53.0335 55.2294 52.5245 57.5398 52.1195 59.8921L50.7277 70.6246Z" fill="white"/>
<path d="M65.0721 92.8758C60.0451 91.5421 55.257 89.3788 50.9571 86.4279C49.2226 85.2412 47.9658 84.1386 47.9658 84.1386C48.4747 82.2273 49.4407 78.5098 49.8561 76.5355C50.4481 73.7841 57.9159 77.2496 60.5956 77.9952C63.2752 78.7408 65.8822 79.8435 68.6346 80.211C70.4418 80.4631 72.2282 74.2567 74.0458 74.4877C75.8634 74.7188 78.0757 80.085 79.0417 82.7629L81.0151 87.121C81.0151 87.121 75.0741 91.0695 72.7995 92.5397C71.5947 91.2061 69.642 89.8724 68.3853 88.1186C67.2844 89.7253 66.1834 91.3006 65.0721 92.8758Z" fill="white"/>
<path d="M65.0185 86.2818C64.3849 86.2818 63.7306 86.2608 63.0763 86.2188C58.3817 85.9353 53.9467 83.856 49.8961 80.044C49.7299 79.8864 49.7195 79.6239 49.8753 79.4454C50.0311 79.2773 50.2907 79.2668 50.4673 79.4244C54.3726 83.1104 58.6413 85.1057 63.1386 85.3787C68.9445 85.7253 73.93 84.4966 77.5755 81.8292C77.7625 81.6927 78.0222 81.7347 78.1572 81.9237C78.2922 82.1127 78.2507 82.3753 78.0637 82.5118C74.6674 84.9902 70.1909 86.2818 65.0185 86.2818Z" fill="#5D7183"/>
<path d="M49.4391 52.551C49.1483 54.0527 48.9821 55.5334 48.8783 56.8146C48.8263 57.4342 49.1691 66.1084 49.5949 65.9824C53.2094 64.8692 56.6888 63.3045 59.9085 61.3302C61.1445 60.5741 62.5259 60.0175 63.5022 58.9569C63.928 58.4948 66.6285 54.9138 66.213 54.3573C67.0127 55.4284 67.6048 56.6466 67.9164 57.9488C67.9994 58.3058 76.4123 56.8671 77.2536 56.7411C77.7418 56.6676 78.2715 56.5836 78.5727 56.195C78.8427 55.859 78.8635 55.3969 78.8427 54.9663C78.6869 50.3667 75.7372 45.179 71.8631 42.6691C69.547 41.1674 66.6596 39.9808 63.9176 39.6552C64.9874 39.7812 67.9371 38.0485 68.8823 37.4184C70.274 36.4838 71.4892 34.8665 71.5516 33.1443C71.6035 31.5691 70.6895 30.0569 69.412 29.1117C68.176 28.1456 66.5973 27.694 65.029 27.4735C62.0585 27.0535 58.9841 27.421 56.2006 28.5342C53.9883 29.4163 51.7657 31.0755 51.4956 33.4383C51.3087 35.0766 52.1499 36.7148 53.3859 37.807C55.3801 39.5817 58.444 40.6634 60.9887 39.8547C57.6858 40.9049 54.57 43.2467 52.2746 45.7986C50.779 47.4578 49.9377 50.0202 49.4391 52.551Z" fill="#FA758E"/>
<path d="M58.8594 40.0637C58.6621 40.2002 58.579 40.5153 58.7452 40.6833C58.8698 40.8093 59.0671 40.7988 59.2437 40.7778C60.9782 40.6203 62.7127 40.4627 64.4473 40.2947C64.6861 40.2737 64.9458 40.2422 65.1431 40.0952C65.3405 39.9482 65.434 39.6436 65.2782 39.4546C65.1431 39.2971 64.9043 39.2971 64.6965 39.3076C63.1282 39.4336 60.1993 39.087 58.8594 40.0637Z" fill="#5D7183"/>
<path d="M64.9669 165.076C52.2644 165.076 38.3052 164.435 32.9043 162.598C32.2396 162.366 30.2039 161.684 30.3389 160.308C30.4324 159.405 30.5363 158.491 30.6401 157.525C30.8998 155.12 31.1698 152.642 31.3464 150.29C31.9073 142.939 33.2471 134.989 35.449 125.979C37.4639 117.798 39.967 109.586 42.387 101.658C44.6513 94.2435 46.9882 86.5774 48.9096 78.9429C49.6263 76.097 50.0106 73.2406 50.3222 70.5732L51.7139 59.8512C51.7139 59.8407 51.7139 59.8407 51.7139 59.8302C52.1709 57.1839 52.7006 54.9365 53.3238 52.9518C54.6429 48.8352 57.8211 45.6428 61.8406 44.4141C65.5485 43.2904 69.4018 44.036 72.4346 46.4829C77.5343 50.5889 77.3993 58.276 77.2954 64.4404C77.2747 65.4485 77.2643 66.3936 77.2643 67.2968C77.3058 73.0936 77.337 77.6617 79.0923 81.6313C81.1591 86.2834 83.1014 91.0616 84.867 95.8187C84.9501 96.0393 84.8359 96.2808 84.6282 96.3648C84.41 96.4488 84.1712 96.3333 84.0881 96.1233C82.3224 91.3766 80.3905 86.6195 78.3341 81.9883C76.5061 77.8612 76.4749 72.9781 76.4334 67.3178C76.423 66.4041 76.4437 65.459 76.4645 64.4404C76.5684 58.4545 76.693 51.009 71.9153 47.155C69.1006 44.8866 65.5174 44.183 62.0795 45.2332C58.3196 46.3779 55.3388 49.3708 54.1132 53.2248C53.49 55.1676 52.9707 57.3729 52.5241 59.9772L51.1427 70.6887C50.8415 73.2511 50.4468 76.2545 49.7094 79.1529C47.7775 86.8085 45.4406 94.4851 43.1764 101.91C40.7668 109.828 38.2637 118.019 36.2591 126.199C34.0676 135.157 32.7382 143.065 32.1773 150.374C32.0007 152.737 31.7307 155.225 31.4607 157.63C31.3568 158.596 31.2529 159.51 31.1594 160.403C31.1075 160.865 31.9176 161.295 32.3954 161.516C37.3393 163.7 54.1132 164.351 68.1659 164.225C75.644 164.162 82.8729 163.889 88.5126 163.459C97.0813 162.808 98.0369 162.083 98.1304 161.988C98.4939 161.358 98.8366 158.638 97.0606 147.486C95.7727 139.379 93.9862 130.705 93.28 127.355C93.228 127.124 93.3734 126.903 93.6019 126.861C93.8304 126.809 94.0485 126.956 94.0901 127.187C94.7963 130.547 96.5828 139.232 97.8707 147.36C99.9687 160.539 99.1171 161.967 98.8366 162.44C98.6393 162.766 98.1823 163.532 89.2916 164.246C83.9219 164.677 76.9111 164.96 69.5576 165.055C68.0724 165.076 66.5352 165.076 64.9669 165.076Z" fill="#5D7183"/>
<path d="M70.4411 71.7685C70.4307 71.7685 70.4203 71.7685 70.4099 71.7685C68.8001 71.737 68.3431 69.1117 68.2288 67.9775C68.208 67.7465 68.3742 67.5364 68.5923 67.5154C68.8208 67.4944 69.0286 67.6625 69.0493 67.883C69.2051 69.3847 69.6933 70.9074 70.4307 70.9179C71.0227 70.9284 71.7913 69.8888 72.051 68.135C72.0821 67.904 72.3002 67.7465 72.5287 67.778C72.7572 67.8095 72.913 68.03 72.8819 68.261C72.5599 70.3613 71.5836 71.7685 70.4411 71.7685Z" fill="#5D7183"/>
<path d="M68.8518 124.244C65.362 124.244 61.9657 123.625 58.8394 122.396C52.7738 120.012 47.8923 115.087 45.4515 108.912C43.0211 102.748 43.0523 98.8623 45.5865 90.8497C45.6592 90.6292 45.8877 90.5032 46.1058 90.5767C46.3239 90.6502 46.4486 90.8812 46.3759 91.1018C43.8832 98.9779 43.852 102.58 46.2201 108.597C48.5674 114.562 53.2828 119.309 59.1406 121.619C64.7492 123.835 71.3134 124.003 77.6075 122.092C80.4118 121.241 87.1317 118.605 89.074 112.441C89.1467 112.22 89.3752 112.094 89.5933 112.168C89.8114 112.241 89.936 112.472 89.8633 112.693C88.4092 117.303 84.0262 121.02 77.8464 122.89C74.8655 123.793 71.8223 124.244 68.8518 124.244Z" fill="#5D7183"/>
<path d="M65.0712 93.2974C65.0401 93.2974 64.9985 93.2974 64.9674 93.2869C58.9018 91.6802 53.2516 88.8868 48.6193 85.2218C48.4428 85.0748 48.4116 84.8123 48.5466 84.6338C48.692 84.4552 48.9517 84.4237 49.1283 84.5602C53.6048 88.0992 59.0472 90.8086 64.8947 92.3943L68.0417 87.9102C68.1144 87.8052 68.2391 87.7317 68.3741 87.7317C68.5091 87.7317 68.6338 87.7947 68.7168 87.8997C69.4543 88.9288 70.441 89.811 71.3965 90.6616C71.9262 91.1341 72.4248 91.5752 72.861 92.0268C74.0035 91.2812 75.2083 90.5041 76.4131 89.727C77.6906 88.8973 78.9578 88.0677 80.173 87.2906C80.3703 87.1646 80.6196 87.2171 80.7442 87.4166C80.8688 87.6162 80.8169 87.8682 80.6196 87.9942C79.4148 88.7818 78.1372 89.6009 76.8597 90.4305C75.5614 91.2812 74.2528 92.1213 73.0168 92.9194C72.8506 93.0349 72.6221 93.0034 72.4871 92.8459C72.0301 92.3418 71.4588 91.8272 70.846 91.2812C69.9944 90.5251 69.1219 89.748 68.3949 88.8448L65.4036 93.1084C65.3309 93.2344 65.2063 93.2974 65.0712 93.2974Z" fill="#5D7183"/>
<path d="M85.5799 89.5305C83.6153 89.128 81.8658 88.2337 80.5675 86.939C80.3988 86.7759 80.3995 86.5082 80.5588 86.3479C80.7202 86.1774 80.985 86.1781 81.1434 86.3392C84.2277 89.4035 90.038 89.8119 93.8312 87.2247C97.2184 84.9185 99.6324 80.8057 100.635 75.6431C101.415 71.6455 101.32 67.4686 101.231 63.4214C101.214 62.8179 101.207 62.2165 101.19 61.6131C101.181 61.3432 101.184 61.0652 101.174 60.7954C101.084 56.1695 100.994 51.3829 103.135 47.4713C103.249 47.2698 103.498 47.1921 103.697 47.308C103.897 47.4238 103.973 47.6753 103.859 47.8768C101.823 51.5849 101.913 56.2643 102.005 60.7728C102.013 61.0529 102.012 61.3207 102.021 61.5905C102.028 62.1919 102.045 62.7954 102.062 63.3989C102.153 67.4893 102.248 71.7198 101.452 75.7997C100.405 81.1785 97.8688 85.4804 94.298 87.9096C92.3596 89.2268 89.7792 89.8874 87.2354 89.7305C86.6672 89.7105 86.1092 89.639 85.5799 89.5305Z" fill="#5D7183"/>
<path d="M102.498 44.2021C102.335 44.1687 102.203 44.0345 102.175 43.8573C101.821 41.8132 102.077 39.6369 102.883 37.734C102.969 37.5159 103.222 37.4177 103.425 37.513C103.641 37.6 103.738 37.8557 103.644 38.0614C102.898 39.8265 102.677 41.8279 102.998 43.7153C103.036 43.9481 102.887 44.164 102.657 44.2025C102.602 44.2127 102.549 44.2125 102.498 44.2021Z" fill="#5D7183"/>
<path d="M105.664 44.6895C105.603 44.677 105.544 44.6542 105.489 44.6108C105.306 44.4662 105.274 44.2025 105.417 44.0175L108.585 39.8449C108.728 39.6599 108.989 39.6276 109.172 39.7723C109.355 39.9169 109.387 40.1806 109.244 40.3656L106.076 44.5382C105.976 44.6677 105.817 44.7208 105.664 44.6895Z" fill="#5D7183"/>
<path d="M107.934 47.3187C107.801 47.2916 107.692 47.2048 107.633 47.0749C107.538 46.8626 107.63 46.6136 107.84 46.5174C109.541 45.7515 111.339 45.2948 113.201 45.1514C113.427 45.1334 113.626 45.3028 113.642 45.5418C113.659 45.7704 113.492 45.9718 113.256 45.9877C111.499 46.1314 109.781 46.5615 108.172 47.2926C108.103 47.3212 108.015 47.3354 107.934 47.3187Z" fill="#5D7183"/>
<path d="M90.9851 85.5264C103.438 90.0945 109.4 101.877 109.4 101.877C104.134 118.375 88.617 129.916 88.617 129.916C84.047 119.677 69.7866 113.313 69.7866 113.313C84.2236 107.443 90.9851 85.5264 90.9851 85.5264Z" fill="white"/>
<path d="M88.4728 130.483L88.2858 130.073C85.9593 124.865 81.0258 120.674 77.2971 118.091C73.2361 115.266 69.6839 113.67 69.6424 113.659L68.853 113.302L69.6528 112.977C72.8933 111.654 76.0196 109.396 78.9277 106.245C81.2647 103.715 83.4769 100.617 85.4919 97.0356C88.9298 90.9238 90.6331 85.463 90.6539 85.4105L90.7681 85.043L91.1213 85.169C97.6335 87.5528 102.338 91.9214 105.153 95.1559C108.196 98.6634 109.682 101.572 109.744 101.698L109.817 101.835L109.775 101.982C107.033 110.572 101.487 117.787 97.3219 122.323C92.8142 127.238 88.8882 130.178 88.8571 130.199L88.4728 130.483ZM70.681 113.334C71.9481 113.953 74.6901 115.382 77.6918 117.471C81.3997 120.044 86.2916 124.171 88.7532 129.349C89.8126 128.519 93.0947 125.841 96.7818 121.819C100.874 117.356 106.296 110.299 109.017 101.908C108.685 101.299 107.21 98.6634 104.582 95.6284C101.881 92.52 97.3946 88.3509 91.2147 85.9881C90.7681 87.3218 89.0752 92.121 86.1151 97.3927C84.069 101.026 81.8255 104.166 79.4574 106.739C76.7051 109.732 73.7554 111.937 70.681 113.334Z" fill="#5D7183"/>
<path d="M98.4738 115.79C98.3284 115.79 98.183 115.696 98.131 115.549C97.1236 112.724 94.1635 109.857 91.6708 108.261C91.5046 108.156 91.4527 107.925 91.5565 107.757C91.6604 107.589 91.8889 107.536 92.0551 107.641C93.4468 108.534 94.849 109.72 96.0122 110.97C97.3521 112.419 98.318 113.91 98.8165 115.307C98.8892 115.496 98.7854 115.706 98.5984 115.78C98.5569 115.78 98.5153 115.79 98.4738 115.79Z" fill="#5D7183"/>
<path d="M104.352 107.232C104.206 107.232 104.071 107.148 104.019 107.001C102.97 104.439 100.644 102.024 97.1124 99.8288C96.9462 99.7238 96.8839 99.4928 96.9981 99.3247C97.102 99.1567 97.3305 99.0937 97.4967 99.2092C101.163 101.488 103.583 104.019 104.694 106.728C104.767 106.917 104.684 107.127 104.497 107.211C104.445 107.222 104.393 107.232 104.352 107.232Z" fill="#5D7183"/>
<path d="M92.6987 123.55C92.5325 123.55 92.3871 123.435 92.3456 123.277C91.6809 120.589 89.7282 117.859 86.55 115.16C86.3942 115.034 86.3735 114.792 86.5085 114.645C86.6331 114.488 86.872 114.467 87.0174 114.603C90.3203 117.397 92.3456 120.264 93.0519 123.099C93.1038 123.298 92.9792 123.498 92.7922 123.54C92.761 123.55 92.7299 123.55 92.6987 123.55Z" fill="#5D7183"/>
<path d="M90.0407 93.706C89.7083 94.5986 89.7291 95.5962 89.9472 96.5204C90.2588 97.8541 91.0066 99.1247 92.1907 99.7968C93.3747 100.469 94.995 100.395 95.9505 99.4188C97.6019 97.749 96.8022 94.2521 95.3793 92.6558C93.8421 90.9336 90.8508 91.5217 90.0407 93.706Z" fill="#D1D9E2"/>
<path d="M77.7018 110.497C77.3695 111.39 77.3902 112.387 77.6083 113.311C77.9199 114.645 78.6677 115.916 79.8518 116.588C81.0358 117.26 82.6561 117.186 83.6116 116.21C85.263 114.54 84.4633 111.043 83.0404 109.447C81.5032 107.725 78.512 108.313 77.7018 110.497Z" fill="#D1D9E2"/>
<path d="M91.1194 102.422C90.7248 101.56 90.0393 100.962 89.2707 100.594C88.1697 100.069 86.8195 100.006 85.6147 100.72C84.4099 101.434 83.4232 103.031 83.4751 104.532C83.5582 107.147 86.4352 108.533 88.4294 108.155C90.5793 107.746 92.0854 104.532 91.1194 102.422Z" fill="#D1D9E2"/>
<path d="M93.21 96.737C93.3864 96.1789 93.7869 94.8886 93.9449 94.1763C93.9554 94.1299 93.9361 94.0779 93.8964 94.0437C93.518 93.7191 93.1444 93.4107 92.7663 93.0879C92.6955 93.0276 92.5948 93.0468 92.5678 93.1249C92.0702 94.5706 91.6646 96.0563 91.3552 97.5726C91.3113 97.7874 91.2598 97.9731 91.4167 98.1642C91.6101 98.3992 91.8419 98.6119 92.0933 98.7834C92.1501 98.8223 92.341 98.986 92.4237 98.9597C93.9742 98.4722 100.375 95.8253 100.375 95.8253C100.458 95.7919 100.466 95.6796 100.39 95.6155L99.2921 94.691C99.2514 94.6569 99.1974 94.6471 99.1536 94.6655C98.0413 95.1415 94.4975 96.4879 93.3914 96.9065C93.2917 96.9453 93.1783 96.8394 93.21 96.737Z" fill="#6FCF97"/>
<path d="M87.1969 104.553C87.3732 103.995 87.7737 102.705 87.9317 101.993C87.9422 101.946 87.9229 101.894 87.8832 101.86C87.5048 101.535 87.1312 101.227 86.7531 100.904C86.6824 100.844 86.5816 100.863 86.5547 100.941C86.057 102.387 85.6514 103.873 85.342 105.389C85.2981 105.604 85.2466 105.789 85.4035 105.981C85.597 106.216 85.8287 106.428 86.0801 106.6C86.1369 106.639 86.3278 106.802 86.4105 106.776C87.961 106.289 94.3615 103.642 94.3615 103.642C94.4444 103.608 94.4528 103.496 94.3766 103.432L93.2789 102.507C93.2382 102.473 93.1842 102.464 93.1404 102.482C92.0281 102.958 88.4844 104.304 87.3782 104.723C87.2785 104.762 87.1651 104.656 87.1969 104.553Z" fill="#6FCF97"/>
<path d="M81.1842 112.37C81.3605 111.812 81.761 110.521 81.919 109.809C81.9295 109.763 81.9102 109.711 81.8705 109.677C81.4921 109.352 81.1185 109.043 80.7404 108.721C80.6697 108.66 80.5689 108.68 80.542 108.758C80.0443 110.203 79.6387 111.689 79.3293 113.205C79.2854 113.42 79.2339 113.606 79.3908 113.797C79.5843 114.032 79.816 114.245 80.0674 114.416C80.1242 114.455 80.3151 114.619 80.3978 114.593C81.9483 114.105 88.3488 111.458 88.3488 111.458C88.4317 111.425 88.4401 111.312 88.3639 111.248L87.2662 110.324C87.2255 110.29 87.1715 110.28 87.1277 110.298C86.0155 110.774 82.4717 112.121 81.3655 112.539C81.2658 112.578 81.1524 112.472 81.1842 112.37Z" fill="#6FCF97"/>
<g clip-path="url(#clip0_13:4531)">
<path d="M162.377 119.792C161.836 124.049 160.617 128.273 159.396 132.472C157.459 133.401 155.965 132.988 154.109 132.666C153.288 129.071 153.063 125.294 152.526 121.639C152.12 118.862 151.986 116.051 151.867 113.238C151.744 110.586 150.334 105.805 153.027 103.634C155.191 101.887 158.962 102.465 160.214 104.547C162.536 108.431 162.907 113.281 162.61 117.593C162.555 118.336 162.482 119.069 162.377 119.792Z" fill="#FA758E"/>
<path d="M156.684 134.893C154.807 134.814 152.875 135.866 152.617 138.174C152.391 140.15 153.892 142.167 155.816 142.493C157.753 142.833 159.813 141.433 160.257 139.493C160.909 136.57 158.834 134.993 156.684 134.893Z" fill="#FA758E"/>
</g>
<path d="M2.8662 180.28C4.00597 176.746 6.11017 173.376 9.36876 171.288C12.6273 169.201 17.128 168.619 20.5619 170.438C23.9959 172.257 25.7494 176.701 23.8205 179.922C26.48 177.894 29.8263 176.299 33.2164 176.731C40.6103 177.656 40.8441 185.797 40.5811 190.972C40.0696 187.93 43.2406 184.455 46.7768 185.663C50.123 186.811 50.6491 191.926 47.5805 193.641C46.0462 194.506 44.1465 194.491 42.3492 194.461C32.0181 194.238 21.6579 195.266 11.3561 194.357C0.557418 193.402 -0.158593 189.66 2.8662 180.28Z" fill="#B7E250"/>
<defs>
<clipPath id="clip0_13:4531">
<rect width="10.8812" height="43.7124" fill="white" transform="matrix(0.999714 -0.0239194 0.023398 0.999726 151.665 98.9365)"/>
</clipPath>
</defs>
</svg>
