<svg width="234" height="198" viewBox="0 0 234 198" fill="none" xmlns="http://www.w3.org/2000/svg">
<path d="M60.3196 194.696C55.3589 193.695 -4.1459 184.61 0.229795 117.592C4.60549 50.5977 10.1044 30.4481 33.2464 23.0638C52.9488 16.7976 71.7853 6.38507 91.9089 2.23868C129.395 -5.49503 161.382 8.08556 196.107 23.4598C224.163 35.899 227.556 64.2016 232.844 97.7454C236.728 122.344 230.527 149.552 218.711 169.329C203.548 194.72 182.161 199.099 158.317 197.794C109.014 195.092 83.8595 199.495 60.3196 194.696Z" fill="#F9F9F9"/>
<path d="M66.3354 66.6455L168.023 68.4872L155.993 171.351C155.821 180.707 137.482 187.976 115.019 187.558C92.5552 187.141 74.4862 179.234 74.658 169.878C74.658 169.412 66.3354 66.6455 66.3354 66.6455Z" fill="#89BDE0"/>
<path d="M161.368 96.1872L152.211 168.037C150.444 177.811 135.124 184.367 113.422 183.974C91.7192 183.581 74.2639 175.944 74.4358 166.908C74.4358 166.638 67.979 92.2091 68.4455 92.4792C117.914 119.761 161.368 96.1872 161.368 96.1872Z" fill="#9FCDED"/>
<path d="M66.1412 67.0391C69.5046 67.0882 72.8926 67.1618 76.256 67.2109C84.3576 67.3583 92.4592 67.5056 100.561 67.653C110.332 67.8248 120.078 67.9967 129.849 68.1932C138.319 68.3405 146.789 68.4878 155.283 68.6597C158.058 68.7089 160.856 68.758 163.631 68.8071C164.514 68.8316 165.374 68.8316 166.257 68.8562C166.601 68.8562 167.313 69.0281 167.632 68.8807C167.681 68.8562 167.755 68.8807 167.804 68.8807C167.681 68.758 167.559 68.6597 167.411 68.537C166.822 73.4972 166.257 78.433 165.668 83.3932C164.367 94.4925 163.066 105.592 161.765 116.691C160.414 128.257 159.064 139.822 157.714 151.388C156.953 157.871 156.192 164.354 155.431 170.836C155.333 171.647 155.308 172.457 155.087 173.267C154.277 176.091 151.945 178.203 149.588 179.775C142.075 184.76 132.255 186.356 123.417 186.97C112.91 187.682 102.009 186.847 91.9191 183.679C88.0892 182.476 84.2839 180.904 80.9942 178.596C78.6619 176.951 76.3542 174.79 75.544 171.966C75.0775 170.345 75.1266 168.332 75.0039 166.637C74.7338 163.322 74.4883 160.007 74.2183 156.692C73.3345 145.765 72.4752 134.862 71.5914 123.935C70.6339 112.124 69.6765 100.312 68.719 88.5008C68.1544 81.5024 67.5897 74.504 67.025 67.5056C67.0005 67.1618 66.9759 66.8181 66.9514 66.4743C66.9023 65.9832 65.7239 66.2533 65.773 66.7935C66.1903 71.9257 66.6077 77.0824 67.025 82.2145C67.9334 93.5593 68.8663 104.929 69.7747 116.273C70.7321 127.987 71.6651 139.7 72.598 151.437C73.089 157.552 73.7027 163.666 74.071 169.805C74.1446 171.033 74.4147 172.703 75.1512 174.078C76.6242 176.754 79.1529 178.719 81.7307 180.266C89.5131 184.956 99.0386 186.798 107.975 187.608C118.286 188.517 129.015 187.976 139.007 185.152C142.763 184.097 146.494 182.672 149.833 180.61C152.239 179.112 154.596 177.147 155.824 174.52C156.634 172.776 156.683 170.689 156.904 168.798C157.272 165.631 157.64 162.438 158.008 159.271C159.285 148.368 160.562 137.465 161.838 126.562C163.238 114.677 164.613 102.768 166.012 90.8827C166.847 83.737 167.681 76.5913 168.516 69.4455C168.565 69.1017 168.59 68.758 168.639 68.4387C168.663 68.2177 168.442 68.095 168.246 68.095C164.883 68.0458 161.495 67.9722 158.131 67.9231C150.03 67.7757 141.928 67.6284 133.826 67.4811C124.055 67.3092 114.309 67.1373 104.538 66.9408C96.0681 66.7935 87.5982 66.6462 79.1038 66.4743C75.0039 66.4006 70.8303 66.0814 66.7304 66.2533C66.6813 66.2533 66.6077 66.2533 66.5586 66.2533C66.043 66.2287 65.3311 67.0145 66.1412 67.0391Z" fill="#6A79A8"/>
<path d="M62.9248 64.3878C62.9248 55.0321 87.2051 47.4443 117.156 47.4443C147.108 47.4443 171.388 55.0566 171.388 64.4124C171.388 64.6825 171.364 64.9281 171.314 65.1982H171.388L169.375 86.2916C152.656 106.427 83.0315 108.466 64.7415 84.0816L62.9248 65.1736H62.9985C62.9494 64.9035 62.9248 64.6334 62.9248 64.3878Z" fill="#9FCDED"/>
<path d="M170.797 66.5469L166.058 83.2203C152.114 100.459 82.4646 104.412 65.0339 79.2423L64.2974 64.3369L170.797 66.5469Z" fill="#BBDFF5"/>
<path d="M117.177 81.3304C147.129 81.3304 171.409 73.7445 171.409 64.3869C171.409 55.0292 147.129 47.4434 117.177 47.4434C87.2261 47.4434 62.9458 55.0292 62.9458 64.3869C62.9458 73.7445 87.2261 81.3304 117.177 81.3304Z" fill="#DEF3F9"/>
<path d="M62.333 64.534C62.4067 69.7152 68.7161 72.8338 72.7423 74.5527C80.9912 78.0888 90.0749 79.6603 98.9375 80.6426C110.231 81.8703 121.696 81.9195 133.013 80.8144C142.048 79.9304 151.254 78.408 159.749 75.093C162.646 73.9634 165.518 72.6128 167.998 70.6975C169.692 69.3714 171.361 67.628 171.852 65.4671C172.908 60.5805 167.531 57.1427 163.873 55.301C156.262 51.4457 147.547 49.7514 139.151 48.5972C127.981 47.0748 116.614 46.8292 105.37 47.615C95.8442 48.278 86.1714 49.6777 77.0877 52.7472C73.9453 53.8031 70.8029 55.1045 68.0041 56.8971C66.0401 58.1494 64.027 59.7456 62.9713 61.9065C62.5785 62.7414 62.3576 63.6254 62.333 64.534C62.333 64.7058 63.5114 64.5585 63.5114 64.2147C63.5851 59.1317 69.8209 56.1113 73.7735 54.417C81.9242 50.9546 90.9587 49.4567 99.7231 48.5236C110.599 47.394 121.597 47.3694 132.473 48.3762C141.336 49.2111 150.395 50.6845 158.767 53.9013C161.614 55.0063 164.487 56.3323 166.917 58.2231C168.562 59.5 170.133 61.1453 170.649 63.2325C171.827 68.1191 166.377 71.5324 162.744 73.3495C155.354 77.0083 146.909 78.6535 138.783 79.7585C127.858 81.2319 116.736 81.4775 105.738 80.7162C96.4825 80.0778 87.0797 78.7518 78.2416 75.8296C75.0501 74.7737 71.8831 73.4968 69.0352 71.6797C67.1203 70.4519 65.1808 68.9294 64.1497 66.8422C63.7569 66.0319 63.536 65.1724 63.536 64.2638C63.5114 64.0183 62.333 64.2147 62.333 64.534Z" fill="#6A79A8"/>
<path d="M63.5376 64.338C63.6112 59.2795 69.7979 56.3328 73.7014 54.6875C81.7539 51.2743 90.6411 49.7273 99.2828 48.7941C110.208 47.6155 121.28 47.5418 132.229 48.5486C141.166 49.3589 150.249 50.8323 158.67 54.0245C163.138 55.7189 171.461 59.1812 170.749 65.2465C170.724 65.5412 171.068 65.6149 171.289 65.6149C171.313 65.6149 171.338 65.6149 171.363 65.6149C171.191 65.4921 170.994 65.3693 170.822 65.2465C170.479 68.9299 170.11 72.6133 169.767 76.2966C169.521 78.7522 169.3 81.2078 169.055 83.6879C168.981 84.4 168.907 85.1122 168.858 85.8243C168.785 86.4627 168.736 86.3891 168.269 86.8802C165.2 90.2443 161.125 92.6017 157.001 94.4434C151.87 96.7271 146.395 98.2495 140.896 99.33C128.326 101.81 115.216 102.154 102.523 100.509C91.4022 99.0599 79.4953 96.1132 70.5098 89.0902C69.5278 88.329 68.5949 87.4941 67.7111 86.6101C66.9746 85.8734 65.8453 84.9403 65.4034 83.9826C64.9369 83.0004 65.0842 81.3551 64.986 80.2501C64.5441 75.5108 64.0777 70.7716 63.6358 66.0323C63.6112 65.6885 63.5621 65.3447 63.5376 65.001C63.3166 65.1974 63.0957 65.3939 62.8747 65.5657C62.8992 65.5657 62.9238 65.5657 62.9484 65.5657C63.243 65.5657 63.6358 65.3202 63.6112 65.001C63.5621 64.78 63.5621 64.559 63.5376 64.338C63.513 63.7241 62.31 63.9451 62.3346 64.4362C62.3591 64.7554 62.3591 65.001 62.4082 65.3202C62.6292 65.1237 62.8501 64.9273 63.0711 64.7554C63.0466 64.7554 63.022 64.7554 62.9975 64.7554C62.7028 64.7554 62.31 65.001 62.3346 65.3202C62.7274 69.3473 63.0957 73.3745 63.4885 77.4016C63.6849 79.4643 63.8813 81.527 64.0777 83.5652C64.225 85.1122 65.9189 86.4382 66.9992 87.4695C75.0762 95.3028 86.8113 98.7652 97.6134 100.631C110.478 102.841 123.858 102.841 136.747 100.828C142.614 99.8948 148.433 98.5442 154.03 96.4815C158.596 94.7872 163.138 92.5771 166.894 89.4094C167.876 88.5745 169.767 87.2731 170.012 85.9471C170.331 84.2036 170.356 82.3619 170.528 80.6185C170.994 75.781 171.461 70.9435 171.927 66.1305C171.952 65.8113 172.001 65.4675 172.025 65.1483C172.05 64.8536 171.706 64.78 171.485 64.78C171.461 64.78 171.436 64.78 171.412 64.78C171.583 64.9027 171.78 65.0255 171.952 65.1483C172.59 59.7951 166.575 56.431 162.5 54.5647C154.447 50.8323 145.388 49.1625 136.648 48.1311C125.306 46.7806 113.767 46.6578 102.376 47.6646C93.0961 48.4749 83.6443 49.9974 74.9289 53.3124C71.6637 54.5647 68.3494 56.1118 65.698 58.42C63.9304 59.967 62.3591 62.0052 62.3346 64.4362C62.3346 65.0255 63.5376 64.8291 63.5376 64.338Z" fill="#6A79A8"/>
<path d="M127.981 67.2113C131.075 57.5117 117.007 52.9198 110.011 56.4804C107.948 57.5363 106.549 59.3289 106.181 61.6371C106.132 61.9318 107.31 61.7353 107.359 61.4407C108.783 52.5024 122.507 55.3263 126.116 61.0723C127.343 63.0122 127.515 65.2714 126.803 67.4323C126.729 67.6533 127.883 67.5305 127.981 67.2113Z" fill="#6A79A8"/>
<path d="M86.2673 173.168C84.5733 172.603 83.3949 171.105 83.2476 169.313L78.4112 108.021C78.1902 105.124 80.768 102.816 83.6159 103.331L86.6356 103.896C88.6732 104.264 90.1708 106.032 90.2444 108.095L92.0612 168.822C92.1348 171.891 89.1642 174.101 86.2673 173.168Z" fill="#CBE7F4"/>
<path d="M86.6136 172.751C83.2011 171.622 83.643 166.735 83.4221 163.862C83.0047 158.534 82.5874 153.23 82.17 147.901C81.2371 136.163 80.3288 124.45 79.3958 112.713C79.2976 111.362 79.1749 109.987 79.0767 108.636C79.0521 108.391 79.0276 108.145 79.0276 107.875C78.9294 105.591 80.6725 103.455 83.0784 103.701C85.9508 103.971 89.4124 104.707 89.6579 108.194C89.707 109.078 89.707 109.962 89.7315 110.846C90.0752 121.921 90.3944 133.02 90.7381 144.095C90.9836 152.346 91.4746 160.621 91.4746 168.847C91.45 171.499 89.2405 173.513 86.6136 172.751C86.1226 172.604 85.2143 173.341 85.9262 173.537C89.2405 174.495 92.653 172.236 92.653 168.675C92.653 167.668 92.6039 166.662 92.5548 165.655C92.4075 160.523 92.2357 155.366 92.0884 150.234C91.7201 137.759 91.3518 125.285 90.959 112.811C90.8608 109.447 91.4746 104.732 87.301 103.553C84.3059 102.718 80.5252 102.129 78.5611 105.149C77.6773 106.5 77.8001 107.924 77.8983 109.422C78.7575 120.448 79.6413 131.449 80.5006 142.474C80.9916 148.638 81.4826 154.801 81.9491 160.965C82.17 163.789 82.2928 166.637 82.6119 169.461C82.8329 171.352 84.0604 172.948 85.8771 173.537C86.4172 173.709 87.301 172.997 86.6136 172.751Z" fill="#6A79A8"/>
<path d="M143.79 174.79C145.509 174.299 146.736 172.85 146.957 171.131L153.979 111.092C154.322 108.268 151.818 105.886 148.946 106.304L145.926 106.746C143.864 107.04 142.317 108.71 142.17 110.748L138.168 170.345C137.947 173.316 140.844 175.6 143.79 174.79Z" fill="#CBE7F4"/>
<path d="M143.887 175.184C147.914 174.054 147.693 169.708 148.086 166.368C148.724 160.892 149.362 155.416 150 149.94C151.375 138.129 152.775 126.317 154.149 114.506C154.272 113.426 154.42 112.321 154.542 111.24C154.861 108.171 152.431 105.641 149.338 105.838C146.318 106.034 142.439 106.599 141.653 110.135C141.457 110.995 141.482 111.952 141.408 112.836C140.647 124.23 139.886 135.649 139.125 147.043C138.732 152.813 138.339 158.584 137.971 164.354C137.873 166 137.75 167.62 137.652 169.266C137.553 170.837 137.529 172.311 138.609 173.637C139.886 175.184 141.948 175.65 143.887 175.184C144.624 175.012 144.403 174.201 143.666 174.373C140.598 175.11 138.609 172.482 138.781 169.708C138.879 168.406 138.953 167.129 139.051 165.828C139.395 160.769 139.738 155.735 140.058 150.677C140.843 139.062 141.604 127.422 142.39 115.808C142.488 114.383 142.586 112.959 142.684 111.535C142.832 109.472 143.593 107.557 145.925 107.139C147.177 106.918 148.773 106.501 150.05 106.722C152.21 107.066 153.511 109.079 153.339 111.142C153.29 111.879 153.167 112.615 153.069 113.377C151.817 124.009 150.59 134.642 149.338 145.275C148.65 151.045 147.987 156.816 147.3 162.586C146.981 165.41 146.735 168.259 146.318 171.058C146.097 172.581 145.189 173.931 143.642 174.373C142.955 174.594 143.151 175.38 143.887 175.184Z" fill="#6A79A8"/>
<path d="M125.404 178.154L125.575 178.13C127.785 177.933 129.503 176.214 129.602 174.078L132.597 114.972C132.72 112.418 130.535 110.331 127.908 110.503L124.765 110.7C122.457 110.847 120.641 112.713 120.641 114.948L120.616 173.882C120.616 176.386 122.826 178.351 125.404 178.154Z" fill="#CBE7F4"/>
<path d="M125.355 178.572C128.031 178.351 130.069 176.46 130.216 173.734C130.29 172.555 130.339 171.352 130.388 170.149C130.658 164.919 130.928 159.688 131.174 154.458C131.787 142.548 132.377 130.639 132.99 118.729C133.04 117.55 133.113 116.396 133.162 115.218C133.285 112.418 131.296 110.135 128.424 110.061C125.552 109.987 121.82 110.159 120.421 113.155C119.905 114.26 120.003 115.414 120.003 116.568C120.003 127.569 120.003 138.595 119.979 149.596C119.979 155.489 119.979 161.358 119.979 167.251C119.979 168.995 119.979 170.714 119.979 172.457C119.979 173.66 119.881 174.864 120.47 175.993C121.427 177.81 123.367 178.67 125.355 178.572C126.018 178.547 126.264 177.688 125.453 177.712C122.679 177.835 121.206 175.6 121.206 173.12C121.206 171.77 121.206 170.419 121.206 169.069C121.206 163.985 121.206 158.902 121.206 153.819C121.206 142.401 121.206 130.983 121.231 119.564C121.231 118.238 121.231 116.937 121.231 115.611C121.231 113.327 122.311 111.338 124.84 111.117C126.067 111.019 127.467 110.773 128.694 110.97C130.683 111.289 132.033 113.081 131.984 115.046C131.959 115.832 131.91 116.642 131.861 117.428C131.321 128.109 130.781 138.791 130.241 149.448C129.946 155.047 129.676 160.646 129.382 166.22C129.259 168.848 129.21 171.475 128.989 174.102C128.817 176.067 127.418 177.54 125.429 177.712C124.791 177.761 124.545 178.645 125.355 178.572Z" fill="#6A79A8"/>
<path d="M105.542 178.965L105.739 178.99C108.243 179.137 110.379 177.173 110.403 174.643L111.164 113.696C111.189 111.314 109.323 109.325 106.917 109.227L103.75 109.104C101.197 109.006 99.0854 111.117 99.1591 113.671L101.344 174.717C101.491 176.976 103.284 178.818 105.542 178.965Z" fill="#CBE7F4"/>
<path d="M105.346 179.382C108.366 179.554 110.968 177.491 111.042 174.397C111.066 173.268 111.066 172.138 111.091 171.009C111.164 165.68 111.213 160.376 111.287 155.047C111.434 142.696 111.606 130.344 111.753 117.993C111.778 116.667 111.803 115.365 111.803 114.039C111.827 111.412 110.256 109.128 107.506 108.809C104.511 108.44 100.73 108.293 99.1346 111.412C98.5209 112.639 98.6191 113.892 98.6682 115.193C99.061 126.415 99.4783 137.637 99.8711 148.859C100.092 154.974 100.313 161.113 100.534 167.227C100.608 169.118 100.681 171.009 100.73 172.899C100.755 173.857 100.706 174.938 100.951 175.846C101.516 177.884 103.308 179.186 105.346 179.382C105.911 179.431 106.549 178.621 105.763 178.523C101.27 178.081 101.958 172.85 101.835 169.634C101.639 164.305 101.442 159.001 101.271 153.672C100.853 141.91 100.436 130.123 99.9939 118.361C99.8711 115.242 98.84 109.545 103.627 109.521C104.757 109.521 105.984 109.521 107.113 109.668C109.176 109.914 110.575 111.731 110.624 113.769C110.649 114.604 110.6 115.439 110.6 116.298C110.452 127.348 110.33 138.399 110.182 149.473C110.109 155.244 110.035 161.039 109.961 166.81C109.937 169.437 109.986 172.065 109.863 174.667C109.765 176.902 108.095 178.67 105.788 178.547C105.174 178.498 104.536 179.333 105.346 179.382Z" fill="#6A79A8"/>
<path d="M48.6016 176.193C49.7817 172.574 51.9604 169.123 55.3344 166.985C58.7083 164.847 63.3683 164.252 66.9238 166.115C70.4793 167.978 72.2948 172.528 70.2977 175.827C73.0513 173.75 76.516 172.116 80.0261 172.559C87.6818 173.506 87.9239 181.843 87.6515 187.142C87.122 184.027 90.4051 180.469 94.0666 181.706C97.5313 182.882 98.0759 188.119 94.8987 189.876C93.3101 190.761 91.3432 190.746 89.4822 190.715C78.7855 190.486 68.0585 191.54 57.392 190.609C46.2111 189.631 45.4698 185.798 48.6016 176.193Z" fill="#B7E250"/>
<path d="M124.301 185.746C120.836 180.098 125.204 171.88 132.231 170.8C139.275 169.736 146.352 176.202 145.121 182.57C147.141 178.543 153.462 176.922 157.502 179.394C151.295 175.58 148.832 167.476 152.001 161.305C155.17 155.133 163.593 151.646 170.818 153.496C177.205 155.133 181.902 160.306 184.233 165.954C186.565 171.586 186.893 177.725 187.205 183.733C185.317 179.525 190.522 174.352 195.317 175.662C201.129 177.25 202.919 185.37 198.633 189.086C195.152 192.098 186.663 190.641 182.197 190.69C175.563 190.739 168.913 190.625 162.28 190.477C149.324 190.183 136.353 189.757 123.397 190.199C119.424 190.33 101.69 192.377 104.252 184.076C106.337 177.25 121.608 181.408 124.301 185.746Z" fill="#B7E250"/>
</svg>
