<svg fill="none" height="20" viewBox="0 0 190 20" width="190" xmlns="http://www.w3.org/2000/svg" xmlns:xlink="http://www.w3.org/1999/xlink"><linearGradient id="a" gradientUnits="userSpaceOnUse" x1=".31582" x2="124.041" y1="9.39164" y2="9.39164"><stop offset=".117549" stop-color="#5468ad"/><stop offset=".548659" stop-color="#448ed7"/><stop offset="1" stop-color="#30acea"/></linearGradient><path d="m20.0455 0-.0001 10.1729c.0078 5.4093-4.472 9.8047-10.0157 9.8271-5.54918-.015-10.03738124-4.4125-10.02969013-9.8271l-.0000085-10.1729h3.47529863v10.1729c-.0077 3.5418 2.92457 6.4212 6.5544 6.4361 3.6298-.0112 6.5652-2.8875 6.5613-6.4293v-10.1797zm6.7999 20v-9.558c-.0074-1.798.6795-3.52528 1.9093-4.80136 1.2298-1.27609 2.9017-1.99629 4.6475-2.00197 3.6272.01183 6.5606 3.04588 6.5567 6.78193v9.5579h3.4729v-10.73078c.0039-5.71149-4.4843-9.1741516-10.0296-9.1859916-5.5426.0197205-10.0235 4.6572616-10.0158 10.3659716v9.558zm37.6914-20c-5.5221.0379612-9.9764 4.50623-9.9686 10-.0078 5.4938 4.4465 9.962 9.9686 10h6.7359v-3.4507h-6.7359c-3.6228-.0152-6.5494-2.9452-6.5417-6.5493-.0038-3.6041 2.9259-6.53103 6.5486-6.54244h6.729v-3.45065965zm-14.4232 20v-20h-3.3409v20zm27.841 0v-20h-3.341v20zm39.9474-20v1.86464c.008 3.60547-2.922 6.53554-6.545 6.54696-3.622-.01522-6.549-2.94305-6.546-6.54696v-1.86464h-3.47v1.86464c.003 4.84313 3.49 8.98966 8.28 9.84806v8.2873h3.471v-8.2873c4.796-.8525 8.29-5.00057 8.294-9.84806v-1.86464zm-36.6065 0v3.44827h7.0864v16.55173h3.6453v-16.55173h7.0864v-3.44827zm38.0455 20v-1.964h.932v-.2582h-2.228v.2582h.932v1.9171zm1.234 0v-1.8834l.673 1.8676h.277l.681-1.836v1.836h.294v-2.1907h-.42l-.555 1.5288c-.059.1576-.101.2758-.118.3546l-.117-.3231-.555-1.576h-.462v2.1907z" fill="url(#a)"/><g fill="#ffbf3a"><path d="m140 20v-20h6.452c2.131 0 3.984.428572 5.558 1.28571 1.575.85715 2.794 2.0381 3.658 3.54286s1.296 3.22857 1.296 5.17143c0 1.9429-.432 3.6667-1.296 5.1714-.864 1.5048-2.083 2.6857-3.658 3.5429-1.574.8571-3.427 1.2857-5.558 1.2857zm2.765-2.4286h3.715c1.479 0 2.804-.3047 3.975-.9143 1.171-.6095 2.093-1.4761 2.765-2.6.672-1.1428 1.008-2.4952 1.008-4.0571 0-1.58095-.336-2.93333-1.008-4.05714s-1.594-1.99048-2.765-2.6c-1.171-.60953-2.496-.91429-3.975-.91429h-3.715z"/><path d="m160.278 20v-2.4286h8.727c.652 0 1.219-.1524 1.699-.4571.499-.3238.883-.7333 1.152-1.2286.269-.4952.403-1.019.403-1.5714 0-.8572-.288-1.6-.864-2.2286-.576-.6476-1.354-.9714-2.333-.9714h-3.802c-1.152 0-2.16-.2286-3.024-.6857-.864-.47622-1.536-1.12384-2.016-1.94289-.48-.83809-.72-1.78095-.72-2.82857 0-1.06666.23-2.01904.691-2.85714.48-.85714 1.143-1.53333 1.988-2.028571.864-.514286 1.852-.771429 2.966-.771429h8.554v2.42857h-8.295c-.633 0-1.19.15238-1.67.45714-.461.28572-.826.66667-1.095 1.14286-.249.45714-.374.95238-.374 1.48572 0 .8.269 1.50476.806 2.11428.538.60953 1.287.91429 2.247.91429h3.888c1.21 0 2.247.23809 3.111.71428s1.526 1.12386 1.987 1.94286.691 1.7524.691 2.8c0 1.1619-.24 2.2-.72 3.1143-.48.8952-1.152 1.6-2.016 2.1143-.845.5143-1.824.7714-2.938.7714z"/><path d="m187.408 20c-1.536-.019-2.938-.2857-4.205-.8-1.268-.5333-2.362-1.2571-3.284-2.1714-.902-.9143-1.603-1.9715-2.102-3.1715-.48-1.2-.72-2.4857-.72-3.8571 0-1.37143.24-2.65714.72-3.85714.499-1.2 1.2-2.25715 2.102-3.17143.922-.91429 2.016-1.62857 3.284-2.142857 1.267-.533335 2.669-.8095256 4.205-.828573h2.592v2.42857h-2.506c-1.44 0-2.736.33334-3.888 1-1.152.66667-2.064 1.57143-2.736 2.71429-.653 1.14285-.98 2.42857-.98 3.85714 0 1.4286.327 2.7143.98 3.8571.672 1.1429 1.584 2.0477 2.736 2.7143 1.152.6476 2.448.981 3.888 1h2.506v2.4286z"/></g></svg>