<svg width="73" height="20" viewBox="0 0 73 20" fill="none" xmlns="http://www.w3.org/2000/svg">
<rect width="73" height="20" rx="2" fill="#FFB74F"/>
<path d="M12.3449 13.8723L10 6.12772H11.3814L13.0995 12.2467L14.9104 6.12772H16.0132L17.8358 12.2351L19.5306 6.12772H20.912L18.5555 13.8723H17.2785L15.456 8.05515L13.6335 13.8723H12.3449Z" fill="white"/>
<path d="M20.7221 13.8723L23.7403 6.12772H25.0985L28.0355 13.8723H26.6889L25.9227 11.7707H22.7652L21.999 13.8723H20.7221ZM23.1367 10.7257H25.5513L24.344 7.41655L23.1367 10.7257Z" fill="white"/>
<path d="M29.1506 13.8723V6.12772H32.5867C33.3916 6.12772 34.0107 6.32511 34.4441 6.71988C34.8775 7.10692 35.0942 7.69134 35.0942 8.47315C35.0942 9.015 34.9433 9.49879 34.6415 9.92453C34.3474 10.3425 33.9333 10.6096 33.3993 10.7257L35.4657 13.8723H33.8753L32.0644 10.9463H30.4276V13.8723H29.1506ZM30.4276 9.90131H32.2269C33.2407 9.90131 33.7476 9.44848 33.7476 8.54282C33.7476 8.12482 33.647 7.79971 33.4458 7.56749C33.2446 7.32753 32.9079 7.20755 32.4358 7.20755H30.4276V9.90131Z" fill="white"/>
<path d="M36.8707 13.8723V6.12772H38.1013L42.2107 11.8171V6.12772H43.4296V13.8723H42.2803L38.0896 8.12482V13.8723H36.8707Z" fill="white"/>
<path d="M45.2597 13.8723V6.12772H46.5483V13.8723H45.2597Z" fill="white"/>
<path d="M48.3772 13.8723V6.12772H49.6077L53.7172 11.8171V6.12772H54.9361V13.8723H53.7868L49.5961 8.12482V13.8723H48.3772Z" fill="white"/>
<path d="M60.1327 14C58.9564 14 58.0509 13.6749 57.4163 13.0247C56.7817 12.3745 56.4644 11.3643 56.4644 9.99419C56.4644 8.63957 56.7817 7.63716 57.4163 6.98694C58.0509 6.32898 58.9525 6 60.1211 6C61.0343 6 61.8972 6.17804 62.7098 6.53411V7.76488C62.2996 7.56362 61.8972 7.39719 61.5025 7.2656C61.1078 7.13401 60.7015 7.06821 60.2836 7.06821C59.4323 7.06821 58.7977 7.29657 58.3798 7.75327C57.9619 8.20997 57.7529 8.95694 57.7529 9.99419C57.7529 11.0314 57.9619 11.7784 58.3798 12.2351C58.8055 12.6918 59.4284 12.9202 60.2488 12.9202C60.7905 12.9202 61.2819 12.8428 61.7231 12.688V10.8418H60.0979V9.75036H63V13.3033C62.0945 13.7678 61.1388 14 60.1327 14Z" fill="white"/>
</svg>
