<svg fill="none" height="208" viewBox="0 0 220 208" width="220" xmlns="http://www.w3.org/2000/svg"><path d="m56.7388 196.551c-4.6598-1.017-60.64687-10.184-56.521759-77.795 4.125109-67.6112 9.295249-87.9446 31.062659-95.3846 21.7674-7.44 74.6723-42.6377 116.1913-9.1688 10.781 8.6888 21.761 17.0955 32.253 26.1889 14.415 12.4977 29.239 26.9266 36.319 45.8311 3.337 8.9244 4.589 18.5064 3.659 28.0004-1.085 11.157-2.612 22.011-5.393 32.888-.946 3.704-1.893 7.408-2.84 11.112-.568 2.222-1.14 4.457-2.035 6.551-5.758 13.489-13.02 22.34-25.189 29.522-10.56 6.222-23.646 6.069-35.311 5.382-46.383-2.731-70.0384 1.713-92.1952-3.127z" fill="#eaf8ff"/><path d="m114.21 196.32c-2.332-14.994-3.894-30.068-7.962-44.741-2.201-7.938-6.197-15.522-9.0429-23.324-1.8063-4.941-3.151-10.04-4.0168-15.232-1.212-7.3-1.4775-14.7284-2.4958-22.0599-1.1234-8.0951-2.6932-16.7659-6.8216-23.9158-3.7744-6.5331-10.5075-11.8749-18.0293-11.8144-6.5074.0528-12.5159 4.1854-16.1146 9.6302-3.5987 5.4449-5.0736 12.0385-5.6302 18.5535-.7451 8.7184.1039 17.3394-2.4842 25.8254-4.9248 16.157-19.0797 27.518-23.8121 43.712-4.0207 13.762-1.3338 29.828 10.2894 39.095 7.2026 5.744 16.8123 8.165 25.6744 5.874 0 0 .0923.206 1.2183.752 18.5538 8.817 39.4213 11.471 59.5784 7.58.617-3.226.16-6.65-.351-9.935z" fill="#fff"/><path d="m86.7283 178.252c-.1027 0-.203-.031-.288-.089-.0849-.058-.1505-.141-.1884-.237-.0378-.095-.0461-.2-.0239-.301.0223-.101.0741-.192.1488-.263 2.4984-2.359 4.8915-4.805 6.6985-6.672 2.3085-2.383 5.1377-3.082 7.8567-3.477.068-.013.137-.012.205.003.067.016.131.044.187.084.056.041.103.092.139.151s.06.125.07.193c.01.069.006.139-.012.206-.017.067-.048.13-.09.184-.042.055-.095.101-.155.135-.06.033-.127.055-.195.062-2.9347.433-5.2945 1.14-7.2695 3.181-1.8147 1.877-4.2181 4.332-6.7318 6.706-.0961.087-.2217.135-.3514.134z" fill="#5d7183"/><path d="m114.979 205.028c-.128.001-.252-.047-.347-.134s-.154-.206-.166-.334c-.504-5.619-1.196-11.302-2.052-16.894-.015-.132.022-.265.102-.371.081-.105.199-.176.33-.196s.265.011.373.087c.108.077.183.192.209.323.865 5.612 1.56 11.317 2.067 16.958.006.067-.001.135-.021.2-.021.064-.053.124-.096.176-.044.052-.097.095-.156.126-.06.032-.125.051-.193.057z" fill="#5d7183"/><path d="m33.1501 83.4091c.6822-7.6663 3.2985-15.2644 8.1374-21.2385 4.1668-5.1422 9.8753-8.9374 16.0787-11.1884 8.7825-3.1835 18.8348-3.2402 27.2826.7533s14.9937 12.2535 16.0592 21.5669c-5.6996 2.8485-11.6872 5.075-17.8598 6.6412-1.7686.4495-3.591.8448-5.4032.6001-2.8574-.3863-5.3185-2.3682-6.8986-4.7906-1.58-2.4224-2.3918-5.262-3.0433-8.0823-1.621 5.9112-1.8319 12.1227-.6156 18.131-11.2429 5.7366-21.4458 13.3297-30.1824 22.4622-2.9715-7.855-4.3066-16.4378-3.555-24.8549z" fill="#96e296"/><path d="m82.9533 103.945c-.8439 1.221-2.8279 3.651-4.5708 3.002-1.38-.515-1.6326-2.753-1.807-3.992-.1527-1.084-.204-1.275.7695-1.775 1.3325-.686 5.0427-2.8033 6.7626-3.6764.0834-.0418.176-.0617.2692-.0578.0931.0039.1838.0314.2635.08.0797.0487.1457.1168.1921.198.0463.0813.0714.173.0729.2666.0397 2.1056-.7913 4.2806-1.952 5.9546z" fill="#5d7183"/><path d="m79.0556 130.287c-.1192 0-.2347-.042-.3265-.119-.0917-.076-.1541-.182-.1762-.3-.0222-.118-.0028-.24.0548-.344.0576-.105.1498-.187.2607-.231 5.1826-2.042 9.7778-5.246 13.2892-9.272.092-.093.216-.148.3467-.153.1307-.004.2582.042.3565.128.0982.087.1598.208.1721.339.0124.13-.0255.261-.1058.365-3.6192 4.145-8.3516 7.446-13.6868 9.547-.0585.025-.1211.039-.1847.04z" fill="#5d7183"/><path d="m79.486 158.347c-.1213 0-.2386-.044-.3311-.122-.0925-.079-.1542-.188-.1743-.308-.7489-4.54-1.4569-9.046-2.1404-13.404-.6554-4.174-1.3326-8.484-2.0456-12.826-2.6905.683-5.4511 1.048-8.226 1.089-10.0227.129-20.0069-4.114-26.6965-11.364-.0458-.049-.0814-.107-.1048-.171-.0234-.063-.0341-.131-.0316-.198.0026-.068.0184-.134.0465-.196.0282-.061.0681-.117.1175-.163s.1074-.082.1706-.105c.0632-.024.1304-.034.1977-.032.0674.003.1336.019.1948.047.0613.028.1164.068.1622.118 6.4958 7.039 16.1941 11.164 25.9295 11.034 2.8788-.043 5.7411-.445 8.5209-1.198.0693-.019.1418-.023.2128-.012.0711.011.139.037.1994.076.0605.039.1121.09.1516.15.0394.06.0658.128.0775.2.7477 4.535 1.4543 9.037 2.1379 13.393.4797 3.054.9709 6.181 1.4787 9.341.5146-6.905.587-13.836.2168-20.75-.0036-.068.006-.135.0285-.199.0224-.064.0572-.123.1022-.173.0451-.051.0996-.092.1605-.121.0608-.029.1268-.046.1942-.05.0674-.003.1348.006.1984.029.0637.022.1222.057.1724.103.0502.045.0911.1.1202.161s.046.127.0496.195c.4459 8.333.253 16.689-.5771 24.993-.0124.125-.0693.24-.1601.325-.0908.086-.2094.135-.3337.139z" fill="#5d7183"/><path d="m122.01 164.098c-.126 0-.247-.046-.341-.129-.784-.703-1.585-1.397-2.359-2.07-2.404-2.086-4.89-4.249-7.105-6.847-.088-.104-.132-.239-.121-.375.01-.136.074-.262.178-.351.103-.089.237-.133.373-.122.136.01.261.075.35.178 2.164 2.545 4.51 4.581 6.996 6.737.777.675 1.581 1.373 2.37 2.081.078.069.134.161.159.263.025.101.018.208-.019.306s-.103.183-.189.242-.188.091-.292.091z" fill="#5d7183"/><path d="m109.789 185.85h-20.1814c-.5776-.001-1.1465-.141-1.6584-.41-.5119-.268-.9518-.657-1.2822-1.133s-.5416-1.024-.6158-1.6c-.0742-.575-.009-1.159.1898-1.704l14.544-39.653c.254-.691.712-1.288 1.314-1.709.602-.422 1.318-.648 2.052-.649h20.18c.578.001 1.147.141 1.659.41.512.268.952.657 1.283 1.133.33.476.542 1.024.616 1.6.074.575.009 1.16-.19 1.704l-14.543 39.653c-.254.692-.713 1.288-1.315 1.71-.602.421-1.318.648-2.052.648z" fill="#fff"/><g fill="#5d7183"><path d="m109.793 186.365h-20.1817c-.6599-.001-1.3098-.162-1.8946-.468-.5848-.307-1.0873-.751-1.4648-1.295-.3776-.543-.6191-1.17-.7041-1.827-.0849-.657-.0109-1.325.216-1.947l14.5422-39.654c.292-.789.817-1.47 1.504-1.952.688-.481 1.505-.74 2.344-.743h20.181c.66.002 1.31.162 1.894.469.585.307 1.088.751 1.465 1.295.378.543.619 1.17.704 1.827s.011 1.325-.216 1.947l-14.543 39.654c-.292.789-.816 1.47-1.504 1.951-.687.482-1.504.741-2.342.743zm-5.643-46.858c-.629.002-1.242.196-1.758.557s-.909.872-1.128 1.464l-14.5371 39.653c-.1703.466-.2261.967-.1625 1.46.0635.493.2445.963.5275 1.371.2831.408.6598.741 1.0984.971s.926.351 1.421.352h20.1817c.628-.001 1.242-.196 1.757-.557.516-.361.91-.872 1.128-1.464l14.543-39.652c.17-.467.226-.968.162-1.461-.063-.493-.244-.963-.527-1.371-.284-.407-.66-.741-1.099-.971-.438-.23-.926-.351-1.421-.352z"/><path d="m132.965 142.119c-.128.001-.252-.047-.347-.134s-.154-.206-.166-.334c-.128-1.416-.713-2.751-1.666-3.802s-2.221-1.762-3.613-2.023c-.067-.011-.133-.035-.191-.071-.058-.037-.109-.084-.149-.141-.039-.056-.067-.12-.082-.187s-.016-.137-.003-.205.039-.132.077-.19c.038-.057.087-.106.144-.145.057-.038.121-.064.189-.076.067-.013.137-.012.204.003 1.611.301 3.08 1.124 4.184 2.341 1.103 1.218 1.78 2.764 1.927 4.403.012.136-.03.271-.117.376s-.212.17-.347.183c-.015.002-.029.003-.044.002z"/><path d="m138.245 141.376c-.128.001-.252-.047-.347-.133-.095-.087-.154-.206-.166-.334-.233-2.584-1.301-5.021-3.04-6.94s-4.055-3.215-6.595-3.691c-.134-.025-.252-.102-.329-.215s-.107-.252-.082-.386c.025-.135.103-.254.215-.331s.251-.106.384-.081c2.76.517 5.276 1.925 7.166 4.01 1.889 2.085 3.049 4.732 3.302 7.54.006.067-.001.135-.021.2s-.052.125-.095.177-.096.095-.156.126c-.06.032-.125.051-.192.057z"/><path d="m46.5454 199.258c-6.8088 0-13.0918-2.272-18.7771-6.804-5.5737-4.445-9.4443-10.72-11.1911-18.148-1.5967-6.788-1.3376-14.423.7285-21.496 2.4098-8.242 7.3-15.34 12.0286-22.198 4.6054-6.681 9.3622-13.588 11.7861-21.52 1.7481-5.736 1.9071-11.4242 2.0738-17.4486.0744-2.7044.1526-5.4989.3848-8.2703.6694-7.8401 2.5393-13.9881 5.7161-18.7942 3.986-6.0321 10.3228-9.8105 16.5442-9.8607 3.641-.0258 7.3436 1.1899 10.7153 3.526 3.078 2.1339 5.7712 5.0894 7.7616 8.5446 1.9058 3.3006 3.4089 7.1383 4.5914 11.7332 1.1042 4.291 1.7801 8.6618 2.2956 12.3706.4515 3.2582.7606 6.5833 1.0594 9.7994.3732 4.029.7605 8.196 1.4325 12.247.8611 5.159 2.1972 10.227 3.9912 15.139 1.1681 3.199 2.5227 6.326 4.0577 9.365.031.06.049.126.054.194.005.067-.003.135-.024.199-.021.065-.054.124-.098.176-.044.051-.098.093-.158.124-.06.03-.125.049-.192.054-.068.005-.135-.003-.199-.024s-.124-.055-.175-.099-.093-.097-.124-.158c-1.5515-3.075-2.9219-6.239-4.1036-9.476-1.8157-4.971-3.1681-10.102-4.0399-15.324-.6784-4.088-1.067-8.273-1.4428-12.322-.2975-3.2042-.6053-6.5177-1.0542-9.7514-1.0632-7.6625-2.5509-16.4466-6.7575-23.7304-1.9237-3.3238-4.499-6.1647-7.4564-8.2136-3.1601-2.1893-6.6164-3.3483-10.0035-3.3483h-.1206c-5.8789.0476-11.8913 3.6496-15.6926 9.401-3.078 4.6592-4.8927 10.6488-5.5481 18.3126-.2347 2.743-.3116 5.5233-.3847 8.2123-.1629 5.826-.3296 11.8478-2.1187 17.7198-2.465 8.085-7.2731 15.06-11.9273 21.806-4.6824 6.791-9.5238 13.814-11.8874 21.901-2.0174 6.905-2.2713 14.353-.7144 20.97 1.6929 7.2 5.4378 13.278 10.8294 17.577 4.6593 3.715 9.7765 5.881 15.2104 6.439 4.8184.493 10.0035-.265 15.399-2.255 8.485-3.126 17.6895-9.339 27.3608-18.467 2.4983-2.359 4.8928-4.805 6.6985-6.672 2.3085-2.383 5.1377-3.082 7.8566-3.477.068-.013.137-.012.205.003.067.015.131.044.187.084.056.041.103.092.139.151s.06.125.07.193c.01.069.006.139-.012.206-.017.067-.048.129-.09.184s-.095.101-.155.135c-.06.033-.127.055-.195.062-2.9346.433-5.2944 1.14-7.2694 3.181-1.8135 1.875-4.2182 4.332-6.7319 6.706-9.7726 9.223-19.0951 15.51-27.7096 18.683-4.4537 1.641-8.7283 2.46-12.8237 2.459z"/><path d="m119.419 179.09c-1.877-.004-3.711-.569-5.266-1.624-2.413-1.643-4.143-4.493-4.63-7.621-.021-.135.012-.273.092-.384.08-.11.201-.184.336-.205.134-.021.271.012.381.093.111.08.184.201.205.336.444 2.853 2.01 5.443 4.191 6.929 2.341 1.594 5.401 1.9 7.797.772 2.515-1.175 4.131-3.933 3.847-6.553-.247-2.249-1.757-4.114-2.979-5.28-.525-.501-1.088-1.022-1.722-1.591-.051-.045-.092-.099-.122-.16-.029-.061-.046-.127-.051-.195-.004-.068.006-.136.028-.2s.056-.123.101-.174c.045-.05.099-.092.16-.121.061-.03.127-.047.194-.052.067-.004.135.006.199.028s.122.057.173.102c.641.577 1.214 1.103 1.747 1.612 1.931 1.845 3.069 3.892 3.292 5.915.335 3.047-1.528 6.243-4.429 7.598-1.111.515-2.321.78-3.544.775z"/><path d="m72.106 142.818c-.165-.001-.3293-.023-.4886-.066-.405-.12-.7507-.387-.9694-.75-.2186-.363-.2944-.794-.2125-1.21s.3156-.786.6552-1.038c.3397-.252.7608-.367 1.1807-.323.069.006.1361.025.1973.058.0611.032.1151.077.1587.131s.0758.116.0948.183.0243.137.0157.206c-.0087.069-.0312.135-.0661.195s-.0815.112-.1371.154c-.0555.041-.1189.071-.1862.087-.0672.016-.1371.019-.2053.007-.1084-.007-.2169.013-.3161.057-.0991.045-.1859.113-.2529.199s-.1121.187-.1314.294c-.0193.108-.0123.218.0205.322.0327.104.0903.199.1676.275.0773.077.172.133.276.165s.2141.037.3207.016c.1067-.02.2067-.067.2913-.135.1008-.089.2321-.134.3657-.127.1336.008.2591.067.3497.166.0905.099.1389.23.1349.364s-.0601.262-.1564.355c-.3033.274-.6989.423-1.1068.415z"/><path d="m73.7084 152.064c-.1294 0-.2585-.015-.3847-.044-.3613-.089-.6805-.301-.9032-.6-.2226-.299-.3347-.667-.3171-1.04.0175-.373.1637-.728.4135-1.005s.5876-.457.9556-.512c.0668-.008.1347-.003.1997.015s.1258.048.1791.09c.0532.041.0978.093.1311.152.0334.058.0549.123.0633.19.0085.067.0036.136-.0142.201s-.0482.126-.0896.18c-.0413.053-.0927.098-.1512.131-.0586.034-.1231.055-.19.064-.0865.015-.1685.05-.2396.102-.0712.052-.1296.119-.171.197-.0413.078-.0645.164-.0676.252-.0032.088.0137.176.0493.257.0356.08.0891.152.1563.208.0673.057.1465.098.2317.119.0853.022.1742.024.2602.005.086-.018.1667-.056.236-.11.1035-.087.2369-.129.3713-.118.1345.011.2591.075.347.178.0878.103.1318.236.1224.371-.0093.135-.0713.261-.1725.351-.2841.24-.6445.37-1.0158.366z"/></g><path d="m203.272 46.6871c-.023.0672-62.878.5144-68.663.5679-5.548.0511-11.052.2392-16.603.0299-1.06-.0398-2.343-.2067-2.715-.9628-.093-.2237-.136-.4653-.125-.7074-.067-2.7725-.058-5.5463-.099-8.3188-.009-.6028-.108-7.3273-.057-7.3273 2.144-.0087 4.29-.0311 6.425-.0548 2.452-.0266 4.904-.0556 7.357-.0872 6.337-.083 12.673-.1661 19.011-.2491 9.869-.1245 19.759-.3525 29.631-.2429 5.252.0582 10.503.1312 15.753.2192 2.094.0324 9.335-.411 10.164.9753.137.2508.219.5282.239.8133.221 1.9243.135 3.8486.125 5.7729-.013 1.8957-.027 3.7905-.04 5.6845-.005.8906-.129 3.0304-.403 3.8873z" fill="#fff"/><path d="m123.687 46.2887c-1.898 0-3.803-.025-5.702-.0972-1.106-.0411-2.637-.2155-3.142-1.2455-.126-.2883-.185-.6012-.173-.9154-.042-1.6802-.054-3.3866-.066-5.0381-.009-1.0774-.018-2.1909-.034-3.2857v-.061c0-.4447-.034-2.2507-.052-3.9495-.01-.9703-.016-1.7438-.019-2.2918 0-1.2181 0-1.2181.156-1.3812.046-.0471.101-.0846.161-.1102.061-.0257.126-.039.192-.0393 2.1-.0087 4.232-.0311 6.291-.0523h.124c2.454-.0266 4.907-.0556 7.358-.0872l9.301-.1246c3.237-.0423 6.473-.0838 9.709-.1245 2.287-.0299 4.574-.0627 6.861-.0984 7.468-.1121 15.185-.2279 22.778-.1445 5.264.0586 10.598.1408 15.756.2192.373 0 .929 0 1.573-.0149 5.31-.0959 8.318.0722 9.009 1.233.174.3115.278.657.306 1.0126.183 1.5856.16 3.1836.137 4.733 0 .3736-.01.7361-.012 1.1047l-.04 5.6845c0 .913-.124 3.1076-.426 4.033-.109.3425-.354.3475-.841.3562-.249 0-.611.01-1.082.0162-.94.0112-2.305.0262-4.005.0424-3.119.0286-7.67.0685-13.528.1158-10.763.0872-24.349.1893-34.268.264-7.717.0573-13.805.1034-15.407.1246-1.426.0137-2.872.0361-4.27.0573-2.177.0299-4.405.0648-6.645.0648zm-8.192-17.416c0 .959.021 3.4002.071 6.7631v.061c.016 1.0986.025 2.2146.033 3.2932.013 1.6465.025 3.3491.065 5.0219-.009.1692.016.3385.072.4982.137.279.646.6227 2.287.6862 4.107.1545 8.275.0897 12.302.0262 1.401-.0212 2.85-.0436 4.277-.0573 1.605-.0149 7.696-.061 15.41-.1245 18.647-.1408 49.239-.3737 52.869-.4372.193-.9229.293-2.6156.293-3.399v-.0424l.04-5.6459c0-.3736.008-.741.013-1.111.022-1.5132.045-3.0776-.125-4.6009-.018-.2123-.08-.4187-.18-.6065-.051-.086-.438-.5231-3.045-.6975-1.671-.1109-3.648-.076-5.091-.0498-.653.0124-1.217.0224-1.608.0162-5.157-.0798-10.489-.1607-15.75-.2193-7.579-.0834-15.295.0324-22.759.1445-2.287.0349-4.575.0673-6.862.0972-3.236.0415-6.472.083-9.708.1245l-9.303.1246c-2.454.0315-4.907.0606-7.359.0872h-.131c-1.904.0174-3.866.0386-5.811.0473z" fill="#5d7183"/><path d="m115.01 25.738c-.198 0-.388-.0787-.528-.2188-.14-.1402-.218-.3303-.218-.5285s.078-.3883.218-.5284.33-.2189.528-.2189c2.102-.0087 25.608-.2989 32.786-.3898.098-.0013.195.0169.287.0533.091.0364.174.0904.244.1589.07.0686.126.1503.165.2405.038.0902.059.1871.06.2852.001.0982-.017.1956-.053.2867-.036.0912-.09.1742-.159.2445-.068.0703-.15.1263-.24.165s-.187.0593-.285.0605c-5.258.0672-30.57.3811-32.798.3898z" fill="#96e296"/><path d="m203.272 78.1241c-.023.0672-62.878.5144-68.663.5679-5.548.0511-11.052.2392-16.603.0299-1.06-.0398-2.343-.2067-2.715-.9627-.093-.2238-.136-.4654-.125-.7075-.067-2.7725-.058-5.5462-.099-8.3188-.009-.6028-.108-7.3273-.057-7.3273 2.144-.0087 4.29-.0311 6.425-.0548 2.452-.0249 4.904-.054 7.357-.0872 6.337-.083 12.673-.166 19.011-.2491 9.869-.1245 19.759-.3525 29.631-.2491 5.252.059 10.503.132 15.753.2192 2.094.0324 9.335-.4097 10.164.9753.137.2508.219.5282.239.8133.221 1.9243.135 3.8486.125 5.7729-.013 1.8957-.027 3.7905-.04 5.6845-.005.8968-.129 3.0366-.403 3.8935z" fill="#fff"/><path d="m123.687 80.1127c-1.898 0-3.803-.0249-5.702-.0971-1.106-.0411-2.637-.2155-3.142-1.2455-.126-.2883-.185-.6012-.173-.9155-.042-1.6802-.054-3.3865-.066-5.038-.009-1.0774-.018-2.1909-.034-3.2857v-.0548c0-.4446-.034-2.2494-.052-3.9495-.01-.9703-.016-1.7437-.019-2.2917 0-1.2181 0-1.2181.156-1.3813.093-.0944.22-.1481.353-.1495 2.109-.0087 4.247-.0311 6.317-.0535h.105c2.453-.0249 4.906-.054 7.357-.0872l9.302-.1246c3.236-.0423 6.472-.0838 9.708-.1245 2.287-.0299 4.575-.0627 6.863-.0984 7.468-.1121 15.185-.2279 22.778-.1445 5.249.0586 10.58.1395 15.746.2192.383.0063.939 0 1.584-.0149 5.308-.0959 8.317.0722 9.008 1.233.173.3116.278.657.306 1.0126.183 1.5868.159 3.1836.137 4.733 0 .3736-.01.7361-.013 1.1035l-.04 5.6845c0 .9129-.124 3.1137-.425 4.0329-.11.3425-.355.3475-.842.3562-.249 0-.613.01-1.086.0162-.943.0112-2.312.0262-4.017.0424-3.127.0299-7.69.0685-13.561.1158-10.787.0872-24.384.1893-34.313.2641-7.664.0585-13.717.1033-15.31.1245-1.425.0137-2.87.0361-4.268.0573-2.188.0262-4.417.061-6.657.061zm-8.192-17.4159c0 .9591.021 3.4002.071 6.7631v.061c.016 1.0986.025 2.2146.033 3.2932.013 1.6465.025 3.3491.065 5.0219-.009.1692.016.3385.072.4982.137.2789.646.6227 2.287.6862 4.107.1545 8.277.0897 12.305.0262 1.4-.0212 2.847-.0436 4.274-.0573 1.598-.015 7.652-.0598 15.31-.1246 18.682-.1395 49.332-.3736 52.964-.4371.193-.923.293-2.6156.293-3.399v-.0424l.04-5.6459c0-.3736.008-.7473.013-1.1109.022-1.5133.045-3.0777-.125-4.601-.014-.2173-.073-.4294-.173-.6227-.051-.0859-.438-.5231-3.044-.6975-1.671-.1108-3.647-.0747-5.091-.0498-.654.0124-1.217.0224-1.608.0162-5.168-.0797-10.503-.1619-15.751-.2192-7.579-.0835-15.295.0324-22.757.1445-2.288.0348-4.576.0676-6.863.0983-3.236.0399-6.473.0814-9.709.1246l-9.303.1245c-2.454.0316-4.906.0607-7.358.0872h-.106c-1.912.0324-3.885.0536-5.839.0623z" fill="#5d7183"/><path d="m115.01 55.5827c-.198 0-.388-.0787-.528-.2189-.14-.1401-.218-.3302-.218-.5284s.078-.3883.218-.5284c.14-.1402.33-.2189.528-.2189 2.104-.0087 25.608-.2989 32.786-.3898h.01c.198-.0012.388.0764.529.2158.141.1393.221.3289.222.5271s-.076.3887-.215.5297c-.14.141-.329.2208-.527.222-5.258.0672-30.569.3811-32.798.3898z" fill="#96e296"/><path d="m203.698 109.4c-.022.083-63.488.623-69.331.694-5.601.062-11.158.293-16.763.038-1.07-.049-2.365-.25-2.739-1.177-.094-.278-.136-.572-.124-.865-.067-3.388-.059-6.777-.1-10.1657-.009-.7349-.109-8.9527-.058-8.9527 2.166-.01 4.331-.0387 6.487-.0661 2.475-.0323 4.952-.0685 7.429-.1083 6.399-.0988 12.797-.1993 19.194-.3014 9.967-.1532 19.953-.4297 29.92-.2965 5.303.0714 10.605.1611 15.907.2691 2.116.0386 9.428-.4982 10.262 1.1907.141.3147.222.6523.242.9964.222 2.3503.135 4.7005.124 7.0533l-.041 6.9462c-.004 1.085-.132 3.699-.409 4.745z" fill="#96e296"/><path d="m125.526 38.8851c-.228.2778-.29.6489-.032 1.0848.701 1.1808 3.246.0499 2.402-1.1296-.174-.2233-.42-.3798-.696-.4434-.561-.152-1.319.0498-1.674.4882z" fill="#5d7183"/><path d="m135.454 38.8851c-.227.2778-.289.6489-.031 1.0848.699 1.1808 3.246.0499 2.401-1.1296-.174-.2235-.42-.3801-.696-.4434-.562-.152-1.318.0498-1.674.4882z" fill="#5d7183"/><path d="m145.378 38.8851c-.226.2778-.288.6489-.031 1.0848.7 1.1808 3.247.0499 2.401-1.1296-.174-.2233-.419-.3798-.695-.4434-.562-.152-1.32.0498-1.675.4882z" fill="#5d7183"/><path d="m205.763 87.2995c-.106.0003-.21-.0333-.295-.0959-.086-.0626-.149-.151-.181-.2522s-.031-.2099.003-.3104.1-.1874.187-.2482c2.668-1.8682 5.261-3.861 7.704-5.9423.05-.0423.108-.0745.17-.0945.062-.0201.128-.0276.193-.0223s.129.0234.187.0533.11.0709.152.1208c.043.0499.075.1076.095.1699s.027.128.022.1932-.023.1288-.053.187-.071.11-.121.1524c-2.467 2.0949-5.085 4.1101-7.778 5.9996-.084.0584-.183.0897-.285.0896z" fill="#5d7183"/><path d="m207.516 91.374c-.132.0043-.26-.044-.357-.1344-.096-.0904-.152-.2154-.157-.3476-.004-.1321.044-.2605.135-.357.09-.0964.215-.153.347-.1573 1.627-.1059 3.236-.2317 4.772-.3737.065-.0059.131.001.194.0205.063.0196.121.0513.171.0933.051.042.093.0936.123.1518.031.0581.049.1217.055.1872.006.0654-.001.1313-.02.1941-.02.0627-.051.121-.093.1715-.042.0504-.094.0921-.152.1227-.058.0305-.122.0493-.187.0553-1.548.142-3.162.2678-4.797.3736z" fill="#5d7183"/></svg>