<svg width="20" height="20" viewBox="0 0 20 20" fill="none" xmlns="http://www.w3.org/2000/svg">
<circle cx="10" cy="10" r="10" fill="#D1D9E2"/>
<path fill-rule="evenodd" clip-rule="evenodd" d="M14.5 13.5001C14.5 14.0524 14.0523 14.5001 13.5 14.5001H6.5C5.94772 14.5001 5.5 14.0524 5.5 13.5001V8.98362C5.5 8.65838 5.65817 8.35346 5.92405 8.16614L9.44921 5.68252C9.79643 5.43788 10.2603 5.43929 10.606 5.68602L14.0809 8.1658C14.3439 8.35349 14.5 8.65668 14.5 8.97979V13.5001ZM7.5 12.0537C7.5 11.8072 7.69983 11.6074 7.94632 11.6074H12.0537C12.3002 11.6074 12.5 11.8072 12.5 12.0537C12.5 12.3002 12.3002 12.5 12.0537 12.5H7.94632C7.69983 12.5 7.5 12.3002 7.5 12.0537Z" fill="#384250"/>
</svg>
