<svg width="20" height="20" viewBox="0 0 20 20" fill="none" xmlns="http://www.w3.org/2000/svg">
<circle cx="10" cy="10" r="10" fill="#D1D9E2"/>
<g clip-path="url(#clip0_360_4117)">
<path d="M5 12.916C5 11.1666 5 9.41494 5 7.66561C5.05619 7.50116 5.21256 7.44873 5.35915 7.55598C5.53262 7.67991 5.68898 7.82291 5.85268 7.95875C6.34865 8.37344 6.84706 8.78337 7.34547 9.19806C7.84633 9.61513 8.34718 10.0346 8.8456 10.4564C9.0435 10.6256 9.2414 10.7949 9.44174 10.9617C9.78134 11.2405 10.2065 11.2453 10.5436 10.9617C11.0762 10.516 11.6015 10.0632 12.1366 9.6199C12.6448 9.19568 13.1554 8.77384 13.666 8.34961C13.9519 8.11128 14.2426 7.87534 14.526 7.63463C14.6042 7.5679 14.6824 7.50116 14.7997 7.5107C14.9121 7.52023 14.9805 7.57981 14.9927 7.68706C14.9976 7.71804 14.9951 7.75141 14.9951 7.78239C14.9951 9.45307 14.9878 11.1237 15 12.7944C15.0049 13.3378 14.5749 13.6715 14.0985 13.6715C11.8654 13.6667 9.63231 13.6691 7.39922 13.6691C6.88615 13.6691 6.37308 13.6739 5.85756 13.6667C5.50086 13.6619 5.22966 13.507 5.06108 13.1948C5.01466 13.1043 5.01955 13.0089 5 12.916Z" fill="#384250"/>
<path d="M9.99615 6.33301C11.3668 6.33301 12.7399 6.33301 14.1105 6.33301C14.367 6.33301 14.5869 6.41404 14.7628 6.59993C14.885 6.72863 14.8777 6.84303 14.7384 6.95743C13.678 7.83924 12.6153 8.71866 11.5549 9.60286C11.142 9.94605 10.734 10.2964 10.326 10.6443C10.0817 10.8517 9.89842 10.8517 9.65655 10.6443C8.20773 9.40028 6.7296 8.19196 5.26124 6.96934C5.10243 6.83588 5.0951 6.72386 5.24169 6.57848C5.41516 6.40689 5.62772 6.33301 5.87204 6.33301C7.24756 6.33539 8.62308 6.33301 9.99615 6.33301Z" fill="#384250"/>
</g>
<defs>
<clipPath id="clip0_360_4117">
<rect width="10" height="7.33333" fill="white" transform="translate(5 6.33301)"/>
</clipPath>
</defs>
</svg>
