<svg width="45" height="45" viewBox="0 0 45 45" fill="none" xmlns="http://www.w3.org/2000/svg">
<circle cx="22.5" cy="22.5" r="22.5" fill="#03C302"/>
<path d="M13 26.8488C13 31.3506 16.6494 35 21.1512 35H23.8488C28.3506 35 32 31.3506 32 26.8488V26.8488C32 26.0985 31.3918 25.4903 30.6415 25.4903H14.3585C13.6082 25.4903 13 26.0985 13 26.8488V26.8488Z" stroke="white"/>
<path d="M21.7896 10.0256C21.7931 10.0223 21.7953 10.018 21.796 10.0134C21.7966 10.0087 21.7956 10.004 21.7931 10H21.9399C21.9187 10.0154 21.8941 10.0258 21.8679 10.0303C21.8418 10.0347 21.8149 10.0331 21.7896 10.0256Z" fill="white"/>
<path fill-rule="evenodd" clip-rule="evenodd" d="M23.1442 10H21.9433C21.9112 10.0198 21.8768 10.0167 21.8425 10.0135C21.8254 10.012 21.8084 10.0104 21.7917 10.0116C21.3337 10.0413 21.0277 10.2927 20.803 10.6504C20.6557 10.8809 20.5907 11.1513 20.6178 11.4206C20.6311 11.5566 20.5756 11.6292 20.4416 11.6667C20.2902 11.7049 20.1443 11.761 20.0074 11.8339C19.7995 11.9538 19.6573 11.9162 19.4822 11.7475C18.9887 11.2718 18.1528 11.2418 17.6354 11.657C17.3211 11.9098 17.0298 12.1879 16.7648 12.4884C16.5648 12.71 16.4455 12.9882 16.4249 13.2809C16.4044 13.5736 16.4838 13.8647 16.651 14.1101C16.7301 14.2287 16.8253 14.3367 16.934 14.4313C17.0094 14.4975 17.0238 14.5625 16.9777 14.6549C16.8758 14.8577 16.7867 15.0662 16.7108 15.2793C16.6788 15.3718 16.6225 15.4011 16.5268 15.4011C16.4982 15.4009 16.4696 15.4001 16.441 15.3994C16.3283 15.3965 16.2152 15.3936 16.1039 15.4217C15.499 15.5758 15.0993 15.9173 15 16.535V17.8876C15.0703 18.375 15.3572 18.7052 15.8128 18.9092C16.0319 19.0044 16.2729 19.0432 16.5123 19.022C16.6209 19.0144 16.6843 19.0539 16.7194 19.1553C16.7254 19.1727 16.7313 19.1902 16.7373 19.2076C16.7861 19.3509 16.8354 19.4957 16.9148 19.6246C17.034 19.8185 16.991 19.9463 16.8241 20.1059C16.3021 20.6038 16.2884 21.3962 16.7648 21.9339C17.0206 22.2234 17.3008 22.4922 17.6026 22.7375C17.9367 23.0096 18.3236 23.0986 18.7511 23.031C19.0764 22.9775 19.3728 22.8183 19.5909 22.5801C19.6714 22.4959 19.7472 22.4734 19.8601 22.526C20.0468 22.6183 20.2412 22.6954 20.4412 22.7567C20.5756 22.7946 20.6307 22.8675 20.6174 23.0032C20.5909 23.2721 20.6564 23.542 20.8038 23.7719C21.0281 24.13 21.3349 24.3806 21.7925 24.4084C21.8103 24.4108 21.8286 24.4096 21.8468 24.4084C21.8797 24.4062 21.9127 24.404 21.9433 24.423H23.143C23.6776 24.3851 24.0324 24.1048 24.2575 23.6539C24.3612 23.4449 24.404 23.2127 24.3814 22.9821C24.3724 22.8645 24.4205 22.8018 24.5377 22.7642C24.682 22.7201 24.8231 22.6668 24.9601 22.6049C25.2701 22.463 25.2704 22.4633 25.5163 22.6843L25.517 22.6849C25.7734 22.9141 26.1084 23.0447 26.4583 23.0521C26.8083 23.0594 27.1489 22.9429 27.4154 22.7248C27.6617 22.5179 27.8965 22.2987 28.1188 22.068C28.4865 21.7009 28.6581 21.2692 28.5408 20.7552C28.4728 20.4642 28.3111 20.2012 28.0785 20.0037C27.9953 19.9305 27.9726 19.8598 28.0246 19.7565C28.1255 19.5583 28.213 19.3541 28.2868 19.1452C28.3161 19.0562 28.3751 19.0216 28.4724 19.0216C28.4979 19.0218 28.5234 19.0223 28.5491 19.0229C28.6595 19.0252 28.7711 19.0275 28.8812 19.0043C29.5057 18.8736 29.8906 18.4805 30 17.8591V16.7045C29.9801 16.6747 29.9824 16.6428 29.9847 16.611C29.986 16.5934 29.9873 16.5758 29.9848 16.5587C29.9672 16.1056 29.6999 15.805 29.3204 15.5796C29.0764 15.4368 28.7907 15.3742 28.5064 15.4015C28.3794 15.4112 28.3111 15.362 28.272 15.2452C28.2262 15.1065 28.1709 14.9709 28.1063 14.8394C27.9611 14.5466 27.9617 14.5459 28.1869 14.3159L28.1876 14.3152C28.4276 14.0703 28.5654 13.749 28.5747 13.4126C28.584 13.0762 28.4642 12.7483 28.238 12.4914C27.985 12.2056 27.7087 11.9395 27.4119 11.6957C27.1816 11.5034 26.8923 11.3886 26.5879 11.3688C26.2836 11.349 25.9808 11.4252 25.7257 11.5859C25.6056 11.6587 25.4967 11.7472 25.4021 11.849C25.3271 11.9309 25.2532 11.9481 25.1458 11.897C24.9658 11.8133 24.7809 11.7397 24.592 11.6765C24.383 11.6047 24.3767 11.6017 24.3857 11.3834C24.3996 11.0854 24.3095 10.7914 24.1297 10.5482C23.8921 10.2198 23.5694 10.0222 23.1442 10ZM22.9372 10.8453H22.5124C22.4732 10.8453 22.4341 10.8452 22.395 10.8451C22.278 10.8447 22.1616 10.8444 22.0474 10.8472C21.7504 10.8517 21.5421 11.0497 21.537 11.3338C21.5354 11.462 21.536 11.5905 21.5365 11.7188C21.5367 11.783 21.537 11.8471 21.537 11.9113C21.5339 12.1596 21.4213 12.3028 21.1701 12.3696C20.7241 12.4882 20.2952 12.6595 19.893 12.8795C19.6621 13.0069 19.4874 12.9825 19.2978 12.8044C19.2375 12.7476 19.1781 12.6899 19.1186 12.6323C19.0372 12.5532 18.9557 12.4741 18.8719 12.3974C18.6538 12.1979 18.3682 12.1983 18.1525 12.4001C17.936 12.6035 17.7218 12.8091 17.51 13.017C17.2881 13.2368 17.2885 13.5111 17.51 13.7309C17.5776 13.7978 17.6464 13.8634 17.7153 13.929C17.7887 13.9989 17.8621 14.0687 17.9336 14.1401C18.1052 14.3114 18.131 14.4827 18.0079 14.6905C17.773 15.0848 17.5913 15.5062 17.4674 15.9447C17.4045 16.1701 17.2486 16.2795 17.0067 16.2828C16.9097 16.2838 16.8126 16.2833 16.7155 16.2827C16.6123 16.2822 16.5092 16.2817 16.4061 16.2828C16.0993 16.2874 15.8903 16.4846 15.8875 16.7758C15.8848 17.067 15.8852 17.3537 15.8875 17.649C15.8899 17.9443 16.0954 18.1434 16.4006 18.148C16.4673 18.148 16.534 18.1477 16.6007 18.1474C16.7341 18.1468 16.8675 18.1462 17.0009 18.148C17.251 18.151 17.4034 18.2607 17.4698 18.4929C17.5935 18.9261 17.7734 19.3427 18.0052 19.7328C18.1306 19.9473 18.1056 20.1168 17.927 20.2937C17.8605 20.3597 17.7926 20.4243 17.7247 20.4888C17.6503 20.5596 17.576 20.6304 17.5034 20.7029C17.2892 20.9167 17.2935 21.197 17.5057 21.4051C17.7179 21.6133 17.925 21.8154 18.1478 22.0225C18.3705 22.2295 18.6542 22.2287 18.8785 22.0225C18.9634 21.9445 19.0458 21.8644 19.1281 21.7844C19.183 21.731 19.2379 21.6777 19.2935 21.6249C19.4839 21.445 19.6578 21.4183 19.8875 21.543C20.2937 21.765 20.7268 21.9378 21.1771 22.0574C21.4174 22.1205 21.5315 22.2678 21.5347 22.5083C21.5347 22.5724 21.5343 22.6365 21.534 22.7006C21.5333 22.8289 21.5326 22.9571 21.5347 23.0854C21.539 23.3717 21.7449 23.5738 22.0399 23.5772C22.3476 23.5805 22.6551 23.5805 22.9626 23.5772C23.2596 23.5746 23.4686 23.3747 23.4737 23.091C23.4737 23.0269 23.4734 22.9628 23.4732 22.8986C23.4727 22.7704 23.4721 22.6422 23.4737 22.5139C23.476 22.2652 23.5882 22.1224 23.8399 22.0551C24.286 21.9367 24.7151 21.7654 25.1173 21.5453C25.349 21.4179 25.5214 21.4416 25.7121 21.6204C25.7742 21.6787 25.8351 21.7379 25.8961 21.7971C25.976 21.8746 26.0558 21.9521 26.138 22.0273C26.3561 22.2268 26.6417 22.2265 26.8578 22.0251C27.0746 21.8219 27.2887 21.6163 27.5003 21.4081C27.7222 21.1887 27.7218 20.9163 27.5003 20.6943C27.4299 20.6239 27.3577 20.5551 27.2855 20.4863C27.2154 20.4195 27.1454 20.3528 27.0771 20.2847C26.9043 20.1126 26.8793 19.9436 27.0032 19.7347C27.2378 19.3403 27.4193 18.9189 27.5433 18.4805C27.6062 18.2592 27.7637 18.1476 28.0044 18.1442C28.0726 18.1442 28.1409 18.1446 28.2092 18.1449C28.3459 18.1457 28.4827 18.1465 28.6195 18.1442C28.9079 18.1393 29.1185 17.9406 29.1224 17.6648C29.1263 17.3642 29.1263 17.0636 29.1224 16.763C29.124 16.6993 29.1123 16.636 29.0879 16.5767C29.0634 16.5175 29.0268 16.4636 28.9802 16.4183C28.9336 16.373 28.878 16.3371 28.8167 16.313C28.7554 16.2888 28.6896 16.2768 28.6234 16.2776C28.5117 16.2753 28.3999 16.2758 28.288 16.2762C28.1948 16.2765 28.1015 16.2769 28.0083 16.2757C27.7586 16.2727 27.6058 16.1619 27.5393 15.93C27.4151 15.4969 27.2351 15.0804 27.0036 14.6901C26.8758 14.4748 26.9016 14.308 27.0817 14.1299C27.1444 14.0678 27.2083 14.0069 27.2721 13.946C27.3504 13.8714 27.4286 13.7968 27.5046 13.72C27.7187 13.504 27.7132 13.2259 27.5011 13.0178C27.2889 12.8096 27.0814 12.6086 26.859 12.4005C26.6367 12.1923 26.3522 12.1934 26.1286 12.4005C26.0498 12.4731 25.9732 12.5476 25.8967 12.6219C25.836 12.681 25.7754 12.7399 25.7136 12.798C25.5222 12.9783 25.3486 13.0042 25.1193 12.8788C24.7134 12.6563 24.2802 12.4836 23.8297 12.3648C23.5901 12.3031 23.476 12.1551 23.4729 11.9139V11.3649C23.4706 11.0426 23.2693 10.8476 22.9372 10.8453Z" fill="white"/>
<path fill-rule="evenodd" clip-rule="evenodd" d="M25.2046 18.9552C25.5636 18.4397 25.7555 17.8333 25.756 17.2129C25.7569 16.3825 25.415 15.5856 24.8055 14.9973C24.1959 14.4091 23.3684 14.0774 22.5047 14.0752C21.8594 14.0734 21.2281 14.2556 20.6906 14.5989C20.153 14.9422 19.7335 15.4311 19.4852 16.0037C19.2368 16.5764 19.1707 17.207 19.2952 17.8157C19.4197 18.4245 19.7293 18.9841 20.1847 19.4236C20.6402 19.8631 21.221 20.1629 21.8537 20.2849C22.4864 20.4069 23.1425 20.3456 23.739 20.109C24.3355 19.8723 24.8455 19.4708 25.2046 18.9552ZM21.1583 19.1091C21.5492 19.3631 22.0096 19.4998 22.4813 19.5021C22.794 19.504 23.104 19.4468 23.3936 19.3335C23.6832 19.2202 23.9468 19.0532 24.1692 18.842C24.3917 18.6307 24.5687 18.3794 24.6901 18.1024C24.8115 17.8253 24.8749 17.528 24.8768 17.2274C24.8803 16.7739 24.7438 16.3295 24.4846 15.9506C24.2254 15.5717 23.855 15.2752 23.4205 15.0988C22.9859 14.9223 22.5067 14.8738 22.0434 14.9594C21.5801 15.0449 21.1537 15.2607 20.8181 15.5794C20.4825 15.8981 20.2527 16.3054 20.1579 16.7497C20.0632 17.194 20.1077 17.6554 20.2857 18.0754C20.4638 18.4954 20.7675 18.8551 21.1583 19.1091Z" fill="white"/>
</svg>
