<svg width="45" height="45" viewBox="0 0 45 45" fill="none" xmlns="http://www.w3.org/2000/svg">
<circle cx="22.5" cy="22.5" r="22.5" fill="#FFBF3A"/>
<path d="M22.4856 13.3324C22.0283 13.3324 21.5715 13.3324 21.1148 13.3324C20.6846 13.3296 20.3685 13.0467 20.3667 12.6694C20.3649 12.292 20.6781 12.0025 21.1065 12.0025C22.0275 11.9992 22.9486 11.9992 23.87 12.0025C24.3002 12.0025 24.6163 12.2876 24.6181 12.6649C24.6198 13.0423 24.3049 13.3318 23.8783 13.3318C23.4139 13.3351 22.9494 13.3324 22.4856 13.3324Z" fill="white"/>
<path fill-rule="evenodd" clip-rule="evenodd" d="M29.5838 23.1803V25.9506C29.58 26.0813 29.6154 26.2104 29.686 26.323C30.0819 26.9639 30.474 27.6065 30.8624 28.2508C31.2034 28.8154 30.8843 29.3295 30.1948 29.33H26.1863C26.0362 29.33 25.9629 29.3523 25.918 29.5112C25.7217 30.2228 25.28 30.8532 24.6621 31.3035C24.0442 31.7538 23.285 31.9987 22.5033 31.9999C21.7216 32.001 20.9616 31.7583 20.3422 31.3098C19.7228 30.8613 19.279 30.2323 19.0804 29.5212C19.0349 29.3606 18.9622 29.3278 18.7985 29.3284C17.6092 29.3348 16.4188 29.3337 15.2301 29.3326L14.8119 29.3323C14.1495 29.3323 13.831 28.8843 14.0898 28.3125C14.5023 27.4022 14.9173 26.4932 15.3348 25.5855C15.3871 25.4717 15.4133 25.3488 15.4116 25.2249C15.4116 24.7446 15.4081 24.2644 15.4046 23.7841C15.3971 22.7505 15.3895 21.717 15.417 20.6845C15.4932 17.8503 16.8983 15.7719 19.6376 14.5815C23.6484 12.8387 28.4481 15.12 29.4071 19.1768C29.5269 19.6852 29.5864 20.2044 29.5844 20.7251C29.5812 21.282 29.5821 21.84 29.583 22.3983C29.5834 22.6589 29.5838 22.9196 29.5838 23.1803ZM15.7764 27.9874C15.856 27.8116 15.9347 27.6369 16.0131 27.4632C16.2442 26.9509 16.4715 26.447 16.704 25.9457C16.784 25.7748 16.8243 25.5899 16.8222 25.4033C16.8202 23.8413 16.8193 22.2801 16.8193 20.7196C16.8246 18.1132 18.6663 15.9809 21.3779 15.4363C24.4504 14.8188 27.5821 16.8461 28.076 19.7676C28.1336 20.1026 28.163 20.4414 28.1641 20.7807C28.1641 22.5924 28.1641 24.4041 28.1605 26.2158C28.1571 26.41 28.2114 26.6013 28.3171 26.7682C28.4915 27.0465 28.6613 27.3272 28.8347 27.614L28.8349 27.6143C28.9094 27.7374 28.9845 27.8617 29.061 27.9874H15.7764ZM22.5204 30.6632C23.3925 30.6554 24.199 30.113 24.4703 29.3428H20.5161C20.6624 29.7317 20.9342 30.0681 21.2935 30.3048C21.6528 30.5415 22.0817 30.6668 22.5204 30.6632Z" fill="white"/>
</svg>
