<svg width="228" height="218" viewBox="0 0 228 218" fill="none" xmlns="http://www.w3.org/2000/svg">
<path d="M108.621 218C168.61 218 217.241 169.199 217.241 109C217.241 48.8009 168.61 0 108.621 0C48.6311 0 0 48.8009 0 109C0 169.199 48.6311 218 108.621 218Z" fill="#EAF8FF"/>
<path d="M215.446 127.364L227.422 84.1478L154.92 63.9131L142.945 107.137C142.74 107.879 142.837 108.674 143.215 109.345C143.593 110.016 144.221 110.508 144.961 110.715L211.883 129.386C212.623 129.591 213.413 129.493 214.081 129.114C214.749 128.735 215.24 128.106 215.446 127.364Z" fill="#FFE07B"/>
<path d="M227.422 84.1478L154.92 63.9131L155.599 65.5946L182.906 102.272C182.945 102.324 182.999 102.362 183.061 102.379C183.123 102.396 183.189 102.393 183.248 102.368L227.422 84.1478Z" fill="#FFEEA4"/>
<path d="M184.035 102.389C183.489 102.388 182.95 102.259 182.464 102.01C181.977 101.762 181.555 101.402 181.232 100.96L168.414 83.3907C168.367 83.3293 168.333 83.2591 168.314 83.1843C168.294 83.1095 168.29 83.0315 168.301 82.955C168.312 82.8785 168.338 82.805 168.377 82.7387C168.417 82.6724 168.469 82.6147 168.532 82.569C168.594 82.5233 168.664 82.4905 168.739 82.4725C168.814 82.4544 168.892 82.4516 168.968 82.4641C169.044 82.4766 169.117 82.5042 169.182 82.5453C169.247 82.5863 169.304 82.64 169.348 82.7033L182.168 100.28C182.474 100.7 182.911 101.004 183.41 101.145C183.909 101.286 184.441 101.255 184.92 101.057L225.642 84.2467L159.069 66.1915C158.996 66.1711 158.927 66.1364 158.867 66.0894C158.807 66.0423 158.757 65.9839 158.72 65.9175C158.682 65.851 158.658 65.7778 158.649 65.702C158.64 65.6262 158.645 65.5493 158.666 65.4757C158.686 65.4022 158.721 65.3333 158.767 65.2732C158.814 65.213 158.873 65.1627 158.939 65.1251C159.005 65.0875 159.078 65.0634 159.153 65.0541C159.229 65.0448 159.306 65.0506 159.379 65.071L227.577 83.5811C227.693 83.6136 227.797 83.6817 227.872 83.7759C227.948 83.8701 227.993 83.9856 228 84.1064C228.007 84.2272 227.976 84.3472 227.912 84.4497C227.848 84.5523 227.754 84.6322 227.642 84.6783L185.353 102.126C184.935 102.298 184.487 102.387 184.035 102.389Z" fill="#5D7183"/>
<path d="M212.66 130.074C212.344 130.074 212.029 130.03 211.725 129.944L144.804 111.275C144.364 111.152 143.953 110.943 143.593 110.661C143.234 110.379 142.933 110.028 142.709 109.629C142.484 109.23 142.34 108.791 142.285 108.336C142.23 107.881 142.265 107.42 142.387 106.979L153.502 66.2384C153.543 66.0898 153.641 65.9637 153.775 65.8878C153.909 65.8119 154.067 65.7924 154.215 65.8337C154.363 65.8749 154.489 65.9735 154.565 66.1077C154.64 66.242 154.66 66.4009 154.619 66.5494L143.504 107.293C143.421 107.587 143.398 107.896 143.434 108.2C143.471 108.504 143.567 108.798 143.717 109.064C143.867 109.331 144.068 109.566 144.309 109.754C144.549 109.943 144.824 110.082 145.119 110.163L212.029 128.827C212.621 128.992 213.254 128.914 213.789 128.611C214.324 128.307 214.717 127.803 214.882 127.209L226.047 86.8965C226.088 86.748 226.186 86.6218 226.32 86.5459C226.454 86.47 226.612 86.4506 226.76 86.4918C226.908 86.533 227.034 86.6316 227.109 86.7659C227.185 86.9001 227.204 87.059 227.163 87.2076L215.999 127.52C215.796 128.254 215.359 128.901 214.755 129.362C214.151 129.824 213.413 130.074 212.655 130.075L212.66 130.074Z" fill="#5D7183"/>
<path d="M128.884 204.819C126.251 187.897 124.487 170.886 119.894 154.327C117.408 145.369 112.895 136.81 109.682 128.006C107.642 122.429 106.123 116.674 105.146 110.816C103.777 102.577 103.477 94.1938 102.327 85.92C101.059 76.7843 99.286 66.999 94.624 58.9301C90.3617 51.5574 82.7583 45.5289 74.2642 45.5973C66.9156 45.6568 60.1304 50.3206 56.0666 56.4653C52.0027 62.61 50.3372 70.051 49.7086 77.4034C48.8672 87.2425 49.826 96.9711 46.9033 106.549C41.342 124.782 25.3573 137.603 20.0132 155.879C15.4729 171.409 18.507 189.541 31.6327 199.999C39.7662 206.481 50.6182 209.213 60.6257 206.628C60.6257 206.628 60.73 206.86 62.0016 207.477C82.9536 217.426 106.519 220.422 129.281 216.031C129.978 212.39 129.462 208.526 128.884 204.819Z" fill="white"/>
<path d="M97.8502 184.428C97.7342 184.427 97.6209 184.392 97.525 184.327C97.4291 184.261 97.355 184.169 97.3123 184.061C97.2695 183.952 97.2601 183.834 97.2853 183.72C97.3104 183.607 97.369 183.503 97.4533 183.423C100.275 180.761 102.977 178.001 105.018 175.894C107.625 173.205 110.819 172.416 113.89 171.97C113.966 171.955 114.045 171.957 114.121 171.974C114.197 171.991 114.269 172.023 114.332 172.069C114.395 172.114 114.449 172.172 114.489 172.239C114.53 172.305 114.557 172.38 114.568 172.457C114.579 172.534 114.575 172.613 114.555 172.689C114.536 172.764 114.501 172.835 114.453 172.897C114.406 172.959 114.346 173.01 114.278 173.048C114.21 173.087 114.135 173.111 114.058 173.119C110.744 173.607 108.079 174.405 105.849 176.709C103.8 178.826 101.086 181.598 98.247 184.276C98.1385 184.375 97.9967 184.429 97.8502 184.428Z" fill="#5D7183"/>
<path d="M129.756 214.645C129.611 214.646 129.471 214.592 129.363 214.494C129.256 214.396 129.189 214.261 129.176 214.116C128.607 207.775 127.825 201.362 126.859 195.051C126.842 194.902 126.884 194.752 126.974 194.633C127.065 194.513 127.198 194.434 127.346 194.411C127.494 194.388 127.645 194.424 127.768 194.51C127.89 194.596 127.975 194.727 128.003 194.874C128.981 201.208 129.766 207.646 130.338 214.012C130.345 214.088 130.336 214.164 130.314 214.237C130.291 214.31 130.254 214.378 130.205 214.436C130.156 214.495 130.097 214.543 130.029 214.579C129.962 214.614 129.888 214.636 129.812 214.642L129.756 214.645Z" fill="#5D7183"/>
<path d="M37.3475 77.394C38.118 68.7423 41.0725 60.1676 46.5369 53.4256C51.2423 47.6224 57.6886 43.3395 64.6939 40.799C74.6117 37.2064 85.9633 37.1425 95.5031 41.6492C105.043 46.156 112.435 55.4777 113.638 65.9882C107.202 69.2029 100.44 71.7155 93.4697 73.483C91.4725 73.9902 89.4145 74.4364 87.3681 74.1603C84.1413 73.7243 81.3621 71.4876 79.5778 68.7539C77.7935 66.0202 76.8768 62.8156 76.1411 59.6328C74.3106 66.3037 74.0725 73.3137 75.4459 80.0942C62.7497 86.5682 51.228 95.1372 41.3622 105.443C38.0065 96.5794 36.4989 86.8929 37.3475 77.394Z" fill="#96E296"/>
<path d="M93.5876 100.571C92.6346 101.948 90.3941 104.691 88.4259 103.958C86.8676 103.377 86.5823 100.851 86.3853 99.4531C86.213 98.2294 86.155 98.0143 87.2543 97.4504C88.759 96.6758 92.9489 94.2865 94.891 93.3011C94.9852 93.2539 95.0898 93.2315 95.195 93.2359C95.3002 93.2403 95.4026 93.2714 95.4926 93.3262C95.5826 93.3811 95.6572 93.458 95.7095 93.5497C95.7619 93.6414 95.7902 93.7449 95.7918 93.8505C95.8367 96.2267 94.8983 98.6814 93.5876 100.571Z" fill="#5D7183"/>
<path d="M89.1892 130.298C89.0545 130.298 88.9241 130.251 88.8205 130.164C88.7168 130.078 88.6465 129.958 88.6214 129.825C88.5964 129.692 88.6183 129.555 88.6833 129.436C88.7483 129.318 88.8524 129.226 88.9777 129.176C94.8302 126.871 100.019 123.256 103.985 118.712C104.089 118.607 104.229 118.546 104.376 118.54C104.524 118.535 104.668 118.587 104.779 118.685C104.89 118.782 104.959 118.919 104.973 119.067C104.987 119.214 104.944 119.361 104.854 119.478C100.767 124.157 95.4225 127.881 89.3977 130.253C89.3316 130.281 89.2609 130.297 89.1892 130.298Z" fill="#5D7183"/>
<path d="M89.672 161.963C89.5351 161.963 89.4026 161.914 89.2982 161.825C89.1937 161.736 89.124 161.613 89.1014 161.478C88.2556 156.355 87.4562 151.27 86.6842 146.351C85.9442 141.641 85.1795 136.777 84.3742 131.876C81.3359 132.647 78.2185 133.06 75.085 133.106C63.7667 133.251 52.4919 128.462 44.9377 120.282C44.8859 120.226 44.8457 120.16 44.8193 120.088C44.7928 120.017 44.7807 119.94 44.7836 119.864C44.7865 119.788 44.8044 119.713 44.8361 119.643C44.8679 119.574 44.913 119.512 44.9688 119.46C45.0246 119.408 45.0901 119.367 45.1615 119.341C45.2328 119.314 45.3087 119.302 45.3848 119.305C45.4608 119.308 45.5355 119.326 45.6047 119.358C45.6739 119.39 45.7361 119.435 45.7878 119.491C53.1233 127.435 64.0752 132.09 75.0691 131.943C78.32 131.895 81.5523 131.441 84.6914 130.591C84.7697 130.57 84.8515 130.565 84.9317 130.578C85.0119 130.59 85.0886 130.619 85.1569 130.663C85.2251 130.707 85.2834 130.765 85.328 130.833C85.3725 130.901 85.4024 130.978 85.4155 131.058C86.2599 136.177 87.0579 141.258 87.8298 146.173C88.3715 149.62 88.9262 153.149 89.4997 156.715C90.0807 148.923 90.1625 141.101 89.7444 133.298C89.7403 133.221 89.7513 133.145 89.7766 133.073C89.8019 133.001 89.8412 132.934 89.8921 132.877C89.943 132.821 90.0046 132.774 90.0733 132.741C90.142 132.708 90.2165 132.689 90.2926 132.685C90.3687 132.681 90.4448 132.692 90.5167 132.717C90.5885 132.743 90.6547 132.782 90.7114 132.833C90.768 132.884 90.8141 132.946 90.847 133.015C90.8799 133.084 90.899 133.159 90.903 133.235C91.4067 142.64 91.1888 152.07 90.2513 161.441C90.2374 161.582 90.1731 161.712 90.0706 161.808C89.968 161.904 89.8341 161.96 89.6937 161.965L89.672 161.963Z" fill="#5D7183"/>
<path d="M137.692 168.455C137.55 168.455 137.413 168.403 137.306 168.309C136.421 167.516 135.516 166.732 134.643 165.974C131.927 163.619 129.121 161.178 126.62 158.246C126.52 158.129 126.47 157.977 126.482 157.823C126.494 157.67 126.566 157.527 126.683 157.427C126.8 157.326 126.952 157.277 127.105 157.289C127.258 157.301 127.4 157.373 127.5 157.491C129.943 160.362 132.594 162.66 135.4 165.093C136.278 165.855 137.186 166.642 138.077 167.442C138.165 167.52 138.228 167.623 138.256 167.738C138.284 167.853 138.277 167.974 138.235 168.084C138.193 168.195 138.119 168.29 138.022 168.357C137.925 168.424 137.809 168.459 137.692 168.459V168.455Z" fill="#5D7183"/>
<path d="M123.892 193.002H101.102C100.45 193.001 99.8077 192.842 99.2296 192.539C98.6515 192.236 98.1548 191.797 97.7817 191.26C97.4086 190.724 97.17 190.104 97.0863 189.455C97.0026 188.806 97.0761 188.146 97.3006 187.532L113.724 142.782C114.011 142.002 114.529 141.329 115.209 140.853C115.888 140.377 116.697 140.122 117.526 140.121H140.314C140.967 140.122 141.609 140.28 142.188 140.583C142.766 140.887 143.263 141.325 143.636 141.862C144.009 142.399 144.248 143.018 144.332 143.668C144.416 144.317 144.342 144.977 144.118 145.591L127.694 190.341C127.407 191.121 126.889 191.795 126.21 192.27C125.53 192.746 124.721 193.001 123.892 193.002Z" fill="white"/>
<path d="M123.896 193.584H101.106C100.361 193.583 99.6267 193.401 98.9663 193.055C98.3059 192.708 97.7385 192.207 97.3121 191.594C96.8858 190.981 96.6131 190.273 96.5171 189.532C96.4211 188.79 96.5048 188.037 96.7609 187.334L113.183 142.583C113.513 141.693 114.105 140.925 114.882 140.381C115.658 139.838 116.581 139.546 117.528 139.543H140.318C141.063 139.544 141.797 139.726 142.457 140.072C143.118 140.418 143.685 140.919 144.111 141.533C144.538 142.146 144.811 142.853 144.907 143.595C145.002 144.336 144.919 145.09 144.663 145.792L128.239 190.543C127.91 191.434 127.317 192.202 126.541 192.745C125.765 193.288 124.842 193.581 123.896 193.584ZM117.523 140.703C116.813 140.704 116.121 140.924 115.539 141.331C114.956 141.739 114.512 142.315 114.265 142.983L97.8486 187.733C97.6562 188.259 97.5933 188.825 97.665 189.381C97.7368 189.937 97.9411 190.468 98.2608 190.928C98.5804 191.388 99.0059 191.764 99.5012 192.024C99.9964 192.284 100.547 192.42 101.106 192.421H123.896C124.606 192.419 125.298 192.2 125.881 191.793C126.463 191.385 126.907 190.809 127.154 190.141L143.576 145.391C143.769 144.865 143.832 144.299 143.76 143.743C143.688 143.187 143.484 142.656 143.164 142.196C142.845 141.736 142.419 141.36 141.924 141.1C141.429 140.84 140.878 140.704 140.319 140.703H117.523Z" fill="#5D7183"/>
<path d="M150.064 143.651C149.919 143.651 149.779 143.597 149.672 143.499C149.564 143.401 149.498 143.267 149.485 143.122C149.34 141.524 148.679 140.018 147.603 138.831C146.527 137.645 145.095 136.843 143.523 136.548C143.447 136.536 143.373 136.509 143.307 136.468C143.241 136.427 143.184 136.373 143.14 136.31C143.095 136.246 143.063 136.174 143.047 136.098C143.03 136.022 143.029 135.944 143.043 135.867C143.057 135.791 143.087 135.718 143.13 135.653C143.172 135.588 143.228 135.532 143.292 135.489C143.357 135.446 143.43 135.417 143.506 135.402C143.582 135.388 143.661 135.389 143.736 135.406C145.556 135.747 147.215 136.674 148.461 138.048C149.707 139.422 150.471 141.167 150.637 143.017C150.651 143.171 150.604 143.323 150.505 143.441C150.407 143.56 150.266 143.634 150.113 143.648C150.097 143.65 150.08 143.651 150.064 143.651Z" fill="#5D7183"/>
<path d="M156.029 142.813C155.884 142.814 155.745 142.76 155.637 142.662C155.53 142.565 155.463 142.43 155.45 142.286C155.186 139.37 153.981 136.62 152.017 134.454C150.052 132.288 147.437 130.826 144.569 130.288C144.418 130.26 144.284 130.173 144.197 130.045C144.11 129.918 144.077 129.761 144.106 129.61C144.134 129.458 144.221 129.324 144.348 129.237C144.475 129.149 144.631 129.116 144.782 129.145C147.898 129.728 150.74 131.317 152.873 133.67C155.007 136.023 156.317 139.011 156.603 142.18C156.61 142.256 156.602 142.332 156.579 142.405C156.557 142.478 156.52 142.546 156.471 142.605C156.422 142.663 156.363 142.712 156.295 142.747C156.228 142.783 156.154 142.805 156.078 142.812L156.029 142.813Z" fill="#5D7183"/>
<path d="M52.4747 208.134C44.7858 208.134 37.6907 205.57 31.2705 200.456C24.9763 195.439 20.6054 188.358 18.6328 179.975C16.8297 172.315 17.1223 163.698 19.4554 155.716C22.1767 146.415 27.699 138.404 33.0388 130.665C38.2396 123.125 43.6112 115.33 46.3485 106.379C48.3225 99.9055 48.502 93.4862 48.6903 86.6875C48.7743 83.6355 48.8627 80.4817 49.1248 77.3542C49.8808 68.5063 51.9924 61.5681 55.5798 56.1442C60.081 49.3368 67.2369 45.0728 74.2625 45.0161C78.3742 44.987 82.5553 46.359 86.3629 48.9953C89.8387 51.4035 92.8801 54.7389 95.1278 58.6382C97.28 62.363 98.9773 66.694 100.313 71.8795C101.56 76.722 102.323 81.6546 102.905 85.8402C103.415 89.5171 103.764 93.2696 104.101 96.8986C104.523 101.446 104.96 106.149 105.719 110.72C106.691 116.543 108.2 122.262 110.226 127.805C111.545 131.415 113.075 134.944 114.808 138.374C114.843 138.442 114.864 138.516 114.869 138.592C114.875 138.669 114.866 138.745 114.842 138.818C114.819 138.89 114.781 138.958 114.731 139.016C114.682 139.074 114.621 139.121 114.554 139.156C114.486 139.19 114.412 139.211 114.336 139.217C114.26 139.223 114.184 139.213 114.111 139.19C114.039 139.166 113.972 139.128 113.914 139.078C113.856 139.029 113.809 138.968 113.774 138.9C112.022 135.43 110.474 131.859 109.14 128.206C107.089 122.595 105.562 116.806 104.578 110.912C103.812 106.299 103.373 101.575 102.949 97.0061C102.613 93.3902 102.265 89.6508 101.758 86.0015C100.557 77.3542 98.8774 67.441 94.1271 59.2209C91.9546 55.4699 89.0465 52.2638 85.7068 49.9516C82.1382 47.4809 78.2351 46.1729 74.4102 46.1729H74.2741C67.6352 46.2267 60.8457 50.2917 56.553 56.7823C53.0771 62.0404 51.0278 68.7999 50.2878 77.4486C50.0227 80.5442 49.9358 83.682 49.8533 86.7165C49.6693 93.2914 49.4811 100.087 47.4607 106.714C44.6771 115.838 39.2476 123.71 33.9918 131.322C28.7041 138.987 23.2369 146.912 20.5677 156.039C18.2896 163.832 18.0028 172.236 19.761 179.704C21.6727 187.829 25.9017 194.689 31.9903 199.54C37.2518 203.733 43.0305 206.178 49.1668 206.807C54.608 207.363 60.4633 206.507 66.5562 204.262C76.138 200.735 86.5323 193.722 97.4538 183.421C100.275 180.759 102.979 177.999 105.018 175.892C107.625 173.203 110.82 172.414 113.89 171.968C113.967 171.953 114.045 171.955 114.121 171.972C114.197 171.989 114.269 172.021 114.333 172.067C114.396 172.112 114.449 172.17 114.49 172.237C114.53 172.303 114.557 172.378 114.568 172.455C114.58 172.532 114.575 172.611 114.556 172.687C114.536 172.762 114.501 172.833 114.454 172.895C114.406 172.957 114.346 173.008 114.278 173.046C114.211 173.085 114.136 173.109 114.058 173.117C110.745 173.605 108.08 174.403 105.849 176.707C103.802 178.823 101.086 181.596 98.2474 184.274C87.2115 194.683 76.684 201.778 66.956 205.359C61.9266 207.211 57.0995 208.136 52.4747 208.134Z" fill="#5D7183"/>
<path d="M134.77 185.374C132.65 185.37 130.58 184.732 128.823 183.542C126.099 181.687 124.145 178.471 123.595 174.941C123.571 174.788 123.609 174.633 123.699 174.508C123.79 174.383 123.926 174.3 124.078 174.276C124.23 174.252 124.385 174.29 124.509 174.38C124.633 174.471 124.717 174.608 124.74 174.761C125.242 177.98 127.01 180.902 129.473 182.579C132.117 184.379 135.572 184.725 138.278 183.451C141.118 182.125 142.942 179.013 142.622 176.055C142.343 173.518 140.638 171.414 139.258 170.097C138.666 169.531 138.03 168.944 137.313 168.302C137.256 168.251 137.209 168.19 137.176 168.121C137.143 168.052 137.123 167.977 137.119 167.901C137.114 167.824 137.124 167.748 137.149 167.676C137.174 167.603 137.213 167.537 137.264 167.479C137.314 167.422 137.376 167.375 137.444 167.342C137.513 167.308 137.587 167.289 137.663 167.284C137.739 167.28 137.816 167.29 137.888 167.315C137.96 167.34 138.026 167.379 138.083 167.43C138.808 168.081 139.455 168.675 140.056 169.249C142.237 171.332 143.522 173.641 143.774 175.925C144.152 179.363 142.049 182.97 138.773 184.499C137.518 185.081 136.152 185.38 134.77 185.374Z" fill="#5D7183"/>
<path d="M81.3388 144.44C81.1524 144.439 80.9669 144.414 80.787 144.366C80.3297 144.231 79.9393 143.929 79.6924 143.519C79.4455 143.11 79.3598 142.623 79.4523 142.154C79.5448 141.684 79.8087 141.267 80.1923 140.982C80.5759 140.698 81.0514 140.568 81.5256 140.618C81.6035 140.624 81.6792 140.646 81.7483 140.683C81.8174 140.72 81.8784 140.77 81.9276 140.831C81.9768 140.892 82.0132 140.962 82.0346 141.038C82.0561 141.113 82.0621 141.192 82.0523 141.27C82.0425 141.348 82.0172 141.423 81.9778 141.49C81.9383 141.558 81.8857 141.617 81.8229 141.664C81.7602 141.711 81.6887 141.744 81.6127 141.762C81.5367 141.781 81.4578 141.783 81.3808 141.77C81.2583 141.762 81.1358 141.784 81.0239 141.835C80.9119 141.885 80.8139 141.962 80.7383 142.059C80.6626 142.156 80.6117 142.27 80.5899 142.391C80.568 142.512 80.576 142.637 80.613 142.754C80.65 142.872 80.7149 142.978 80.8022 143.065C80.8895 143.151 80.9965 143.215 81.114 143.251C81.2314 143.286 81.3557 143.293 81.4762 143.269C81.5966 143.246 81.7095 143.193 81.8051 143.116C81.9189 143.016 82.0671 142.965 82.218 142.973C82.3689 142.982 82.5106 143.049 82.6129 143.161C82.7151 143.272 82.7698 143.42 82.7653 143.571C82.7607 143.723 82.6974 143.867 82.5886 143.972C82.2462 144.281 81.7994 144.449 81.3388 144.44Z" fill="#5D7183"/>
<path d="M83.1486 154.873C83.0023 154.873 82.8566 154.856 82.7141 154.824C82.3061 154.723 81.9456 154.484 81.6942 154.146C81.4428 153.809 81.3162 153.394 81.336 152.973C81.3559 152.552 81.521 152.151 81.803 151.839C82.0851 151.527 82.4665 151.322 82.8821 151.261C82.9576 151.252 83.0342 151.257 83.1076 151.278C83.181 151.298 83.2497 151.332 83.3099 151.379C83.37 151.426 83.4203 151.484 83.458 151.55C83.4957 151.617 83.52 151.69 83.5295 151.766C83.539 151.841 83.5335 151.918 83.5134 151.992C83.4933 152.066 83.4589 152.135 83.4123 152.195C83.3656 152.255 83.3075 152.306 83.2414 152.344C83.1753 152.381 83.1024 152.406 83.0269 152.415C82.9292 152.433 82.8366 152.472 82.7563 152.53C82.676 152.589 82.6099 152.665 82.5632 152.753C82.5166 152.84 82.4904 152.938 82.4869 153.037C82.4833 153.137 82.5023 153.236 82.5426 153.327C82.5828 153.418 82.6432 153.498 82.7191 153.563C82.795 153.627 82.8845 153.673 82.9808 153.697C83.077 153.721 83.1775 153.723 83.2746 153.702C83.3716 153.682 83.4628 153.639 83.541 153.578C83.6579 153.48 83.8086 153.432 83.9604 153.445C84.1122 153.457 84.2529 153.529 84.3522 153.645C84.4514 153.761 84.5011 153.912 84.4905 154.064C84.4799 154.217 84.4099 154.359 84.2956 154.46C83.9748 154.731 83.5678 154.877 83.1486 154.873Z" fill="#5D7183"/>
</svg>
