<svg width="45" height="45" viewBox="0 0 45 45" fill="none" xmlns="http://www.w3.org/2000/svg">
<circle cx="22.5" cy="22.5" r="22.5" fill="#FA758E"/>
<path d="M22.272 32.9449L22.4431 33L22.6142 32.9449C22.9565 32.8347 31 30.3003 31 24.7355V15.259H30.4866C24.8961 15.259 22.8424 13.3306 22.8424 13.3306L22.5002 13L22.1579 13.3306C22.1579 13.3306 20.1042 15.259 14.5137 15.259H14.0003V24.7355C13.9433 30.3003 21.9297 32.8347 22.272 32.9449ZM14.913 16.1956C19.3626 16.0854 21.6445 14.8182 22.4431 14.2672C23.2417 14.8733 25.5236 16.1405 29.9732 16.1956V24.7355C29.9732 29.2534 23.527 31.6226 22.4431 32.0083C21.3592 31.6226 14.913 29.2534 14.913 24.7355V16.1956Z" fill="white"/>
<path d="M26.0395 21.209H25.1838V20.3825C25.1838 18.95 23.9859 17.793 22.5027 17.793C21.0195 17.793 19.8215 18.95 19.8215 20.3825V21.1539H18.9658V27.1043H26.1536V21.209H26.0395ZM20.7342 20.3825C20.7342 19.501 21.4758 18.7296 22.4456 18.7296C23.3584 18.7296 24.157 19.4459 24.157 20.3825V21.1539H20.7342V20.3825ZM25.0127 26.2227H19.8215V22.2007H25.0127V26.2227Z" fill="white"/>
<path d="M21.9308 24.7353V25.2862H22.9576V24.7353C23.3569 24.57 23.6422 24.1843 23.6422 23.7435C23.6422 23.1375 23.1287 22.6416 22.5012 22.6416C21.8737 22.6416 21.3603 23.1375 21.3603 23.7435C21.2462 24.1843 21.5314 24.57 21.9308 24.7353ZM22.4442 23.5782C22.5583 23.5782 22.6153 23.6333 22.6153 23.7435C22.6153 23.8537 22.5583 23.9088 22.4442 23.9088C22.3301 23.9088 22.2731 23.8537 22.2731 23.7435C22.2731 23.6333 22.3301 23.5782 22.4442 23.5782Z" fill="white"/>
</svg>
