<svg width="20" height="20" viewBox="0 0 20 20" fill="none" xmlns="http://www.w3.org/2000/svg">
<circle cx="10" cy="10" r="10" fill="#D1D9E2"/>
<g clip-path="url(#clip0_360_4108)">
<path d="M12.3597 14.666C11.7053 14.644 11.2118 14.4797 10.7329 14.2532C9.95794 13.8879 9.27069 13.3838 8.63096 12.8212C7.76093 12.0541 6.98961 11.2029 6.34257 10.2386C5.9697 9.67965 5.64801 9.09518 5.45792 8.4486C5.33363 8.02121 5.28245 7.5865 5.40309 7.14449C5.47254 6.88879 5.6078 6.67326 5.79423 6.48696C6.17076 6.11436 6.54363 5.7381 6.9165 5.36185C6.96036 5.31801 6.97864 5.32532 7.01885 5.3655C7.79018 6.13993 8.56516 6.9107 9.34014 7.68148C9.38767 7.72897 9.38035 7.75089 9.33649 7.79107C8.9161 8.21116 8.4957 8.63125 8.07531 9.04769C8.0351 9.08787 8.02414 9.11344 8.06435 9.16459C8.85761 10.213 9.74591 11.1701 10.8426 11.9116C10.8974 11.9481 10.923 11.9481 10.9705 11.9007C11.38 11.4842 11.7967 11.0714 12.2061 10.655C12.2573 10.6039 12.2829 10.6039 12.3304 10.655C13.0944 11.4221 13.8621 12.1892 14.6298 12.9527C14.6773 13.0002 14.6846 13.0258 14.6334 13.0769C14.2752 13.4276 13.9169 13.7819 13.566 14.1436C13.1968 14.5235 12.7508 14.6733 12.3597 14.666Z" fill="#384250"/>
</g>
<defs>
<clipPath id="clip0_360_4108">
<rect width="9.33269" height="9.33333" fill="white" transform="translate(5.3335 5.33301)"/>
</clipPath>
</defs>
</svg>
