<svg width="20" height="20" viewBox="0 0 20 20" fill="none" xmlns="http://www.w3.org/2000/svg">
<circle opacity="0.5" cx="10" cy="10" r="10" fill="#384250"/>
<path fill-rule="evenodd" clip-rule="evenodd" d="M7.22698 6.1719L7.34832 5.56526C7.4138 5.23773 7.70378 5 8.03779 5H11.9615C12.2955 5 12.5855 5.23773 12.6509 5.56526L12.7723 6.1719H7.22698ZM9.99987 12.8752C8.95136 12.8752 8.10138 12.0252 8.10138 10.9767C8.10138 9.92822 8.95136 9.07824 9.99987 9.07824C11.0484 9.07824 11.8983 9.92822 11.8983 10.9767C11.8983 12.0252 11.0484 12.8752 9.99987 12.8752ZM14.9453 6.87509H5.05443C4.47286 6.87509 3.99971 7.34823 3.99971 7.9298V14.0237C3.99971 14.6053 4.47286 15.0784 5.05443 15.0784H14.9453C15.5269 15.0784 16 14.6053 16 14.0237V7.9298C16 7.34823 15.5269 6.87509 14.9453 6.87509ZM14.125 9.07826H12.9999C12.8058 9.07826 12.6484 8.92085 12.6484 8.72669C12.6484 8.53253 12.8058 8.37512 12.9999 8.37512H14.125C14.3191 8.37512 14.4765 8.53253 14.4765 8.72669C14.4765 8.92085 14.3191 9.07826 14.125 9.07826ZM12.6015 10.9767C12.6015 12.4113 11.4344 13.5784 9.99986 13.5784C8.56531 13.5784 7.39823 12.4113 7.39823 10.9767C7.39823 9.5422 8.56531 8.37512 9.99986 8.37512C11.4344 8.37512 12.6015 9.5422 12.6015 10.9767Z" fill="white"/>
</svg>
