<svg width="20" height="20" viewBox="0 0 20 20" fill="none" xmlns="http://www.w3.org/2000/svg">
<g clip-path="url(#clip0_360_5832)">
<path d="M8.28621 18.686C6.2287 18.6716 4.44368 18.2828 2.69521 17.7221C1.83514 17.4442 0.993508 17.1187 0.174777 16.7475C0.0696253 16.7001 -0.00603282 16.6606 0.000378879 16.5222C0.0946308 14.4141 0.653732 12.4445 2.05725 10.7515C3.67428 8.80161 5.81258 7.7964 8.46895 7.9204C11.1074 8.04381 13.0854 9.27306 14.5216 11.3081C14.6838 11.5381 14.8088 11.7915 14.9704 12.0233C15.0756 12.1755 15.0281 12.2629 14.9018 12.3786C13.3168 13.8506 11.7353 15.3255 10.1571 16.8032C10.0224 16.9196 9.93005 17.0725 9.89298 17.2405C9.80706 17.6431 9.6923 18.0396 9.60317 18.4386C9.57304 18.5746 9.50572 18.6219 9.3653 18.6273C8.93764 18.6465 8.51511 18.695 8.28621 18.686Z" fill="#384250"/>
<path d="M8.07651 7.18424C7.31564 7.18424 6.57186 6.97344 5.93922 6.57849C5.30658 6.18354 4.8135 5.62218 4.52233 4.96541C4.23116 4.30863 4.15498 3.58594 4.30341 2.88871C4.45185 2.19148 4.81824 1.55103 5.35626 1.04836C5.89427 0.545683 6.57974 0.203359 7.32599 0.064671C8.07224 -0.0740165 8.84575 -0.00283751 9.54869 0.269208C10.2516 0.541253 10.8525 1.00194 11.2752 1.59303C11.6979 2.18411 11.9235 2.87903 11.9235 3.58992C11.9235 4.5432 11.5182 5.45743 10.7968 6.13149C10.0753 6.80556 9.0968 7.18424 8.07651 7.18424Z" fill="#384250"/>
<path d="M16.8015 11.6118C16.8694 11.6118 16.8944 11.6543 16.9297 11.6849C17.5875 12.2977 18.2409 12.9154 18.9045 13.5228C19.0481 13.6546 18.916 13.6983 18.8487 13.7624C17.3326 15.1822 15.8151 16.5999 14.2964 18.0157C13.9117 18.3751 13.5225 18.7346 13.1423 19.097C13.0468 19.1887 12.9948 19.1887 12.898 19.097C12.2568 18.49 11.6112 17.8869 10.961 17.2879C10.8642 17.1986 10.8649 17.1519 10.961 17.062C12.8781 15.2764 14.7933 13.4887 16.7066 11.6987C16.738 11.6675 16.7732 11.6376 16.8015 11.6118Z" fill="#384250"/>
<path d="M20.002 12.0522C20.0043 12.3944 19.8837 12.7275 19.6596 12.9981C19.5917 13.0802 19.5449 13.115 19.4448 13.0203C18.7925 12.4045 18.1362 11.7916 17.4758 11.1818C17.3553 11.071 17.4239 11.0249 17.5143 10.9631C18.015 10.6205 18.5562 10.5522 19.1172 10.8008C19.6968 11.0584 19.9744 11.5137 20.002 12.0522Z" fill="#384250"/>
<path d="M12.1902 19.5283L10 19.9998C10.1763 19.2887 10.3437 18.6106 10.5059 17.9546L12.1902 19.5283Z" fill="#384250"/>
</g>
<defs>
<clipPath id="clip0_360_5832">
<rect width="20" height="20" fill="white"/>
</clipPath>
</defs>
</svg>
