<svg width="20" height="20" viewBox="0 0 20 20" fill="none" xmlns="http://www.w3.org/2000/svg">
<circle cx="10" cy="10" r="10" fill="#1C9CFC"/>
<path fill-rule="evenodd" clip-rule="evenodd" d="M15 14H5V6.58754H7.79091L8.01091 6H12.0455L12.2327 6.58754H15V14ZM9.99967 9.16666C10.643 9.16666 11.1663 9.68999 11.1663 10.3333C11.1663 10.9767 10.643 11.5 9.99967 11.5C9.35634 11.5 8.83301 10.9767 8.83301 10.3333C8.83301 9.68999 9.35634 9.16666 9.99967 9.16666ZM9.99967 8.66666C9.07967 8.66666 8.33301 9.41333 8.33301 10.3333C8.33301 11.2533 9.07967 12 9.99967 12C10.9197 12 11.6663 11.2533 11.6663 10.3333C11.6663 9.41333 10.9197 8.66666 9.99967 8.66666ZM12.6663 8.66667C12.8504 8.66667 12.9997 8.51743 12.9997 8.33334C12.9997 8.14924 12.8504 8 12.6663 8C12.4822 8 12.333 8.14924 12.333 8.33334C12.333 8.51743 12.4822 8.66667 12.6663 8.66667Z" fill="white"/>
</svg>
