<svg width="50" height="20" viewBox="0 0 50 20" fill="none" xmlns="http://www.w3.org/2000/svg">
<path d="M0 20V0H6.45167C8.58303 0 10.436 0.428572 12.0105 1.28571C13.585 2.14286 14.8043 3.32381 15.6683 4.82857C16.5324 6.33333 16.9644 8.05714 16.9644 10C16.9644 11.9429 16.5324 13.6667 15.6683 15.1714C14.8043 16.6762 13.585 17.8571 12.0105 18.7143C10.436 19.5714 8.58303 20 6.45167 20H0ZM2.765 17.5714H6.48047C7.95898 17.5714 9.28388 17.2667 10.4552 16.6571C11.6264 16.0476 12.5481 15.181 13.2202 14.0571C13.8922 12.9143 14.2282 11.5619 14.2282 10C14.2282 8.41905 13.8922 7.06667 13.2202 5.94286C12.5481 4.81905 11.6264 3.95238 10.4552 3.34286C9.28388 2.73333 7.95898 2.42857 6.48047 2.42857H2.765V17.5714Z" fill="#FFB74F"/>
<path d="M20.2776 20V17.5714H29.0046C29.6575 17.5714 30.2239 17.419 30.7039 17.1143C31.2032 16.7905 31.5872 16.381 31.856 15.8857C32.1248 15.3905 32.2593 14.8667 32.2593 14.3143C32.2593 13.4571 31.9712 12.7143 31.3952 12.0857C30.8192 11.4381 30.0415 11.1143 29.0622 11.1143H25.2603C24.1083 11.1143 23.1002 10.8857 22.2361 10.4286C21.3721 9.95238 20.7 9.30476 20.22 8.48571C19.7399 7.64762 19.4999 6.70476 19.4999 5.65714C19.4999 4.59048 19.7303 3.6381 20.1912 2.8C20.6712 1.94286 21.3337 1.26667 22.1785 0.771429C23.0426 0.257143 24.0315 0 25.1451 0H33.6994V2.42857H25.4044C24.7707 2.42857 24.2139 2.58095 23.7338 2.88571C23.273 3.17143 22.9082 3.55238 22.6394 4.02857C22.3897 4.48571 22.2649 4.98095 22.2649 5.51429C22.2649 6.31429 22.5337 7.01905 23.0714 7.62857C23.609 8.2381 24.3579 8.54286 25.3179 8.54286H29.2062C30.4159 8.54286 31.4528 8.78095 32.3169 9.25714C33.1809 9.73333 33.8434 10.381 34.3042 11.2C34.765 12.019 34.9955 12.9524 34.9955 14C34.9955 15.1619 34.7554 16.2 34.2754 17.1143C33.7954 18.0095 33.1233 18.7143 32.2593 19.2286C31.4144 19.7429 30.4351 20 29.3214 20H20.2776Z" fill="#FFB74F"/>
<path d="M47.4078 20C45.8717 19.981 44.47 19.7143 43.2027 19.2C41.9354 18.6667 40.8409 17.9429 39.9193 17.0286C39.0168 16.1143 38.3159 15.0571 37.8167 13.8571C37.3367 12.6571 37.0967 11.3714 37.0967 10C37.0967 8.62857 37.3367 7.34286 37.8167 6.14286C38.3159 4.94286 39.0168 3.88571 39.9193 2.97143C40.8409 2.05714 41.9354 1.34286 43.2027 0.828573C44.47 0.295238 45.8717 0.0190474 47.4078 0H50V2.42857H47.4942C46.0541 2.42857 44.758 2.76191 43.6059 3.42857C42.4538 4.09524 41.5418 5 40.8697 6.14286C40.2169 7.28571 39.8905 8.57143 39.8905 10C39.8905 11.4286 40.2169 12.7143 40.8697 13.8571C41.5418 15 42.4538 15.9048 43.6059 16.5714C44.758 17.219 46.0541 17.5524 47.4942 17.5714H50V20H47.4078Z" fill="#FFB74F"/>
</svg>
