<svg width="20" height="20" viewBox="0 0 20 20" fill="none" xmlns="http://www.w3.org/2000/svg">
<path d="M18.1602 0.909816C18.1541 0.909571 18.1309 0.90918 18.1251 0.90918H13.2171C13.07 0.90918 12.9507 1.02843 12.9507 1.17552C12.9507 1.32261 13.07 1.44185 13.2171 1.44185H17.2619C17.1962 1.57222 17.1592 1.71941 17.1592 1.87509V9.74082C17.1592 9.88791 17.2785 10.0072 17.4255 10.0072C17.5726 10.0072 17.6918 9.88791 17.6918 9.74082V1.87509C17.69 1.64093 17.8923 1.43858 18.1332 1.44143C18.3576 1.4443 18.5582 1.64981 18.5584 1.89178V17.4788C18.5584 18.0741 18.0502 18.5584 17.4256 18.5584C16.8013 18.5584 16.2931 18.0741 16.2931 17.4788V15.4678H16.7082C17.2505 15.4678 17.6918 15.0265 17.6918 14.4841V9.16554C17.6918 9.01848 17.5726 8.89923 17.4255 8.89923C17.2785 8.89923 17.1592 9.01848 17.1592 9.16554V14.4841C17.1592 14.7328 16.9569 14.9351 16.7082 14.9351H16.2931V4.11693C16.2931 3.57453 15.8516 3.13325 15.309 3.13325H2.91273V1.87509C2.91273 1.63621 3.10691 1.44185 3.34562 1.44185H13.7924C13.9395 1.44185 14.0587 1.32261 14.0587 1.17552C14.0587 1.02843 13.9395 0.90918 13.7924 0.90918H3.34562C2.81319 0.90918 2.38006 1.34249 2.38006 1.87509V3.13325H1.89284C1.35044 3.13325 0.90918 3.57453 0.90918 4.11693V11.9699C0.90918 12.117 1.02843 12.2363 1.17552 12.2363C1.32261 12.2363 1.44185 12.117 1.44185 11.9699V4.11693C1.44185 3.86823 1.64416 3.66593 1.89284 3.66593H15.309C15.5579 3.66593 15.7604 3.86823 15.7604 4.11693V17.4788C15.7604 17.8936 15.923 18.2724 16.1898 18.5584H2.57466C1.95002 18.5584 1.44185 18.0741 1.44185 17.4788V11.3946C1.44185 11.2475 1.32261 11.1283 1.17552 11.1283C1.02843 11.1283 0.90918 11.2475 0.90918 11.3946V17.4788C0.90918 18.3678 1.65631 19.091 2.57466 19.091H17.4255C18.3437 19.091 19.091 18.3677 19.091 17.4788V1.89178C19.091 1.35972 18.6821 0.928352 18.1602 0.909816Z" fill="#384250"/>
<path d="M8.48381 9.37457H3.78293V9.10877C3.78293 6.67405 5.76975 4.69118 8.21312 4.69118H8.48381V9.37457ZM4.33332 8.84297H7.94244V5.23341C6.01156 5.36631 4.46506 6.91327 4.33332 8.84297Z" fill="#384250"/>
<path fill-rule="evenodd" clip-rule="evenodd" d="M8.21226 4.83681C5.84896 4.83681 3.9277 6.75483 3.9277 9.10876V9.22893H8.33732V4.83681H8.21226ZM3.63645 9.10876C3.63645 6.59326 5.68882 4.54555 8.21226 4.54555H8.62857V9.52019H3.63645V9.10876ZM8.0872 5.07741V8.98859H4.17656L4.18717 8.83305C4.32387 6.83071 5.92818 5.22601 7.93158 5.08812L8.0872 5.07741ZM4.49163 8.69733H7.79595V5.39266C6.06229 5.58479 4.68274 6.96479 4.49163 8.69733Z" fill="#384250"/>
<path d="M8.88415 14.3998C6.48228 14.3998 4.5099 12.6313 4.29696 10.2852L4.29516 10.232H4.83653V10.2498C5.03142 12.3141 6.76921 13.8682 8.88415 13.8682C11.1254 13.8682 12.9498 12.0767 12.9498 9.87587C12.9498 7.88416 11.4412 6.18659 9.43634 5.92079H9.40205V5.38919L9.48867 5.39096C11.7696 5.68511 13.4912 7.61304 13.4912 9.87587C13.4912 12.3691 11.425 14.3998 8.88415 14.3998Z" fill="#384250"/>
<path fill-rule="evenodd" clip-rule="evenodd" d="M9.25619 5.24075L9.49927 5.24572L9.50706 5.24673C11.8587 5.55 13.6366 7.53809 13.6366 9.87607C13.6366 12.4522 11.5027 14.5456 8.88391 14.5456C6.40911 14.5456 4.37165 12.7221 4.15169 10.2986L4.15095 10.2904L4.14427 10.0866H4.98191V10.243C5.17268 12.227 6.84408 13.7227 8.88391 13.7227C11.0473 13.7227 12.804 11.994 12.804 9.87607C12.804 7.96228 11.3559 6.32712 9.42641 6.06662H9.25619V5.24075ZM9.54744 5.78987C11.5769 6.1041 13.0952 7.84026 13.0952 9.87607C13.0952 12.1598 11.2031 14.014 8.88391 14.014C6.73525 14.014 4.95799 12.4621 4.70366 10.3779H4.45261C4.7072 12.5939 6.59126 14.2543 8.88391 14.2543C11.3468 14.2543 13.3453 12.2864 13.3453 9.87607C13.3453 7.71407 11.7189 5.86454 9.54744 5.54629V5.78987Z" fill="#384250"/>
<path d="M3.63645 15.9092C3.63645 15.6581 3.83995 15.4546 4.09099 15.4546H13.1819C13.4329 15.4546 13.6364 15.6581 13.6364 15.9092C13.6364 16.1602 13.4329 16.3637 13.1819 16.3637H4.09099C3.83995 16.3637 3.63645 16.1602 3.63645 15.9092Z" fill="#384250"/>
</svg>
