<svg width="20" height="20" viewBox="0 0 20 20" fill="none" xmlns="http://www.w3.org/2000/svg">
<path d="M18.1602 0.909755C18.1541 0.90951 18.1309 0.909119 18.1251 0.909119H13.2171C13.07 0.909119 12.9507 1.02836 12.9507 1.17545C12.9507 1.32255 13.07 1.44179 13.2171 1.44179H17.2619C17.1962 1.57215 17.1592 1.71935 17.1592 1.87503V9.74075C17.1592 9.88785 17.2785 10.0071 17.4255 10.0071C17.5726 10.0071 17.6918 9.88785 17.6918 9.74075V1.87503C17.69 1.64086 17.8923 1.43852 18.1332 1.44136C18.3576 1.44424 18.5582 1.64975 18.5584 1.89172V17.4788C18.5584 18.074 18.0502 18.5583 17.4256 18.5583C16.8013 18.5583 16.2931 18.074 16.2931 17.4788V15.4678H16.7082C17.2505 15.4678 17.6918 15.0265 17.6918 14.484V9.16548C17.6918 9.01842 17.5726 8.89917 17.4255 8.89917C17.2785 8.89917 17.1592 9.01842 17.1592 9.16548V14.484C17.1592 14.7328 16.9569 14.935 16.7082 14.935H16.2931V4.11686C16.2931 3.57446 15.8516 3.13319 15.309 3.13319H2.91273V1.87503C2.91273 1.63615 3.10691 1.44179 3.34562 1.44179H13.7924C13.9395 1.44179 14.0587 1.32255 14.0587 1.17545C14.0587 1.02836 13.9395 0.909119 13.7924 0.909119H3.34562C2.81319 0.909119 2.38006 1.34243 2.38006 1.87503V3.13319H1.89284C1.35044 3.13319 0.90918 3.57446 0.90918 4.11686V11.9698C0.90918 12.1169 1.02843 12.2362 1.17552 12.2362C1.32261 12.2362 1.44185 12.1169 1.44185 11.9698V4.11686C1.44185 3.86817 1.64416 3.66586 1.89284 3.66586H15.309C15.5579 3.66586 15.7604 3.86817 15.7604 4.11686V17.4788C15.7604 17.8936 15.923 18.2723 16.1898 18.5583H2.57466C1.95002 18.5583 1.44185 18.074 1.44185 17.4788V11.3946C1.44185 11.2475 1.32261 11.1282 1.17552 11.1282C1.02843 11.1282 0.90918 11.2475 0.90918 11.3946V17.4788C0.90918 18.3678 1.65631 19.0909 2.57466 19.0909H17.4255C18.3437 19.0909 19.091 18.3677 19.091 17.4788V1.89172C19.091 1.35965 18.6821 0.928291 18.1602 0.909755Z" fill="#384250"/>
<path d="M8.48381 9.3745H3.78293V9.10871C3.78293 6.67399 5.76975 4.69112 8.21312 4.69112H8.48381V9.3745ZM4.33332 8.84291H7.94244V5.23335C6.01156 5.36625 4.46506 6.91321 4.33332 8.84291Z" fill="#384250"/>
<path fill-rule="evenodd" clip-rule="evenodd" d="M8.21226 4.83675C5.84896 4.83675 3.9277 6.75477 3.9277 9.1087V9.22887H8.33732V4.83675H8.21226ZM3.63645 9.1087C3.63645 6.5932 5.68882 4.54549 8.21226 4.54549H8.62857V9.52013H3.63645V9.1087ZM8.0872 5.07735V8.98853H4.17656L4.18717 8.83298C4.32387 6.83065 5.92818 5.22595 7.93158 5.08806L8.0872 5.07735ZM4.49163 8.69727H7.79595V5.3926C6.06229 5.58473 4.68274 6.96473 4.49163 8.69727Z" fill="#384250"/>
<path d="M8.88415 14.3997C6.48228 14.3997 4.5099 12.6313 4.29696 10.2851L4.29516 10.232H4.83653V10.2497C5.03142 12.3141 6.76921 13.8681 8.88415 13.8681C11.1254 13.8681 12.9498 12.0766 12.9498 9.87581C12.9498 7.88409 11.4412 6.18652 9.43634 5.92073H9.40205V5.38913L9.48867 5.3909C11.7696 5.68505 13.4912 7.61298 13.4912 9.87581C13.4912 12.369 11.425 14.3997 8.88415 14.3997Z" fill="#384250"/>
<path fill-rule="evenodd" clip-rule="evenodd" d="M9.25619 5.24068L9.49927 5.24566L9.50706 5.24667C11.8587 5.54994 13.6366 7.53803 13.6366 9.87601C13.6366 12.4521 11.5027 14.5455 8.88391 14.5455C6.40911 14.5455 4.37165 12.722 4.15169 10.2985L4.15095 10.2903L4.14427 10.0866H4.98191V10.243C5.17268 12.2269 6.84408 13.7227 8.88391 13.7227C11.0473 13.7227 12.804 11.9939 12.804 9.87601C12.804 7.96222 11.3559 6.32706 9.42641 6.06655H9.25619V5.24068ZM9.54744 5.78981C11.5769 6.10404 13.0952 7.8402 13.0952 9.87601C13.0952 12.1597 11.2031 14.0139 8.88391 14.0139C6.73525 14.0139 4.95799 12.462 4.70366 10.3778H4.45261C4.7072 12.5939 6.59126 14.2543 8.88391 14.2543C11.3468 14.2543 13.3453 12.2863 13.3453 9.87601C13.3453 7.71401 11.7189 5.86447 9.54744 5.54623V5.78981Z" fill="#384250"/>
<path d="M3.63645 15.9091C3.63645 15.6581 3.83995 15.4546 4.09099 15.4546H13.1819C13.4329 15.4546 13.6364 15.6581 13.6364 15.9091C13.6364 16.1602 13.4329 16.3637 13.1819 16.3637H4.09099C3.83995 16.3637 3.63645 16.1602 3.63645 15.9091Z" fill="#384250"/>
</svg>
