<svg width="20" height="21" viewBox="0 0 20 21" fill="none" xmlns="http://www.w3.org/2000/svg">
<path fill-rule="evenodd" clip-rule="evenodd" d="M7.40208 13.3729C7.44603 13.3866 7.48685 13.4088 7.52222 13.4382C7.55762 13.4676 7.58687 13.5037 7.6083 13.5445C7.62974 13.5853 7.64293 13.6298 7.64714 13.6756C7.65134 13.7215 7.64647 13.7677 7.6328 13.8116C7.61914 13.8556 7.59695 13.8965 7.56749 13.9318L5.78121 16.0785L5.76714 16.0919C5.66929 16.1881 5.53932 16.2447 5.40226 16.2508C5.2652 16.2568 5.13075 16.2119 5.02479 16.1248L4.37999 15.6031C4.34359 15.5744 4.31325 15.5387 4.29073 15.4982C4.2682 15.4576 4.25395 15.4131 4.24879 15.367C4.24363 15.3209 4.24767 15.2742 4.26068 15.2297C4.27368 15.1853 4.29538 15.1437 4.32454 15.1076C4.3537 15.0716 4.38972 15.0417 4.43052 15.0196C4.47132 14.9976 4.51609 14.9839 4.56223 14.9793C4.60837 14.9747 4.65496 14.9793 4.69932 14.9928C4.74367 15.0063 4.7849 15.0286 4.82061 15.0581C5.11804 15.2988 5.55364 15.2558 5.79837 14.9617L7.0287 13.4834C7.05814 13.448 7.09425 13.4188 7.13498 13.3974C7.17572 13.3759 7.22027 13.3628 7.2661 13.3586C7.31193 13.3544 7.35814 13.3593 7.40208 13.3729ZM6.72201 18.0053H3.36806C3.23271 18.0052 3.10293 17.9514 3.0072 17.8556C2.91147 17.7599 2.8576 17.6302 2.85742 17.4948V14.1453C2.85759 14.0099 2.91145 13.8801 3.00718 13.7844C3.10292 13.6887 3.2327 13.6349 3.36806 13.6348H5.04501C5.13795 13.6348 5.22709 13.6717 5.2928 13.7375C5.35853 13.8032 5.39544 13.8923 5.39544 13.9852C5.39544 14.0781 5.35853 14.1673 5.2928 14.233C5.22709 14.2987 5.13795 14.3356 5.04501 14.3356C4.22521 14.3356 3.55829 15.0002 3.55829 15.82C3.55829 16.6398 4.22287 17.3044 5.04267 17.3044H5.5883C6.10937 17.3044 6.53178 16.882 6.53178 16.3609C6.53178 16.268 6.56871 16.1789 6.63442 16.1132C6.70015 16.0475 6.78928 16.0105 6.88222 16.0105C6.97516 16.0105 7.0643 16.0475 7.13001 16.1132C7.19574 16.1789 7.23265 16.268 7.23265 16.3609V17.4948C7.23247 17.6302 7.1786 17.7599 7.08288 17.8556C6.98715 17.9514 6.85737 18.0052 6.72201 18.0053Z" fill="#384250"/>
<path fill-rule="evenodd" clip-rule="evenodd" d="M7.3743 6.70618C7.41797 6.71975 7.45856 6.7418 7.49371 6.77105C7.52889 6.80031 7.55796 6.8362 7.57926 6.8767C7.60056 6.9172 7.61368 6.96148 7.61785 7.00705C7.62203 7.05261 7.61719 7.09855 7.60361 7.14224C7.59003 7.18593 7.56797 7.22652 7.5387 7.26168L5.76334 9.3952L5.74935 9.40861C5.6521 9.5042 5.52293 9.5604 5.38671 9.56643C5.25049 9.57245 5.11685 9.52786 5.01155 9.44124L4.37069 8.92275C4.33451 8.89421 4.30435 8.85876 4.28196 8.81847C4.25958 8.77818 4.24541 8.73385 4.24029 8.68805C4.23517 8.64225 4.23917 8.59589 4.2521 8.55164C4.26502 8.5074 4.28659 8.46618 4.31557 8.43034C4.34455 8.39449 4.38035 8.36476 4.4209 8.34286C4.46145 8.32096 4.50595 8.30732 4.5518 8.30274C4.59767 8.29816 4.64398 8.30273 4.68806 8.31618C4.73215 8.32963 4.77312 8.35169 4.80861 8.3811C5.10422 8.62029 5.53716 8.57762 5.7804 8.28534L7.0032 6.81599C7.03246 6.78082 7.06836 6.75178 7.10884 6.73049C7.14932 6.7092 7.1936 6.6961 7.23915 6.69193C7.2847 6.68776 7.33062 6.6926 7.3743 6.70618ZM6.69839 11.3102H3.36495C3.23041 11.3101 3.10143 11.2566 3.00629 11.1615C2.91115 11.0664 2.8576 10.9374 2.85742 10.8029V7.47379C2.85759 7.33925 2.91112 7.21028 3.00627 7.11517C3.10141 7.02005 3.2304 6.96657 3.36495 6.96644H5.03164C5.12401 6.96644 5.2126 7.00314 5.27792 7.06845C5.34323 7.13378 5.37993 7.22237 5.37993 7.31474C5.37993 7.40711 5.34323 7.4957 5.27792 7.56101C5.2126 7.62634 5.12401 7.66302 5.03164 7.66302C4.21685 7.66302 3.554 8.32355 3.554 9.13834C3.554 9.95313 4.21453 10.6136 5.02932 10.6136H5.5716C6.0895 10.6136 6.50933 10.1938 6.50933 9.67593C6.50933 9.58355 6.54602 9.49497 6.61134 9.42964C6.67666 9.36433 6.76524 9.32763 6.85762 9.32763C6.94999 9.32763 7.03858 9.36433 7.1039 9.42964C7.16921 9.49497 7.20591 9.58355 7.20591 9.67593V10.8029C7.20573 10.9374 7.15219 11.0664 7.05705 11.1615C6.96191 11.2566 6.83292 11.3101 6.69839 11.3102Z" fill="#384250"/>
<path d="M16.5983 8.59522H10.0677C9.76714 8.59522 9.52344 8.80841 9.52344 9.07141C9.52344 9.3344 9.76714 9.5476 10.0677 9.5476H16.5983C16.8988 9.5476 17.1425 9.3344 17.1425 9.07141C17.1425 8.80841 16.8988 8.59522 16.5983 8.59522Z" fill="#384250"/>
<path d="M16.5983 15.2619H10.0677C9.76714 15.2619 9.52344 15.4751 9.52344 15.7381C9.52344 16.0011 9.76714 16.2143 10.0677 16.2143H16.5983C16.8988 16.2143 17.1425 16.0011 17.1425 15.7381C17.1425 15.4751 16.8988 15.2619 16.5983 15.2619Z" fill="#384250"/>
<path fill-rule="evenodd" clip-rule="evenodd" d="M1.97995 1.45238C1.43637 1.45238 0.952381 1.92526 0.952381 2.56349V18.4365C0.952381 19.0747 1.43637 19.5476 1.97995 19.5476H18.0201C18.5636 19.5476 19.0476 19.0747 19.0476 18.4365V2.56349C19.0476 1.92526 18.5636 1.45238 18.0201 1.45238H1.97995ZM0 2.56349C0 1.44844 0.862523 0.5 1.97995 0.5H18.0201C19.1375 0.5 20 1.44844 20 2.56349V18.4365C20 19.5516 19.1375 20.5 18.0201 20.5H1.97995C0.862523 20.5 0 19.5516 0 18.4365V2.56349Z" fill="#384250"/>
<path fill-rule="evenodd" clip-rule="evenodd" d="M3.33361 3.83333C3.07062 3.83333 2.85742 4.04653 2.85742 4.30952C2.85742 4.57252 3.07062 4.78571 3.33361 4.78571H10.9527C11.2157 4.78571 11.4289 4.57252 11.4289 4.30952C11.4289 4.04653 11.2157 3.83333 10.9527 3.83333H3.33361ZM13.9693 3.83333H13.7502C13.5201 3.83333 13.3336 4.04653 13.3336 4.30952C13.3336 4.57252 13.5201 4.78571 13.7502 4.78571H13.9693C14.1994 4.78571 14.3859 4.57252 14.3859 4.30952C14.3859 4.04653 14.1994 3.83333 13.9693 3.83333ZM15.2995 3.83333H15.5186C15.7487 3.83333 15.9352 4.04653 15.9352 4.30952C15.9352 4.57252 15.7487 4.78571 15.5186 4.78571H15.2995C15.0694 4.78571 14.8829 4.57252 14.8829 4.30952C14.8829 4.04653 15.0694 3.83333 15.2995 3.83333ZM16.8488 3.83333H17.0679C17.298 3.83333 17.4845 4.04653 17.4845 4.30952C17.4845 4.57252 17.298 4.78571 17.0679 4.78571H16.8488C16.6188 4.78571 16.4322 4.57252 16.4322 4.30952C16.4322 4.04653 16.6188 3.83333 16.8488 3.83333Z" fill="#384250"/>
</svg>
