<svg width="21" height="21" viewBox="0 0 21 21" fill="none" xmlns="http://www.w3.org/2000/svg">
<path fill-rule="evenodd" clip-rule="evenodd" d="M2 0.5C1.17157 0.5 0.5 1.17157 0.5 2V17C0.5 17.8284 1.17157 18.5 2 18.5H6L6 20C6 20.5523 6.44772 21 7 21H20C20.5523 21 21 20.5523 21 20V5C21 4.44772 20.5523 4 20 4H18.1667V2C18.1667 1.17157 17.4951 0.5 16.6667 0.5H2ZM17.1667 4V2C17.1667 1.72386 16.9428 1.5 16.6667 1.5H2C1.72386 1.5 1.5 1.72386 1.5 2V17C1.5 17.2761 1.72386 17.5 2 17.5H6L6 5C6 4.44772 6.44772 4 7 4H17.1667ZM7 5H20V20H7V5ZM9 13.5C9 13.2239 9.22386 13 9.5 13H17.5C17.7761 13 18 13.2239 18 13.5C18 13.7761 17.7761 14 17.5 14H9.5C9.22386 14 9 13.7761 9 13.5ZM9.5 15C9.22386 15 9 15.2239 9 15.5C9 15.7761 9.22386 16 9.5 16H17.5C17.7761 16 18 15.7761 18 15.5C18 15.2239 17.7761 15 17.5 15H9.5ZM9 17.5C9 17.2239 9.22386 17 9.5 17H17.5C17.7761 17 18 17.2239 18 17.5C18 17.7761 17.7761 18 17.5 18H9.5C9.22386 18 9 17.7761 9 17.5ZM10 8H17V11H10V8ZM9 8C9 7.44772 9.44772 7 10 7H17C17.5523 7 18 7.44772 18 8V11C18 11.5523 17.5523 12 17 12H10C9.44771 12 9 11.5523 9 11V8Z" fill="#384250"/>
</svg>
