<svg width="20" height="19" viewBox="0 0 20 19" fill="none" xmlns="http://www.w3.org/2000/svg">
<path fill-rule="evenodd" clip-rule="evenodd" d="M19.048 3.57098H5.92422C5.69694 3.57098 5.5127 3.37624 5.5127 3.136C5.5127 2.89577 5.69694 2.70102 5.92422 2.70102H19.048C19.5957 2.70102 20.0298 3.21838 19.8649 3.82098L19.8638 3.82502L17.7765 10.9319L17.7721 10.9444C17.5984 11.4282 17.1716 11.8356 16.5908 11.8356H7.17363C6.94635 11.8356 6.76211 11.6409 6.76211 11.4006C6.76211 11.1604 6.94635 10.9656 7.17363 10.9656H16.5908C16.7568 10.9656 16.9106 10.855 16.9881 10.6498L19.0646 3.57956C19.0655 3.57602 19.0634 3.5725 19.06 3.57192C19.0568 3.57137 19.0528 3.57098 19.048 3.57098Z" fill="#384250"/>
<path fill-rule="evenodd" clip-rule="evenodd" d="M5.9246 2.8057C5.752 2.8057 5.61208 2.95359 5.61208 3.13602C5.61208 3.31846 5.752 3.46635 5.9246 3.46635H19.0484C19.0583 3.46635 19.0675 3.46715 19.0761 3.46862C19.1397 3.47943 19.1758 3.54526 19.1608 3.60595L19.0646 3.57956L19.1596 3.61061L17.0808 10.6888C16.9904 10.9279 16.8033 11.0703 16.5912 11.0703H7.17401C7.00141 11.0703 6.86149 11.2182 6.86149 11.4006C6.86149 11.5831 7.00141 11.731 7.17401 11.731H16.5912C17.1233 11.731 17.5179 11.3583 17.6799 10.9073L17.6833 10.8978L19.7693 3.79497L19.7702 3.79193M18.9331 3.67566L16.8952 10.6147C16.8301 10.7835 16.7101 10.861 16.5912 10.861H7.17401C6.89205 10.861 6.66347 11.1026 6.66347 11.4006C6.66347 11.6987 6.89205 11.9403 7.17401 11.9403H16.5912C17.2206 11.9403 17.6796 11.498 17.865 10.9815L17.8695 10.9691L19.9587 3.85607L19.9604 3.85009C20.1456 3.17294 19.6543 2.59639 19.0484 2.59639H5.9246C5.64264 2.59639 5.41406 2.83799 5.41406 3.13602C5.41406 3.43405 5.64264 3.67566 5.9246 3.67566H18.9331Z" fill="#384250"/>
<path fill-rule="evenodd" clip-rule="evenodd" d="M0.0986328 1.41354C0.0986328 1.18767 0.271867 1.00456 0.485563 1.00456H3.36136C3.96003 1.00456 4.39996 1.38766 4.57901 1.84251L4.58416 1.8556L8.06854 12.9613L8.07091 12.9703C8.1046 13.0987 8.26201 13.2331 8.4701 13.2331H17.3133C17.5269 13.2331 17.7002 13.4162 17.7002 13.6421C17.7002 13.868 17.5269 14.0511 17.3133 14.0511H8.4701C7.90905 14.0511 7.38273 13.6992 7.24063 13.1788L3.77044 2.11828C3.69032 1.92609 3.53208 1.82252 3.36136 1.82252H0.485563C0.271868 1.82252 0.0986328 1.63942 0.0986328 1.41354Z" fill="#384250"/>
<path fill-rule="evenodd" clip-rule="evenodd" d="M0 1.41353C0 1.12986 0.217562 0.899902 0.485939 0.899902H3.36173C4.00359 0.899902 4.47765 1.31163 4.6708 1.8023L4.67877 1.82256L8.16444 12.9333L8.16669 12.9423C8.18609 13.0162 8.2972 13.1284 8.47048 13.1284H17.3136C17.582 13.1284 17.7996 13.3584 17.7996 13.6421C17.7996 13.9257 17.582 14.1557 17.3136 14.1557H8.47048C7.87665 14.1557 7.30427 13.7838 7.14643 13.2098L3.67839 2.15616C3.613 2.00333 3.4905 1.92717 3.36173 1.92717H0.485939C0.217562 1.92717 0 1.69721 0 1.41353ZM0.485939 1.1092C0.326924 1.1092 0.198017 1.24546 0.198017 1.41353C0.198017 1.58161 0.326924 1.71786 0.485939 1.71786H3.36173C3.5732 1.71786 3.76609 1.84741 3.86141 2.07608L3.86521 2.08519L7.3362 13.1497C7.46337 13.6155 7.94291 13.9464 8.47048 13.9464H17.3136C17.4726 13.9464 17.6016 13.8101 17.6016 13.6421C17.6016 13.474 17.4726 13.3377 17.3136 13.3377H8.47048C8.22757 13.3377 8.02386 13.1811 7.97588 12.9983L7.97417 12.9918L4.49172 1.89221L4.48798 1.88271C4.32303 1.46367 3.91723 1.1092 3.36173 1.1092H0.485939Z" fill="#384250"/>
<path fill-rule="evenodd" clip-rule="evenodd" d="M8.69518 16.1854C8.23516 16.1854 7.86224 16.5749 7.86224 17.0553C7.86224 17.5358 8.23516 17.9253 8.69518 17.9253C9.1552 17.9253 9.52812 17.5358 9.52812 17.0553C9.52812 16.5749 9.1552 16.1854 8.69518 16.1854ZM7.0293 17.0553C7.0293 16.0944 7.77514 15.3154 8.69518 15.3154C9.61522 15.3154 10.3611 16.0944 10.3611 17.0553C10.3611 18.0163 9.61522 18.7952 8.69518 18.7952C7.77514 18.7952 7.0293 18.0163 7.0293 17.0553Z" fill="#384250"/>
<path fill-rule="evenodd" clip-rule="evenodd" d="M6.93066 17.0553C6.93066 16.0354 7.72195 15.2108 8.69555 15.2108C9.66916 15.2108 10.4604 16.0354 10.4604 17.0553C10.4604 18.0752 9.66916 18.8999 8.69555 18.8999C7.72195 18.8999 6.93066 18.0752 6.93066 17.0553ZM8.69555 15.4201C7.82908 15.4201 7.12868 16.1534 7.12868 17.0553C7.12868 17.9573 7.82908 18.6906 8.69555 18.6906C9.56203 18.6906 10.2624 17.9573 10.2624 17.0553C10.2624 16.1534 9.56203 15.4201 8.69555 15.4201ZM8.69555 16.29C8.2891 16.29 7.96162 16.6338 7.96162 17.0553C7.96162 17.4768 8.2891 17.8206 8.69555 17.8206C9.10201 17.8206 9.42949 17.4768 9.42949 17.0553C9.42949 16.6338 9.10201 16.29 8.69555 16.29ZM7.76361 17.0553C7.76361 16.5159 8.18197 16.0807 8.69555 16.0807C9.20914 16.0807 9.6275 16.5159 9.6275 17.0553C9.6275 17.5948 9.20914 18.0299 8.69555 18.0299C8.18197 18.0299 7.76361 17.5948 7.76361 17.0553Z" fill="#384250"/>
<path fill-rule="evenodd" clip-rule="evenodd" d="M15.9247 16.1854C15.4647 16.1854 15.0917 16.5749 15.0917 17.0553C15.0917 17.5358 15.4647 17.9253 15.9247 17.9253C16.3847 17.9253 16.7576 17.5358 16.7576 17.0553C16.7576 16.5749 16.3847 16.1854 15.9247 16.1854ZM14.2588 17.0553C14.2588 16.0944 15.0046 15.3154 15.9247 15.3154C16.8447 15.3154 17.5906 16.0944 17.5906 17.0553C17.5906 18.0163 16.8447 18.7952 15.9247 18.7952C15.0046 18.7952 14.2588 18.0163 14.2588 17.0553Z" fill="#384250"/>
<path fill-rule="evenodd" clip-rule="evenodd" d="M14.1602 17.0553C14.1602 16.0354 14.9514 15.2108 15.925 15.2108C16.8987 15.2108 17.6899 16.0354 17.6899 17.0553C17.6899 18.0752 16.8987 18.8999 15.925 18.8999C14.9514 18.8999 14.1602 18.0752 14.1602 17.0553ZM15.925 15.4201C15.0586 15.4201 14.3582 16.1534 14.3582 17.0553C14.3582 17.9573 15.0586 18.6906 15.925 18.6906C16.7915 18.6906 17.4919 17.9573 17.4919 17.0553C17.4919 16.1534 16.7915 15.4201 15.925 15.4201ZM15.925 16.29C15.5186 16.29 15.1911 16.6338 15.1911 17.0553C15.1911 17.4768 15.5186 17.8206 15.925 17.8206C16.3315 17.8206 16.659 17.4768 16.659 17.0553C16.659 16.6338 16.3315 16.29 15.925 16.29ZM14.9931 17.0553C14.9931 16.5159 15.4115 16.0807 15.925 16.0807C16.4386 16.0807 16.857 16.5159 16.857 17.0553C16.857 17.5948 16.4386 18.0299 15.925 18.0299C15.4115 18.0299 14.9931 17.5948 14.9931 17.0553Z" fill="#384250"/>
</svg>
