<svg width="20" height="20" viewBox="0 0 20 20" fill="none" xmlns="http://www.w3.org/2000/svg">
<mask id="path-1-inside-1" fill="white">
<path fill-rule="evenodd" clip-rule="evenodd" d="M4.61961 19.8512H9.73548C10.0094 19.8512 10.2317 19.65 10.2317 19.4021C10.2317 19.1543 10.0094 18.9531 9.73548 18.9531H2.48133C1.66051 18.9531 0.992534 18.3488 0.992534 17.6061V2.24507C0.992534 1.5024 1.66051 0.898028 2.48133 0.898028H17.3693C18.1902 0.898028 18.8581 1.5024 18.8581 2.24507V9.61836C18.8581 9.86621 19.0805 10.0674 19.3544 10.0674C19.6283 10.0674 19.8507 9.86621 19.8507 9.61836V2.24507C19.8507 1.00759 18.737 0 17.3693 0H2.48133C1.11362 0 0 1.00759 0 2.24507V17.6061C0 18.8436 1.11362 19.8512 2.48133 19.8512H4.61961ZM3.37356 13.8958H8.53685C8.75541 13.8958 8.9328 13.6734 8.9328 13.3995C8.9328 13.1255 8.75541 12.9032 8.53685 12.9032H3.37356C3.15499 12.9032 2.9776 13.1255 2.9776 13.3995C2.9776 13.6734 3.15499 13.8958 3.37356 13.8958ZM8.53685 16.8735H3.37356C3.15499 16.8735 2.9776 16.6512 2.9776 16.3773C2.9776 16.1033 3.15499 15.881 3.37356 15.881H8.53685C8.75541 15.881 8.9328 16.1033 8.9328 16.3773C8.9328 16.6512 8.75541 16.8735 8.53685 16.8735ZM9.77655 14.4418C9.77655 11.8701 11.8748 9.77661 14.4546 9.77661H14.8802V14.8624H9.77655V14.4418ZM10.6508 14.0212H14.029V10.6427C12.2566 10.8391 10.8462 12.2499 10.6508 14.0212ZM15.5219 10.4873L15.7704 10.4924L15.7784 10.4934C18.1826 10.8035 20.0002 12.836 20.0002 15.2262C20.0002 17.8598 17.8186 20.0001 15.1413 20.0001C12.6112 20.0001 10.5282 18.1358 10.3034 15.6581L10.3026 15.6497L10.2958 15.4415H11.1521V15.6014C11.3472 17.6296 13.0559 19.1588 15.1413 19.1588C17.353 19.1588 19.149 17.3914 19.149 15.2262C19.149 13.2697 17.6686 11.598 15.6959 11.3316H15.5219V10.4873ZM8.78214 8.42351C8.78214 9.31457 9.47378 10.0412 10.3253 10.0412C11.1749 10.0412 11.8685 9.31457 11.8685 8.42351C11.8685 8.02086 11.7273 7.65178 11.4939 7.36815L14.2883 4.79692C14.5629 5.06114 14.9288 5.22258 15.3302 5.22258C16.1817 5.22258 16.8754 4.49593 16.8734 3.60283C16.8734 2.71177 16.1817 1.98511 15.3302 1.98511C14.4786 1.98511 13.787 2.70974 13.787 3.60283C13.787 3.85176 13.8407 4.08777 13.9367 4.29871L11.0223 6.98037C10.8128 6.86876 10.576 6.80579 10.3253 6.80579C10.0251 6.80579 9.74466 6.89614 9.50747 7.0522L8.66182 6.32002C8.8531 6.05046 8.96652 5.71638 8.96652 5.35442C8.96652 4.46335 8.27489 3.73669 7.42333 3.73669C6.57178 3.73669 5.88015 4.46132 5.88015 5.35442C5.88015 5.8094 6.05965 6.22119 6.34835 6.5157L5.15557 7.82385C4.9619 7.73184 4.74699 7.68057 4.52079 7.68057C3.66924 7.68057 2.9776 8.4052 2.9776 9.29829C2.9776 10.1914 3.66924 10.918 4.52079 10.918C5.37234 10.918 6.06398 10.1914 6.06398 9.29829C6.06398 8.86878 5.90328 8.47746 5.64143 8.18731L6.83922 6.87368L6.79878 6.83566C6.98977 6.92467 7.20111 6.97416 7.42333 6.97416C7.71539 6.97416 7.98903 6.88852 8.22239 6.73976L9.07435 7.4774C8.89054 7.74375 8.78214 8.07074 8.78214 8.42351ZM9.38183 8.42148C9.38183 7.86532 9.8056 7.41268 10.3253 7.41268C10.8451 7.41268 11.2688 7.86532 11.2688 8.42148C11.2688 8.97763 10.8451 9.43026 10.3253 9.43026C9.8056 9.43026 9.38183 8.97763 9.38183 8.42148ZM7.42333 4.34765C6.90361 4.34765 6.47983 4.80028 6.47983 5.35644C6.47983 5.91259 6.90361 6.36727 7.42333 6.36727C7.94306 6.36727 8.36684 5.91462 8.36684 5.35644C8.36684 4.79825 7.94306 4.34765 7.42333 4.34765ZM3.57729 9.29829C3.57729 8.74214 4.00106 8.2895 4.52079 8.2895C5.04052 8.2895 5.46429 8.74214 5.46429 9.29829C5.46429 9.85648 5.04052 10.3091 4.52079 10.3091C4.00106 10.3091 3.57729 9.85445 3.57729 9.29829ZM15.3302 2.59404C14.8104 2.59404 14.3867 3.04668 14.3867 3.60283C14.3867 4.15899 14.8104 4.61365 15.3302 4.61365C15.8499 4.61365 16.2737 4.16102 16.2737 3.60283C16.2737 3.04465 15.8519 2.59404 15.3302 2.59404Z"/>
</mask>
<path fill-rule="evenodd" clip-rule="evenodd" d="M4.61961 19.8512H9.73548C10.0094 19.8512 10.2317 19.65 10.2317 19.4021C10.2317 19.1543 10.0094 18.9531 9.73548 18.9531H2.48133C1.66051 18.9531 0.992534 18.3488 0.992534 17.6061V2.24507C0.992534 1.5024 1.66051 0.898028 2.48133 0.898028H17.3693C18.1902 0.898028 18.8581 1.5024 18.8581 2.24507V9.61836C18.8581 9.86621 19.0805 10.0674 19.3544 10.0674C19.6283 10.0674 19.8507 9.86621 19.8507 9.61836V2.24507C19.8507 1.00759 18.737 0 17.3693 0H2.48133C1.11362 0 0 1.00759 0 2.24507V17.6061C0 18.8436 1.11362 19.8512 2.48133 19.8512H4.61961ZM3.37356 13.8958H8.53685C8.75541 13.8958 8.9328 13.6734 8.9328 13.3995C8.9328 13.1255 8.75541 12.9032 8.53685 12.9032H3.37356C3.15499 12.9032 2.9776 13.1255 2.9776 13.3995C2.9776 13.6734 3.15499 13.8958 3.37356 13.8958ZM8.53685 16.8735H3.37356C3.15499 16.8735 2.9776 16.6512 2.9776 16.3773C2.9776 16.1033 3.15499 15.881 3.37356 15.881H8.53685C8.75541 15.881 8.9328 16.1033 8.9328 16.3773C8.9328 16.6512 8.75541 16.8735 8.53685 16.8735ZM9.77655 14.4418C9.77655 11.8701 11.8748 9.77661 14.4546 9.77661H14.8802V14.8624H9.77655V14.4418ZM10.6508 14.0212H14.029V10.6427C12.2566 10.8391 10.8462 12.2499 10.6508 14.0212ZM15.5219 10.4873L15.7704 10.4924L15.7784 10.4934C18.1826 10.8035 20.0002 12.836 20.0002 15.2262C20.0002 17.8598 17.8186 20.0001 15.1413 20.0001C12.6112 20.0001 10.5282 18.1358 10.3034 15.6581L10.3026 15.6497L10.2958 15.4415H11.1521V15.6014C11.3472 17.6296 13.0559 19.1588 15.1413 19.1588C17.353 19.1588 19.149 17.3914 19.149 15.2262C19.149 13.2697 17.6686 11.598 15.6959 11.3316H15.5219V10.4873ZM8.78214 8.42351C8.78214 9.31457 9.47378 10.0412 10.3253 10.0412C11.1749 10.0412 11.8685 9.31457 11.8685 8.42351C11.8685 8.02086 11.7273 7.65178 11.4939 7.36815L14.2883 4.79692C14.5629 5.06114 14.9288 5.22258 15.3302 5.22258C16.1817 5.22258 16.8754 4.49593 16.8734 3.60283C16.8734 2.71177 16.1817 1.98511 15.3302 1.98511C14.4786 1.98511 13.787 2.70974 13.787 3.60283C13.787 3.85176 13.8407 4.08777 13.9367 4.29871L11.0223 6.98037C10.8128 6.86876 10.576 6.80579 10.3253 6.80579C10.0251 6.80579 9.74466 6.89614 9.50747 7.0522L8.66182 6.32002C8.8531 6.05046 8.96652 5.71638 8.96652 5.35442C8.96652 4.46335 8.27489 3.73669 7.42333 3.73669C6.57178 3.73669 5.88015 4.46132 5.88015 5.35442C5.88015 5.8094 6.05965 6.22119 6.34835 6.5157L5.15557 7.82385C4.9619 7.73184 4.74699 7.68057 4.52079 7.68057C3.66924 7.68057 2.9776 8.4052 2.9776 9.29829C2.9776 10.1914 3.66924 10.918 4.52079 10.918C5.37234 10.918 6.06398 10.1914 6.06398 9.29829C6.06398 8.86878 5.90328 8.47746 5.64143 8.18731L6.83922 6.87368L6.79878 6.83566C6.98977 6.92467 7.20111 6.97416 7.42333 6.97416C7.71539 6.97416 7.98903 6.88852 8.22239 6.73976L9.07435 7.4774C8.89054 7.74375 8.78214 8.07074 8.78214 8.42351ZM9.38183 8.42148C9.38183 7.86532 9.8056 7.41268 10.3253 7.41268C10.8451 7.41268 11.2688 7.86532 11.2688 8.42148C11.2688 8.97763 10.8451 9.43026 10.3253 9.43026C9.8056 9.43026 9.38183 8.97763 9.38183 8.42148ZM7.42333 4.34765C6.90361 4.34765 6.47983 4.80028 6.47983 5.35644C6.47983 5.91259 6.90361 6.36727 7.42333 6.36727C7.94306 6.36727 8.36684 5.91462 8.36684 5.35644C8.36684 4.79825 7.94306 4.34765 7.42333 4.34765ZM3.57729 9.29829C3.57729 8.74214 4.00106 8.2895 4.52079 8.2895C5.04052 8.2895 5.46429 8.74214 5.46429 9.29829C5.46429 9.85648 5.04052 10.3091 4.52079 10.3091C4.00106 10.3091 3.57729 9.85445 3.57729 9.29829ZM15.3302 2.59404C14.8104 2.59404 14.3867 3.04668 14.3867 3.60283C14.3867 4.15899 14.8104 4.61365 15.3302 4.61365C15.8499 4.61365 16.2737 4.16102 16.2737 3.60283C16.2737 3.04465 15.8519 2.59404 15.3302 2.59404Z" fill="#384250"/>
<path d="M14.8802 9.77661H15.1802V9.47661H14.8802V9.77661ZM14.8802 14.8624V15.1624H15.1802V14.8624H14.8802ZM9.77655 14.8624H9.47655V15.1624H9.77655V14.8624ZM14.029 14.0212V14.3212H14.329V14.0212H14.029ZM10.6508 14.0212L10.3527 13.9883L10.3159 14.3212H10.6508V14.0212ZM14.029 10.6427H14.329V10.3076L13.996 10.3445L14.029 10.6427ZM15.7704 10.4924L15.8088 10.1949L15.7928 10.1928L15.7766 10.1925L15.7704 10.4924ZM15.5219 10.4873L15.5281 10.1874L15.2219 10.1811V10.4873H15.5219ZM15.7784 10.4934L15.74 10.791H15.74L15.7784 10.4934ZM10.3034 15.6581L10.0046 15.6852L10.0046 15.6853L10.3034 15.6581ZM10.3026 15.6497L10.0028 15.6596L10.0031 15.6682L10.0038 15.6768L10.3026 15.6497ZM10.2958 15.4415V15.1415H9.98579L9.99594 15.4513L10.2958 15.4415ZM11.1521 15.4415H11.4521V15.1415H11.1521V15.4415ZM11.1521 15.6014H10.8521V15.6158L10.8535 15.6301L11.1521 15.6014ZM15.6959 11.3316L15.7361 11.0343L15.7161 11.0316H15.6959V11.3316ZM15.5219 11.3316H15.2219V11.6316H15.5219V11.3316ZM11.4939 7.36815L11.2908 7.14739L11.0819 7.33959L11.2622 7.55877L11.4939 7.36815ZM14.2883 4.79692L14.4963 4.58072L14.2929 4.38503L14.0852 4.57616L14.2883 4.79692ZM16.8734 3.60283H16.5734L16.5734 3.6035L16.8734 3.60283ZM13.9367 4.29871L14.1398 4.51947L14.2997 4.37231L14.2097 4.17449L13.9367 4.29871ZM11.0223 6.98037L10.8812 7.24512L11.0689 7.34516L11.2254 7.20113L11.0223 6.98037ZM9.50747 7.0522L9.3111 7.279L9.48272 7.42759L9.67236 7.30282L9.50747 7.0522ZM8.66182 6.32002L8.41716 6.14641L8.25953 6.36854L8.46545 6.54682L8.66182 6.32002ZM6.34835 6.5157L6.57003 6.71783L6.76114 6.50824L6.56259 6.3057L6.34835 6.5157ZM5.15557 7.82385L5.02683 8.09482L5.22754 8.19018L5.37725 8.02598L5.15557 7.82385ZM5.64143 8.18731L5.41975 7.98518L5.23639 8.18628L5.41871 8.38831L5.64143 8.18731ZM6.83922 6.87368L7.0609 7.07581L7.25997 6.85748L7.04471 6.6551L6.83922 6.87368ZM6.79878 6.83566L6.92551 6.56374L6.59329 7.05423L6.79878 6.83566ZM8.22239 6.73976L8.41876 6.51295L8.24969 6.36657L8.06112 6.48679L8.22239 6.73976ZM9.07435 7.4774L9.32126 7.6478L9.47395 7.42656L9.27072 7.2506L9.07435 7.4774ZM9.73548 19.5512H4.61961V20.1512H9.73548V19.5512ZM9.93174 19.4021C9.93174 19.4568 9.87268 19.5512 9.73548 19.5512V20.1512C10.1462 20.1512 10.5317 19.8432 10.5317 19.4021H9.93174ZM9.73548 19.2531C9.87268 19.2531 9.93174 19.3475 9.93174 19.4021H10.5317C10.5317 18.9611 10.1462 18.6531 9.73548 18.6531V19.2531ZM2.48133 19.2531H9.73548V18.6531H2.48133V19.2531ZM0.692534 17.6061C0.692534 18.542 1.52377 19.2531 2.48133 19.2531V18.6531C1.79725 18.6531 1.29253 18.1555 1.29253 17.6061H0.692534ZM0.692534 2.24507V17.6061H1.29253V2.24507H0.692534ZM2.48133 0.598028C1.52377 0.598028 0.692534 1.30918 0.692534 2.24507H1.29253C1.29253 1.69562 1.79725 1.19803 2.48133 1.19803V0.598028ZM17.3693 0.598028H2.48133V1.19803H17.3693V0.598028ZM19.1581 2.24507C19.1581 1.30918 18.3269 0.598028 17.3693 0.598028V1.19803C18.0534 1.19803 18.5581 1.69562 18.5581 2.24507H19.1581ZM19.1581 9.61836V2.24507H18.5581V9.61836H19.1581ZM19.3544 9.76737C19.2172 9.76737 19.1581 9.67299 19.1581 9.61836H18.5581C18.5581 10.0594 18.9437 10.3674 19.3544 10.3674V9.76737ZM19.5507 9.61836C19.5507 9.67299 19.4916 9.76737 19.3544 9.76737V10.3674C19.7651 10.3674 20.1507 10.0594 20.1507 9.61836H19.5507ZM19.5507 2.24507V9.61836H20.1507V2.24507H19.5507ZM17.3693 0.3C18.6003 0.3 19.5507 1.20081 19.5507 2.24507H20.1507C20.1507 0.814365 18.8738 -0.3 17.3693 -0.3V0.3ZM2.48133 0.3H17.3693V-0.3H2.48133V0.3ZM0.3 2.24507C0.3 1.20081 1.25036 0.3 2.48133 0.3V-0.3C0.976885 -0.3 -0.3 0.814366 -0.3 2.24507H0.3ZM0.3 17.6061V2.24507H-0.3V17.6061H0.3ZM2.48133 19.5512C1.25036 19.5512 0.3 18.6503 0.3 17.6061H-0.3C-0.3 19.0368 0.976885 20.1512 2.48133 20.1512V19.5512ZM4.61961 19.5512H2.48133V20.1512H4.61961V19.5512ZM8.53685 13.5958H3.37356V14.1958H8.53685V13.5958ZM8.6328 13.3995C8.6328 13.4732 8.60866 13.5302 8.58228 13.5632C8.5563 13.5958 8.53825 13.5958 8.53685 13.5958V14.1958C8.98076 14.1958 9.2328 13.7724 9.2328 13.3995H8.6328ZM8.53685 13.2032C8.53825 13.2032 8.5563 13.2031 8.58228 13.2357C8.60866 13.2688 8.6328 13.3257 8.6328 13.3995H9.2328C9.2328 13.0266 8.98076 12.6032 8.53685 12.6032V13.2032ZM3.37356 13.2032H8.53685V12.6032H3.37356V13.2032ZM3.2776 13.3995C3.2776 13.3257 3.30174 13.2688 3.32812 13.2357C3.3541 13.2031 3.37216 13.2032 3.37356 13.2032V12.6032C2.92964 12.6032 2.6776 13.0266 2.6776 13.3995H3.2776ZM3.37356 13.5958C3.37216 13.5958 3.3541 13.5958 3.32812 13.5632C3.30174 13.5302 3.2776 13.4732 3.2776 13.3995H2.6776C2.6776 13.7724 2.92964 14.1958 3.37356 14.1958V13.5958ZM3.37356 17.1735H8.53685V16.5735H3.37356V17.1735ZM2.6776 16.3773C2.6776 16.7501 2.92964 17.1735 3.37356 17.1735V16.5735C3.37216 16.5735 3.3541 16.5736 3.32812 16.541C3.30174 16.508 3.2776 16.451 3.2776 16.3773H2.6776ZM3.37356 15.581C2.92964 15.581 2.6776 16.0044 2.6776 16.3773H3.2776C3.2776 16.3035 3.30174 16.2466 3.32812 16.2135C3.3541 16.1809 3.37216 16.181 3.37356 16.181V15.581ZM8.53685 15.581H3.37356V16.181H8.53685V15.581ZM9.2328 16.3773C9.2328 16.0044 8.98076 15.581 8.53685 15.581V16.181C8.53825 16.181 8.5563 16.1809 8.58228 16.2135C8.60866 16.2466 8.6328 16.3035 8.6328 16.3773H9.2328ZM8.53685 17.1735C8.98076 17.1735 9.2328 16.7501 9.2328 16.3773H8.6328C8.6328 16.451 8.60866 16.508 8.58228 16.541C8.5563 16.5736 8.53825 16.5735 8.53685 16.5735V17.1735ZM14.4546 9.47661C11.7098 9.47661 9.47655 11.7037 9.47655 14.4418H10.0766C10.0766 12.0365 12.0397 10.0766 14.4546 10.0766V9.47661ZM14.8802 9.47661H14.4546V10.0766H14.8802V9.47661ZM15.1802 14.8624V9.77661H14.5802V14.8624H15.1802ZM9.77655 15.1624H14.8802V14.5624H9.77655V15.1624ZM9.47655 14.4418V14.8624H10.0766V14.4418H9.47655ZM14.029 13.7212H10.6508V14.3212H14.029V13.7212ZM13.729 10.6427V14.0212H14.329V10.6427H13.729ZM10.949 14.0541C11.129 12.4225 12.4291 11.1218 14.062 10.9408L13.996 10.3445C12.0841 10.5564 10.5634 12.0773 10.3527 13.9883L10.949 14.0541ZM15.7766 10.1925L15.5281 10.1874L15.5158 10.7872L15.7643 10.7923L15.7766 10.1925ZM15.8168 10.1959L15.8088 10.1949L15.7321 10.7899L15.74 10.791L15.8168 10.1959ZM20.3002 15.2262C20.3002 12.6812 18.3666 10.5247 15.8168 10.1959L15.74 10.791C17.9986 11.0822 19.7002 12.9908 19.7002 15.2262H20.3002ZM15.1413 20.3001C17.9792 20.3001 20.3002 18.0306 20.3002 15.2262H19.7002C19.7002 17.6891 17.6581 19.7001 15.1413 19.7001V20.3001ZM10.0046 15.6853C10.2439 18.3224 12.461 20.3001 15.1413 20.3001V19.7001C12.7614 19.7001 10.8125 17.9492 10.6021 15.631L10.0046 15.6853ZM10.0038 15.6768L10.0046 15.6852L10.6021 15.631L10.6014 15.6226L10.0038 15.6768ZM9.99594 15.4513L10.0028 15.6596L10.6025 15.6399L10.5956 15.4316L9.99594 15.4513ZM11.1521 15.1415H10.2958V15.7415H11.1521V15.1415ZM11.4521 15.6014V15.4415H10.8521V15.6014H11.4521ZM15.1413 18.8588C13.2058 18.8588 11.6306 17.4424 11.4508 15.5727L10.8535 15.6301C11.0638 17.8168 12.9061 19.4588 15.1413 19.4588V18.8588ZM18.849 15.2262C18.849 17.2207 17.1924 18.8588 15.1413 18.8588V19.4588C17.5136 19.4588 19.449 17.5622 19.449 15.2262H18.849ZM15.6558 11.6289C17.4833 11.8757 18.849 13.4235 18.849 15.2262H19.449C19.449 13.1158 17.8539 11.3203 15.7361 11.0343L15.6558 11.6289ZM15.5219 11.6316H15.6959V11.0316H15.5219V11.6316ZM15.2219 10.4873V11.3316H15.8219V10.4873H15.2219ZM10.3253 9.74122C9.65283 9.74122 9.08214 9.16258 9.08214 8.42351H8.48214C8.48214 9.46657 9.29473 10.3412 10.3253 10.3412V9.74122ZM11.5685 8.42351C11.5685 9.16232 10.9961 9.74122 10.3253 9.74122V10.3412C11.3537 10.3412 12.1685 9.46683 12.1685 8.42351H11.5685ZM11.2622 7.55877C11.4523 7.78975 11.5685 8.09175 11.5685 8.42351H12.1685C12.1685 7.94997 12.0023 7.51381 11.7256 7.17753L11.2622 7.55877ZM11.697 7.58891L14.4914 5.01768L14.0852 4.57616L11.2908 7.14739L11.697 7.58891ZM14.0803 5.01312C14.407 5.32743 14.8461 5.52258 15.3302 5.52258V4.92257C15.0115 4.92257 14.7188 4.79484 14.4963 4.58072L14.0803 5.01312ZM15.3302 5.52258C16.3604 5.52258 17.1757 4.64815 17.1734 3.60216L16.5734 3.6035C16.575 4.3437 16.003 4.92257 15.3302 4.92257V5.52258ZM17.1734 3.60283C17.1734 2.55977 16.3608 1.68511 15.3302 1.68511V2.28511C16.0027 2.28511 16.5734 2.86376 16.5734 3.60283H17.1734ZM15.3302 1.68511C14.2998 1.68511 13.487 2.55749 13.487 3.60283H14.087C14.087 2.86198 14.6574 2.28511 15.3302 2.28511V1.68511ZM13.487 3.60283C13.487 3.89522 13.5501 4.17352 13.6636 4.42292L14.2097 4.17449C14.1313 4.00201 14.087 3.80831 14.087 3.60283H13.487ZM13.7335 4.07794L10.8191 6.75961L11.2254 7.20113L14.1398 4.51947L13.7335 4.07794ZM10.3253 7.10579C10.5251 7.10579 10.7136 7.15582 10.8812 7.24512L11.1634 6.71562C10.9121 6.58171 10.627 6.50579 10.3253 6.50579V7.10579ZM9.67236 7.30282C9.86291 7.17745 10.0864 7.10579 10.3253 7.10579V6.50579C9.96373 6.50579 9.62641 6.61483 9.34258 6.80158L9.67236 7.30282ZM8.46545 6.54682L9.3111 7.279L9.70384 6.8254L8.85819 6.09322L8.46545 6.54682ZM8.66652 5.35442C8.66652 5.65305 8.5731 5.92666 8.41716 6.14641L8.90648 6.49364C9.13311 6.17426 9.26652 5.77971 9.26652 5.35442H8.66652ZM7.42333 4.03669C8.09583 4.03669 8.66652 4.61535 8.66652 5.35442H9.26652C9.26652 4.31136 8.45394 3.43669 7.42333 3.43669V4.03669ZM6.18015 5.35442C6.18015 4.61357 6.7506 4.03669 7.42333 4.03669V3.43669C6.39297 3.43669 5.58014 4.30908 5.58014 5.35442H6.18015ZM6.56259 6.3057C6.32798 6.06637 6.18015 5.72963 6.18015 5.35442H5.58014C5.58014 5.88917 5.79131 6.376 6.13412 6.72571L6.56259 6.3057ZM5.37725 8.02598L6.57003 6.71783L6.12667 6.31357L4.93389 7.62172L5.37725 8.02598ZM4.52079 7.98057C4.7011 7.98057 4.87215 8.02134 5.02683 8.09482L5.2843 7.55288C5.05166 7.44235 4.79288 7.38057 4.52079 7.38057V7.98057ZM3.2776 9.29829C3.2776 8.55744 3.84805 7.98057 4.52079 7.98057V7.38057C3.49042 7.38057 2.6776 8.25296 2.6776 9.29829H3.2776ZM4.52079 10.618C3.84853 10.618 3.2776 10.0396 3.2776 9.29829H2.6776C2.6776 10.3431 3.48995 11.218 4.52079 11.218V10.618ZM5.76398 9.29829C5.76398 10.0396 5.19305 10.618 4.52079 10.618V11.218C5.55163 11.218 6.36398 10.3431 6.36398 9.29829H5.76398ZM5.41871 8.38831C5.63175 8.62436 5.76398 8.94441 5.76398 9.29829H6.36398C6.36398 8.79314 6.17481 8.33056 5.86414 7.98632L5.41871 8.38831ZM6.61754 6.67154L5.41975 7.98518L5.86311 8.38945L7.0609 7.07581L6.61754 6.67154ZM6.59329 7.05423L6.63373 7.09225L7.04471 6.6551L7.00427 6.61708L6.59329 7.05423ZM7.42333 6.67416C7.24618 6.67416 7.078 6.63481 6.92551 6.56374L6.67205 7.10757C6.90155 7.21454 7.15604 7.27416 7.42333 7.27416V6.67416ZM8.06112 6.48679C7.87375 6.60624 7.65571 6.67416 7.42333 6.67416V7.27416C7.77508 7.27416 8.10431 7.17081 8.38365 6.99272L8.06112 6.48679ZM9.27072 7.2506L8.41876 6.51295L8.02602 6.96656L8.87798 7.7042L9.27072 7.2506ZM9.08214 8.42351C9.08214 8.13279 9.17135 7.86503 9.32126 7.6478L8.82744 7.307C8.60974 7.62247 8.48214 8.00869 8.48214 8.42351H9.08214ZM10.3253 7.11268C9.62141 7.11268 9.08183 7.71877 9.08183 8.42148H9.68183C9.68183 8.01188 9.9898 7.71268 10.3253 7.71268V7.11268ZM11.5688 8.42148C11.5688 7.71877 11.0293 7.11268 10.3253 7.11268V7.71268C10.6609 7.71268 10.9688 8.01188 10.9688 8.42148H11.5688ZM10.3253 9.73026C11.0292 9.73026 11.5688 9.12419 11.5688 8.42148H10.9688C10.9688 8.83107 10.6609 9.13026 10.3253 9.13026V9.73026ZM9.08183 8.42148C9.08183 9.12419 9.62142 9.73026 10.3253 9.73026V9.13026C9.98979 9.13026 9.68183 8.83107 9.68183 8.42148H9.08183ZM6.77983 5.35644C6.77983 4.94684 7.08779 4.64765 7.42333 4.64765V4.04765C6.71942 4.04765 6.17983 4.65373 6.17983 5.35644H6.77983ZM7.42333 6.06727C7.08856 6.06727 6.77983 5.76685 6.77983 5.35644H6.17983C6.17983 6.05834 6.71866 6.66727 7.42333 6.66727V6.06727ZM8.06684 5.35644C8.06684 5.76847 7.75849 6.06727 7.42333 6.06727V6.66727C8.12763 6.66727 8.66684 6.06077 8.66684 5.35644H8.06684ZM7.42333 4.64765C7.75925 4.64765 8.06684 4.94522 8.06684 5.35644H8.66684C8.66684 4.65129 8.12687 4.04765 7.42333 4.04765V4.64765ZM4.52079 7.9895C3.81687 7.9895 3.27729 8.59559 3.27729 9.29829H3.87729C3.87729 8.88869 4.18526 8.5895 4.52079 8.5895V7.9895ZM5.76429 9.29829C5.76429 8.59559 5.22471 7.9895 4.52079 7.9895V8.5895C4.85633 8.5895 5.16429 8.88869 5.16429 9.29829H5.76429ZM4.52079 10.6091C5.22508 10.6091 5.76429 10.0026 5.76429 9.29829H5.16429C5.16429 9.71032 4.85595 10.0091 4.52079 10.0091V10.6091ZM3.27729 9.29829C3.27729 10.0002 3.81612 10.6091 4.52079 10.6091V10.0091C4.18601 10.0091 3.87729 9.7087 3.87729 9.29829H3.27729ZM14.6867 3.60283C14.6867 3.19323 14.9946 2.89404 15.3302 2.89404V2.29404C14.6262 2.29404 14.0867 2.90012 14.0867 3.60283H14.6867ZM15.3302 4.31365C14.9954 4.31365 14.6867 4.01324 14.6867 3.60283H14.0867C14.0867 4.30473 14.6255 4.91365 15.3302 4.91365V4.31365ZM15.9737 3.60283C15.9737 4.01486 15.6653 4.31365 15.3302 4.31365V4.91365C16.0345 4.91365 16.5737 4.30717 16.5737 3.60283H15.9737ZM15.3302 2.89404C15.6677 2.89404 15.9737 3.19118 15.9737 3.60283H16.5737C16.5737 2.89812 16.0361 2.29404 15.3302 2.29404V2.89404Z" fill="#384250" mask="url(#path-1-inside-1)"/>
</svg>
