<svg width="20" height="20" viewBox="0 0 20 20" fill="none" xmlns="http://www.w3.org/2000/svg">
<path d="M10.0007 13.6875C7.89064 13.6875 6.17417 12.0358 6.17417 10.0053C6.17417 7.97475 7.89064 6.32299 10.0007 6.32299C12.1108 6.32299 13.8272 7.97475 13.8272 10.0053C13.8272 12.0358 12.1108 13.6875 10.0007 13.6875ZM10.0007 7.37507C8.49195 7.37507 7.26746 8.5534 7.26746 10.0053C7.26746 11.4571 8.49195 12.6355 10.0007 12.6355C11.5094 12.6355 12.7339 11.4571 12.7339 10.0053C12.7339 8.5534 11.5094 7.37507 10.0007 7.37507Z" fill="#606975"/>
<path d="M9.81779 20C9.1363 20 8.45117 19.9334 7.78061 19.8001L7.46356 19.737L7.36881 19.4389C7.06633 18.492 6.41764 17.6995 5.543 17.2085C4.68295 16.7245 3.64796 16.5702 2.67128 16.7806L2.35423 16.8473L2.13921 16.6123C1.22085 15.5988 0.53207 14.4415 0.0983965 13.172L0 12.8809L0.215015 12.653C0.900146 11.9235 1.27915 10.9802 1.27915 9.99825C1.27915 9.01631 0.900146 8.07294 0.215015 7.3435L0 7.11555L0.0983965 6.82448C0.535714 5.55497 1.22085 4.39768 2.13921 3.38769L2.35423 3.15273L2.67128 3.21936C3.64796 3.42977 4.68295 3.27547 5.543 2.79151C6.41399 2.30054 7.06268 1.50798 7.36881 0.561108L7.46356 0.263019L7.78061 0.199895C8.45117 0.0666315 9.1363 0 9.81779 0C10.5102 0 11.5561 0.0666315 12.2194 0.199895L12.5364 0.263019L12.6312 0.561108C12.9337 1.50798 13.5824 2.29704 14.457 2.79151C15.3207 3.27547 16.3557 3.42977 17.3287 3.21936L17.6458 3.15273L17.8608 3.38769C18.7792 4.40119 19.4679 5.55497 19.9016 6.82448L20 7.11555L19.785 7.3435C19.0999 8.07294 18.7208 9.01631 18.7208 9.99825C18.7208 10.9802 19.0999 11.9235 19.785 12.653L20 12.8809L19.9016 13.172C19.4643 14.4415 18.7792 15.5988 17.8608 16.6088L17.6458 16.8438L17.3287 16.7771C16.352 16.5667 15.3171 16.721 14.457 17.205C13.586 17.6959 12.9373 18.4885 12.6312 19.4354L12.5364 19.7335L12.2194 19.7966C11.5561 19.9299 10.5102 20 9.81779 20ZM8.30539 18.8252C8.80467 18.9058 9.31487 18.9479 9.82143 18.9479C10.3462 18.9479 11.1188 18.9023 11.7019 18.8217C12.121 17.7626 12.8972 16.8753 13.9067 16.3037C14.9089 15.7391 16.0933 15.5252 17.2413 15.697C17.9009 14.922 18.4111 14.0593 18.7682 13.1229C18.0357 12.2392 17.6348 11.1415 17.6348 10.0053C17.6348 8.86551 18.0357 7.77135 18.7682 6.8876C18.4111 5.95125 17.9009 5.08855 17.2413 4.31352C16.0969 4.48536 14.9089 4.27144 13.9103 3.70682C12.8972 3.13519 12.1246 2.25145 11.7055 1.18885C11.1224 1.10468 10.3499 1.0626 9.82507 1.0626C9.31851 1.0626 8.81195 1.10468 8.31268 1.18534C7.89359 2.24794 7.11735 3.13519 6.10423 3.70682C5.10204 4.27144 3.91764 4.48536 2.77332 4.31352C2.1137 5.08855 1.6035 5.95125 1.24636 6.8876C1.97886 7.77135 2.37974 8.86902 2.37974 10.0053C2.37974 11.145 1.97886 12.2392 1.24636 13.1229C1.6035 14.0593 2.1137 14.922 2.77332 15.697C3.91764 15.5252 5.10569 15.7391 6.10423 16.3037C7.11006 16.8753 7.88265 17.7626 8.30539 18.8252Z" fill="#606975"/>
</svg>
