<svg width="20" height="20" viewBox="0 0 20 20" fill="none" xmlns="http://www.w3.org/2000/svg">
<path fill-rule="evenodd" clip-rule="evenodd" d="M0 10C0 15.5136 4.6111 20 10.278 20C14.5301 20 18.2844 17.5109 19.8439 13.6591C19.9859 13.309 19.8083 12.9127 19.4487 12.7745C19.088 12.6382 18.6815 12.8082 18.5395 13.16C17.1931 16.4864 13.95 18.6364 10.278 18.6364C5.38372 18.6364 1.40153 14.7617 1.40153 10C1.40153 5.23829 5.38372 1.36363 10.278 1.36363C13.95 1.36363 17.1931 3.51361 18.5395 6.84095C18.6824 7.19268 19.0889 7.3628 19.4487 7.2263C19.8083 7.08731 19.9859 6.6918 19.8439 6.34191C18.2844 2.48906 14.5301 0 10.278 0C4.6111 0 0 4.48639 0 10ZM12.5616 5.67954C12.741 5.67954 12.9203 5.74579 13.0568 5.87945L16.7808 9.50271C16.9158 9.62701 17 9.80293 17 9.99787C17 10.1867 16.921 10.3576 16.7935 10.4811L13.0568 14.1167C12.7831 14.383 12.3393 14.383 12.0654 14.1167C11.7917 13.8503 11.7917 13.4185 12.0654 13.1522L14.6066 10.6797H4.82548C4.43866 10.6797 4.12472 10.3742 4.12472 9.99787C4.12472 9.62151 4.43866 9.31606 4.82548 9.31606H14.6071L12.0654 6.84308C11.7917 6.57675 11.7917 6.14495 12.0654 5.87862C12.2028 5.74579 12.3823 5.67954 12.5616 5.67954Z" fill="black"/>
</svg>
