<svg fill="none" height="20" viewBox="0 0 123 20" width="123" xmlns="http://www.w3.org/2000/svg" xmlns:xlink="http://www.w3.org/1999/xlink"><linearGradient id="a" gradientUnits="userSpaceOnUse" x1=".31582" x2="124.041" y1="9.39164" y2="9.39164"><stop offset=".117549" stop-color="#5468ad"/><stop offset=".548659" stop-color="#448ed7"/><stop offset="1" stop-color="#30acea"/></linearGradient><path d="m20.0455 0-.0001 10.1729c.0078 5.4093-4.472 9.8047-10.0157 9.8271-5.54918-.015-10.03738124-4.4125-10.02969013-9.8271l-.0000085-10.1729h3.47529863v10.1729c-.0077 3.5418 2.92457 6.4212 6.5544 6.4361 3.6298-.0112 6.5652-2.8875 6.5613-6.4293v-10.1797zm6.7999 20v-9.558c-.0074-1.798.6795-3.52528 1.9093-4.80136 1.2298-1.27609 2.9017-1.99629 4.6475-2.00197 3.6272.01183 6.5606 3.04588 6.5567 6.78193v9.5579h3.4729v-10.73078c.0039-5.71149-4.4843-9.1741516-10.0296-9.1859916-5.5426.0197205-10.0235 4.6572616-10.0158 10.3659716v9.558zm37.6914-20c-5.5221.0379612-9.9764 4.50623-9.9686 10-.0078 5.4938 4.4465 9.962 9.9686 10h6.7359v-3.4507h-6.7359c-3.6228-.0152-6.5494-2.9452-6.5417-6.5493-.0038-3.6041 2.9259-6.53103 6.5486-6.54244h6.729v-3.45065965zm-14.4232 20v-20h-3.3409v20zm27.841 0v-20h-3.341v20zm39.9474-20v1.86464c.008 3.60547-2.922 6.53554-6.545 6.54696-3.622-.01522-6.549-2.94305-6.546-6.54696v-1.86464h-3.47v1.86464c.003 4.84313 3.49 8.98966 8.28 9.84806v8.2873h3.471v-8.2873c4.796-.8525 8.29-5.00057 8.294-9.84806v-1.86464zm-36.6065 0v3.44827h7.0864v16.55173h3.6453v-16.55173h7.0864v-3.44827zm38.0455 20v-1.964h.932v-.2582h-2.228v.2582h.932v1.9171zm1.234 0v-1.8834l.673 1.8676h.277l.681-1.836v1.836h.294v-2.1907h-.42l-.555 1.5288c-.059.1576-.101.2758-.118.3546l-.117-.3231-.555-1.576h-.462v2.1907z" fill="url(#a)"/></svg>