<svg fill="none" height="20" viewBox="0 0 20 20" width="20" xmlns="http://www.w3.org/2000/svg" xmlns:xlink="http://www.w3.org/1999/xlink"><linearGradient id="a" gradientUnits="userSpaceOnUse" x1="26.4939" x2="2.07159" y1="16.5564" y2="5.43922"><stop offset="0" stop-color="#1c9cfc"/><stop offset="1" stop-color="#4cdfff"/></linearGradient><path clip-rule="evenodd" d="m20 18.9999c0 .5523-.4477 1-1 1h-18c-.552285 0-1-.4477-1-1v-11.55696c0-.32935.162168-.63758.433593-.82413l9.060497-6.227116c.34301-.235742.79621-.234381 1.13771.003416l8.9395 6.22329c.2686.18696.4287.49349.4287.82071zm-13.77484-4.685c0-.3019.24474-.5467.54665-.5467h6.45389c.3019 0 .5466.2448.5466.5467s-.2447.5466-.5466.5466h-6.45389c-.30191 0-.54665-.2447-.54665-.5466z" fill="url(#a)" fill-rule="evenodd"/></svg>