<svg fill="none" height="20" viewBox="0 0 20 20" width="20" xmlns="http://www.w3.org/2000/svg"><path d="m16.2645 5.92909h-10.0774c-.17453 0-.31601-.14065-.31601-.31415 0-.17351.14148-.31416.31601-.31416h10.0774c.4206 0 .7539.37365.6273.80886l-.0009.00292-1.6027 5.13284-.0035.009c-.1333.3494-.461.6436-.907.6436h-7.23121c-.17453 0-.316-.1406-.316-.3141s.14147-.3142.316-.3142h7.23121c.1274 0 .2455-.0799.3051-.2281l1.5945-5.10632c.0007-.00255-.0009-.00509-.0036-.00551-.0024-.0004-.0055-.00068-.0092-.00068z" style="fill-rule:evenodd;clip-rule:evenodd;fill:#606975;stroke:#606975;stroke-width:.2;stroke-miterlimit:10;stroke-linejoin:round"/><path clip-rule="evenodd" d="m6.19281 5.37626c-.13254 0-.23998.10681-.23998.23857s.10744.23858.23998.23858h10.07739c.0076 0 .0147.00057.0213.00163.0488.00781.0766.05535.0651.09919l-.0736-.01905.0726.02241-1.5963 5.11201c-.0694.1727-.213.2756-.3759.2756h-7.2312c-.13253 0-.23997.1068-.23997.2386 0 .1317.10744.2386.23997.2386h7.2312c.4086 0 .7116-.2692.836-.595l.0026-.0068 1.6018-5.12986.0007-.00219m-.6428-.08398-1.5649 5.01153c-.0499.1219-.1421.1779-.2334.1779h-7.2312c-.21651 0-.39203.1745-.39203.3898 0 .2152.17552.3897.39203.3897h7.2312c.4833 0 .8357-.3194.9781-.6924l.0035-.009 1.6043-5.13723.0012-.00431c.1423-.48906-.235-.90546-.7003-.90546h-10.07739c-.21651 0-.39203.17449-.39203.38973 0 .21525.17552.38974.39203.38974z" fill="#606975" fill-rule="evenodd"/><path d="m5.95283 5.61483c0-.13176.10744-.23857.23998-.23857l10.63169.71229-.0007.00219-1.6018 5.12986-.0026.0068c-.1244.3258-.4274.595-.836.595h-7.2312c-.13253 0-.23997-.1069-.23997-.2386 0-.1318.10744-.2386.23997-.2386h7.2312c.1629 0 .3065-.1029.3759-.2756l1.5963-5.11201-.0726-.02241.0736.01905c.0115-.04384-.0163-.09138-.0651-.09919-.0066-.00106-.0137-.00163-.0213-.00163h-10.07739c-.13254 0-.23998-.10682-.23998-.23858zm10.22887.38974-1.5649 5.01153c-.0499.1219-.1421.1779-.2334.1779h-7.2312c-.21651 0-.39203.1745-.39203.3898 0 .2152.17552.3897.39203.3897h7.2312c.4833 0 .8357-.3194.9781-.6924l.0035-.009 1.6043-5.13723.0012-.00431c.1423-.48906-.235-.90546-.7003-.90546h-10.07739c-.21651 0-.39203.17449-.39203.38973 0 .21525.17552.38974.39203.38974z" stroke="#606975" stroke-linejoin="round" stroke-miterlimit="10" stroke-width=".2"/><path d="m2.15234 4.36764c0-.16313.13303-.29537.29712-.29537h1.76627c.45971 0 .79752.27668.935.60519l.00396.00945 2.67556 8.02089.00182.0065c.02587.0927.14674.1898.30653.1898h6.7904c.1641 0 .2971.1322.2971.2953 0 .1632-.133.2954-.2971.2954h-6.7904c-.43081 0-.83496-.2541-.94408-.63l-2.66467-7.98817c-.06152-.13881-.18303-.21361-.31412-.21361h-1.76627c-.16409 0-.29712-.13224-.29712-.29538z" style="fill-rule:evenodd;clip-rule:evenodd;fill:#606975;stroke:#606975;stroke-width:.2;stroke-miterlimit:10;stroke-linejoin:round"/><path clip-rule="evenodd" d="m1.99994 4.37096c0-.20488.16706-.37096.37314-.37096h1.84845c.49286 0 .85688.29736 1.0052.65174l.00612.01463 2.67655 8.02443.00173.0066c.01489.0534.10021.1344.23327.1344h6.7904c.2061 0 .3732.1661.3732.371 0 .2048-.1671.3709-.3732.3709h-6.7904c-.45599 0-.8955-.2685-1.0167-.6831l-2.66303-7.9833c-.0502-.11037-.14427-.16538-.24314-.16538h-1.84845c-.20608 0-.37314-.16608-.37314-.37096zm.37314-.2198c-.1221 0-.22109.09841-.22109.2198s.09899.2198.22109.2198h1.84845c.16238 0 .31049.09356.38369.25871l.00291.00657 2.66529 7.99116c.09765.3363.46588.5754.87098.5754h6.7904c.1221 0 .2211-.0985.2211-.2198 0-.1214-.099-.2198-.2211-.2198h-6.7904c-.18653 0-.34295-.1132-.37979-.2452l-.00131-.0047-2.67409-8.01643-.00287-.00686c-.12666-.30264-.43826-.55865-.86481-.55865z" fill="#606975" fill-rule="evenodd"/><path d="m7.91113 12.6974-.00173-.0066-2.67655-8.02443-.00612-.01463c-.14832-.35438-.51234-.65174-1.0052-.65174h-1.84845c-.20608 0-.37314.16608-.37314.37096s.16706.37096.37314.37096h1.84845c.09887 0 .19294.05501.24315.16538l2.66302 7.9833c.1212.4146.56071.6831 1.0167.6831h6.7904c.2061 0 .3732-.1661.3732-.3709 0-.2049-.1671-.371-.3732-.371h-6.7904c-.13306 0-.21838-.081-.23327-.1344zm0 0-.07326.0202m-2.75153-8.00779.00287.00686 2.67409 8.01643.00131.0047c.03684.132.19326.2452.37979.2452h6.7904c.1221 0 .2211.0984.2211.2198 0 .1213-.099.2198-.2211.2198h-6.7904c-.4051 0-.77333-.2391-.87098-.5754l-2.66529-7.99116-.00291-.00657c-.0732-.16515-.22131-.25871-.38369-.25871h-1.84845c-.1221 0-.22109-.09841-.22109-.2198s.09899-.2198.22109-.2198h1.84845c.42655 0 .73815.25601.86481.55865zm0 0 .07019-.02903" stroke="#606975" stroke-linejoin="round" stroke-miterlimit="10" stroke-width=".2"/><g clip-rule="evenodd" fill="#606975" fill-rule="evenodd"><path d="m8.3163 15.0394c-.35324 0-.6396.2813-.6396.6284 0 .347.28636.6283.6396.6283s.63959-.2813.63959-.6283c0-.3471-.28635-.6284-.63959-.6284zm-1.27919.6284c0-.6941.57271-1.2567 1.27919-1.2567.70647 0 1.27919.5626 1.27919 1.2567 0 .694-.57272 1.2566-1.27919 1.2566-.70648 0-1.27919-.5626-1.27919-1.2566z" stroke="#606975" stroke-linejoin="round" stroke-miterlimit="10" stroke-width=".2"/><path d="m6.96094 15.6677c0-.7367.60761-1.3323 1.35521-1.3323.74761 0 1.35522.5956 1.35522 1.3323 0 .7366-.60761 1.3322-1.35522 1.3322-.7476 0-1.35521-.5956-1.35521-1.3322zm1.35521-1.1811c-.66534 0-1.20316.5296-1.20316 1.1811 0 .6514.53782 1.181 1.20316 1.181.66535 0 1.20316-.5296 1.20316-1.181 0-.6515-.53781-1.1811-1.20316-1.1811zm0 .6283c-.31211 0-.56357.2483-.56357.5528 0 .3044.25146.5527.56357.5527s.56357-.2483.56357-.5527c0-.3045-.25146-.5528-.56357-.5528zm-.71562.5528c0-.3896.32125-.7039.71562-.7039s.71562.3143.71562.7039c0 .3895-.32125.7038-.71562.7038s-.71562-.3143-.71562-.7038z" stroke="#606975" stroke-linejoin="round" stroke-miterlimit="10" stroke-width=".2"/><path d="m13.8651 15.0394c-.3532 0-.6396.2813-.6396.6284 0 .347.2864.6283.6396.6283.3533 0 .6396-.2813.6396-.6283 0-.3471-.2863-.6284-.6396-.6284zm-1.2792.6284c0-.6941.5727-1.2567 1.2792-1.2567s1.2792.5626 1.2792 1.2567c0 .694-.5727 1.2566-1.2792 1.2566s-1.2792-.5626-1.2792-1.2566z" stroke="#606975" stroke-linejoin="round" stroke-miterlimit="10" stroke-width=".2"/><path d="m12.5098 15.6677c0-.7367.6076-1.3323 1.3552-1.3323s1.3552.5956 1.3552 1.3323c0 .7366-.6076 1.3322-1.3552 1.3322s-1.3552-.5956-1.3552-1.3322zm1.3552-1.1811c-.6654 0-1.2032.5296-1.2032 1.1811 0 .6514.5378 1.181 1.2032 1.181.6653 0 1.2031-.5296 1.2031-1.181 0-.6515-.5378-1.1811-1.2031-1.1811zm0 .6283c-.3121 0-.5636.2483-.5636.5528 0 .3044.2515.5527.5636.5527s.5635-.2483.5635-.5527c0-.3045-.2514-.5528-.5635-.5528zm-.7156.5528c0-.3896.3212-.7039.7156-.7039.3943 0 .7156.3143.7156.7039 0 .3895-.3213.7038-.7156.7038-.3944 0-.7156-.3143-.7156-.7038z" stroke="#606975" stroke-linejoin="round" stroke-miterlimit="10" stroke-width=".2"/><path d="m1.97995.952381c-.54358 0-1.027569.472879-1.027569 1.111109v15.87301c0 .6382.483989 1.1111 1.027569 1.1111h16.04015c.5435 0 1.0275-.4729 1.0275-1.1111v-15.87301c0-.63823-.484-1.111109-1.0275-1.111109zm-1.97995 1.111109c0-1.115046.862523-2.06349 1.97995-2.06349h16.04015c1.1174 0 1.9799.948444 1.9799 2.06349v15.87301c0 1.1151-.8625 2.0635-1.9799 2.0635h-16.04015c-1.117427 0-1.97995-.9484-1.97995-2.0635z"/></g></svg>