<svg fill="none" height="22" viewBox="0 0 22 22" width="22" xmlns="http://www.w3.org/2000/svg"><g stroke="#606975"><path d="m19.9474 4.5v-2.5c0-.55228-.4477-1-1-1h-16.9474c-.55228 0-1 .44771-1 1v15.9474c0 .5523.44772 1 1 1h5.82105"/><g stroke-linecap="round" stroke-linejoin="round" stroke-miterlimit="10"><path d="m11.7681 10.4053h-1.0866"/><path d="m11.7681 8.23242h-1.0866"/><path d="m18.2852 10.4053h-4.0747"/><path d="m18.2842 8.23242h-4.0747"/><path d="m6.05942 4.1582h12.76738c1.2021 0 2.1732.97114 2.1732 2.17318v14.66892l-1.6299-1.0866-1.6299 1.0866-1.6298-1.0866-1.6299 1.0866-1.6299-1.0866-1.6299 1.0866-1.62987-1.0866-1.62988 1.0866v-14.94057c0-1.05263-.8489-1.90153-1.90153-1.90153zm0 0c-1.05263 0-1.90153.8489-1.90153 1.90153v2.17318h1.62989"/><path d="m10.002 15.0234h4.0747"/><path d="m15.9339 16.3818c.1562.3192.4822.5433.8557.5433h.5433c.5229 0 .9508-.4278.9508-.9507 0-.523-.4279-.9508-.9508-.9508h-.5433c-.5229 0-.9507-.4278-.9507-.9508 0-.5229.4278-.9507.9507-.9507h.5433c.3803 0 .7063.2241.8557.5433"/><path d="m17.0601 12.5791v.5433"/><path d="m17.0601 16.9258v.5433"/></g></g></svg>