<svg width="20" height="20" viewBox="0 0 20 20" fill="none" xmlns="http://www.w3.org/2000/svg">
<path fill-rule="evenodd" clip-rule="evenodd" d="M1 1H7.88889L7.88889 7.88889L1 7.88889V1ZM0 1C0 0.447716 0.447715 0 1 0H7.88889C8.44117 0 8.88889 0.447715 8.88889 1V7.88889C8.88889 8.44117 8.44117 8.88889 7.88889 8.88889H1C0.447716 8.88889 0 8.44117 0 7.88889V1ZM1 12.1111H7.88889L7.88889 19H1V12.1111ZM0 12.1111C0 11.5588 0.447715 11.1111 1 11.1111H7.88889C8.44117 11.1111 8.88889 11.5588 8.88889 12.1111V19C8.88889 19.5523 8.44117 20 7.88889 20H1C0.447716 20 0 19.5523 0 19V12.1111ZM19.0001 1H12.1112V7.88889L19.0001 7.88889V1ZM12.1112 0C11.5589 0 11.1112 0.447716 11.1112 1V7.88889C11.1112 8.44117 11.5589 8.88889 12.1112 8.88889H19.0001C19.5524 8.88889 20.0001 8.44117 20.0001 7.88889V1C20.0001 0.447715 19.5524 0 19.0001 0H12.1112ZM12.4183 14.3878H11.1113V11.1111H15.5898V12.4028H12.4183V14.3878ZM19.9996 15H16.6662V13.7083H18.7208V11.1111H19.9996V15ZM17.7774 20H19.9997V15.5556H18.6447V18.8889H17.7774V20ZM16.5262 20H11.1111V16.6708H12.4181V18.8889H15.2192V15.5556H16.5262V20Z" fill="#606975"/>
</svg>
