<svg fill="none" height="20" viewBox="0 0 20 20" width="20" xmlns="http://www.w3.org/2000/svg" xmlns:xlink="http://www.w3.org/1999/xlink"><linearGradient id="a" gradientUnits="userSpaceOnUse" x1="26.4942" x2="1.98113" y1="16.5194" y2="5.48151"><stop offset="0" stop-color="#1c9cfc"/><stop offset="1" stop-color="#4cdfff"/></linearGradient><path clip-rule="evenodd" d="m0 1.42688c0-.788047.638835-1.42688 1.42688-1.42688h16.12122c.788 0 1.4269.638835 1.4269 1.42688v2.06601c.6229.46808 1.0253 1.2133 1.0253 2.05385v13.95386c0 .1844-.1015.3538-.2641.4408s-.3599.0775-.5133-.0248l-1.2731-.8487-1.273.8487c-.168.112-.3868.112-.5547 0l-1.2731-.8487-1.2731.8487c-.1679.112-.3867.112-.5547 0l-1.2731-.8487-1.273.8487c-.168.112-.3868.112-.55475 0l-1.27307-.8487-1.27308.8487c-.15343.1023-.3507.1118-.51328.0248s-.26407-.2564-.26407-.4408v-1.4769h-5.16997c-.788044 0-1.42688-.6388-1.42688-1.4269zm18.0237 0v1.62069c-.1896-.04452-.3873-.06806-.5907-.06806h-12.14498c-1.27746 0-2.30883 1.03137-2.30883 2.30883v2.06723c0 .27614.22386.5.5.5h1.55043c.27614 0 .5-.22386.5-.5s-.22386-.5-.5-.5h-1.05043v-1.56723c0-.72518.58366-1.30883 1.30883-1.30883.72518 0 1.30883.58365 1.30883 1.30883v11.78416h-5.16997c-.26268 0-.475629-.213-.475629-.4757v-15.16992c0-.26268.212949-.475629.475629-.475629h16.12122c.2627 0 .4756.212939.4756.475629zm-6.3314 6.1832c0-.27614-.2239-.5-.5-.5h-1.0337c-.2761 0-.49996.22386-.49996.5 0 .27615.22386.5.49996.5h1.0337c.2761 0 .5-.22385.5-.5zm0 2.06725c0-.27614-.2239-.5-.5-.5h-1.0337c-.2761 0-.49996.22386-.49996.5s.22386.49997.49996.49997h1.0337c.2761 0 .5-.22383.5-.49997zm5.6996-.5c.2762 0 .5.22386.5.5s-.2238.49997-.5.49997h-3.876c-.2762 0-.5-.22383-.5-.49997s.2238-.5.5-.5zm.4973-1.56663c0-.27614-.2238-.5-.5-.5h-3.876c-.2762 0-.5.22386-.5.5 0 .27615.2238.50001.5.50001h3.876c.2762 0 .5-.22386.5-.50001zm-1.6642 3.6338c.2762 0 .5.2239.5.5v.0377c.4584.0789.8385.3804 1.0277.7845.117.2501.0092.5478-.2409.6648-.2501.1171-.5478.0093-.6648-.2408-.0631-.1347-.2009-.2288-.3612-.2288h-.2548-.006-.006-.25c-.2213 0-.4044.1831-.4044.4044s.1831.4044.4044.4044h.5168c.7736 0 1.4045.6309 1.4045 1.4044 0 .6921-.505 1.2699-1.1653 1.384v.0373c0 .2762-.2238.5-.5.5-.2761 0-.5-.2238-.5-.5v-.0384c-.4526-.0809-.8266-.3821-1.0191-.7755-.1213-.248-.0187-.5475.2294-.6689.248-.1213.5475-.0187.6689.2294.071.1451.2145.2366.3648.2366h.2322c.0042-.0002.0084-.0004.0127-.0005.0037-.0001.0074-.0001.0111-.0001.008 0 .016.0002.0239.0006h.2369c.2213 0 .4045-.1832.4045-.4045s-.1832-.4044-.4045-.4044h-.5168c-.7735 0-1.4044-.6308-1.4044-1.4044 0-.6904.5025-1.2671 1.1604-1.3831v-.0387c0-.2761.2239-.5.5-.5zm-6.71238 2.3258c-.27614 0-.5.2238-.5.5 0 .2761.22386.5.5.5h3.87608c.2761 0 .5-.2239.5-.5 0-.2762-.2239-.5-.5-.5z" fill="url(#a)" fill-rule="evenodd"/></svg>