<svg fill="none" height="20" viewBox="0 0 20 20" width="20" xmlns="http://www.w3.org/2000/svg" xmlns:xlink="http://www.w3.org/1999/xlink"><linearGradient id="a" gradientUnits="userSpaceOnUse" x1="26.4939" x2="1.98124" y1="16.5189" y2="5.48106"><stop offset="0" stop-color="#1c9cfc"/><stop offset="1" stop-color="#4cdfff"/></linearGradient><path clip-rule="evenodd" d="m0 2.06349c0-1.115046.862523-2.06349 1.97995-2.06349h16.04015c1.1174 0 1.9799.948444 1.9799 2.06349v15.87301c0 1.1151-.8625 2.0635-1.9799 2.0635h-16.04015c-1.117427 0-1.97995-.9484-1.97995-2.0635zm14.4422 3.86561h1.8223c.0037 0 .0068.00028.0092.00067.0027.00042.0043.00297.0036.00552l-.0357.11436-.0724-.00485.0125-.04008h-.6107zm1.1288.07562.5982.04008-1.5524 4.9715c-.0499.1219-.1421.1779-.2334.1779h-6.9732l-2.17735-6.52783-.00612-.01463c-.14832-.35438-.51234-.65174-1.0052-.65174h-1.84845c-.20608 0-.37314.16608-.37314.37096s.16706.37096.37314.37096h1.84845c.09887 0 .19294.05501.24314.16538l2.66303 7.9833c.1212.4146.56071.6831 1.0167.6831h6.7904c.2061 0 .3732-.1661.3732-.3709 0-.2049-.1671-.371-.3732-.371h-6.7904c-.13306 0-.21838-.081-.23327-.1344l-.00173-.0066-.23921-.7171h6.71321c.4833 0 .8357-.3194.9781-.6925l.0035-.009 1.6043-5.13718.0012-.00431c.1423-.48906-.235-.90546-.7003-.90546h-10.07739c-.21651 0-.39203.17449-.39203.38974 0 .21524.17552.38973.39203.38973zm-13.41717-1.66224c-.00121.00932-.00184.01883-.00184.02848 0 .01603.00173.03167.00501.04673-.00279-.01625-.00424-.03295-.00424-.04999 0-.00849.00036-.0169.00107-.02522zm6.16232 9.99312c-.7476 0-1.35521.5956-1.35521 1.3322s.60761 1.3322 1.35521 1.3322c.74761 0 1.35522-.5956 1.35522-1.3322s-.60761-1.3322-1.35522-1.3322zm-.56357 1.3322c0-.3044.25146-.5528.56357-.5528s.56357.2484.56357.5528-.25146.5527-.56357.5527-.56357-.2483-.56357-.5527zm6.11252-.6283c-.3532 0-.6396.2813-.6396.6283 0 .3471.2864.6284.6396.6284.3533 0 .6396-.2813.6396-.6284 0-.347-.2863-.6283-.6396-.6283zm-.0001-.7039c-.7476 0-1.3552.5956-1.3552 1.3322s.6076 1.3322 1.3552 1.3322 1.3552-.5956 1.3552-1.3322-.6076-1.3322-1.3552-1.3322z" fill="url(#a)" fill-rule="evenodd"/></svg>