<svg fill="none" height="20" viewBox="0 0 20 20" width="20" xmlns="http://www.w3.org/2000/svg" xmlns:xlink="http://www.w3.org/1999/xlink"><linearGradient id="a" gradientUnits="userSpaceOnUse" x1="24.706" x2=".745587" y1="15.4" y2="5.01962"><stop offset="0" stop-color="#1c9cfc"/><stop offset="1" stop-color="#4cdfff"/></linearGradient><path clip-rule="evenodd" d="m1 0c-.552285 0-1 .447716-1 1v6.88889c0 .55228.447716 1 1 1h6.88889c.55228 0 1-.44772 1-1v-6.88889c0-.552285-.44772-1-1-1zm0 11.1111c-.552285 0-1 .4477-1 1v6.8889c0 .5523.447716 1 1 1h6.88889c.55228 0 1-.4477 1-1v-6.8889c0-.5523-.44772-1-1-1zm10.1112-10.1111c0-.552284.4477-1 1-1h6.8889c.5523 0 1 .447715 1 1v6.88889c0 .55228-.4477 1-1 1h-6.8889c-.5523 0-1-.44772-1-1zm1.3071 13.3878h-1.307v-3.2767h4.4785v1.2917h-3.1715zm7.5813.6122h-3.3334v-1.2917h2.0546v-2.5972h1.2788zm-2.2222 5h2.2223v-4.4444h-1.355v3.3333h-.8673zm-1.2512 0h-5.4151v-3.3292h1.307v2.2181h2.8011v-3.3333h1.307z" fill="url(#a)" fill-rule="evenodd"/></svg>