<svg width="20" height="20" viewBox="0 0 20 20" fill="none" xmlns="http://www.w3.org/2000/svg">
<path fill-rule="evenodd" clip-rule="evenodd" d="M1 0C0.447715 0 0 0.447716 0 1V7.88889C0 8.44117 0.447716 8.88889 1 8.88889H7.88889C8.44117 8.88889 8.88889 8.44117 8.88889 7.88889V1C8.88889 0.447715 8.44117 0 7.88889 0H1ZM1 11.1111C0.447715 11.1111 0 11.5588 0 12.1111V19C0 19.5523 0.447716 20 1 20H7.88889C8.44117 20 8.88889 19.5523 8.88889 19V12.1111C8.88889 11.5588 8.44117 11.1111 7.88889 11.1111H1ZM11.1112 1C11.1112 0.447716 11.5589 0 12.1112 0H19.0001C19.5524 0 20.0001 0.447715 20.0001 1V7.88889C20.0001 8.44117 19.5524 8.88889 19.0001 8.88889H12.1112C11.5589 8.88889 11.1112 8.44117 11.1112 7.88889V1ZM12.4183 14.3878H11.1113V11.1111H15.5898V12.4028H12.4183V14.3878ZM19.9996 15H16.6662V13.7083H18.7208V11.1111H19.9996V15ZM17.7774 20H19.9997V15.5556H18.6447V18.8889H17.7774V20ZM16.5262 20H11.1111V16.6708H12.4181V18.8889H15.2192V15.5556H16.5262V20Z" fill="url(#paint0_linear_13:1530)"/>
<defs>
<linearGradient id="paint0_linear_13:1530" x1="24.706" y1="15.4" x2="0.745587" y2="5.01962" gradientUnits="userSpaceOnUse">
<stop stop-color="#1C9CFC"/>
<stop offset="1" stop-color="#4CDFFF"/>
</linearGradient>
</defs>
</svg>
