<svg width="22" height="22" viewBox="0 0 22 22" fill="none" xmlns="http://www.w3.org/2000/svg">
<path fill-rule="evenodd" clip-rule="evenodd" d="M1.95238 3.06349C1.95238 2.42526 2.43637 1.95238 2.97995 1.95238H19.0201C19.5636 1.95238 20.0476 2.42526 20.0476 3.06349V18.9365C20.0476 19.5747 19.5636 20.0476 19.0201 20.0476H2.97995C2.43637 20.0476 1.95238 19.5747 1.95238 18.9365V3.06349ZM2.97995 1C1.86252 1 1 1.94844 1 3.06349V18.9365C1 20.0516 1.86252 21 2.97995 21H19.0201C20.1375 21 21 20.0516 21 18.9365V3.06349C21 1.94844 20.1375 1 19.0201 1H2.97995ZM13.8703 18.3732H11.7114C11.4957 18.3732 11.3298 18.2256 11.3298 18.0498V9.99991C11.3298 9.81709 11.504 9.67645 11.7114 9.67645H13.8703C14.086 9.67645 14.2519 9.82412 14.2519 9.99991V18.0498C14.2519 18.2326 14.0777 18.3732 13.8703 18.3732ZM12.0847 17.7263H13.4887V10.3234H12.0847V17.7263ZM4.38156 18.3731H6.54047C6.74784 18.3731 6.92204 18.2325 6.92204 18.0496V13.69C6.92204 13.5142 6.75614 13.3666 6.54047 13.3666H4.38156C4.17419 13.3666 4 13.5072 4 13.69V18.0496C4 18.2254 4.17419 18.3731 4.38156 18.3731ZM6.16721 17.7262H4.76313V14.0064H6.16721V17.7262ZM10.2191 18.3732H8.06019C7.85282 18.3732 7.68692 18.2255 7.67863 18.0497L7.68005 12.8234C7.68005 12.6405 7.85425 12.4999 8.06162 12.4999H10.2205C10.4362 12.4999 10.6021 12.6476 10.6021 12.8234L10.6007 18.0497C10.6007 18.2325 10.4265 18.3732 10.2191 18.3732ZM8.44175 17.7262H9.84584L9.84727 13.1468H8.44318L8.44175 17.7262ZM17.6181 18.3732H15.4591C15.2518 18.3732 15.0776 18.2326 15.0776 18.0498V4.32346C15.0776 4.14766 15.2435 4 15.4591 4H17.6181C17.8254 4 17.9996 4.14063 17.9996 4.32346V18.0498C17.9996 18.2256 17.8337 18.3732 17.6181 18.3732ZM15.8407 17.7263H17.2448V4.64691H15.8407V17.7263ZM5.29649 4.71363C5.20074 4.71363 5.12312 4.7908 5.12312 4.88599C5.12312 4.92409 5.19209 5.35039 5.2801 5.88368L4.77375 4.36561L4.77039 4.35759C4.68902 4.16315 4.48929 4 4.21887 4H3.2047C3.09163 4 2.99997 4.09112 2.99997 4.20353C2.99997 4.31594 3.09163 4.40707 3.2047 4.40707H4.21887C4.27312 4.40707 4.32474 4.43725 4.35228 4.49781L5.81339 8.87794C5.87989 9.10541 6.12103 9.25277 6.37122 9.25277H10.0969C10.21 9.25277 10.3016 9.16164 10.3016 9.04923C10.3016 8.93683 10.21 8.8457 10.0969 8.8457H6.37122C6.29822 8.8457 6.2514 8.80124 6.24323 8.77195L6.24228 8.76837L6.09717 8.33331H9.79039C10.0351 8.33331 10.2149 8.17185 10.2881 7.98015L10.2899 7.97522L11.1693 5.15902L11.1698 5.15742C11.2392 4.91863 11.0564 4.71363 10.8256 4.71363H5.29649ZM3.08501 4.22325C3.08407 4.21622 3.08359 4.20905 3.08359 4.20177L3.08378 4.19386C3.08352 4.19705 3.08339 4.20028 3.08339 4.20353C3.08339 4.21025 3.08395 4.21683 3.08501 4.22325ZM6.46572 9.6707C6.05553 9.6707 5.72216 9.99748 5.72216 10.4016C5.72216 10.8058 6.05553 11.1326 6.46572 11.1326C6.8759 11.1326 7.20928 10.8058 7.20928 10.4016C7.20928 9.99748 6.8759 9.6707 6.46572 9.6707ZM6.15651 10.4016C6.15651 10.2346 6.29447 10.0984 6.46572 10.0984C6.63696 10.0984 6.77493 10.2346 6.77493 10.4016C6.77493 10.5687 6.63696 10.7049 6.46572 10.7049C6.29447 10.7049 6.15651 10.5687 6.15651 10.4016ZM9.51108 9.6707C9.10089 9.6707 8.76752 9.99748 8.76752 10.4016C8.76752 10.8058 9.10089 11.1326 9.51108 11.1326C9.92127 11.1326 10.2546 10.8058 10.2546 10.4016C10.2546 9.99748 9.92127 9.6707 9.51108 9.6707ZM9.20187 10.4016C9.20187 10.2346 9.33984 10.0984 9.51108 10.0984C9.68232 10.0984 9.82029 10.2346 9.82029 10.4016C9.82029 10.5687 9.68232 10.7049 9.51108 10.7049C9.33984 10.7049 9.20187 10.5687 9.20187 10.4016Z" fill="white"/>
<path d="M13.4887 17.7263V17.8263C13.544 17.8263 13.5887 17.7815 13.5887 17.7263H13.4887ZM12.0847 17.7263H11.9847C11.9847 17.7815 12.0294 17.8263 12.0847 17.8263V17.7263ZM13.4887 10.3234H13.5887C13.5887 10.2681 13.544 10.2234 13.4887 10.2234V10.3234ZM12.0847 10.3234V10.2234C12.0294 10.2234 11.9847 10.2681 11.9847 10.3234H12.0847ZM4.76313 17.7262H4.66313C4.66313 17.7814 4.7079 17.8262 4.76313 17.8262V17.7262ZM6.16721 17.7262V17.8262C6.22243 17.8262 6.26721 17.7814 6.26721 17.7262H6.16721ZM4.76313 14.0064V13.9064C4.7079 13.9064 4.66313 13.9512 4.66313 14.0064H4.76313ZM6.16721 14.0064H6.26721C6.26721 13.9512 6.22243 13.9064 6.16721 13.9064V14.0064ZM7.67863 18.0497L7.57851 18.0497L7.57874 18.0544L7.67863 18.0497ZM7.68005 12.8234L7.78005 12.8234V12.8234H7.68005ZM10.6021 12.8234L10.7021 12.8234V12.8234H10.6021ZM10.6007 18.0497L10.5007 18.0497V18.0497H10.6007ZM9.84584 17.7262V17.8262C9.90106 17.8262 9.94582 17.7815 9.94584 17.7263L9.84584 17.7262ZM8.44175 17.7262L8.34175 17.7262C8.34174 17.7527 8.35228 17.7782 8.37103 17.7969C8.38979 17.8157 8.41523 17.8262 8.44175 17.8262V17.7262ZM9.84727 13.1468L9.94727 13.1468C9.94727 13.1203 9.93674 13.0949 9.91799 13.0761C9.89923 13.0574 9.87379 13.0468 9.84727 13.0468V13.1468ZM8.44318 13.1468V13.0468C8.38796 13.0468 8.3432 13.0916 8.34318 13.1468L8.44318 13.1468ZM17.2448 17.7263V17.8263C17.3 17.8263 17.3448 17.7815 17.3448 17.7263H17.2448ZM15.8407 17.7263H15.7407C15.7407 17.7815 15.7855 17.8263 15.8407 17.8263V17.7263ZM17.2448 4.64691H17.3448C17.3448 4.59168 17.3 4.54691 17.2448 4.54691V4.64691ZM15.8407 4.64691V4.54691C15.7855 4.54691 15.7407 4.59168 15.7407 4.64691H15.8407ZM5.2801 5.88368L5.18524 5.91532C5.20174 5.9648 5.25351 5.99329 5.30414 5.98075C5.35477 5.96821 5.38726 5.91886 5.37877 5.8674L5.2801 5.88368ZM4.77375 4.36561L4.86888 4.33389L4.866 4.32701L4.77375 4.36561ZM4.77039 4.35759L4.67815 4.39619L4.67815 4.3962L4.77039 4.35759ZM4.35228 4.49781L4.44767 4.46599L4.44331 4.4564L4.35228 4.49781ZM5.81339 8.87794L5.90944 8.84986L5.90825 8.8463L5.81339 8.87794ZM6.24323 8.77195L6.14654 8.79749L6.14691 8.79883L6.24323 8.77195ZM6.24228 8.76837L6.33917 8.74278L6.33715 8.73672L6.24228 8.76837ZM6.09717 8.33331V8.23331C6.06502 8.23331 6.03484 8.24877 6.01604 8.27485C5.99725 8.30093 5.99214 8.33446 6.00231 8.36495L6.09717 8.33331ZM10.2881 7.98015L10.3815 8.01582L10.3815 8.01581L10.2881 7.98015ZM10.2899 7.97522L10.3836 8.01095L10.3854 8.00503L10.2899 7.97522ZM11.1693 5.15902L11.2648 5.18884L11.2654 5.18692L11.1693 5.15902ZM11.1698 5.15742L11.0738 5.12949L11.0738 5.12953L11.1698 5.15742ZM3.08359 4.20177L2.98359 4.19936V4.20177H3.08359ZM3.08501 4.22325L2.98635 4.23957C2.99526 4.29345 3.04576 4.33022 3.09977 4.32215C3.15379 4.31409 3.19134 4.26418 3.18413 4.21005L3.08501 4.22325ZM3.08378 4.19386L3.18375 4.19627C3.18505 4.14214 3.14304 4.0968 3.08896 4.094C3.03489 4.09119 2.9884 4.13193 2.98409 4.18591L3.08378 4.19386ZM2.97995 1.85238C2.37678 1.85238 1.85238 2.37449 1.85238 3.06349H2.05238C2.05238 2.47602 2.49596 2.05238 2.97995 2.05238V1.85238ZM19.0201 1.85238H2.97995V2.05238H19.0201V1.85238ZM20.1476 3.06349C20.1476 2.37449 19.6232 1.85238 19.0201 1.85238V2.05238C19.504 2.05238 19.9476 2.47602 19.9476 3.06349H20.1476ZM20.1476 18.9365V3.06349H19.9476V18.9365H20.1476ZM19.0201 20.1476C19.6232 20.1476 20.1476 19.6255 20.1476 18.9365H19.9476C19.9476 19.524 19.504 19.9476 19.0201 19.9476V20.1476ZM2.97995 20.1476H19.0201V19.9476H2.97995V20.1476ZM1.85238 18.9365C1.85238 19.6255 2.37678 20.1476 2.97995 20.1476V19.9476C2.49596 19.9476 2.05238 19.524 2.05238 18.9365H1.85238ZM1.85238 3.06349V18.9365H2.05238V3.06349H1.85238ZM1.1 3.06349C1.1 1.99814 1.92313 1.1 2.97995 1.1V0.9C1.80192 0.9 0.9 1.89875 0.9 3.06349H1.1ZM1.1 18.9365V3.06349H0.9V18.9365H1.1ZM2.97995 20.9C1.92313 20.9 1.1 20.0019 1.1 18.9365H0.9C0.9 20.1013 1.80192 21.1 2.97995 21.1V20.9ZM19.0201 20.9H2.97995V21.1H19.0201V20.9ZM20.9 18.9365C20.9 20.0019 20.0769 20.9 19.0201 20.9V21.1C20.1981 21.1 21.1 20.1013 21.1 18.9365H20.9ZM20.9 3.06349V18.9365H21.1V3.06349H20.9ZM19.0201 1.1C20.0769 1.1 20.9 1.99814 20.9 3.06349H21.1C21.1 1.89875 20.1981 0.9 19.0201 0.9V1.1ZM2.97995 1.1H19.0201V0.9H2.97995V1.1ZM11.7114 18.4732H13.8703V18.2732H11.7114V18.4732ZM11.2298 18.0498C11.2298 18.2944 11.4551 18.4732 11.7114 18.4732V18.2732C11.5363 18.2732 11.4298 18.1568 11.4298 18.0498H11.2298ZM11.2298 9.99991V18.0498H11.4298V9.99991H11.2298ZM11.7114 9.57645C11.4664 9.57645 11.2298 9.74573 11.2298 9.99991H11.4298C11.4298 9.88844 11.5416 9.77645 11.7114 9.77645V9.57645ZM13.8703 9.57645H11.7114V9.77645H13.8703V9.57645ZM14.3519 9.99991C14.3519 9.75532 14.1266 9.57645 13.8703 9.57645V9.77645C14.0454 9.77645 14.1519 9.89291 14.1519 9.99991H14.3519ZM14.3519 18.0498V9.99991H14.1519V18.0498H14.3519ZM13.8703 18.4732C14.1153 18.4732 14.3519 18.3039 14.3519 18.0498H14.1519C14.1519 18.1612 14.0401 18.2732 13.8703 18.2732V18.4732ZM13.4887 17.6263H12.0847V17.8263H13.4887V17.6263ZM13.3887 10.3234V17.7263H13.5887V10.3234H13.3887ZM12.0847 10.4234H13.4887V10.2234H12.0847V10.4234ZM12.1847 17.7263V10.3234H11.9847V17.7263H12.1847ZM6.54047 18.2731H4.38156V18.4731H6.54047V18.2731ZM6.82204 18.0496C6.82204 18.1611 6.71026 18.2731 6.54047 18.2731V18.4731C6.78543 18.4731 7.02204 18.3038 7.02204 18.0496H6.82204ZM6.82204 13.69V18.0496H7.02204V13.69H6.82204ZM6.54047 13.4666C6.71553 13.4666 6.82204 13.583 6.82204 13.69H7.02204C7.02204 13.4454 6.79675 13.2666 6.54047 13.2666V13.4666ZM4.38156 13.4666H6.54047V13.2666H4.38156V13.4666ZM4.1 13.69C4.1 13.5785 4.21178 13.4666 4.38156 13.4666V13.2666C4.1366 13.2666 3.9 13.4358 3.9 13.69H4.1ZM4.1 18.0496V13.69H3.9V18.0496H4.1ZM4.38156 18.2731C4.21329 18.2731 4.1 18.1554 4.1 18.0496H3.9C3.9 18.2955 4.13509 18.4731 4.38156 18.4731V18.2731ZM4.76313 17.8262H6.16721V17.6262H4.76313V17.8262ZM4.66313 14.0064V17.7262H4.86313V14.0064H4.66313ZM6.16721 13.9064H4.76313V14.1064H6.16721V13.9064ZM6.26721 17.7262V14.0064H6.06721V17.7262H6.26721ZM8.06019 18.4732H10.2191V18.2732H8.06019V18.4732ZM7.57874 18.0544C7.58998 18.2927 7.80911 18.4732 8.06019 18.4732V18.2732C7.89652 18.2732 7.78386 18.1583 7.77851 18.045L7.57874 18.0544ZM7.58005 12.8233L7.57863 18.0497L7.77863 18.0497L7.78005 12.8234L7.58005 12.8233ZM8.06162 12.3999C7.81666 12.3999 7.58005 12.5692 7.58005 12.8234H7.78005C7.78005 12.7119 7.89184 12.5999 8.06162 12.5999V12.3999ZM10.2205 12.3999H8.06162V12.5999H10.2205V12.3999ZM10.7021 12.8234C10.7021 12.5788 10.4768 12.3999 10.2205 12.3999V12.5999C10.3956 12.5999 10.5021 12.7164 10.5021 12.8234H10.7021ZM10.7007 18.0497L10.7021 12.8234L10.5021 12.8233L10.5007 18.0497L10.7007 18.0497ZM10.2191 18.4732C10.4641 18.4732 10.7007 18.3039 10.7007 18.0497H10.5007C10.5007 18.1612 10.3889 18.2732 10.2191 18.2732V18.4732ZM9.84584 17.6262H8.44175V17.8262H9.84584V17.6262ZM9.74727 13.1468L9.74584 17.7262L9.94584 17.7263L9.94727 13.1468L9.74727 13.1468ZM8.44318 13.2468H9.84727V13.0468H8.44318V13.2468ZM8.54175 17.7263L8.54318 13.1468L8.34318 13.1468L8.34175 17.7262L8.54175 17.7263ZM15.4591 18.4732H17.6181V18.2732H15.4591V18.4732ZM14.9776 18.0498C14.9776 18.3039 15.2142 18.4732 15.4591 18.4732V18.2732C15.2894 18.2732 15.1776 18.1612 15.1776 18.0498H14.9776ZM14.9776 4.32346V18.0498H15.1776V4.32346H14.9776ZM15.4591 3.9C15.2029 3.9 14.9776 4.07887 14.9776 4.32346H15.1776C15.1776 4.21646 15.2841 4.1 15.4591 4.1V3.9ZM17.6181 3.9H15.4591V4.1H17.6181V3.9ZM18.0996 4.32346C18.0996 4.06928 17.863 3.9 17.6181 3.9V4.1C17.7878 4.1 17.8996 4.21199 17.8996 4.32346H18.0996ZM18.0996 18.0498V4.32346H17.8996V18.0498H18.0996ZM17.6181 18.4732C17.8743 18.4732 18.0996 18.2944 18.0996 18.0498H17.8996C17.8996 18.1568 17.7931 18.2732 17.6181 18.2732V18.4732ZM17.2448 17.6263H15.8407V17.8263H17.2448V17.6263ZM17.1448 4.64691V17.7263H17.3448V4.64691H17.1448ZM15.8407 4.74691H17.2448V4.54691H15.8407V4.74691ZM15.9407 17.7263V4.64691H15.7407V17.7263H15.9407ZM5.22312 4.88599C5.22312 4.84658 5.25542 4.81363 5.29649 4.81363V4.61363C5.14607 4.61363 5.02312 4.73502 5.02312 4.88599H5.22312ZM5.37877 5.8674C5.33476 5.60077 5.29556 5.36114 5.26737 5.18347C5.25326 5.09459 5.24197 5.02154 5.23422 4.9685C5.23033 4.94193 5.22741 4.92082 5.22547 4.90544C5.22317 4.88718 5.22312 4.88317 5.22312 4.88599H5.02312C5.02312 4.89834 5.02522 4.91599 5.02703 4.93042C5.02921 4.94773 5.03236 4.97034 5.03632 4.99742C5.04425 5.05169 5.0557 5.12569 5.06984 5.21481C5.09814 5.39314 5.13743 5.6333 5.18144 5.89996L5.37877 5.8674ZM4.67889 4.39726L5.18524 5.91532L5.37496 5.85204L4.86861 4.33397L4.67889 4.39726ZM4.67815 4.3962L4.68151 4.40422L4.866 4.32701L4.86264 4.31898L4.67815 4.3962ZM4.21887 4.1C4.44599 4.1 4.61115 4.23611 4.67815 4.39619L4.86264 4.31898C4.76689 4.09019 4.53259 3.9 4.21887 3.9V4.1ZM3.2047 4.1H4.21887V3.9H3.2047V4.1ZM3.09997 4.20353C3.09997 4.1469 3.1463 4.1 3.2047 4.1V3.9C3.03695 3.9 2.89997 4.03534 2.89997 4.20353H3.09997ZM3.2047 4.30707C3.1463 4.30707 3.09997 4.26016 3.09997 4.20353H2.89997C2.89997 4.37172 3.03695 4.50707 3.2047 4.50707V4.30707ZM4.21887 4.30707H3.2047V4.50707H4.21887V4.30707ZM4.44331 4.4564C4.39999 4.36116 4.31342 4.30707 4.21887 4.30707V4.50707C4.22722 4.50707 4.23456 4.5093 4.24088 4.51343C4.24708 4.51749 4.25479 4.525 4.26126 4.53921L4.44331 4.4564ZM5.90825 8.8463L4.44714 4.46616L4.25742 4.52945L5.71853 8.90958L5.90825 8.8463ZM6.37122 9.15277C6.15429 9.15277 5.96053 9.02488 5.90937 8.84988L5.71741 8.906C5.79925 9.18595 6.08778 9.35277 6.37122 9.35277V9.15277ZM10.0969 9.15277H6.37122V9.35277H10.0969V9.15277ZM10.2016 9.04923C10.2016 9.10586 10.1553 9.15277 10.0969 9.15277V9.35277C10.2646 9.35277 10.4016 9.21742 10.4016 9.04923H10.2016ZM10.0969 8.9457C10.1553 8.9457 10.2016 8.99261 10.2016 9.04923H10.4016C10.4016 8.88105 10.2646 8.7457 10.0969 8.7457V8.9457ZM6.37122 8.9457H10.0969V8.7457H6.37122V8.9457ZM6.14691 8.79883C6.15929 8.84318 6.19225 8.87922 6.2269 8.90265C6.26459 8.92814 6.31393 8.9457 6.37122 8.9457V8.7457C6.35551 8.7457 6.34494 8.74103 6.33893 8.73697C6.33742 8.73595 6.33627 8.73501 6.33545 8.73427C6.33462 8.73351 6.33426 8.73307 6.33427 8.73308C6.33429 8.7331 6.33443 8.73328 6.33467 8.73364C6.33491 8.73399 6.33529 8.73459 6.33576 8.73543C6.33661 8.73698 6.33819 8.74019 6.33955 8.74508L6.14691 8.79883ZM6.1456 8.7939L6.14655 8.79748L6.33992 8.74642L6.33897 8.74284L6.1456 8.7939ZM6.00231 8.36495L6.14742 8.80001L6.33715 8.73672L6.19203 8.30167L6.00231 8.36495ZM9.79039 8.23331H6.09717V8.43331H9.79039V8.23331ZM10.1946 7.94449C10.1335 8.10472 9.98633 8.23331 9.79039 8.23331V8.43331C10.0838 8.43331 10.2963 8.23898 10.3815 8.01582L10.1946 7.94449ZM10.1965 7.93956L10.1946 7.9445L10.3815 8.01581L10.3834 8.01088L10.1965 7.93956ZM11.0739 5.12922L10.1945 7.94541L10.3854 8.00503L11.2648 5.18883L11.0739 5.12922ZM11.0738 5.12953L11.0733 5.13113L11.2654 5.18692L11.2658 5.18532L11.0738 5.12953ZM10.8256 4.81363C10.9984 4.81363 11.1223 4.96275 11.0738 5.12949L11.2658 5.18535C11.3562 4.87452 11.1144 4.61363 10.8256 4.61363V4.81363ZM5.29649 4.81363H10.8256V4.61363H5.29649V4.81363ZM2.98359 4.20177C2.98359 4.21348 2.98436 4.22506 2.98588 4.23645L3.18413 4.21005C3.18378 4.20738 3.18359 4.20462 3.18359 4.20177H2.98359ZM2.98381 4.19145L2.98362 4.19936L3.18356 4.20418L3.18375 4.19627L2.98381 4.19145ZM3.18339 4.20353C3.18339 4.20293 3.18342 4.20236 3.18346 4.20182L2.98409 4.18591C2.98363 4.19174 2.98339 4.19762 2.98339 4.20353H3.18339ZM3.18367 4.20693C3.18349 4.20589 3.18339 4.20476 3.18339 4.20353H2.98339C2.98339 4.21574 2.9844 4.22778 2.98635 4.23957L3.18367 4.20693ZM5.82216 10.4016C5.82216 10.0544 6.10906 9.7707 6.46572 9.7707V9.5707C6.00201 9.5707 5.62216 9.94057 5.62216 10.4016H5.82216ZM6.46572 11.0326C6.10906 11.0326 5.82216 10.7489 5.82216 10.4016H5.62216C5.62216 10.8627 6.00201 11.2326 6.46572 11.2326V11.0326ZM7.10928 10.4016C7.10928 10.7489 6.82238 11.0326 6.46572 11.0326V11.2326C6.92943 11.2326 7.30928 10.8627 7.30928 10.4016H7.10928ZM6.46572 9.7707C6.82238 9.7707 7.10928 10.0544 7.10928 10.4016H7.30928C7.30928 9.94057 6.92943 9.5707 6.46572 9.5707V9.7707ZM6.46572 9.99837C6.24088 9.99837 6.05651 10.1778 6.05651 10.4016H6.25651C6.25651 10.2915 6.34806 10.1984 6.46572 10.1984V9.99837ZM6.87493 10.4016C6.87493 10.1778 6.69055 9.99837 6.46572 9.99837V10.1984C6.58337 10.1984 6.67493 10.2915 6.67493 10.4016H6.87493ZM6.46572 10.8049C6.69055 10.8049 6.87493 10.6255 6.87493 10.4016H6.67493C6.67493 10.5118 6.58337 10.6049 6.46572 10.6049V10.8049ZM6.05651 10.4016C6.05651 10.6255 6.24089 10.8049 6.46572 10.8049V10.6049C6.34806 10.6049 6.25651 10.5118 6.25651 10.4016H6.05651ZM8.86752 10.4016C8.86752 10.0544 9.15442 9.7707 9.51108 9.7707V9.5707C9.04737 9.5707 8.66752 9.94057 8.66752 10.4016H8.86752ZM9.51108 11.0326C9.15442 11.0326 8.86752 10.7489 8.86752 10.4016H8.66752C8.66752 10.8627 9.04737 11.2326 9.51108 11.2326V11.0326ZM10.1546 10.4016C10.1546 10.7489 9.86774 11.0326 9.51108 11.0326V11.2326C9.97479 11.2326 10.3546 10.8627 10.3546 10.4016H10.1546ZM9.51108 9.7707C9.86774 9.7707 10.1546 10.0544 10.1546 10.4016H10.3546C10.3546 9.94057 9.97479 9.5707 9.51108 9.5707V9.7707ZM9.51108 9.99837C9.28625 9.99837 9.10187 10.1778 9.10187 10.4016H9.30187C9.30187 10.2915 9.39343 10.1984 9.51108 10.1984V9.99837ZM9.92029 10.4016C9.92029 10.1778 9.73591 9.99837 9.51108 9.99837V10.1984C9.62873 10.1984 9.72029 10.2915 9.72029 10.4016H9.92029ZM9.51108 10.8049C9.73591 10.8049 9.92029 10.6255 9.92029 10.4016H9.72029C9.72029 10.5118 9.62873 10.6049 9.51108 10.6049V10.8049ZM9.10187 10.4016C9.10187 10.6255 9.28625 10.8049 9.51108 10.8049V10.6049C9.39343 10.6049 9.30187 10.5118 9.30187 10.4016H9.10187Z" fill="white"/>
</svg>
