<svg width="20" height="20" viewBox="0 0 20 20" fill="none" xmlns="http://www.w3.org/2000/svg">
<path fill-rule="evenodd" clip-rule="evenodd" d="M1.97995 0.952381C1.43637 0.952381 0.952381 1.42526 0.952381 2.06349V17.9365C0.952381 18.5747 1.43637 19.0476 1.97995 19.0476H18.0201C18.5636 19.0476 19.0476 18.5747 19.0476 17.9365V2.06349C19.0476 1.42526 18.5636 0.952381 18.0201 0.952381H1.97995ZM0 2.06349C0 0.948444 0.862523 0 1.97995 0H18.0201C19.1375 0 20 0.948444 20 2.06349V17.9365C20 19.0516 19.1375 20 18.0201 20H1.97995C0.862523 20 0 19.0516 0 17.9365V2.06349Z" fill="white"/>
<path d="M13.0256 5.76518C13.0256 7.27876 11.6555 9.84019 9.99864 9.84019C8.34178 9.84019 6.97168 7.27876 6.97168 5.76518C6.97168 4.25161 8.34178 3 9.99864 3C11.6874 3 13.0256 4.25161 13.0256 5.76518Z" stroke="white" stroke-width="0.8" stroke-miterlimit="10" stroke-linecap="round" stroke-linejoin="round"/>
<path d="M10 11.9354L7.73775 10.48C7.73775 10.48 3.5 10.1889 3.5 15.632C3.5 15.632 4.23284 17 10 17C15.7672 17 16.5 15.632 16.5 15.632C16.5 10.1889 12.2623 10.48 12.2623 10.48L10 11.9354Z" stroke="white" stroke-width="0.8" stroke-miterlimit="10" stroke-linecap="round" stroke-linejoin="round"/>
</svg>
