<svg width="22" height="22" viewBox="0 0 22 22" fill="none" xmlns="http://www.w3.org/2000/svg">
<path fill-rule="evenodd" clip-rule="evenodd" d="M5.97461 7.36262C5.97461 6.24844 6.83201 5.34521 7.88966 5.34521H13.7821C14.8398 5.34521 15.6972 6.24844 15.6972 7.36262V11.9635C15.6972 12.0492 15.6312 12.1187 15.5499 12.1187C15.4685 12.1187 15.4026 12.0492 15.4026 11.9635V7.36262C15.4026 6.41985 14.6771 5.65559 13.7821 5.65559H7.88966C6.99472 5.65559 6.26923 6.41985 6.26923 7.36262V10.5H5.97461V7.36262Z" fill="white" stroke="white" stroke-width="0.4"/>
<path d="M13.5215 4.6665H13.8662V5.49926H13.5215V4.6665Z" fill="white" stroke="white" stroke-width="0.3"/>
<path d="M7.88379 4.6665H8.2285V5.49926H7.88379V4.6665Z" fill="white" stroke="white" stroke-width="0.3"/>
<path fill-rule="evenodd" clip-rule="evenodd" d="M14.0798 3.31037H7.59804C7.43532 3.31037 7.30341 3.44933 7.30341 3.62074V4.35644H14.3744V3.62074C14.3744 3.44933 14.2425 3.31037 14.0798 3.31037ZM7.59804 3C7.2726 3 7.00879 3.27792 7.00879 3.62074V4.66681H14.669V3.62074C14.669 3.27792 14.4052 3 14.0798 3H7.59804Z" fill="white" stroke="white" stroke-width="0.3"/>
<path d="M18.2997 6.51944L18.2978 5.6755H18.1059L18.1098 6.48694L17.9141 6.49507L17.9062 4.96085L18.4896 4.95679L18.4955 6.51131L18.2997 6.51944Z" fill="white"/>
<path d="M17.3213 5.21216H19.4706C19.5853 5.21216 19.6783 5.11429 19.6783 4.99356C19.6783 4.87283 19.5853 4.77496 19.4706 4.77496H17.7366C17.5072 4.77496 17.3213 4.9707 17.3213 5.21216Z" fill="white" stroke="white" stroke-width="0.3" stroke-linejoin="round"/>
<path fill-rule="evenodd" clip-rule="evenodd" d="M20.998 10.8779C20.998 9.42089 19.8768 8.23975 18.4937 8.23975H17.9045C16.5214 8.23975 15.4002 9.42089 15.4002 10.8779V11.3384H15.6948V10.8779C15.6948 9.5923 16.6841 8.55012 17.9045 8.55012H18.4937C19.7141 8.55012 20.7034 9.5923 20.7034 10.8779V16.5292C20.7034 17.1292 20.2417 17.6155 19.6722 17.6155H15.8421V17.9259H19.6722C20.4045 17.9259 20.998 17.3006 20.998 16.5292V10.8779Z" fill="white" stroke="white" stroke-width="0.4"/>
<path fill-rule="evenodd" clip-rule="evenodd" d="M18.7905 8.21512V7.13814C18.7905 6.79532 18.5267 6.5174 18.2013 6.5174C17.8758 6.5174 17.612 6.79532 17.612 7.13814V8.21512H18.7905ZM18.2013 6.20703C17.7131 6.20703 17.3174 6.6239 17.3174 7.13814V8.52549H19.0851V7.13814C19.0851 6.6239 18.6894 6.20703 18.2013 6.20703Z" fill="white" stroke="white" stroke-width="0.2"/>
<path fill-rule="evenodd" clip-rule="evenodd" d="M5.32454 10.2662C5.28965 10.3013 5.26991 10.35 5.26991 10.4008V18.4372C5.26991 18.4895 5.29077 18.5394 5.32739 18.5746C5.36401 18.6099 5.41302 18.6273 5.46245 18.6227L11.1445 18.0869L11.113 17.716L5.62346 18.2336V10.5956L11.5485 10.8994L11.5645 10.5273L5.45467 10.2148C5.40645 10.2125 5.35944 10.2311 5.32454 10.2662Z" fill="white" stroke="white" stroke-width="0.4" stroke-linejoin="round"/>
<path fill-rule="evenodd" clip-rule="evenodd" d="M5.55671 10.2543C5.59945 10.2896 5.62441 10.3436 5.62441 10.4008V18.4372C5.62441 18.4919 5.60162 18.5437 5.56209 18.5791C5.52255 18.6145 5.47026 18.6298 5.41907 18.621L3.14626 18.229C3.06079 18.2142 2.99805 18.1364 2.99805 18.0452V10.9889C2.99805 10.9031 3.05362 10.8285 3.13266 10.808L5.40547 10.22C5.45821 10.2063 5.51398 10.219 5.55671 10.2543ZM3.3516 11.1349V17.887L5.27086 18.218V10.6383L3.3516 11.1349Z" fill="white" stroke="white" stroke-width="0.4" stroke-linejoin="round"/>
<path fill-rule="evenodd" clip-rule="evenodd" d="M14.3695 11.8365H12.6017C11.7881 11.8365 11.1286 12.5313 11.1286 13.3883V18.7604C11.1286 19.2746 11.5243 19.6915 12.0125 19.6915H14.9587C15.4469 19.6915 15.8426 19.2746 15.8426 18.7603V13.3883C15.8426 12.5313 15.183 11.8365 14.3695 11.8365ZM12.6017 11.5261C11.6254 11.5261 10.834 12.3599 10.834 13.3883V18.7604C10.834 19.446 11.3616 20.0018 12.0125 20.0018H14.9587C15.6096 20.0018 16.1372 19.446 16.1372 18.7603V13.3883C16.1372 12.3599 15.3458 11.5261 14.3695 11.5261H12.6017Z" fill="white" stroke="white" stroke-width="0.4"/>
<path fill-rule="evenodd" clip-rule="evenodd" d="M14.665 10.0865H12.308C12.1453 10.0865 12.0134 10.2255 12.0134 10.3969V10.7159H14.9596V10.3969C14.9596 10.2255 14.8277 10.0865 14.665 10.0865ZM12.308 9.77612C11.9826 9.77612 11.7188 10.054 11.7188 10.3969V11.0262H15.2542V10.3969C15.2542 10.054 14.9904 9.77612 14.665 9.77612H12.308Z" fill="white" stroke="white" stroke-width="0.3"/>
<path d="M12 21H1.80036C1.35925 21 1.00391 20.6284 1.00391 20.1672V4.5L5 1H17.2032C17.6443 1 17.9996 1.37156 17.9996 1.8328V6" stroke="white" stroke-width="0.8" stroke-miterlimit="10" stroke-linecap="round" stroke-linejoin="round"/>
<path d="M1 4.6436H5V1L1 4.6436Z" stroke="white" stroke-width="0.8" stroke-miterlimit="10" stroke-linecap="round" stroke-linejoin="round"/>
</svg>
