<svg width="22" height="22" viewBox="0 0 22 22" fill="none" xmlns="http://www.w3.org/2000/svg">
<path d="M19.9474 4.5V2C19.9474 1.44772 19.4997 1 18.9474 1H2C1.44772 1 1 1.44771 1 2V17.9474C1 18.4997 1.44772 18.9474 2 18.9474H7.82105" stroke="white"/>
<path d="M11.7676 10.4058H10.681" stroke="white" stroke-miterlimit="10" stroke-linecap="round" stroke-linejoin="round"/>
<path d="M11.7676 8.23242H10.681" stroke="white" stroke-miterlimit="10" stroke-linecap="round" stroke-linejoin="round"/>
<path d="M18.2852 10.4058H14.2105" stroke="white" stroke-miterlimit="10" stroke-linecap="round" stroke-linejoin="round"/>
<path d="M18.2842 8.23242H14.2095" stroke="white" stroke-miterlimit="10" stroke-linecap="round" stroke-linejoin="round"/>
<path d="M6.05942 4.15796H18.8268C20.0289 4.15796 21 5.1291 21 6.33113V21.0001L19.3701 19.9135L17.7402 21.0001L16.1104 19.9135L14.4805 21.0001L12.8506 19.9135L11.2207 21.0001L9.59083 19.9135L7.96095 21.0001V6.05949C7.96095 5.00686 7.11205 4.15796 6.05942 4.15796ZM6.05942 4.15796C5.00679 4.15796 4.15789 5.00686 4.15789 6.05949V8.23266H5.78778" stroke="white" stroke-miterlimit="10" stroke-linecap="round" stroke-linejoin="round"/>
<path d="M10.002 15.0239H14.0767" stroke="white" stroke-miterlimit="10" stroke-linecap="round" stroke-linejoin="round"/>
<path d="M15.9339 16.3821C16.0901 16.7013 16.4161 16.9254 16.7896 16.9254H17.3329C17.8558 16.9254 18.2837 16.4975 18.2837 15.9746C18.2837 15.4517 17.8558 15.0238 17.3329 15.0238H16.7896C16.2667 15.0238 15.8389 14.596 15.8389 14.0731C15.8389 13.5502 16.2667 13.1223 16.7896 13.1223H17.3329C17.7132 13.1223 18.0392 13.3464 18.1886 13.6656" stroke="white" stroke-miterlimit="10" stroke-linecap="round" stroke-linejoin="round"/>
<path d="M17.0605 12.5791V13.1224" stroke="white" stroke-miterlimit="10" stroke-linecap="round" stroke-linejoin="round"/>
<path d="M17.0605 16.9255V17.4688" stroke="white" stroke-miterlimit="10" stroke-linecap="round" stroke-linejoin="round"/>
</svg>
