<svg width="22" height="22" viewBox="0 0 22 22" fill="none" xmlns="http://www.w3.org/2000/svg">
<path d="M19.9761 1.0007C19.9694 1.00043 19.9439 1 19.9375 1H14.5387C14.3769 1 14.2457 1.13117 14.2457 1.29297C14.2457 1.45477 14.3769 1.58594 14.5387 1.58594H18.988C18.9157 1.72934 18.875 1.89125 18.875 2.0625V10.7148C18.875 10.8766 19.0062 11.0078 19.168 11.0078C19.3298 11.0078 19.4609 10.8766 19.4609 10.7148V2.0625C19.4589 1.80492 19.6814 1.58234 19.9464 1.58547C20.1933 1.58863 20.4139 1.81469 20.4141 2.08086V19.2266C20.4141 19.8814 19.8551 20.4141 19.1681 20.4141C18.4813 20.4141 17.9223 19.8814 17.9223 19.2266V17.0145H18.3789C18.9755 17.0145 19.4609 16.5291 19.4609 15.9324V10.082C19.4609 9.92023 19.3298 9.78906 19.168 9.78906C19.0062 9.78906 18.875 9.92023 18.875 10.082V15.9324C18.875 16.206 18.6525 16.4285 18.3789 16.4285H17.9223V4.52852C17.9223 3.93188 17.4367 3.44648 16.8398 3.44648H3.20391V2.0625C3.20391 1.79973 3.4175 1.58594 3.68008 1.58594H15.1715C15.3333 1.58594 15.4645 1.45477 15.4645 1.29297C15.4645 1.13117 15.3333 1 15.1715 1H3.68008C3.09441 1 2.61797 1.47664 2.61797 2.0625V3.44648H2.08203C1.48539 3.44648 1 3.93188 1 4.52852V13.1668C1 13.3286 1.13117 13.4598 1.29297 13.4598C1.45477 13.4598 1.58594 13.3286 1.58594 13.1668V4.52852C1.58594 4.25496 1.80848 4.03242 2.08203 4.03242H16.8398C17.1136 4.03242 17.3363 4.25496 17.3363 4.52852V19.2266C17.3363 19.6829 17.5152 20.0995 17.8087 20.4141H2.83203C2.14492 20.4141 1.58594 19.8814 1.58594 19.2266V12.534C1.58594 12.3722 1.45477 12.241 1.29297 12.241C1.13117 12.241 1 12.3722 1 12.534V19.2266C1 20.2045 1.82184 21 2.83203 21H19.168C20.178 21 21 20.2044 21 19.2266V2.08086C21 1.49559 20.5502 1.02109 19.9761 1.0007Z" fill="white"/>
<path d="M19.9761 1.0007L19.9719 1.10062L19.9725 1.10064L19.9761 1.0007ZM18.988 1.58594L19.0773 1.63094L19.1504 1.48594H18.988V1.58594ZM19.4609 2.0625H19.5609L19.5609 2.06173L19.4609 2.0625ZM19.9464 1.58547L19.9477 1.48548L19.9476 1.48548L19.9464 1.58547ZM20.4141 2.08086H20.5141V2.08079L20.4141 2.08086ZM17.9223 17.0145V16.9145H17.8223V17.0145H17.9223ZM17.9223 16.4285H17.8223V16.5285H17.9223V16.4285ZM3.20391 3.44648H3.10391V3.54648H3.20391V3.44648ZM2.61797 3.44648V3.54648H2.71797V3.44648H2.61797ZM17.8087 20.4141V20.5141H18.0387L17.8818 20.3458L17.8087 20.4141ZM19.9802 0.900788C19.9718 0.900443 19.9448 0.9 19.9375 0.9V1.1C19.9397 1.1 19.9468 1.10009 19.9549 1.10023C19.9632 1.10038 19.97 1.10054 19.9719 1.10062L19.9802 0.900788ZM19.9375 0.9H14.5387V1.1H19.9375V0.9ZM14.5387 0.9C14.3216 0.9 14.1457 1.07594 14.1457 1.29297H14.3457C14.3457 1.1864 14.4321 1.1 14.5387 1.1V0.9ZM14.1457 1.29297C14.1457 1.50999 14.3216 1.68594 14.5387 1.68594V1.48594C14.4321 1.48594 14.3457 1.39954 14.3457 1.29297H14.1457ZM14.5387 1.68594H18.988V1.48594H14.5387V1.68594ZM18.8987 1.54093C18.8196 1.69793 18.775 1.87522 18.775 2.0625H18.975C18.975 1.90728 19.0119 1.76074 19.0773 1.63094L18.8987 1.54093ZM18.775 2.0625V10.7148H18.975V2.0625H18.775ZM18.775 10.7148C18.775 10.9319 18.9509 11.1078 19.168 11.1078V10.9078C19.0614 10.9078 18.975 10.8214 18.975 10.7148H18.775ZM19.168 11.1078C19.385 11.1078 19.5609 10.9319 19.5609 10.7148H19.3609C19.3609 10.8214 19.2745 10.9078 19.168 10.9078V11.1078ZM19.5609 10.7148V2.0625H19.3609V10.7148H19.5609ZM19.5609 2.06173C19.5594 1.86089 19.7355 1.68299 19.9453 1.68546L19.9476 1.48548C19.6274 1.4817 19.3585 1.74896 19.3609 2.06327L19.5609 2.06173ZM19.9452 1.68546C20.134 1.68788 20.3139 1.86615 20.3141 2.08093L20.5141 2.08079C20.5138 1.76323 20.2525 1.48938 19.9477 1.48548L19.9452 1.68546ZM20.3141 2.08086V19.2266H20.5141V2.08086H20.3141ZM20.3141 19.2266C20.3141 19.8217 19.8045 20.3141 19.1681 20.3141V20.5141C19.9058 20.5141 20.5141 19.9411 20.5141 19.2266H20.3141ZM19.1681 20.3141C18.5319 20.3141 18.0223 19.8217 18.0223 19.2266H17.8223C17.8223 19.9411 18.4306 20.5141 19.1681 20.5141V20.3141ZM18.0223 19.2266V17.0145H17.8223V19.2266H18.0223ZM17.9223 17.1145H18.3789V16.9145H17.9223V17.1145ZM18.3789 17.1145C19.0308 17.1145 19.5609 16.5843 19.5609 15.9324H19.3609C19.3609 16.4738 18.9203 16.9145 18.3789 16.9145V17.1145ZM19.5609 15.9324V10.082H19.3609V15.9324H19.5609ZM19.5609 10.082C19.5609 9.86501 19.385 9.68906 19.168 9.68906V9.88906C19.2745 9.88906 19.3609 9.97546 19.3609 10.082H19.5609ZM19.168 9.68906C18.9509 9.68906 18.775 9.86501 18.775 10.082H18.975C18.975 9.97546 19.0614 9.88906 19.168 9.88906V9.68906ZM18.775 10.082V15.9324H18.975V10.082H18.775ZM18.775 15.9324C18.775 16.1507 18.5972 16.3285 18.3789 16.3285V16.5285C18.7077 16.5285 18.975 16.2612 18.975 15.9324H18.775ZM18.3789 16.3285H17.9223V16.5285H18.3789V16.3285ZM18.0223 16.4285V4.52852H17.8223V16.4285H18.0223ZM18.0223 4.52852C18.0223 3.87661 17.4919 3.34648 16.8398 3.34648V3.54648C17.3815 3.54648 17.8223 3.98714 17.8223 4.52852H18.0223ZM16.8398 3.34648H3.20391V3.54648H16.8398V3.34648ZM3.30391 3.44648V2.0625H3.10391V3.44648H3.30391ZM3.30391 2.0625C3.30391 1.85487 3.47281 1.68594 3.68008 1.68594V1.48594C3.36219 1.48594 3.10391 1.74458 3.10391 2.0625H3.30391ZM3.68008 1.68594H15.1715V1.48594H3.68008V1.68594ZM15.1715 1.68594C15.3885 1.68594 15.5645 1.50999 15.5645 1.29297H15.3645C15.3645 1.39954 15.2781 1.48594 15.1715 1.48594V1.68594ZM15.5645 1.29297C15.5645 1.07594 15.3885 0.9 15.1715 0.9V1.1C15.2781 1.1 15.3645 1.1864 15.3645 1.29297H15.5645ZM15.1715 0.9H3.68008V1.1H15.1715V0.9ZM3.68008 0.9C3.03915 0.9 2.51797 1.42145 2.51797 2.0625H2.71797C2.71797 1.53183 3.14968 1.1 3.68008 1.1V0.9ZM2.51797 2.0625V3.44648H2.71797V2.0625H2.51797ZM2.61797 3.34648H2.08203V3.54648H2.61797V3.34648ZM2.08203 3.34648C1.43016 3.34648 0.9 3.87665 0.9 4.52852H1.1C1.1 3.9871 1.54062 3.54648 2.08203 3.54648V3.34648ZM0.9 4.52852V13.1668H1.1V4.52852H0.9ZM0.9 13.1668C0.9 13.3838 1.07594 13.5598 1.29297 13.5598V13.3598C1.1864 13.3598 1.1 13.2734 1.1 13.1668H0.9ZM1.29297 13.5598C1.50999 13.5598 1.68594 13.3838 1.68594 13.1668H1.48594C1.48594 13.2734 1.39954 13.3598 1.29297 13.3598V13.5598ZM1.68594 13.1668V4.52852H1.48594V13.1668H1.68594ZM1.68594 4.52852C1.68594 4.31019 1.86371 4.13242 2.08203 4.13242V3.93242C1.75325 3.93242 1.48594 4.19973 1.48594 4.52852H1.68594ZM2.08203 4.13242H16.8398V3.93242H2.08203V4.13242ZM16.8398 4.13242C17.0584 4.13242 17.2363 4.31027 17.2363 4.52852H17.4363C17.4363 4.19966 17.1687 3.93242 16.8398 3.93242V4.13242ZM17.2363 4.52852V19.2266H17.4363V4.52852H17.2363ZM17.2363 19.2266C17.2363 19.7096 17.4259 20.1502 17.7356 20.4823L17.8818 20.3458C17.6046 20.0487 17.4363 19.6561 17.4363 19.2266H17.2363ZM17.8087 20.3141H2.83203V20.5141H17.8087V20.3141ZM2.83203 20.3141C2.19556 20.3141 1.68594 19.8217 1.68594 19.2266H1.48594C1.48594 19.9411 2.09429 20.5141 2.83203 20.5141V20.3141ZM1.68594 19.2266V12.534H1.48594V19.2266H1.68594ZM1.68594 12.534C1.68594 12.317 1.50999 12.141 1.29297 12.141V12.341C1.39954 12.341 1.48594 12.4274 1.48594 12.534H1.68594ZM1.29297 12.141C1.07594 12.141 0.9 12.317 0.9 12.534H1.1C1.1 12.4274 1.1864 12.341 1.29297 12.341V12.141ZM0.9 12.534V19.2266H1.1V12.534H0.9ZM0.9 19.2266C0.9 20.2627 1.7697 21.1 2.83203 21.1V20.9C1.87398 20.9 1.1 20.1462 1.1 19.2266H0.9ZM2.83203 21.1H19.168V20.9H2.83203V21.1ZM19.168 21.1C20.2302 21.1 21.1 20.2627 21.1 19.2266H20.9C20.9 20.1461 20.1259 20.9 19.168 20.9V21.1ZM21.1 19.2266V2.08086H20.9V19.2266H21.1ZM21.1 2.08086C21.1 1.44341 20.6092 0.923127 19.9796 0.900766L19.9725 1.10064C20.4912 1.11906 20.9 1.54777 20.9 2.08086H21.1Z" fill="white"/>
<path fill-rule="evenodd" clip-rule="evenodd" d="M3.49902 13.2079C3.49902 13.1094 3.64263 13.0295 3.81979 13.0295H6.47826C6.65541 13.0295 6.79902 13.1094 6.79902 13.2079V18.8218C6.79902 18.9202 6.65541 19.0001 6.47826 19.0001H3.81979C3.64263 19.0001 3.49902 18.9202 3.49902 18.8218V13.2079ZM4.14055 13.3862V18.6434H6.15749V13.3862H4.14055Z" fill="white" stroke="white" stroke-width="0.3" stroke-miterlimit="10" stroke-linecap="round" stroke-linejoin="round"/>
<path fill-rule="evenodd" clip-rule="evenodd" d="M7.7998 14.6541C7.7998 14.5527 7.94342 14.4705 8.12057 14.4705H10.779C10.9562 14.4705 11.0998 14.5527 11.0998 14.6541V18.8162C11.0998 18.9176 10.9562 18.9998 10.779 18.9998H8.12057C7.94342 18.9998 7.7998 18.9176 7.7998 18.8162V14.6541ZM8.44134 14.8377V18.6326H10.4583V14.8377H8.44134Z" fill="white" stroke="white" stroke-width="0.3" stroke-miterlimit="10" stroke-linecap="round" stroke-linejoin="round"/>
<path fill-rule="evenodd" clip-rule="evenodd" d="M12.1006 12.178C12.1006 12.0797 12.2442 12 12.4214 12H15.0798C15.257 12 15.4006 12.0797 15.4006 12.178V18.822C15.4006 18.9203 15.257 18.9999 15.0798 18.9999H12.4214C12.2442 18.9999 12.1006 18.9203 12.1006 18.822V12.178ZM12.7421 12.356V18.644H14.7591V12.356H12.7421Z" fill="white" stroke="white" stroke-width="0.3" stroke-miterlimit="10" stroke-linecap="round" stroke-linejoin="round"/>
<path fill-rule="evenodd" clip-rule="evenodd" d="M14.2443 6.95171C14.3516 7.02896 14.3779 7.18132 14.303 7.29201L11.7604 10.3566C11.6855 10.4673 11.5378 10.4944 11.4305 10.4172C11.3232 10.34 11.2969 10.1876 11.3718 10.0769L13.9144 7.01228C13.9893 6.90158 14.137 6.87447 14.2443 6.95171Z" fill="white" stroke="white" stroke-width="0.3" stroke-miterlimit="10" stroke-linecap="round" stroke-linejoin="round"/>
<path fill-rule="evenodd" clip-rule="evenodd" d="M8.03333 8.07695C8.13536 7.98898 8.29385 8.00214 8.38731 8.10635L10.4319 9.72894C10.5253 9.83314 10.5184 9.98893 10.4164 10.0769C10.3143 10.1649 10.1558 10.1517 10.0624 10.0475L8.01781 8.42492C7.92434 8.32071 7.93129 8.16492 8.03333 8.07695Z" fill="white" stroke="white" stroke-width="0.3" stroke-miterlimit="10" stroke-linecap="round" stroke-linejoin="round"/>
<path fill-rule="evenodd" clip-rule="evenodd" d="M7.0794 8.07693C7.16841 8.17301 7.16235 8.32276 7.06587 8.4114L5.17328 10.077C5.07679 10.1657 4.92642 10.1596 4.8374 10.0636C4.74839 9.96747 4.75445 9.81773 4.85094 9.72909L6.74352 8.06346C6.84001 7.97482 6.99038 7.98085 7.0794 8.07693Z" fill="white" stroke="white" stroke-width="0.3" stroke-miterlimit="10" stroke-linecap="round" stroke-linejoin="round"/>
<path fill-rule="evenodd" clip-rule="evenodd" d="M14.5755 5.96278C14.317 5.96278 14.1076 6.17575 14.1076 6.43847C14.1076 6.70118 14.317 6.91415 14.5755 6.91415C14.8339 6.91415 15.0434 6.70118 15.0434 6.43847C15.0434 6.17575 14.8339 5.96278 14.5755 5.96278ZM13.6523 6.43847C13.6523 5.92017 14.0656 5.5 14.5755 5.5C15.0853 5.5 15.4986 5.92017 15.4986 6.43847C15.4986 6.95677 15.0853 7.37693 14.5755 7.37693C14.0656 7.37693 13.6523 6.95677 13.6523 6.43847Z" fill="white" stroke="white" stroke-width="0.3" stroke-miterlimit="10" stroke-linecap="round" stroke-linejoin="round"/>
<path fill-rule="evenodd" clip-rule="evenodd" d="M10.8626 10.0397C10.6041 10.0397 10.3947 10.2527 10.3947 10.5154C10.3947 10.7781 10.6041 10.9911 10.8626 10.9911C11.121 10.9911 11.3305 10.7781 11.3305 10.5154C11.3305 10.2527 11.121 10.0397 10.8626 10.0397ZM9.93945 10.5154C9.93945 9.99707 10.3527 9.5769 10.8626 9.5769C11.3724 9.5769 11.7857 9.99707 11.7857 10.5154C11.7857 11.0337 11.3724 11.4538 10.8626 11.4538C10.3527 11.4538 9.93945 11.0337 9.93945 10.5154Z" fill="white" stroke="white" stroke-width="0.3" stroke-miterlimit="10" stroke-linecap="round" stroke-linejoin="round"/>
<path fill-rule="evenodd" clip-rule="evenodd" d="M7.6526 7.03969C7.39419 7.03969 7.1847 7.25266 7.1847 7.51537C7.1847 7.77808 7.39419 7.99105 7.6526 7.99105C7.91102 7.99105 8.1205 7.77808 8.1205 7.51537C8.1205 7.25266 7.91102 7.03969 7.6526 7.03969ZM6.72949 7.51537C6.72949 6.99707 7.14278 6.5769 7.6526 6.5769C8.16242 6.5769 8.57571 6.99707 8.57571 7.51537C8.57571 8.03367 8.16242 8.45384 7.6526 8.45384C7.14278 8.45384 6.72949 8.03367 6.72949 7.51537Z" fill="white" stroke="white" stroke-width="0.3" stroke-miterlimit="10" stroke-linecap="round" stroke-linejoin="round"/>
<path fill-rule="evenodd" clip-rule="evenodd" d="M4.42213 10.0897C4.16372 10.0897 3.95423 10.3027 3.95423 10.5654C3.95423 10.8281 4.16372 11.0411 4.42213 11.0411C4.68055 11.0411 4.89003 10.8281 4.89003 10.5654C4.89003 10.3027 4.68055 10.0897 4.42213 10.0897ZM3.49902 10.5654C3.49902 10.0471 3.91231 9.62695 4.42213 9.62695C4.93195 9.62695 5.34524 10.0471 5.34524 10.5654C5.34524 11.0837 4.93195 11.5039 4.42213 11.5039C3.91231 11.5039 3.49902 11.0837 3.49902 10.5654Z" fill="white" stroke="white" stroke-width="0.3" stroke-miterlimit="10" stroke-linecap="round" stroke-linejoin="round"/>
</svg>
