<svg width="21" height="20" viewBox="0 0 21 20" fill="none" xmlns="http://www.w3.org/2000/svg">
<path fill-rule="evenodd" clip-rule="evenodd" d="M8.46562 1.15003C10.6307 0.7536 12.8686 1.14109 14.7674 2.24143C16.666 3.34171 18.0966 5.07999 18.7976 7.13522C18.8865 7.39581 19.1709 7.53399 19.4327 7.44387C19.6946 7.35374 19.8349 7.06944 19.746 6.80886C18.967 4.52503 17.3786 2.59684 15.2744 1.37742C13.1702 0.158049 10.6903 -0.271482 8.29024 0.167989C5.89 0.607486 3.72966 1.88685 2.20754 3.77268C0.685309 5.65865 -0.0954402 8.0235 0.00932634 10.432C0.114088 12.8404 1.09711 15.129 2.77564 16.8776C4.45406 18.626 6.71555 19.7178 9.1443 19.953C11.5731 20.1882 14.0077 19.5512 16.0002 18.1573C17.9929 16.7633 19.4093 14.706 19.9875 12.3633C20.0536 12.0952 19.8896 11.8256 19.6211 11.7612C19.3525 11.6968 19.0812 11.8619 19.015 12.13C18.4955 14.2353 17.2223 16.0859 15.4282 17.341C13.6339 18.5962 11.439 19.1714 9.24684 18.9591C7.05462 18.7468 5.01431 17.7614 3.50108 16.185C1.98798 14.6087 1.10407 12.5482 1.00988 10.383C0.915704 8.21789 1.61737 6.09204 2.98634 4.39594C4.35543 2.69971 6.30071 1.54644 8.46562 1.15003ZM16.752 9.64638L13.57 6.4644C13.3747 6.26914 13.0581 6.26914 12.8629 6.4644C12.6676 6.65966 12.6676 6.97624 12.8629 7.17151L15.1913 9.49993H5.31605V10.4999H15.1913L12.8629 12.8284C12.6676 13.0236 12.6676 13.3402 12.8629 13.5355C13.0581 13.7307 13.3747 13.7307 13.57 13.5355L16.752 10.3535C16.9472 10.1582 16.9472 9.84164 16.752 9.64638Z" fill="white"/>
</svg>
