<svg width="14" height="14" viewBox="0 0 14 14" fill="none" xmlns="http://www.w3.org/2000/svg">
<rect width="14" height="14" fill="white"/>
<path d="M12.7119 0.636676C12.7077 0.636504 12.6914 0.63623 12.6874 0.63623H9.25177C9.1488 0.63623 9.06531 0.719702 9.06531 0.822666C9.06531 0.92563 9.1488 1.0091 9.25177 1.0091H12.0831C12.0371 1.10036 12.0112 1.20339 12.0112 1.31237V6.81838C12.0112 6.92134 12.0947 7.00483 12.1977 7.00483C12.3006 7.00483 12.3841 6.92134 12.3841 6.81838V1.31237C12.3828 1.14845 12.5244 1.00681 12.693 1.0088C12.8501 1.01081 12.9905 1.15467 12.9907 1.32405V12.235C12.9907 12.6517 12.6349 12.9907 12.1977 12.9907C11.7607 12.9907 11.405 12.6517 11.405 12.235V10.8273H11.6955C12.0752 10.8273 12.3841 10.5184 12.3841 10.1387V6.41568C12.3841 6.31274 12.3006 6.22927 12.1977 6.22927C12.0947 6.22927 12.0112 6.31274 12.0112 6.41568V10.1387C12.0112 10.3128 11.8696 10.4544 11.6955 10.4544H11.405V2.88165C11.405 2.50197 11.0959 2.19308 10.7161 2.19308H2.03872V1.31237C2.03872 1.14515 2.17464 1.0091 2.34174 1.0091H9.65446C9.75742 1.0091 9.84091 0.92563 9.84091 0.822666C9.84091 0.719702 9.75742 0.63623 9.65446 0.63623H2.34174C1.96904 0.63623 1.66585 0.939547 1.66585 1.31237V2.19308H1.3248C0.945115 2.19308 0.63623 2.50197 0.63623 2.88165V8.37874C0.63623 8.4817 0.719702 8.56519 0.822666 8.56519C0.92563 8.56519 1.0091 8.4817 1.0091 8.37874V2.88165C1.0091 2.70757 1.15072 2.56595 1.3248 2.56595H10.7161C10.8903 2.56595 11.0321 2.70757 11.0321 2.88165V12.235C11.0321 12.5253 11.1459 12.7905 11.3327 12.9907H1.80207C1.36482 12.9907 1.0091 12.6517 1.0091 12.235V7.97605C1.0091 7.87309 0.92563 7.78959 0.822666 7.78959C0.719702 7.78959 0.63623 7.87309 0.63623 7.97605V12.235C0.63623 12.8573 1.15922 13.3635 1.80207 13.3635H12.1977C12.8404 13.3635 13.3635 12.8572 13.3635 12.235V1.32405C13.3635 0.951606 13.0773 0.649651 12.7119 0.636676Z" fill="#1C9CFC" stroke="#1C9CFC" stroke-width="0.2"/>
<path d="M5.93856 6.56206H2.64795V6.376C2.64795 4.6717 4.03872 3.28369 5.74908 3.28369H5.93856V6.56206ZM3.03322 6.18994H5.5596V3.66325C4.20799 3.75628 3.12544 4.83915 3.03322 6.18994Z" fill="#1C9CFC"/>
<path fill-rule="evenodd" clip-rule="evenodd" d="M5.74848 3.38577C4.09417 3.38577 2.74929 4.72838 2.74929 6.37614V6.46026H5.83602V3.38577H5.74848ZM2.54541 6.37614C2.54541 4.61528 3.98207 3.18188 5.74848 3.18188H6.0399V6.66414H2.54541V6.37614ZM5.66094 3.55419V6.29202H2.92349L2.93092 6.18313C3.0266 4.7815 4.14962 3.65821 5.552 3.56169L5.66094 3.55419ZM3.14404 6.08814H5.45706V3.77487C4.2435 3.90936 3.27781 4.87536 3.14404 6.08814Z" fill="#1C9CFC"/>
<path d="M6.21888 10.0799C4.53758 10.0799 3.15691 8.84195 3.00785 7.19967L3.00659 7.16246H3.38555V7.17486C3.52197 8.61992 4.73843 9.70775 6.21888 9.70775C7.78777 9.70775 9.06485 8.45371 9.06485 6.91314C9.06485 5.51894 8.00882 4.33064 6.60542 4.14458H6.58142V3.77246L6.64205 3.7737C8.23872 3.97961 9.44381 5.32916 9.44381 6.91314C9.44381 8.65838 7.99746 10.0799 6.21888 10.0799Z" fill="#1C9CFC"/>
<path fill-rule="evenodd" clip-rule="evenodd" d="M6.47922 3.66846L6.64938 3.67194L6.65483 3.67264C8.301 3.88493 9.54549 5.2766 9.54549 6.91319C9.54549 8.71644 8.05176 10.1819 6.21863 10.1819C4.48627 10.1819 3.06005 8.90538 2.90608 7.20893L2.90555 7.20318L2.90088 7.06057H3.48723V7.17006C3.62077 8.55881 4.79075 9.60586 6.21863 9.60586C7.73297 9.60586 8.96266 8.39571 8.96266 6.91319C8.96266 5.57353 7.94904 4.42892 6.59837 4.24657H6.47922V3.66846ZM6.6831 4.05284C8.10371 4.2728 9.16653 5.48812 9.16653 6.91319C9.16653 8.5118 7.84205 9.80974 6.21863 9.80974C4.71456 9.80974 3.47048 8.72338 3.29245 7.26445H3.11672C3.29493 8.8157 4.61377 9.97798 6.21863 9.97798C7.94263 9.97798 9.34161 8.6004 9.34161 6.91319C9.34161 5.39979 8.20315 4.10511 6.6831 3.88234V4.05284Z" fill="#1C9CFC"/>
<rect x="2.54541" y="10.8181" width="7" height="0.636363" rx="0.318182" fill="#1C9CFC"/>
</svg>
