<svg width="24" height="20" viewBox="0 0 24 20" fill="none" xmlns="http://www.w3.org/2000/svg">
<path d="M19.9889 12.126H9.26743L8.97044 11.248H19.9889C20.2127 11.248 20.416 11.109 20.5167 10.8618L20.5169 10.8619L20.5181 10.858L23.0348 2.90979L23.0349 2.90981L23.0355 2.90754C23.0439 2.876 23.0239 2.84225 22.9896 2.83676C22.983 2.8357 22.9755 2.83506 22.967 2.83506H7.05101C6.80856 2.83506 6.61201 2.63851 6.61201 2.39606C6.61201 2.15361 6.80856 1.95706 7.05101 1.95706H22.967C23.6028 1.95706 24.098 2.51149 23.9091 3.15195L23.9081 3.15555L23.9078 3.15648L21.3788 11.1435L21.3739 11.1561C21.1696 11.6839 20.6688 12.126 19.9889 12.126ZM8.86487 11.248L9.16186 12.126H8.56531C8.32286 12.126 8.12632 11.9295 8.12632 11.687C8.12632 11.4446 8.32286 11.248 8.56531 11.248H8.86487ZM5.38977 0.974528L8.83105 11.148H8.56531C8.27374 11.148 8.03624 11.3795 8.02662 11.6688L4.49764 1.23601L4.49786 1.23593L4.49588 1.23153C4.39085 0.997825 4.1814 0.86954 3.95447 0.86954H0.45977C0.23346 0.86954 0.05 0.68608 0.05 0.45977C0.05 0.23346 0.233461 0.05 0.459771 0.05H3.95447C4.65885 0.05 5.17463 0.467584 5.38426 0.961546L5.38977 0.974528ZM8.14832 12.0286C8.24717 12.1491 8.39726 12.226 8.56531 12.226H9.19569L9.61187 13.4564L9.6144 13.4653C9.66269 13.636 9.87722 13.7971 10.1463 13.7971H20.8736C21.0999 13.7971 21.2833 13.9806 21.2833 14.2069C21.2833 14.4332 21.0999 14.6167 20.8736 14.6167H10.1463C9.48259 14.6167 8.86861 14.2306 8.70417 13.6719L8.7042 13.6719L8.70356 13.67L8.14832 12.0286ZM10.4191 17.016C9.83548 17.016 9.3596 17.4748 9.3596 18.044C9.3596 18.6132 9.83548 19.072 10.4191 19.072C11.0028 19.072 11.4787 18.6132 11.4787 18.044C11.4787 17.4748 11.0028 17.016 10.4191 17.016ZM8.45007 18.044C8.45007 16.9928 9.33014 16.138 10.4191 16.138C11.5081 16.138 12.3882 16.9928 12.3882 18.044C12.3882 19.0952 11.5081 19.95 10.4191 19.95C9.33014 19.95 8.45007 19.0952 8.45007 18.044ZM19.181 17.016C18.5974 17.016 18.1215 17.4748 18.1215 18.044C18.1215 18.6132 18.5974 19.072 19.181 19.072C19.7647 19.072 20.2406 18.6132 20.2406 18.044C20.2406 17.4748 19.7647 17.016 19.181 17.016ZM17.2119 18.044C17.2119 16.9928 18.092 16.138 19.181 16.138C20.27 16.138 21.1501 16.9928 21.1501 18.044C21.1501 19.0952 20.27 19.95 19.181 19.95C18.092 19.95 17.2119 19.0952 17.2119 18.044Z" fill="white" stroke="white" stroke-width="0.1" stroke-miterlimit="10" stroke-linejoin="round"/>
</svg>
