<svg width="26" height="22" viewBox="0 0 26 22" fill="none" xmlns="http://www.w3.org/2000/svg">
<path fill-rule="evenodd" clip-rule="evenodd" d="M11.4195 18.0659C10.8619 18.0659 10.4099 18.5037 10.4099 19.0439C10.4099 19.584 10.8619 20.0219 11.4195 20.0219C11.977 20.0219 12.429 19.584 12.429 19.0439C12.429 18.5037 11.977 18.0659 11.4195 18.0659ZM9.40039 19.0439C9.40039 17.9636 10.3044 17.0879 11.4195 17.0879C12.5346 17.0879 13.4385 17.9636 13.4385 19.0439C13.4385 20.1241 12.5346 20.9999 11.4195 20.9999C10.3044 20.9999 9.40039 20.1241 9.40039 19.0439Z" fill="white" stroke="white" stroke-width="0.1" stroke-miterlimit="10" stroke-linejoin="round"/>
<path fill-rule="evenodd" clip-rule="evenodd" d="M20.1812 18.0659C19.6236 18.0659 19.1716 18.5037 19.1716 19.0439C19.1716 19.584 19.6236 20.0219 20.1812 20.0219C20.7387 20.0219 21.1907 19.584 21.1907 19.0439C21.1907 18.5037 20.7387 18.0659 20.1812 18.0659ZM18.1621 19.0439C18.1621 17.9636 19.0661 17.0879 20.1812 17.0879C21.2963 17.0879 22.2003 17.9636 22.2003 19.0439C22.2003 20.1241 21.2963 20.9999 20.1812 20.9999C19.0661 20.9999 18.1621 20.1241 18.1621 19.0439Z" fill="white" stroke="white" stroke-width="0.1" stroke-miterlimit="10" stroke-linejoin="round"/>
<path fill-rule="evenodd" clip-rule="evenodd" d="M1.45977 1C1.20585 1 1 1.20585 1 1.45977C1 1.71369 1.20585 1.91954 1.45977 1.91954H4.95447C5.16139 1.91954 5.35317 2.03597 5.45028 2.25203L9.6562 14.686C9.82844 15.2711 10.4663 15.6667 11.1463 15.6667H21.8736C22.1275 15.6667 22.3333 15.4608 22.3333 15.2069C22.3333 14.953 22.1275 14.7471 21.8736 14.7471H11.1463C10.8941 14.7471 10.7033 14.596 10.6625 14.4517L10.6596 14.4416L10.2297 13.1706C10.2641 13.1742 10.299 13.176 10.3343 13.176H20.9889C21.6928 13.176 22.21 12.718 22.4205 12.1741L22.426 12.1601L24.9558 4.17064L24.9571 4.1661C25.1569 3.48867 24.6308 2.90706 23.967 2.90706H7.54001C7.27238 2.90706 7.02986 3.01456 6.85327 3.18874L6.43653 1.95673L6.43029 1.94201C6.21328 1.43067 5.68007 1 4.95447 1H1.45977Z" fill="white"/>
<path d="M5.45028 2.25203L5.49786 2.23593L5.49588 2.23153L5.45028 2.25203ZM9.6562 14.686L9.7042 14.6719L9.70356 14.67L9.6562 14.686ZM10.6625 14.4517L10.6144 14.4653H10.6144L10.6625 14.4517ZM10.6596 14.4416L10.7078 14.4279L10.707 14.4255L10.6596 14.4416ZM10.2297 13.1706L10.2349 13.1208C10.218 13.1191 10.2013 13.126 10.1907 13.1393C10.18 13.1526 10.1769 13.1705 10.1824 13.1866L10.2297 13.1706ZM22.4205 12.1741L22.3739 12.1561L22.3739 12.1561L22.4205 12.1741ZM22.426 12.1601L22.4727 12.1782L22.4736 12.1752L22.426 12.1601ZM24.9558 4.17064L25.0034 4.18574L25.0037 4.18481L24.9558 4.17064ZM24.9571 4.1661L25.0051 4.18026L25.0051 4.18024L24.9571 4.1661ZM6.85327 3.18874L6.8059 3.20476C6.81143 3.22108 6.82496 3.23341 6.84172 3.23738C6.85848 3.24136 6.87611 3.23643 6.88838 3.22433L6.85327 3.18874ZM6.43653 1.95673L6.48403 1.94066L6.48256 1.93719L6.43653 1.95673ZM6.43029 1.94201L6.47631 1.92248V1.92248L6.43029 1.94201ZM1.05 1.45977C1.05 1.23346 1.23346 1.05 1.45977 1.05V0.95C1.17823 0.95 0.95 1.17823 0.95 1.45977H1.05ZM1.45977 1.86954C1.23346 1.86954 1.05 1.68608 1.05 1.45977H0.95C0.95 1.74131 1.17823 1.96954 1.45977 1.96954V1.86954ZM4.95447 1.86954H1.45977V1.96954H4.95447V1.86954ZM5.49588 2.23153C5.39085 1.99782 5.1814 1.86954 4.95447 1.86954V1.96954C5.14137 1.96954 5.3155 2.07412 5.40467 2.27252L5.49588 2.23153ZM9.70356 14.67L5.49764 2.23601L5.40291 2.26805L9.60884 14.7021L9.70356 14.67ZM11.1463 15.6167C10.4826 15.6167 9.86861 15.2306 9.70417 14.6719L9.60824 14.7002C9.78826 15.3117 10.4501 15.7167 11.1463 15.7167V15.6167ZM21.8736 15.6167H11.1463V15.7167H21.8736V15.6167ZM22.2833 15.2069C22.2833 15.4332 22.0999 15.6167 21.8736 15.6167V15.7167C22.1551 15.7167 22.3833 15.4884 22.3833 15.2069H22.2833ZM21.8736 14.7971C22.0999 14.7971 22.2833 14.9806 22.2833 15.2069H22.3833C22.3833 14.9254 22.1551 14.6971 21.8736 14.6971V14.7971ZM11.1463 14.7971H21.8736V14.6971H11.1463V14.7971ZM10.6144 14.4653C10.6627 14.636 10.8772 14.7971 11.1463 14.7971V14.6971C10.911 14.6971 10.744 14.556 10.7106 14.4381L10.6144 14.4653ZM10.6115 14.4552L10.6144 14.4653L10.7106 14.4381L10.7078 14.428L10.6115 14.4552ZM10.1824 13.1866L10.6123 14.4576L10.707 14.4255L10.2771 13.1545L10.1824 13.1866ZM10.3343 13.126C10.3007 13.126 10.2676 13.1243 10.2349 13.1208L10.2245 13.2203C10.2606 13.2241 10.2973 13.226 10.3343 13.226V13.126ZM20.9889 13.126H10.3343V13.226H20.9889V13.126ZM22.3739 12.1561C22.1696 12.6839 21.6688 13.126 20.9889 13.126V13.226C21.7167 13.226 22.2505 12.752 22.4672 12.1922L22.3739 12.1561ZM22.3793 12.1421L22.3739 12.1561L22.4672 12.1922L22.4726 12.1782L22.3793 12.1421ZM24.9081 4.15555L22.3783 12.145L22.4736 12.1752L25.0034 4.18574L24.9081 4.15555ZM24.9091 4.15193L24.9078 4.15648L25.0037 4.18481L25.0051 4.18026L24.9091 4.15193ZM23.967 2.95706C24.6028 2.95706 25.098 3.51149 24.9091 4.15195L25.0051 4.18024C25.2158 3.46585 24.6589 2.85706 23.967 2.85706V2.95706ZM7.54001 2.95706H23.967V2.85706H7.54001V2.95706ZM6.88838 3.22433C7.05599 3.05901 7.28605 2.95706 7.54001 2.95706V2.85706C7.25871 2.85706 7.00372 2.97011 6.81816 3.15314L6.88838 3.22433ZM6.38917 1.97275L6.8059 3.20476L6.90063 3.17272L6.48389 1.94071L6.38917 1.97275ZM6.38426 1.96155L6.3905 1.97626L6.48256 1.93719L6.47631 1.92248L6.38426 1.96155ZM4.95447 1.05C5.65885 1.05 6.17463 1.46758 6.38426 1.96155L6.47631 1.92248C6.25193 1.39376 5.7013 0.95 4.95447 0.95V1.05ZM1.45977 1.05H4.95447V0.95H1.45977V1.05Z" fill="white"/>
</svg>
