<svg width="26" height="22" viewBox="0 0 26 22" fill="none" xmlns="http://www.w3.org/2000/svg">
<path fill-rule="evenodd" clip-rule="evenodd" d="M23.967 3.88498H8.05101C7.78094 3.88498 7.56201 3.66605 7.56201 3.39598C7.56201 3.12591 7.78094 2.90698 8.05101 2.90698H23.967C24.6308 2.90698 25.1569 3.48859 24.9571 4.16602L24.9558 4.17056L22.426 12.16L22.4205 12.174C22.21 12.7179 21.6928 13.1759 20.9889 13.1759H9.56531C9.29525 13.1759 9.07632 12.957 9.07632 12.6869C9.07632 12.4169 9.29525 12.1979 9.56531 12.1979H20.9889C21.19 12.1979 21.3764 12.0736 21.4704 11.8429L23.9872 3.89462C23.9882 3.89065 23.9857 3.8867 23.9817 3.88605C23.9778 3.88543 23.9729 3.88498 23.967 3.88498Z" fill="white" stroke="white" stroke-width="0.1" stroke-miterlimit="10" stroke-linejoin="round"/>
<path fill-rule="evenodd" clip-rule="evenodd" d="M1 1.45977C1 1.20585 1.20585 1 1.45977 1H4.95447C5.68007 1 6.21328 1.43067 6.43029 1.94201L6.43653 1.95673L10.6596 14.4416L10.6625 14.4517C10.7033 14.596 10.8941 14.7471 11.1463 14.7471H21.8736C22.1275 14.7471 22.3333 14.953 22.3333 15.2069C22.3333 15.4608 22.1275 15.6667 21.8736 15.6667H11.1463C10.4663 15.6667 9.82844 15.2711 9.6562 14.686L5.45028 2.25203C5.35317 2.03597 5.16139 1.91954 4.95447 1.91954H1.45977C1.20585 1.91954 1 1.71369 1 1.45977Z" fill="white" stroke="white" stroke-width="0.1" stroke-miterlimit="10" stroke-linejoin="round"/>
<path fill-rule="evenodd" clip-rule="evenodd" d="M11.4192 18.0659C10.8617 18.0659 10.4097 18.5037 10.4097 19.0439C10.4097 19.584 10.8617 20.0219 11.4192 20.0219C11.9768 20.0219 12.4288 19.584 12.4288 19.0439C12.4288 18.5037 11.9768 18.0659 11.4192 18.0659ZM9.40015 19.0439C9.40015 17.9636 10.3041 17.0879 11.4192 17.0879C12.5343 17.0879 13.4383 17.9636 13.4383 19.0439C13.4383 20.1241 12.5343 20.9999 11.4192 20.9999C10.3041 20.9999 9.40015 20.1241 9.40015 19.0439Z" fill="white" stroke="white" stroke-width="0.1" stroke-miterlimit="10" stroke-linejoin="round"/>
<path fill-rule="evenodd" clip-rule="evenodd" d="M20.1809 18.0659C19.6234 18.0659 19.1714 18.5037 19.1714 19.0439C19.1714 19.584 19.6234 20.0219 20.1809 20.0219C20.7385 20.0219 21.1905 19.584 21.1905 19.0439C21.1905 18.5037 20.7385 18.0659 20.1809 18.0659ZM18.1619 19.0439C18.1619 17.9636 19.0658 17.0879 20.1809 17.0879C21.296 17.0879 22.2 17.9636 22.2 19.0439C22.2 20.1241 21.296 20.9999 20.1809 20.9999C19.0658 20.9999 18.1619 20.1241 18.1619 19.0439Z" fill="white" stroke="white" stroke-width="0.1" stroke-miterlimit="10" stroke-linejoin="round"/>
</svg>
