<svg width="20" height="20" viewBox="0 0 20 20" fill="none" xmlns="http://www.w3.org/2000/svg">
<rect width="20" height="20" rx="2" fill="white"/>
<path fill-rule="evenodd" clip-rule="evenodd" d="M8.18126 12.011C8.21203 12.0206 8.2406 12.0362 8.26536 12.0568C8.29014 12.0774 8.31061 12.1026 8.32561 12.1312C8.34062 12.1597 8.34985 12.1909 8.3528 12.223C8.35574 12.255 8.35233 12.2874 8.34277 12.3182C8.3332 12.349 8.31767 12.3776 8.29705 12.4023L7.04665 13.905L7.0368 13.9144C6.96831 13.9817 6.87733 14.0213 6.78139 14.0256C6.68545 14.0298 6.59133 13.9984 6.51716 13.9374L6.0658 13.5722C6.04032 13.5521 6.01908 13.5271 6.00331 13.4988C5.98755 13.4704 5.97757 13.4392 5.97396 13.4069C5.97035 13.3746 5.97317 13.342 5.98228 13.3108C5.99138 13.2797 6.00657 13.2506 6.02698 13.2254C6.04739 13.2002 6.07261 13.1792 6.10117 13.1638C6.12973 13.1484 6.16107 13.1388 6.19337 13.1355C6.22567 13.1323 6.25828 13.1355 6.28933 13.145C6.32037 13.1544 6.34923 13.17 6.37423 13.1907C6.58243 13.3592 6.88735 13.3291 7.05867 13.1232L7.91989 12.0884C7.9405 12.0636 7.96578 12.0432 7.99429 12.0282C8.02281 12.0132 8.05399 12.004 8.08607 12.001C8.11815 11.9981 8.1505 12.0015 8.18126 12.011ZM7.70521 15.2537H5.35745C5.2627 15.2536 5.17185 15.216 5.10485 15.149C5.03783 15.082 5.00013 14.9912 5 14.8964V12.5517C5.00012 12.457 5.03782 12.3661 5.10483 12.2991C5.17185 12.2321 5.26269 12.1944 5.35745 12.1944H6.53131C6.59637 12.1944 6.65877 12.2202 6.70477 12.2662C6.75077 12.3122 6.77661 12.3746 6.77661 12.4396C6.77661 12.5047 6.75077 12.5671 6.70477 12.6131C6.65877 12.6591 6.59637 12.685 6.53131 12.685C5.95745 12.685 5.49061 13.1502 5.49061 13.724C5.49061 14.2979 5.95581 14.7631 6.52967 14.7631H6.91161C7.27637 14.7631 7.57205 14.4674 7.57205 14.1026C7.57205 14.0376 7.5979 13.9752 7.6439 13.9292C7.68991 13.8832 7.7523 13.8574 7.81736 13.8574C7.88242 13.8574 7.94481 13.8832 7.99081 13.9292C8.03682 13.9752 8.06266 14.0376 8.06266 14.1026V14.8964C8.06253 14.9912 8.02483 15.082 7.95782 15.149C7.89081 15.216 7.79997 15.2536 7.70521 15.2537Z" fill="#1C9CFC"/>
<path fill-rule="evenodd" clip-rule="evenodd" d="M8.16181 7.34424C8.19239 7.35374 8.22079 7.36918 8.2454 7.38966C8.27003 7.41014 8.29038 7.43526 8.30529 7.46361C8.3202 7.49196 8.32938 7.52295 8.3323 7.55485C8.33523 7.58675 8.33184 7.6189 8.32233 7.64949C8.31283 7.68007 8.29739 7.70848 8.27689 7.7331L7.03414 9.22656L7.02435 9.23595C6.95627 9.30286 6.86585 9.3422 6.7705 9.34642C6.67515 9.35063 6.5816 9.31942 6.50789 9.25879L6.05929 8.89584C6.03396 8.87586 6.01285 8.85105 5.99718 8.82285C5.98151 8.79465 5.97159 8.76361 5.96801 8.73155C5.96442 8.69949 5.96723 8.66704 5.97627 8.63607C5.98532 8.6051 6.00042 8.57624 6.02071 8.55116C6.04099 8.52606 6.06605 8.50525 6.09443 8.48992C6.12282 8.47459 6.15397 8.46504 6.18607 8.46183C6.21817 8.45863 6.25059 8.46183 6.28145 8.47124C6.31231 8.48066 6.34099 8.4961 6.36583 8.51669C6.57276 8.68412 6.87581 8.65425 7.04609 8.44965L7.90205 7.42111C7.92253 7.39649 7.94765 7.37616 7.97599 7.36126C8.00433 7.34636 8.03533 7.33719 8.06721 7.33427C8.09909 7.33135 8.13124 7.33474 8.16181 7.34424ZM7.68868 10.5671H5.35527C5.26109 10.567 5.17081 10.5295 5.10421 10.4629C5.03761 10.3964 5.00013 10.3061 5 10.2119V7.88157C5.00012 7.78739 5.03759 7.69712 5.10419 7.63054C5.17079 7.56396 5.26109 7.52651 5.35527 7.52643H6.52195C6.58661 7.52643 6.64863 7.55211 6.69435 7.59783C6.74007 7.64356 6.76575 7.70558 6.76575 7.77023C6.76575 7.83489 6.74007 7.89691 6.69435 7.94263C6.64863 7.98835 6.58661 8.01403 6.52195 8.01403C5.9516 8.01403 5.48761 8.4764 5.48761 9.04675C5.48761 9.61711 5.94997 10.0795 6.52033 10.0795H6.89993C7.26245 10.0795 7.55633 9.78559 7.55633 9.42307C7.55633 9.3584 7.58202 9.29639 7.62774 9.25067C7.67347 9.20495 7.73547 9.17926 7.80014 9.17926C7.8648 9.17926 7.92681 9.20495 7.97253 9.25067C8.01825 9.29639 8.04394 9.3584 8.04394 9.42307V10.2119C8.04381 10.3061 8.00634 10.3964 7.93974 10.4629C7.87314 10.5295 7.78285 10.567 7.68868 10.5671Z" fill="#1C9CFC"/>
<path d="M14.6194 8.66675H10.0479C9.83758 8.66675 9.66699 8.81598 9.66699 9.00008C9.66699 9.18417 9.83758 9.33341 10.0479 9.33341H14.6194C14.8297 9.33341 15.0003 9.18417 15.0003 9.00008C15.0003 8.81598 14.8297 8.66675 14.6194 8.66675Z" fill="#1C9CFC"/>
<path d="M14.6191 13.3335H10.0477C9.83734 13.3335 9.66675 13.4828 9.66675 13.6668C9.66675 13.851 9.83734 14.0002 10.0477 14.0002H14.6191C14.8295 14.0002 15.0001 13.851 15.0001 13.6668C15.0001 13.4828 14.8295 13.3335 14.6191 13.3335Z" fill="#1C9CFC"/>
<path fill-rule="evenodd" clip-rule="evenodd" d="M4.38597 3.66667C4.00546 3.66667 3.66667 3.99768 3.66667 4.44444V15.5556C3.66667 16.0023 4.00546 16.3333 4.38597 16.3333H15.614C15.9945 16.3333 16.3333 16.0023 16.3333 15.5556V4.44444C16.3333 3.99768 15.9945 3.66667 15.614 3.66667H4.38597ZM3 4.44444C3 3.66391 3.60377 3 4.38597 3H15.614C16.3962 3 17 3.66391 17 4.44444V15.5556C17 16.3361 16.3962 17 15.614 17H4.38597C3.60377 17 3 16.3361 3 15.5556V4.44444Z" fill="#1C9CFC"/>
<path fill-rule="evenodd" clip-rule="evenodd" d="M5.33333 5.33325C5.14924 5.33325 5 5.48249 5 5.66659C5 5.85068 5.14924 5.99992 5.33333 5.99992H10.6667C10.8508 5.99992 11 5.85068 11 5.66659C11 5.48249 10.8508 5.33325 10.6667 5.33325H5.33333ZM12.7783 5.33325H12.625C12.4639 5.33325 12.3333 5.48249 12.3333 5.66658C12.3333 5.85068 12.4639 5.99992 12.625 5.99992H12.7783C12.9394 5.99992 13.0699 5.85068 13.0699 5.66658C13.0699 5.48249 12.9394 5.33325 12.7783 5.33325ZM13.7095 5.33325H13.8628C14.0239 5.33325 14.1544 5.48249 14.1544 5.66658C14.1544 5.85068 14.0239 5.99992 13.8628 5.99992H13.7095C13.5484 5.99992 13.4178 5.85068 13.4178 5.66658C13.4178 5.48249 13.5484 5.33325 13.7095 5.33325ZM14.794 5.33325H14.9473C15.1084 5.33325 15.239 5.48249 15.239 5.66658C15.239 5.85068 15.1084 5.99992 14.9473 5.99992H14.794C14.633 5.99992 14.5023 5.85068 14.5023 5.66658C14.5023 5.48249 14.633 5.33325 14.794 5.33325Z" fill="#1C9CFC"/>
</svg>
