<svg width="20" height="20" viewBox="0 0 20 20" fill="none" xmlns="http://www.w3.org/2000/svg">
<path fill-rule="evenodd" clip-rule="evenodd" d="M7.40183 12.8729C7.44579 12.8866 7.48661 12.9088 7.52198 12.9383C7.55738 12.9677 7.58663 13.0038 7.60805 13.0445C7.62949 13.0853 7.64268 13.1299 7.64689 13.1757C7.65109 13.2215 7.64622 13.2678 7.63256 13.3117C7.61889 13.3557 7.5967 13.3965 7.56724 13.4319L5.78097 15.5785L5.76689 15.592C5.66904 15.6882 5.53907 15.7447 5.40202 15.7508C5.26496 15.7568 5.1305 15.712 5.02455 15.6248L4.37975 15.1031C4.34335 15.0744 4.31301 15.0387 4.29048 14.9983C4.26796 14.9577 4.25371 14.9131 4.24855 14.867C4.24339 14.8209 4.24743 14.7743 4.26043 14.7298C4.27343 14.6853 4.29514 14.6438 4.32429 14.6077C4.35345 14.5717 4.38947 14.5418 4.43027 14.5197C4.47107 14.4977 4.51584 14.484 4.56199 14.4793C4.60813 14.4747 4.65472 14.4793 4.69907 14.4928C4.74343 14.5064 4.78465 14.5286 4.82037 14.5582C5.1178 14.7988 5.5534 14.7559 5.79813 14.4618L7.02845 12.9834C7.05789 12.9481 7.09401 12.9188 7.13474 12.8974C7.17547 12.876 7.22003 12.8628 7.26585 12.8586C7.31168 12.8544 7.35789 12.8593 7.40183 12.8729ZM6.72177 17.5053H3.36782C3.23246 17.5052 3.10268 17.4514 3.00696 17.3557C2.91123 17.26 2.85736 17.1303 2.85718 16.9948V13.6453C2.85735 13.51 2.91121 13.3802 3.00694 13.2844C3.10267 13.1887 3.23245 13.1349 3.36782 13.1348H5.04477C5.1377 13.1348 5.22684 13.1718 5.29256 13.2375C5.35828 13.3032 5.3952 13.3924 5.3952 13.4852C5.3952 13.5782 5.35828 13.6673 5.29256 13.733C5.22684 13.7987 5.1377 13.8357 5.04477 13.8357C4.22497 13.8357 3.55804 14.5003 3.55804 15.3201C3.55804 16.1399 4.22263 16.8044 5.04243 16.8044H5.58805C6.10913 16.8044 6.53154 16.3821 6.53154 15.8609C6.53154 15.7681 6.56846 15.6789 6.63418 15.6132C6.6999 15.5475 6.78903 15.5105 6.88198 15.5105C6.97492 15.5105 7.06405 15.5475 7.12977 15.6132C7.19549 15.6789 7.23241 15.7681 7.23241 15.8609V16.9948C7.23223 17.1303 7.17836 17.26 7.08263 17.3557C6.9869 17.4514 6.85713 17.5052 6.72177 17.5053Z" fill="white"/>
<path fill-rule="evenodd" clip-rule="evenodd" d="M7.37405 6.20613C7.41773 6.2197 7.45831 6.24175 7.49346 6.27101C7.52864 6.30026 7.55772 6.33616 7.57902 6.37665C7.60032 6.41715 7.61343 6.46143 7.61761 6.50701C7.62179 6.55257 7.61695 6.5985 7.60337 6.6422C7.58979 6.68588 7.56773 6.72647 7.53845 6.76163L5.76309 8.89516L5.7491 8.90857C5.65185 9.00415 5.52268 9.06036 5.38646 9.06639C5.25024 9.07241 5.11661 9.02781 5.0113 8.9412L4.37044 8.4227C4.33426 8.39416 4.3041 8.35871 4.28172 8.31842C4.25934 8.27814 4.24517 8.23381 4.24004 8.18801C4.23492 8.14221 4.23893 8.09584 4.25185 8.0516C4.26478 8.00736 4.28635 7.96613 4.31533 7.93029C4.3443 7.89444 4.3801 7.86471 4.42065 7.84281C4.46121 7.82091 4.5057 7.80727 4.55156 7.80269C4.59743 7.79811 4.64374 7.80268 4.68782 7.81613C4.7319 7.82959 4.77287 7.85164 4.80837 7.88105C5.10398 8.12024 5.53691 8.07758 5.78016 7.78529L7.00296 6.31594C7.03222 6.28078 7.06811 6.25173 7.1086 6.23044C7.14907 6.20916 7.19336 6.19605 7.2389 6.19188C7.28445 6.18771 7.33038 6.19255 7.37405 6.20613ZM6.69815 10.8102H3.3647C3.23017 10.8101 3.10119 10.7565 3.00604 10.6614C2.9109 10.5664 2.85736 10.4374 2.85718 10.3028V6.97374C2.85735 6.83921 2.91087 6.71023 3.00603 6.61512C3.10117 6.52001 3.23016 6.46652 3.3647 6.4664H5.0314C5.12377 6.4664 5.21236 6.50309 5.27767 6.56841C5.34299 6.63373 5.37968 6.72232 5.37968 6.81469C5.37968 6.90706 5.34299 6.99565 5.27767 7.06097C5.21236 7.12629 5.12377 7.16298 5.0314 7.16298C4.21661 7.16298 3.55376 7.8235 3.55376 8.63829C3.55376 9.45308 4.21428 10.1136 5.02907 10.1136H5.57136C6.08925 10.1136 6.50908 9.69377 6.50908 9.17588C6.50908 9.0835 6.54578 8.99492 6.61109 8.9296C6.67642 8.86428 6.765 8.82759 6.85738 8.82759C6.94975 8.82759 7.03834 8.86428 7.10365 8.9296C7.16897 8.99492 7.20566 9.0835 7.20566 9.17588V10.3028C7.20548 10.4374 7.15195 10.5664 7.05681 10.6614C6.96166 10.7565 6.83267 10.8101 6.69815 10.8102Z" fill="white"/>
<path d="M16.5989 8.09521H10.0683C9.76775 8.09521 9.52405 8.30841 9.52405 8.57141C9.52405 8.8344 9.76775 9.0476 10.0683 9.0476H16.5989C16.8994 9.0476 17.1431 8.8344 17.1431 8.57141C17.1431 8.30841 16.8994 8.09521 16.5989 8.09521Z" fill="white"/>
<path d="M16.5986 14.762H10.068C9.7675 14.762 9.5238 14.9752 9.5238 15.2382C9.5238 15.5012 9.7675 15.7143 10.068 15.7143H16.5986C16.8992 15.7143 17.1429 15.5012 17.1429 15.2382C17.1429 14.9752 16.8992 14.762 16.5986 14.762Z" fill="white"/>
<path fill-rule="evenodd" clip-rule="evenodd" d="M1.97995 0.952381C1.43637 0.952381 0.952381 1.42526 0.952381 2.06349V17.9365C0.952381 18.5747 1.43637 19.0476 1.97995 19.0476H18.0201C18.5636 19.0476 19.0476 18.5747 19.0476 17.9365V2.06349C19.0476 1.42526 18.5636 0.952381 18.0201 0.952381H1.97995ZM0 2.06349C0 0.948444 0.862523 0 1.97995 0H18.0201C19.1375 0 20 0.948444 20 2.06349V17.9365C20 19.0516 19.1375 20 18.0201 20H1.97995C0.862523 20 0 19.0516 0 17.9365V2.06349Z" fill="white"/>
<path fill-rule="evenodd" clip-rule="evenodd" d="M3.33337 3.33325C3.07038 3.33325 2.85718 3.54645 2.85718 3.80944C2.85718 4.07244 3.07038 4.28563 3.33337 4.28563H10.9524C11.2154 4.28563 11.4286 4.07244 11.4286 3.80944C11.4286 3.54645 11.2154 3.33325 10.9524 3.33325H3.33337ZM13.9691 3.33325H13.75C13.5199 3.33325 13.3334 3.54645 13.3334 3.80944C13.3334 4.07244 13.5199 4.28563 13.75 4.28563H13.9691C14.1992 4.28563 14.3857 4.07244 14.3857 3.80944C14.3857 3.54645 14.1992 3.33325 13.9691 3.33325ZM15.2993 3.33325H15.5184C15.7485 3.33325 15.935 3.54645 15.935 3.80944C15.935 4.07244 15.7485 4.28563 15.5184 4.28563H15.2993C15.0691 4.28563 14.8827 4.07244 14.8827 3.80944C14.8827 3.54645 15.0691 3.33325 15.2993 3.33325ZM16.8486 3.33325H17.0676C17.2978 3.33325 17.4843 3.54645 17.4843 3.80944C17.4843 4.07244 17.2978 4.28563 17.0676 4.28563H16.8486C16.6186 4.28563 16.432 4.07244 16.432 3.80944C16.432 3.54645 16.6186 3.33325 16.8486 3.33325Z" fill="white"/>
</svg>
