<svg width="20" height="20" viewBox="0 0 20 20" fill="none" xmlns="http://www.w3.org/2000/svg">
<path fill-rule="evenodd" clip-rule="evenodd" d="M1.97995 0.952381C1.43637 0.952381 0.952381 1.42526 0.952381 2.06349V17.9365C0.952381 18.5747 1.43637 19.0476 1.97995 19.0476H18.0201C18.5636 19.0476 19.0476 18.5747 19.0476 17.9365V2.06349C19.0476 1.42526 18.5636 0.952381 18.0201 0.952381H1.97995ZM0 2.06349C0 0.948444 0.862523 0 1.97995 0H18.0201C19.1375 0 20 0.948444 20 2.06349V17.9365C20 19.0516 19.1375 20 18.0201 20H1.97995C0.862523 20 0 19.0516 0 17.9365V2.06349ZM12.3071 5.45903H13.0002V2.88493H10.0751V3.53729H11.7252L11.4541 3.8612C11.0613 4.33307 10.3383 5.1594 9.84159 5.70521L9.42114 6.16838C9.02842 6.60111 8.23836 6.75332 7.69548 6.50108L6.71829 6.04443C5.88665 5.65519 4.76161 5.87047 4.15866 6.53588L3.09129 7.71097C2.95571 7.86024 2.97342 8.10025 3.12929 8.22572C3.26284 8.33324 3.45195 8.3178 3.56813 8.1899L4.68537 6.9599C5.07809 6.52717 5.86816 6.37496 6.41104 6.6272L7.38823 7.08385C8.21988 7.47309 9.34491 7.25565 9.94785 6.59242L10.3683 6.12924C10.8696 5.57909 11.5996 4.74189 11.9993 4.26567L12.3071 3.89782V5.45903ZM17.0003 14.9999H16.1852V7.16153H12.607V14.9999H12.6063V15H11.7912V9.48306H8.21035V11.3311H8.21105V14.9999H8.21035V15H7.39527V11.8856H3.81507V14.9999H3V11.3311H7.39527V8.92859H11.792V6.60706H17.0003V14.9999ZM3.5 16C3.22386 16 3 16.2239 3 16.5C3 16.7761 3.22386 17 3.5 17H16.5C16.7761 17 17 16.7761 17 16.5C17 16.2239 16.7761 16 16.5 16H3.5Z" fill="white"/>
</svg>
