<svg width="20" height="20" viewBox="0 0 20 20" fill="none" xmlns="http://www.w3.org/2000/svg">
<rect width="20" height="20" rx="2" fill="white"/>
<path d="M14.66 11.4735H7.76099V10.8889H14.66C14.8056 10.8889 14.9291 10.7809 14.9883 10.6064L14.9884 10.6065L14.9893 10.6031L16.4574 5.03931L16.4575 5.03932L16.4579 5.03736C16.4586 5.03421 16.4591 5.03134 16.4595 5.02874C16.4629 5.00503 16.449 4.98223 16.4263 4.97439C16.4183 4.9716 16.4086 4.9698 16.3973 4.9698H6.87764V4.38521H16.3973C16.7454 4.38521 17.0368 4.7551 16.9263 5.2046L16.9257 5.20696L16.9255 5.20777L15.4504 10.7983L15.4476 10.8068C15.3287 11.1755 15.0411 11.4735 14.66 11.4735Z" fill="#1C9CFC" stroke="#1C9CFC" stroke-width="0.1" stroke-miterlimit="10" stroke-linejoin="round"/>
<path d="M8.91876 12.673H15.3946V13.2167H8.91876C8.54467 13.2167 8.19294 12.9551 8.09806 12.5684L8.09809 12.5684L8.09762 12.5667L5.64414 3.86286L5.64431 3.86281L5.64284 3.85889C5.58061 3.69274 5.45288 3.59368 5.3068 3.59368H3.05V3.05H5.3068C5.70336 3.05 5.999 3.33236 6.12056 3.67608L6.1677 3.65941L6.12056 3.67608L6.12366 3.68485L8.58643 12.4217L8.58785 12.4277C8.61696 12.5512 8.7483 12.673 8.91876 12.673Z" fill="#1C9CFC" stroke="#1C9CFC" stroke-width="0.1" stroke-miterlimit="10" stroke-linejoin="round"/>
<path d="M9.07795 14.8963C8.71829 14.8963 8.43905 15.2325 8.43905 15.6309C8.43905 16.0293 8.71829 16.3655 9.07795 16.3655C9.43761 16.3655 9.71685 16.0293 9.71685 15.6309C9.71685 15.2325 9.43761 14.8963 9.07795 14.8963ZM7.95015 15.6309C7.95015 14.895 8.46188 14.3117 9.07795 14.3117C9.69402 14.3117 10.2058 14.895 10.2058 15.6309C10.2058 16.3668 9.69402 16.9501 9.07795 16.9501C8.46188 16.9501 7.95015 16.3668 7.95015 15.6309Z" fill="#1C9CFC" stroke="#1C9CFC" stroke-width="0.1" stroke-miterlimit="10" stroke-linejoin="round"/>
<path d="M14.189 14.8963C13.8294 14.8963 13.5501 15.2325 13.5501 15.6309C13.5501 16.0293 13.8294 16.3655 14.189 16.3655C14.5487 16.3655 14.8279 16.0293 14.8279 15.6309C14.8279 15.2325 14.5487 14.8963 14.189 14.8963ZM13.0612 15.6309C13.0612 14.895 13.573 14.3117 14.189 14.3117C14.8051 14.3117 15.3168 14.895 15.3168 15.6309C15.3168 16.3668 14.8051 16.9501 14.189 16.9501C13.573 16.9501 13.0612 16.3668 13.0612 15.6309Z" fill="#1C9CFC" stroke="#1C9CFC" stroke-width="0.1" stroke-miterlimit="10" stroke-linejoin="round"/>
</svg>
