<svg width="20" height="20" viewBox="0 0 20 20" fill="none" xmlns="http://www.w3.org/2000/svg">
<rect width="20" height="20" rx="2" fill="white"/>
<path fill-rule="evenodd" clip-rule="evenodd" d="M13.7068 6.18182C13.7068 7.93909 12.0472 9.36364 9.99993 9.36364C7.95271 9.36364 6.2931 7.93909 6.2931 6.18182C6.2931 4.42455 7.95271 3 9.99993 3C12.0472 3 13.7068 4.42455 13.7068 6.18182ZM12.883 6.18182C12.883 7.55912 11.5845 8.66364 9.99993 8.66364C8.41539 8.66364 7.11681 7.55912 7.11681 6.18182C7.11681 4.80452 8.41539 3.7 9.99993 3.7C11.5845 3.7 12.883 4.80452 12.883 6.18182Z" fill="#1C9CFC"/>
<path fill-rule="evenodd" clip-rule="evenodd" d="M5.52551 10.6364C3.90225 10.6364 2.53477 11.7953 3.15067 13.0716C3.52324 13.8437 4.06933 14.5452 4.75775 15.1361C5.44617 15.7271 6.26345 16.1958 7.16291 16.5156C8.06238 16.8354 9.02642 17 10 17C10.9736 17 11.9376 16.8354 12.8371 16.5156C13.7366 16.1958 14.5538 15.7271 15.2423 15.1361C15.9307 14.5452 16.4768 13.8437 16.8493 13.0716C17.4652 11.7953 16.0977 10.6364 14.4745 10.6364H5.52551ZM5.34311 14.6436C4.73078 14.118 4.24462 13.4937 3.91279 12.806C3.73707 12.4419 3.83155 12.1118 4.1153 11.8392C4.41742 11.5491 4.93538 11.3364 5.52551 11.3364H14.4745C15.0646 11.3364 15.5826 11.5491 15.8847 11.8392C16.1685 12.1118 16.2629 12.4419 16.0872 12.806C15.7554 13.4937 15.2692 14.118 14.6569 14.6436C14.0446 15.1692 13.3181 15.5858 12.5192 15.8698C11.7202 16.1539 10.8643 16.3 10 16.3C9.13575 16.3 8.27976 16.1539 7.48084 15.8698C6.6819 15.5858 5.95543 15.1692 5.34311 14.6436Z" fill="#1C9CFC"/>
</svg>
