<svg width="20" height="20" viewBox="0 0 20 20" fill="none" xmlns="http://www.w3.org/2000/svg">
<path fill-rule="evenodd" clip-rule="evenodd" d="M1.97995 0C0.862523 0 0 0.948444 0 2.06349V17.9365C0 19.0516 0.862523 20 1.97995 20H18.0201C19.1375 20 20 19.0516 20 17.9365V2.06349C20 0.948444 19.1375 0 18.0201 0H1.97995ZM7.52222 12.9383C7.48685 12.9088 7.44603 12.8866 7.40208 12.8729C7.35814 12.8593 7.31193 12.8545 7.2661 12.8586C7.22027 12.8628 7.17572 12.876 7.13498 12.8974C7.09425 12.9188 7.05814 12.9481 7.0287 12.9834L5.79837 14.4618C5.55364 14.7559 5.11804 14.7988 4.82061 14.5582C4.7849 14.5286 4.74367 14.5064 4.69932 14.4928C4.65496 14.4793 4.60837 14.4747 4.56223 14.4793C4.51609 14.484 4.47132 14.4977 4.43052 14.5197C4.38972 14.5418 4.3537 14.5717 4.32454 14.6077C4.29538 14.6438 4.27368 14.6853 4.26068 14.7298C4.24767 14.7743 4.24363 14.8209 4.24879 14.867C4.25395 14.9131 4.2682 14.9577 4.29073 14.9983C4.31325 15.0387 4.34359 15.0745 4.37999 15.1031L5.02479 15.6248C5.13075 15.712 5.2652 15.7568 5.40226 15.7508C5.53932 15.7447 5.66929 15.6882 5.76714 15.592L5.78121 15.5785L7.56749 13.4319C7.59695 13.3965 7.61914 13.3557 7.6328 13.3117C7.64647 13.2678 7.65134 13.2215 7.64714 13.1757C7.64293 13.1299 7.62974 13.0853 7.6083 13.0445C7.58687 13.0038 7.55762 12.9677 7.52222 12.9383ZM3.36806 17.5053H6.72201C6.85737 17.5052 6.98715 17.4514 7.08288 17.3557C7.1786 17.26 7.23247 17.1303 7.23265 16.9948V15.8609C7.23265 15.7681 7.19574 15.6789 7.13001 15.6132C7.0643 15.5475 6.97516 15.5105 6.88222 15.5105C6.78928 15.5105 6.70015 15.5475 6.63442 15.6132C6.56871 15.6789 6.53178 15.7681 6.53178 15.8609C6.53178 16.3821 6.10937 16.8045 5.5883 16.8045H5.04267C4.22287 16.8045 3.55829 16.1399 3.55829 15.3201C3.55829 14.5003 4.22521 13.8357 5.04501 13.8357C5.13795 13.8357 5.22709 13.7987 5.2928 13.733C5.35853 13.6673 5.39544 13.5782 5.39544 13.4852C5.39544 13.3924 5.35853 13.3032 5.2928 13.2375C5.22709 13.1718 5.13795 13.1348 5.04501 13.1348H3.36806C3.2327 13.1349 3.10292 13.1887 3.00718 13.2845C2.91145 13.3802 2.85759 13.51 2.85742 13.6453V16.9948C2.8576 17.1303 2.91147 17.26 3.0072 17.3557C3.10293 17.4514 3.23271 17.5052 3.36806 17.5053ZM7.3743 6.20622C7.41797 6.21979 7.45856 6.24184 7.49371 6.27109C7.52889 6.30035 7.55796 6.33625 7.57926 6.37674C7.60056 6.41724 7.61368 6.46152 7.61785 6.50709C7.62203 6.55265 7.61719 6.59859 7.60361 6.64228C7.59003 6.68597 7.56797 6.72656 7.5387 6.76172L5.76334 8.89525L5.74935 8.90866C5.6521 9.00424 5.52293 9.06044 5.38671 9.06647C5.25049 9.07249 5.11685 9.0279 5.01155 8.94128L4.37069 8.42279C4.33451 8.39425 4.30435 8.3588 4.28196 8.31851C4.25958 8.27823 4.24541 8.23389 4.24029 8.18809C4.23517 8.14229 4.23917 8.09593 4.2521 8.05168C4.26502 8.00745 4.28659 7.96622 4.31557 7.93038C4.34455 7.89453 4.38035 7.8648 4.4209 7.8429C4.46145 7.821 4.50595 7.80736 4.5518 7.80278C4.59767 7.7982 4.64398 7.80277 4.68806 7.81622C4.73215 7.82967 4.77312 7.85173 4.80861 7.88114C5.10422 8.12033 5.53716 8.07766 5.7804 7.78538L7.0032 6.31603C7.03246 6.28086 7.06836 6.25182 7.10884 6.23053C7.14932 6.20925 7.1936 6.19614 7.23915 6.19197C7.2847 6.1878 7.33062 6.19264 7.3743 6.20622ZM6.69839 10.8103H3.36495C3.23041 10.8102 3.10143 10.7566 3.00629 10.6615C2.91115 10.5664 2.8576 10.4375 2.85742 10.3029V6.97383C2.85759 6.83929 2.91112 6.71032 3.00627 6.61521C3.10141 6.52009 3.2304 6.46661 3.36495 6.46648H5.03164C5.12401 6.46648 5.2126 6.50318 5.27792 6.56849C5.34323 6.63382 5.37993 6.72241 5.37993 6.81478C5.37993 6.90715 5.34323 6.99574 5.27792 7.06105C5.2126 7.12638 5.12401 7.16306 5.03164 7.16306C4.21685 7.16306 3.554 7.82359 3.554 8.63838C3.554 9.45317 4.21453 10.1137 5.02932 10.1137H5.5716C6.0895 10.1137 6.50933 9.69385 6.50933 9.17597C6.50933 9.08359 6.54602 8.99501 6.61134 8.92968C6.67666 8.86437 6.76524 8.82767 6.85762 8.82767C6.94999 8.82767 7.03858 8.86437 7.1039 8.92968C7.16921 8.99501 7.20591 9.08359 7.20591 9.17597V10.3029C7.20573 10.4375 7.15219 10.5664 7.05705 10.6615C6.96191 10.7566 6.83292 10.8102 6.69839 10.8103ZM10.0685 8.09533H16.5991C16.8996 8.09533 17.1433 8.30852 17.1433 8.57152C17.1433 8.83451 16.8996 9.04771 16.5991 9.04771H10.0685C9.768 9.04771 9.5243 8.83451 9.5243 8.57152C9.5243 8.30852 9.768 8.09533 10.0685 8.09533ZM17.1431 15.2381C17.1431 14.9752 16.8994 14.7619 16.5989 14.7619H10.0683C9.76779 14.7619 9.52409 14.9752 9.52409 15.2381C9.52409 15.5012 9.76779 15.7143 10.0683 15.7143H16.5989C16.8994 15.7143 17.1431 15.5012 17.1431 15.2381ZM2.85742 3.80956C2.85742 3.54657 3.07062 3.33337 3.33361 3.33337H10.9527C11.2157 3.33337 11.4289 3.54657 11.4289 3.80956C11.4289 4.07256 11.2157 4.28576 10.9527 4.28576H3.33361C3.07062 4.28576 2.85742 4.07256 2.85742 3.80956ZM13.7502 3.33337H13.9693C14.1994 3.33337 14.3859 3.54657 14.3859 3.80956C14.3859 4.07256 14.1994 4.28576 13.9693 4.28576H13.7502C13.5201 4.28576 13.3336 4.07256 13.3336 3.80956C13.3336 3.54657 13.5201 3.33337 13.7502 3.33337ZM15.5186 3.33337H15.2995C15.0694 3.33337 14.8829 3.54657 14.8829 3.80956C14.8829 4.07256 15.0694 4.28576 15.2995 4.28576H15.5186C15.7487 4.28576 15.9352 4.07256 15.9352 3.80956C15.9352 3.54657 15.7487 3.33337 15.5186 3.33337ZM17.0679 3.33337H16.8488C16.6188 3.33337 16.4322 3.54657 16.4322 3.80956C16.4322 4.07256 16.6188 4.28576 16.8488 4.28576H17.0679C17.298 4.28576 17.4845 4.07256 17.4845 3.80956C17.4845 3.54657 17.298 3.33337 17.0679 3.33337Z" fill="white"/>
</svg>
