<svg width="20" height="20" viewBox="0 0 20 20" fill="none" xmlns="http://www.w3.org/2000/svg">
<path d="M18.1602 0.909816C18.1541 0.909571 18.1309 0.90918 18.1251 0.90918H13.2171C13.07 0.90918 12.9507 1.02843 12.9507 1.17552C12.9507 1.32261 13.07 1.44185 13.2171 1.44185H17.2619C17.1962 1.57222 17.1592 1.71941 17.1592 1.87509V9.74082C17.1592 9.88791 17.2785 10.0072 17.4255 10.0072C17.5726 10.0072 17.6918 9.88791 17.6918 9.74082V1.87509C17.69 1.64093 17.8923 1.43858 18.1332 1.44143C18.3576 1.4443 18.5582 1.64981 18.5584 1.89178V17.4788C18.5584 18.0741 18.0502 18.5584 17.4256 18.5584C16.8013 18.5584 16.2931 18.0741 16.2931 17.4788V15.4678H16.7082C17.2505 15.4678 17.6918 15.0265 17.6918 14.4841V9.16554C17.6918 9.01848 17.5726 8.89923 17.4255 8.89923C17.2785 8.89923 17.1592 9.01848 17.1592 9.16554V14.4841C17.1592 14.7328 16.9569 14.9351 16.7082 14.9351H16.2931V4.11693C16.2931 3.57453 15.8516 3.13325 15.309 3.13325H2.91273V1.87509C2.91273 1.63621 3.10691 1.44185 3.34562 1.44185H13.7924C13.9395 1.44185 14.0587 1.32261 14.0587 1.17552C14.0587 1.02843 13.9395 0.90918 13.7924 0.90918H3.34562C2.81319 0.90918 2.38006 1.34249 2.38006 1.87509V3.13325H1.89284C1.35044 3.13325 0.90918 3.57453 0.90918 4.11693V11.9699C0.90918 12.117 1.02843 12.2363 1.17552 12.2363C1.32261 12.2363 1.44185 12.117 1.44185 11.9699V4.11693C1.44185 3.86823 1.64416 3.66593 1.89284 3.66593H15.309C15.5579 3.66593 15.7604 3.86823 15.7604 4.11693V17.4788C15.7604 17.8936 15.923 18.2724 16.1898 18.5584H2.57466C1.95002 18.5584 1.44185 18.0741 1.44185 17.4788V11.3946C1.44185 11.2475 1.32261 11.1283 1.17552 11.1283C1.02843 11.1283 0.90918 11.2475 0.90918 11.3946V17.4788C0.90918 18.3678 1.65631 19.091 2.57466 19.091H17.4255C18.3437 19.091 19.091 18.3677 19.091 17.4788V1.89178C19.091 1.35972 18.6821 0.928352 18.1602 0.909816Z" fill="white" stroke="white" stroke-width="0.2"/>
<path d="M8.48383 9.3743H3.78296V9.10851C3.78296 6.67379 5.76978 4.69092 8.21315 4.69092H8.48383V9.3743ZM4.33335 8.84271H7.94246V5.23315C6.01159 5.36605 4.46508 6.91301 4.33335 8.84271Z" fill="white"/>
<path fill-rule="evenodd" clip-rule="evenodd" d="M8.21229 4.83667C5.84899 4.83667 3.92773 6.7547 3.92773 9.10863V9.2288H8.33735V4.83667H8.21229ZM3.63647 9.10863C3.63647 6.59312 5.68885 4.54541 8.21229 4.54541H8.6286V9.52005H3.63647V9.10863ZM8.08723 5.07727V8.98846H4.17658L4.1872 8.83291C4.32389 6.83058 5.92821 5.22587 7.93161 5.08798L8.08723 5.07727ZM4.49166 8.6972H7.79598V5.39253C6.06231 5.58466 4.68277 6.96465 4.49166 8.6972Z" fill="white"/>
<path d="M8.88416 14.3997C6.48229 14.3997 4.50991 12.6313 4.29697 10.2852L4.29517 10.232H4.83653V10.2497C5.03143 12.3141 6.76921 13.8681 8.88416 13.8681C11.1254 13.8681 12.9498 12.0767 12.9498 9.87585C12.9498 7.88413 11.4412 6.18656 9.43635 5.92076H9.40206V5.38916L9.48868 5.39093C11.7696 5.68508 13.4912 7.61301 13.4912 9.87585C13.4912 12.369 11.425 14.3997 8.88416 14.3997Z" fill="white"/>
<path fill-rule="evenodd" clip-rule="evenodd" d="M9.25621 5.24072L9.49929 5.2457L9.50708 5.2467C11.8587 5.54997 13.6366 7.53807 13.6366 9.87605C13.6366 12.4521 11.5027 14.5456 8.88393 14.5456C6.40913 14.5456 4.37167 12.722 4.15171 10.2985L4.15097 10.2903L4.14429 10.0866H4.98193V10.243C5.1727 12.2269 6.8441 13.7227 8.88393 13.7227C11.0473 13.7227 12.804 11.9939 12.804 9.87605C12.804 7.96226 11.3559 6.3271 9.42642 6.06659H9.25621V5.24072ZM9.54746 5.78984C11.5769 6.10408 13.0952 7.84024 13.0952 9.87605C13.0952 12.1598 11.2031 14.014 8.88393 14.014C6.73526 14.014 4.95801 12.462 4.70368 10.3779H4.45263C4.70722 12.5939 6.59128 14.2543 8.88393 14.2543C11.3468 14.2543 13.3453 12.2864 13.3453 9.87605C13.3453 7.71405 11.719 5.86451 9.54746 5.54627V5.78984Z" fill="white"/>
<rect x="3.63647" y="15.4546" width="10" height="0.90909" rx="0.454545" fill="white"/>
</svg>
