<svg width="22" height="22" viewBox="0 0 22 22" fill="none" xmlns="http://www.w3.org/2000/svg">
<path fill-rule="evenodd" clip-rule="evenodd" d="M19.9375 1C19.9439 1 19.9694 1.00043 19.9761 1.0007C20.5502 1.02109 21 1.49559 21 2.08086V19.2266C21 20.2044 20.178 21 19.168 21H2.83203C1.82184 21 1 20.2045 1 19.2266V13.1668V12.534V4.52852C1 3.93188 1.48539 3.44648 2.08203 3.44648H2.61797V2.0625C2.61797 1.47664 3.09441 1 3.68008 1H14.5387H15.1715H19.9375ZM15.1715 1.58594H14.5387H3.68008C3.4175 1.58594 3.20391 1.79973 3.20391 2.0625V3.44648H16.8398C17.4367 3.44648 17.9223 3.93188 17.9223 4.52852V16.4285H18.3789C18.6525 16.4285 18.875 16.206 18.875 15.9324V10.7148V10.082V2.0625C18.875 1.89125 18.9157 1.72934 18.988 1.58594H15.1715ZM19.4609 10.082V10.7148V15.9324C19.4609 16.5291 18.9755 17.0145 18.3789 17.0145H17.9223V19.2266C17.9223 19.8814 18.4813 20.4141 19.1681 20.4141C19.8551 20.4141 20.4141 19.8814 20.4141 19.2266V2.08086C20.4139 1.81469 20.1933 1.58863 19.9464 1.58547C19.6814 1.58234 19.4589 1.80492 19.4609 2.0625V10.082ZM4.00012 10.0195C4.00012 7.25249 6.25773 5 9.03351 5H9.49146V10.4721H4.00012V10.0195ZM4.94082 9.56697H8.57557V5.93183C6.66854 6.14317 5.15104 7.66117 4.94082 9.56697ZM10.1818 5.76472L10.4492 5.7702L10.4578 5.7713C13.0446 6.1049 15.0003 8.2918 15.0003 10.8636C15.0003 13.6973 12.653 16.0001 9.77233 16.0001C7.05005 16.0001 4.80885 13.9942 4.56689 11.3283L4.56607 11.3193L4.55872 11.0952H5.48013V11.2672C5.68998 13.4496 7.52852 15.0949 9.77233 15.0949C12.152 15.0949 14.0844 13.1933 14.0844 10.8636C14.0844 8.75841 12.4916 6.95973 10.3691 6.67318H10.1818V5.76472ZM4.50012 17C4.22398 17 4.00012 17.2239 4.00012 17.5C4.00012 17.7761 4.22397 18 4.50012 18H14.5001C14.7763 18 15.0001 17.7761 15.0001 17.5C15.0001 17.2239 14.7763 17 14.5001 17H4.50012Z" fill="white"/>
<path d="M19.9761 1.0007L19.9721 1.10062L19.9725 1.10064L19.9761 1.0007ZM2.61797 3.44648V3.54648H2.71797V3.44648H2.61797ZM3.20391 3.44648H3.10391V3.54648H3.20391V3.44648ZM17.9223 16.4285H17.8223V16.5285H17.9223V16.4285ZM18.988 1.58594L19.0773 1.63096L19.1504 1.48594H18.988V1.58594ZM17.9223 17.0145V16.9145H17.8223V17.0145H17.9223ZM20.4141 2.08086H20.5141V2.08078L20.4141 2.08086ZM19.9464 1.58547L19.9477 1.48548L19.9476 1.48548L19.9464 1.58547ZM19.4609 2.0625H19.5609L19.5609 2.06172L19.4609 2.0625ZM9.49146 5H9.59146V4.9H9.49146V5ZM9.49146 10.4721V10.5721H9.59146V10.4721H9.49146ZM4.00012 10.4721H3.90012V10.5721H4.00012V10.4721ZM8.57557 9.56697V9.66697H8.67557V9.56697H8.57557ZM4.94082 9.56697L4.84142 9.556L4.82918 9.66697H4.94082V9.56697ZM8.57557 5.93183H8.67557V5.82013L8.56456 5.83244L8.57557 5.93183ZM10.4492 5.7702L10.4621 5.67044L10.4513 5.67022L10.4492 5.7702ZM10.1818 5.76472L10.1839 5.66474L10.0818 5.66265V5.76472H10.1818ZM10.4578 5.7713L10.445 5.87048L10.445 5.87048L10.4578 5.7713ZM4.56689 11.3283L4.4673 11.3374L4.4673 11.3374L4.56689 11.3283ZM4.56607 11.3193L4.46596 11.3226L4.46648 11.3283L4.56607 11.3193ZM4.55872 11.0952V10.9952H4.45539L4.45878 11.0985L4.55872 11.0952ZM5.48013 11.0952H5.58013V10.9952H5.48013V11.0952ZM5.48013 11.2672H5.37967L5.38059 11.2768L5.48013 11.2672ZM10.3691 6.67318L10.3826 6.57318H10.3691V6.67318ZM10.1818 6.67318H10.0818V6.77318H10.1818V6.67318ZM19.9801 0.900781C19.9718 0.900444 19.9449 0.9 19.9375 0.9V1.1C19.9397 1.1 19.9468 1.10009 19.9549 1.10023C19.9632 1.10038 19.9701 1.10054 19.9721 1.10062L19.9801 0.900781ZM21.1 2.08086C21.1 1.44341 20.6092 0.923123 19.9796 0.900763L19.9725 1.10064C20.4912 1.11906 20.9 1.54777 20.9 2.08086H21.1ZM21.1 19.2266V2.08086H20.9V19.2266H21.1ZM19.168 21.1C20.2301 21.1 21.1 20.2627 21.1 19.2266H20.9C20.9 20.1461 20.1259 20.9 19.168 20.9V21.1ZM2.83203 21.1H19.168V20.9H2.83203V21.1ZM0.9 19.2266C0.9 20.2628 1.7697 21.1 2.83203 21.1V20.9C1.87398 20.9 1.1 20.1462 1.1 19.2266H0.9ZM0.9 13.1668V19.2266H1.1V13.1668H0.9ZM0.9 12.534V13.1668H1.1V12.534H0.9ZM0.9 4.52852V12.534H1.1V4.52852H0.9ZM2.08203 3.34648C1.43016 3.34648 0.9 3.87665 0.9 4.52852H1.1C1.1 3.98711 1.54062 3.54648 2.08203 3.54648V3.34648ZM2.61797 3.34648H2.08203V3.54648H2.61797V3.34648ZM2.51797 2.0625V3.44648H2.71797V2.0625H2.51797ZM3.68008 0.9C3.03915 0.9 2.51797 1.42145 2.51797 2.0625H2.71797C2.71797 1.53183 3.14967 1.1 3.68008 1.1V0.9ZM14.5387 0.9H3.68008V1.1H14.5387V0.9ZM15.1715 0.9H14.5387V1.1H15.1715V0.9ZM19.9375 0.9H15.1715V1.1H19.9375V0.9ZM14.5387 1.68594H15.1715V1.48594H14.5387V1.68594ZM3.68008 1.68594H14.5387V1.48594H3.68008V1.68594ZM3.30391 2.0625C3.30391 1.85488 3.47281 1.68594 3.68008 1.68594V1.48594C3.36219 1.48594 3.10391 1.74458 3.10391 2.0625H3.30391ZM3.30391 3.44648V2.0625H3.10391V3.44648H3.30391ZM16.8398 3.34648H3.20391V3.54648H16.8398V3.34648ZM18.0223 4.52852C18.0223 3.87661 17.4919 3.34648 16.8398 3.34648V3.54648C17.3815 3.54648 17.8223 3.98715 17.8223 4.52852H18.0223ZM18.0223 16.4285V4.52852H17.8223V16.4285H18.0223ZM18.3789 16.3285H17.9223V16.5285H18.3789V16.3285ZM18.775 15.9324C18.775 16.1508 18.5973 16.3285 18.3789 16.3285V16.5285C18.7077 16.5285 18.975 16.2612 18.975 15.9324H18.775ZM18.775 10.7148V15.9324H18.975V10.7148H18.775ZM18.775 10.082V10.7148H18.975V10.082H18.775ZM18.775 2.0625V10.082H18.975V2.0625H18.775ZM18.8987 1.54092C18.8195 1.69795 18.775 1.87524 18.775 2.0625H18.975C18.975 1.90726 19.0119 1.76073 19.0773 1.63096L18.8987 1.54092ZM15.1715 1.68594H18.988V1.48594H15.1715V1.68594ZM19.5609 10.7148V10.082H19.3609V10.7148H19.5609ZM19.5609 15.9324V10.7148H19.3609V15.9324H19.5609ZM18.3789 17.1145C19.0307 17.1145 19.5609 16.5843 19.5609 15.9324H19.3609C19.3609 16.4739 18.9203 16.9145 18.3789 16.9145V17.1145ZM17.9223 17.1145H18.3789V16.9145H17.9223V17.1145ZM18.0223 19.2266V17.0145H17.8223V19.2266H18.0223ZM19.1681 20.3141C18.5319 20.3141 18.0223 19.8217 18.0223 19.2266H17.8223C17.8223 19.9411 18.4307 20.5141 19.1681 20.5141V20.3141ZM20.3141 19.2266C20.3141 19.8217 19.8045 20.3141 19.1681 20.3141V20.5141C19.9057 20.5141 20.5141 19.9411 20.5141 19.2266H20.3141ZM20.3141 2.08086V19.2266H20.5141V2.08086H20.3141ZM19.9451 1.68546C20.1341 1.68788 20.3139 1.86616 20.3141 2.08094L20.5141 2.08078C20.5139 1.76322 20.2525 1.48938 19.9477 1.48548L19.9451 1.68546ZM19.5609 2.06172C19.5593 1.86089 19.7355 1.68299 19.9452 1.68546L19.9476 1.48548C19.6273 1.48169 19.3585 1.74895 19.3609 2.06328L19.5609 2.06172ZM19.5609 10.082V2.0625H19.3609V10.082H19.5609ZM9.03351 4.9C6.20275 4.9 3.90012 7.19701 3.90012 10.0195H4.10012C4.10012 7.30796 6.31271 5.1 9.03351 5.1V4.9ZM9.49146 4.9H9.03351V5.1H9.49146V4.9ZM9.59146 10.4721V5H9.39146V10.4721H9.59146ZM4.00012 10.5721H9.49146V10.3721H4.00012V10.5721ZM3.90012 10.0195V10.4721H4.10012V10.0195H3.90012ZM8.57557 9.46697H4.94082V9.66697H8.57557V9.46697ZM8.47557 5.93183V9.56697H8.67557V5.93183H8.47557ZM5.04022 9.57793C5.2453 7.71869 6.72605 6.23741 8.58659 6.03122L8.56456 5.83244C6.61103 6.04894 5.05678 7.60365 4.84142 9.556L5.04022 9.57793ZM10.4513 5.67022L10.1839 5.66474L10.1798 5.8647L10.4472 5.87017L10.4513 5.67022ZM10.4706 5.67212L10.462 5.67102L10.4364 5.86937L10.445 5.87048L10.4706 5.67212ZM15.1003 10.8636C15.1003 8.2402 13.106 6.01198 10.4706 5.67212L10.445 5.87048C12.9833 6.19782 14.9003 8.34341 14.9003 10.8636H15.1003ZM9.77233 16.1001C12.7065 16.1001 15.1003 13.7542 15.1003 10.8636H14.9003C14.9003 13.6403 12.5995 15.9001 9.77233 15.9001V16.1001ZM4.4673 11.3374C4.71408 14.0564 6.99998 16.1001 9.77233 16.1001V15.9001C7.10012 15.9001 4.90361 13.932 4.66648 11.3193L4.4673 11.3374ZM4.46648 11.3283L4.4673 11.3374L4.66648 11.3193L4.66566 11.3102L4.46648 11.3283ZM4.45878 11.0985L4.46612 11.3226L4.66602 11.316L4.65867 11.0919L4.45878 11.0985ZM5.48013 10.9952H4.55872V11.1952H5.48013V10.9952ZM5.58013 11.2672V11.0952H5.38013V11.2672H5.58013ZM9.77233 14.9949C7.57847 14.9949 5.78444 13.3871 5.57967 11.2577L5.38059 11.2768C5.59552 13.512 7.47857 15.1949 9.77233 15.1949V14.9949ZM13.9844 10.8636C13.9844 13.1363 12.0985 14.9949 9.77233 14.9949V15.1949C12.2055 15.1949 14.1844 13.2502 14.1844 10.8636H13.9844ZM10.3557 6.77228C12.4298 7.0523 13.9844 8.80969 13.9844 10.8636H14.1844C14.1844 8.70714 12.5533 6.86716 10.3825 6.57408L10.3557 6.77228ZM10.1818 6.77318H10.3691V6.57318H10.1818V6.77318ZM10.0818 5.76472V6.67318H10.2818V5.76472H10.0818ZM4.10012 17.5C4.10012 17.2791 4.2792 17.1 4.50012 17.1V16.9C4.16875 16.9 3.90012 17.1686 3.90012 17.5H4.10012ZM4.50012 17.9C4.2792 17.9 4.10012 17.7209 4.10012 17.5H3.90012C3.90012 17.8314 4.16875 18.1 4.50012 18.1V17.9ZM14.5001 17.9H4.50012V18.1H14.5001V17.9ZM14.9001 17.5C14.9001 17.7209 14.721 17.9 14.5001 17.9V18.1C14.8315 18.1 15.1001 17.8314 15.1001 17.5H14.9001ZM14.5001 17.1C14.721 17.1 14.9001 17.2791 14.9001 17.5H15.1001C15.1001 17.1686 14.8315 16.9 14.5001 16.9V17.1ZM4.50012 17.1H14.5001V16.9H4.50012V17.1Z" fill="white"/>
</svg>
