<svg width="20" height="20" viewBox="0 0 20 20" fill="none" xmlns="http://www.w3.org/2000/svg">
<path fill-rule="evenodd" clip-rule="evenodd" d="M1.97995 0C0.862523 0 0 0.948444 0 2.06349V17.9365C0 19.0516 0.862523 20 1.97995 20H18.0201C19.1375 20 20 19.0516 20 17.9365V2.06349C20 0.948444 19.1375 0 18.0201 0H1.97995ZM12.3071 5.45899H13.0002V2.88489H10.0751V3.53725H11.7252L11.4541 3.86116C11.0613 4.33303 10.3383 5.15936 9.84159 5.70516L9.42114 6.16834C9.02842 6.60107 8.23836 6.75328 7.69548 6.50103L6.71829 6.04439C5.88665 5.65515 4.76161 5.87043 4.15866 6.53583L3.09129 7.71093C2.95571 7.8602 2.97342 8.1002 3.12929 8.22568C3.26284 8.3332 3.45195 8.31776 3.56813 8.18986L4.68537 6.95986C5.07809 6.52713 5.86816 6.37492 6.41104 6.62716L7.38823 7.08381C8.21988 7.47305 9.34491 7.2556 9.94785 6.59237L10.3683 6.1292C10.8696 5.57904 11.5996 4.74185 11.9993 4.26563L12.3071 3.89778V5.45899ZM17.0003 14.9999H16.1852V7.16149H12.607V14.9999H12.6063V15H11.7912V9.48302H8.21035V11.3311H8.21105V14.9998H8.21035V15H7.39527V11.8856H3.81507V14.9998H3V11.3311H7.39527V8.92855H11.792V6.60701H17.0003V14.9999ZM3 16.5C3 16.2238 3.22386 16 3.5 16H16.5C16.7761 16 17 16.2238 17 16.5C17 16.7761 16.7761 17 16.5 17H3.5C3.22386 17 3 16.7761 3 16.5Z" fill="white"/>
</svg>
