<svg width="17" height="20" viewBox="0 0 17 20" fill="none" xmlns="http://www.w3.org/2000/svg">
<path fill-rule="evenodd" clip-rule="evenodd" d="M12.9982 4.54546C12.9982 7.05584 10.9834 9.09091 8.49803 9.09091C6.01266 9.09091 3.99788 7.05584 3.99788 4.54546C3.99788 2.03507 6.01266 0 8.49803 0C10.9834 0 12.9982 2.03507 12.9982 4.54546ZM11.9982 4.54546C11.9982 6.51302 10.4217 8.09091 8.49803 8.09091C6.57437 8.09091 4.99787 6.51302 4.99787 4.54546C4.99787 2.57789 6.57437 1 8.49803 1C10.4217 1 11.9982 2.57789 11.9982 4.54546Z" fill="white"/>
<path fill-rule="evenodd" clip-rule="evenodd" d="M3.06601 10.9091C1.09535 10.9091 -0.564796 12.5647 0.182915 14.388C0.635224 15.491 1.29818 16.4932 2.13394 17.3373C2.96969 18.1815 3.96188 18.8511 5.05384 19.308C6.14581 19.7649 7.31617 20 8.49811 20C9.68005 20 10.8504 19.7649 11.9424 19.308C13.0343 18.8511 14.0265 18.1815 14.8623 17.3373C15.698 16.4932 16.361 15.491 16.8133 14.388C17.561 12.5647 15.9009 10.9091 13.9302 10.9091H3.06601ZM2.84457 16.6338C2.1012 15.8829 1.51099 14.991 1.10814 14.0086C0.894818 13.4884 1.00951 13.0168 1.35399 12.6275C1.72077 12.213 2.34958 11.9091 3.06601 11.9091H13.9302C14.6466 11.9091 15.2754 12.213 15.6422 12.6275C15.9867 13.0168 16.1014 13.4884 15.8881 14.0086C15.4852 14.991 14.895 15.8829 14.1516 16.6338C13.4083 17.3846 12.5263 17.9797 11.5564 18.3855C10.5865 18.7913 9.54733 19 8.49811 19C7.44889 19 6.40971 18.7913 5.43981 18.3855C4.46988 17.9797 3.58793 17.3846 2.84457 16.6338Z" fill="white"/>
</svg>
