<svg width="20" height="20" viewBox="0 0 20 20" fill="none" xmlns="http://www.w3.org/2000/svg">
<circle cx="10" cy="10" r="10" fill="#67CDFD"/>
<rect width="10" height="8" transform="translate(5 6)" fill="#67CDFD"/>
<path d="M15 14H5V6.58754H7.79091L8.01091 6H12.0455L12.2327 6.58754H15V14ZM5.54545 13.4949H14.4545V7.09259H11.8309L11.7673 6.91246L11.6382 6.50673H8.39818L8.17818 7.09428H5.54545V13.4949Z" fill="white"/>
<path d="M9.99992 9.16675C10.6433 9.16675 11.1666 9.69008 11.1666 10.3334C11.1666 10.9767 10.6433 11.5001 9.99992 11.5001C9.35659 11.5001 8.83325 10.9767 8.83325 10.3334C8.83325 9.69008 9.35659 9.16675 9.99992 9.16675ZM9.99992 8.66675C9.07992 8.66675 8.33325 9.41341 8.33325 10.3334C8.33325 11.2534 9.07992 12.0001 9.99992 12.0001C10.9199 12.0001 11.6666 11.2534 11.6666 10.3334C11.6666 9.41341 10.9199 8.66675 9.99992 8.66675Z" fill="white"/>
<ellipse cx="12.6666" cy="8.33333" rx="0.333333" ry="0.333333" fill="white"/>
</svg>
