<svg width="20" height="20" viewBox="0 0 20 20" fill="none" xmlns="http://www.w3.org/2000/svg">
<path d="M10.0007 12.0013C9.63251 12.0013 9.33408 11.7029 9.33408 11.3347C9.33408 10.9664 9.63251 10.668 10.0007 10.668C10.3689 10.668 10.6673 10.9664 10.6673 11.3347H11.3339C11.3316 10.7285 10.9209 10.2002 10.334 10.0487V9.66799H9.66739V10.0487C8.95573 10.2318 8.5273 10.9573 8.71045 11.669C8.86194 12.2576 9.39295 12.6687 10.0007 12.668C10.3689 12.668 10.6673 12.9664 10.6673 13.3346C10.6673 13.7029 10.3689 14.0013 10.0007 14.0013C9.63251 14.0013 9.33408 13.7029 9.33408 13.3346H8.66746C8.66975 13.9408 9.08055 14.4691 9.66739 14.6206V15.0013H10.334V14.6206C11.0457 14.4375 11.4741 13.712 11.2909 13.0003C11.1395 12.4117 10.6084 12.0006 10.0007 12.0013Z" fill="#606975"/>
<path fill-rule="evenodd" clip-rule="evenodd" d="M20 7.00005C20 7.18414 19.8508 7.33339 19.6667 7.33339H18.6668V17.3333H19.6667C19.8508 17.3333 20 17.4826 20 17.6667V19.6667C20 19.8507 19.8508 20 19.6667 20H0.334644C0.150573 20 0.00133324 19.8507 0.00133324 19.6667V17.6667C0.00133324 17.4826 0.150573 17.3333 0.334644 17.3333H1.33458V7.33339H0.333311C0.14924 7.33339 0 7.18414 0 7.00005V5.66673C0 5.66456 0.000583294 5.66264 0.00116659 5.66073C0.00174988 5.65881 0.00233318 5.65689 0.00233318 5.65473C0.00362476 5.61831 0.0109159 5.58239 0.0239984 5.54839C0.0269982 5.54439 0.0269982 5.53973 0.0269982 5.53573C0.0432055 5.49935 0.0657456 5.46614 0.0936604 5.43773C0.103535 5.42898 0.113909 5.42073 0.124658 5.41306C0.139574 5.39894 0.15574 5.38623 0.172988 5.37506L9.83901 0.0417498C9.93913 -0.0139166 10.0609 -0.0139166 10.161 0.0417498L19.827 5.37506C19.8443 5.38623 19.8604 5.39894 19.8753 5.41306C19.8861 5.42073 19.8965 5.42898 19.9063 5.43773C19.9343 5.46614 19.9568 5.49935 19.973 5.53573C19.976 5.53973 19.976 5.54439 19.976 5.54839C19.9891 5.58239 19.9964 5.61831 19.9977 5.65473C19.9977 5.65689 19.9983 5.65881 19.9988 5.66073C19.9994 5.66264 20 5.66456 20 5.66673V7.00005ZM18.3724 5.3334L10.0007 0.71408L1.62889 5.3334H18.3724ZM19.3334 19.3333V18H0.667955V19.3333H19.3334ZM2.0012 7.33339V17.3333H3.33444V7.33339H2.0012ZM16.6669 7.33339V17.3333H18.0001V7.33339H16.6669ZM0.667955 6.00006V6.66672H19.3334V6.00006H0.667955ZM10.0004 7.99921C7.60733 7.99921 5.66738 9.93928 5.66738 12.3325C5.66738 14.7258 7.60733 16.6658 10.0004 16.6658C12.3935 16.6658 14.3335 14.7258 14.3335 12.3325C14.3307 9.94045 12.3923 8.00196 10.0004 7.99921Z" fill="#606975"/>
</svg>
