<svg width="22" height="22" viewBox="0 0 22 22" fill="none" xmlns="http://www.w3.org/2000/svg">
<path d="M6.5 1H1V4.66667M15.5 1H21V4.66667M6.5 21H1V17.3333M15.5 21H21V17.3333" stroke="#384250" stroke-linecap="round" stroke-linejoin="round"/>
<path d="M10.0472 10.0399H4.33325V4.33301H10.0472V10.0399ZM5.12003 9.26487H9.26561V5.10805H5.12003V9.26487Z" fill="#384250"/>
<path d="M10.0472 17.6665H4.33325V11.957H10.0472V17.6665ZM5.12003 16.8915H9.26561V12.7321H5.12003V16.8915Z" fill="#384250"/>
<path d="M17.6665 10.0399H11.9526V4.33301H17.6665V10.0399ZM12.7368 9.26487H16.8824V5.10805H12.7368V9.26487Z" fill="#384250"/>
<path d="M12.7368 14.0471H11.9526V12.0811H14.6397V12.8561H12.7368V14.0471Z" fill="#384250"/>
<path d="M17.6666 14.4341H15.6226V13.659H16.8824V11.8945H17.6666V14.4341Z" fill="#384250"/>
<path d="M17.6666 17.6668H16.3806V16.8918H16.8825V15.2461H17.6666V17.6668Z" fill="#384250"/>
<path d="M15.2017 17.666H11.9526V15.8498H12.7368V16.8909H14.4175V15.1807H15.2017V17.666Z" fill="#384250"/>
</svg>
