<svg width="51" height="22" viewBox="0 0 51 22" fill="none" xmlns="http://www.w3.org/2000/svg">
<path fill-rule="evenodd" clip-rule="evenodd" d="M7.5 19C11.6421 19 15 15.6421 15 11.5C15 7.35786 11.6421 4 7.5 4C3.35786 4 0 7.35786 0 11.5C0 15.6421 3.35786 19 7.5 19ZM6.45534 12.7051L10.3123 8.84812C10.5786 8.58185 11.0103 8.58189 11.2766 8.84816C11.5428 9.11444 11.5428 9.54612 11.2766 9.81239L6.93743 14.1514C6.80957 14.2793 6.63616 14.3511 6.45534 14.3511H6.4553C6.27448 14.3511 6.10107 14.2793 5.97321 14.1514L3.72339 11.9015C3.45711 11.6352 3.45711 11.2035 3.72339 10.9373C3.98966 10.671 4.42139 10.6711 4.68761 10.9373L6.45534 12.7051Z" fill="#6FCF97"/>
<path d="M25.5 1H20V4.66667M44.5 1H50V4.66667M25.5 21H20V17.3333M44.5 21H50V17.3333" stroke="#384250" stroke-linecap="round" stroke-linejoin="round"/>
<rect x="26.999" y="5" width="1" height="12" rx="0.5" fill="#384250"/>
<rect x="24.9998" y="5" width="1" height="12" rx="0.5" fill="#384250"/>
<rect x="40.9991" y="5" width="1" height="12" rx="0.5" fill="#384250"/>
<rect x="29.9993" y="5" width="1" height="12" rx="0.5" fill="#384250"/>
<rect x="43.9994" y="5" width="1" height="12" rx="0.5" fill="#384250"/>
<rect x="33.9993" y="5" width="1" height="12" rx="0.5" fill="#384250"/>
<rect x="35.9993" y="5" width="1" height="12" rx="0.5" fill="#384250"/>
<rect x="37.9993" y="5" width="1" height="12" rx="0.5" fill="#384250"/>
<rect x="22.7276" y="9" width="24.5455" height="4" fill="#6FCF97"/>
</svg>
