<svg width="45" height="45" viewBox="0 0 45 45" fill="none" xmlns="http://www.w3.org/2000/svg">
<path fill-rule="evenodd" clip-rule="evenodd" d="M45 22.5C45 34.9264 34.9264 45 22.5 45C10.0736 45 0 34.9264 0 22.5C0 10.0736 10.0736 0 22.5 0C34.9264 0 45 10.0736 45 22.5ZM17.0063 32.1534C17.5718 32.7232 18.2989 33 19.0422 33C19.7693 33 20.5126 32.7232 21.0781 32.1534L35.1517 17.9735C36.2828 16.8339 36.2828 14.9943 35.1517 13.8547C34.0206 12.7151 32.1948 12.7151 31.0637 13.8547L19.0422 25.9833L13.9363 20.8388C12.8052 19.6992 10.9794 19.6992 9.84829 20.8388C8.71724 21.9784 8.71724 23.8181 9.84829 24.9577L17.0063 32.1534Z" fill="white"/>
</svg>
