<svg width="23" height="20" viewBox="0 0 23 20" fill="none" xmlns="http://www.w3.org/2000/svg">
<path fill-rule="evenodd" clip-rule="evenodd" d="M21.8708 2.96761H6.42022C6.15264 2.96761 5.93573 2.75122 5.93573 2.48429C5.93573 2.21736 6.15264 2.00098 6.42022 2.00098H21.8708C22.5157 2.00098 23.0267 2.57582 22.8326 3.24538L22.8313 3.24988L20.3739 11.1465L20.3687 11.1604C20.1642 11.6979 19.6617 12.1506 18.978 12.1506H7.89115C7.62358 12.1506 7.40666 11.9342 7.40666 11.6673C7.40666 11.4004 7.62358 11.184 7.89115 11.184H18.978C19.1734 11.184 19.3545 11.0611 19.4458 10.833L21.8904 2.97714C21.8915 2.97321 21.889 2.96929 21.885 2.96865C21.8812 2.96804 21.8765 2.96761 21.8708 2.96761Z" fill="#384250"/>
<path fill-rule="evenodd" clip-rule="evenodd" d="M6.42857 2.11733C6.22537 2.11733 6.06064 2.28165 6.06064 2.48436C6.06064 2.68707 6.22537 2.8514 6.42857 2.8514H21.8792C21.8908 2.8514 21.9017 2.85228 21.9119 2.85392C21.9867 2.86593 22.0292 2.93907 22.0116 3.00651L21.8988 2.97721L22.0101 3.01168L19.5627 10.8764C19.4563 11.1421 19.2361 11.3003 18.9863 11.3003H7.8995C7.6963 11.3003 7.53157 11.4647 7.53157 11.6674C7.53157 11.8701 7.6963 12.0344 7.8995 12.0344H18.9863C19.6129 12.0344 20.0774 11.6204 20.2681 11.1192L20.272 11.1087L22.728 3.21653L22.729 3.21315M21.7435 3.08396L19.3442 10.7941C19.2676 10.9816 19.1264 11.0678 18.9863 11.0678H7.8995C7.56755 11.0678 7.29845 11.3362 7.29845 11.6674C7.29845 11.9985 7.56755 12.267 7.8995 12.267H18.9863C19.7273 12.267 20.2677 11.7756 20.486 11.2017L20.4913 11.1879L22.951 3.28442L22.9529 3.27778C23.171 2.52538 22.5925 1.88477 21.8792 1.88477H6.42857C6.09662 1.88477 5.82751 2.15321 5.82751 2.48436C5.82751 2.81551 6.09662 3.08396 6.42857 3.08396H21.7435Z" fill="#384250"/>
<path fill-rule="evenodd" clip-rule="evenodd" d="M0.234802 0.565757C0.234802 0.314783 0.438751 0.111328 0.690335 0.111328H3.39837C4.10319 0.111328 4.62112 0.536997 4.83191 1.0424L4.83798 1.05694L8.94013 13.3967L8.94292 13.4068C8.98258 13.5494 9.1679 13.6987 9.41289 13.6987H19.8239C20.0755 13.6987 20.2795 13.9022 20.2795 14.1532C20.2795 14.4041 20.0755 14.6076 19.8239 14.6076H9.41289C8.75237 14.6076 8.13274 14.2167 7.96543 13.6384L3.87998 1.34881C3.78565 1.13526 3.59936 1.02018 3.39837 1.02018H0.690336C0.438751 1.02018 0.234802 0.81673 0.234802 0.565757Z" fill="#384250"/>
<path fill-rule="evenodd" clip-rule="evenodd" d="M-9.1352e-05 0.570709C-9.1352e-05 0.255515 0.256045 0 0.572005 0L3.40603 0C4.16168 0 4.7198 0.457484 4.94719 1.00268L4.95658 1.02519L9.06026 13.3706L9.0629 13.3806C9.08574 13.4628 9.21655 13.5874 9.42056 13.5874H19.8316C20.1476 13.5874 20.4037 13.8429 20.4037 14.1581C20.4037 14.4733 20.1476 14.7288 19.8316 14.7288H9.42056C8.72144 14.7288 8.04758 14.3156 7.86175 13.6778L3.77882 1.39585C3.70185 1.22604 3.55763 1.14142 3.40603 1.14142H0.572005C0.256045 1.14142 -9.1352e-05 0.885902 -9.1352e-05 0.570709ZM0.572005 0.23256C0.384797 0.23256 0.233035 0.383954 0.233035 0.570709C0.233035 0.757463 0.384797 0.908857 0.572005 0.908857H3.40603C3.65499 0.908857 3.88207 1.0528 3.9943 1.30687L3.99877 1.317L8.08517 13.6111C8.23488 14.1285 8.79945 14.4963 9.42056 14.4963H19.8316C20.0188 14.4963 20.1706 14.3449 20.1706 14.1581C20.1706 13.9714 20.0188 13.82 19.8316 13.82H9.42056C9.13457 13.82 8.89475 13.6459 8.83826 13.4428L8.83625 13.4355L4.73636 1.10258L4.73196 1.09202C4.53776 0.626415 4.06002 0.23256 3.40603 0.23256H0.572005Z" fill="#384250"/>
<path fill-rule="evenodd" clip-rule="evenodd" d="M9.68567 16.9842C9.14409 16.9842 8.70505 17.417 8.70505 17.9508C8.70505 18.4847 9.14409 18.9175 9.68567 18.9175C10.2273 18.9175 10.6663 18.4847 10.6663 17.9508C10.6663 17.417 10.2273 16.9842 9.68567 16.9842ZM7.72443 17.9508C7.72443 16.8831 8.6025 16.0176 9.68567 16.0176C10.7688 16.0176 11.6469 16.8831 11.6469 17.9508C11.6469 19.0186 10.7688 19.8841 9.68567 19.8841C8.6025 19.8841 7.72443 19.0186 7.72443 17.9508Z" fill="#384250"/>
<path fill-rule="evenodd" clip-rule="evenodd" d="M7.60803 17.9499C7.60803 16.8167 8.53961 15.9004 9.68584 15.9004C10.8321 15.9004 11.7636 16.8167 11.7636 17.9499C11.7636 19.0832 10.8321 19.9995 9.68584 19.9995C8.53961 19.9995 7.60803 19.0832 7.60803 17.9499ZM9.68584 16.133C8.66573 16.133 7.84116 16.9477 7.84116 17.9499C7.84116 18.9521 8.66573 19.7669 9.68584 19.7669C10.7059 19.7669 11.5305 18.9521 11.5305 17.9499C11.5305 16.9477 10.7059 16.133 9.68584 16.133ZM9.68584 17.0996C9.20732 17.0996 8.82178 17.4816 8.82178 17.9499C8.82178 18.4183 9.20732 18.8003 9.68584 18.8003C10.1644 18.8003 10.5499 18.4183 10.5499 17.9499C10.5499 17.4816 10.1644 17.0996 9.68584 17.0996ZM8.58865 17.9499C8.58865 17.3506 9.0812 16.867 9.68584 16.867C10.2905 16.867 10.783 17.3506 10.783 17.9499C10.783 18.5493 10.2905 19.0328 9.68584 19.0328C9.0812 19.0328 8.58865 18.5493 8.58865 17.9499Z" fill="#384250"/>
<path fill-rule="evenodd" clip-rule="evenodd" d="M18.1921 16.9842C17.6505 16.9842 17.2115 17.417 17.2115 17.9508C17.2115 18.4847 17.6505 18.9175 18.1921 18.9175C18.7337 18.9175 19.1727 18.4847 19.1727 17.9508C19.1727 17.417 18.7337 16.9842 18.1921 16.9842ZM16.2308 17.9508C16.2308 16.8831 17.1089 16.0176 18.1921 16.0176C19.2752 16.0176 20.1533 16.8831 20.1533 17.9508C20.1533 19.0186 19.2752 19.8841 18.1921 19.8841C17.1089 19.8841 16.2308 19.0186 16.2308 17.9508Z" fill="#384250"/>
<path fill-rule="evenodd" clip-rule="evenodd" d="M16.1124 17.9499C16.1124 16.8167 17.044 15.9004 18.1902 15.9004C19.3365 15.9004 20.268 16.8167 20.268 17.9499C20.268 19.0832 19.3365 19.9995 18.1902 19.9995C17.044 19.9995 16.1124 19.0832 16.1124 17.9499ZM18.1902 16.133C17.1701 16.133 16.3456 16.9477 16.3456 17.9499C16.3456 18.9521 17.1701 19.7669 18.1902 19.7669C19.2103 19.7669 20.0349 18.9521 20.0349 17.9499C20.0349 16.9477 19.2103 16.133 18.1902 16.133ZM18.1902 17.0996C17.7117 17.0996 17.3262 17.4816 17.3262 17.9499C17.3262 18.4183 17.7117 18.8003 18.1902 18.8003C18.6688 18.8003 19.0543 18.4183 19.0543 17.9499C19.0543 17.4816 18.6688 17.0996 18.1902 17.0996ZM17.093 17.9499C17.093 17.3506 17.5856 16.867 18.1902 16.867C18.7949 16.867 19.2874 17.3506 19.2874 17.9499C19.2874 18.5493 18.7949 19.0328 18.1902 19.0328C17.5856 19.0328 17.093 18.5493 17.093 17.9499Z" fill="#384250"/>
</svg>
