<svg width="20" height="18" viewBox="0 0 20 18" fill="none" xmlns="http://www.w3.org/2000/svg">
<path fill-rule="evenodd" clip-rule="evenodd" d="M0.0061462 6.78078C0.0604479 6.73406 0.112302 6.68222 0.164025 6.63051C0.276224 6.51834 0.387808 6.40679 0.522427 6.34951C5.51929 4.25756 10.5162 2.17205 15.513 0.0929755C15.9494 -0.087254 16.0969 -0.0228863 16.2751 0.440561C16.8836 2.03691 17.4906 3.63326 18.0975 5.2296L18.0977 5.23017C18.7046 6.82627 19.3114 8.42237 19.9198 10.0185C20.0796 10.4433 20.012 10.6107 19.6125 10.778C19.4173 10.8595 19.2225 10.9414 19.0278 11.0232L19.0276 11.0233L19.0276 11.0233L19.0276 11.0233L19.0275 11.0233C18.499 11.2456 17.9712 11.4675 17.4368 11.6792C17.3139 11.7307 17.277 11.795 17.277 11.9302C17.2831 13.7582 17.2831 15.5863 17.277 17.4079C17.277 17.8713 17.1602 17.9936 16.7238 17.9936C11.3336 17.9936 5.94338 17.9936 0.553158 18.0001C0.30731 18.0001 0.122924 17.9357 0 17.7104C0.0061462 14.0672 0.0061462 10.424 0.0061462 6.78078ZM15.6175 0.936192C11.1984 2.77711 6.80384 4.61159 2.40931 6.44606C3.15915 6.49112 3.89055 6.49112 4.62809 6.48469C4.67726 6.48469 4.73872 6.45894 4.78174 6.42675C4.82811 6.39864 4.87156 6.36546 4.9148 6.33244C4.98048 6.28229 5.04566 6.23252 5.11979 6.20147C6.80999 5.49342 8.5002 4.78538 10.1904 4.08377C10.6698 3.88424 11.1507 3.68631 11.6317 3.48838C12.1126 3.29045 12.5936 3.09251 13.073 2.89297C13.2819 2.80929 13.4417 2.86722 13.577 3.03458C14.0932 3.66538 14.7447 3.96791 15.5437 3.92285C15.7712 3.90998 15.931 4.00009 16.017 4.23182C16.2813 4.92699 16.5517 5.62216 16.8222 6.31089C16.8467 6.37526 16.8898 6.47181 16.9389 6.47825C17.2339 6.54905 17.2831 6.7679 17.2831 7.03181C17.279 7.82552 17.2804 8.62209 17.2818 9.41771V9.41783V9.41795V9.4189C17.2824 9.81655 17.2831 10.214 17.2831 10.6107V10.8553C17.9158 10.5915 18.5116 10.3406 19.1074 10.0897L19.1076 10.0897L19.108 10.0895L19.1085 10.0893L18.6084 8.77989C17.6088 6.1633 16.6132 3.55684 15.6175 0.936192ZM6.66248 6.44606C6.66248 6.4525 6.66402 6.45733 6.66556 6.46216C6.66709 6.46698 6.66863 6.47181 6.66863 6.47825H16.0293C15.9635 6.30391 15.8971 6.13172 15.8311 5.96074C15.6997 5.62038 15.5702 5.28477 15.4516 4.9463C15.4024 4.79825 15.3286 4.7532 15.1811 4.74676C14.4436 4.7017 13.8044 4.41205 13.2696 3.88423C13.1652 3.78124 13.0853 3.76193 12.95 3.81343C11.9336 4.24151 10.9171 4.66513 9.90192 5.08822L9.90184 5.08826L9.90176 5.08829L9.90168 5.08832L9.9012 5.08852L9.90073 5.08872L9.90025 5.08892C9.19106 5.38448 8.48248 5.67979 7.77495 5.97618L7.52881 6.07903C7.24018 6.1995 6.94947 6.32083 6.66248 6.44606ZM8.83672 16.32H4.26997C3.76665 16.32 3.73596 16.2872 3.55181 15.8008C3.30629 15.1304 2.85821 14.6571 2.22598 14.3942C1.82087 14.2299 1.76562 14.1576 1.76562 13.6909V10.536C1.76562 10.0825 1.82701 10.0102 2.21985 9.84585C2.85821 9.58294 3.30629 9.10312 3.56409 8.41955C3.73596 7.95946 3.77892 7.92002 4.25156 7.92002H13.3973C13.8884 7.92002 13.9129 7.94631 14.1032 8.44584C14.361 9.1097 14.803 9.57636 15.4229 9.83928C15.8342 10.0102 15.8833 10.0759 15.8833 10.536V13.6909C15.8833 14.1576 15.8342 14.2168 15.4229 14.3876C14.7907 14.6506 14.3487 15.1304 14.0971 15.8008C13.9129 16.2872 13.9007 16.3069 13.4035 16.3069C11.8812 16.32 10.359 16.32 8.83672 16.32ZM8.84286 15.4787H13.1886C13.3114 15.4787 13.3851 15.459 13.4403 15.321C13.7595 14.5783 14.269 14.0327 14.9626 13.6909C15.0669 13.6384 15.0976 13.5726 15.0976 13.4543C15.0915 12.5604 15.0915 11.6731 15.0976 10.7792C15.0976 10.6346 15.0485 10.5754 14.938 10.5163C14.2567 10.1811 13.7595 9.64209 13.4403 8.91251C13.3851 8.78763 13.3298 8.74162 13.1948 8.74162C10.2792 8.74819 7.35744 8.74819 4.44184 8.74162C4.32522 8.74162 4.2577 8.77448 4.20859 8.89279C3.89555 9.64867 3.39222 10.1942 2.70476 10.5294C2.58813 10.5886 2.54516 10.6543 2.54516 10.7923C2.5513 11.6665 2.5513 12.5473 2.54516 13.4214C2.54516 13.5792 2.60041 13.6515 2.72931 13.7172C3.39222 14.0524 3.88941 14.5783 4.19632 15.2947C4.2577 15.4327 4.32522 15.4853 4.47253 15.4853C5.92705 15.4787 7.38771 15.4787 8.84223 15.4787H8.84286ZM8.82525 14.6378C10.1204 14.6378 11.1761 13.5073 11.1761 12.1139C11.17 10.7204 10.1204 9.5965 8.81911 9.5965C7.52397 9.5965 6.47436 10.7336 6.4805 12.127C6.48663 13.5139 7.53625 14.6378 8.82525 14.6378ZM8.83753 10.4378C9.69686 10.451 10.3905 11.2003 10.3905 12.1205C10.3905 13.0472 9.69072 13.7899 8.83139 13.7965C7.97819 13.7965 7.27231 13.0472 7.26617 12.127C7.26003 11.2068 7.98433 10.4247 8.83753 10.4378ZM4.52324 12.745C4.19792 12.7516 3.93398 12.4821 3.92784 12.1337C3.9217 11.7854 4.18564 11.4896 4.51096 11.4896C4.83014 11.4896 5.09408 11.7722 5.09408 12.114C5.10636 12.4624 4.84856 12.7384 4.52324 12.745ZM4.73807 12.1666V12.068C4.7135 12.0518 4.68893 12.0319 4.66472 12.0122C4.6103 11.9681 4.55769 11.9254 4.51096 11.93C4.44958 11.9365 4.34523 12.0548 4.34523 12.1271C4.34523 12.1929 4.44958 12.3112 4.5171 12.3112C4.56168 12.3112 4.60895 12.2711 4.65889 12.2287L4.6589 12.2286C4.68458 12.2068 4.71097 12.1844 4.73807 12.1666ZM12.5607 12.114C12.5545 12.4624 12.8062 12.7384 13.1315 12.745C13.4568 12.7516 13.7146 12.4821 13.733 12.1337C13.7392 11.7919 13.463 11.4896 13.1438 11.4896C12.8246 11.4896 12.5607 11.7656 12.5607 12.114ZM13.3586 12.0746V12.1732C13.3351 12.1878 13.3103 12.2072 13.2853 12.2268C13.232 12.2685 13.1775 12.3112 13.1315 12.3112C13.0701 12.3046 12.9658 12.1863 12.9658 12.1206C12.9658 12.0483 13.0701 11.9365 13.1315 11.93C13.1838 11.9253 13.2393 11.9737 13.2934 12.021C13.3155 12.0403 13.3373 12.0593 13.3586 12.0746Z" fill="#606975"/>
</svg>
