<svg width="20" height="20" viewBox="0 0 20 20" fill="none" xmlns="http://www.w3.org/2000/svg">
<path fill-rule="evenodd" clip-rule="evenodd" d="M0.0086689 1.23673L0.00866944 1.23673C0.0125309 1.23517 0.0158665 1.23381 0.0158665 1.23073C0.322618 0.302211 0.713991 0.0110191 1.66598 0.0110191C2.12986 0.0110191 2.59387 0.0112906 3.05797 0.0116629V4.12911H8.48652V0.0105017C9.16613 0.00840021 9.84558 0.00508848 10.5248 3.07816e-05C11.4609 -0.0054634 12.0797 0.725263 12.0744 1.60433C12.0631 2.91919 12.0652 4.23685 12.0674 5.55331V5.55389V5.55447V5.55504V5.55562V5.5562C12.0682 6.08157 12.0691 6.60675 12.0691 7.13148V7.37323C12.4658 7.24137 12.8571 7.14796 13.2538 7.09852C16.279 6.71942 19.0345 8.58195 19.9653 11.5378C20.0499 11.807 19.9547 12.0213 19.7273 12.1037C19.5105 12.1806 19.3095 12.0708 19.2249 11.807C18.9181 10.906 18.4739 10.0874 17.8022 9.42256C16.591 8.22482 15.1366 7.74683 13.4865 7.92814C11.9051 8.09846 10.5882 8.82369 9.64682 10.1698C7.79573 12.829 8.31403 16.9386 11.7676 18.6033C14.7876 20.0648 18.1142 18.5429 19.2037 15.2574C19.2936 14.9827 19.4682 14.8508 19.6797 14.8948C19.9389 14.9497 20.0605 15.1914 19.9706 15.4826C19.6797 16.4496 19.1984 17.2957 18.5056 18.0045C16.7444 19.8011 14.6448 20.4329 12.2807 19.7022C9.93241 18.9769 8.50443 17.2573 7.93324 14.7849C7.75871 14.0377 7.75342 13.274 7.88564 12.5213C7.91737 12.3455 7.87506 12.3235 7.72168 12.3235C5.63789 12.329 3.55409 12.329 1.47029 12.3235C0.751013 12.3235 0.227419 11.9004 0.0423106 11.1807C0.0394874 11.1719 0.0377944 11.1627 0.0361256 11.1536C0.031542 11.1288 0.0271404 11.1049 0 11.0928V1.24172C0.00231874 1.23931 0.00565407 1.23796 0.0086689 1.23673ZM3.89801 3.25566V0.0124093C5.14663 0.0135707 6.39572 0.0147163 7.64447 0.0125239V3.25566H3.89801ZM2.3381 10.4061H3.00978C3.06813 10.4061 3.12614 10.4065 3.18399 10.4068C3.35686 10.4078 3.52825 10.4089 3.70261 10.4006C3.97763 10.3951 4.14687 10.2413 4.15216 9.99407C4.15745 9.74683 3.98821 9.582 3.71319 9.582C3.24777 9.57651 2.78765 9.57651 2.32752 9.582C2.0525 9.5875 1.89384 9.74133 1.89384 9.99956C1.89384 10.2523 2.05779 10.4006 2.3381 10.4061ZM1.92584 15.0017C1.95628 14.9707 1.98913 14.9372 2.0263 14.9003C2.0263 15.0102 2.0263 15.0761 2.01572 15.1531C2.01572 15.3513 2.01513 15.5488 2.01454 15.746V15.746V15.7461C2.01337 16.1392 2.0122 16.5307 2.01572 16.9222C2.02101 17.8013 2.59221 18.3946 3.43313 18.3946H4.08365H6.99251C7.17762 18.3946 7.33628 18.3452 7.4209 18.1639C7.5637 17.8617 7.35743 17.5705 7.00308 17.5705H3.44371C3.03118 17.5705 2.81434 17.3452 2.80905 16.9112V15.6585V14.9498C2.8302 14.9333 2.84607 14.9223 2.86722 14.9113C2.89576 14.9432 2.92248 14.978 2.94926 15.0129C2.98701 15.062 3.02489 15.1113 3.0682 15.1531C3.23215 15.3124 3.46486 15.3069 3.61824 15.1476C3.76632 14.9992 3.78219 14.7575 3.6341 14.5926C3.31677 14.252 2.99416 13.9169 2.66625 13.5927C2.52345 13.4444 2.30661 13.4499 2.16381 13.5927C1.8359 13.9169 1.51329 14.252 1.20124 14.5926C1.05316 14.7575 1.07431 14.9937 1.2224 15.1476C1.3652 15.2904 1.58204 15.3069 1.74599 15.175C1.80718 15.1227 1.86102 15.0678 1.92584 15.0017L1.92584 15.0017ZM18.3156 5.10432C18.33 5.08444 18.344 5.06427 18.3581 5.04414C18.4062 4.97528 18.454 4.90686 18.5113 4.85159C18.6805 4.68677 18.9079 4.69776 19.0613 4.85709C19.2147 5.01642 19.22 5.25816 19.0613 5.42848C18.7599 5.75264 18.4531 6.0713 18.1358 6.38447C17.9612 6.56028 17.7444 6.55479 17.5699 6.37898C17.2631 6.0713 16.9564 5.75264 16.6602 5.43398C16.491 5.25267 16.4962 5.01092 16.6602 4.8461C16.8136 4.68677 17.0357 4.68677 17.2102 4.85159C17.2648 4.9002 17.3079 4.96076 17.3501 5.02005C17.3651 5.04118 17.3801 5.06214 17.3953 5.08235C17.4641 5.02879 17.4595 4.98248 17.4554 4.94048C17.4545 4.93078 17.4535 4.92131 17.4535 4.91203C17.4535 4.71082 17.4541 4.51022 17.4547 4.30982L17.4547 4.30848V4.30836C17.4559 3.90733 17.457 3.5071 17.4535 3.10444C17.4535 2.65392 17.242 2.43965 16.8083 2.43965H13.9788C13.7037 2.43965 13.5504 2.31328 13.5239 2.08802C13.4922 1.79683 13.6614 1.61552 13.9841 1.61552C14.2238 1.61552 14.4636 1.61491 14.7033 1.6143C15.1829 1.61308 15.6624 1.61186 16.1419 1.61552C16.2273 1.61552 16.313 1.61328 16.3989 1.61104C16.6429 1.60468 16.8884 1.59829 17.1309 1.64299C17.7761 1.75837 18.2363 2.30229 18.2468 2.98357C18.2539 3.44486 18.2515 3.90371 18.2492 4.36338V4.36342C18.248 4.59357 18.2468 4.82392 18.2468 5.05488C18.2621 5.06752 18.2755 5.07653 18.2882 5.08503L18.2883 5.08505C18.2976 5.09132 18.3066 5.09733 18.3156 5.10432ZM14.0305 8.82921C16.5004 8.82372 18.5736 10.9115 18.5419 13.4663C18.5049 16.4606 16.4158 18.1693 14.0517 18.1748C11.6241 18.1803 9.56146 16.4112 9.52972 13.4773C9.49799 10.928 11.5501 8.83471 14.0305 8.82921ZM14.7671 14.5047C14.7724 14.1915 14.6137 14.0377 14.3916 13.9443C14.2792 13.8971 14.1647 13.8544 14.0499 13.8116C13.9109 13.7598 13.7715 13.7078 13.6353 13.6476C13.1857 13.4498 12.8578 13.1311 12.7785 12.6092C12.6833 11.9884 12.9689 11.4279 13.5189 11.1642C13.6406 11.1038 13.6882 11.0379 13.6723 10.906C13.6617 10.8346 13.667 10.7577 13.6776 10.6807C13.6988 10.472 13.8468 10.3291 14.0425 10.3181C14.2488 10.3071 14.4498 10.439 14.4445 10.6533C14.4286 10.9719 14.5608 11.1258 14.8359 11.2137C14.9734 11.2576 15.0844 11.3675 15.1743 11.4884C15.3171 11.6697 15.3066 11.884 15.1585 12.0433C15.0051 12.2081 14.8041 12.2246 14.6296 12.0653C14.4075 11.8675 14.1695 11.7686 13.8892 11.895C13.6882 11.9829 13.5771 12.1422 13.5612 12.3675C13.5454 12.5927 13.6564 12.7411 13.8416 12.84C14.0848 12.9663 14.3387 13.0542 14.5926 13.1421C15.1585 13.3454 15.5075 13.741 15.5498 14.3673C15.5922 15.0266 15.3277 15.5486 14.7512 15.8453C14.5397 15.9552 14.4339 16.0486 14.4656 16.3068C14.4868 16.4716 14.3969 16.6145 14.2488 16.6859C14.106 16.7573 13.9685 16.7408 13.8363 16.6419C13.6988 16.5375 13.6617 16.3837 13.6829 16.2244C13.704 16.0595 13.6459 15.9991 13.4925 15.9771C13.2492 15.9442 13.0324 15.8178 12.8314 15.6749C12.6304 15.5321 12.5775 15.3068 12.6992 15.1036C12.8155 14.9058 13.0482 14.8453 13.2492 14.9827C13.5348 15.1805 13.8416 15.2299 14.1747 15.186C14.5238 15.142 14.7671 14.8398 14.7671 14.5047Z" fill="#606975"/>
</svg>
