<svg width="53" height="53" viewBox="0 0 53 53" fill="none" xmlns="http://www.w3.org/2000/svg">
<g filter="url(#filter0_d)">
<path d="M26.5 45C38.9264 45 49 34.9264 49 22.5C49 10.0736 38.9264 0 26.5 0C14.0736 0 4 10.0736 4 22.5C4 34.9264 14.0736 45 26.5 45Z" fill="#6FCF97"/>
<path d="M48.9989 22.4989C48.9989 21.9049 48.9809 21.3109 48.9269 20.7349C48.9089 20.7169 48.8909 20.6989 48.8729 20.6809C48.8189 20.6449 48.7829 20.5909 48.7289 20.5549C48.6929 20.5009 48.6389 20.4649 48.6029 20.4109C48.5489 20.3569 48.5129 20.3209 48.4589 20.2849C48.4229 20.2309 48.3689 20.1949 48.3329 20.1409C48.2789 20.1049 48.2429 20.0509 48.1889 20.0149C48.1529 19.9609 48.0989 19.9249 48.0629 19.8709C48.0269 19.8349 47.9729 19.7809 47.9189 19.7449C47.8829 19.6909 47.8289 19.655 47.7929 19.601C47.739 19.547 47.703 19.511 47.649 19.475C47.613 19.421 47.559 19.385 47.523 19.331C47.487 19.295 47.433 19.241 47.379 19.205C47.343 19.151 47.289 19.115 47.253 19.061C47.199 19.025 47.163 18.971 47.109 18.935C47.073 18.881 47.019 18.845 46.983 18.791C46.929 18.737 46.893 18.701 46.839 18.665C46.803 18.611 46.749 18.575 46.713 18.521C46.677 18.485 46.623 18.431 46.569 18.395C46.533 18.341 46.479 18.305 46.443 18.251C46.389 18.215 46.353 18.161 46.299 18.125C46.263 18.071 46.209 18.035 46.173 17.981C46.119 17.927 46.083 17.891 46.029 17.855C45.993 17.801 45.939 17.765 45.903 17.711C45.867 17.675 45.813 17.621 45.759 17.585C45.723 17.531 45.669 17.495 45.633 17.441C45.579 17.387 45.543 17.351 45.489 17.315C45.453 17.261 45.399 17.225 45.363 17.171C45.309 17.135 45.273 17.081 45.219 17.045C45.183 16.991 45.129 16.955 45.093 16.901C45.039 16.865 45.003 16.811 44.949 16.775C44.913 16.721 44.859 16.685 44.823 16.631C44.787 16.595 44.733 16.541 44.679 16.505C44.643 16.4511 44.5891 16.4151 44.5531 16.3611C44.4991 16.3071 44.4631 16.2711 44.4091 16.2351C44.3731 16.1811 44.3191 16.1451 44.2831 16.0911C44.2291 16.0551 44.1931 16.0011 44.1391 15.9651C44.1031 15.9111 44.0491 15.8751 44.0131 15.8211C43.9591 15.7851 43.9231 15.7311 43.8691 15.6951C43.8331 15.6411 43.7791 15.6051 43.7431 15.5511C43.7071 15.5151 43.6531 15.4611 43.5991 15.4251C43.5631 15.3711 43.5091 15.3351 43.4731 15.2811C43.4191 15.2271 43.3831 15.1911 43.3291 15.1551C43.2931 15.1011 43.2391 15.0651 43.2031 15.0111C43.1671 14.9751 43.1131 14.9211 43.0591 14.8851C43.0231 14.8311 42.9691 14.7951 42.9331 14.7411C42.8791 14.7051 42.8431 14.6511 42.7891 14.6151C42.7531 14.5611 42.6991 14.5251 42.6631 14.4711C42.6091 14.4171 42.5731 14.3811 42.5191 14.3451C42.4831 14.2911 42.4291 14.2551 42.3931 14.2011C42.3571 14.1651 42.3031 14.1111 42.2491 14.0751C42.2131 14.0211 42.1591 13.9851 42.1231 13.9311C42.0691 13.8951 42.0331 13.8411 41.9791 13.8051C41.9431 13.7511 41.8891 13.7151 41.8531 13.6611C41.7991 13.6071 41.7631 13.5711 41.7091 13.5351C41.6731 13.4811 41.6191 13.4451 41.5831 13.3911C41.5471 13.3371 41.4931 13.3011 41.4391 13.2652C41.4032 13.2112 41.3492 13.1752 41.3132 13.1212C41.2592 13.0852 41.2232 13.0312 41.1692 12.9952C41.1332 12.9412 41.0792 12.9052 41.0432 12.8512C40.9892 12.8152 40.9532 12.7612 40.8992 12.7252C40.8632 12.6712 40.8092 12.6352 40.7732 12.5812C40.7192 12.5452 40.6832 12.4912 40.6292 12.4552C40.5932 12.4012 40.5392 12.3652 40.5032 12.3112C39.2432 11.0512 37.2093 11.0512 35.9493 12.3112L22.5577 25.7028L19.6238 22.7689L17.1399 20.2849L16.8699 20.0149C15.61 18.755 13.576 18.755 12.3161 20.0149C11.0561 21.2749 11.0561 23.3088 12.3161 24.5688L12.856 25.1088L13.918 26.1707L14.188 26.4407L14.728 26.9807L16.3299 28.5827L17.3919 29.6446L17.6619 29.9146L18.7239 30.9766L18.9939 31.2466L22.4677 34.7205L23.0077 35.2605L24.3397 36.5924L25.4017 37.6544L25.6716 37.9244L27.0036 39.2563L30.7475 43.0002L31.9534 44.2062C41.7991 41.8303 48.9989 33.0105 48.9989 22.4989Z" fill="url(#paint0_linear)"/>
<path d="M22.6476 33.5508C21.8196 33.5508 21.0096 33.2448 20.3797 32.6148L12.4059 24.6591C11.1459 23.3991 11.1459 21.3652 12.4059 20.1052C13.6659 18.8452 15.6998 18.8452 16.9598 20.1052L22.6476 25.793L36.0392 12.3834C37.2991 11.1235 39.3331 11.1235 40.593 12.3834C41.853 13.6434 41.853 15.6773 40.593 16.9373L24.9155 32.6148C24.2855 33.2448 23.4576 33.5508 22.6476 33.5508Z" fill="white"/>
</g>
<defs>
<filter id="filter0_d" x="0" y="0" width="53" height="53" filterUnits="userSpaceOnUse" color-interpolation-filters="sRGB">
<feFlood flood-opacity="0" result="BackgroundImageFix"/>
<feColorMatrix in="SourceAlpha" type="matrix" values="0 0 0 0 0 0 0 0 0 0 0 0 0 0 0 0 0 0 127 0" result="hardAlpha"/>
<feOffset dy="4"/>
<feGaussianBlur stdDeviation="2"/>
<feComposite in2="hardAlpha" operator="out"/>
<feColorMatrix type="matrix" values="0 0 0 0 0 0 0 0 0 0 0 0 0 0 0 0 0 0 0.25 0"/>
<feBlend mode="normal" in2="BackgroundImageFix" result="effect1_dropShadow"/>
<feBlend mode="normal" in="SourceGraphic" in2="effect1_dropShadow" result="shape"/>
</filter>
<linearGradient id="paint0_linear" x1="28.3895" y1="20.4289" x2="44.859" y2="35.0985" gradientUnits="userSpaceOnUse">
<stop stop-color="#59896D"/>
<stop offset="1" stop-color="#59896D" stop-opacity="0"/>
</linearGradient>
</defs>
</svg>
