<svg fill="none" height="15" viewBox="0 0 15 15" width="15" xmlns="http://www.w3.org/2000/svg"><circle cx="7.5" cy="7.5" fill="#fa758e" r="7.5"/><path d="m9.85258 5.14753c-.19684-.19671-.51582-.19671-.71259 0l-1.65193 1.65187-1.62788-1.62795c-.19678-.19671-.51576-.19671-.7126 0-.19677.19684-.19677.51582 0 .71259l1.62788 1.62788-1.60396 1.60397c-.19678.19684-.19678.51582 0 .7126.09842.09835.22734.14753.35633.14753.12892 0 .25791-.04918.35633-.14753l1.6039-1.6039 1.62788 1.62788c.09842.09835.22734.14753.35633.14753.12892 0 .25791-.04918.35633-.14753.1968-.19684.1968-.51582 0-.7126l-1.62788-1.62788 1.65186-1.65186c.19682-.19684.19682-.51582 0-.7126z" fill="#fff" stroke="#fff" stroke-width=".3"/></svg>