<svg width="50" height="15" viewBox="0 0 50 15" fill="none" xmlns="http://www.w3.org/2000/svg">
<path d="M20.07 13.1046L20.073 13.1295C20.0818 13.206 20.0883 13.2616 20.1248 13.2902C20.145 13.3023 20.169 13.3082 20.1963 13.3082C20.2083 13.3082 20.2213 13.3075 20.233 13.305C20.279 13.2944 20.3158 13.2709 20.3415 13.2359C20.4045 13.1505 20.3128 12.6238 20.2828 12.4503C20.275 12.4056 20.2483 12.3711 20.2135 12.3602C20.1968 12.3548 20.181 12.3521 20.1658 12.3521C20.1445 12.3521 20.1235 12.3573 20.0943 12.3681C20.04 12.3893 20.0073 12.4197 19.9975 12.4589C19.9875 12.4972 20.005 12.6196 20.0185 12.7176L20.0325 12.8242L19.3492 12.8864L19.3252 12.8881C19.8828 12.2334 20.2615 11.7257 20.3998 11.4305C20.406 11.4172 20.4103 11.3834 20.403 11.3604C20.3928 11.3296 20.369 11.3074 20.3305 11.2923C20.313 11.2854 20.2953 11.2819 20.2778 11.2819C20.257 11.2819 20.236 11.2869 20.214 11.2965C20.1708 11.3148 20.134 11.3491 20.1053 11.3992C19.972 11.6245 19.824 11.8444 19.6645 12.0537L19.6303 12.0954C19.5583 12.008 19.461 11.8901 19.4188 11.8444L19.4068 11.8316L19.4173 11.8175C19.8585 11.2183 19.9243 11.0443 19.9243 10.9939C19.9243 10.9616 19.9083 10.9418 19.8625 10.9186C19.841 10.9078 19.8173 10.9023 19.792 10.9023C19.7758 10.9023 19.7588 10.9048 19.7423 10.9093C19.704 10.9196 19.6635 10.9566 19.634 11.0087C19.505 11.2343 19.374 11.4441 19.2442 11.6319L19.2347 11.6455L19.2187 11.6403C19.2065 11.6356 19.1982 11.6312 19.1977 11.6289C19.1695 11.6094 19.1385 11.5998 19.1032 11.5998C19.0925 11.5998 19.0815 11.6006 19.072 11.602C19.0262 11.6134 18.9937 11.628 18.9632 11.6706C18.9362 11.7084 18.923 11.7474 18.9237 11.7857C18.9257 11.8247 18.9455 11.8558 18.9862 11.8819C19.1005 11.9777 19.2762 12.1569 19.4228 12.3484C19.3505 12.4274 19.2752 12.5199 19.2025 12.6095C19.1212 12.7092 19.0097 12.8393 18.9352 12.9175L18.882 12.9217H18.8082C18.7565 12.9244 18.7125 12.9434 18.6737 12.979C18.643 13.0125 18.6247 13.0505 18.6192 13.0895C18.618 13.1345 18.6295 13.1668 18.6547 13.1887C18.6777 13.209 18.7085 13.2189 18.7492 13.2189C18.758 13.2189 18.767 13.2184 18.7762 13.2176L19.2567 13.1707L19.3375 13.1623L19.002 14.8315C18.9942 14.8705 18.9912 14.924 19.0207 14.9593C19.042 14.9845 19.0757 14.9991 19.1135 14.9991L19.1212 14.9988C19.17 14.9964 19.211 14.981 19.2465 14.9522C19.288 14.9184 19.3142 14.8749 19.3245 14.8233L19.6653 13.129L20.0688 13.0927L20.07 13.1046Z" fill="#606975"/>
<path d="M18.8763 13.3848C18.8375 13.3848 18.8007 13.3991 18.7662 13.427C18.735 13.4524 18.7122 13.4919 18.6995 13.5444C18.5942 13.9391 18.4955 14.2434 18.3777 14.5312C18.3575 14.5798 18.3542 14.6205 18.3667 14.6496C18.3852 14.682 18.411 14.7015 18.444 14.7079C18.4552 14.7099 18.4655 14.7111 18.4757 14.7111C18.5037 14.7111 18.5285 14.7032 18.5562 14.6852C18.6257 14.6405 18.7682 14.2585 18.9793 13.5521L18.9828 13.5348C18.9938 13.4803 18.9888 13.445 18.9663 13.4208C18.944 13.3969 18.914 13.3848 18.8763 13.3848Z" fill="#606975"/>
<path d="M19.9955 13.4121C19.9862 13.4121 19.9765 13.4131 19.966 13.4146C19.9272 13.4205 19.897 13.4378 19.8645 13.4721C19.8417 13.4963 19.828 13.5338 19.8232 13.5827L19.8067 14.0701C19.8055 14.115 19.817 14.1473 19.84 14.1673C19.86 14.1802 19.8835 14.1861 19.917 14.1861C19.9232 14.1861 19.9297 14.1858 19.9367 14.1854C19.968 14.1834 20.0112 14.1738 20.042 14.1394C20.063 14.1133 20.0825 14.081 20.0852 14.0217L20.102 13.534C20.1032 13.4884 20.0917 13.4563 20.067 13.4356C20.0477 13.42 20.0245 13.4121 19.9955 13.4121Z" fill="#606975"/>
<path d="M21.0181 14.0026C21.0643 13.9567 21.0883 13.9115 21.0906 13.8691C21.0918 13.8294 21.0783 13.7963 21.0511 13.7699C21.0223 13.7489 20.9928 13.7383 20.9611 13.7383C20.9538 13.7383 20.9458 13.7388 20.9381 13.74C20.8938 13.7464 20.8483 13.7718 20.8033 13.815C20.5008 14.1371 20.2178 14.3059 19.8583 14.4743C19.7378 14.5199 19.6918 14.5932 19.7218 14.6927C19.7325 14.7287 19.7578 14.7544 19.794 14.7665C19.804 14.7702 19.8153 14.7717 19.829 14.7717C19.9353 14.7717 20.1415 14.6682 20.4786 14.4461C20.6648 14.32 20.7936 14.221 21.0181 14.0026Z" fill="#606975"/>
<path d="M22.8295 12.4763H22.2405L22.7767 11.2914C22.7957 11.2445 22.7892 11.1855 22.7607 11.1337C22.7312 11.0806 22.6885 11.0547 22.6222 11.0547C22.622 11.0547 21.2844 11.0547 21.2844 11.0547C21.2174 11.0547 21.1717 11.0601 21.1204 11.0895C21.0659 11.1189 21.0272 11.165 20.9952 11.2393L20.6979 11.8859C20.6779 11.9345 20.6812 11.9817 20.7074 12.0291C20.7397 12.0777 20.7817 12.1026 20.8349 12.1051H22.1012L21.9322 12.476H20.6374C20.5867 12.476 20.5467 12.4899 20.5154 12.5173C20.4824 12.5486 20.4602 12.5854 20.4492 12.6258C20.4404 12.6715 20.4464 12.7061 20.4684 12.7325C20.4879 12.7559 20.5224 12.769 20.5697 12.772H21.4812L21.1427 14.4589C21.1309 14.5184 21.1069 14.5618 21.0724 14.5872C21.0442 14.6104 21.0139 14.6223 20.9822 14.6223C20.9477 14.6223 20.8854 14.6099 20.7614 14.5855L20.7269 14.5788C20.7037 14.5741 20.6832 14.5724 20.6647 14.5724C20.6359 14.5724 20.6089 14.5771 20.5829 14.5865C20.5394 14.602 20.5064 14.6324 20.4872 14.6741C20.4674 14.7163 20.4619 14.7627 20.4724 14.7982C20.4857 14.8424 20.5749 14.9192 21.0252 14.9392L21.0414 14.9396C21.1039 14.9396 21.1669 14.9239 21.2104 14.8977C21.3299 14.8311 21.4052 14.7175 21.4472 14.5408L21.6407 13.5761L21.683 13.5748C21.8037 14.0433 21.985 14.4226 22.221 14.7027C22.2572 14.7452 22.2915 14.7634 22.3357 14.7634C22.3777 14.7634 22.4232 14.7459 22.4695 14.7126C22.512 14.6778 22.5382 14.6395 22.5492 14.5976C22.5562 14.5492 22.5432 14.507 22.508 14.468C22.2735 14.1736 22.1002 13.8697 21.993 13.5657C21.9147 13.347 21.8707 13.0805 21.8607 12.7717H22.7612C22.8087 12.7717 22.8475 12.7567 22.8797 12.7261C22.9137 12.694 22.9355 12.6582 22.9462 12.6175C22.9552 12.5723 22.949 12.5375 22.9275 12.5108C22.9077 12.4884 22.875 12.4763 22.8295 12.4763ZM21.1409 11.8267C21.1057 11.8267 21.0837 11.7966 21.0837 11.7687C21.0837 11.7507 21.0899 11.7341 21.0974 11.7151L21.1072 11.6895L21.2034 11.4752C21.2199 11.4362 21.2347 11.4027 21.2619 11.3778C21.2909 11.3513 21.3407 11.3333 21.3859 11.3333H22.3257C22.3517 11.336 22.3862 11.3494 22.4045 11.401C22.412 11.4306 22.3992 11.4602 22.3867 11.4891L22.229 11.8264H21.1409V11.8267Z" fill="#606975"/>
<path d="M20.7782 13.4973C20.7977 13.5408 20.8252 13.5667 20.8582 13.5763C20.8665 13.5773 20.8745 13.578 20.8827 13.578C20.9132 13.578 20.9447 13.5697 20.9762 13.5536C21.017 13.5304 21.0537 13.4882 21.0695 13.448C21.0897 13.3841 21.0282 13.2594 20.8427 12.9874C20.8147 12.946 20.787 12.9297 20.745 12.9297C20.7062 12.9297 20.6722 12.9371 20.6297 12.9716C20.595 12.9998 20.5725 13.0366 20.563 13.082C20.5525 13.1232 20.5607 13.1614 20.5892 13.1999C20.62 13.2493 20.6465 13.2866 20.6702 13.3206C20.709 13.3752 20.742 13.4221 20.7782 13.4973Z" fill="#606975"/>
<path d="M22.7998 12.9668C22.7758 12.9522 22.7526 12.9453 22.7273 12.9453C22.7136 12.9453 22.6991 12.9475 22.6833 12.9522C22.6423 12.9626 22.6028 12.9927 22.5653 13.043C22.4856 13.1465 22.3993 13.2331 22.2581 13.3659C22.2143 13.4081 22.1876 13.452 22.1788 13.4945C22.1741 13.5317 22.1848 13.5638 22.2121 13.5932C22.2368 13.6198 22.2763 13.6376 22.3103 13.6376C22.3163 13.6376 22.3223 13.6371 22.3273 13.6361C22.4643 13.6082 22.5573 13.5085 22.8066 13.18C22.8426 13.1334 22.8583 13.0897 22.8536 13.0487C22.8506 13.0132 22.8331 12.9863 22.7998 12.9668Z" fill="#606975"/>
<path d="M31.4996 12.2334C31.5061 12.2341 31.5129 12.2344 31.5194 12.2344C31.5559 12.2344 31.5936 12.2218 31.6289 12.1984C31.6756 12.167 31.7059 12.1305 31.7189 12.0908C31.7309 12.0441 31.7254 11.9999 31.7026 11.9567C31.6294 11.8294 31.5339 11.6904 31.4179 11.5428C31.3014 11.3879 31.2164 11.28 31.1666 11.2227C31.1346 11.1872 31.0984 11.1699 31.0473 11.1699C31.0468 11.1699 31.0466 11.1699 31.0463 11.1699C31.0038 11.1724 30.9611 11.1924 30.9198 11.2279C30.8796 11.2672 30.8563 11.3076 30.8511 11.3486C30.8446 11.3933 30.8593 11.432 30.8971 11.4683C31.0808 11.666 31.2476 11.8982 31.3916 12.1574C31.4199 12.2023 31.4569 12.228 31.4996 12.2334Z" fill="#606975"/>
<path d="M30.6479 12.2148C30.6436 12.2148 30.6396 12.2151 30.6354 12.2156C30.5956 12.2198 30.5549 12.2403 30.5121 12.2773C30.4681 12.3229 30.4518 12.3533 30.4461 12.4024C30.4413 12.4426 30.4581 12.4797 30.4971 12.5179C30.6966 12.7272 30.8614 12.936 30.9879 13.1389C31.0176 13.1858 31.0554 13.211 31.0994 13.2147C31.1046 13.2149 31.1096 13.2151 31.1151 13.2151C31.1561 13.2151 31.1929 13.2016 31.2301 13.172C31.2806 13.132 31.3031 13.1014 31.3136 13.0594C31.3224 13.0229 31.2951 12.9276 31.1151 12.6835C30.9386 12.4703 30.8191 12.3291 30.7611 12.2654C30.7264 12.2329 30.6861 12.2148 30.6479 12.2148Z" fill="#606975"/>
<path d="M32.3829 10.9043C32.3322 10.9043 32.2854 10.9201 32.2467 10.9497C32.2137 10.9811 32.1899 11.0235 32.1769 11.0756L31.6779 13.5646L29.9606 13.8023C29.8984 13.8131 29.8464 13.8373 29.8081 13.8729C29.7776 13.9059 29.7609 13.9506 29.7579 14.0049C29.7566 14.0501 29.7721 14.0849 29.8044 14.1115C29.8249 14.1278 29.8546 14.1362 29.8929 14.1362C29.9066 14.1362 29.9209 14.1352 29.9364 14.133L31.6107 13.9015L31.4274 14.8142C31.4162 14.8707 31.4224 14.9156 31.4449 14.9457C31.4719 14.9756 31.5079 14.9902 31.5544 14.9902C31.6064 14.9874 31.6504 14.9709 31.6889 14.9396C31.7307 14.9053 31.7567 14.8616 31.7677 14.806L31.9589 13.8521L32.2554 13.807C32.3177 13.7964 32.3694 13.7722 32.4079 13.7364C32.4384 13.7028 32.4547 13.6626 32.4564 13.6127C32.4582 13.5656 32.4444 13.5306 32.4134 13.5054C32.3909 13.4854 32.3557 13.475 32.3089 13.475C32.2992 13.475 32.2889 13.4753 32.2799 13.476L32.0264 13.5153L32.5174 11.0667C32.5269 11.0191 32.5177 10.9803 32.4879 10.9475C32.4632 10.9186 32.4292 10.9043 32.3829 10.9043Z" fill="#606975"/>
<path d="M29.9287 13.6192C29.9387 13.6212 29.9489 13.6221 29.9589 13.6221C29.9899 13.6221 30.0227 13.6133 30.0559 13.596C30.1037 13.5701 30.1359 13.5363 30.1519 13.4965C30.1704 13.4425 30.1704 13.3978 30.1529 13.3637C30.0172 13.1256 29.8464 12.84 29.6456 12.5152L29.6409 12.5083L29.6549 12.4399H30.1832C30.2342 12.4399 30.2777 12.4237 30.3167 12.3896C30.3552 12.3558 30.3797 12.3151 30.3889 12.2687C30.3987 12.2203 30.3917 12.1808 30.3699 12.1512C30.3442 12.1263 30.3064 12.1124 30.2582 12.11H29.7211L29.8667 11.3839L29.8814 11.3814C30.0469 11.353 30.2119 11.317 30.3714 11.2745C30.4352 11.256 30.4819 11.2269 30.5119 11.1874C30.5432 11.1489 30.5557 11.1065 30.5497 11.0554C30.5487 11.0095 30.5312 10.9794 30.4964 10.9628C30.4739 10.9524 30.4482 10.9473 30.4192 10.9473C30.3977 10.9473 30.3742 10.95 30.3499 10.9554C30.0242 11.0413 29.5881 11.1047 29.0526 11.145C28.9931 11.1474 28.9414 11.1659 28.9001 11.1995C28.8611 11.2338 28.8384 11.2743 28.8314 11.3236C28.8246 11.3713 28.8354 11.409 28.8656 11.4391C28.8881 11.4638 28.9229 11.4759 28.9711 11.4759C28.9794 11.4759 28.9884 11.4757 28.9979 11.4747C29.1674 11.4633 29.3311 11.4505 29.4894 11.4362L29.5181 11.4335L29.3826 12.1095H28.7616C28.7106 12.1095 28.6654 12.1248 28.6251 12.1556C28.5856 12.1897 28.5619 12.2294 28.5526 12.2766C28.5429 12.3249 28.5496 12.3644 28.5734 12.396C28.5976 12.4254 28.6346 12.4395 28.6871 12.4395H29.2891L29.2691 12.472C29.0214 12.8746 28.6956 13.2741 28.3021 13.6597C28.2584 13.7019 28.2324 13.7497 28.2246 13.7989C28.2244 13.8393 28.2389 13.8734 28.2679 13.9025C28.2961 13.9267 28.3254 13.9385 28.3579 13.9385C28.3659 13.9385 28.3744 13.9378 28.3849 13.9358C28.4501 13.9304 28.6256 13.7981 29.0901 13.1999C29.1036 13.1791 29.1181 13.1594 29.1341 13.1416L29.1876 13.0807L28.8401 14.8147C28.8286 14.8712 28.8349 14.9159 28.8576 14.946C28.8846 14.9759 28.9204 14.9904 28.9671 14.9904C29.0186 14.9877 29.0629 14.9712 29.1011 14.9398C29.1434 14.9055 29.1691 14.8618 29.1804 14.8063L29.5494 12.9656L29.5781 13.0162C29.6821 13.1984 29.7696 13.3709 29.8384 13.5293C29.8581 13.5829 29.8879 13.612 29.9287 13.6192Z" fill="#606975"/>
<path d="M37.4758 11.372H36.4101L36.4713 11.0677C36.4813 11.0171 36.4728 10.9806 36.4428 10.9495C36.4161 10.9221 36.3831 10.9082 36.3351 10.9048L36.3221 10.9043C36.2758 10.9043 36.2293 10.9218 36.2008 10.95C36.1821 10.9687 36.1408 11.0462 36.0751 11.3552L36.0713 11.3722H35.151C35.0998 11.3722 35.0545 11.3878 35.014 11.4184C34.9748 11.4527 34.951 11.4922 34.9415 11.5396C34.932 11.5879 34.939 11.6274 34.9625 11.659C34.9865 11.6882 35.0238 11.7025 35.076 11.7025H36.0053L35.8823 12.3158H35.1028C35.0518 12.3158 35.0055 12.3303 34.9663 12.358C34.928 12.3893 34.9038 12.43 34.8935 12.4829C34.8843 12.5285 34.8915 12.5663 34.9158 12.5986C34.9395 12.6305 34.976 12.6455 35.028 12.6455H36.6216C36.6876 12.6455 36.7263 12.6613 36.7413 12.6949C36.7481 12.7166 36.7606 12.7571 36.4686 13.1347C36.2991 13.3494 36.0763 13.57 35.8063 13.7899L35.7906 13.803L35.7765 13.788C35.5728 13.5698 35.385 13.2793 35.219 12.9259C35.193 12.8778 35.1535 12.8469 35.114 12.8427C35.1088 12.8422 35.104 12.842 35.0985 12.842C35.0603 12.842 35.0168 12.8553 34.9788 12.878C34.9338 12.9054 34.9038 12.9422 34.889 12.9871C34.8718 13.033 34.8755 13.0777 34.9005 13.1236C35.0955 13.458 35.299 13.7458 35.505 13.9778L35.5223 13.997L35.205 14.1821C34.9555 14.3139 34.6008 14.4511 34.1505 14.5913C34.082 14.6116 34.0433 14.6353 34.0215 14.6715C33.994 14.7179 33.982 14.7643 33.9848 14.8147C33.9863 14.8586 34.0053 14.8905 34.044 14.9127C34.0655 14.9262 34.09 14.9327 34.1185 14.9327C34.138 14.9327 34.1595 14.9294 34.182 14.923C34.5935 14.8011 34.964 14.6548 35.282 14.4877C35.4338 14.402 35.5818 14.3117 35.7223 14.2184L35.7371 14.2088L35.7496 14.2204C36.1031 14.5432 36.4423 14.7754 36.7556 14.9104C36.7871 14.9208 36.8176 14.926 36.8471 14.926C36.8721 14.926 36.8951 14.922 36.9168 14.9146C36.9613 14.8991 37.0028 14.8653 37.0418 14.813C37.0706 14.7626 37.0801 14.7172 37.0701 14.6725C37.0616 14.6259 37.0293 14.5918 36.9706 14.5686C36.6026 14.4114 36.2868 14.2253 36.0318 14.0165L36.0128 14.001L36.0313 13.9844C36.4678 13.5888 36.8281 13.1761 37.1018 12.7581C37.1976 12.6122 37.2381 12.5322 37.2381 12.4913C37.2378 12.4436 37.2211 12.4022 37.1878 12.3688C37.1556 12.3355 37.1056 12.3178 37.0398 12.315H36.2208L36.3436 11.7017H37.4006C37.4516 11.7017 37.4948 11.6852 37.5338 11.6514C37.5728 11.6173 37.5968 11.5778 37.6063 11.5304C37.6166 11.4794 37.6098 11.4391 37.5858 11.4115C37.5648 11.3868 37.5313 11.375 37.4758 11.372Z" fill="#606975"/>
<path d="M34.1446 13.3244C34.5691 13.1326 34.6771 13.032 34.6924 12.9826C34.7034 12.9414 34.7011 12.8977 34.6876 12.857C34.6644 12.8165 34.6359 12.7933 34.6026 12.7864L34.5896 12.7859C34.5461 12.7859 34.5014 12.7982 34.4586 12.8214C34.4039 12.8562 34.3331 12.8955 34.2484 12.9384L34.2084 12.9586L34.3814 12.0961H34.6986C34.7494 12.0961 34.7931 12.0795 34.8319 12.0457C34.8706 12.0119 34.8951 11.9712 34.9046 11.9248C34.9141 11.8762 34.9071 11.8367 34.8851 11.8068C34.8596 11.7821 34.8216 11.7683 34.7736 11.7658H34.4474L34.5879 11.0669C34.5994 11.0101 34.5919 10.965 34.5666 10.9311C34.5396 10.9013 34.5034 10.8867 34.4576 10.8867C34.4064 10.8892 34.3611 10.9065 34.3236 10.9371C34.2846 10.9709 34.2591 11.0173 34.2471 11.0753L34.1089 11.7658H33.6991C33.6476 11.7658 33.6026 11.7811 33.5624 11.812C33.5229 11.8463 33.4991 11.886 33.4898 11.9329C33.4798 11.9815 33.4866 12.0208 33.5106 12.0524C33.5349 12.0815 33.5721 12.0958 33.6244 12.0958H34.0424L33.8349 13.1319L33.8239 13.1366C33.6486 13.2047 33.4746 13.2657 33.3068 13.3165C33.2476 13.3365 33.2056 13.3644 33.1861 13.3972C33.1601 13.4414 33.1506 13.4868 33.1588 13.5325C33.1658 13.5734 33.1913 13.6075 33.2266 13.624C33.2451 13.6327 33.2653 13.6371 33.2868 13.6371C33.3093 13.6371 33.3338 13.6324 33.3593 13.6235C33.4831 13.5776 33.6064 13.5335 33.7296 13.4903L33.7659 13.4777L33.5759 14.4237C33.5644 14.4827 33.5401 14.5283 33.5031 14.5612C33.4819 14.577 33.4483 14.5849 33.4013 14.5849C33.3583 14.5849 33.3023 14.5784 33.2328 14.5646C33.2091 14.5579 33.1853 14.554 33.1628 14.554C33.0841 14.554 33.0183 14.5982 32.9786 14.6779C32.9568 14.7211 32.9528 14.7672 32.9683 14.8013C32.9951 14.862 33.0943 14.9025 33.2621 14.9212C33.2968 14.9235 33.3298 14.9247 33.3611 14.9247C33.4761 14.9247 33.5666 14.9087 33.6291 14.8768C33.7721 14.7946 33.8621 14.6727 33.8966 14.5138L34.1344 13.3279L34.1446 13.3244Z" fill="#606975"/>
<path d="M27.5459 11.0723H24.4591C24.3869 11.0723 24.3364 11.091 24.2799 11.1394C24.2259 11.1878 24.1914 11.2431 24.1761 11.3035L23.8933 12.7182C23.8768 12.7863 23.8876 12.8554 23.9231 12.912C23.9528 12.9593 24.0071 12.9875 24.0681 12.9875H25.0036C24.5551 13.3868 24.0216 13.6926 23.4856 13.8654C23.4308 13.8839 23.3896 13.914 23.3628 13.9554C23.3358 13.9967 23.3266 14.0428 23.3351 14.0946C23.3436 14.1423 23.3628 14.1739 23.3911 14.1892C23.4068 14.1946 23.4263 14.1973 23.4488 14.1973C23.6253 14.1973 23.9901 14.0352 24.5316 13.716L24.7441 13.5655C24.6536 13.9816 24.3976 14.302 23.9831 14.5167C23.9398 14.5414 23.8956 14.5623 23.8438 14.5823C23.7756 14.6085 23.7326 14.6433 23.7078 14.6917C23.6918 14.724 23.6753 14.7729 23.6891 14.8225C23.7021 14.8708 23.7266 14.898 23.7681 14.9103C23.7821 14.9145 23.7978 14.9168 23.8151 14.9168C23.9263 14.9168 24.1031 14.8321 24.3401 14.665C24.7259 14.3837 24.9804 13.9984 25.0964 13.5203L25.1496 13.2543C25.2759 13.1449 25.3829 13.0462 25.4434 12.987H25.8129C25.8266 13.0057 25.8414 13.0252 25.8419 13.0262C25.9321 13.1551 26.0351 13.279 26.1477 13.3952L25.8629 14.8151C25.8506 14.8736 25.8574 14.918 25.8809 14.9476C25.9051 14.977 25.9369 14.9913 25.9784 14.9913L25.9891 14.9908C26.0421 14.9881 26.0849 14.9723 26.1241 14.9402C26.1659 14.9059 26.1919 14.8622 26.2029 14.8067L26.4332 13.6598L26.4952 13.7165C26.7132 13.8893 26.9542 14.0384 27.2117 14.16C27.2432 14.1753 27.2744 14.183 27.3047 14.183C27.3259 14.183 27.3472 14.1793 27.3684 14.1719C27.4149 14.1561 27.4584 14.1225 27.4972 14.0739C27.5257 14.0268 27.5379 13.9791 27.5342 13.9342C27.5257 13.8871 27.4949 13.8515 27.4397 13.8261C26.9929 13.6326 26.5877 13.3407 26.2734 12.9875H27.1537C27.2219 12.9848 27.2922 12.9561 27.3609 12.9021C27.4329 12.8456 27.4767 12.7804 27.4912 12.7091L27.7739 11.2959C27.7832 11.2374 27.7697 11.1853 27.7337 11.1411C27.6954 11.0942 27.6362 11.0723 27.5459 11.0723ZM25.5399 12.6745H24.4124C24.3586 12.6745 24.3184 12.659 24.2931 12.6281C24.2724 12.6032 24.2659 12.564 24.2739 12.5077L24.3384 12.1863H25.6371L25.5399 12.6745ZM25.6999 11.8731H24.4011L24.4659 11.5493C24.4726 11.4987 24.4944 11.4568 24.5301 11.4252C24.5559 11.4015 24.5984 11.3882 24.6609 11.385H24.6614H25.7974L25.6999 11.8731ZM27.1914 12.5156C27.1814 12.5699 27.1632 12.6057 27.1329 12.6308C27.0979 12.66 27.0522 12.6745 26.9964 12.6745H25.8784L25.9759 12.1861H27.2574L27.1914 12.5156ZM27.3834 11.5565L27.3202 11.8731H26.0384L26.1359 11.385H27.2459C27.2994 11.385 27.3409 11.402 27.3687 11.4358C27.3899 11.4615 27.3947 11.501 27.3834 11.5565Z" fill="#606975"/>
<path d="M8.22864 8.91753H4.5473L4.98356 7.30638H8.30139C8.43839 6.35643 8.68615 5.4815 9.02766 4.69H5.69158L6.08234 3.24569H9.84393C10.6582 2.03018 11.7317 1.0933 12.9622 0.476043C13.063 0.425695 13.025 0.275391 12.9122 0.275391H6.88636H4.88081H3.57728C3.15427 0.275391 2.78426 0.556008 2.67526 0.959288L0.0321937 10.7246C-0.12631 11.3098 0.32045 11.8841 0.933715 11.8841H2.38925L2.3875 11.8876H9.69542C9.78517 11.8876 9.82117 11.775 9.74942 11.7225C8.7984 11.025 8.30039 10.024 8.22864 8.91753Z" fill="#606975"/>
<path d="M49.7365 1.65625H43.8556C43.6716 1.65625 43.5048 1.76287 43.4296 1.92872L43.248 2.32805H49.8377L49.9767 2.02251C50.0545 1.85024 49.9272 1.65625 49.7365 1.65625Z" fill="#606975"/>
<path d="M20.8106 7.34902H17.2717C17.2717 7.34902 16.7515 9.1739 15.0864 9.2551C13.7344 9.321 13.4959 8.53418 13.4761 7.69455C13.4494 6.5548 14.2222 2.71205 16.854 2.87025C17.98 2.93787 17.95 4.10798 17.9012 4.53569H21.5161C21.5453 4.29974 21.5883 3.80761 21.5498 3.14766C21.4886 2.10268 20.5376 0.0835681 17.6495 0.00310953C13.5179 -0.111902 9.8923 2.9702 9.62855 8.13535C9.51605 10.3373 11.1268 12.2353 14.6799 12.1269C17.8967 12.0289 20.0428 10.1377 20.8106 7.34902Z" fill="#606975"/>
<path d="M25.8745 1.97081C26.0605 1.92392 26.304 1.89282 26.7778 1.89282C27.9938 1.89282 28.5191 2.4696 28.2606 3.43634C28.1411 3.88331 27.9011 4.25499 27.5678 4.53611H30.1854C30.3919 4.17478 30.5544 3.77891 30.6666 3.3586C30.9419 2.32967 30.7329 1.45622 30.1794 0.926331C29.6189 0.364849 28.6353 0.0839844 27.1508 0.0839844C25.6815 0.0839844 24.6142 0.177524 23.8382 0.302407L22.6797 4.53611H25.189L25.8745 1.97081Z" fill="#606975"/>
<path d="M41.0357 4.53506L40.8037 2.21484H38.1406L38.5939 4.53506H41.0357Z" fill="#606975"/>
<path d="M33.9313 3.66465C35.1519 3.65379 35.2849 4.1321 35.2166 4.53489H37.4452C37.6009 3.10465 36.9789 2.02734 34.7953 2.02734C33.5138 2.02734 32.435 2.35115 31.7875 2.63276L31.291 4.49614C31.4775 4.28142 32.0403 4.02474 32.6323 3.86037C33.1001 3.73055 33.5833 3.66761 33.9313 3.66465Z" fill="#606975"/>
<path d="M41.9624 5.1615H22.5199L22.4367 5.47075L22.4107 5.56873L21.2656 9.85327H23.7477L24.5375 6.89827C24.686 6.92493 25.0995 6.95849 25.2452 6.96071C26.6665 6.98367 27.979 6.60186 29.0006 5.85354C29.1196 5.76815 29.2782 5.67683 29.2782 5.67683H31.0299C30.1048 6.11713 29.4591 6.69071 29.2128 7.67127C28.9251 8.81792 29.5951 9.8281 31.2669 9.85574C32.2564 9.87203 33.3649 9.54156 33.9332 9.09533L34.0144 9.03314L33.8664 9.8629H36.3135C36.3325 9.45073 36.334 8.9127 36.5662 8.06245C36.7792 7.28255 37.1762 6.0774 37.2988 5.67683H38.771L39.6676 9.93546C39.6968 10.1223 39.6833 10.2316 39.6583 10.3252C39.6331 10.4185 39.5303 10.6115 39.4291 10.7452C39.1623 11.0969 38.9793 11.3568 38.3068 11.7988L37.8215 14.5697C38.2945 14.4068 38.83 14.1509 39.383 13.7592C40.4563 12.9949 41.5194 11.7944 43.4379 8.75351L45.0017 6.2546L45.4272 5.67683H48.0625C48.2465 5.67683 48.4133 5.57021 48.4885 5.40436L49.5843 2.88867H42.9949L41.9624 5.1615ZM34.6234 6.84595C34.5697 7.00859 34.5327 7.13101 34.4359 7.32006C34.1202 7.94004 33.5407 8.2441 32.6176 8.30185C31.7776 8.35467 31.5079 7.88278 31.6214 7.47876C31.8631 6.61667 33.0829 6.33802 34.7259 6.33802C34.7259 6.33802 34.6769 6.6833 34.6234 6.84595ZM42.0571 7.47506C41.8256 7.9272 41.7989 8.00371 41.5916 8.42452H41.5281L41.1928 5.67708H42.9519L42.0571 7.47506Z" fill="#606975"/>
<path fill-rule="evenodd" clip-rule="evenodd" d="M22.3857 5.67773H48.0786C48.0746 5.67784 48.0705 5.67789 48.0664 5.67789H45.4311L45.0056 6.25566L43.4418 8.75457C41.5233 11.7955 40.4602 12.9959 39.387 13.7603C38.8339 14.152 38.2984 14.4079 37.8254 14.5708L38.3107 11.7999C38.957 11.3751 39.1512 11.1185 39.4021 10.787C39.4123 10.7736 39.4226 10.76 39.433 10.7463C39.5342 10.6125 39.637 10.4195 39.6622 10.3262C39.6872 10.2327 39.7007 10.1233 39.6715 9.93652L38.7749 5.67789H37.3027C37.2691 5.78764 37.2149 5.9578 37.1496 6.16306C36.9764 6.70694 36.7248 7.4973 36.5701 8.06351C36.3597 8.83372 36.3387 9.34773 36.3225 9.74406C36.3208 9.78524 36.3192 9.82516 36.3174 9.86396H33.8703L34.0183 9.0342L33.9371 9.09639C33.3688 9.54262 32.2603 9.87309 31.2708 9.8568C29.599 9.82916 28.929 8.81898 29.2167 7.67233C29.463 6.69177 30.1087 6.11819 31.0338 5.67789H29.2821C29.2821 5.67789 29.1235 5.76921 29.0045 5.8546C27.9829 6.60292 26.6704 6.98473 25.2491 6.96177C25.1034 6.95955 24.6899 6.92599 24.5414 6.89933L23.7516 9.85433H21.2695L22.3857 5.67773ZM34.6139 6.88781C34.6183 6.87446 34.6228 6.86088 34.6273 6.84701C34.6808 6.68436 34.7298 6.33908 34.7298 6.33908C33.0868 6.33908 31.867 6.61773 31.6253 7.47982C31.5118 7.88384 31.7815 8.35573 32.6215 8.30291C33.5446 8.24516 34.1241 7.9411 34.4398 7.32112C34.5283 7.14819 34.5668 7.03102 34.6139 6.88781ZM41.7776 8.04945C41.8543 7.88899 41.9193 7.75297 42.061 7.47612L42.9558 5.67814H41.1967L41.532 8.42558H41.5955C41.6759 8.26244 41.7291 8.15104 41.7776 8.04945Z" fill="#606975"/>
</svg>
