<svg width="20" height="20" viewBox="0 0 20 20" fill="none" xmlns="http://www.w3.org/2000/svg">
<mask id="mask0" mask-type="alpha" maskUnits="userSpaceOnUse" x="0" y="0" width="20" height="20">
<circle cx="10" cy="10" r="10" fill="#C4C4C4"/>
</mask>
<g mask="url(#mask0)">
<path fill-rule="evenodd" clip-rule="evenodd" d="M38.0001 0V20.0001H0V0H38.0001Z" fill="#BF0A30"/>
<path fill-rule="evenodd" clip-rule="evenodd" d="M38.0001 16.9229V18.4613H0V16.9229H38.0001Z" fill="white"/>
<path fill-rule="evenodd" clip-rule="evenodd" d="M38.0001 1.53833V3.07681H0V1.53833H38.0001Z" fill="white"/>
<path fill-rule="evenodd" clip-rule="evenodd" d="M38.0001 4.61523V6.15375H0V4.61523H38.0001Z" fill="white"/>
<path fill-rule="evenodd" clip-rule="evenodd" d="M38.0001 7.69214V9.23058H0V7.69214H38.0001Z" fill="white"/>
<path fill-rule="evenodd" clip-rule="evenodd" d="M38.0001 10.769V12.3075H0V10.769H38.0001Z" fill="white"/>
<path fill-rule="evenodd" clip-rule="evenodd" d="M38.0001 13.8462V15.3847H0V13.8462H38.0001Z" fill="white"/>
<path fill-rule="evenodd" clip-rule="evenodd" d="M0 10.7693H15.2014V0H0V10.7693Z" fill="#002868"/>
<path fill-rule="evenodd" clip-rule="evenodd" d="M13.5905 1.37065L13.2261 1.10589H13.6765L13.8157 0.67749L13.9549 1.10589H14.4054L14.041 1.37065L14.1802 1.79915L13.8157 1.53432L13.4514 1.79915L13.5905 1.37065Z" fill="white"/>
<path fill-rule="evenodd" clip-rule="evenodd" d="M11.8156 1.37065L11.4512 1.10589H11.9016L12.0408 0.67749L12.18 1.10589H12.6305L12.2661 1.37065L12.4053 1.79915L12.0408 1.53432L11.6764 1.79915L11.8156 1.37065Z" fill="white"/>
<path fill-rule="evenodd" clip-rule="evenodd" d="M12.7032 3.0291L12.3389 2.76432H12.7893L12.9285 2.33594L13.0677 2.76432H13.5182L13.1538 3.0291L13.2929 3.4576L12.9285 3.19275L12.5641 3.4576L12.7032 3.0291Z" fill="white"/>
<path fill-rule="evenodd" clip-rule="evenodd" d="M10.0414 1.37065L9.677 1.10589H10.1274L10.2666 0.67749L10.4059 1.10589H10.8563L10.4919 1.37065L10.631 1.79915L10.2666 1.53432L9.90222 1.79915L10.0414 1.37065Z" fill="white"/>
<path fill-rule="evenodd" clip-rule="evenodd" d="M10.9283 3.0291L10.564 2.76432H11.0144L11.1536 2.33594L11.2928 2.76432H11.7433L11.3788 3.0291L11.518 3.4576L11.1536 3.19275L10.7892 3.4576L10.9283 3.0291Z" fill="white"/>
<path fill-rule="evenodd" clip-rule="evenodd" d="M8.26703 1.37065L7.90259 1.10589H8.35307L8.49229 0.67749L8.63148 1.10589H9.08192L8.71751 1.37065L8.8567 1.79915L8.49229 1.53432L8.12785 1.79915L8.26703 1.37065Z" fill="white"/>
<path fill-rule="evenodd" clip-rule="evenodd" d="M9.15421 3.0291L8.78979 2.76432H9.24024L9.3795 2.33594L9.51869 2.76432H9.96913L9.60472 3.0291L9.74387 3.4576L9.3795 3.19275L9.01505 3.4576L9.15421 3.0291Z" fill="white"/>
<path fill-rule="evenodd" clip-rule="evenodd" d="M6.49238 1.37065L6.12793 1.10589H6.57838L6.7176 0.67749L6.85682 1.10589H7.30727L6.94286 1.37065L7.08201 1.79915L6.7176 1.53432L6.35319 1.79915L6.49238 1.37065Z" fill="white"/>
<path fill-rule="evenodd" clip-rule="evenodd" d="M7.38004 3.0291L7.01562 2.76432H7.46607L7.60526 2.33594L7.74452 2.76432H8.19496L7.83055 3.0291L7.9697 3.4576L7.60526 3.19275L7.24088 3.4576L7.38004 3.0291Z" fill="white"/>
<path fill-rule="evenodd" clip-rule="evenodd" d="M4.71698 1.37065L4.35254 1.10589H4.80298L4.94221 0.67749L5.0814 1.10589H5.53188L5.16747 1.37065L5.30662 1.79915L4.94221 1.53432L4.57783 1.79915L4.71698 1.37065Z" fill="white"/>
<path fill-rule="evenodd" clip-rule="evenodd" d="M5.60419 3.0291L5.23975 2.76432H5.69019L5.82942 2.33594L5.9686 2.76432H6.41905L6.05467 3.0291L6.19383 3.4576L5.82942 3.19275L5.46504 3.4576L5.60419 3.0291Z" fill="white"/>
<path fill-rule="evenodd" clip-rule="evenodd" d="M2.94274 1.37065L2.57837 1.10589H3.02883L3.16801 0.67749L3.3072 1.10589H3.75765L3.39327 1.37065L3.53242 1.79915L3.16801 1.53432L2.80359 1.79915L2.94274 1.37065Z" fill="white"/>
<path fill-rule="evenodd" clip-rule="evenodd" d="M3.82995 3.0291L3.46558 2.76432H3.91602L4.05524 2.33594L4.19443 2.76432H4.64488L4.2805 3.0291L4.41965 3.4576L4.05524 3.19275L3.6908 3.4576L3.82995 3.0291Z" fill="white"/>
<path fill-rule="evenodd" clip-rule="evenodd" d="M1.16834 1.37065L0.803955 1.10589H1.2544L1.39359 0.67749L1.5328 1.10589H1.98325L1.61882 1.37065L1.75798 1.79915L1.39359 1.53432L1.02918 1.79915L1.16834 1.37065Z" fill="white"/>
<path fill-rule="evenodd" clip-rule="evenodd" d="M2.05555 3.0291L1.69116 2.76432H2.14161L2.2808 2.33594L2.42 2.76432H2.87045L2.50603 3.0291L2.64519 3.4576L2.2808 3.19275L1.91638 3.4576L2.05555 3.0291Z" fill="white"/>
<path fill-rule="evenodd" clip-rule="evenodd" d="M13.5905 8.00468L13.2261 7.73988H13.6765L13.8157 7.31152L13.9549 7.73988H14.4054L14.041 8.00468L14.1802 8.43318L13.8157 8.16835L13.4514 8.43318L13.5905 8.00468Z" fill="white"/>
<path fill-rule="evenodd" clip-rule="evenodd" d="M11.8156 8.00468L11.4512 7.73988H11.9016L12.0408 7.31152L12.18 7.73988H12.6305L12.2661 8.00468L12.4053 8.43318L12.0408 8.16835L11.6764 8.43318L11.8156 8.00468Z" fill="white"/>
<path fill-rule="evenodd" clip-rule="evenodd" d="M12.7032 9.66289L12.3389 9.39812H12.7893L12.9285 8.96973L13.0677 9.39812H13.5182L13.1538 9.66289L13.2929 10.0914L12.9285 9.82658L12.5641 10.0914L12.7032 9.66289Z" fill="white"/>
<path fill-rule="evenodd" clip-rule="evenodd" d="M10.0414 8.00468L9.677 7.73988H10.1274L10.2666 7.31152L10.4059 7.73988H10.8563L10.4919 8.00468L10.631 8.43318L10.2666 8.16835L9.90222 8.43318L10.0414 8.00468Z" fill="white"/>
<path fill-rule="evenodd" clip-rule="evenodd" d="M10.9283 9.66289L10.564 9.39812H11.0144L11.1536 8.96973L11.2928 9.39812H11.7433L11.3788 9.66289L11.518 10.0914L11.1536 9.82658L10.7892 10.0914L10.9283 9.66289Z" fill="white"/>
<path fill-rule="evenodd" clip-rule="evenodd" d="M8.26703 8.00468L7.90259 7.73988H8.35307L8.49229 7.31152L8.63148 7.73988H9.08192L8.71751 8.00468L8.8567 8.43318L8.49229 8.16835L8.12785 8.43318L8.26703 8.00468Z" fill="white"/>
<path fill-rule="evenodd" clip-rule="evenodd" d="M9.15421 9.66289L8.78979 9.39812H9.24024L9.3795 8.96973L9.51869 9.39812H9.96913L9.60472 9.66289L9.74387 10.0914L9.3795 9.82658L9.01505 10.0914L9.15421 9.66289Z" fill="white"/>
<path fill-rule="evenodd" clip-rule="evenodd" d="M6.49238 8.00468L6.12793 7.73988H6.57838L6.7176 7.31152L6.85682 7.73988H7.30727L6.94286 8.00468L7.08201 8.43318L6.7176 8.16835L6.35319 8.43318L6.49238 8.00468Z" fill="white"/>
<path fill-rule="evenodd" clip-rule="evenodd" d="M7.38004 9.66289L7.01562 9.39812H7.46607L7.60526 8.96973L7.74452 9.39812H8.19496L7.83055 9.66289L7.9697 10.0914L7.60526 9.82658L7.24088 10.0914L7.38004 9.66289Z" fill="white"/>
<path fill-rule="evenodd" clip-rule="evenodd" d="M4.71698 8.00468L4.35254 7.73988H4.80298L4.94221 7.31152L5.0814 7.73988H5.53188L5.16747 8.00468L5.30662 8.43318L4.94221 8.16835L4.57783 8.43318L4.71698 8.00468Z" fill="white"/>
<path fill-rule="evenodd" clip-rule="evenodd" d="M5.60419 9.66289L5.23975 9.39812H5.69019L5.82942 8.96973L5.9686 9.39812H6.41905L6.05467 9.66289L6.19383 10.0914L5.82942 9.82658L5.46504 10.0914L5.60419 9.66289Z" fill="white"/>
<path fill-rule="evenodd" clip-rule="evenodd" d="M2.94274 8.00468L2.57837 7.73988H3.02883L3.16801 7.31152L3.3072 7.73988H3.75765L3.39327 8.00468L3.53242 8.43318L3.16801 8.16835L2.80359 8.43318L2.94274 8.00468Z" fill="white"/>
<path fill-rule="evenodd" clip-rule="evenodd" d="M3.82995 9.66289L3.46558 9.39812H3.91602L4.05524 8.96973L4.19443 9.39812H4.64488L4.2805 9.66289L4.41965 10.0914L4.05524 9.82658L3.6908 10.0914L3.82995 9.66289Z" fill="white"/>
<path fill-rule="evenodd" clip-rule="evenodd" d="M1.16858 8.00468L0.804199 7.73988H1.25465L1.39384 7.31152L1.53304 7.73988H1.98349L1.61906 8.00468L1.75823 8.43318L1.39384 8.16835L1.02942 8.43318L1.16858 8.00468Z" fill="white"/>
<path fill-rule="evenodd" clip-rule="evenodd" d="M2.05555 9.66289L1.69116 9.39812H2.14161L2.2808 8.96973L2.42 9.39812H2.87045L2.50603 9.66289L2.64519 10.0914L2.2808 9.82658L1.91638 10.0914L2.05555 9.66289Z" fill="white"/>
<path fill-rule="evenodd" clip-rule="evenodd" d="M13.5905 4.68779L13.2261 4.42302H13.6765L13.8157 3.99463L13.9549 4.42302H14.4054L14.041 4.68779L14.1802 5.11632L13.8157 4.85149L13.4514 5.11632L13.5905 4.68779Z" fill="white"/>
<path fill-rule="evenodd" clip-rule="evenodd" d="M11.8156 4.68779L11.4512 4.42302H11.9016L12.0408 3.99463L12.18 4.42302H12.6305L12.2661 4.68779L12.4053 5.11632L12.0408 4.85149L11.6764 5.11632L11.8156 4.68779Z" fill="white"/>
<path fill-rule="evenodd" clip-rule="evenodd" d="M12.7032 6.3462L12.3389 6.08147H12.7893L12.9285 5.65308L13.0677 6.08147H13.5182L13.1538 6.3462L13.2929 6.77477L12.9285 6.50993L12.5641 6.77477L12.7032 6.3462Z" fill="white"/>
<path fill-rule="evenodd" clip-rule="evenodd" d="M10.0414 4.68779L9.677 4.42302H10.1274L10.2666 3.99463L10.4059 4.42302H10.8563L10.4919 4.68779L10.631 5.11632L10.2666 4.85149L9.90222 5.11632L10.0414 4.68779Z" fill="white"/>
<path fill-rule="evenodd" clip-rule="evenodd" d="M10.9283 6.3462L10.564 6.08147H11.0144L11.1536 5.65308L11.2928 6.08147H11.7433L11.3788 6.3462L11.518 6.77477L11.1536 6.50993L10.7892 6.77477L10.9283 6.3462Z" fill="white"/>
<path fill-rule="evenodd" clip-rule="evenodd" d="M8.26703 4.68779L7.90259 4.42302H8.35307L8.49229 3.99463L8.63148 4.42302H9.08192L8.71751 4.68779L8.8567 5.11632L8.49229 4.85149L8.12785 5.11632L8.26703 4.68779Z" fill="white"/>
<path fill-rule="evenodd" clip-rule="evenodd" d="M9.15421 6.3462L8.78979 6.08147H9.24024L9.3795 5.65308L9.51869 6.08147H9.96913L9.60472 6.3462L9.74387 6.77477L9.3795 6.50993L9.01505 6.77477L9.15421 6.3462Z" fill="white"/>
<path fill-rule="evenodd" clip-rule="evenodd" d="M6.49238 4.68779L6.12793 4.42302H6.57838L6.7176 3.99463L6.85682 4.42302H7.30727L6.94286 4.68779L7.08201 5.11632L6.7176 4.85149L6.35319 5.11632L6.49238 4.68779Z" fill="white"/>
<path fill-rule="evenodd" clip-rule="evenodd" d="M7.38004 6.3462L7.01562 6.08147H7.46607L7.60526 5.65308L7.74452 6.08147H8.19496L7.83055 6.3462L7.9697 6.77477L7.60526 6.50993L7.24088 6.77477L7.38004 6.3462Z" fill="white"/>
<path fill-rule="evenodd" clip-rule="evenodd" d="M4.71698 4.68779L4.35254 4.42302H4.80298L4.94221 3.99463L5.0814 4.42302H5.53188L5.16747 4.68779L5.30662 5.11632L4.94221 4.85149L4.57783 5.11632L4.71698 4.68779Z" fill="white"/>
<path fill-rule="evenodd" clip-rule="evenodd" d="M5.60419 6.3462L5.23975 6.08147H5.69019L5.82942 5.65308L5.9686 6.08147H6.41905L6.05467 6.3462L6.19383 6.77477L5.82942 6.50993L5.46504 6.77477L5.60419 6.3462Z" fill="white"/>
<path fill-rule="evenodd" clip-rule="evenodd" d="M2.94274 4.68779L2.57837 4.42302H3.02883L3.16801 3.99463L3.3072 4.42302H3.75765L3.39327 4.68779L3.53242 5.11632L3.16801 4.85149L2.80359 5.11632L2.94274 4.68779Z" fill="white"/>
<path fill-rule="evenodd" clip-rule="evenodd" d="M3.82995 6.3462L3.46558 6.08147H3.91602L4.05524 5.65308L4.19443 6.08147H4.64488L4.2805 6.3462L4.41965 6.77477L4.05524 6.50993L3.6908 6.77477L3.82995 6.3462Z" fill="white"/>
<path fill-rule="evenodd" clip-rule="evenodd" d="M1.16858 4.68779L0.804199 4.42302H1.25465L1.39384 3.99463L1.53304 4.42302H1.98349L1.61906 4.68779L1.75823 5.11632L1.39384 4.85149L1.02942 5.11632L1.16858 4.68779Z" fill="white"/>
<path fill-rule="evenodd" clip-rule="evenodd" d="M2.05555 6.3462L1.69116 6.08147H2.14161L2.2808 5.65308L2.42 6.08147H2.87045L2.50603 6.3462L2.64519 6.77477L2.2808 6.50993L1.91638 6.77477L2.05555 6.3462Z" fill="white"/>
</g>
</svg>
