<svg width="20" height="24" viewBox="0 0 20 24" fill="none" xmlns="http://www.w3.org/2000/svg">
<path d="M2.72075 22.9489C1.41031 23.4552 0 22.4881 0 21.0833V2C0 0.89543 0.895431 0 2 0H18C19.1046 0 20 0.895431 20 2V21.0931C20 22.4942 18.5966 23.461 17.2874 22.9618L10.6569 20.4335C10.1951 20.2574 9.68454 20.2585 9.22356 20.4366L2.72075 22.9489Z" fill="#AFBED5"/>
<path fill-rule="evenodd" clip-rule="evenodd" d="M9.56932 4.01471C13.073 3.77161 15.994 6.57397 16 10.0687L16 10.0693C16 12.9635 13.9921 15.3886 11.3049 15.9904C11.3008 15.9914 11.2966 15.9922 11.2924 15.993C11.0317 16.0409 10.7739 15.838 10.7739 15.5574V10.0855H8.64319V10.9946H8.81449C8.99891 10.9946 9.14841 11.1458 9.14841 11.3323V15.5344C9.14841 15.7986 8.90407 16.0418 8.60914 15.9655C5.86964 15.3133 3.85778 12.7552 4.00788 9.75393M8.48058 11.6699H8.30928C8.12486 11.6699 7.97537 11.5188 7.97537 11.3323V9.74784C7.97537 9.56134 8.12486 9.41015 8.30928 9.41015H11.1078C11.2922 9.41015 11.4417 9.56134 11.4417 9.74784V15.2598C13.6869 14.6245 15.3321 12.5383 15.3322 10.0694C15.3266 6.96269 12.7302 4.47248 9.61527 4.68848C6.95137 4.87758 4.80834 7.08804 4.67487 9.78766L4.67486 9.78787C4.54658 12.3514 6.19231 14.5509 8.48058 15.2327V11.6699ZM9.56932 4.01471L9.56882 4.01474L9.56932 4.01471ZM9.56882 4.01474C6.56772 4.22762 4.15833 6.71286 4.00789 9.75373L9.56882 4.01474Z" fill="white"/>
<path fill-rule="evenodd" clip-rule="evenodd" d="M9.87627 6.46907C9.38038 6.46907 8.97838 6.87562 8.97838 7.37711C8.97838 7.87861 9.38038 8.28515 9.87627 8.28515C10.3722 8.28515 10.7742 7.87861 10.7742 7.37711C10.7742 6.87562 10.3722 6.46907 9.87627 6.46907ZM8.31055 7.37711C8.31055 6.50262 9.01155 5.7937 9.87627 5.7937C10.741 5.7937 11.442 6.50262 11.442 7.37711C11.442 8.25161 10.741 8.96053 9.87627 8.96053C9.01155 8.96053 8.31055 8.25161 8.31055 7.37711Z" fill="white"/>
</svg>
