<svg width="12" height="15" viewBox="0 0 12 15" fill="none" xmlns="http://www.w3.org/2000/svg">
<path fill-rule="evenodd" clip-rule="evenodd" d="M0 6.21502C0 2.78242 2.6875 0 6 0C9.31251 0 12 2.78242 12 6.21502C12 8.13481 11.1925 9.65273 10.18 10.8865C8.26501 13.2184 6 15 6 15C6 15 3.2275 12.6988 1.82 10.8865C0.840001 9.62457 0 8.15785 0 6.21502ZM6.09968 8.74276C7.44708 8.74276 8.53937 7.62438 8.53937 6.24479C8.53937 4.8652 7.44708 3.74683 6.09968 3.74683C4.75228 3.74683 3.66 4.8652 3.66 6.24479C3.66 7.62438 4.75228 8.74276 6.09968 8.74276Z" fill="#9EA9B9"/>
</svg>
