<svg width="20" height="20" viewBox="0 0 20 20" fill="none" xmlns="http://www.w3.org/2000/svg">
<path d="M10.2268 4.27109H0V5.3824H10.2268V4.27109Z" fill="#384250"/>
<path d="M14.9871 1.11132C17.1133 1.11132 18.8434 2.77828 18.8434 4.82681C18.8434 6.87534 17.1133 8.54232 14.9871 8.54232C12.861 8.54232 11.1309 6.87534 11.1309 4.82681C11.1309 2.77828 12.861 1.11132 14.9871 1.11132ZM14.9871 0C12.219 0 9.97754 2.16335 9.97754 4.82681C9.97754 7.49397 12.2228 9.65364 14.9871 9.65364C17.7553 9.65364 19.9968 7.49027 19.9968 4.82681C19.9968 2.15965 17.7553 0 14.9871 0Z" fill="#384250"/>
<path d="M19.9993 14.6177H9.77246V15.729H19.9993V14.6177Z" fill="#384250"/>
<path d="M5.01352 11.4577C7.13962 11.4577 8.86973 13.1247 8.86973 15.1732C8.86973 17.2218 7.13962 18.8887 5.01352 18.8887C2.88741 18.8887 1.15731 17.2218 1.15731 15.1732C1.15346 13.1247 2.88357 11.4577 5.01352 11.4577ZM5.01352 10.3464C2.24535 10.3464 0.00390625 12.5098 0.00390625 15.1732C0.00390625 17.8404 2.2492 20.0001 5.01352 20.0001C7.78168 20.0001 10.0231 17.8367 10.0231 15.1732C10.0231 12.5061 7.78168 10.3464 5.01352 10.3464Z" fill="#384250"/>
</svg>
