<svg width="19" height="15" viewBox="0 0 19 15" fill="none" xmlns="http://www.w3.org/2000/svg">
<path d="M19 15H0V1.10164H5.30273L5.72073 0H13.3864L13.7422 1.10164H19V15ZM1.03636 14.053H17.9636V2.04861H12.9787L12.8578 1.71086L12.6125 0.950126H6.45655L6.03855 2.05177H1.03636V14.053Z" fill="#384250"/>
<path d="M9.50163 5.93701C10.724 5.93701 11.7183 6.91826 11.7183 8.12451C11.7183 9.33076 10.724 10.312 9.50163 10.312C8.27929 10.312 7.28496 9.33076 7.28496 8.12451C7.28496 6.91826 8.27929 5.93701 9.50163 5.93701ZM9.50163 4.99951C7.75363 4.99951 6.33496 6.39951 6.33496 8.12451C6.33496 9.84951 7.75363 11.2495 9.50163 11.2495C11.2496 11.2495 12.6683 9.84951 12.6683 8.12451C12.6683 6.39951 11.2496 4.99951 9.50163 4.99951Z" fill="#384250"/>
<ellipse cx="14.5689" cy="4.375" rx="0.633333" ry="0.625" fill="#384250"/>
</svg>
