<svg width="20" height="15" viewBox="0 0 20 15" fill="none" xmlns="http://www.w3.org/2000/svg">
<path d="M7.19629 7.50054C7.19629 5.81322 8.47864 4.49658 9.99953 4.49658C11.5168 4.49658 12.7999 5.81278 12.8028 7.50103C12.8025 9.18812 11.5203 10.5045 9.99953 10.5045C8.47864 10.5045 7.19629 9.18787 7.19629 7.50054Z" stroke="#384250"/>
<path d="M10 15C8.11021 15 6.33562 14.2206 5 12.8038L0 7.49999L5 2.19617C6.33562 0.77939 8.11021 0 10 0C11.8898 0 13.6644 0.77939 15 2.19617L20 7.49999L15 12.8038C13.6644 14.2206 11.8867 15 10 15ZM1.32005 7.49999L5.66002 12.1037C6.81818 13.3322 8.35928 14.0092 10 14.0092C11.6407 14.0092 13.1818 13.3322 14.34 12.1037L18.68 7.49999L14.34 2.89631C13.1818 1.66777 11.6407 0.990753 10 0.990753C8.35928 0.990753 6.81818 1.66777 5.66002 2.89631L1.32005 7.49999Z" fill="#384250"/>
</svg>
