<svg width="20" height="20" viewBox="0 0 20 20" fill="none" xmlns="http://www.w3.org/2000/svg">
<path fill-rule="evenodd" clip-rule="evenodd" d="M4.28925 11.4079C4.30117 13.903 4.30109 16.4084 4.28901 18.9033H15.7108C15.6987 16.404 15.6987 13.8944 15.7106 11.395C13.8033 11.4079 11.8853 11.4079 9.98441 11.4079H4.28925ZM16.6666 10.7185C16.6499 13.6539 16.6499 16.6064 16.6666 19.5419C16.6666 19.8982 16.5833 20 16.2333 20H3.76659C3.39992 20 3.33325 19.8812 3.33325 19.5419C3.34992 16.6064 3.34992 13.6539 3.33325 10.7185C3.33325 10.3791 3.43325 10.2943 3.74992 10.3112H9.98325C12.0666 10.3112 14.1666 10.3112 16.2499 10.2943C16.5833 10.2943 16.6666 10.3961 16.6666 10.7185ZM15.7139 10.7045C15.7139 10.7044 15.714 10.706 15.7141 10.7092L15.7139 10.7045ZM4.28624 19.5726C4.28623 19.5726 4.28617 19.5719 4.2861 19.5703L4.28624 19.5726ZM15.7138 19.5652C15.7137 19.5671 15.7137 19.568 15.7136 19.5679L15.7138 19.5652ZM4.28568 10.7122C4.28574 10.7087 4.28584 10.7071 4.28588 10.7072L4.28568 10.7122ZM16.1917 0.0403429C16.2243 0.0482266 16.2547 0.0572657 16.283 0.0674602C16.4497 0.127488 16.5429 0.227575 16.5648 0.367723C16.584 0.517617 16.5816 0.671135 16.5792 0.825561C16.5784 0.877156 16.5776 0.928898 16.5776 0.980594C16.5776 1.09027 16.4495 1.09672 16.283 1.09672H3.81955C3.39684 1.09672 3.39684 1.09672 3.39684 0.883825C3.39684 0.830064 3.39542 0.776304 3.39399 0.722543C3.39115 0.615022 3.3883 0.507501 3.39684 0.399979C3.41411 0.226031 3.54779 0.104848 3.7861 0.0443341C3.79703 0.041559 3.80818 0.0389114 3.81955 0.0363922C3.92803 0.0123516 4.05646 0 4.20383 0H15.7835C15.9447 0 16.0806 0.0134476 16.1917 0.0403429Z" fill="#384250"/>
<path fill-rule="evenodd" clip-rule="evenodd" d="M0 5.48361C0 3.96936 1.06599 2.74182 2.38095 2.74182H17.619C18.934 2.74182 20 3.96936 20 5.48361V14.2574C20 15.7716 18.934 16.9991 17.619 16.9991H16.1905V15.9024H17.619C18.408 15.9024 19.0476 15.1659 19.0476 14.2574V5.48361C19.0476 4.57506 18.408 3.83854 17.619 3.83854H2.38095C1.59197 3.83854 0.952381 4.57506 0.952381 5.48361V14.2574C0.952381 15.1659 1.59197 15.9024 2.38095 15.9024H3.80952V16.9991H2.38095C1.06599 16.9991 0 15.7716 0 14.2574V5.48361Z" fill="#384250"/>
</svg>
