<svg width="14" height="14" viewBox="0 0 14 14" fill="none" xmlns="http://www.w3.org/2000/svg">
<path fill-rule="evenodd" clip-rule="evenodd" d="M3.00258 7.98556C3.01092 9.73211 3.01086 11.4858 3.0024 13.2323H10.9977C10.9892 11.4828 10.9892 9.72605 10.9975 7.97651C9.66244 7.98556 8.3198 7.98556 6.98918 7.98556H3.00258ZM11.6667 7.50292C11.655 9.55776 11.655 11.6245 11.6667 13.6793C11.6667 13.9287 11.6084 14 11.3634 14H2.63671C2.38004 14 2.33337 13.9169 2.33337 13.6793C2.34504 11.6245 2.34504 9.55776 2.33337 7.50292C2.33337 7.26537 2.40337 7.20598 2.62504 7.21786H6.98837C8.44671 7.21786 9.91671 7.21786 11.375 7.20598C11.6084 7.20598 11.6667 7.27725 11.6667 7.50292ZM10.9998 7.49312C10.9999 7.49312 10.9999 7.49418 11 7.49642L10.9998 7.49312ZM3.00046 13.7008C3.00046 13.7008 3.00042 13.7003 3.00037 13.6992L3.00046 13.7008ZM10.9998 13.6956C10.9997 13.697 10.9997 13.6976 10.9997 13.6975L10.9998 13.6956ZM3.00008 7.49853C3.00012 7.49612 3.00019 7.49499 3.00021 7.49503L3.00008 7.49853ZM11.3343 0.02824C11.3571 0.0337586 11.3784 0.040086 11.3982 0.0472222C11.5149 0.0892413 11.5801 0.159303 11.5955 0.257406C11.6089 0.362332 11.6072 0.469795 11.6056 0.577893C11.605 0.614009 11.6044 0.650229 11.6044 0.686416C11.6044 0.763186 11.5148 0.767702 11.3982 0.767702H2.67378C2.37789 0.767702 2.37789 0.767702 2.37789 0.618678C2.37789 0.581045 2.37689 0.543413 2.37589 0.50578C2.3739 0.430515 2.37191 0.35525 2.37789 0.279985C2.38997 0.158222 2.48355 0.0733938 2.65037 0.0310339C2.65802 0.0290913 2.66582 0.027238 2.67378 0.0254746C2.74972 0.0086461 2.83962 0 2.94278 0H11.0485C11.1614 0 11.2565 0.00941334 11.3343 0.02824Z" fill="white"/>
<path fill-rule="evenodd" clip-rule="evenodd" d="M0 3.83844C0 2.77847 0.746192 1.91919 1.66667 1.91919H12.3333C13.2538 1.91919 14 2.77847 14 3.83844V9.98006C14 11.04 13.2538 11.8993 12.3333 11.8993H11.3333V11.1316H12.3333C12.8856 11.1316 13.3333 10.616 13.3333 9.98006V3.83844C13.3333 3.20246 12.8856 2.68689 12.3333 2.68689H1.66667C1.11438 2.68689 0.666667 3.20246 0.666667 3.83844V9.98006C0.666667 10.616 1.11438 11.1316 1.66667 11.1316H2.66667V11.8993H1.66667C0.746192 11.8993 0 11.04 0 9.98006V3.83844Z" fill="white"/>
</svg>
