<svg width="15" height="15" viewBox="0 0 15 15" fill="none" xmlns="http://www.w3.org/2000/svg">
<path d="M0 15L1.09656 0H10.9136C10.9136 0 15.1587 0.547839 14.9939 4.36782C14.9939 4.36782 15.2723 6.70801 12.0577 8.46421C11.5357 8.7484 10.9923 8.87881 10.2729 9.12048L8.21637 9.26931L5.85696 9.28419L5.35805 6.64777L7.89045 6.66903L8.52373 6.67541C8.52373 6.67541 8.8556 6.61233 9.28769 6.45429C10.0747 6.16655 11.1816 5.55847 11.1927 4.42239C11.1927 4.42239 11.1363 2.44437 8.80511 2.44437C6.47317 2.44437 4.43448 2.38838 4.43448 2.38838L3.50868 15H0Z" fill="#606975"/>
</svg>
