<svg width="22" height="22" viewBox="0 0 22 22" fill="none" xmlns="http://www.w3.org/2000/svg">
<path d="M19.9998 20H4.72705V8.88131H8.98953L9.32553 8H15.4874L15.7734 8.88131H19.9998V20ZM5.56011 19.2424H19.1667V9.63889H15.1597L15.0625 9.36869L14.8654 8.7601H9.917L9.581 9.64141H5.56011V19.2424Z" fill="#384250" stroke="#384250" stroke-width="0.2"/>
<path d="M12.3648 12.749C13.3473 12.749 14.1466 13.534 14.1466 14.499C14.1466 15.464 13.3473 16.249 12.3648 16.249C11.3822 16.249 10.583 15.464 10.583 14.499C10.583 13.534 11.3822 12.749 12.3648 12.749ZM12.3648 11.999C10.9597 11.999 9.81934 13.119 9.81934 14.499C9.81934 15.879 10.9597 16.999 12.3648 16.999C13.7699 16.999 14.9102 15.879 14.9102 14.499C14.9102 13.119 13.7699 11.999 12.3648 11.999Z" fill="#384250" stroke="#384250" stroke-width="0.2"/>
<ellipse cx="16.4373" cy="11.5" rx="0.509091" ry="0.5" fill="#384250" stroke="#384250" stroke-width="0.2"/>
<path d="M21 12V1H1V21H8" stroke="#384250" stroke-dasharray="1 1"/>
</svg>
