<svg width="20" height="20" viewBox="0 0 20 20" fill="none" xmlns="http://www.w3.org/2000/svg">
<path d="M7.61764 15.2216C11.814 15.2216 15.2349 11.8005 15.2349 7.60387C15.2349 3.4072 11.814 0 7.61764 0C3.42124 0 0.000418663 3.4072 0.000418663 7.60387C0.000418663 11.8005 3.42124 15.2216 7.61764 15.2216ZM7.61764 1.26038C11.1216 1.26038 13.9607 4.09972 13.9607 7.60387C13.9607 11.108 11.1216 13.9474 7.61764 13.9474C4.11372 13.9474 1.27457 11.108 1.27457 7.60387C1.27457 4.11357 4.11372 1.26038 7.61764 1.26038Z" fill="#384250"/>
<path d="M16.7571 20.0003C17.6019 20.0003 18.5575 19.1139 18.8345 18.8369C19.25 18.4214 19.5963 17.9643 19.7901 17.5488C20.081 16.9532 20.0256 16.5516 19.8871 16.3022C19.8594 16.2053 19.804 16.1222 19.7486 16.0668L15.4414 11.7593C15.3029 11.6208 15.109 11.5516 14.9151 11.5793C14.7212 11.607 14.5412 11.7178 14.4442 11.8978L13.5163 13.5322L11.8821 14.4601C11.7159 14.5571 11.5912 14.7372 11.5635 14.9311C11.5358 15.125 11.6051 15.3189 11.7436 15.4574L16.0508 19.7649C16.12 19.8341 16.217 19.8895 16.3278 19.9311C16.4386 19.9726 16.5909 20.0003 16.7571 20.0003ZM18.7237 16.8147C18.6683 17.0086 18.4329 17.4518 17.9343 17.9366C17.4496 18.4214 17.0064 18.6707 16.8125 18.7261L13.2255 15.1388L14.2919 14.5294C14.3888 14.474 14.4719 14.3909 14.5273 14.2939L15.1367 13.2275L18.7237 16.8147Z" fill="#384250"/>
</svg>
