<svg width="8" height="10" viewBox="0 0 8 10" fill="none" xmlns="http://www.w3.org/2000/svg">
<path d="M3.99996 9.99998C4.13277 9.99998 4.25777 9.94934 4.35152 9.86254L7.85144 6.6218C7.94519 6.53499 7.99988 6.41925 7.99988 6.29628C7.99988 6.04309 7.77332 5.83331 7.49989 5.83331L0.500038 5.83331C0.226606 5.83331 4.86275e-05 6.04309 4.86155e-05 6.29628C4.86097e-05 6.41925 0.0547347 6.53499 0.148483 6.6218L3.64841 9.86254C3.74216 9.94934 3.86715 9.99998 3.99996 9.99998Z" fill="white"/>
<path d="M4.00004 2.14665e-05C3.86723 2.14504e-05 3.74223 0.0506577 3.64848 0.137464L0.148557 3.3782C0.0548085 3.46501 0.000122153 3.58075 0.000122136 3.70372C0.0001221 3.95691 0.22668 4.16669 0.500112 4.16669L7.49996 4.16669C7.77339 4.16669 7.99995 3.95691 7.99995 3.70373C7.99995 3.58075 7.94527 3.46501 7.85152 3.3782L4.35159 0.137464C4.25784 0.0506578 4.13285 2.14826e-05 4.00004 2.14665e-05Z" fill="white"/>
</svg>
