<svg width="25" height="25" viewBox="0 0 25 25" fill="none" xmlns="http://www.w3.org/2000/svg">
<rect width="25" height="25" rx="8" fill="#6FCF97"/>
<g filter="url(#filter0_d)">
<path fill-rule="evenodd" clip-rule="evenodd" d="M12.5 20C16.6421 20 20 16.6421 20 12.5C20 8.35786 16.6421 5 12.5 5C8.35786 5 5 8.35786 5 12.5C5 16.6421 8.35786 20 12.5 20ZM10.7886 14.7884C10.9326 14.9309 11.1178 15.0001 11.307 15.0001C11.4922 15.0001 11.6814 14.9309 11.8254 14.7884L15.409 11.2435C15.697 10.9586 15.697 10.4987 15.409 10.2138C15.121 9.92886 14.6561 9.92886 14.3681 10.2138L11.307 13.2459L10.0069 11.9598C9.71892 11.6749 9.254 11.6749 8.966 11.9598C8.678 12.2447 8.678 12.7046 8.966 12.9895L10.7886 14.7884Z" fill="white"/>
</g>
<defs>
<filter id="filter0_d" x="3" y="4" width="19" height="19" filterUnits="userSpaceOnUse" color-interpolation-filters="sRGB">
<feFlood flood-opacity="0" result="BackgroundImageFix"/>
<feColorMatrix in="SourceAlpha" type="matrix" values="0 0 0 0 0 0 0 0 0 0 0 0 0 0 0 0 0 0 127 0" result="hardAlpha"/>
<feOffset dy="1"/>
<feGaussianBlur stdDeviation="1"/>
<feColorMatrix type="matrix" values="0 0 0 0 0.0552083 0 0 0 0 0.138021 0 0 0 0 0.220833 0 0 0 0.15 0"/>
<feBlend mode="normal" in2="BackgroundImageFix" result="effect1_dropShadow"/>
<feBlend mode="normal" in="SourceGraphic" in2="effect1_dropShadow" result="shape"/>
</filter>
</defs>
</svg>
