<svg width="15" height="15" viewBox="0 0 15 15" fill="none" xmlns="http://www.w3.org/2000/svg">
<path d="M13.4027 14.0002C13.4027 14.5525 12.955 15.0002 12.4027 15.0002H2.36328C1.811 15.0002 1.36328 14.5525 1.36328 14.0002V4.22777C1.36328 4.00166 1.54658 3.81836 1.77269 3.81836C1.9988 3.81836 2.1821 4.00166 2.1821 4.22777V13.2469C2.1821 13.7991 2.62982 14.2469 3.1821 14.2469H11.5839C12.1361 14.2469 12.5839 13.7991 12.5839 13.2469V4.22777C12.5839 4.00166 12.7672 3.81836 12.9933 3.81836C13.2194 3.81836 13.4027 4.00166 13.4027 4.22777V14.0002Z" fill="#384250"/>
<path d="M14.5909 2.45508H0.409091C0.183156 2.45508 0 2.63823 0 2.86417C0 3.0901 0.183157 3.27326 0.409091 3.27326H14.5909C14.8168 3.27326 15 3.0901 15 2.86417C15 2.63823 14.8168 2.45508 14.5909 2.45508Z" fill="#384250"/>
<path d="M10.4251 2.91546H9.60419V0.818182H5.39313V2.91546H4.57227V0H10.4251V2.91546Z" fill="#384250"/>
<path d="M5.99079 11.0383V6.40457C5.99079 6.1779 5.80703 5.99414 5.58036 5.99414C5.35368 5.99414 5.16992 6.1779 5.16992 6.40457V11.0383C5.16992 11.2649 5.35368 11.4487 5.58036 11.4487C5.80703 11.4487 5.99079 11.2649 5.99079 11.0383Z" fill="#384250"/>
<path d="M9.82477 11.0383V6.40457C9.82477 6.1779 9.64102 5.99414 9.41434 5.99414C9.18766 5.99414 9.00391 6.1779 9.00391 6.40457V11.0383C9.00391 11.2649 9.18766 11.4487 9.41434 11.4487C9.64102 11.4487 9.82477 11.2649 9.82477 11.0383Z" fill="#384250"/>
</svg>
