<svg width="25" height="25" viewBox="0 0 25 25" fill="none" xmlns="http://www.w3.org/2000/svg">
<rect width="25" height="25" rx="8" fill="#FFBF3A"/>
<g filter="url(#filter0_d)">
<path fill-rule="evenodd" clip-rule="evenodd" d="M20 12.5C20 16.6421 16.6421 20 12.5 20C8.35787 20 5 16.6421 5 12.5C5 8.35786 8.35787 5 12.5 5C16.6421 5 20 8.35786 20 12.5ZM12.5026 8.00005C13.0626 8.00005 13.5026 8.36496 13.5026 8.84215L13.5026 13.2866C13.5026 13.7544 13.0626 14.1287 12.5026 14.1287C11.9426 14.1287 11.5026 13.7638 11.5026 13.2866L11.5026 8.84215C11.5026 8.36496 11.9346 8.00005 12.5026 8.00005ZM13.502 15.9785C13.502 15.4147 13.054 14.9571 12.502 14.9571C11.95 14.9571 11.502 15.4147 11.502 15.9785C11.502 16.5423 11.95 16.9999 12.502 16.9999C13.054 16.9999 13.502 16.5423 13.502 15.9785Z" fill="white"/>
</g>
<defs>
<filter id="filter0_d" x="3" y="4" width="19" height="19" filterUnits="userSpaceOnUse" color-interpolation-filters="sRGB">
<feFlood flood-opacity="0" result="BackgroundImageFix"/>
<feColorMatrix in="SourceAlpha" type="matrix" values="0 0 0 0 0 0 0 0 0 0 0 0 0 0 0 0 0 0 127 0" result="hardAlpha"/>
<feOffset dy="1"/>
<feGaussianBlur stdDeviation="1"/>
<feColorMatrix type="matrix" values="0 0 0 0 0.0552083 0 0 0 0 0.138021 0 0 0 0 0.220833 0 0 0 0.15 0"/>
<feBlend mode="normal" in2="BackgroundImageFix" result="effect1_dropShadow"/>
<feBlend mode="normal" in="SourceGraphic" in2="effect1_dropShadow" result="shape"/>
</filter>
</defs>
</svg>
